<svg xmlns="http://www.w3.org/2000/svg" xmlns:xlink="http://www.w3.org/1999/xlink" width="220" height="214" viewBox="0 0 220 214">
  <defs>
    <clipPath id="clip-path">
      <rect id="Rectángulo_411036" data-name="Rectángulo 411036" width="220" height="214" transform="translate(1125.051 395)" fill="#fff" stroke="#707070" stroke-width="1"/>
    </clipPath>
    <clipPath id="clip-path-2">
      <rect id="Rectángulo_411034" data-name="Rectángulo 411034" width="219.869" height="242.932" fill="none"/>
    </clipPath>
    <clipPath id="clip-path-3">
      <rect id="Rectángulo_411035" data-name="Rectángulo 411035" width="219.945" height="219.945" fill="none"/>
    </clipPath>
  </defs>
  <g id="Enmascarar_grupo_1099187" data-name="Enmascarar grupo 1099187" transform="translate(-1125.051 -395)" clip-path="url(#clip-path)">
    <g id="Grupo_1188550" data-name="Grupo 1188550" transform="translate(1125.459 389.621)">
      <g id="Grupo_1188547" data-name="Grupo 1188547" transform="translate(0 -0.106)">
        <g id="Grupo_1188546" data-name="Grupo 1188546" clip-path="url(#clip-path-2)">
          <path id="Trazado_1321546" data-name="Trazado 1321546" d="M420.733,142.182c-.007,0-.012,0-.018,0s-.01-.012-.011-.019c-4.538-6.238-9.253-28.69,4.254-27.815,5.083.331,5.875,6.718,5.944,10.026,2.882-1.619,8.789-4.175,11.651.039,7.606,11.2-14.141,18.518-21.819,17.768" transform="translate(-233.104 -64.052)" fill="#f4a2a2"/>
          <path id="Trazado_1321547" data-name="Trazado 1321547" d="M36.973,61.942s0,.006,0,.011-.01,0-.014,0c-4.756.342-18.077-4.523-13.2-11.324,1.835-2.559,5.445-.886,7.2.159.093-2.041.682-5.976,3.829-6.1,8.363-.328,5.093,13.472,2.189,17.255" transform="translate(-12.716 -25.033)" fill="#f4a2a2"/>
          <path id="Trazado_1321548" data-name="Trazado 1321548" d="M395.075,38.391a9.307,9.307,0,1,0,2.448,12.932,9.309,9.309,0,0,0-2.448-12.932M389.2,52.4l-2.448-.765,1.473-4.713-4.715-1.47.763-2.446,4.715,1.47,1.47-4.715,2.448.765-1.473,4.713,4.715,1.47-.765,2.448-4.714-1.472Z" transform="translate(-213.194 -20.603)" fill="#fff"/>
          <path id="Trazado_1321549" data-name="Trazado 1321549" d="M33.515,229.859a7.276,7.276,0,1,0,6.985,7.557,7.278,7.278,0,0,0-6.985-7.557m1.918,11.72-1.94.508-.978-3.735-3.735.981-.509-1.937,3.735-.981-.981-3.735,1.94-.508.978,3.735,3.735-.981.508,1.94-3.735.978Z" transform="translate(-14.54 -128.778)" fill="#fff"/>
          <path id="Trazado_1321550" data-name="Trazado 1321550" d="M388.933,241.1a1.245,1.245,0,0,0-1.052-1.081,78.01,78.01,0,0,1-12.374-1.91c-5.734-2.014-12.3-2.667-16.99,1.986a1.38,1.38,0,0,0-.353.057,43.275,43.275,0,0,1,4.989-13.028c9.661.617,18.661,4.9,27.46-2.138,1.615-1.107,8.2-8.114,4.127-8.826-14.521,1.245-11.818-5.036-27.175,4.36a54.625,54.625,0,0,1,9.288-9.436c7.843.141,14.5-4.139,18.618-10.66,3.031-4.163,6.166-9.215,5.47-14.563-.656-1.688-2.439-.609-3.509-.109-12.246,5-18.384,8.974-21.09,22.674a38.758,38.758,0,0,0-5.039,4.248c1.97-10.459-7.626-18.334-10.693-27.714a1.251,1.251,0,0,0-2.288-.026,26.546,26.546,0,0,0,1.244,25.146c1.953,2.944,5.612,4.095,7.751,6.846a58.121,58.121,0,0,0-6.671,9.721c-1.161-8.5-9.432-11.763-15.972-15.608-2-.582-6.17-5.765-7.48-4.237a1.25,1.25,0,0,0-.128,1.613c2.4,4.354,3.154,9.433,5.479,13.85,3.316,7.84,6.274,11.843,15.426,10.012A40.759,40.759,0,0,0,355,247.448c-5.255-14.992-30.478-18.517-25.512-12.8,10.466,7.44,8.217,17.812,25.471,17.122.466,2.042-1.359,11.493,1.309,11.084,2.415.069.414-17.195,1.541-20.484a15.935,15.935,0,0,0,16.922,4.694c3.223-.905,13.132-2.92,14.2-5.967" transform="translate(-184.241 -103.201)" fill="#9cdcff"/>
          <path id="Trazado_1321551" data-name="Trazado 1321551" d="M106.029,111.934a1.143,1.143,0,0,0-1.346.321,71.553,71.553,0,0,1-7.315,8.852c-4.279,3.572-7.878,8.441-6.413,14.319a1.238,1.238,0,0,0-.121.3,39.681,39.681,0,0,1-7.922-10.048c5.023-7.323,12.626-12.4,11.21-22.639-.114-1.792-2.544-10.267-5.016-7.4-5.838,12.025-9.518,6.947-9.325,23.458a50.115,50.115,0,0,1-3.074-11.748c3.794-6.113,3.548-13.368.345-19.675C75.2,83.34,72.686,78.5,68.146,76.535c-1.638-.276-1.626,1.635-1.733,2.714-1.808,12-1.562,18.7,7.961,27.263a35.553,35.553,0,0,0,.981,5.964c-7.316-6.463-18.026-2.6-26.856-4.589a1.148,1.148,0,0,0-1.095,1.791,24.348,24.348,0,0,0,20.4,10.828c3.236-.157,5.861-2.5,9.033-2.892a53.316,53.316,0,0,0,4.527,9.821c-7.245-3.078-13.7,1.908-19.8,5.255-1.4,1.305-7.44,2.154-6.851,3.9a1.146,1.146,0,0,0,1.21.859c4.556.157,8.913,1.945,13.484,2.186,7.734,1.069,12.277.618,15.132-7.453a37.389,37.389,0,0,0,10.56,9.464c-14.279-2.9-28.9,15.318-22.065,14.09,10.776-4.753,17.892,1.89,25.45-12.028,1.828.591,8.417,6.467,9.348,4.174,1.189-1.87-13.353-8.4-15.415-10.832a14.616,14.616,0,0,0,11.644-11.129c.8-2.964,3.866-11.717,1.966-13.989" transform="translate(-26.45 -42.864)" fill="#9cdcff"/>
        </g>
      </g>
      <g id="Grupo_1188549" data-name="Grupo 1188549" transform="translate(0 -0.452)">
        <g id="Grupo_1188548" data-name="Grupo 1188548" transform="translate(0 0)" clip-path="url(#clip-path-3)">
          <path id="Trazado_1321552" data-name="Trazado 1321552" d="M237.835,341.6a17.913,17.913,0,0,0,2.643-.156,8.848,8.848,0,0,1-2.043,3.17,22.215,22.215,0,0,1-5,3.5c-.226.13-.453.259-.682.386a16.882,16.882,0,0,1-3.229-2.706,8.848,8.848,0,0,1-1.881-3.269,19.7,19.7,0,0,0,10.2-.923" transform="translate(-127.538 -190.95)" fill="#212543"/>
          <path id="Trazado_1321553" data-name="Trazado 1321553" d="M321.8,173.8a21.489,21.489,0,0,0-2.948-.881,2.52,2.52,0,0,0,1.262-1.866v0a1.7,1.7,0,0,0-.216-.856,3.383,3.383,0,0,1,1.617,2.038,6.757,6.757,0,0,1,.284,1.569" transform="translate(-178.638 -95.006)" fill="#212543"/>
          <path id="Trazado_1321554" data-name="Trazado 1321554" d="M217.778,237.919a6.389,6.389,0,0,1,2.631,6.593,11.161,11.161,0,0,1-3.952,6.262,18.007,18.007,0,0,1-21.245,1.277c-1.257,4.5-6.2,6.718-10.77,6.266s-8.641-3-12.526-5.488c-.534-.339-1.069-.683-1.592-1.04-3.8,2.161-7.778,4.256-12.105,4.462-4.587.221-9.411-2.243-10.44-6.8a18.007,18.007,0,0,1-21.153-2.349,11.161,11.161,0,0,1-3.63-6.454,6.389,6.389,0,0,1,2.961-6.452,12.722,12.722,0,0,1-9.737-12.281c.069-5.708,4.076-11.463,9.592-12.467-3.162-.677-4.8-4.3-5.217-7.564-1.185-9.32,4.319-19.655,12.8-23.351-1.536-.42-2.138-2.5-1.535-4a6.869,6.869,0,0,1,3.437-3.23,21.862,21.862,0,0,1,11.044-2.444c.123,3.686,13.448,6.992,29.947,7.409a109.853,109.853,0,0,0,18.99-1.023c4.711-.731,8.266-1.8,10.042-3.085a22.158,22.158,0,0,1,6.3,2.475,6.872,6.872,0,0,1,3.269,3.4c.526,1.527-.18,3.576-1.735,3.918,8.285,4.12,13.26,14.72,11.606,23.968-.578,3.24-2.4,6.774-5.593,7.291,5.458,1.281,9.17,7.231,8.95,12.936a12.722,12.722,0,0,1-10.344,11.774" transform="translate(-65.114 -94.245)" fill="#212543"/>
          <path id="Trazado_1321555" data-name="Trazado 1321555" d="M237.835,341.6a17.913,17.913,0,0,0,2.643-.156,8.848,8.848,0,0,1-2.043,3.17,22.215,22.215,0,0,1-5,3.5c-.226.13-.453.259-.682.386a16.882,16.882,0,0,1-3.229-2.706,8.848,8.848,0,0,1-1.881-3.269,19.7,19.7,0,0,0,10.2-.923" transform="translate(-127.538 -190.95)" fill="#212543"/>
          <path id="Trazado_1321556" data-name="Trazado 1321556" d="M306.052,175.725c-1.776,1.285-5.331,2.354-10.042,3.085,3.326-.982,5.321-2.222,5.438-3.608a21.482,21.482,0,0,1,4.6.523" transform="translate(-165.843 -97.812)" fill="#212543"/>
          <path id="Trazado_1321557" data-name="Trazado 1321557" d="M240.956,221.417c-.015.718-.033,1.439-.055,2.157,0,.135-.011.271-.014.406-.023.765-.058,1.574-.1,2.412-.141,2.877-.384,6.1-.819,9.076-.044.3-.087.588-.133.872-.026.161-.055.314-.08.471-.063.38-.131.752-.2,1.109-.029.146-.058.292-.087.434l-.012.066c-.053.248-.106.5-.162.732-.113.489-.229.951-.359,1.391l-.095.328c-.067.218-.133.429-.2.633a8.48,8.48,0,0,1-1.8,3.282,1.89,1.89,0,0,1-.155.142c-1.352,1.127-3.437,2.691-4.673,3.627a41.054,41.054,0,0,1-10.763,6.3c-5.225,1.847-9.849,1.276-15.208-1.55a46.919,46.919,0,0,1-5.024-3.125l0,.15a77.77,77.77,0,0,1-7.455-5.95c-7.263-7.132-6.29-35.407-5.371-44.722a8.589,8.589,0,0,0,1.9-1.334,17.8,17.8,0,0,0,3.893-6.07c.206-.467.4-.939.6-1.407.221.222.449.429.686.626a7.945,7.945,0,0,0,5.446,2.061,8.867,8.867,0,0,0,5.426-2.138.431.431,0,0,0,.059-.054c.091-.075.184-.16.272-.242s.158-.157.236-.236c.1-.1.188-.2.277-.3a2.187,2.187,0,0,0,1.728,2.07,3.981,3.981,0,0,0,2.764-.509,7.836,7.836,0,0,0,3.559-3.96c.226,2.842,2.586,5.266,5.223,6.208a16.847,16.847,0,0,0,8.3.3,5.447,5.447,0,0,0,1.509,4.59,7.4,7.4,0,0,0,5.381,1.961c.169,0,.338-.006.507-.016a19.9,19.9,0,0,0,4.126-.772c.153.488.281.978.387,1.479a41.819,41.819,0,0,1,.457,8.815c-.031,2.817-.082,6.257.043,10.68" transform="translate(-105.081 -105.078)" fill="#e58b5e"/>
          <path id="Trazado_1321558" data-name="Trazado 1321558" d="M218.16,329.187a46.882,46.882,0,0,0,5.024,3.125,39.353,39.353,0,0,1-5.028-2.975Z" transform="translate(-122.225 -184.084)" fill="#e58b5e"/>
          <path id="Trazado_1321559" data-name="Trazado 1321559" d="M274.936,325.493a31.525,31.525,0,0,1-10.764,6.3,41.048,41.048,0,0,0,10.764-6.3" transform="translate(-148.006 -182.015)" fill="#e58b5e"/>
          <path id="Trazado_1321560" data-name="Trazado 1321560" d="M289.319,237.011c-.014.718-.033,1.439-.055,2.157,0,.135-.011.271-.014.406-.027.809-.062,1.611-.1,2.412-.079,1.552-.179,3.085-.31,4.566a67.061,67.061,0,0,1-.924,6.962c-.029.146-.058.292-.087.434l-.012.066c-.053.248-.106.5-.162.732-.113.489-.229.951-.359,1.391l-.095.328c-.067.218-.133.429-.2.633a8.132,8.132,0,0,1-1.8,3.282,1.887,1.887,0,0,1-.155.142c-1.352,1.128-3.437,2.691-4.673,3.627a55.537,55.537,0,0,1-6.5,4.336,61.42,61.42,0,0,0,10.429-51.678,19.9,19.9,0,0,0,4.126-.772c.04-.014.083-.024.123-.033.023.059.047.122.071.181a8.268,8.268,0,0,1,.193,1.332c.165,1.719.351,4.909.457,8.815.088,3.216.12,6.918.043,10.68" transform="translate(-153.443 -120.672)" fill="#dd7547"/>
          <path id="Trazado_1321561" data-name="Trazado 1321561" d="M287.264,243.4a5.372,5.372,0,0,1-9.028,3.156,5.024,5.024,0,0,1-1.866-3.147,9.862,9.862,0,0,0,2.717,1.9c3.335,1.727,5.618.519,8.177-1.905" transform="translate(-154.84 -136.021)" fill="#20223a"/>
          <path id="Trazado_1321562" data-name="Trazado 1321562" d="M290.079,225.267a7.819,7.819,0,0,0-2.383-3.98c-4.688-4.72-11.1-6.239-15.759-1.11,2.028-.183,9.953,1.12,13.228,2.459a21.3,21.3,0,0,1,4.914,2.631" transform="translate(-152.356 -121.216)" fill="#20223a"/>
          <path id="Trazado_1321563" data-name="Trazado 1321563" d="M287.287,261.169c-.064,3.226-.214,6.492-.478,9.54a13.451,13.451,0,0,1-6.837,1.371c-5.539-.266-9.888-3.376-9.716-6.948s4.8-6.257,10.336-5.992a13.46,13.46,0,0,1,6.695,2.029" transform="translate(-151.411 -144.829)" fill="#d86132"/>
          <path id="Trazado_1321564" data-name="Trazado 1321564" d="M250.893,294.067A5.721,5.721,0,0,1,241.6,298.5a5.661,5.661,0,0,1-2.415-3.231,10.925,10.925,0,0,0,3.167,1.772c3.81,1.52,6.107-.049,8.541-2.975" transform="translate(-134.006 -164.408)" fill="#20223a"/>
          <path id="Trazado_1321565" data-name="Trazado 1321565" d="M200.135,242.977a5.372,5.372,0,0,0,8.857,3.608,5.026,5.026,0,0,0,2.023-3.049,9.87,9.87,0,0,1-2.809,1.756c-3.419,1.557-5.638.234-8.07-2.316" transform="translate(-112.128 -135.784)" fill="#20223a"/>
          <path id="Trazado_1321566" data-name="Trazado 1321566" d="M189.662,221.594a7.746,7.746,0,0,1,3.24-3.3c5.651-3.466,12.237-3.409,15.573,2.689-1.929-.663-9.934-1.291-13.426-.773a21.157,21.157,0,0,0-5.387,1.382" transform="translate(-106.261 -120.658)" fill="#20223a"/>
          <path id="Trazado_1321567" data-name="Trazado 1321567" d="M188.817,268.931c1.7,2.018,5,3.389,8.8,3.4,5.546.018,10.045-2.872,10.055-6.449s-4.478-6.488-10.02-6.506c-4.236-.01-7.862,1.672-9.338,4.067Z" transform="translate(-105.505 -144.971)" fill="#d86132"/>
          <path id="Trazado_1321568" data-name="Trazado 1321568" d="M248.977,249.509c-.438,0-.9-.014-1.394-.043a.55.55,0,0,1,.065-1.1c5.21.31,6.789-1.187,7.267-2.105a3.01,3.01,0,0,0-.581-3.262,4.441,4.441,0,0,0-4.5-1.637.55.55,0,0,1-.684-.473c-.317-2.924-.38-4.483-.441-5.99-.06-1.489-.123-3.029-.436-5.915a.55.55,0,0,1,1.093-.118c.317,2.923.38,4.482.441,5.989.056,1.384.114,2.812.373,5.324a5.573,5.573,0,0,1,5.019,2.136,4.122,4.122,0,0,1,.7,4.454c-.668,1.285-2.418,2.74-6.913,2.74" transform="translate(-138.422 -127.604)" fill="#20223a"/>
          <path id="Trazado_1321569" data-name="Trazado 1321569" d="M321.2,252.638a14.369,14.369,0,0,1-6.776,3.978,48.05,48.05,0,0,1-.578-19.469,5,5,0,0,1,2.486-.661,6.225,6.225,0,0,1,2.227.333,8,8,0,0,1,4.933,5.2,10.6,10.6,0,0,1-2.292,10.621" transform="translate(-175.427 -132.145)" fill="#e58b5e"/>
          <path id="Trazado_1321570" data-name="Trazado 1321570" d="M316.427,245.764a4.479,4.479,0,0,1,6.317,3.077c.872,3.488-1.226,7.138-4.741,8.862-.534.262-1.187-.24-.911-.7a12.093,12.093,0,0,0,1.826-5.446c.088-2.405-1.034-4.731-2.64-5.1-.254-.058-.178-.519.148-.692" transform="translate(-177.114 -137.078)" fill="#d86132"/>
          <path id="Trazado_1321571" data-name="Trazado 1321571" d="M161.021,249.486a14.366,14.366,0,0,0,6.566,4.315,48.048,48.048,0,0,0,1.561-19.415,5,5,0,0,0-2.449-.786,6.226,6.226,0,0,0-2.241.22,8,8,0,0,0-5.189,4.943,10.6,10.6,0,0,0,1.752,10.723" transform="translate(-88.815 -130.518)" fill="#e58b5e"/>
          <path id="Trazado_1321572" data-name="Trazado 1321572" d="M171.628,242.942a4.479,4.479,0,0,0-6.465,2.754c-1.048,3.44.864,7.191,4.287,9.091.52.288,1.2-.18.945-.654a12.078,12.078,0,0,1-1.549-5.531c.033-2.407,1.271-4.673,2.893-4.96.258-.046.2-.51-.113-.7" transform="translate(-92.374 -135.44)" fill="#d86132"/>
          <path id="Trazado_1321573" data-name="Trazado 1321573" d="M244.959,162.528v0c-.1,3.721-13.664,6.394-30.3,5.974-16.5-.417-29.824-3.722-29.947-7.409a.43.43,0,0,1,0-.092,1.625,1.625,0,0,1,.2-.731c.526-1.02,2.088-1.941,4.442-2.721,5.37-1.77,14.86-2.8,25.648-2.525,13.07.33,24.149,2.472,28.251,5.181a4.292,4.292,0,0,1,1.488,1.463,1.7,1.7,0,0,1,.216.856" transform="translate(-103.487 -86.485)" fill="#1a1c33"/>
          <path id="Trazado_1321574" data-name="Trazado 1321574" d="M248.737,325.5l-.352,13.915c-.19.236-7.3,8.648-15.573,8.7-6.394.043-11.113-3.08-15.4-7.913l.331-13.081c11.353,7.976,18.544,7.83,30.994-1.624" transform="translate(-121.808 -182.016)" fill="#e58b5e"/>
          <path id="Trazado_1321575" data-name="Trazado 1321575" d="M249.018,325.5l-.212,8.393c-14.642,10.716-24.748,6.1-30.889-2.466l.109-4.3c11.353,7.973,18.543,7.829,30.992-1.624" transform="translate(-122.091 -182.018)" fill="#dd7547"/>
          <path id="Trazado_1321576" data-name="Trazado 1321576" d="M249.087,325.493s-2.342,9.008-13.649,10.595c-6.171.863-12.571-2.146-17.4-6.7l.057-2.274a46.869,46.869,0,0,0,5.024,3.125c5.359,2.825,9.982,3.4,15.207,1.55a41.048,41.048,0,0,0,10.764-6.3" transform="translate(-122.157 -182.015)" fill="#d86132"/>
          <path id="Trazado_1321577" data-name="Trazado 1321577" d="M244.965,155.96a39.158,39.158,0,0,1-7.8,1.863l-.39.056c-.062.013-.126.019-.191.028-1.18.172-2.428.32-3.733.445l-.153.087a.326.326,0,0,0-.114.107l-.079-.16c-.195.017-.393.034-.591.054-1.989.17-4.1.292-6.309.358-.968.03-1.954.046-2.957.053q-2.082.014-4.246-.041-1.579-.04-3.115-.112c-.388-.021-.776-.041-1.16-.066-1.077-.06-2.14-.135-3.177-.219-.348-.027-.7-.058-1.04-.092-.538-.047-1.072-.1-1.6-.154-.147-.015-.291-.033-.434-.047l-.624-.071c-2.036-.231-3.964-.514-5.75-.834-.068-.009-.132-.022-.2-.034-.093-.014-.183-.03-.272-.051-.487-.086-.959-.178-1.424-.274a35.763,35.763,0,0,1-8.228-2.532,8.762,8.762,0,0,1,4.061-3.87s0,0,.007,0c.069-.035.139-.07.211-.1s.149-.062.225-.09v0a3.623,3.623,0,0,1-.04-.411v0c-.015-.1-.024-.191-.033-.279a8.786,8.786,0,0,1,.214-2.5,8.808,8.808,0,0,1,9.1-7,8.494,8.494,0,0,1,4.07,1.166.283.283,0,0,1,.008-.059,4.244,4.244,0,0,1,.21-.632v0a4.621,4.621,0,0,1,4.021-2.842c1.792-.054,3.34,1.569,4.008,3.308a4.551,4.551,0,0,1,.171.514v0c.007-.007.018-.015.025-.022h0c.081-.064.161-.128.242-.188s.183-.139.275-.2a10.884,10.884,0,0,1,10.137-1.151,11.157,11.157,0,0,1,6.215,6.786,10.322,10.322,0,0,1,.313,1.152c.026.118.048.236.07.357s.041.239.056.361l.007.007c.231.1.47.2.7.311a.152.152,0,0,1,.029.011c.146.066.3.132.437.2a31.28,31.28,0,0,1,5.477,3.25,12.843,12.843,0,0,1,3.362,3.578" transform="translate(-107.225 -76.791)" fill="#f4a2a2"/>
          <path id="Trazado_1321578" data-name="Trazado 1321578" d="M208.611,159.488a8.767,8.767,0,0,0-.3,1.693c-.147-.015-.29-.033-.434-.047l-.624-.071c-2.037-.231-3.964-.515-5.75-.835-.068-.009-.133-.022-.2-.034-.093-.013-.182-.03-.272-.051-.487-.086-.959-.178-1.424-.274a35.746,35.746,0,0,1-8.228-2.532,8.763,8.763,0,0,1,4.061-3.87s0,0,.007,0c.069-.035.138-.07.211-.1s.149-.062.225-.09v0a3.623,3.623,0,0,1-.04-.412v0c-.015-.1-.024-.191-.033-.279a8.773,8.773,0,0,1,.215-2.505,8.807,8.807,0,0,1,9.1-7,10.278,10.278,0,0,0-2.8,5.951,10.037,10.037,0,0,0-.023,2.18c.026.268.062.536.113.8l.038.2a9.864,9.864,0,0,0,1.255,3.154c.183.3.381.585.589.865a10.226,10.226,0,0,0,2.374,2.259,8.859,8.859,0,0,0,.889.532,8.464,8.464,0,0,0,1.049.481" transform="translate(-107.225 -79.804)" fill="#ea9292"/>
          <path id="Trazado_1321579" data-name="Trazado 1321579" d="M214.146,182.026l0,.033c-.068-.009-.132-.022-.2-.034a1.146,1.146,0,0,0,.194,0" transform="translate(-119.869 -101.635)" fill="#e57f7f"/>
          <path id="Trazado_1321580" data-name="Trazado 1321580" d="M217.7,176.611l-.624-.071a5.783,5.783,0,0,0-.582-2.587,4.6,4.6,0,0,0-.463-.755,4.872,4.872,0,0,0-1.911-1.5c-.117-.054-.235-.1-.356-.145a3.622,3.622,0,0,0-2.855.115,2.5,2.5,0,0,0-1.371,2.318,1.913,1.913,0,0,0,1.318,1.638c-.487-.085-.959-.178-1.424-.274a2.5,2.5,0,0,1-.51-1.314,3.145,3.145,0,0,1,1.71-2.929,4.073,4.073,0,0,1,2.9-.275,1.9,1.9,0,0,1,.2.052l.011,0c.079.021.154.044.229.072.114.04.228.083.338.133a5.489,5.489,0,0,1,2.211,1.723,5.692,5.692,0,0,1,.868,1.671,6.514,6.514,0,0,1,.317,2.126" transform="translate(-117.049 -95.282)" fill="#e57f7f"/>
          <path id="Trazado_1321581" data-name="Trazado 1321581" d="M235.94,175.268l-.519.335a1.442,1.442,0,0,0-.945-.617,1.672,1.672,0,0,0-1.272.253,2.141,2.141,0,0,0-.668,2.373,2.674,2.674,0,0,0,1.06,1.332c-.348-.027-.7-.058-1.04-.092a3.2,3.2,0,0,1-.6-1.03,2.8,2.8,0,0,1,.9-3.1,2.263,2.263,0,0,1,1.749-.355,2.037,2.037,0,0,1,1.34.9" transform="translate(-129.871 -97.321)" fill="#e57f7f"/>
          <path id="Trazado_1321582" data-name="Trazado 1321582" d="M238.277,161.558a4.382,4.382,0,0,1-.81.767c-.388-.021-.776-.041-1.16-.066a3.854,3.854,0,0,0,1.5-1.105,4.724,4.724,0,0,0,.834-4.1,5.858,5.858,0,0,0-2.549-3.429,7.61,7.61,0,0,0-4.179-1.121l-.939.009.748-.575a4.258,4.258,0,0,0,1.538-2.952,4.723,4.723,0,0,0,.026-.711,4.594,4.594,0,0,0-1.894-3.489,4.249,4.249,0,0,1,.21-.632,5.241,5.241,0,0,1,2.295,4.1,5.952,5.952,0,0,1-.018.714,5.092,5.092,0,0,1-1.207,2.927,8.113,8.113,0,0,1,3.745,1.194,6.483,6.483,0,0,1,2.82,3.809,5.376,5.376,0,0,1-.959,4.659" transform="translate(-129.405 -80.417)" fill="#e57f7f"/>
          <path id="Trazado_1321583" data-name="Trazado 1321583" d="M209.655,165.228a1.552,1.552,0,0,1-.089.143l-.478-.349-.022-.012a1.674,1.674,0,0,0-.007-1.611,4.152,4.152,0,0,0-7.445-.447l-.093.163-.907-.036a4.2,4.2,0,0,1,.446-.194,3.819,3.819,0,0,1-.04-.416l.16.007a4.763,4.763,0,0,1,8.445.669,2.3,2.3,0,0,1,.03,2.083" transform="translate(-112.397 -89.418)" fill="#e57f7f"/>
          <path id="Trazado_1321584" data-name="Trazado 1321584" d="M267.729,161.994a5.36,5.36,0,0,0-1.879,2.791,3.832,3.832,0,0,0,.554,3.2,2.836,2.836,0,0,0,2.837,1.113,2.347,2.347,0,0,0,1.768-2.334,1.987,1.987,0,0,0-.763-1.375,1.7,1.7,0,0,0-1.341-.387l-.1-.62a2.307,2.307,0,0,1,1.824.514,2.586,2.586,0,0,1,.991,1.823,2.981,2.981,0,0,1-2.233,2.988,3.281,3.281,0,0,1-2.434-.409,3.512,3.512,0,0,1-1.041-.937,4.456,4.456,0,0,1-.657-3.733,6.012,6.012,0,0,1,2.085-3.127,8.889,8.889,0,0,1,4.863-1.6c.252-.018.5-.025.742-.026a10.419,10.419,0,0,1,3.191.443c.051.234.091.476.126.715-2.554-.96-6.615-.589-8.532.959" transform="translate(-148.529 -89.226)" fill="#e57f7f"/>
          <path id="Trazado_1321585" data-name="Trazado 1321585" d="M265.436,185.5c-.968.03-1.954.046-2.957.054a5.862,5.862,0,0,1,2.957-.054" transform="translate(-147.057 -103.489)" fill="#e57f7f"/>
          <path id="Trazado_1321586" data-name="Trazado 1321586" d="M265.145,151.914l-.521.339c-.093-.149-.2-.292-.3-.433a5.969,5.969,0,0,0-9.289-.326l-.854.985.328-1.274a4.369,4.369,0,0,0-.655-3.536,6.11,6.11,0,0,0-2.81-1.81c.18-.14.36-.281.547-.41a4.808,4.808,0,0,1,2.761,1.846,4.929,4.929,0,0,1,.9,3.121,6.569,6.569,0,0,1,9.815,1.379,1.224,1.224,0,0,1,.081.12" transform="translate(-140.649 -81.142)" fill="#e57f7f"/>
          <path id="Trazado_1321587" data-name="Trazado 1321587" d="M286.308,177.19c-1.18.172-2.428.32-3.733.445l-.153.088a.319.319,0,0,0-.114.107l-.079-.16c-.195.017-.393.034-.591.055l-1.289-2.642a2.079,2.079,0,0,1,.911-2.766s.007,0,.011-.007a2,2,0,0,1,2.7.933l1.388,2.839.028.055a.362.362,0,0,1,.463.166Z" transform="translate(-156.95 -96.074)" fill="#e57f7f"/>
          <path id="Trazado_1321588" data-name="Trazado 1321588" d="M287.086,176.761c-.062.013-.126.019-.191.028-1.18.172-2.428.32-3.733.445l-.153.087a.319.319,0,0,0-.114.107l-.079-.16-1.419-2.905a2.086,2.086,0,0,1,.461-2.455,2.143,2.143,0,0,1,.446-.307,2,2,0,0,1,2.713.922l1.412,2.894Z" transform="translate(-157.537 -95.673)" fill="#fcd2c8"/>
          <path id="Trazado_1321589" data-name="Trazado 1321589" d="M289.417,180.69l.58,1.118-.39.056c-.061.013-.126.019-.191.028-1.18.172-2.428.32-3.733.445l2.783-1.553.445-.249a.085.085,0,0,1,.04-.014.363.363,0,0,1,.467.169" transform="translate(-160.057 -100.775)" fill="#e4b7af"/>
          <path id="Trazado_1321590" data-name="Trazado 1321590" d="M286.91,173.532a.216.216,0,0,1-.268.152.222.222,0,0,1-.149-.273.217.217,0,0,1,.268-.152.221.221,0,0,1,.149.273" transform="translate(-160.507 -96.719)" fill="#e4b7af"/>
          <path id="Trazado_1321591" data-name="Trazado 1321591" d="M282.8,175.9a.216.216,0,0,1-.268.152.221.221,0,0,1-.149-.273.216.216,0,0,1,.268-.152.221.221,0,0,1,.149.273" transform="translate(-158.204 -98.048)" fill="#e4b7af"/>
          <path id="Trazado_1321592" data-name="Trazado 1321592" d="M285.649,179.764a.222.222,0,0,1-.157.268.217.217,0,0,1-.263-.161.221.221,0,0,1,.157-.268.217.217,0,0,1,.263.16" transform="translate(-159.799 -100.275)" fill="#e4b7af"/>
          <path id="Trazado_1321593" data-name="Trazado 1321593" d="M289.036,177.728a.222.222,0,0,1-.157.268.217.217,0,0,1-.263-.161.221.221,0,0,1,.157-.268.216.216,0,0,1,.263.16" transform="translate(-161.697 -99.134)" fill="#e4b7af"/>
          <path id="Trazado_1321594" data-name="Trazado 1321594" d="M236.458,418.141a128.524,128.524,0,0,1-26.235,8c-3.7.761-7.546,1.434-11.5,2.018a274.846,274.846,0,0,1-69.439,1.038c-5.075-.589-10.048-1.332-14.868-2.243a139.008,139.008,0,0,1-29.946-8.817s17.48-45.821,22.6-49.5c9.868-7.093,35.781-10.8,35.865-10.716,4.283,4.833,9.006,7.959,15.4,7.915,8.267-.057,15.382-8.465,15.571-8.7,13.17,1.24,28.174,5.765,35.5,11.358,5.272,4.024,19.507,39.757,27.057,49.642" transform="translate(-47.324 -199.746)" fill="#354ac4"/>
          <path id="Trazado_1321595" data-name="Trazado 1321595" d="M167.435,478.588c-5.075-.589-10.048-1.332-14.868-2.243l5.976-31.054a54.834,54.834,0,0,0,8.891,33.3" transform="translate(-85.478 -249.133)" fill="#243fb2"/>
          <path id="Trazado_1321596" data-name="Trazado 1321596" d="M350.606,452.791q2.592,13.476,5.185,26.943c-3.7.761-7.546,1.434-11.5,2.018a54.779,54.779,0,0,0,6.319-28.961" transform="translate(-192.891 -253.335)" fill="#243fb2"/>
          <path id="Trazado_1321597" data-name="Trazado 1321597" d="M57.934,294.638c-4.626-5.272-17.884-16.143-24-11.1a8.3,8.3,0,0,0-4.732,4.56c-1.148,2.432-.8,3.368-.677,8.254-1.363-1.992-15.488-12.3-17.466-6.082-.91,2.871,10.993,7.805,15.857,12.2-4.6-1.17-13.438-7.893-16.6-4.841-2.322,2.726,1.082,5.695,3.54,6.737,4.336,2.3,8.632,3.6,12.955,5.69-3.98-1.658-12.88-3.795-15.224-2a1.533,1.533,0,0,0-.475,1.812,3.258,3.258,0,0,0,1.442,1.829c7.555,4.626,16.552,6.7,25.395,7.616,1.592.163,3.175.29,4.749.391-6.728,11.912-13.513,25.109-19.8,38.178-6.2,13.315-17.392,29.3-2.177,40.676,4.973,3.127,10.646,3.078,15.914,1.165q.3-.106.594-.224A25.538,25.538,0,0,0,52.6,381.481c4.674-19.779,9.424-41.744,11.926-58.437,1.3-21.789-2.229-23.763-6.592-28.407m-12.361,6.341c-4.327.7-7.159-1.095-10.905-3.28-1.944-3.153.268-6.451.967-9.6,3.579,2.168,7.6,3.8,10.444,7.027-.211,1.948-.383,3.9-.506,5.857" transform="translate(-5.348 -157.778)" fill="#e58b5e"/>
          <path id="Trazado_1321598" data-name="Trazado 1321598" d="M89.737,324.967a12.755,12.755,0,0,0,4.12,12.348,22.118,22.118,0,0,1-3.65-12.414Z" transform="translate(-50.114 -181.683)" fill="#d86132"/>
          <path id="Trazado_1321599" data-name="Trazado 1321599" d="M37.278,440.4c1.187,2.084,2.669,4,3.878,6.064-5.268,1.913-10.941,1.961-15.914-1.165-15.215-11.372-4.019-27.361,2.177-40.676,6.288-13.069,13.073-26.266,19.8-38.178-1.574-.1-3.157-.229-4.749-.391,1.57-.07,3.8-.189,6.728-.4C44.74,377.455,35.048,411.455,34,418.8s-.387,15.153,3.276,21.6" transform="translate(-9.866 -204.519)" fill="#dd7547"/>
          <path id="Trazado_1321600" data-name="Trazado 1321600" d="M374.147,294.638c4.626-5.272,17.884-16.143,24-11.1a8.3,8.3,0,0,1,4.732,4.56c1.148,2.432.8,3.368.677,8.254,1.363-1.992,15.488-12.3,17.466-6.082.91,2.871-10.993,7.805-15.857,12.2,4.6-1.17,13.438-7.893,16.6-4.841,2.322,2.726-1.082,5.695-3.54,6.737-4.336,2.3-8.632,3.6-12.955,5.69,3.98-1.658,12.88-3.795,15.224-2a1.533,1.533,0,0,1,.475,1.812,3.258,3.258,0,0,1-1.442,1.829c-7.555,4.626-16.552,6.7-25.395,7.616-1.592.163-3.175.29-4.749.391,6.728,11.912,13.513,25.109,19.8,38.178,6.2,13.315,17.392,29.3,2.177,40.676-4.973,3.127-10.646,3.078-15.914,1.165q-.3-.106-.594-.224a25.538,25.538,0,0,1-15.369-18.02c-4.674-19.779-9.424-41.744-11.926-58.437-1.3-21.789,2.229-23.763,6.592-28.407m12.361,6.341c4.327.7,7.159-1.095,10.905-3.28,1.944-3.153-.268-6.451-.967-9.6-3.579,2.168-7.6,3.8-10.444,7.027.211,1.948.383,3.9.506,5.857" transform="translate(-205.774 -157.778)" fill="#e58b5e"/>
          <path id="Trazado_1321601" data-name="Trazado 1321601" d="M407.124,324.967A12.755,12.755,0,0,1,403,337.315a22.119,22.119,0,0,0,3.65-12.414Z" transform="translate(-225.788 -181.683)" fill="#d86132"/>
          <path id="Trazado_1321602" data-name="Trazado 1321602" d="M424.955,440.4c-1.187,2.084-2.669,4-3.878,6.064,5.268,1.913,10.941,1.961,15.914-1.165,15.215-11.372,4.019-27.361-2.177-40.676-6.288-13.069-13.073-26.266-19.8-38.178,1.574-.1,3.157-.229,4.749-.391-1.57-.07-3.8-.189-6.728-.4,4.459,11.794,14.151,45.794,15.2,53.138s.387,15.153-3.276,21.6" transform="translate(-231.408 -204.519)" fill="#dd7547"/>
        </g>
      </g>
    </g>
  </g>
</svg>
