<svg id="Grupo_1188314" data-name="Grupo 1188314" xmlns="http://www.w3.org/2000/svg" xmlns:xlink="http://www.w3.org/1999/xlink" width="209.236" height="221.981" viewBox="0 0 209.236 221.981">
  <defs>
    <clipPath id="clip-path">
      <path id="Trazado_1321052" data-name="Trazado 1321052" d="M0,0H199.99V221.981H0Z" fill="none"/>
    </clipPath>
    <clipPath id="clip-path-2">
      <rect id="Rectángulo_410924" data-name="Rectángulo 410924" width="199.99" height="221.981" fill="none"/>
    </clipPath>
    <clipPath id="clip-path-3">
      <path id="Trazado_1320988" data-name="Trazado 1320988" d="M97.455,86.127h-.036V232.035H256.46V86.127h-.036c-1.249-36.882-36.357-66.45-79.485-66.45S98.7,49.245,97.455,86.127" transform="translate(-97.419 -19.677)" fill="none"/>
    </clipPath>
    <clipPath id="clip-path-5">
      <rect id="Rectángulo_410925" data-name="Rectángulo 410925" width="15.787" height="6.264" fill="none"/>
    </clipPath>
    <clipPath id="clip-path-6">
      <rect id="Rectángulo_410926" data-name="Rectángulo 410926" width="3.277" height="3.261" fill="none"/>
    </clipPath>
    <clipPath id="clip-path-7">
      <rect id="Rectángulo_410927" data-name="Rectángulo 410927" width="4.035" height="11.034" fill="none"/>
    </clipPath>
    <clipPath id="clip-path-8">
      <rect id="Rectángulo_410928" data-name="Rectángulo 410928" width="8.109" height="1.649" fill="none"/>
    </clipPath>
    <clipPath id="clip-path-9">
      <rect id="Rectángulo_410929" data-name="Rectángulo 410929" width="5.764" height="4.787" fill="none"/>
    </clipPath>
    <clipPath id="clip-path-10">
      <rect id="Rectángulo_410930" data-name="Rectángulo 410930" width="11.015" height="3.804" fill="none"/>
    </clipPath>
    <clipPath id="clip-path-11">
      <rect id="Rectángulo_410931" data-name="Rectángulo 410931" width="5.754" height="5.321" fill="none"/>
    </clipPath>
    <clipPath id="clip-path-12">
      <rect id="Rectángulo_410932" data-name="Rectángulo 410932" width="9.196" height="9.507" fill="none"/>
    </clipPath>
    <clipPath id="clip-path-13">
      <rect id="Rectángulo_410933" data-name="Rectángulo 410933" width="6.95" height="8.124" fill="none"/>
    </clipPath>
  </defs>
  <g id="Enmascarar_grupo_1099186" data-name="Enmascarar grupo 1099186" clip-path="url(#clip-path)">
    <g id="Grupo_1188281" data-name="Grupo 1188281">
      <g id="Grupo_1188280" data-name="Grupo 1188280" clip-path="url(#clip-path-2)">
        <path id="Trazado_1320942" data-name="Trazado 1320942" d="M82.4,221.981a4.735,4.735,0,0,1-4.654-4.812s.021-146.441.063-146.7a65.153,65.153,0,0,1,7.41-27.43A74.013,74.013,0,0,1,103.54,20.468C119.292,7.269,140.024,0,161.917,0s42.625,7.269,58.377,20.468A74.01,74.01,0,0,1,238.619,43.04a65.154,65.154,0,0,1,7.41,27.43c.041.258.063,146.7.063,146.7a4.735,4.735,0,0,1-4.654,4.812Z" transform="translate(-59.355 0)" fill="#ab76f2"/>
        <path id="Trazado_1320943" data-name="Trazado 1320943" d="M256.424,86.127c-1.249-36.882-36.357-66.451-79.485-66.451S98.7,49.244,97.455,86.127h-.036V232.033H256.46V86.127Z" transform="translate(-74.378 -14.864)" fill="#fff"/>
        <path id="Trazado_1320944" data-name="Trazado 1320944" d="M256.424,86.127c-1.249-36.882-36.357-66.451-79.485-66.451S98.7,49.244,97.455,86.127h-.036V232.033H256.46V86.127Z" transform="translate(-74.378 -14.864)" fill="#fff"/>
        <path id="Trazado_1320945" data-name="Trazado 1320945" d="M712.457,180.091a12.138,12.138,0,0,1-.615,5.5,13.327,13.327,0,0,1-1.185,2.5c-.244.4-.5.781-.778,1.157s-.591.75-.906,1.107A16.876,16.876,0,0,1,706.9,192.3a20.606,20.606,0,0,1-2.337,1.608,21.017,21.017,0,0,1-2.515,1.265,25.12,25.12,0,0,1-2.6.933,25.769,25.769,0,0,1-5.5.992,26.338,26.338,0,0,1-5.46-.164l-.081-.011c-.855,1.01-1.7,2.024-2.589,3.007-.721.678-3.962,4.847-4.595,2.709-.01-1.537.745-2.991,1.18-4.441.3-.837.587-1.681.885-2.519a21.992,21.992,0,0,1-4.771-2.38,17.989,17.989,0,0,1-2.163-1.68c-.342-.312-.674-.633-.992-.974-.147-.156-.288-.314-.43-.477-.017-.017-.033-.038-.048-.056l-.073-.085c-.059-.071-.119-.14-.176-.212-.234-.285-.459-.578-.669-.883A13.837,13.837,0,0,1,672.823,187q-.295-.61-.531-1.245a12.96,12.96,0,0,1-.392-1.28,11.657,11.657,0,0,1-.357-2.766,12.2,12.2,0,0,1,.277-2.716,12.749,12.749,0,0,1,.858-2.561,15.078,15.078,0,0,1,3.235-4.518,19.139,19.139,0,0,1,4.432-3.189,23.409,23.409,0,0,1,5.142-1.977,26.294,26.294,0,0,1,4.711-.76l.048,0,.086-.007.14-.009h.014q1.014-.06,2.032-.042l.223,0c.082,0,.164,0,.246.007.166.006.331.012.5.022l.045,0,.012,0c.488.027.973.068,1.458.12l.182.02.025,0q1.258.15,2.5.419a24.2,24.2,0,0,1,4.9,1.618,20.227,20.227,0,0,1,4.457,2.751,16.215,16.215,0,0,1,3.631,4.139,12.925,12.925,0,0,1,1.768,5.056" transform="translate(-512.712 -125.347)" fill="#ec7380"/>
        <path id="Trazado_1320946" data-name="Trazado 1320946" d="M737.979,199.85c2.737.45,3.312,4,2.243,6.231-1.876,3.906-6.368,6.378-10.379,7.188a.221.221,0,0,1-.065-.01.193.193,0,0,1-.105-.024c-3.2-2.626-6.093-6.956-6.024-11.317.042-2.488,2.13-5.368,4.762-4.469,2.353.956,3.374,3.6,3.634,6.08,1.333-2.08,3.417-3.951,5.934-3.68" transform="translate(-552.493 -149.037)" fill="#fff"/>
        <path id="Trazado_1320947" data-name="Trazado 1320947" d="M201.495,566.233c12.354,10.231,10.623,23.882,2.442,36.309.046.069.079.2-.024.219a.454.454,0,0,1-.172-.011l-.023-.007a.2.2,0,0,1-.155-.017.246.246,0,0,1-.094-.09c-4.378-2.563-5.988-8.122-5.838-13.054.241-4.608,1.548-9.109,2.1-13.67a56.881,56.881,0,0,0,.522-7.4c.013-.94-.345-3.247,1.246-2.284" transform="translate(-150.88 -427.589)" fill="#7985bc"/>
        <path id="Trazado_1320948" data-name="Trazado 1320948" d="M66.123,678.391c.291.121.748.435.4.662a.555.555,0,0,1-.465-.106l-.113-.063c-3.223,1.052-4.853,4.48-7.686,6.2-8.022,5.095-17.973,1.161-25.363-3.387a46.638,46.638,0,0,1-5.755-4.108c-1.014-.854-1.939-1.743-.053-2.277,4.247-1.414,7.692-4.764,11.96-6.066a23.2,23.2,0,0,1,13.991.91,33.494,33.494,0,0,1,9.264,5.633,36.966,36.966,0,0,0,3.822,2.607" transform="translate(-19.847 -505.056)" fill="#7985bc"/>
        <path id="Trazado_1320949" data-name="Trazado 1320949" d="M60.5,546.585c5.716,3.53,9.422,9.789,10.768,16.433.358,1.43.67,2.876,1.126,4.279.083.172.024.457-.21.417a.344.344,0,0,1-.14-.059c-7.427,1.591-15.964-.918-20.846-7.07-3.929-4.837-4.777-11.3-5.843-17.307-.033-.784-1.091-3.626.538-2.808.529.308,1.089.735,1.62,1.016a24.789,24.789,0,0,0,5.469,1.826,28.545,28.545,0,0,1,7.516,3.273" transform="translate(-34.352 -408.19)" fill="#7985bc"/>
        <path id="Trazado_1320950" data-name="Trazado 1320950" d="M83.617,569.2c1.85,6.835.418,13.989-.194,20.912a35.736,35.736,0,0,0-.1,6.453c.036.186.071.73.151,1.29-.194-.211-.384-.426-.58-.635-2.95-3.209-5.646-6.66-8.662-9.8a211.606,211.606,0,0,0-23.476-21.191,33.28,33.28,0,0,1-4.173-4.041c-.271-.328-.545-.683-.82-1.035a.092.092,0,0,0-.126-.032.1.1,0,0,0,0,.135,12.675,12.675,0,0,0,.812,1.11,30.48,30.48,0,0,0,5.073,5.016,182.888,182.888,0,0,1,13.912,12.392,167.7,167.7,0,0,1,13.557,14.16c1.736,2.017,3.527,3.985,5.3,5.969q-.982-.5-1.987-.942a37.172,37.172,0,0,0-7.748-2.466c-6.37-1.337-12.985-1.325-19.457-1.1-4.571.128-9.192,1.007-13.749.269-.058,0-.182-.076-.213.02a.085.085,0,0,0,.068.091,22.243,22.243,0,0,0,6,.522c4.324-.036,8.65-.185,12.975-.235,9.08-.028,17.443.834,25.535,5.438,1.9,2.161,3.765,4.359,5.492,6.678,2.644,3.464,5.124,7.054,7.492,10.724.862,1.32,1.726,2.639,2.572,3.971a11.945,11.945,0,0,0,.883,1.317c.137.105.334.241.5.144.2-.252.057-.609-.111-.852-1.215-1.925-2.454-3.817-3.7-5.722a145.131,145.131,0,0,0-14.377-18.818,1.473,1.473,0,0,0-.09-.439,13.783,13.783,0,0,1-.327-2.189c-.326-4.439.4-8.968.713-13.4.321-5.1.44-10.445-1.371-15.3-.457-.434.184,1.259.231,1.586" transform="translate(-31.404 -423.885)" fill="#4c60b0"/>
        <path id="Trazado_1320951" data-name="Trazado 1320951" d="M622.11,566.233c-12.354,10.231-10.623,23.882-2.442,36.309-.046.069-.079.2.024.219a.456.456,0,0,0,.173-.011l.023-.007a.2.2,0,0,0,.155-.017.246.246,0,0,0,.094-.09c4.378-2.563,5.988-8.122,5.839-13.054-.241-4.608-1.548-9.109-2.1-13.67a56.9,56.9,0,0,1-.522-7.4c-.014-.94.345-3.247-1.247-2.284" transform="translate(-468.158 -427.589)" fill="#7985bc"/>
        <path id="Trazado_1320952" data-name="Trazado 1320952" d="M667.571,678.391c-.291.121-.748.435-.4.662a.555.555,0,0,0,.465-.106l.113-.063c3.223,1.052,4.853,4.48,7.686,6.2,8.022,5.095,17.973,1.161,25.363-3.387a46.639,46.639,0,0,0,5.755-4.108c1.014-.854,1.939-1.743.053-2.277-4.247-1.414-7.692-4.764-11.96-6.066a23.2,23.2,0,0,0-13.991.91,33.5,33.5,0,0,0-9.264,5.633,36.972,36.972,0,0,1-3.822,2.607" transform="translate(-509.279 -505.056)" fill="#7985bc"/>
        <path id="Trazado_1320953" data-name="Trazado 1320953" d="M715.834,546.585c-5.716,3.53-9.422,9.789-10.768,16.433-.358,1.43-.67,2.876-1.126,4.279-.083.172-.024.457.21.417a.345.345,0,0,0,.14-.059c7.427,1.591,15.964-.918,20.846-7.07,3.929-4.837,4.777-11.3,5.843-17.307.033-.784,1.091-3.626-.538-2.808-.529.308-1.089.735-1.62,1.016a24.784,24.784,0,0,1-5.469,1.826,28.552,28.552,0,0,0-7.516,3.273" transform="translate(-537.419 -408.19)" fill="#7985bc"/>
        <path id="Trazado_1320954" data-name="Trazado 1320954" d="M582.408,569.2c-1.85,6.835-.418,13.989.194,20.912a35.725,35.725,0,0,1,.1,6.453c-.036.186-.071.73-.151,1.29.194-.211.384-.426.58-.635,2.95-3.209,5.646-6.66,8.662-9.8a211.6,211.6,0,0,1,23.476-21.191,33.268,33.268,0,0,0,4.173-4.041c.271-.328.545-.683.82-1.035a.092.092,0,0,1,.126-.032.1.1,0,0,1,0,.135,12.656,12.656,0,0,1-.813,1.11,30.483,30.483,0,0,1-5.073,5.016A182.927,182.927,0,0,0,600.6,579.767a167.7,167.7,0,0,0-13.557,14.16c-1.736,2.017-3.527,3.985-5.3,5.969q.982-.5,1.987-.942a37.168,37.168,0,0,1,7.748-2.466c6.37-1.337,12.985-1.325,19.457-1.1,4.571.128,9.192,1.007,13.749.269.058,0,.182-.076.213.02a.086.086,0,0,1-.068.091,22.244,22.244,0,0,1-6,.522c-4.324-.036-8.65-.185-12.975-.235-9.08-.028-17.443.834-25.535,5.438-1.9,2.161-3.765,4.359-5.492,6.678-2.644,3.464-5.124,7.054-7.492,10.724-.862,1.32-1.726,2.639-2.571,3.971a11.947,11.947,0,0,1-.883,1.317c-.137.105-.334.241-.5.144-.2-.252-.057-.609.111-.852,1.214-1.925,2.454-3.817,3.7-5.722a145.119,145.119,0,0,1,14.377-18.818,1.471,1.471,0,0,1,.09-.439,13.775,13.775,0,0,0,.327-2.189c.326-4.439-.4-8.968-.713-13.4-.321-5.1-.44-10.445,1.371-15.3.457-.434-.184,1.259-.231,1.586" transform="translate(-430.052 -423.885)" fill="#4c60b0"/>
        <path id="Trazado_1320955" data-name="Trazado 1320955" d="M349.892,48.845c3.077,1.814,3.2,6.6.971,9.175-.152.14-.4.513-.632.6a.226.226,0,0,1-.134.045l-4.288.018-5.234.02-5.459.023-5.454.022-5.538.023q-2.869.012-5.738.023l-5.518.023-5.475.022-2.387.01a.234.234,0,0,1-.108-.027.22.22,0,0,1-.13-.053,3.381,3.381,0,0,1,.082-4.281,4.144,4.144,0,0,1,1.515-1.181,5.068,5.068,0,0,1-2.274-2.98c-.537-1.987.412-4.4,2.412-5.009a2.928,2.928,0,0,1,.624-.119A7.476,7.476,0,0,1,310.1,37.17a7.788,7.788,0,0,1,7.668-.872,5.181,5.181,0,0,1,1.619,1.34,8.033,8.033,0,0,1,2.33-3.12,10.873,10.873,0,0,1,14.77.551,10.13,10.13,0,0,1,2.874,6.506c0,.049,0,.107-.006.17a5.248,5.248,0,0,1,2.241-.991c3.144-.582,6.146,2.3,5.989,5.564a5.716,5.716,0,0,1-.4,2.179,3.413,3.413,0,0,1,2.707.347" transform="translate(-232.055 -24.093)" fill="#f5cdcb"/>
        <path id="Trazado_1320956" data-name="Trazado 1320956" d="M151.539,37.611c.792.8,0,1.48-.912,1.308-2.625-.6-4.954-2.2-7.445-3.2-4.007-1.764-8.14-3.475-12.506-3.891-15.977-.684-31.98,8.66-42.413,20.71-2.551,3.072-4.672,6.488-6.941,9.777-1.779,2.288-4.5,6.858-7.7,6.325-2.423-.875-1.86-4.214-1.482-6.265,1.665-6.495,6.09-11.86,10.238-16.867,8.1-9.4,20.179-15.4,32.1-17.449,9.5-1.5,19.576-.735,28.3,3.656,3.09,1.618,6.314,3.335,8.761,5.9" transform="translate(-54.815 -20.665)" fill="#c64347"/>
        <path id="Trazado_1320957" data-name="Trazado 1320957" d="M164.458,46.868a.743.743,0,0,1,.5.856c-.134.484-.7.605-1.123.589-3.332-.48-6.27-2.49-9.46-3.524a28.326,28.326,0,0,0-12.648-1.755c-14.351,1.608-26.015,10.424-34.985,21.664-2.578,3.1-5.023,6.312-7.486,9.511-1.889,2.181-4.16,6.178-7.162,6.432-3.723-.61-.675-7.85.271-9.991a53.692,53.692,0,0,1,7.859-11.755C112.309,44.744,132.738,35.8,150.9,40.269a33.425,33.425,0,0,1,11.485,4.766,21.787,21.787,0,0,1,1.977,1.517.359.359,0,0,1,.1.316" transform="translate(-68.938 -29.546)" fill="#efa444"/>
        <path id="Trazado_1320958" data-name="Trazado 1320958" d="M194.6,53.376a.683.683,0,0,1,.044.6c-.96,1.836-8.629-1.827-10.535-2.173-12.082-3.907-21.219-.561-30.757,7.433a66.592,66.592,0,0,0-13.016,15.706c-1.937,2.793-5.732,9.325-9.149,9.613-2.876-.616-2.415-4.745-1.959-7a32.391,32.391,0,0,1,6.66-13.134,49.173,49.173,0,0,1,28-17.51,37.086,37.086,0,0,1,22.094,1.627,40.055,40.055,0,0,1,8.062,4.026.293.293,0,0,1,.122.086h0a1.461,1.461,0,0,1,.305.6.29.29,0,0,1,.124.126" transform="translate(-98.405 -34.678)" fill="#ec7380"/>
        <path id="Trazado_1320959" data-name="Trazado 1320959" d="M222.214,59.589a1.14,1.14,0,0,1,.022,1.706c-1.528,1.042-3.505.03-5.115-.34-13.942-4.91-26.325,1.655-35.035,13.009a61.884,61.884,0,0,0-3.982,5.876c-1.655,2.506-5.936,11.234-9.278,10.135-1.967-1.054-1.392-4.443-1.192-6.335,1.2-7.108,5.764-13.037,10.681-17.912,12.305-12.174,28.985-15.19,43.9-6.139" transform="translate(-127.806 -41.045)" fill="#b3b27d"/>
        <path id="Trazado_1320960" data-name="Trazado 1320960" d="M240.259,67.2c.541.305,3.215,1.3,2.659,1.927a.334.334,0,0,1-.009.368c-.872,1.115-2.425.71-3.6.472a71.626,71.626,0,0,0-7.472-1.461c-8.559-.666-17.539,4.729-22.74,11.513a42.21,42.21,0,0,0-5.381,9.518c-.8,1.908-1.511,3.856-2.269,5.784-.86,1.862-2.026,6.064-4.572,5.524-2.418-.9-2.311-5.825-2.118-8.033.6-6,3.653-11.376,7.24-16,7.033-9.2,18.194-14.689,29.571-12.4a38.7,38.7,0,0,1,8.692,2.784" transform="translate(-148.624 -48.272)" fill="#7985bc"/>
        <path id="Trazado_1320961" data-name="Trazado 1320961" d="M258.492,78.53a.343.343,0,0,1-.113.652.333.333,0,0,1-.251.216,5.858,5.858,0,0,1-2.028-.14c-3.01-.6-6.019-1.389-9.1-1.242A23.673,23.673,0,0,0,236.218,81.4,23.074,23.074,0,0,0,225.505,93.31a.111.111,0,0,1,0,.012,113.373,113.373,0,0,0-3.57,10.891c-.738,1.96-2.062,7.8-4.84,6.849-2.507-1.552-1.874-7.43-1.447-10.026,1.609-8.7,7.676-16.332,14.637-21.235,6.975-5.045,16.02-5.784,24-3.067a27.914,27.914,0,0,1,4.216,1.8" transform="translate(-164.335 -56.795)" fill="#ab76f2"/>
        <path id="Trazado_1320962" data-name="Trazado 1320962" d="M275.8,84.351c-.008.009-.017.018-.027.026a.1.1,0,0,0,.027-.026m-2.469-1.76c.516.242,3.175,1.04,2.51,1.706l0,0v0c-.064.159-.088.389-.148.575v0a.38.38,0,0,1,0,.27.325.325,0,0,1-.458.135,25.937,25.937,0,0,0-8.9-2.036c-10.445-.372-19.949,7.179-22.669,17.531a29.8,29.8,0,0,0-.812,11.99.326.326,0,1,1-.643.111c-.076-.529-.137-1.061-.183-1.589-.032.119-.066.24-.1.359-.385,1.076-.9,2.951-2.316,2.7-2.225-1.008-1.713-7.075-1.425-9.2a29.239,29.239,0,0,1,9.675-18.459,25.756,25.756,0,0,1,25.479-4.1" transform="translate(-181.645 -61.111)" fill="#83327a"/>
        <path id="Trazado_1320963" data-name="Trazado 1320963" d="M388.887,69.939c1,1.294-3.856,4.11-4.83,4.684a22.5,22.5,0,0,1-11.893,2.564c-3.166-.244-2.15-2.692.041-3.568a5.492,5.492,0,0,1,2.518.074c0-.792-.3-1.548-.351-2.337a4.9,4.9,0,0,1,.475-2.481c1.531-3.575,6.711-4.987,9.5-2.179a8.184,8.184,0,0,1,1.56,2.7,2.272,2.272,0,0,1,2.976.547" transform="translate(-282.608 -49.26)" fill="#f5cdcb"/>
        <path id="Trazado_1320964" data-name="Trazado 1320964" d="M368.923,74.762a3.143,3.143,0,0,1,4.14-3.6,6.3,6.3,0,0,1,2.209-7.2c3.472-2.428,8.625-2.015,9.867,2.709,1.411-1.169,3.645.744,3.1,2.382-.331-.236-.387-.666-.59-.995a1.573,1.573,0,0,0-2.006-.782c-.282.142-.672.572-.931.165-.3-.591-.507-1.34-.843-1.889-2.1-3.394-7.706-2.257-9.66.761a5.865,5.865,0,0,0-.644,3.768c.036.581.618,1.5-.042,1.878a.648.648,0,0,1-.512-.114,6.332,6.332,0,0,0-1.017-.187,2.658,2.658,0,0,0-2.813,3.017c.039.162-.2.287-.256.095" transform="translate(-281.636 -47.213)" fill="#eb6670"/>
        <path id="Trazado_1320965" data-name="Trazado 1320965" d="M70.868,168.556c4.745,2.5,4.94,9.111,1.5,12.664-.235.193-.616.708-.974.826a.377.377,0,0,1-.206.061q-3.306.011-6.614.025l-8.073.028-8.42.032-8.412.03-8.541.032q-4.426.016-8.85.032l-8.511.032q-4.221.016-8.444.03l-3.682.014a.4.4,0,0,1-.167-.037.363.363,0,0,1-.2-.074c-1.67-1.59-1.347-4.3.127-5.909a6.341,6.341,0,0,1,2.337-1.631A7.148,7.148,0,0,1,.228,170.6a5.539,5.539,0,0,1,3.72-6.914,5,5,0,0,1,.963-.165A9.806,9.806,0,0,1,9.5,152.442c3.409-2.076,8.048-2.879,11.827-1.2a7.862,7.862,0,0,1,2.5,1.85,11.284,11.284,0,0,1,3.593-4.306c6.547-5.062,16.685-4.834,22.78.761a13.344,13.344,0,0,1,4.433,8.979c-.006.068-.008.147-.009.235a8.6,8.6,0,0,1,3.456-1.368c4.849-.8,9.479,3.179,9.236,7.68a7.166,7.166,0,0,1-.618,3.007,5.805,5.805,0,0,1,4.175.479" transform="translate(0 -109.66)" fill="#f5cdcb"/>
        <path id="Trazado_1320966" data-name="Trazado 1320966" d="M261.761,126.25a27.092,27.092,0,0,1,8.134,21.562c-.7,11.3-7.075,19.655-13.036,28.54-3.367,5.539-6.525,11.632-6.858,18.284-.129,5.507,2.228,10.961.8,16.448-1.093,4.659-4.253,8.428-7.642,11.547-11.488,10.536-28.886,12.621-43.7,12.179a81.992,81.992,0,0,1-22.958-5.08.43.43,0,0,1-.244-.054c-.05-.027-.1-.056-.148-.083,0,0,0,0,0,0l-.727-.266a.415.415,0,0,1-.253-.295c-8.933-5.12-18.075-11.02-22.823-20.718-3.787-7.507-5.736-16.347-4.294-24.764C150.495,171.2,158.178,160,168.86,153.83c4.247-2.531,9.031-4.116,13.18-6.811,7.193-4.762,9.421-13.825,12.254-21.6,6.923-19.38,30.373-20.641,46.489-13.78,3.079,1.326,7.2,3.132,8.1,6.7a7,7,0,0,1,2.483.349c4.1,1.367,7.382,4.494,10.4,7.559" transform="translate(-112.637 -81.474)" fill="#45133e"/>
        <path id="Trazado_1320967" data-name="Trazado 1320967" d="M324.17,381.514c3.752,4.688,4.732,11.725,1.383,16.926a22.718,22.718,0,0,1-1.542,2.193.4.4,0,0,1-.1.322c-4.408,5.928-12.5,5.951-19.073,5.3-12.11-1.083-22.527-9.216-29.3-19.3a33.463,33.463,0,0,1-2.219-3.947.82.82,0,0,1-.052-.095.426.426,0,0,1-.325-.248c-.274-.68,1.176-.984,1.59-1.3,2.147-1.036,4.46-1.893,6.529-3.076a23.958,23.958,0,0,0,11.908-21.634c.076-.491-.311-1.245.231-1.5a.6.6,0,0,1,.239.007.624.624,0,0,1,.5.38c3.726,5.206,7.886,10.128,13.023,13.882,5.695,4.078,12.814,6.255,17.2,12.094" transform="translate(-208.361 -268.294)" fill="#a96358"/>
        <path id="Trazado_1320968" data-name="Trazado 1320968" d="M176.319,729.706c.243-.278.543-.529.761-.818a.085.085,0,0,1,.134-.029.144.144,0,0,1,.01.187c-.2.242-.413.525-.623.749-7.211,7.539-6.377,14.855-4.576,24.448a34.472,34.472,0,0,1,.613,5.259.451.451,0,0,1-.022.062c.208.525.41,1.052.608,1.579a3.217,3.217,0,0,0-.434-1.158c.03-.065.053-.139.085-.2a7.479,7.479,0,0,1,.82-1.409c1.307-1.87,2.913-3.494,4.243-5.347a20.84,20.84,0,0,0,4.107-14.632c-.37-4.121-2.28-8.254-1.127-12.416.444-1.522,1.209-3.533-1.144-2.009-3.42,2.033-7.029,4.011-9.611,7.174-3.326,4.006-4.07,9.716-2.867,14.735a53.883,53.883,0,0,0,2.623,7.543q.974,2.015,1.852,4.077c-1.6-10.273-4.029-19.6,4.548-27.8" transform="translate(-127.316 -546.519)" fill="#b3b27d"/>
        <path id="Trazado_1320969" data-name="Trazado 1320969" d="M96.477,834.757a20.262,20.262,0,0,0-11.4-4c-2.918-.227-6.014.03-8.734-1.261a5.8,5.8,0,0,1-1.184-.7.1.1,0,0,1-.04-.134.1.1,0,0,1,.136-.012,9.691,9.691,0,0,0,1.675.715c2.758.914,5.666.551,8.507.739a21.136,21.136,0,0,1,10.612,3.267c.162.108.822.608,1.506,1.2q-.595-1.35-1.222-2.684a17.575,17.575,0,0,0-10.737-6.039c-3.515-.592-6.935.691-10.411.965a22.122,22.122,0,0,1-3.861-.206c-.913.264.43,1.872.678,2.391a19.953,19.953,0,0,0,8.964,8.448c7.343,3.151,11.694-1.922,18.06.657q-.312-.793-.637-1.578a19.317,19.317,0,0,0-1.909-1.763" transform="translate(-54.212 -623.77)" fill="#b3b27d"/>
        <path id="Trazado_1320970" data-name="Trazado 1320970" d="M117.339,745.561a.085.085,0,0,0-.134.029c-.218.289-.518.54-.761.818-8.577,8.2-6.145,17.523-4.548,27.8q-.877-2.06-1.852-4.077c-1.081-2.235-2.248-4.422-3.491-6.544a56.086,56.086,0,0,0-5.441-8.052c-.973-1.194-2.059-1.6-.572.127a61.986,61.986,0,0,1,7.827,13.18q.606,1.243,1.192,2.493.625,1.335,1.221,2.684c-.684-.588-1.344-1.088-1.506-1.2a21.132,21.132,0,0,0-10.612-3.267c-2.841-.188-5.749.175-8.507-.739a9.7,9.7,0,0,1-1.675-.715.1.1,0,0,0-.136.012.1.1,0,0,0,.04.134,5.788,5.788,0,0,0,1.184.7c2.72,1.291,5.816,1.035,8.734,1.261a20.262,20.262,0,0,1,11.4,4,19.305,19.305,0,0,1,1.909,1.763q.325.785.636,1.578c.172.438.342.878.506,1.322.187.5.363,1.01.534,1.52h.972q-.436-1.278-.913-2.545-.3-.792-.608-1.579a.429.429,0,0,0,.022-.062,34.5,34.5,0,0,0-.613-5.259c-1.8-9.593-2.635-16.909,4.576-24.448.21-.224.421-.507.623-.749a.145.145,0,0,0-.01-.187" transform="translate(-67.441 -563.22)" fill="#9a984a"/>
        <path id="Trazado_1320971" data-name="Trazado 1320971" d="M37.549,720.688a.981.981,0,0,1-.365-.113c-5.612-.948-12.721-3.144-16.561-7.686-2.21-2.323-2.022-6.689,1.973-5.883,2.787.674,5,2.9,7.036,4.831,2.56,2.552,4.967,5.266,7.429,7.923a1.855,1.855,0,0,1,.487.929" transform="translate(-14.667 -534.037)" fill="#eb6670"/>
        <path id="Trazado_1320972" data-name="Trazado 1320972" d="M71.288,687.993c.564.537.068.686-.393.348-4.327-2.979-10.236-8.119-12.325-13.076-2.077-5.391,1.462-8.554,5.207-3.43,3.361,4.9,5.07,10.769,7.51,16.158" transform="translate(-44.247 -505.58)" fill="#eb6670"/>
        <path id="Trazado_1320973" data-name="Trazado 1320973" d="M113.816,651.019c1.31,2.2,1.444,4.9,1.422,7.419a67.118,67.118,0,0,1-1.291,11.464c0,.273-.214.689-.521.49-2.915-4.367-6.429-14.752-4.437-19.854,1.023-2.8,3.749-1.591,4.826.48" transform="translate(-82.766 -490.213)" fill="#eb6670"/>
        <path id="Trazado_1320974" data-name="Trazado 1320974" d="M53.742,662.937c2.217,6.8-.013,15.705-1.713,22.49-.512,1.714-.87,3.49-1.54,5.149-.743,1.889-2.976,1.939-4.667,1.92a50.107,50.107,0,0,1-19.043-4.515c-2.91-1.5-7.131-4.184-7.164-7.938a2.758,2.758,0,0,1,1.408-2.377c2.742-1.192,6.95,1.066,9.666,2.395a15.7,15.7,0,0,1-4.991-7.315c-.993-3.125,1.484-6.6,4.68-4.834A17.291,17.291,0,0,1,35,672.09c1.166,1.363,2.256,2.791,3.307,4.251a31.691,31.691,0,0,1-2.55-10.9c-.159-3.205,1.9-7.738,5.194-4.392,2.358,2.955,2.989,6.944,3.964,10.544.066.3.137.6.209.893a37.98,37.98,0,0,1,.149-4.075c.265-2.7.564-5.626,2.228-7.83,2.289-2.943,5.333-.478,6.235,2.353" transform="translate(-14.976 -498.036)" fill="#efa444"/>
        <path id="Trazado_1320975" data-name="Trazado 1320975" d="M638.7,729.706c-.243-.278-.543-.529-.761-.818a.085.085,0,0,0-.134-.029.144.144,0,0,0-.01.187c.2.242.413.525.623.749,7.211,7.539,6.377,14.855,4.576,24.448a34.463,34.463,0,0,0-.613,5.259.454.454,0,0,0,.022.062c-.209.525-.41,1.052-.608,1.579a3.215,3.215,0,0,1,.434-1.158c-.03-.065-.053-.139-.085-.2a7.481,7.481,0,0,0-.82-1.409c-1.307-1.87-2.913-3.494-4.243-5.347A20.84,20.84,0,0,1,632.97,738.4c.37-4.121,2.28-8.254,1.127-12.416-.444-1.522-1.209-3.533,1.144-2.009,3.42,2.033,7.029,4.011,9.611,7.174,3.326,4.006,4.07,9.716,2.867,14.735a53.873,53.873,0,0,1-2.623,7.543q-.974,2.015-1.852,4.077c1.6-10.273,4.029-19.6-4.548-27.8" transform="translate(-483.166 -546.519)" fill="#b3b27d"/>
        <path id="Trazado_1320976" data-name="Trazado 1320976" d="M677.857,834.757a20.261,20.261,0,0,1,11.4-4c2.918-.227,6.014.03,8.734-1.261a5.8,5.8,0,0,0,1.184-.7.1.1,0,0,0,.04-.134.1.1,0,0,0-.136-.012,9.685,9.685,0,0,1-1.674.715c-2.758.914-5.666.551-8.507.739a21.136,21.136,0,0,0-10.612,3.267c-.162.108-.822.608-1.506,1.2q.6-1.35,1.222-2.684a17.576,17.576,0,0,1,10.737-6.039c3.515-.592,6.935.691,10.412.965a22.12,22.12,0,0,0,3.861-.206c.913.264-.43,1.872-.678,2.391a19.953,19.953,0,0,1-8.964,8.448c-7.343,3.151-11.694-1.922-18.06.657q.312-.793.637-1.578a19.307,19.307,0,0,1,1.909-1.763" transform="translate(-515.589 -623.77)" fill="#b3b27d"/>
        <path id="Trazado_1320977" data-name="Trazado 1320977" d="M653.675,745.561a.085.085,0,0,1,.134.029c.218.289.518.54.761.818,8.577,8.2,6.145,17.523,4.548,27.8q.877-2.06,1.852-4.077c1.081-2.235,2.248-4.422,3.49-6.544a56.08,56.08,0,0,1,5.441-8.052c.972-1.194,2.059-1.6.572.127a61.975,61.975,0,0,0-7.827,13.18q-.605,1.243-1.192,2.493-.625,1.335-1.221,2.684c.684-.588,1.344-1.088,1.506-1.2a21.132,21.132,0,0,1,10.612-3.267c2.841-.188,5.749.175,8.507-.739a9.7,9.7,0,0,0,1.674-.715.1.1,0,0,1,.136.012.1.1,0,0,1-.04.134,5.786,5.786,0,0,1-1.184.7c-2.72,1.291-5.816,1.035-8.734,1.261a20.263,20.263,0,0,0-11.4,4,19.324,19.324,0,0,0-1.909,1.763q-.325.785-.636,1.578-.259.658-.506,1.322c-.187.5-.363,1.01-.534,1.52h-.972q.436-1.278.913-2.545.3-.792.608-1.579a.423.423,0,0,1-.021-.062,34.486,34.486,0,0,1,.613-5.259c1.8-9.593,2.635-16.909-4.576-24.448-.21-.224-.421-.507-.623-.749a.145.145,0,0,1,.01-.187" transform="translate(-499.04 -563.22)" fill="#9a984a"/>
        <path id="Trazado_1320978" data-name="Trazado 1320978" d="M768.032,720.688a.982.982,0,0,0,.365-.113c5.612-.948,12.721-3.144,16.561-7.686,2.21-2.323,2.022-6.689-1.973-5.883-2.787.674-5,2.9-7.036,4.831-2.56,2.552-4.967,5.266-7.429,7.923a1.857,1.857,0,0,0-.487.929" transform="translate(-586.38 -534.037)" fill="#eb6670"/>
        <path id="Trazado_1320979" data-name="Trazado 1320979" d="M749.632,687.993c-.564.537-.068.686.393.348,4.327-2.979,10.236-8.119,12.325-13.076,2.077-5.391-1.462-8.554-5.207-3.43-3.361,4.9-5.07,10.769-7.51,16.158" transform="translate(-572.14 -505.58)" fill="#eb6670"/>
        <path id="Trazado_1320980" data-name="Trazado 1320980" d="M728.9,651.019c-1.31,2.2-1.444,4.9-1.422,7.419a67.112,67.112,0,0,0,1.291,11.464c0,.273.214.689.521.49,2.915-4.367,6.43-14.752,4.437-19.854-1.023-2.8-3.749-1.591-4.826.48" transform="translate(-555.413 -490.213)" fill="#eb6670"/>
        <path id="Trazado_1320981" data-name="Trazado 1320981" d="M697.874,662.937c-2.217,6.8.013,15.705,1.713,22.49.512,1.714.87,3.49,1.54,5.149.743,1.889,2.976,1.939,4.667,1.92a50.108,50.108,0,0,0,19.043-4.515c2.909-1.5,7.131-4.184,7.164-7.938a2.758,2.758,0,0,0-1.408-2.377c-2.742-1.192-6.95,1.066-9.666,2.395a15.693,15.693,0,0,0,4.99-7.315c.993-3.125-1.484-6.6-4.68-4.834a17.291,17.291,0,0,0-4.626,4.179c-1.165,1.363-2.256,2.791-3.307,4.251a31.689,31.689,0,0,0,2.55-10.9c.159-3.205-1.9-7.738-5.194-4.392-2.357,2.955-2.989,6.944-3.964,10.544-.066.3-.137.6-.209.893a37.995,37.995,0,0,0-.149-4.075c-.265-2.7-.564-5.626-2.228-7.83-2.289-2.943-5.334-.478-6.235,2.353" transform="translate(-532.106 -498.036)" fill="#efa444"/>
        <path id="Trazado_1320982" data-name="Trazado 1320982" d="M390.374,392.6c-11.194-.638-20.99-7.689-26.543-17.592a38.311,38.311,0,0,1-3.946-9.631,38.622,38.622,0,0,1-2.293-7.448,10.52,10.52,0,0,1-.072-1.275c.076-.491-.311-1.245.231-1.5a.66.66,0,0,1,.742.387c3.726,5.206,7.886,10.128,13.023,13.882,8.755,5.762,21.6,10.054,20.565,23.223-.569,0-1.138-.013-1.707-.043" transform="translate(-272.912 -268.298)" fill="#90493c"/>
        <path id="Trazado_1320983" data-name="Trazado 1320983" d="M223.479,520.573c2.55,11.9,3.138,24.528.348,36.437-2.585,9.32-6.185,12.49-15.708,12.22-19.988,0-28.9-28.61-31.244-45.5-1.8-13.551.237-27.952,7.859-39.366a42.515,42.515,0,0,1,11.276-11.511c.24-.2.76-.487.81.018,14.818,11.337,22.586,29.592,26.658,47.7" transform="translate(-134.574 -357.024)" fill="#a96358"/>
        <path id="Trazado_1320984" data-name="Trazado 1320984" d="M542.342,508.919c3.979,12.5,6.8,26.538,2.278,39.281-2.417,6.708-7.642,13.965-15.427,12.413-11.418-2.346-16.037-15.525-19.012-25.768a169.93,169.93,0,0,1-5.338-24.906c-1.058-7.714-1.307-15.561-2.413-23.262a41.529,41.529,0,0,0-3.016-10.563c-.544-1.448-2.609-3.33-1.376-4.809,4.292-2.547,12.208.416,16.514,2.234,13.578,6.145,23.065,21.314,27.79,35.381" transform="translate(-379.949 -355.302)" fill="#a96358"/>
        <path id="Trazado_1320985" data-name="Trazado 1320985" d="M270.023,686.944a.481.481,0,0,1-.251-.271.609.609,0,0,1-.491.06.526.526,0,0,1-.329-.286.692.692,0,0,1-.015-.468q.01-.033.021-.065a.693.693,0,0,1-.839.124.5.5,0,0,1-.2-.31,4.774,4.774,0,0,1-.271.405.8.8,0,0,1-.8.335.592.592,0,0,1-.307-.849,3.38,3.38,0,0,1,.254-.441.745.745,0,0,1,.073-.657,50.228,50.228,0,0,1,4.407-5.892q.271-.321.549-.635,1.131-1.278,2.364-2.457.436-.43.883-.848c1.036-.975,2.125-1.889,3.241-2.763a42.586,42.586,0,0,1,7.075-4.476,39.007,39.007,0,0,1,3.657-1.578,1.779,1.779,0,0,1,.536-.151.788.788,0,0,1,.573.176.382.382,0,0,1,.09.113l.147-.037c.281-.068.562-.135.843-.2.146-.034.29-.065.436-.1a1.211,1.211,0,0,1,.512-.044q.088.381.174.763c.019.089.038.177.057.266a.815.815,0,0,1-.261.243l-.011.006a.746.746,0,0,1-.016.382.915.915,0,0,1-.279.431.513.513,0,0,1,.085.172l.2-.055a3.019,3.019,0,0,1,.5-.118q.3,1.5.561,3.019a7.076,7.076,0,0,1-.7.247c-.34.117-.677.236-1.015.356-.706.25-1.411.5-2.108.775l.02-.009q-.37.15-.734.308-1.114.514-2.2,1.094l.037-.022-.079.044-.01.005.007,0c-.564.315-1.124.636-1.675.974q-.86.546-1.691,1.14l.021-.016-.037.028-.05.036.041-.029a63.363,63.363,0,0,0-5.02,4.2c-.7.658-1.407,1.318-2.08,2.012-.7.726-1.379,1.474-2.043,2.237l-.037.042-.031.036,0-.006-.153.178,0-.006-.025.029-.047.054.015-.017a9.322,9.322,0,0,1-1.164,1.234,2.9,2.9,0,0,1-.428.453.713.713,0,0,1-.729.138s0,0-.009,0a.492.492,0,0,1-.053-.027,4.369,4.369,0,0,1-.308.425.906.906,0,0,1-.647.353.549.549,0,0,1-.237-.053" transform="translate(-203.443 -502.844)" fill="#c66f79"/>
        <path id="Trazado_1320986" data-name="Trazado 1320986" d="M583.525,705.821a1.288,1.288,0,0,1-.29-.129.791.791,0,0,1-.755.029v0c-.162-.073-.327-.139-.493-.2a42.541,42.541,0,0,0-4.477-1.383l.1.027c-.183-.044-.362-.093-.544-.14l.1.027c-3.133-.836-6.4-1.075-9.428-2.324.358-.071.81-.075,1.2-.113q-.608-.088-1.216-.166l.1.013-.248-.032.1.014c-.728-.157-1.617-.01-2.223-.518-.66-.8.255-1.153.945-1.112,5.33-.386,10.906.607,15.351,3.805l-.013-.009c.3.209,3.338,2.329,1.782,2.211" transform="translate(-431.546 -528.617)" fill="#90493c"/>
      </g>
    </g>
    <g id="Grupo_1188283" data-name="Grupo 1188283" transform="translate(23.041 4.812)">
      <g id="Grupo_1188282" data-name="Grupo 1188282" clip-path="url(#clip-path-3)">
        <path id="Trazado_1320987" data-name="Trazado 1320987" d="M334.417,514.614c.573,3.736,8.881,52.657,8.709,52.639-.046,0-81.588,1.888-81.566,1.794.605-2.736,14.872-40.1,15.151-42.87a65.325,65.325,0,0,0-.557-16.485c-2.311-12.848-7.818-27.311-15.782-37.52-2.156-2.5-4.223-5.168-7.032-6.829a.432.432,0,0,1-.359-.385.46.46,0,0,1,.266-.419c.878-1.218,5.081-3.324,5.8-3.612a.414.414,0,0,1,.573.376,7.489,7.489,0,0,0,.523.8c4.181,5.6,9.924,9.669,15.823,13.119,6.736,4,14.711,6.548,22.483,5.127a12.277,12.277,0,0,0,9.724-15.487,13.826,13.826,0,0,0-1.137-2.472.445.445,0,0,1,.159-.59c.488-.2.756.376.98.918.276-1.168,1.2-1.6,2.977-.169a29.707,29.707,0,0,1,5.015,6.2c8.981,13.83,15.693,29.351,18.252,45.867" transform="translate(-216.187 -352.993)" fill="#7985bc"/>
      </g>
    </g>
    <g id="Grupo_1188312" data-name="Grupo 1188312">
      <g id="Grupo_1188311" data-name="Grupo 1188311" clip-path="url(#clip-path-2)">
        <path id="Trazado_1320989" data-name="Trazado 1320989" d="M307.788,487.36a11.667,11.667,0,0,1,3.064,7.893c.091,2.388-.331,5.136-2.351,6.6-1.982,1.245-4.342,1.7-6.417,2.717-2.956,1.246-5.634,3.192-8.73,4.056a5.4,5.4,0,0,1-3.5-.127,11.732,11.732,0,0,1-5.142,3.069,14.174,14.174,0,0,1-6.4.554,3.49,3.49,0,0,1-.561-.142c-3.147,2.9-11.292,6.068-13.193,6.68-1.879.581-3.963,1.3-5.907.707a29.064,29.064,0,0,1-3.076,1.872,31.587,31.587,0,0,1-8.98,3.635c-2.448.5-5.118,1.062-7.554.27a3.159,3.159,0,0,0-.582.224,24,24,0,0,1-7.051,3.406c-3.589,1.083-7.666,1.687-11.143-.087-4.641-2.322-5.953-8.687-3.294-13.076a2.211,2.211,0,0,1,.253-.456c-4.729-4.815-3.7-14.33,1.9-17.987a12.244,12.244,0,0,1-.5-4.1c.232-6.045,4.44-12.216,10.459-13.02a17.3,17.3,0,0,1,1.536-3.488,14.68,14.68,0,0,1,15.086-7.577.358.358,0,0,1,.053.009,11.348,11.348,0,0,1,1.745-2.031,11.164,11.164,0,0,1,10.984-2.264,16.535,16.535,0,0,1,2.712,1.231,11.831,11.831,0,0,1,2.183-1.763c9.063-5.761,23.181.208,28.8,8.707.438.712.837,1.45,1.216,2.2,5.229-1.509,10.419,3.326,12.894,7.776a13.334,13.334,0,0,1,1.5,4.518" transform="translate(-163.558 -348.93)" fill="#ec8895"/>
        <path id="Trazado_1320990" data-name="Trazado 1320990" d="M311.256,715.5l-.023-.021,0,0,.028.025" transform="translate(-237.617 -540.506)" fill="#eb6670"/>
        <path id="Trazado_1320991" data-name="Trazado 1320991" d="M268.031,661.037c-1.512-1.47-2.722-3.354-4.29-4.744a4.857,4.857,0,0,0-.162-.67c-1.171-4.587-4.134-9.873-8.989-10.8-.394.146.02.451.246.512a10.548,10.548,0,0,1,1.859.955,17.8,17.8,0,0,1,4.852,6.988,19.344,19.344,0,0,1,.83,2.014,6.627,6.627,0,0,0-1.494-.65,8.865,8.865,0,0,0-4.517-.538.729.729,0,0,0-.406.281l.168.008c.318.017.633.049.949.076l-.036,0c.279.021.556.048.832.089s.534.09.8.143c.282.057.563.12.841.2.252.074.5.16.745.257a7.449,7.449,0,0,1,1.4.787c.249.17.492.347.729.534.205.162.4.334.6.506l-.016-.015c.181.157.363.313.54.476.212.192.413.394.61.6s.408.434.6.661.388.462.583.691l-.009-.008c.241.281.486.555.729.832s.493.565.751.838l-.024-.028c.355.372.719.733,1.108,1.068a6.038,6.038,0,0,0,.606.455,5.74,5.74,0,0,0,.555.3c.122.055.247.1.374.147h0l.007,0,0,0c.2.053.392.094.59.127H270l.13.02a.382.382,0,0,0-.146-.231c-.642-.641-1.326-1.234-1.951-1.895" transform="translate(-194.25 -487.136)" fill="#eb6670"/>
        <path id="Trazado_1320992" data-name="Trazado 1320992" d="M316.169,718.6l-.027-.015,0,0,.032.017" transform="translate(-241.365 -542.856)" fill="#eb6670"/>
        <path id="Trazado_1320993" data-name="Trazado 1320993" d="M228.812,668.3c-.619.335-1.89,2-1.175,2.546a6.478,6.478,0,0,1,.9-.932c.2-.169.41-.327.622-.478s.445-.316.678-.461c.216-.136.437-.264.666-.38a6.39,6.39,0,0,1,.677-.284,6.806,6.806,0,0,1,1.179-.321,3.954,3.954,0,0,0-3.547.309" transform="translate(-173.635 -504.429)" fill="#eb6670"/>
        <path id="Trazado_1320994" data-name="Trazado 1320994" d="M388.031,685.894h0" transform="translate(-296.255 -518.162)" fill="#eb6670"/>
        <path id="Trazado_1320995" data-name="Trazado 1320995" d="M387.931,685.867l.01,0h.006l-.016,0" transform="translate(-296.179 -518.141)" fill="#eb6670"/>
        <path id="Trazado_1320996" data-name="Trazado 1320996" d="M363.544,687.756l.019-.008.013-.007-.032.015" transform="translate(-277.56 -519.557)" fill="#eb6670"/>
        <path id="Trazado_1320997" data-name="Trazado 1320997" d="M368.546,687.533c-.079-.1-.157-.19-.233-.287a8.191,8.191,0,0,0-.583-.641v0h0l-.012-.012,0,0,0,0h0l0,0h0l0,0h0l0,0-.013-.012s0,0,.007.007l-.056-.051s.006,0,.006.007a5.977,5.977,0,0,0-.677-.536h0l-.028-.018h0a.129.129,0,0,1-.022-.015l-.005,0-.032-.019h0a8.814,8.814,0,0,0-.838-.452,6.894,6.894,0,0,0-.849-.325l-.115-.035.034.011-.087-.025h0l-.008,0-.01,0,0,0-.011,0a8.278,8.278,0,0,0-1.287-.214c-.251-.022-.5-.035-.754-.035s-.5.013-.752.025a9.078,9.078,0,0,0-1.427.2c-.246.054-.488.124-.727.2s-.475.15-.708.242h0a.1.1,0,0,1-.025.011l.016-.005-.085.036.008,0,.01,0-.023.01a8.193,8.193,0,0,0-1.357.805.518.518,0,0,0,.28-.079c3.362-1.835,6.435.039,9.541,1.426a.925.925,0,0,0,.6.034.369.369,0,0,0,.243-.212l-.028-.035.02.023" transform="translate(-273.241 -517.381)" fill="#eb6670"/>
        <path id="Trazado_1320998" data-name="Trazado 1320998" d="M388.747,686.092l.018.006.016,0-.034-.011" transform="translate(-296.802 -518.311)" fill="#eb6670"/>
        <path id="Trazado_1320999" data-name="Trazado 1320999" d="M274.573,544.322l0,0,.159.284-.016-.031q.115.2.238.393c-.863-2.218-.461-4.742-.29-7.071a1.9,1.9,0,0,0-.04-1.174.636.636,0,0,0-.151-.165l-.067.116h0l0,0a.693.693,0,0,1-.041.07s.006-.009.009-.012a4.558,4.558,0,0,0-.252.51c-.076.183-.143.366-.206.556v0l-.007.021v0h0s0,.005,0,.008l0,.006,0,0a.7.7,0,0,1-.022.071c-.011.038-.022.074-.034.11l0,.007a9.441,9.441,0,0,0-.264,1.234,9.711,9.711,0,0,0-.109,1.4v0a.015.015,0,0,0,0,.008c0,.027,0,.056,0,.085,0,0,0-.009,0-.014a7.478,7.478,0,0,0,.084.842c0-.013,0-.024,0-.035.029.183.062.363.1.544s.083.331.132.494a7.371,7.371,0,0,0,.353.873c.139.294.282.584.436.87" transform="translate(-208.786 -405.343)" fill="#eb6670"/>
        <path id="Trazado_1321000" data-name="Trazado 1321000" d="M533.933,618.279c.128,2.482.118,5.217-1.439,7.29-.114.177-.38.577-.062.678.239,0,.4-.235.551-.4,1.742-1.073,2.812-6.5,1.322-8.106-.339-.192-.446.283-.372.541" transform="translate(-406.388 -466.639)" fill="#eb6670"/>
        <path id="Trazado_1321001" data-name="Trazado 1321001" d="M594.21,558.759a3.248,3.248,0,0,0-1.558-1.035c-.382-.093-1.487-.371-1.836-.015q.284.078.565.172h0l.009,0,.025.008-.01,0a8.538,8.538,0,0,1,1.269.524,13.281,13.281,0,0,1,1.211.723c.395.262.78.535,1.154.827l.031.025c-.005-.363-.7-1.02-.858-1.228" transform="translate(-451.078 -421.19)" fill="#eb6670"/>
        <path id="Trazado_1321002" data-name="Trazado 1321002" d="M429.255,513.24s0,0,0-.005a4.738,4.738,0,0,1-5.054-.222c-1.3-2.155-3.62-3.808-6.111-3.544a.66.66,0,0,0-.355.1c.15.038.3.08.446.127a7.992,7.992,0,0,1,.94.374l.018.008s0,0,0,0c.2.09.389.191.577.3l0,0,.016.009,0,0h0a10.539,10.539,0,0,1,1.267.866,8.122,8.122,0,0,1,1.093,1,7.58,7.58,0,0,1,.858,1.183c.128.216.241.441.353.664s.225.478.326.723l.051.122,0,.012s.005.01.006.014v0c.016.042.031.085.049.129l0-.008a12.517,12.517,0,0,1,.581,1.85c0-.006,0-.012,0-.02a.119.119,0,0,1,0,.026.108.108,0,0,1,0,.011l0-.006c.089.42.152.848.2,1.276a6.738,6.738,0,0,1,.043,1.46l0-.017c-.021.212-.054.418-.083.626-.023.155-.047.312-.078.466l.005.062c1.034-1.751.926-4.056.521-6.056a5.741,5.741,0,0,0,2.921.145c.661-.1,2.388-.776,1.742-1.673a.241.241,0,0,0-.345.006" transform="translate(-318.935 -384.859)" fill="#eb6670"/>
        <path id="Trazado_1321003" data-name="Trazado 1321003" d="M517.461,609.918l-.006,0,0,0,.01.006" transform="translate(-395.065 -460.761)" fill="#eb6670"/>
        <path id="Trazado_1321004" data-name="Trazado 1321004" d="M473.448,512.378l0,0-.008,0,.012.008" transform="translate(-361.46 -387.072)" fill="#eb6670"/>
        <path id="Trazado_1321005" data-name="Trazado 1321005" d="M520.24,611l-.025-.01-.007,0a.257.257,0,0,1,.032.012" transform="translate(-397.17 -461.574)" fill="#eb6670"/>
        <path id="Trazado_1321006" data-name="Trazado 1321006" d="M496.208,578.679l0-.012c0-.008,0-.016-.007-.024,0,.012.005.023.009.036" transform="translate(-378.84 -437.139)" fill="#eb6670"/>
        <path id="Trazado_1321007" data-name="Trazado 1321007" d="M515.626,608.921l0,0-.026-.015.03.017" transform="translate(-393.65 -459.999)" fill="#eb6670"/>
        <path id="Trazado_1321008" data-name="Trazado 1321008" d="M477.212,510.318c-3.392-1.291-7.186-.427-7.882,3.613a14.514,14.514,0,0,0-1.067-2.684c-1.094-2.13-2.775-4.441-5.281-4.656a3.937,3.937,0,0,0-1.149.091l.179.052a8.423,8.423,0,0,1,.871.316c.289.122.574.253.851.4a7.075,7.075,0,0,1,.851.55.209.209,0,0,0,.02.016l0,0,.016.014-.01-.01a7.375,7.375,0,0,1,1.144,1.11,7.982,7.982,0,0,1,.518.706c.146.219.283.442.413.673.272.483.506.987.731,1.5.212.476.42.957.6,1.446a23.211,23.211,0,0,1,.922,3.2c.114.547.22,1.1.3,1.651.073.514.129,1.031.188,1.549.071.628.119,1.257.186,1.886l-.005-.037c.045.425.088.854.141,1.278a12.477,12.477,0,0,0,.223,1.255,14.493,14.493,0,0,0,.471,1.52l-.011-.035a18.7,18.7,0,0,0,.942,2.159l0,0a13.977,13.977,0,0,0,.842,1.356h0a11.626,11.626,0,0,0,.844,1.08v0s0,0,.006.007l.01.012h0l0,0,0,0h0a10.792,10.792,0,0,0,.832.782.193.193,0,0,1-.025-.023,6.7,6.7,0,0,0,.689.526c.136.082.274.162.417.234l.027.012a5.432,5.432,0,0,0,.628.25,8.723,8.723,0,0,0,.929.2.32.32,0,0,0-.066-.2c-.5-.448-1.041-.8-1.584-1.236a8.449,8.449,0,0,1-2.274-2.485c-1.817-3.192-2.009-6.906-2.524-10.524.077-.671-.053-1.368.084-2.059.676-3.742,3.828-5.159,7.227-4.531.655-.151.249-.877-.227-.961" transform="translate(-352.601 -382.697)" fill="#eb6670"/>
        <path id="Trazado_1321009" data-name="Trazado 1321009" d="M550.157,519.573l.025.021,0,0-.027-.023" transform="translate(-420.036 -392.514)" fill="#eb6670"/>
        <path id="Trazado_1321010" data-name="Trazado 1321010" d="M550.571,520.888c.006.012.013.021.019.032l-.072-.133a6.937,6.937,0,0,0-.85-1.213,7.027,7.027,0,0,0-.529-.527q-.271-.248-.557-.477a5.02,5.02,0,0,0-.521-.352.353.353,0,0,0,.073.106,11.693,11.693,0,0,1,2.5,5.481c.17.792.252,1.532.384,2.357a1.393,1.393,0,0,0,.179.513c.025-.054.049-.108.07-.163a4.113,4.113,0,0,0,.134-.431,5.318,5.318,0,0,0,.1-.747c.018-.244.024-.487.024-.732a.051.051,0,0,0,0,.008c0-.032,0-.065,0-.1,0-.006,0-.011,0-.017a.03.03,0,0,1,0-.009,8.983,8.983,0,0,0-.265-1.835,7.227,7.227,0,0,0-.291-.883c-.117-.3-.252-.594-.4-.881" transform="translate(-418.434 -391.49)" fill="#eb6670"/>
        <path id="Trazado_1321011" data-name="Trazado 1321011" d="M558.421,528.673l.007.013.012.019c-.005-.01-.013-.021-.019-.032" transform="translate(-426.345 -399.388)" fill="#eb6670"/>
        <path id="Trazado_1321012" data-name="Trazado 1321012" d="M533.421,558.5c-.211.165-.369.513-.128.727.227.155.514-.027.761-.044a5.888,5.888,0,0,1,3.976.494c1.7.962,3.267,2.942,2.672,5.055a2.566,2.566,0,0,1-.769,1.284,6.86,6.86,0,0,0-3.058-.986.536.536,0,0,0-.088,0c.208.106.411.221.612.339a9.656,9.656,0,0,1,.919.622,8.864,8.864,0,0,1,.9.769,7.491,7.491,0,0,1,.7.8c.046.06.091.121.135.182l-.014-.023c.071.1.141.2.209.295,0,0,0-.005,0-.008.031.043.06.087.089.131h0l.11.162c-.007-.009-.012-.019-.02-.029l.128.2c-.007-.009-.012-.018-.02-.028a6.892,6.892,0,0,1,.7,1.4,7.4,7.4,0,0,1,.384,1.65,9.094,9.094,0,0,1,.064,1.6,8.606,8.606,0,0,1-.222,1.456l-.009.036a.3.3,0,0,0,.107-.016.775.775,0,0,0,.351-.335,6.393,6.393,0,0,0,.461-5.427,5.571,5.571,0,0,0-.763-1.313,9.812,9.812,0,0,0,.427-5.511c-.876-3.551-5.657-5.734-8.6-3.477" transform="translate(-407.067 -421.224)" fill="#eb6670"/>
        <path id="Trazado_1321013" data-name="Trazado 1321013" d="M482.892,615.055c-.281.125-.107.5-.051.728a14.043,14.043,0,0,1-.2,7.6c-.395,1.224-.508,2.629-1.42,3.592-.352.269-.239.833.23.524a.234.234,0,0,0,.086.035c1.979-2.123,3.5-5.234,3.093-8.326a11.9,11.9,0,0,0-1.261-3.7c-.125-.173-.224-.478-.479-.444" transform="translate(-367.248 -464.644)" fill="#eb6670"/>
        <path id="Trazado_1321014" data-name="Trazado 1321014" d="M398.394,612.267a9.214,9.214,0,0,0-1.309-4.372l.022.106v0a11.216,11.216,0,0,1,.216,1.582c.035.583.029,1.167.007,1.751-.009.262-.021.525-.041.786s-.042.548-.086.819a6.828,6.828,0,0,1-.191.853c-.076.26-.167.513-.268.763a7.78,7.78,0,0,1-.427.928,4.811,4.811,0,0,1-.391.584c-.142.189-.3.369-.456.545,0,0,0,0,0-.006-.047.052-.1.105-.146.156l.025-.026a7.042,7.042,0,0,1-1.178,1.012,5.9,5.9,0,0,1-.69.415c-.233.117-.472.223-.716.319q-.144.056-.29.1c-.145.049-.293.095-.442.129-.235.057-.472.1-.709.14s-.469.072-.7.1c-.1.011-.21.019-.315.025a6.787,6.787,0,0,0,2.766.125,6.223,6.223,0,0,0,5.191-5.125,3.637,3.637,0,0,1,.972-.322,5.241,5.241,0,0,1,3.091.659,5.731,5.731,0,0,1,2.092,1.736.34.34,0,0,0,.249.2.706.706,0,0,0,.156-.031c.933-.316-1.319-2.568-1.795-2.771a6.117,6.117,0,0,0-4.638-1.176" transform="translate(-297.996 -459.237)" fill="#eb6670"/>
        <path id="Trazado_1321015" data-name="Trazado 1321015" d="M374.405,518.224c.239.45.444.922.649,1.391.1.23.2.459.292.695-.2-2.743-2.214-5.889-3.8-7.781a16.279,16.279,0,0,0-6.105-4.582c-.317-.751-.656-1.495-1.018-2.222-3.431-6.354-8.7-12.387-15.722-14.266-.21-.018-.538-.193-.71-.007-.4.1-.1.475.4.511,5.236,1.38,9.143,5.92,11.868,10.564a48.827,48.827,0,0,1,2.357,4.614,8.719,8.719,0,0,0-7.153,1.955c-.147.135-.64.465-.728.734.42-.182.848-.346,1.278-.5.252-.092.509-.168.767-.242s.542-.147.816-.21c.238-.053.478-.107.72-.153q.42-.078.844-.122c.308-.032.619-.05.928-.06a8.461,8.461,0,0,1,.937.031,11,11,0,0,1,1.871.3c.329.085.653.186.974.3l-.006,0a14.017,14.017,0,0,1,1.544.66c.5.24.984.514,1.469.784a20.82,20.82,0,0,1,2.732,1.767,14.872,14.872,0,0,1,1.93,1.834c.288.327.57.661.848,1s.547.676.8,1.032l0-.008c.031.044.063.088.092.13,0,0,0,0,0,0a.3.3,0,0,1,.021.031l.179.263,0,0,0,.006.017.025,0,0c.023.033.046.068.07.1v0c0,.006.006.012.01.017l.011.015h0c.3.451.569.918.824,1.4" transform="translate(-265.542 -371.206)" fill="#eb6670"/>
        <path id="Trazado_1321016" data-name="Trazado 1321016" d="M307.577,555.263c2.16,2.987,5.909,3.782,9.334,3.575a5.983,5.983,0,0,0-.2,6.671,6.723,6.723,0,0,0,3.468,2.946.229.229,0,0,0,.054-.025c.838.191-.17-.619-.57-.893a5.421,5.421,0,0,1-1.724-5.73,11.736,11.736,0,0,1,2.739-4.225c.2-.233.473-.449.527-.769.025-.324-.3-.68-.624-.57a9.386,9.386,0,0,1-3.481,1.078c-4.553,1.112-9.866-1.516-10.926-6.459-.021-.149-.066-.375-.262-.334a.138.138,0,0,0-.083.142,4.505,4.505,0,0,0,.316,1.871,6.254,6.254,0,0,0,1.435,2.721" transform="translate(-233.487 -415.896)" fill="#eb6670"/>
        <path id="Trazado_1321017" data-name="Trazado 1321017" d="M340.05,661.9h0" transform="translate(-259.607 -500.038)" fill="#eb6670"/>
        <path id="Trazado_1321018" data-name="Trazado 1321018" d="M301.543,641.978l-.018-.024,0-.005.022.029" transform="translate(-230.206 -484.963)" fill="#eb6670"/>
        <path id="Trazado_1321019" data-name="Trazado 1321019" d="M263.154,612.463l0,0c.077-.049.152-.1.226-.156a1.7,1.7,0,0,0-.9.049c-6.208,1.261-8.632-2.986-11.539-7.734-2.705-4.347-7.879-8.694-13.1-6.419a6.251,6.251,0,0,0-1.9,1.463.271.271,0,0,0-.079.223q.16-.076.323-.148c.068-.03.135-.059.2-.087a2.355,2.355,0,0,1,.261-.093c.026-.009.052-.015.079-.022.115-.032.233-.061.349-.091.244-.062.491-.116.74-.16.273-.047.548-.079.824-.1a6.525,6.525,0,0,1,1.014-.009l-.013,0c.023,0,.046,0,.069,0,.044,0,.088.009.131.012.1.008.206.019.309.032.249.029.5.072.742.124a10.735,10.735,0,0,1,1.324.381,6.273,6.273,0,0,1,.63.248c.223.106.441.219.657.339l-.006,0a10.56,10.56,0,0,1,1.095.7c.358.261.719.525,1.058.81a.011.011,0,0,1,0,0h0v0s0,0,0,0v0c.2.166.379.337.566.512s.4.368.591.556.411.411.611.62q.283.289.557.588a27.2,27.2,0,0,1,1.895,2.286c.249.343.486.7.741,1.037s.51.681.774,1.014c.195.243.389.484.593.717.182.206.373.4.566.594l0,0,.015.015,0,.005,0,0a19.547,19.547,0,0,0,1.818,1.566,12.675,12.675,0,0,0,1.276.848,9.762,9.762,0,0,0,1.033.486,9.456,9.456,0,0,0,1.035.324l-.01,0a12.118,12.118,0,0,0,1.555.262l-.036,0a10.281,10.281,0,0,0,1.251.059,6.9,6.9,0,0,0,.737-.07l-.017,0,.067-.013-.015,0c.205-.038.411-.075.611-.132h0c.065-.02.13-.04.193-.061s.126-.044.187-.07a4.261,4.261,0,0,0,.434-.238c.153-.09.307-.182.457-.276" transform="translate(-180.076 -451.446)" fill="#eb6670"/>
        <path id="Trazado_1321020" data-name="Trazado 1321020" d="M319.543,657.261l0,0-.028-.014.032.017" transform="translate(-243.941 -496.518)" fill="#eb6670"/>
        <path id="Trazado_1321021" data-name="Trazado 1321021" d="M323.948,659.279l-.014-.006-.018-.006.032.012" transform="translate(-247.304 -498.046)" fill="#eb6670"/>
        <g id="Grupo_1188286" data-name="Grupo 1188286" transform="translate(106.298 114.227)" style="mix-blend-mode: soft-light;isolation: isolate">
          <g id="Grupo_1188285" data-name="Grupo 1188285">
            <g id="Grupo_1188284" data-name="Grupo 1188284" clip-path="url(#clip-path-5)">
              <path id="Trazado_1321022" data-name="Trazado 1321022" d="M464.294,473.238c-4.488-2.991-8.77-5.261-14.245-5.2-.2-.023-.454.047-.577-.177a.232.232,0,0,1,.061-.327c3.674-1.324,8.5.611,11.775,2.431a29.014,29.014,0,0,1,2.769,1.752,2.082,2.082,0,0,1,1.142,1.594,1.435,1.435,0,0,1-.924-.075" transform="translate(-449.432 -467.099)" fill="#fff"/>
            </g>
          </g>
        </g>
        <g id="Grupo_1188289" data-name="Grupo 1188289" transform="translate(123.637 121.372)" style="mix-blend-mode: soft-light;isolation: isolate">
          <g id="Grupo_1188288" data-name="Grupo 1188288">
            <g id="Grupo_1188287" data-name="Grupo 1188287" clip-path="url(#clip-path-6)">
              <path id="Trazado_1321023" data-name="Trazado 1321023" d="M525.835,499.573a1.01,1.01,0,0,1-.844-.409,13.365,13.365,0,0,0-1.49-1.647c-.192-.272-1.028-.819-.674-1.157a.544.544,0,0,1,.486.049c.5.244,3.46,2.681,2.522,3.164" transform="translate(-522.74 -496.318)" fill="#fff"/>
            </g>
          </g>
        </g>
        <g id="Grupo_1188292" data-name="Grupo 1188292" transform="translate(118.968 135.792)" style="mix-blend-mode: soft-light;isolation: isolate">
          <g id="Grupo_1188291" data-name="Grupo 1188291">
            <g id="Grupo_1188290" data-name="Grupo 1188290" clip-path="url(#clip-path-7)">
              <path id="Trazado_1321024" data-name="Trazado 1321024" d="M506.843,566.292c-2.578-1.916-3.082-5.5-3.555-8.529-.047-.78-.718-2,.171-2.479a1.406,1.406,0,0,1,.794,1.287,23.339,23.339,0,0,0,.267,3.085,12.723,12.723,0,0,0,2.474,6.456.119.119,0,0,1-.159.178l.007,0" transform="translate(-503.001 -555.284)" fill="#fff"/>
            </g>
          </g>
        </g>
        <g id="Grupo_1188295" data-name="Grupo 1188295" transform="translate(86.669 117.15)" style="mix-blend-mode: soft-light;isolation: isolate">
          <g id="Grupo_1188294" data-name="Grupo 1188294">
            <g id="Grupo_1188293" data-name="Grupo 1188293" clip-path="url(#clip-path-8)">
              <path id="Trazado_1321025" data-name="Trazado 1321025" d="M374.094,480.67a20.48,20.48,0,0,1-2.456-.393,10.85,10.85,0,0,0-2.791.043,13.314,13.314,0,0,1-2.113.375c-.491-.06-.291-.685.05-.828a8.8,8.8,0,0,1,5.469-.668c.767.167,1.728.133,2.218.873.231.3-.1.548-.378.6" transform="translate(-366.44 -479.052)" fill="#fff"/>
            </g>
          </g>
        </g>
        <g id="Grupo_1188298" data-name="Grupo 1188298" transform="translate(133.945 127.981)" style="mix-blend-mode: soft-light;isolation: isolate">
          <g id="Grupo_1188297" data-name="Grupo 1188297">
            <g id="Grupo_1188296" data-name="Grupo 1188296" clip-path="url(#clip-path-9)">
              <path id="Trazado_1321026" data-name="Trazado 1321026" d="M571.892,528.124c-.629.064-1.059-.545-1.38-1.016a11.588,11.588,0,0,0-2.652-2.438c-.471-.336-1.021-.557-1.461-.937-.36-.624.688-.35.95-.205.905.2,5.767,3.638,4.544,4.6" transform="translate(-566.324 -523.342)" fill="#fff"/>
            </g>
          </g>
        </g>
        <g id="Grupo_1188301" data-name="Grupo 1188301" transform="translate(76.37 122.095)" style="mix-blend-mode: soft-light;isolation: isolate">
          <g id="Grupo_1188300" data-name="Grupo 1188300">
            <g id="Grupo_1188299" data-name="Grupo 1188299" clip-path="url(#clip-path-10)">
              <path id="Trazado_1321027" data-name="Trazado 1321027" d="M333.669,503.063a1.65,1.65,0,0,1-1.148-.35,14.587,14.587,0,0,0-2.7-1.363,18.557,18.557,0,0,0-6.664-.987c-.346-.1-.359-.482-.011-.625a7.412,7.412,0,0,1,4.368-.268c1.721.314,5.968,1.4,6.386,3.369.04.152-.109.207-.234.224" transform="translate(-322.895 -499.273)" fill="#fff"/>
            </g>
          </g>
        </g>
        <g id="Grupo_1188304" data-name="Grupo 1188304" transform="translate(100.5 140.805)" style="mix-blend-mode: soft-light;isolation: isolate">
          <g id="Grupo_1188303" data-name="Grupo 1188303">
            <g id="Grupo_1188302" data-name="Grupo 1188302" clip-path="url(#clip-path-11)">
              <path id="Trazado_1321028" data-name="Trazado 1321028" d="M430.645,581.1c-1.079-.242-1.43-1.447-2.138-2.179a11.152,11.152,0,0,0-3.445-2.67c-.436-.417.208-.558.53-.42,1.59.4,5.4,3.427,5.055,5.269h0" transform="translate(-424.915 -575.783)" fill="#fff"/>
            </g>
          </g>
        </g>
        <path id="Trazado_1321029" data-name="Trazado 1321029" d="M254.4,613.176c-.317,9.035,7.43,13.663,15.3,14,7.951.459,15.621-2.832,22.31-7.019A92.005,92.005,0,0,0,311.2,603.245c3.722-4.162,7.082-8.757,10.794-12.91a68.147,68.147,0,0,1,8.249-7.235c4.632-3.849,9.172-8.132,12.049-13.586.666-1.39,2.493-5.076.151-5.446a3.661,3.661,0,0,0-1.238.405,34.21,34.21,0,0,0,2.282-5.369c1.527-4.359.6-7.148-2.561-4.7q.306-.887.551-1.8c.261-1.1.145-2.781-1.264-2.808-1.829.17-3.215,1.613-4.556,2.879.068-.28.125-.562.175-.846.233-1.185-.063-3.048-1.569-2.92-1.119.128-1.859,1.164-2.6,1.943-2.774,3.246-5.3,6.894-8.527,9.663-.172.142-.346.282-.519.42.234-2.39-.02-5.141-1.711-6.383a1.756,1.756,0,0,0-2.08.094c-1.537,1.333-1.86,3.571-2.6,5.393-1.28,3.586-3.151,7.152-6.032,9.581-4.826,3.862-10.765,5.612-16.374,7.838-2.678,1.05-5.36,2.144-8,3.334-.007,0-.012.005-.021.008-14.449,6.227-30.817,16.611-31.4,32.377" transform="translate(-194.223 -414.671)" fill="#a96358"/>
        <path id="Trazado_1321030" data-name="Trazado 1321030" d="M563.253,553.938c1.089,2.792-.889,6.737-2.08,9.277-.094.185-.189.369-.288.552a1.529,1.529,0,0,1,2.252,1.563c-.159,2.682-1.938,4.918-3.347,7.064a54.881,54.881,0,0,1-8.585,9.4q-1.039.929-2.123,1.8a.278.278,0,0,1-.392-.052.3.3,0,0,1,.048-.4c.544-.441,1.085-.887,1.611-1.349A60.819,60.819,0,0,0,557.074,575c2.158-2.855,4.85-5.8,5.5-9.452.065-.982-.292-1.556-1.3-1.295-.355.045-.588.293-.891.419a41.945,41.945,0,0,1-5.026,6.879c-.185.2-.4.6-.692.345a.3.3,0,0,1,0-.41c.967-1.1,1.9-2.206,2.785-3.377a34.389,34.389,0,0,0,4.449-7.831c.527-1.32,2.5-7.215-.436-6.433a8.569,8.569,0,0,0-1.276.754A46.757,46.757,0,0,1,553,565.8c-.906,1.088-1.851,2.137-2.8,3.184a.274.274,0,0,1-.394,0,.3.3,0,0,1,0-.407c.893-.991,1.786-1.984,2.644-3a54.021,54.021,0,0,0,5.677-8.073c1.05-2.051,2.622-4.382,2.047-6.782-.464-1.493-2.106-.392-2.9.146a19.71,19.71,0,0,0-2.232,1.887.231.231,0,0,1-.085.059,11.021,11.021,0,0,1-.525,1.5,37.912,37.912,0,0,1-6.163,9.824c-.706.849-1.435,1.675-2.163,2.5a.276.276,0,0,1-.394,0,.3.3,0,0,1,0-.41c.634-.72,1.267-1.439,1.875-2.161a48.259,48.259,0,0,0,4.928-6.985c1.085-2.191,2.448-4.569,2.1-7.1a.953.953,0,0,0-1.576-.61c-3.382,2.331-5.51,6.048-8.3,9.027-.447.389-2.744,3.339-3.09,2.616-.168-.306.233-.468.379-.628,3.127-2.929,5.551-6.523,8.48-9.646,3.4-3.749,5.166-2.092,4.654,1.13a1.362,1.362,0,0,0,.246-.234c1.122-.953,2.33-2.058,3.813-2.263,2.032.148,1.827,2.634,1.313,4.3.834-.592,2.158-.808,2.72.259" transform="translate(-413.508 -414.439)" fill="#45133e"/>
        <path id="Trazado_1321031" data-name="Trazado 1321031" d="M339.186,713.039c4.869,7.509.638,15.66-5.882,20.236-6.527,4.717-14.724,6.093-22.542,6.174a88.363,88.363,0,0,1-24.924-3.942c-5.283-1.513-10.479-3.592-15.75-5.1a65.47,65.47,0,0,0-10.7-1.662c-5.9-.752-11.939-1.923-17.161-4.994-1.274-.82-4.7-2.958-2.9-4.548a3.649,3.649,0,0,1,1.259-.329,32.492,32.492,0,0,1-4.673-3.324c-3.517-2.875-4.149-5.751-.216-5.391-.475-.392-.936-.8-1.385-1.231-.782-.793-1.54-2.286-.355-3.076,1.642-.851,3.554-.378,5.34-.032-.2-.2-.392-.41-.579-.624-.8-.881-1.5-2.626-.153-3.337,1.017-.5,2.174-.022,3.2.239,4.011,1.25,8.016,2.977,12.169,3.576.218.027.438.052.656.074-1.416-1.9-2.6-4.382-1.794-6.359a1.792,1.792,0,0,1,1.816-1.052c1.986.3,3.4,2.024,4.952,3.173,2.914,2.353,6.32,4.366,10.007,4.864,6.07.657,12.01-1.088,17.912-2.247,2.811-.565,5.649-1.094,8.5-1.52l.022,0c15.456-2.569,34.659-2.648,43.183,10.439" transform="translate(-177.895 -527.549)" fill="#a96358"/>
        <path id="Trazado_1321032" data-name="Trazado 1321032" d="M267.5,722.649c-4.826-1.976-10.056-3.9-13.606-7.994-1.037-1.127-1.426-3.309.425-3.769a5.339,5.339,0,0,1,3.023.225c2.1.638,4.128,1.477,6.228,2.105a56.612,56.612,0,0,0,6.366,1.547.288.288,0,0,1,.22.338.282.282,0,0,1-.327.23,56.586,56.586,0,0,1-7.417-1.88c-2.5-.68-4.934-2.164-7.546-2.1-3.08.592.036,3.834,1.3,4.765,3.271,2.62,7.131,4.242,10.958,5.769.207.081.42.153.623.247.321.157.072.688-.251.513l0,0" transform="translate(-193.182 -536.937)" fill="#45133e"/>
        <path id="Trazado_1321033" data-name="Trazado 1321033" d="M249.908,739.005c-4.744-1.776-9.582-3.677-13.613-6.886-5.307-4.06-2.957-6.629,2.809-5.375.314.105,1.006-.027.98.466a.285.285,0,0,1-.329.227c-.534-.1-1.07-.181-1.6-.255-1.294-.154-4.951-.719-4.116,1.662,1.211,2.258,3.648,3.573,5.668,4.96a53.334,53.334,0,0,0,6.349,3.069c1.326.582,2.658,1.138,4.033,1.586.337.117.163.675-.181.545" transform="translate(-178.142 -548.781)" fill="#45133e"/>
        <path id="Trazado_1321034" data-name="Trazado 1321034" d="M247.945,758.295a50.236,50.236,0,0,1-8.315-3.857,22.906,22.906,0,0,1-5.091-3.513c-1.955-1.746-4.33-5.7.189-5.336a.289.289,0,0,1-.033.576,3.377,3.377,0,0,0-1.289.049c-1.913.581.444,3.119,1.132,3.907a24.757,24.757,0,0,0,6.477,4.413c1.591.852,3.257,1.685,4.891,2.4.723.315,1.471.571,2.217.819.337.111.165.675-.179.545" transform="translate(-177.235 -563.241)" fill="#45133e"/>
        <path id="Trazado_1321035" data-name="Trazado 1321035" d="M308.233,799.643c-7.849-1.772-15.2-5.409-23.054-7.093-6.327-1.084-12.822-1.164-18.968-3.233-2.119-.637-12.319-4.307-9.319-7.444.293-.367,2.517-1.105,2.417-.2a.273.273,0,0,1-.318.191,2.385,2.385,0,0,0-1.751.46c-1.829,1.7,4.059,4.512,5.258,5,7.536,3.469,15.819,3.393,23.792,4.862,5.887,1.361,11.434,3.921,17.248,5.562,1.594.472,3.19.93,4.8,1.333a.29.29,0,0,1,.22.338.28.28,0,0,1-.327.227" transform="translate(-195.714 -590.191)" fill="#45133e"/>
        <path id="Trazado_1321036" data-name="Trazado 1321036" d="M331.3,706.093c-3.959-.536-7.412-2.891-10.514-5.357-1.4-.964-3.269-3.229-5.065-2.256-1.617,1.243-.23,3.891.474,5.318.211.406.491.764.734,1.146a.307.307,0,0,1,0,.259c-.441.593-.867-.673-1.126-.959-.833-1.574-1.788-3.477-1.174-5.291.638-1.616,2.69-1.548,3.876-.651,3.011,2.121,5.76,4.748,9.183,6.165,6.164,2.592,12.89.585,19.164-.491,11.57-2.146,23.424-4.688,35.2-3.008a41.75,41.75,0,0,1,8.681,2.27,20.8,20.8,0,0,1,1.927.885.292.292,0,0,1,.124.385.277.277,0,0,1-.375.128,21.344,21.344,0,0,0-3.517-1.441,44.073,44.073,0,0,0-11.64-2.142c-8.566-.307-17.115.953-25.51,2.6-6.77,1.072-13.543,3.255-20.447,2.441" transform="translate(-240.062 -527.06)" fill="#45133e"/>
        <path id="Trazado_1321037" data-name="Trazado 1321037" d="M570.88,359.528c3.129,1.333,4.447,5.246,3.892,8.52-1.067,6.208-7.256,11.254-13.352,10.81a15.643,15.643,0,0,1-3.554-.982.44.44,0,0,1-.233-.561.415.415,0,0,1,.187-.214c1.071-1.907,2.112-3.828,3.254-5.692,2.393-3.893,4.843-7.685,6.969-11.729-.189-1.189,2.285-.387,2.838-.153" transform="translate(-425.721 -271.243)" fill="#90493c"/>
        <path id="Trazado_1321038" data-name="Trazado 1321038" d="M422.662,186.2c.527.214.172.84.085,1.241q-.46,1.577-1,3.13a143.712,143.712,0,0,1-7.422,17.162c-5.775,11.632-14.806,24.275-28.892,23.244-13.143-.124-25.861-10.1-29.276-23.264-3.964-15.634,7.4-40.217,19.726-49.515,23.385-18.619,44.564,2.105,46.778,28" transform="translate(-271.307 -114.111)" fill="#a96358"/>
        <path id="Trazado_1321039" data-name="Trazado 1321039" d="M429.386,154.388c4.085,7.208,6.085,16.014,3.981,24.219-.185.7-1.378,4.814-2.234,5.381l-.013.029a.416.416,0,0,1-.577.14c-11.533-8.129-16-23.332-16.523-37.189-7.141,11.027-22.934,22.665-34.909,27.322a35.135,35.135,0,0,1-9.763,2.3.4.4,0,0,1-.067.054c-1.479.754-.958-6.9-.854-7.759,1.54-20.436,22.731-37.119,42-29.673a46.552,46.552,0,0,1,10.834,6.025,26.462,26.462,0,0,1,8.123,9.151" transform="translate(-281.154 -103.803)" fill="#45133e"/>
        <path id="Trazado_1321040" data-name="Trazado 1321040" d="M324.434,255.758c4.192,5.7,2.746,10.41.124,16.374-.573,1.355-1.143,2.718-1.692,4.082-.327.455-1.041.153-1.513.185-7.818-.786-14.48-7.962-12.635-16.334,1.518-8.27,10.64-11.522,15.717-4.307" transform="translate(-235.463 -190.199)" fill="#a96358"/>
        <path id="Trazado_1321041" data-name="Trazado 1321041" d="M343.048,282.189A6.623,6.623,0,0,1,346,275.934c.266-.225.621-.309.874-.551a2.081,2.081,0,0,0,.393-1.188,6.989,6.989,0,0,0-5.019-6.859,6.164,6.164,0,0,0-.623-.111c-.533-.071-.408-.947.129-.853,3.92.413,7.394,5.182,6.037,9.149a2.244,2.244,0,0,1-1.165,1.023,7.813,7.813,0,0,0-1.387,1.2,5.544,5.544,0,0,0-1.379,4.241.419.419,0,1,1-.812.206" transform="translate(-260.564 -201.226)" fill="#90493c"/>
        <path id="Trazado_1321042" data-name="Trazado 1321042" d="M497.244,342.133c-.59-.08-3.44-1.5-2.757-2.225a.417.417,0,0,1,.592,0,4.488,4.488,0,0,0,3.955,1.411,2.529,2.529,0,0,0,1.949-1.394,3.193,3.193,0,0,0,.269-1.251,32.036,32.036,0,0,1,.151-6.271c.117-.777,1.137-4.57,2.127-3.985.311.251.106.611-.092.855-1.551,2.472-1.527,5.483-1.361,8.3.437,3.213-1.814,5.231-4.834,4.56" transform="translate(-377.453 -248.056)" fill="#90493c"/>
        <path id="Trazado_1321043" data-name="Trazado 1321043" d="M444.136,303.13c-.2-.127-.415.066-.55.216a9,9,0,0,1-4.049,1.312,6.316,6.316,0,0,1-6.967-6.571c-.052-.48.256-1.077-.164-1.438-.7-.389-1.077-.176-1.254.312a5.959,5.959,0,0,1-2.229.688c-.132-.04-.364.054-.236.224a2.713,2.713,0,0,0,1.3.376,2.88,2.88,0,0,0,1.033-.079c.009.205.026.414.051.625-.462.3-.935.8-1.443.794-.182.065-.574-.1-.693.1a.1.1,0,0,0,0,.059c.192.255.617.188.9.245a4.084,4.084,0,0,0,1.411-.114,7.718,7.718,0,0,0,.227.847,7.285,7.285,0,0,0,6.355,4.8,8.031,8.031,0,0,0,6.079-1.89c.174-.088.447-.324.219-.5" transform="translate(-327.267 -223.953)" fill="#45133e"/>
        <path id="Trazado_1321044" data-name="Trazado 1321044" d="M557.9,352.323a5.741,5.741,0,0,1-.777-2.11c.271-.44.212-.858-.5-1.15-.518-.093-.791.512-1.184.771a5.877,5.877,0,0,1-9.032-1.181,8.694,8.694,0,0,1-1.366-3.882c.035-.2.058-.475-.157-.551-.267-.062-.287.291-.252.478a7.748,7.748,0,0,0,2.112,5.778,6.7,6.7,0,0,0,7.332,1.824,7.592,7.592,0,0,0,.773-.356,3.841,3.841,0,0,0,.736,1.139c.21.181.407.544.711.531a.1.1,0,0,0,.047-.034c.085-.216-.272-.408-.328-.586-.3-.382-.2-1.049-.24-1.585.173-.112.343-.229.5-.351a2.714,2.714,0,0,0,.541.83,2.48,2.48,0,0,0,1.045.753c.2-.009.139-.243.032-.318" transform="translate(-415.802 -260.038)" fill="#45133e"/>
        <path id="Trazado_1321045" data-name="Trazado 1321045" d="M465.1,263.48a1.642,1.642,0,0,1-.231,1.162,4.356,4.356,0,0,1-.965,1.108,9.158,9.158,0,0,1-1.387.971,14.434,14.434,0,0,1-2.713,1.223,12.045,12.045,0,0,1-2.868.617c-.185.014-.37.022-.558.022a5.11,5.11,0,0,1-.926-.079,2.058,2.058,0,0,1-1.128-.534,1.212,1.212,0,0,1-.326-.6,1.458,1.458,0,0,1,.045-.718,2.952,2.952,0,0,1,.708-1.106,7.333,7.333,0,0,1,1.233-1.022,10.7,10.7,0,0,1,1.008-.608.147.147,0,0,0,.017-.009,14.445,14.445,0,0,1,3.933-1.425,9.758,9.758,0,0,1,1.468-.189,4.852,4.852,0,0,1,1.5.133,1.542,1.542,0,0,1,1.194,1.058" transform="translate(-346.603 -198.142)" fill="#45133e"/>
        <path id="Trazado_1321046" data-name="Trazado 1321046" d="M583.32,307.658a8.541,8.541,0,0,1,.022,1.414,4.033,4.033,0,0,1-.248,1.225,1.383,1.383,0,0,1-.941.908.964.964,0,0,1-.214.022,1.647,1.647,0,0,1-.971-.39,4.83,4.83,0,0,1-1.045-1.2,11.212,11.212,0,0,1-.806-1.488c-.033-.07-.063-.137-.092-.207-.006-.009-.011-.02-.017-.032a16.144,16.144,0,0,1-.88-2.641c0-.023-.011-.045-.018-.067a.03.03,0,0,0,0-.013c-.063-.266-.12-.534-.168-.8a9.85,9.85,0,0,1-.165-2.988,2.623,2.623,0,0,1,.6-1.493,1.138,1.138,0,0,1,.645-.322,1.225,1.225,0,0,1,.662.112,2.977,2.977,0,0,1,1.037.86,7.579,7.579,0,0,1,.828,1.238,15.926,15.926,0,0,1,1.777,5.861" transform="translate(-441.082 -226.316)" fill="#45133e"/>
        <path id="Trazado_1321047" data-name="Trazado 1321047" d="M453.983,373.287c.093-.52.346-2.341,1.063-2.1a.436.436,0,0,1,.244.556c-1.487,2.658.811,5.595,3.419,6.017a3.341,3.341,0,0,0,1.085.021c.532-.092.664.772.126.856-2.908.379-6.111-2.229-5.937-5.354" transform="translate(-346.603 -280.4)" fill="#45133e"/>
        <g id="Grupo_1188307" data-name="Grupo 1188307" transform="translate(94.168 78.597)" opacity="0.5">
          <g id="Grupo_1188306" data-name="Grupo 1188306">
            <g id="Grupo_1188305" data-name="Grupo 1188305" clip-path="url(#clip-path-12)">
              <path id="Trazado_1321048" data-name="Trazado 1321048" d="M407.187,324.922a4.907,4.907,0,0,1-.222,3.119.152.152,0,0,1-.011.027v0a4.784,4.784,0,0,1-.908,1.4,4.542,4.542,0,0,1-2.837,1.419,4.244,4.244,0,0,1-.479.025,4.18,4.18,0,0,1-1-.117,4.832,4.832,0,0,1-1.444-.624,4.679,4.679,0,0,1-1.847-2.364,4.838,4.838,0,0,1-.255-1.115c0-.025-.009-.047-.011-.072a4.783,4.783,0,0,1,.055-1.308c.011-.065.022-.131.037-.2a4.763,4.763,0,0,1,1.135-2.216c.011-.011.024-.025.035-.034a4.627,4.627,0,0,1,.381-.369,4.5,4.5,0,0,1,2.842-1.092,4.562,4.562,0,0,1,2.944,1.022,4.8,4.8,0,0,1,1.59,2.5" transform="translate(-398.146 -321.402)" fill="#eb6670"/>
            </g>
          </g>
        </g>
        <g id="Grupo_1188310" data-name="Grupo 1188310" transform="translate(130.629 96.243)" opacity="0.5">
          <g id="Grupo_1188309" data-name="Grupo 1188309">
            <g id="Grupo_1188308" data-name="Grupo 1188308" clip-path="url(#clip-path-13)">
              <path id="Trazado_1321049" data-name="Trazado 1321049" d="M559.252,396.23a4.848,4.848,0,0,1-.242,1.558,6.238,6.238,0,0,1-.736,1.542,5.584,5.584,0,0,1-2.261,2.036,3.746,3.746,0,0,1-.742.247.007.007,0,0,1,0,0h-.007a3.033,3.033,0,0,1-.6.065,2.358,2.358,0,0,1-.682-.1,2.226,2.226,0,0,1-1.122-.788,2.9,2.9,0,0,1-.514-1.326,4.4,4.4,0,0,1,.1-1.608,6.139,6.139,0,0,1,.233-.761.008.008,0,0,0,0,0c0-.007.006-.013.009-.02l.033-.086s0,0,0-.007c.041-.1.085-.2.133-.3a6.373,6.373,0,0,1,.928-1.43c.02-.025.041-.05.061-.072s.015-.016.022-.025a5.82,5.82,0,0,1,1.1-.955,3.12,3.12,0,0,1,2.8-.482,2.251,2.251,0,0,1,1.161,1.081,3.312,3.312,0,0,1,.329,1.432" transform="translate(-552.303 -393.558)" fill="#eb6670"/>
            </g>
          </g>
        </g>
        <path id="Trazado_1321050" data-name="Trazado 1321050" d="M376.666,181.966c.644,2.264-2.155,2.9-3.79,2.757a13.692,13.692,0,0,1-3.677-.816c-.11-.045-.226-.082-.341-.121a22.55,22.55,0,0,1,1.908,3.268c.789,1.672,1.54,5.239-1.242,5.078-2.146-.687-3.274-3.274-3.84-5.611a18.824,18.824,0,0,1-.373,2.67c-.41,1.805-1.35,4.831-3.619,4.431-2.222-1.044-1.093-5.266.31-7.89a6.106,6.106,0,0,0-.594.525,8.951,8.951,0,0,1-5.114,2.316c-2.129-.257-1.737-2.481-.626-3.733a9.809,9.809,0,0,1,3.777-2.672c-.143-.008-.288-.018-.429-.027a14.533,14.533,0,0,1-3.011-.505,5.079,5.079,0,0,1-2.2-1c-1.133-.879-.5-2.542.616-3.1a6.02,6.02,0,0,1,4.52-.12,13.155,13.155,0,0,1,1.438.523,10.692,10.692,0,0,1-2.182-3.575c-1.129-3.688,1.538-5.668,3.846-2.186a18.429,18.429,0,0,1,2.074,4.036,9.759,9.759,0,0,1,1.162-4.615c.792-1.741,3.258-3.767,4.135-.967a5.818,5.818,0,0,1-.251,2.787,19.678,19.678,0,0,1-1.122,3.014,10.622,10.622,0,0,1,1.561-1.409,5.166,5.166,0,0,1,3.59-1.457c1.649.158,1.852,1.9.905,3.053a11.113,11.113,0,0,1-3.738,2.853c-.231.118-.464.249-.7.378a11.294,11.294,0,0,1,1.445-.072c1.8-.057,4.57.468,5.562,2.18" transform="translate(-269.668 -127.863)" fill="#fff"/>
        <path id="Trazado_1321051" data-name="Trazado 1321051" d="M398.809,212.652a2.029,2.029,0,0,1-.033,1.048,1.924,1.924,0,0,1-.584.9,1.809,1.809,0,0,1-1.56.412,1.892,1.892,0,0,1-1.091-.684.249.249,0,0,1-.026-.028,2.225,2.225,0,0,1-.149-.236l0-.009-.007-.013c-.014-.025-.027-.052-.04-.079a.351.351,0,0,0-.016-.036.016.016,0,0,0,0-.008.092.092,0,0,0-.007-.015,2.012,2.012,0,0,1-.153-.6c0-.033,0-.066-.006-.1s0-.081,0-.121a1.816,1.816,0,0,1,.042-.377,1.505,1.505,0,0,1,.049-.193c.013-.037.026-.073.04-.111s.032-.079.05-.12l.017-.042a.327.327,0,0,1,.027-.051,2.032,2.032,0,0,1,.147-.239,1.864,1.864,0,0,1,.866-.659,1.819,1.819,0,0,1,1.255,0,1.928,1.928,0,0,1,1.188,1.355" transform="translate(-301.672 -159.541)" fill="#efa444"/>
      </g>
    </g>
  </g>
</svg>
