<svg xmlns="http://www.w3.org/2000/svg" xmlns:xlink="http://www.w3.org/1999/xlink" width="62.7" height="62.7" viewBox="0 0 62.7 62.7">
  <defs>
    <clipPath id="clip-path">
      <rect id="Rect치ngulo_410970" data-name="Rect치ngulo 410970" width="45.08" height="41.039" fill="#f36b35"/>
    </clipPath>
  </defs>
  <g id="Grupo_1188577" data-name="Grupo 1188577" transform="translate(-373.873 -1505.282)">
    <path id="Trazado_824488" data-name="Trazado 824488" d="M31.35,0A31.35,31.35,0,1,1,0,31.35,31.35,31.35,0,0,1,31.35,0Z" transform="translate(373.873 1505.282)" fill="#fff"/>
    <g id="Grupo_1188390" data-name="Grupo 1188390" transform="translate(381.873 1516.851)">
      <g id="Grupo_1188389" data-name="Grupo 1188389" clip-path="url(#clip-path)">
        <path id="Trazado_1321197" data-name="Trazado 1321197" d="M.058,16.833C1.279,1.3,18.954-2.244,31.491,1.216c10.54,2.909,15.562,12.121,12.874,22.772C41.345,35.95,27.909,38.311,17.318,37.062A14.741,14.741,0,0,1,5.1,40.911c-.123-.016-.151.047-.129-.131A20.1,20.1,0,0,0,8.21,34.027a16.26,16.26,0,0,1-7.3-9.219,22.811,22.811,0,0,1-.854-4.285,29.31,29.31,0,0,1,0-3.691M11.114,36.868A10.872,10.872,0,0,0,16,33.281l4.372.51c10.8.524,21.373-2.951,21.106-15.6C41.2,4.928,27.339,2.166,16.626,4.119,7.453,5.791,2.4,11.9,3.758,21.432a13.069,13.069,0,0,0,8.583,10.7Z" transform="translate(0 0)" fill="#f36b35"/>
        <path id="Trazado_1321198" data-name="Trazado 1321198" d="M148.816,83.135h-3.51a8.481,8.481,0,0,1,1.973-5.45c1.557-1.829,4.533-3,2.869-6.122a3.524,3.524,0,0,0-6.6,1.642h-3.51a7.008,7.008,0,1,1,11.584,5.318c-.367.329-.83.586-1.188.919a5.166,5.166,0,0,0-1.621,3.693" transform="translate(-124.627 -58.921)" fill="#f36b35"/>
        <rect id="Rect치ngulo_410969" data-name="Rect치ngulo 410969" width="3.51" height="3.603" transform="translate(20.767 26.762)" fill="#f36b35"/>
      </g>
    </g>
  </g>
</svg>
