<svg id="Grupo_1188376" data-name="Grupo 1188376" xmlns="http://www.w3.org/2000/svg" xmlns:xlink="http://www.w3.org/1999/xlink" width="231.614" height="215.579" viewBox="0 0 231.614 215.579">
  <defs>
    <clipPath id="clip-path">
      <rect id="Rect치ngulo_410963" data-name="Rect치ngulo 410963" width="231.614" height="215.579" fill="none"/>
    </clipPath>
    <clipPath id="clip-path-3">
      <rect id="Rect치ngulo_410961" data-name="Rect치ngulo 410961" width="12.59" height="12.586" fill="none"/>
    </clipPath>
  </defs>
  <g id="Grupo_1188375" data-name="Grupo 1188375" clip-path="url(#clip-path)">
    <g id="Grupo_1188374" data-name="Grupo 1188374">
      <g id="Grupo_1188373" data-name="Grupo 1188373" clip-path="url(#clip-path)">
        <path id="Trazado_1321152" data-name="Trazado 1321152" d="M456.657,259.715a28.984,28.984,0,0,0-6.925-4.409,36.275,36.275,0,0,0-.957-6.869c.057-.052.116-.1.174-.156,2.676-2.689,6.4-5.413,6.767-9.459-.141-1.85-1.322-3.426-2.193-5.006-1.754-2.83-4.2-6.2-7.883-6.146a29.329,29.329,0,0,0-8.221,1.853,38.2,38.2,0,0,0-4.977-3.738c-.317-.2-.641-.385-.964-.574.029-3.714.6-8.077-1.907-11.1-1.408-1.21-3.358-1.487-5.088-1.987-3.245-.761-7.356-1.412-9.922,1.23a29.119,29.119,0,0,0-4.46,7.029,35.277,35.277,0,0,0-3.584.474c-.785.148-1.566.326-2.343.521-.12-.133-.237-.269-.357-.4-2.679-2.683-5.393-6.414-9.439-6.8-1.846.133-3.426,1.316-5.009,2.179-2.837,1.747-6.212,4.183-6.17,7.866a30.574,30.574,0,0,0,2.048,8.839c-.084.1-.173.193-.256.292a37.362,37.362,0,0,0-2.758,3.772c-.024.029-.043.06-.065.09-.608-.037-1.215-.078-1.823-.107-3.793,0-8.35-.719-11.481,1.871-1.213,1.4-1.494,3.351-2,5.081-.768,3.241-1.432,7.353,1.2,9.926a32.229,32.229,0,0,0,8.414,5.14,36.513,36.513,0,0,0,.638,4.918c-.461.364-.924.725-1.381,1.094-2.826,2.529-6.705,5.03-7.311,9.045.031,1.853,1.12,3.5,1.895,5.125,1.586,2.929,3.83,6.434,7.507,6.6a33.935,33.935,0,0,0,10.406-2,37.158,37.158,0,0,0,3.83,3.076c-.046.768-.092,1.536-.127,2.3.01,3.789-.7,8.349,1.9,11.474,1.4,1.206,3.357,1.484,5.088,1.987,3.245.761,7.356,1.412,9.922-1.23a30.981,30.981,0,0,0,4.872-7.911,35.972,35.972,0,0,0,6.892-.773c.127.141.248.287.376.427,2.686,2.672,5.413,6.4,9.459,6.767,1.847-.141,3.423-1.326,5-2.193,2.83-1.754,6.2-4.2,6.146-7.884a28.769,28.769,0,0,0-1.747-7.921,37.712,37.712,0,0,0,4.224-5.43c.12.006.24.014.36.02,3.793-.01,8.353.7,11.474-1.9,1.209-1.4,1.483-3.357,1.987-5.088.76-3.241,1.411-7.356-1.23-9.922m-34.046,6.9c-.2.213-.408.428-.624.634q-.226.216-.462.421s-.007,0-.01.007l-.083.072a15.3,15.3,0,0,1-1.278.959,14.618,14.618,0,0,1-1.593.9,15.551,15.551,0,0,1-1.517.617s-.014.007-.031.014l-.031.01a13.254,13.254,0,0,1-5.277.627,14.883,14.883,0,0,1-1.785-.267,15.509,15.509,0,0,1-1.73-.507,15.861,15.861,0,0,1-1.476-.644h0a.574.574,0,0,0-.065-.034,16.493,16.493,0,0,1-1.422-.857c-.442-.312-.9-.672-1.34-1.055a15.774,15.774,0,0,1-1.288-1.326c-.3-.36-.627-.8-.939-1.257a15.579,15.579,0,0,1-.874-1.542l-.014-.027a.159.159,0,0,1-.017-.034,15.482,15.482,0,0,1-.593-1.46l-.014-.034a.194.194,0,0,0-.007-.024,14.74,14.74,0,0,1-.428-1.627,14.453,14.453,0,0,1-.237-1.884,14.8,14.8,0,0,1,.021-1.73,15.042,15.042,0,0,1,.288-1.915,14.192,14.192,0,0,1,.47-1.6l.01-.038s.007-.014.014-.031c.161-.425.339-.843.538-1.251.044-.089.093-.178.13-.267.014-.024.024-.048.038-.072s.068-.13.12-.219c.021-.041.044-.082.068-.123s.038-.069.055-.1l.01-.021c.021-.031.038-.062.058-.1.168-.288.349-.565.534-.84l.011-.014.02-.031a13.4,13.4,0,0,1,2.3-2.529.136.136,0,0,0,.024-.024l.027-.021a16.083,16.083,0,0,1,1.305-.966c.4-.257.884-.535,1.384-.788a15.984,15.984,0,0,1,1.7-.692,15.557,15.557,0,0,1,1.61-.425,13.425,13.425,0,0,1,3.693-.205,15.253,15.253,0,0,1,1.71.257,14.893,14.893,0,0,1,1.8.528c.5.192.983.4,1.463.641.024.01.045.024.069.034a16.34,16.34,0,0,1,1.524.932,14.86,14.86,0,0,1,1.209.963,14.466,14.466,0,0,1,1.186,1.2,16.1,16.1,0,0,1,1.069,1.415,15.07,15.07,0,0,1,.853,1.5,13.31,13.31,0,0,1,1.089,3.272,16.744,16.744,0,0,1,.233,1.939,15.6,15.6,0,0,1-.027,1.579,14.847,14.847,0,0,1-.267,1.86,15.548,15.548,0,0,1-.476,1.665,15.887,15.887,0,0,1-.737,1.679,15.26,15.26,0,0,1-.918,1.508,15.1,15.1,0,0,1-1.079,1.336" transform="translate(-226.944 -131.056)" fill="#efa444"/>
        <path id="Trazado_1321153" data-name="Trazado 1321153" d="M442.431,315.173a28.45,28.45,0,0,1-15.329-4.591,28.055,28.055,0,0,1-7.788-7.545,28.331,28.331,0,0,1-4.793-20.392,28.014,28.014,0,0,1,3.381-9.816l.039-.067a28.028,28.028,0,0,1,2.217-3.322l.012-.016.062-.079.057-.073.124-.156.049-.062.064-.08.016-.018a28.719,28.719,0,0,1,7.8-6.669c.56-.328,1.133-.628,1.692-.908a27.023,27.023,0,0,1,5.04-1.912c.928-.247,1.863-.449,2.813-.617a27.32,27.32,0,0,1,2.8-.326,28.045,28.045,0,0,1,10.94,1.425,29.014,29.014,0,0,1,5.023,2.258,28.588,28.588,0,0,1,4.485,3.179l.055.051a3.722,3.722,0,0,1,.285.251l.088.078.267.247c.157.144.312.288.462.435.326.318.644.644.959.976a26.3,26.3,0,0,1,1.792,2.11,25.3,25.3,0,0,1,1.538,2.21,28.314,28.314,0,0,1,3.926,10.268,28.37,28.37,0,0,1-.291,11.073,24.3,24.3,0,0,1-.733,2.638c-.295.86-.606,1.71-.98,2.538a28.43,28.43,0,0,1-2.673,4.756,29.272,29.272,0,0,1-3.553,4.176,28.532,28.532,0,0,1-4.32,3.43,27.966,27.966,0,0,1-10.121,4.049,29.073,29.073,0,0,1-5.264.5h-.149m2.017-1.38a31.5,31.5,0,0,0,3.573-.492,26.791,26.791,0,0,0,6.674-2.314c.962-.5,1.888-1.033,2.795-1.618a27.239,27.239,0,0,0,5.21-4.495,27.045,27.045,0,0,0,5.393-9.127,30.808,30.808,0,0,0,.939-3.351c0-.024.01-.048.014-.072,0,0,0-.009,0-.006a32.4,32.4,0,0,0,.482-3.366c0-.016,0-.032,0-.048v-.019c.042-.614.065-1.226.078-1.841.01-.668-.021-1.333-.057-1.99a26.952,26.952,0,0,0-1.483-7.235c-.371-1.019-.789-2.008-1.259-2.984a31.55,31.55,0,0,0-1.827-3.148,32.563,32.563,0,0,0-2-2.607l-.051-.057,0,0,0,0a27.685,27.685,0,0,0-2.278-2.309c-.089-.08-.194-.159-.28-.25l-.029-.024a32.079,32.079,0,0,0-2.654-2.041c-.921-.607-1.869-1.165-2.8-1.653l-.061-.03,0,0a31.133,31.133,0,0,0-3.44-1.458h0a30.521,30.521,0,0,0-3.458-.943,26.743,26.743,0,0,0-7.125-.481c-.6.044-1.2.1-1.8.179-.623.076-1.24.19-1.857.311a26.82,26.82,0,0,0-6.5,2.215c-.093.045-.186.091-.264.133a27.322,27.322,0,0,0-2.754,1.6,29.806,29.806,0,0,0-2.885,2.2,26.762,26.762,0,0,0-4.311,4.795l-.077.111-.062.089-.018.026-.064.094a28.813,28.813,0,0,0-1.779,3.009l0,.006q-.2.395-.383.795-.5,1.088-.918,2.215l-.022.06c-.012.033-.024.066-.03.086a27.163,27.163,0,0,0-1.5,7.263,27.016,27.016,0,0,0,.49,7.216l0,.012,0,.011a30.112,30.112,0,0,0,.924,3.379,31.014,31.014,0,0,0,1.4,3.33,30.648,30.648,0,0,0,1.714,2.932,31.614,31.614,0,0,0,2.006,2.625,29.659,29.659,0,0,0,2.6,2.611,26.756,26.756,0,0,0,5.622,3.807l.048.024.017.008a31.97,31.97,0,0,0,3.022,1.3,27.081,27.081,0,0,0,11.01,1.522" transform="translate(-256.719 -160.182)" fill="#cf842f"/>
        <path id="Trazado_1321154" data-name="Trazado 1321154" d="M453.023,319.188a22.121,22.121,0,0,1-11.92-3.57,21.822,21.822,0,0,1-6.056-5.867,22.035,22.035,0,0,1-3.727-15.858,21.781,21.781,0,0,1,2.63-7.633l.03-.052a21.852,21.852,0,0,1,1.724-2.584l.01-.012.048-.062.045-.057.1-.121.038-.048.05-.062.013-.014a22.345,22.345,0,0,1,6.068-5.186c.436-.255.881-.488,1.316-.706a21.024,21.024,0,0,1,3.919-1.487c.722-.192,1.449-.349,2.187-.479a21.228,21.228,0,0,1,2.179-.253,21.814,21.814,0,0,1,8.507,1.108A22.534,22.534,0,0,1,464.086,278a22.218,22.218,0,0,1,3.487,2.472l.043.04a2.766,2.766,0,0,1,.222.2l.069.06.208.192c.123.112.243.224.36.338q.38.371.746.759a20.361,20.361,0,0,1,1.394,1.641,19.56,19.56,0,0,1,1.2,1.719,22.011,22.011,0,0,1,3.053,7.985,22.063,22.063,0,0,1-.226,8.611,18.9,18.9,0,0,1-.57,2.052c-.229.668-.471,1.329-.762,1.974a22.1,22.1,0,0,1-2.078,3.7,22.772,22.772,0,0,1-2.763,3.248,22.189,22.189,0,0,1-3.36,2.667,21.742,21.742,0,0,1-7.87,3.149,22.633,22.633,0,0,1-4.094.387h-.116m1.568-1.073a20.977,20.977,0,0,0,7.969-2.183c.748-.385,1.468-.8,2.173-1.258a21.2,21.2,0,0,0,4.051-3.5,21.03,21.03,0,0,0,4.194-7.1,23.933,23.933,0,0,0,.73-2.606l.011-.056s0-.007,0,0a25.166,25.166,0,0,0,.375-2.617c0-.013,0-.025,0-.038v-.015c.032-.478.05-.953.06-1.432.008-.519-.016-1.036-.045-1.548a20.942,20.942,0,0,0-1.153-5.626,25.157,25.157,0,0,0-.979-2.32,24.566,24.566,0,0,0-1.421-2.448,25.431,25.431,0,0,0-1.556-2.027l-.04-.044,0,0,0,0a21.581,21.581,0,0,0-1.771-1.8c-.07-.062-.151-.123-.218-.194l-.022-.019a25.05,25.05,0,0,0-2.064-1.587c-.716-.472-1.453-.906-2.175-1.285l-.048-.024,0,0a24.169,24.169,0,0,0-2.675-1.134h0a23.743,23.743,0,0,0-2.689-.733,20.821,20.821,0,0,0-5.541-.374c-.467.034-.93.081-1.4.14-.485.059-.965.148-1.444.242a23.869,23.869,0,0,0-2.6.7,24.235,24.235,0,0,0-2.456,1.018c-.072.035-.144.071-.205.1a21.339,21.339,0,0,0-2.142,1.241,23.3,23.3,0,0,0-2.243,1.713,20.8,20.8,0,0,0-3.352,3.729l-.06.086-.048.07-.014.02-.05.073a22.389,22.389,0,0,0-1.384,2.34l0,0q-.153.307-.3.618-.391.846-.714,1.723l-.017.046c-.009.025-.019.051-.024.067a21.105,21.105,0,0,0-1.169,5.648,21.009,21.009,0,0,0,.381,5.611l0,.01,0,.008a23.452,23.452,0,0,0,.718,2.628,24.147,24.147,0,0,0,1.092,2.59,23.737,23.737,0,0,0,1.333,2.28,24.389,24.389,0,0,0,1.56,2.042,22.993,22.993,0,0,0,2.019,2.03,20.81,20.81,0,0,0,4.372,2.96l.037.018.013.006a24.763,24.763,0,0,0,2.35,1.009,21.061,21.061,0,0,0,8.562,1.184" transform="translate(-267.172 -170.487)" fill="#cf842f"/>
        <path id="Trazado_1321155" data-name="Trazado 1321155" d="M50.122,39.409a13,13,0,0,0,.023-1.321,13.993,13.993,0,0,0-.2-1.622,11.114,11.114,0,0,0-.911-2.737,12.574,12.574,0,0,0-.714-1.259,13.485,13.485,0,0,0-.894-1.184,12.2,12.2,0,0,0-.992-1.006,12.464,12.464,0,0,0-1.012-.806,13.623,13.623,0,0,0-1.275-.779c-.02-.008-.037-.02-.057-.029-.4-.2-.805-.376-1.224-.536a12.506,12.506,0,0,0-1.508-.441,12.781,12.781,0,0,0-1.43-.215,11.269,11.269,0,0,0-3.09.172A12.952,12.952,0,0,0,35.5,28a13.272,13.272,0,0,0-1.425.579c-.418.212-.822.444-1.158.659a13.464,13.464,0,0,0-1.092.808l-.023.017a.124.124,0,0,1-.02.02A11.2,11.2,0,0,0,29.852,32.2l-.017.026-.008.011c-.155.229-.307.462-.447.7-.017.029-.032.054-.049.08l-.008.017c-.014.026-.032.054-.046.083s-.04.069-.057.1c-.043.075-.083.152-.1.183s-.02.04-.032.06c-.032.075-.072.149-.109.224-.166.341-.315.69-.45,1.046-.006.014-.011.026-.011.026l-.009.032a11.986,11.986,0,0,0-.393,1.341,12.637,12.637,0,0,0-.241,1.6,12.427,12.427,0,0,0-.017,1.448,12.092,12.092,0,0,0,.2,1.576,12.32,12.32,0,0,0,.358,1.361.121.121,0,0,1,.006.02l.012.029a12.9,12.9,0,0,0,.5,1.221.132.132,0,0,0,.014.029l.012.023a12.88,12.88,0,0,0,.731,1.29c.261.384.536.751.785,1.052A13.181,13.181,0,0,0,31.546,46.9c.37.321.751.622,1.121.883a13.744,13.744,0,0,0,1.189.716.533.533,0,0,1,.054.029h0a13.27,13.27,0,0,0,1.235.539,13,13,0,0,0,1.448.424,12.538,12.538,0,0,0,1.493.224A11.1,11.1,0,0,0,41,49.569a13.451,13.451,0,0,0,1.5-.384l.026-.009c.014-.006.025-.009.025-.011a13.042,13.042,0,0,0,1.27-.516,12.243,12.243,0,0,0,1.333-.757,12.852,12.852,0,0,0,1.069-.8l.069-.06s.006,0,.008-.006q.2-.172.387-.352c.181-.172.352-.352.522-.53a12.634,12.634,0,0,0,.9-1.118,12.8,12.8,0,0,0,.768-1.261,13.278,13.278,0,0,0,.616-1.4,13.092,13.092,0,0,0,.4-1.393,12.442,12.442,0,0,0,.224-1.556m25.572.96c2.21,2.147,1.665,5.589,1.029,8.3-.421,1.448-.651,3.081-1.662,4.256-2.611,2.175-6.426,1.585-9.6,1.594l-.3-.014a31.31,31.31,0,0,1-3.534,4.54,24.072,24.072,0,0,1,1.459,6.627c.043,3.078-2.775,5.127-5.142,6.595-1.321.725-2.64,1.717-4.184,1.835-3.385-.31-5.667-3.425-7.914-5.661-.1-.114-.209-.229-.31-.344a30.05,30.05,0,0,1-5.772.645,25.873,25.873,0,0,1-4.073,6.607c-2.147,2.21-5.586,1.665-8.3,1.029-1.448-.421-3.081-.654-4.256-1.662-2.175-2.614-1.585-6.429-1.594-9.6.029-.645.063-1.287.106-1.929a30.563,30.563,0,0,1-3.2-2.571,28.393,28.393,0,0,1-8.71,1.671c-3.075-.137-4.953-3.07-6.28-5.52C2.813,55.4,1.9,54.029,1.876,52.478c.507-3.359,3.752-5.451,6.116-7.567q.571-.464,1.149-.914a30.606,30.606,0,0,1-.536-4.119,26.993,26.993,0,0,1-7.031-4.3c-2.2-2.152-1.645-5.592-1-8.3.427-1.447.662-3.078,1.677-4.25,2.619-2.167,6.432-1.565,9.6-1.565.507.026,1.017.051,1.525.086a.683.683,0,0,1,.055-.071,31.275,31.275,0,0,1,2.307-3.156c.068-.08.138-.163.209-.243a25.614,25.614,0,0,1-1.708-7.395C14.206,7.6,17.029,5.565,19.4,4.1c1.324-.722,2.646-1.711,4.19-1.823,3.385.321,5.655,3.443,7.9,5.687.1.109.2.218.3.33.651-.164,1.307-.307,1.963-.43a29.339,29.339,0,0,1,3-.4A24.367,24.367,0,0,1,40.477,1.59c2.146-2.21,5.586-1.665,8.3-1.029,1.448.418,3.078.651,4.256,1.662,2.1,2.522,1.619,6.171,1.6,9.275.272.158.539.321.805.487A31.92,31.92,0,0,1,59.6,15.107a24.517,24.517,0,0,1,6.873-1.545c3.078-.043,5.127,2.774,6.6,5.142.728,1.321,1.717,2.64,1.834,4.187-.31,3.385-3.422,5.664-5.661,7.913-.049.043-.1.089-.146.132A30.232,30.232,0,0,1,69.9,36.68a24.331,24.331,0,0,1,5.79,3.689" transform="translate(0 0)" fill="#7985bc"/>
        <path id="Trazado_1321156" data-name="Trazado 1321156" d="M90.336,71.822c.006-.433-.014-.866-.037-1.293a17.451,17.451,0,0,0-.966-4.709c-.241-.662-.513-1.3-.817-1.94a17.642,17.642,0,0,0-2.491-3.743L85.99,60.1a17.479,17.479,0,0,0-1.482-1.5c-.057-.054-.126-.1-.181-.164a.067.067,0,0,1-.02-.017,21.416,21.416,0,0,0-1.725-1.327c-.6-.4-1.218-.757-1.82-1.075a.231.231,0,0,1-.04-.02h0a20.006,20.006,0,0,0-2.238-.949,19.617,19.617,0,0,0-2.247-.613A17.4,17.4,0,0,0,71.6,54.12c-.392.029-.779.066-1.169.117s-.805.123-1.207.2a20.133,20.133,0,0,0-2.17.59A20.367,20.367,0,0,0,65,55.88c-.06.029-.12.06-.172.086A17.905,17.905,0,0,0,63.032,57a20.2,20.2,0,0,0-1.874,1.433,17.516,17.516,0,0,0-2.806,3.121c-.017.023-.034.049-.049.072l-.043.057a.064.064,0,0,1-.011.017c-.014.023-.029.046-.04.06a18.763,18.763,0,0,0-1.158,1.958l0,.006c-.083.172-.166.344-.246.516-.218.473-.418.951-.6,1.441-.006.014-.009.026-.014.04s-.014.04-.02.054a19.157,19.157,0,0,0-.662,2.387,18.891,18.891,0,0,0-.315,2.339,17.663,17.663,0,0,0,.318,4.692.01.01,0,0,0,0,.009v.009a17.47,17.47,0,0,0,1.516,4.362,19.6,19.6,0,0,0,1.115,1.909,20.656,20.656,0,0,0,1.3,1.708,19.262,19.262,0,0,0,1.691,1.7A17.274,17.274,0,0,0,64.8,87.368l.032.017.011.006a21.3,21.3,0,0,0,1.964.843,17.836,17.836,0,0,0,4.723.992,20.447,20.447,0,0,0,2.442,0,21.188,21.188,0,0,0,2.324-.321,17.425,17.425,0,0,0,4.339-1.5c.628-.324,1.23-.673,1.82-1.055a20.677,20.677,0,0,0,1.834-1.393,21.22,21.22,0,0,0,1.554-1.53,19.723,19.723,0,0,0,1.5-1.923,20.162,20.162,0,0,0,1.078-1.829,19.893,19.893,0,0,0,.932-2.187,19.018,19.018,0,0,0,.611-2.178.276.276,0,0,0,.011-.046v-.006a21.253,21.253,0,0,0,.313-2.19c0-.009,0-.02,0-.032V73.02c.029-.4.043-.8.052-1.2m.587-3.27a18.45,18.45,0,0,1-.189,7.2,15.493,15.493,0,0,1-.476,1.717c-.192.559-.4,1.112-.639,1.651a18.292,18.292,0,0,1-1.737,3.092,18.818,18.818,0,0,1-2.313,2.717,18.464,18.464,0,0,1-2.809,2.233A18.178,18.178,0,0,1,76.174,89.8a18.811,18.811,0,0,1-3.422.324h-.1a18.334,18.334,0,0,1-3.4-.338,18.6,18.6,0,0,1-6.566-2.648,18.239,18.239,0,0,1-5.067-4.91A18.432,18.432,0,0,1,54.5,68.961a18.188,18.188,0,0,1,2.2-6.386.315.315,0,0,1,.023-.043,18.2,18.2,0,0,1,1.445-2.161.015.015,0,0,1,.006-.011c.014-.017.029-.035.04-.052a.591.591,0,0,0,.037-.049c.029-.032.054-.066.083-.1a.372.372,0,0,1,.032-.04c.014-.017.026-.035.04-.052a.036.036,0,0,1,.011-.011,18.661,18.661,0,0,1,5.076-4.34c.364-.215.737-.407,1.1-.591a17.628,17.628,0,0,1,3.279-1.244c.6-.16,1.213-.292,1.829-.4a18.46,18.46,0,0,1,8.942.716,18.877,18.877,0,0,1,3.267,1.468,18.525,18.525,0,0,1,2.918,2.069l.034.032c.06.054.129.106.186.163.017.017.037.034.057.051.057.054.115.106.172.16.1.095.2.186.3.284.212.206.421.419.625.633a17.687,17.687,0,0,1,1.167,1.373,17.214,17.214,0,0,1,1,1.439,18.437,18.437,0,0,1,2.554,6.681" transform="translate(-33.653 -32.986)" fill="#4c60b0"/>
        <path id="Trazado_1321157" data-name="Trazado 1321157" d="M86.53,63.228c.009-.559-.017-1.115-.049-1.662a22.7,22.7,0,0,0-1.238-6.053c-.313-.851-.662-1.68-1.055-2.5a26.821,26.821,0,0,0-1.528-2.634c-.527-.762-1.092-1.5-1.674-2.181-.014-.014-.029-.031-.043-.046v0a23.8,23.8,0,0,0-1.906-1.932c-.075-.066-.16-.132-.235-.206l-.023-.023a26.307,26.307,0,0,0-2.221-1.705c-.768-.508-1.562-.975-2.339-1.384-.017-.009-.035-.014-.052-.023l0,0a25.814,25.814,0,0,0-2.875-1.218,25.434,25.434,0,0,0-2.892-.791,26.862,26.862,0,0,0-2.932-.4,26.065,26.065,0,0,0-3.03,0c-.5.037-1,.086-1.5.149-.522.066-1.037.161-1.553.261a26.048,26.048,0,0,0-2.792.757,25.529,25.529,0,0,0-2.643,1.1c-.078.037-.155.075-.221.109a22.873,22.873,0,0,0-2.3,1.336,25.6,25.6,0,0,0-2.413,1.843,24.41,24.41,0,0,0-1.995,1.978A23.889,23.889,0,0,0,45.4,50.03l-.066.092c-.017.026-.034.051-.052.075a.086.086,0,0,0-.014.023l-.055.078a24.569,24.569,0,0,0-1.487,2.519l0,0c-.109.221-.218.444-.321.665-.278.608-.536,1.224-.768,1.854-.006.017-.011.034-.017.049s-.02.057-.026.071a22.587,22.587,0,0,0-1.255,9.118,25.277,25.277,0,0,0,.407,3c0,.006,0,.008,0,.011v.009a25.328,25.328,0,0,0,.774,2.826,22.643,22.643,0,0,0,2.608,5.239,25.848,25.848,0,0,0,1.679,2.2,24.824,24.824,0,0,0,2.173,2.184,25.922,25.922,0,0,0,2.084,1.628,24.861,24.861,0,0,0,2.62,1.556.3.3,0,0,0,.04.02l.014.008a26.49,26.49,0,0,0,2.528,1.084,22.874,22.874,0,0,0,6.073,1.275,22.447,22.447,0,0,0,6.128-.413,22.626,22.626,0,0,0,5.583-1.935q1.2-.623,2.336-1.356a25.684,25.684,0,0,0,2.359-1.794,26.446,26.446,0,0,0,2-1.966,25.053,25.053,0,0,0,1.926-2.473,22.693,22.693,0,0,0,2.585-5.162,25.807,25.807,0,0,0,.785-2.8c0-.02.009-.04.011-.057v-.006a26.5,26.5,0,0,0,.4-2.818c0-.011,0-.025,0-.04V64.77c.034-.516.054-1.026.066-1.542m.757-4.208a23.728,23.728,0,0,1-.244,9.264,20.271,20.271,0,0,1-.613,2.207c-.246.719-.507,1.43-.82,2.124a23.771,23.771,0,0,1-2.235,3.978A24.519,24.519,0,0,1,80.4,80.087a23.874,23.874,0,0,1-3.614,2.869,23.394,23.394,0,0,1-8.467,3.388,24.176,24.176,0,0,1-4.4.419c-.043,0-.083,0-.126,0A23.794,23.794,0,0,1,50.97,82.918a23.468,23.468,0,0,1-6.515-6.311,23.7,23.7,0,0,1-4.01-17.059,23.437,23.437,0,0,1,2.829-8.211.572.572,0,0,0,.032-.054A24.012,24.012,0,0,1,45.16,48.5c.006,0,.008-.009.011-.011l.051-.069c.017-.02.032-.04.049-.06l.1-.129c.014-.017.026-.034.04-.051s.037-.046.054-.069c.006,0,.008-.009.014-.014a24.04,24.04,0,0,1,6.526-5.58c.47-.272.949-.525,1.416-.76a22.648,22.648,0,0,1,4.216-1.6c.777-.206,1.559-.375,2.353-.516a22.937,22.937,0,0,1,2.345-.272,23.464,23.464,0,0,1,9.152,1.192,24.247,24.247,0,0,1,4.2,1.889,23.871,23.871,0,0,1,3.752,2.66l.046.043a2.862,2.862,0,0,1,.238.212c.026.02.049.043.075.063l.224.206c.132.121.261.241.387.364.272.267.539.539.8.817a21.928,21.928,0,0,1,1.5,1.765A21,21,0,0,1,84,50.431a23.683,23.683,0,0,1,3.285,8.59" transform="translate(-24.909 -24.364)" fill="#4c60b0"/>
        <path id="Trazado_1321158" data-name="Trazado 1321158" d="M95.759,350.068A14.961,14.961,0,0,0,95.1,348.7a16.149,16.149,0,0,0-1.043-1.564A12.812,12.812,0,0,0,91.7,344.8a14.437,14.437,0,0,0-1.386-.921,15.477,15.477,0,0,0-1.533-.751,14.081,14.081,0,0,0-1.54-.518,14.448,14.448,0,0,0-1.457-.3,15.648,15.648,0,0,0-1.714-.138c-.025,0-.049,0-.074,0-.514.005-1.021.033-1.534.086a14.375,14.375,0,0,0-1.776.33,14.73,14.73,0,0,0-1.579.522,12.949,12.949,0,0,0-3.082,1.781,14.98,14.98,0,0,0-1.2,1.064,15.352,15.352,0,0,0-1.161,1.334c-.319.435-.613.883-.846,1.278a15.446,15.446,0,0,0-.7,1.4c-.006.011-.009.019-.015.03a.128.128,0,0,1-.01.031,12.859,12.859,0,0,0-.878,3.171c0,.012,0,.024,0,.035l0,.016c-.04.316-.075.633-.094.953,0,.038,0,.072-.008.108v.022c0,.034,0,.072,0,.109s-.005.092,0,.136c-.006.1-.006.2-.008.24s0,.052,0,.078c.006.093,0,.19,0,.286.006.436.035.873.081,1.307,0,.018,0,.032,0,.032l.008.037a13.787,13.787,0,0,0,.294,1.58,14.449,14.449,0,0,0,.585,1.769,14.162,14.162,0,0,0,.734,1.494,13.862,13.862,0,0,0,1.021,1.515,14.192,14.192,0,0,0,1.075,1.211c.006,0,.009.01.016.017l.027.024a14.836,14.836,0,0,0,1.143,1,.146.146,0,0,0,.029.022l.024.017a14.8,14.8,0,0,0,1.42.944c.467.259.94.492,1.352.672a15.147,15.147,0,0,0,1.682.579c.546.137,1.094.248,1.609.324a15.957,15.957,0,0,0,1.592.118.494.494,0,0,1,.071,0l0,0a15.276,15.276,0,0,0,1.548-.089,14.922,14.922,0,0,0,1.706-.316,14.411,14.411,0,0,0,1.649-.546,12.75,12.75,0,0,0,4.257-2.83l.022-.022c.012-.013.022-.022.021-.025a15.016,15.016,0,0,0,1.035-1.189,14.038,14.038,0,0,0,.975-1.468,14.762,14.762,0,0,0,.681-1.379l.039-.1s0-.006.006-.011q.113-.279.214-.563c.1-.27.179-.544.26-.815a12.676,12.676,0,0,0,.479-3.309,15.221,15.221,0,0,0-.1-1.761,14.906,14.906,0,0,0-.315-1.636,14.156,14.156,0,0,0-.579-1.713M122.5,337.774c3.383,1.056,4.611,4.871,5.366,7.984.319,1.7.932,3.5.5,5.231-1.55,3.589-5.772,4.964-9.023,6.62-.106.046-.207.094-.313.14a36,36,0,0,1-1.269,6.494,27.707,27.707,0,0,1,4.938,6.043c1.642,3.137-.185,6.7-1.852,9.438-.979,1.43-1.818,3.133-3.342,4.056-3.634,1.44-7.594-.573-11.061-1.7-.165-.064-.334-.127-.5-.192a34.586,34.586,0,0,1-5.589,3.659,29.757,29.757,0,0,1-.749,8.895c-1.056,3.383-4.868,4.61-7.984,5.366-1.7.319-3.5.93-5.231.5-3.59-1.553-4.965-5.774-6.62-9.023q-.459-1.015-.893-2.035a35.108,35.108,0,0,1-4.618-.978,32.666,32.666,0,0,1-8.071,6.238c-3.228,1.456-6.677-.578-9.311-2.4-1.372-1.061-3.022-2-3.853-3.577-1.224-3.711,1.019-7.543,2.348-10.942.23-.516.467-1.027.7-1.535a35.188,35.188,0,0,1-2.689-3.948,31.047,31.047,0,0,1-9.446-.758c-3.377-1.066-4.592-4.884-5.341-8-.313-1.707-.919-3.5-.487-5.233,1.563-3.584,5.788-4.946,9.044-6.593.534-.237,1.071-.476,1.609-.7a.811.811,0,0,1,.019-.1,35.99,35.99,0,0,1,.729-4.437c.029-.118.056-.239.088-.359a29.464,29.464,0,0,1-5.593-6.7c-1.635-3.144.2-6.7,1.88-9.434.984-1.429,1.826-3.13,3.354-4.046,3.64-1.429,7.591.6,11.056,1.735.159.06.316.121.474.185q.874-.759,1.792-1.461a33.656,33.656,0,0,1,2.87-1.965,28.036,28.036,0,0,1,.777-7.971c1.056-3.383,4.868-4.61,7.984-5.366,1.7-.322,3.5-.93,5.231-.5,3.466,1.5,4.866,5.492,6.454,8.689.362.021.72.05,1.08.082a36.7,36.7,0,0,1,5.9,1.039,28.21,28.21,0,0,1,6.251-5.154c3.137-1.643,6.7.185,9.438,1.852,1.433.978,3.132,1.818,4.057,3.345,1.44,3.634-.571,7.589-1.7,11.061-.028.07-.054.142-.082.211A34.791,34.791,0,0,1,114.644,337a27.981,27.981,0,0,1,7.857.779" transform="translate(-23.535 -192.282)" fill="#41638e"/>
        <path id="Trazado_1321159" data-name="Trazado 1321159" d="M142.738,384.533c-.219-.447-.464-.881-.71-1.307a23.084,23.084,0,0,0-1.562-2.276,23.331,23.331,0,0,0-1.875-2.055c-.591-.554-1.2-1.072-1.846-1.567a20.3,20.3,0,0,0-4.5-2.548l-.054-.02a20.14,20.14,0,0,0-2.3-.772c-.087-.026-.183-.04-.27-.074a.076.076,0,0,1-.03-.007,24.736,24.736,0,0,0-2.46-.466c-.82-.095-1.643-.144-2.426-.158a.335.335,0,0,1-.052,0h0a22.881,22.881,0,0,0-2.79.189,22.51,22.51,0,0,0-2.624.538,20.013,20.013,0,0,0-4.919,2.086c-.388.233-.766.472-1.139.728-.39.26-.763.545-1.134.832a23.178,23.178,0,0,0-1.92,1.733,23.452,23.452,0,0,0-1.667,1.941c-.047.061-.092.124-.132.178a20.5,20.5,0,0,0-1.3,2,23.206,23.206,0,0,0-1.179,2.444,20.13,20.13,0,0,0-1.259,4.66c-.006.032-.01.068-.013.1s-.01.053-.014.081a.067.067,0,0,1,0,.024.743.743,0,0,1-.01.083,21.587,21.587,0,0,0-.171,2.61v.008c0,.219.008.439.015.657.022.6.065,1.194.134,1.791,0,.017,0,.031.006.049s.006.049.008.066a22.035,22.035,0,0,0,.56,2.794,21.726,21.726,0,0,0,.891,2.564,20.319,20.319,0,0,0,2.763,4.65.01.01,0,0,0,.007.007l0,.009a20.112,20.112,0,0,0,3.821,3.689,22.551,22.551,0,0,0,2.135,1.38,23.807,23.807,0,0,0,2.225,1.076,22.182,22.182,0,0,0,2.617.863,19.887,19.887,0,0,0,5.039.642h.056a24.452,24.452,0,0,0,2.452-.155,20.527,20.527,0,0,0,5.362-1.435,23.463,23.463,0,0,0,2.506-1.268,24.365,24.365,0,0,0,2.219-1.536,20.02,20.02,0,0,0,3.672-3.8c.476-.658.912-1.33,1.32-2.027a23.809,23.809,0,0,0,1.159-2.382,24.366,24.366,0,0,0,.8-2.377,22.622,22.622,0,0,0,.54-2.752,19.911,19.911,0,0,0-.023-5.164,21.791,21.791,0,0,0-.5-2.552.3.3,0,0,0-.012-.053l0-.006a24.354,24.354,0,0,0-.817-2.41c0-.009-.007-.022-.013-.034l-.006-.012c-.177-.424-.37-.84-.569-1.256m-1.1-3.661a21.221,21.221,0,0,1,3.546,7.49,17.912,17.912,0,0,1,.4,2.009c.093.673.171,1.346.2,2.026a21.054,21.054,0,0,1-.176,4.076,21.669,21.669,0,0,1-.963,3.99,21.267,21.267,0,0,1-1.723,3.75,20.913,20.913,0,0,1-5.392,6.123,21.618,21.618,0,0,1-3.344,2.11l-.1.051a21.094,21.094,0,0,1-3.67,1.421,21.394,21.394,0,0,1-8.114.692,20.985,20.985,0,0,1-7.75-2.407,21.2,21.2,0,0,1-10.088-11.993,20.935,20.935,0,0,1-1.057-7.7.351.351,0,0,1,0-.056,20.881,20.881,0,0,1,.36-2.968.017.017,0,0,1,0-.015c.006-.025.011-.05.014-.074a.7.7,0,0,0,.013-.07c.013-.047.022-.1.033-.146a.5.5,0,0,1,.011-.057c.006-.025.009-.049.014-.074a.058.058,0,0,1,.006-.018,21.471,21.471,0,0,1,2.956-7.089c.262-.41.544-.8.823-1.178a20.3,20.3,0,0,1,2.719-2.979c.537-.479,1.092-.93,1.668-1.361a21.235,21.235,0,0,1,9.549-3.908,21.7,21.7,0,0,1,4.115-.19,21.339,21.339,0,0,1,4.068.608l.052.014c.09.025.187.042.276.071.027.009.056.016.086.023l.26.075c.155.043.306.086.456.135.325.1.649.211.97.325a20.315,20.315,0,0,1,1.91.8,19.659,19.659,0,0,1,1.774.957,21.2,21.2,0,0,1,6.09,5.53" transform="translate(-64.078 -230.742)" fill="#12263f"/>
        <path id="Trazado_1321160" data-name="Trazado 1321160" d="M137.766,372.165c-.281-.578-.6-1.135-.913-1.681a26.108,26.108,0,0,0-4.414-5.569c-.762-.711-1.551-1.38-2.379-2.014a30.737,30.737,0,0,0-2.935-1.91c-.937-.508-1.9-.968-2.851-1.369l-.068-.025,0,0a27.494,27.494,0,0,0-2.959-.993c-.111-.029-.233-.052-.348-.09l-.035-.011a30.267,30.267,0,0,0-3.165-.6c-1.052-.122-2.109-.189-3.119-.206-.022,0-.043,0-.065,0l0,0a29.661,29.661,0,0,0-3.583.243,29.162,29.162,0,0,0-3.379.69,30.876,30.876,0,0,0-3.216,1.114,29.915,29.915,0,0,0-3.111,1.57c-.5.3-.982.608-1.464.933-.5.338-.981.7-1.459,1.075a30.1,30.1,0,0,0-2.472,2.226,29.464,29.464,0,0,0-2.142,2.5c-.06.078-.12.157-.17.226a26.39,26.39,0,0,0-1.671,2.567,29.518,29.518,0,0,0-1.52,3.145,28.172,28.172,0,0,0-1.02,3.065,27.45,27.45,0,0,0-.6,2.925c-.007.044-.013.084-.02.129s-.008.071-.014.1a.111.111,0,0,0,0,.031c-.006.04-.011.08-.016.108a28.178,28.178,0,0,0-.218,3.358l0,0c0,.283.007.569.016.849.03.768.085,1.534.175,2.3,0,.021.006.041.008.059,0,.035.009.069.011.087a26.045,26.045,0,0,0,1.864,6.889,28.777,28.777,0,0,0,1.582,3.119,29.2,29.2,0,0,0,1.973,2.862c0,.006.008.007.009.01l0,.009a29.2,29.2,0,0,0,2.262,2.5,25.985,25.985,0,0,0,8.261,5.4,28.552,28.552,0,0,0,3.364,1.113,29.63,29.63,0,0,0,2.984.589,28.522,28.522,0,0,0,3.5.237.3.3,0,0,0,.052,0h.019a30.512,30.512,0,0,0,3.157-.2,26.324,26.324,0,0,0,6.9-1.845,26.121,26.121,0,0,0,8.521-5.816,30,30,0,0,0,2.278-2.675c.608-.843,1.171-1.708,1.693-2.6a29.6,29.6,0,0,0,1.489-3.066,30.427,30.427,0,0,0,1.032-3.057,28.72,28.72,0,0,0,.692-3.538,26.047,26.047,0,0,0-.027-6.64,29.526,29.526,0,0,0-.649-3.284c-.008-.022-.012-.046-.018-.065l0-.006a30.57,30.57,0,0,0-1.048-3.1c-.006-.012-.011-.028-.018-.043l-.007-.015c-.233-.547-.477-1.081-.733-1.617m-1.408-4.711a27.287,27.287,0,0,1,4.56,9.633,23.309,23.309,0,0,1,.517,2.583c.121.866.222,1.731.262,2.6a27.329,27.329,0,0,1-.229,5.244,28.177,28.177,0,0,1-1.236,5.129,27.445,27.445,0,0,1-2.219,4.821,26.914,26.914,0,0,1-6.929,7.873,27.839,27.839,0,0,1-4.3,2.715c-.044.022-.086.043-.131.063a27.369,27.369,0,0,1-15.154,2.717,26.986,26.986,0,0,1-9.963-3.094,27.261,27.261,0,0,1-12.974-15.425,26.954,26.954,0,0,1-1.361-9.9.681.681,0,0,0,0-.072,27.627,27.627,0,0,1,.459-3.816.056.056,0,0,0,.006-.018l.017-.1c.007-.029.012-.057.019-.087l.039-.186c.006-.025.009-.049.014-.074s.014-.066.02-.1a.088.088,0,0,0,.007-.022,27.648,27.648,0,0,1,3.8-9.116c.341-.524.7-1.031,1.059-1.515a26.05,26.05,0,0,1,3.5-3.83c.69-.615,1.405-1.2,2.147-1.752a26.4,26.4,0,0,1,2.265-1.5,26.987,26.987,0,0,1,10.011-3.529,27.916,27.916,0,0,1,5.293-.243,27.465,27.465,0,0,1,5.231.781l.069.02a3.2,3.2,0,0,1,.354.094c.037.007.072.019.11.026l.336.1c.2.055.392.112.586.173.418.132.833.273,1.248.422a25.239,25.239,0,0,1,2.455,1.033,24.238,24.238,0,0,1,2.281,1.229,27.24,27.24,0,0,1,7.831,7.11" transform="translate(-54.023 -220.908)" fill="#12263f"/>
        <path id="Trazado_1321161" data-name="Trazado 1321161" d="M279.013,352.879c1.235.323-.628,3.975-.843,4.819-2.1,5.2-6.452,9.1-10.822,12.41-7.881,5.976-17.991,8.1-27.736,7.7-11.605-.182-22.615-7.424-25.37-19.044a7.873,7.873,0,0,1-.2-.867c-.21-.739.951-.924,1.376-1.256a19.7,19.7,0,0,0,3.969-2.818c5.746-5.641,4.435-15.577,2.9-22.735a24.209,24.209,0,0,0-3.721-8.318c-.257-.284-.443-.637-.153-.963a.5.5,0,0,1,.709-.06,8.814,8.814,0,0,0,.712-.607c2.584-2.132,5.291-4.116,7.965-6.135a219.869,219.869,0,0,1,19.89-13.585c2.653-1.607,5.258-3.305,7.911-4.918a.544.544,0,0,1,.736.123.558.558,0,0,1,.4.789,19.363,19.363,0,0,0-.523,2.432c-2.21,14.578,3.033,29.42,11.575,41.106a91.953,91.953,0,0,0,6.933,8.037c1.322,1.358,2.7,2.662,4.146,3.888a1.192,1.192,0,0,1,.146,0" transform="translate(-132.641 -183.706)" fill="#ef9a97"/>
        <path id="Trazado_1321162" data-name="Trazado 1321162" d="M229.2,336.166a24.2,24.2,0,0,0-3.721-8.318c-.257-.284-.443-.637-.152-.963a.5.5,0,0,1,.709-.06,8.9,8.9,0,0,0,.712-.607c2.584-2.133,5.291-4.116,7.965-6.135A219.767,219.767,0,0,1,254.6,306.5c1.025-.621,2.044-1.256,3.06-1.894q-.078,1.782-.291,3.554a35.32,35.32,0,0,1-.96,4.851,28.875,28.875,0,0,1-.981,3,.835.835,0,0,1,.083.422,3.659,3.659,0,0,1-.138.736c-.018.067-.036.133-.055.2a2.9,2.9,0,0,1-.133,1.071,10.028,10.028,0,0,1-.354,1.04l.007-.017c-.015.038-.03.077-.044.115l.02-.056a22.469,22.469,0,0,1-2.33,4.394,30.726,30.726,0,0,1-3.048,3.853c-.548.592-1.1,1.181-1.681,1.735q-.965.915-1.986,1.765c-.619.508-1.262.99-1.908,1.465-.664.488-1.343.96-2.037,1.4a37.774,37.774,0,0,1-4.472,2.39,29.171,29.171,0,0,1-4.678,1.69,26.616,26.616,0,0,1-2.952.6c-.165-.914-.344-1.8-.527-2.65" transform="translate(-139.559 -188.784)" fill="#c66f79"/>
        <path id="Trazado_1321163" data-name="Trazado 1321163" d="M192.373,167.853c2.853,7.9,2.716,16.609,1.31,24.8-1.576,8.773-5.088,17.725-11.674,23.94-4.807,4.244-11.518,5.336-17.737,5.282-14.809.081-30.254-8-35.746-22.259a38.8,38.8,0,0,1-2.7-10.149c-4.271-1.7-9.257-5.641-7.125-10.193.948-1.516,2.743-2.327,3.873-3.667,2.519-2.841,2.21-6.757,2.2-10.277-.191-12.8.152-26.62,7.2-37.774.353-.443.658-1.415,1.283-1.274a.574.574,0,0,1,.559.191,93.214,93.214,0,0,0,17.512,12.589,48.726,48.726,0,0,0,6.1,2.2.548.548,0,0,1,.353.269c3.027.9,6.042,1.878,8.979,3.048,11.052,4.157,21.126,12.111,25.621,23.276" transform="translate(-73.249 -78.256)" fill="#ef9a97"/>
        <path id="Trazado_1321164" data-name="Trazado 1321164" d="M259.1,55.452c2.554,1.376,2.692,5.061.634,6.948a10.284,10.284,0,0,1-4.406,2.587,2.379,2.379,0,0,0-.485.138c.152.188.3.38.44.568,8.211,12.165,5.495,28.1,3.027,41.68-2.871,13.137-6.64,27.024-16.759,36.526a57.874,57.874,0,0,1-19,12.643,44.83,44.83,0,0,1-5.079,1.8c-1.552.413-3.221,1.2-4.816.583-3.921-2.692-6.021-18.715-7.621-23.815a25.839,25.839,0,0,0-7.265-12.589c-5.874-5.644-12.505-11.835-14.536-19.885a36.547,36.547,0,0,1-5.937-.149c-15.054-1.777-29.485-12.85-32.785-28-3.47-13.6,4.43-29.181,17.923-33.586,23.548-7.28,45.789,8.04,68.375,12.422,2.168.464,4.349.876,6.545,1.2.14-.643.3-1.214.344-1.486,3.817-12.61,14.6-7.938,8.674,4.582,3.464-2.629,8.644-4.25,12.724-2.172" transform="translate(-89.063 -24.153)" fill="#12263f"/>
        <path id="Trazado_1321165" data-name="Trazado 1321165" d="M313.675,247.721c1.125,10.188-8.545,19.11-18.437,18.972-4.891.195-6.838-5-7.6-9.012s-1.561-8.378.452-12.129c5.42-12.066,23.97-12.7,25.582,2.168" transform="translate(-177.766 -146.593)" fill="#ef9a97"/>
        <path id="Trazado_1321166" data-name="Trazado 1321166" d="M303.382,270.007a.561.561,0,0,1,.2-.578,8.252,8.252,0,0,0,.429-7.575c-.441-1.1-1.532-1.812-1.473-3.078.529-4.78,5.771-8.164,10.367-7.926a.581.581,0,0,1,.556.592c-.041.686-.791.537-1.273.557a9.265,9.265,0,0,0-8.41,6.057c-.471,1.26.714,2.056,1.167,3.094a9.712,9.712,0,0,1,.069,8.124c-.237.641-1.142,1.832-1.63.733" transform="translate(-187.5 -155.461)" fill="#c66f79"/>
        <path id="Trazado_1321167" data-name="Trazado 1321167" d="M165.618,250.62a10.867,10.867,0,0,1-8.488-6.37c-.252-.233.077-.787.35-.446a2.138,2.138,0,0,0,.224.329,11.2,11.2,0,0,0,11.876,4.144c3.022-.835,5.165-3.468,6.393-6.178.81-.869,1.705.408,1.319,1.238-1.821,4.628-6.6,8.093-11.674,7.283" transform="translate(-97.328 -149.865)" fill="#45133e"/>
        <path id="Trazado_1321168" data-name="Trazado 1321168" d="M146.132,315.241a.581.581,0,0,1,.326-.745,43.767,43.767,0,0,1,5.833-2.138.574.574,0,0,1,.278,1.113,38.575,38.575,0,0,0-5.168,1.875c-.408.2-1.029.469-1.268-.1" transform="translate(-90.545 -193.576)" fill="#45133e"/>
        <path id="Trazado_1321169" data-name="Trazado 1321169" d="M180.962,204.827c.745,1,1.567,2.537.733,3.727a2.346,2.346,0,0,1-1.4.873,4.729,4.729,0,0,1-1.122.125,8.156,8.156,0,0,1-.978-.066,14.891,14.891,0,0,1-4.065-1.226c-.5-.224-.987-.464-1.468-.721a.258.258,0,0,1-.039-.021,22.207,22.207,0,0,1-2.312-1.433c-.045-.03-.09-.063-.132-.093a18.2,18.2,0,0,1-1.843-1.508,9.468,9.468,0,0,1-2.1-2.662,3.39,3.39,0,0,1-.392-1.543,1.9,1.9,0,0,1,.592-1.37,2.812,2.812,0,0,1,1.627-.676,7.321,7.321,0,0,1,2.109.1,16.322,16.322,0,0,1,4.167,1.424,21.944,21.944,0,0,1,3.571,2.148,14.328,14.328,0,0,1,3.051,2.919" transform="translate(-102.785 -122.837)" fill="#45133e"/>
        <g id="Grupo_1188372" data-name="Grupo 1188372" transform="translate(73.895 102.545)" opacity="0.5">
          <g id="Grupo_1188371" data-name="Grupo 1188371">
            <g id="Grupo_1188370" data-name="Grupo 1188370" clip-path="url(#clip-path-3)">
              <path id="Trazado_1321170" data-name="Trazado 1321170" d="M206.044,272.766a6.269,6.269,0,0,1,.811,4.172,6.3,6.3,0,0,1-6.123,5.339h-.081a6.279,6.279,0,0,1-5.6-3.4c-.015-.024-.027-.045-.039-.069a6.215,6.215,0,0,1-.64-2.231.226.226,0,0,1,0-.045.331.331,0,0,1-.006-.057c0-.009,0-.021,0-.033a6.359,6.359,0,0,1,.195-2.085.65.65,0,0,1,.027-.084,6.488,6.488,0,0,1,.727-1.642,6.159,6.159,0,0,1,1.51-1.651,6.633,6.633,0,0,1,1.873-.984,6.3,6.3,0,0,1,7.355,2.767" transform="translate(-194.341 -269.691)" fill="#ec7380"/>
            </g>
          </g>
        </g>
        <path id="Trazado_1321171" data-name="Trazado 1321171" d="M265.849,485.12c-.006.5.12,1.409-.272,1.708a.575.575,0,0,1-.5.3h-9.1q-8.439,0-16.875,0-9.165,0-18.332,0-8.726,0-17.459,0-8.847,0-17.695,0-8.6,0-17.193,0-8.762,0-17.525,0-9.009,0-18.012,0-8.031,0-16.059,0h-.012a.581.581,0,0,1-.26-.063c-1.6-.326,2.838-9.1,3.344-10.316,6.889-13.977,18.476-26.509,33.135-32.327a8.838,8.838,0,0,1,2.491-.67.684.684,0,0,1,.126-.045c.511-.069.628.422.8.781a25.952,25.952,0,0,0,6.036,7.394,35.392,35.392,0,0,0,28.953,7.905,33.706,33.706,0,0,0,20.387-14.049,25.4,25.4,0,0,0,3.676-7.148.582.582,0,0,1,.706-.4.408.408,0,0,1,.182.113h0a.558.558,0,0,1,.081.051c.751.556,1.558,1.1,2.321,1.618a49.814,49.814,0,0,0,11.47,5.028c14.872,5.064,30.317,11.148,34.08,28.155a51.546,51.546,0,0,1,1.508,11.994" transform="translate(-72.021 -271.545)" fill="#b3b27d"/>
        <path id="Trazado_1321172" data-name="Trazado 1321172" d="M407.269,547.521q.081.794.159,1.588h-1.155c-.14-1.451-.281-2.9-.464-4.34-.167-1.34-.365-2.677-.631-4v-.006a.56.56,0,0,1-.012-.057c-.069-.332-.141-.658-.221-.984-.066-.281-.149-.559-.224-.837a.574.574,0,1,1,1.107-.308c.179.652.338,1.3.473,1.965q.233,1.149.407,2.309c.233,1.549.4,3.108.562,4.669" transform="translate(-250.82 -333.533)" fill="#9a984a"/>
        <path id="Trazado_1321173" data-name="Trazado 1321173" d="M194.258,534.86a.582.582,0,0,1,.206.787c.006-.009.009-.018.015-.027-.108.227-.194.466-.29.7-.144.344-.281.691-.416,1.041-.275.712-.532,1.436-.784,2.157-.509,1.481-.981,2.976-1.4,4.484-.278,1-.526,2-.757,3h-1.172c.5-2.222,1.1-4.421,1.815-6.583.332-1,.673-1.989,1.038-2.973q.26-.7.541-1.382c.081-.206.167-.407.251-.61a3.605,3.605,0,0,1,.17-.386.577.577,0,0,1,.784-.206" transform="translate(-117.544 -331.442)" fill="#9a984a"/>
        <path id="Trazado_1321174" data-name="Trazado 1321174" d="M279.323,440.789c-.125.3-.251.6-.38.906-.027.069-.054.141-.087.21s-.066.138-.1.206-.063.143-.1.212c-.089.2-.182.4-.275.607-.165.359-.335.712-.509,1.065-.338.682-.691,1.358-1.065,2.022a38.862,38.862,0,0,1-5.545,7.741,37.857,37.857,0,0,1-3.574,3.347,32.97,32.97,0,0,1-12.928,6.5,36.589,36.589,0,0,1-13.92.817,38.532,38.532,0,0,1-4.555-.852,40.665,40.665,0,0,1-6.44-2.175c-.039-.018-.075-.033-.114-.048-.009-.006-.018-.009-.03-.015a.119.119,0,0,1-.027-.012,38.733,38.733,0,0,1-7.837-4.69,47.322,47.322,0,0,1-3.7-3.176c-.589-.556-1.157-1.143-1.7-1.741s-1.074-1.205-1.567-1.843a31.583,31.583,0,0,1-2.055-2.931q-.426-.7-.814-1.424c-.093-.173-.185-.347-.266-.527a.786.786,0,0,1-.1-.326.271.271,0,0,1,0-.048c.045-.018.093-.039.14-.057.132-.054.264-.1.4-.159l.1-.027c.063-.018.132-.042.206-.066a.309.309,0,0,1,.057-.021l.1-.036v0a5.322,5.322,0,0,1,2.028-.523.662.662,0,0,1,.126-.045.419.419,0,0,1,.122,0,.314.314,0,0,1,.075.009.322.322,0,0,1,.125.042.394.394,0,0,1,.108.075.227.227,0,0,1,.045.045.237.237,0,0,1,.042.051c.027.036.051.075.075.114a2.459,2.459,0,0,1,.132.281c.024.06.048.117.075.171,6.682,11.892,21.885,17.7,34.989,15.3a33.814,33.814,0,0,0,24.063-21.2.794.794,0,0,1,.087-.173.457.457,0,0,1,.281-.218.492.492,0,0,1,.054-.015.548.548,0,0,1,.284,0,.433.433,0,0,1,.159.09,1.512,1.512,0,0,1,.371.266l0,0c.673.49,1.382.966,2.055,1.424l.248.159a.367.367,0,0,0-.054.021s0,0,0,.006l.057-.027.143.09c.165.1.329.2.5.3s.332.2.5.293" transform="translate(-131.165 -271.547)" fill="#9a984a"/>
        <path id="Trazado_1321175" data-name="Trazado 1321175" d="M269.854,94.885c4.573,5.832,7.875,13.217,6.736,20.758-1.316,10.149-11.022,19.047-21.509,17.524-17.946-2.094-23.674-21.607-39.287-21.054-4.328.26-8.662,1.134-13,.548-11.333-1.5-19.065-10.238-18.123-21.82C185.555,79.694,191,71.3,202.086,68.235c12.135-3.494,25.074-.416,36.554,4.029a75.63,75.63,0,0,1,31.214,22.621" transform="translate(-114.404 -41.354)" fill="#fff"/>
        <path id="Trazado_1321176" data-name="Trazado 1321176" d="M262.1,119.219a10.019,10.019,0,0,0,4.489-.975,15.092,15.092,0,0,1-5.545-1.289,12.636,12.636,0,0,0,1.02,2.264Zm5.438-20.958a27.495,27.495,0,0,0-9.371-1.591c-.069.113-.135.233-.194.356-1.34,2.856,1.579,5.662,4.379,5.605a5.734,5.734,0,0,0,5.187-4.37m.173-1.154a11.8,11.8,0,0,0-1.143-4.624c-2.635.182-5.65,1.029-7.513,3a19.944,19.944,0,0,1,3.475.305,35.2,35.2,0,0,1,5.181,1.316m-.894,19.968c5.375.138,5.028-4,.861-5.919-3.284-1.454-7.193.616-6.823,4.433a13.232,13.232,0,0,0,5.961,1.487m8.438-5.841c-.048-.054-.09-.108-.132-.152a15.885,15.885,0,0,0-10.891-4.663c-5.6-.117-10.253,4.164-4.519,8.47.108-5.746,7.636-6.933,10.95-3a4.464,4.464,0,0,1,1.277,2.381,5.689,5.689,0,0,0,3.314-3.033m.3-5.226a8.281,8.281,0,0,0-.308-.909,9.667,9.667,0,0,0-2.832-4.068c-.012,0-.021.009-.033.012-.93.377-2.276,1.119-1.762,2.294.915,1.747,3.051,2.554,4.935,2.671m.123,4a7.8,7.8,0,0,0,.12-2.841,7.867,7.867,0,0,1-5.273-2.031,2.72,2.72,0,0,1,.545-4.732c.108-.057.218-.114.329-.168a15.647,15.647,0,0,0-2.776-1.537c-.939,3.476-4.854,6.135-8.378,4.7-3.458-1.4-4.292-4.164-3.344-6.622a13.634,13.634,0,0,0-6.6,2.516c-8.913,6.939,1.729,18.76,10.391,19.851a11.88,11.88,0,0,1-.934-2.85c-3.589-1.822-5.554-6.927-1.516-9.407,5.429-3.248,12.748-1.205,17.175,2.878.071.071.161.156.26.245m-2.985-10.262a15.709,15.709,0,0,1,7.846.123c-2.115-4.828-7.789-6.99-12.721-7.385a11.323,11.323,0,0,1,1.026,5.055,15.758,15.758,0,0,1,3.849,2.207m5.127,5.868c1.72-.775,3.535-2.4,3.114-4.454a16.056,16.056,0,0,0-7.2-.484,10.893,10.893,0,0,1,1.08,1.256,11.183,11.183,0,0,1,1.887,4.008,5.093,5.093,0,0,0,1.122-.326M288.41,125.9c11.805-7.059,4.325-20.925-6.284-24.374.186,2.518-2.115,4.522-4.307,5.309a6.694,6.694,0,0,1-.9.224,7.335,7.335,0,0,1-2.351,6.966,8.783,8.783,0,0,1-2.632,1.445,2.91,2.91,0,0,1-1.773,2.1,7.7,7.7,0,0,1-1.391.458,6.285,6.285,0,0,1-1.585,1.2,10.688,10.688,0,0,1-4.385,1.122c5.27,7.382,17.964,9.859,25.612,5.548m-6.515-25.66c7.4,2.279,14.47,9.383,13.618,17.581-1.227,8.091-10.143,12.081-17.626,11.315-6.024-.53-13.244-3.434-16.543-8.8a13.946,13.946,0,0,1-2.519-.4c-7.729-1.968-17-11.683-11.231-19.6a13.9,13.9,0,0,1,9.939-4.783,7.928,7.928,0,0,1,3.688-2.922c6.9-3.293,18.135.018,20.674,7.615" transform="translate(-152.336 -56.619)" fill="#7985bc"/>
      </g>
    </g>
  </g>
</svg>
