<svg id="Grupo_1188387" data-name="Grupo 1188387" xmlns="http://www.w3.org/2000/svg" xmlns:xlink="http://www.w3.org/1999/xlink" width="61.949" height="61.638" viewBox="0 0 61.949 61.638">
  <defs>
    <clipPath id="clip-path">
      <rect id="Rectángulo_410968" data-name="Rectángulo 410968" width="61.949" height="61.638" fill="none"/>
    </clipPath>
  </defs>
  <g id="Grupo_1188386" data-name="Grupo 1188386" clip-path="url(#clip-path)">
    <path id="Trazado_1321180" data-name="Trazado 1321180" d="M28.793,39.3c.573.464,11.541,10.518,7.959,9.384l-.213-.255C1.987,52.125,6.286,18.555,28.793,39.3" transform="translate(-6.47 -18.683)" fill="#ec8895"/>
    <path id="Trazado_1321181" data-name="Trazado 1321181" d="M29.14,71.987c1.1.08.737,1.233-.332.852C23.94,79.712,16.055,85.966,7.241,85.5,0,85.275-3,77.257,3.864,73.576c7.543-3.674,16.476-2.619,24.55-1.694a.434.434,0,0,1,.727.1" transform="translate(0 -40.832)" fill="#ec8895"/>
    <path id="Trazado_1321182" data-name="Trazado 1321182" d="M50.861,80.76c1.421,8.011-.929,22.444-10.724,23.68a5,5,0,0,1-4.914-6.048C36.6,91.355,44.257,84.15,49.894,80.121a.446.446,0,0,1,.838.007,4.819,4.819,0,0,1,.129.632" transform="translate(-20.195 -45.914)" fill="#ec8895"/>
    <path id="Trazado_1321183" data-name="Trazado 1321183" d="M91.3,100.341c.551,3.984-2.043,8.9-6.524,8.674C75.7,107.5,75.486,95.42,75.678,88.15c.066-1.781.119-3.565.248-5.34a.452.452,0,0,1,.712-.335c6.887,3.6,13.591,9.8,14.664,17.866" transform="translate(-43.504 -47.385)" fill="#ec8895"/>
    <path id="Trazado_1321184" data-name="Trazado 1321184" d="M103.175,75.857c7.466,3.468,5.815,11.646-2.637,10.756-6.125-.758-11.374-4.714-16.053-8.479-.684-.59-1.351-1.2-2.019-1.809a.419.419,0,0,1-.119-.359.458.458,0,0,1,.126-.894,60.721,60.721,0,0,1,7.271-1.145c4.526-.384,9.31-.161,13.431,1.931" transform="translate(-47.177 -42.428)" fill="#ec8895"/>
    <path id="Trazado_1321185" data-name="Trazado 1321185" d="M99.332,35.091c6.517-2.916,14.272.862,10.368,8.51-4.669,6.506-16.769,5.434-24.061,6.845a.447.447,0,0,1-.719-.527c.3-.538.622-1.1.96-1.631,3.429-5.273,7.536-10.616,13.452-13.2" transform="translate(-48.803 -19.616)" fill="#ec8895"/>
    <path id="Trazado_1321186" data-name="Trazado 1321186" d="M89.738,5.471c3.523,1.537,3.433,6.22,2.4,9.349-2.127,6.348-7.194,11.045-10.749,16.573.007.045.014.094.021.14A.133.133,0,0,1,81.4,31.5h0a.3.3,0,0,1,.021.07.448.448,0,0,1-.856.248c-.618-4.987-1.268-10.043-.691-15.065.384-4.784,3.96-12.928,9.872-11.28" transform="translate(-45.805 -3.022)" fill="#ec8895"/>
    <path id="Trazado_1321187" data-name="Trazado 1321187" d="M59.589,13.568c.1,4.582-.136,9.163-.461,13.735a.455.455,0,0,1-.464.43.461.461,0,0,1-.426-.377C51.389,22.134,44.471,13.19,47.251,4.139c1.1-3.541,5.325-5.633,8.315-2.86,3.377,3.045,3.862,7.993,4.023,12.289" transform="translate(-26.814 0)" fill="#ec8895"/>
    <path id="Trazado_1321188" data-name="Trazado 1321188" d="M52.67,98.832a.453.453,0,0,1-.161-.615c.925-1.568,1.861-3.133,2.773-4.707q1.782-3.116,3.534-6.254a.447.447,0,1,1,.772.451c-.782,1.421-1.6,2.822-2.382,4.243-1.274,2.262-2.609,4.484-3.925,6.723a.453.453,0,0,1-.611.161" transform="translate(-30.165 -50.058)" fill="#f1b1c4"/>
    <path id="Trazado_1321189" data-name="Trazado 1321189" d="M85.717,100.731a119.955,119.955,0,0,1-5.43-13.165.448.448,0,0,1,.885-.088,116.41,116.41,0,0,0,4.559,11.137q.4.885.807,1.767a.446.446,0,1,1-.821.349" transform="translate(-46.176 -50.112)" fill="#f1b1c4"/>
    <path id="Trazado_1321190" data-name="Trazado 1321190" d="M103.272,81.859c-4.243-1.009-8.447-2.2-12.666-3.293a.449.449,0,0,1,.175-.859c3.423.8,6.83,1.884,10.277,2.672q1.226.3,2.451.618a.445.445,0,0,1,.311.548.451.451,0,0,1-.548.314" transform="translate(-51.957 -44.692)" fill="#f1b1c4"/>
    <path id="Trazado_1321191" data-name="Trazado 1321191" d="M88.315,58.363a.456.456,0,0,1,.157-.615h.005c4.322-2.542,8.533-5.278,12.842-7.84a.447.447,0,1,1,.451.772c-1.6.964-3.192,1.928-4.781,2.909-2.676,1.659-5.346,3.345-8.063,4.931a.448.448,0,0,1-.611-.157" transform="translate(-50.758 -28.67)" fill="#f1b1c4"/>
    <path id="Trazado_1321192" data-name="Trazado 1321192" d="M80.81,44.579c-.571-.1-.341-.716-.2-1.09,1.18-3.985,2.577-7.922,3.95-11.835a.447.447,0,0,1,.824.345c-.51,1.446-.976,2.8-1.47,4.212-.938,2.654-1.774,5.338-2.6,8.029a.453.453,0,0,1-.5.339" transform="translate(-46.265 -18.052)" fill="#f1b1c4"/>
    <path id="Trazado_1321193" data-name="Trazado 1321193" d="M66.589,41.721q-2.512-8.052-4.756-16.186a.448.448,0,0,1,.886-.127c1.016,3.494,1.932,7.019,3.018,10.492.573,1.861,1.153,3.719,1.715,5.584a.447.447,0,0,1-.862.237" transform="translate(-35.558 -14.397)" fill="#f1b1c4"/>
    <path id="Trazado_1321194" data-name="Trazado 1321194" d="M46.06,59.422c-4.275-2.146-8.4-4.674-12.7-6.754a.448.448,0,0,1,.349-.824c3.223,1.5,6.242,3.389,9.4,5.018,1.131.6,2.27,1.187,3.4,1.788a.446.446,0,0,1,.161.611.452.452,0,0,1-.611.161" transform="translate(-19.032 -29.797)" fill="#f1b1c4"/>
    <path id="Trazado_1321195" data-name="Trazado 1321195" d="M30.681,78.234a.444.444,0,0,1,.4-.444h0s0,0,0,0c3.591-1.383,7.284-2.465,10.8-4.04,1.979-.855,3.959-1.721,5.933-2.584a.448.448,0,1,1,.349.824c-3.433,1.477-6.816,3.056-10.326,4.341-2.045.712-4.058,1.374-6.062,2.168-.376.181-1.049.341-1.083-.265" transform="translate(-17.646 -40.91)" fill="#f1b1c4"/>
    <path id="Trazado_1321196" data-name="Trazado 1321196" d="M72.332,60.725a9.067,9.067,0,0,1-3.66,8.29A9.167,9.167,0,0,1,64.345,70.7a9.415,9.415,0,0,1-.992.056,9.27,9.27,0,0,1-3.489-.695,9.039,9.039,0,0,1-5.346-10.348.061.061,0,0,1,0-.028c.024-.112.052-.22.084-.328a8.8,8.8,0,0,1,.639-1.69q.073-.147.147-.283l0,0c.126-.237.266-.465.412-.688l0,0s0-.007.007-.01a9.242,9.242,0,0,1,2.259-2.33,8.974,8.974,0,0,1,4.33-1.638,9.027,9.027,0,0,1,8.158,3.559,9.324,9.324,0,0,1,1.128,1.966,9.166,9.166,0,0,1,.639,2.49" transform="translate(-31.228 -30.289)" fill="#efa444"/>
  </g>
</svg>
