<svg id="Grupo_1188385" data-name="Grupo 1188385" xmlns="http://www.w3.org/2000/svg" xmlns:xlink="http://www.w3.org/1999/xlink" width="72.949" height="69.487" viewBox="0 0 72.949 69.487">
  <defs>
    <clipPath id="clip-path">
      <rect id="Rect치ngulo_410967" data-name="Rect치ngulo 410967" width="72.949" height="69.487" fill="none"/>
    </clipPath>
    <clipPath id="clip-path-3">
      <rect id="Rect치ngulo_410965" data-name="Rect치ngulo 410965" width="39.306" height="49.668" fill="none"/>
    </clipPath>
  </defs>
  <g id="Grupo_1188384" data-name="Grupo 1188384" clip-path="url(#clip-path)">
    <g id="Grupo_1188383" data-name="Grupo 1188383">
      <g id="Grupo_1188382" data-name="Grupo 1188382" clip-path="url(#clip-path)">
        <path id="Trazado_1321178" data-name="Trazado 1321178" d="M72.855,24.839a9.287,9.287,0,0,1-.36,4.189,9.45,9.45,0,0,1-2.08,3.521A9.263,9.263,0,0,1,67.2,34.769a9.483,9.483,0,0,1-3.61.71c-.226,0-.454-.006-.679-.024a8.524,8.524,0,0,1-.957-.122c-.81,3.272,2.2,6.568,3.7,9.382,3.747,5.6,1.956,7.6-3.658,10.141-2.76,1.057-7.835,4.124-10.449,1.764-.88-1.277-.247-3.019-.731-4.454a8.421,8.421,0,0,0-6.668-6.58c-5.026-.883-10.738,3.287-10.18,8.624.2,2.82,2.477,4.59,4.4,6.339,3.043,3.089-2.077,4.88-4.313,6.016a42.9,42.9,0,0,1-6.147,2.473,6,6,0,0,1-4.094.131c-1.188-.67-1.7-2.056-2.148-3.278-.749-2.148-1.465-4.307-2.239-6.449a26.279,26.279,0,0,0-2.47-5.437,9.779,9.779,0,0,1-.838,1.032A9.265,9.265,0,0,1,12.9,57.259a9.483,9.483,0,0,1-3.607.71c-.228,0-.454-.009-.682-.024a9.211,9.211,0,0,1-3.716-1.094,9.444,9.444,0,0,1-3.1-2.7,9.181,9.181,0,0,1-1.44-2.961c-.006-.015-.013-.03-.019-.049A9.8,9.8,0,0,1,.03,49.388a9.184,9.184,0,0,1,.1-2.254c0-.009,0-.018,0-.024,0-.025.009-.049.012-.073.012-.07.027-.14.04-.21l.009-.049c0-.012.006-.027.009-.04.027-.14.061-.277.094-.414a9.431,9.431,0,0,1,2.056-3.866,9.279,9.279,0,0,1,3.527-2.474,9.425,9.425,0,0,1,3.9-.649c.171.006.338.018.509.04a5.223,5.223,0,0,0-.161-1.173C4.98,24.446-.905,25.28,18.328,17.961a7.75,7.75,0,0,0,1.48-.7,9.476,9.476,0,0,1-2.635-2.434,9.213,9.213,0,0,1-1.441-2.958l-.018-.052a9.811,9.811,0,0,1-.311-1.754,9.143,9.143,0,0,1,.1-2.254c0-.009,0-.019,0-.025,0-.024.009-.048.012-.073.012-.07.025-.14.04-.21,0-.015.006-.03.009-.048s.006-.027.009-.04c.027-.14.061-.277.094-.415a9.43,9.43,0,0,1,2.056-3.866A9.283,9.283,0,0,1,21.253.658a9.32,9.32,0,0,1,8.094.582,9.29,9.29,0,0,1,3.095,2.885A9.448,9.448,0,0,1,33.931,8a9.244,9.244,0,0,1-.152,3.445,3.323,3.323,0,0,0,2.339-.25c3.725-1.5,7.143-3.8,11.039-4.85,2.647-.527,3.865,2.4,4.724,4.378a70.225,70.225,0,0,1,2.437,6.7c.393,1.182.655,2.69,1.554,3.552a9.98,9.98,0,0,1,.777-1.011,9.284,9.284,0,0,1,3.528-2.474,9.424,9.424,0,0,1,3.9-.649,9.336,9.336,0,0,1,7.289,4.115,9.45,9.45,0,0,1,1.49,3.878" transform="translate(0 0)" fill="#efa444"/>
        <g id="Grupo_1188381" data-name="Grupo 1188381" transform="translate(0 19.819)" opacity="0.3" style="mix-blend-mode: multiply;isolation: isolate">
          <g id="Grupo_1188380" data-name="Grupo 1188380">
            <g id="Grupo_1188379" data-name="Grupo 1188379" clip-path="url(#clip-path-3)">
              <path id="Trazado_1321179" data-name="Trazado 1321179" d="M38.366,89.833c3.043,3.089-2.077,4.88-4.313,6.016a42.947,42.947,0,0,1-6.147,2.474,9.606,9.606,0,0,1-2.534.448,3.7,3.7,0,0,1-1.56-.317c-1.188-.67-1.7-2.056-2.148-3.278-.749-2.148-1.465-4.307-2.239-6.449a26.267,26.267,0,0,0-2.47-5.437,9.784,9.784,0,0,1-.838,1.033A9.264,9.264,0,0,1,12.9,86.544a9.475,9.475,0,0,1-3.607.71c-.228,0-.454-.009-.682-.024a9.2,9.2,0,0,1-3.716-1.093,9.448,9.448,0,0,1-3.095-2.7A9.18,9.18,0,0,1,.359,80.475c-.006-.015-.013-.03-.019-.048A9.851,9.851,0,0,1,.03,78.672a9.18,9.18,0,0,1,.1-2.254c0-.009,0-.019,0-.025,0-.024.009-.049.012-.073.012-.07.027-.14.04-.21,0-.015.006-.034.009-.049l.009-.04c.027-.14.061-.277.094-.414a9.434,9.434,0,0,1,2.056-3.866,9.272,9.272,0,0,1,3.528-2.473,9.422,9.422,0,0,1,3.9-.649c.171.006.338.019.509.04a5.24,5.24,0,0,0-.161-1.172C5.647,55.515.609,54.592,12.056,49.731c.018-.006.033-.015.052-.021q.255-.11.521-.219c.055-.021.107-.046.161-.067s.119-.052.18-.076c.195-.079.393-.161.6-.244-.088.329-.171.658-.247.993a24.042,24.042,0,0,0-.527,4.8c.049,1.194.165,2.379.332,3.564.14.865.314,1.718.53,2.568a34.9,34.9,0,0,0,1.215,3.622q.7,1.7,1.56,3.335c.048.085.1.167.137.256.009.012.015.024.021.033h0a37.3,37.3,0,0,0,2.2,3.491,33.377,33.377,0,0,0,2.242,2.748c.4.42.8.831,1.209,1.231.445.427.908.825,1.374,1.225.454.372.917.734,1.392,1.072.49.347.99.676,1.5.993a33.563,33.563,0,0,0,3.546,1.837l.042.018a.01.01,0,0,1,.006,0c1.063.442,2.135.841,3.229,1.2.21.067.417.131.627.195a6.95,6.95,0,0,0,.019,1.206v.015c.012.161.034.32.058.472q.018.119.046.238c.012.058.025.116.04.174a.374.374,0,0,0,.013.058c.579,2.282,2.546,3.841,4.243,5.383" transform="translate(0 -49.103)" fill="#cf842f"/>
            </g>
          </g>
        </g>
      </g>
    </g>
  </g>
</svg>
