<svg xmlns="http://www.w3.org/2000/svg" xmlns:xlink="http://www.w3.org/1999/xlink" width="118" height="118" viewBox="0 0 118 118">
  <defs>
    <filter id="Elipse_12115" x="0" y="0" width="118" height="118" filterUnits="userSpaceOnUse">
      <feOffset dy="3" input="SourceAlpha"/>
      <feGaussianBlur stdDeviation="3" result="blur"/>
      <feFlood flood-opacity="0.161"/>
      <feComposite operator="in" in2="blur"/>
      <feComposite in="SourceGraphic"/>
    </filter>
    <clipPath id="clip-path">
      <rect id="Rectángulo_410267" data-name="Rectángulo 410267" width="69.88" height="71.093" fill="none"/>
    </clipPath>
  </defs>
  <g id="Grupo_1186626" data-name="Grupo 1186626" transform="translate(9 6)">
    <g id="Grupo_1181949" data-name="Grupo 1181949">
      <g transform="matrix(1, 0, 0, 1, -9, -6)" filter="url(#Elipse_12115)">
        <g id="Elipse_12115-2" data-name="Elipse 12115" transform="translate(9 6)" fill="#f3b6ad" stroke="#a87f78" stroke-width="1.5">
          <circle cx="50" cy="50" r="50" stroke="none"/>
          <circle cx="50" cy="50" r="49.25" fill="none"/>
        </g>
      </g>
    </g>
    <g id="Grupo_1186628" data-name="Grupo 1186628" transform="translate(15.06 14.454)">
      <g id="Grupo_1186627" data-name="Grupo 1186627" clip-path="url(#clip-path)">
        <path id="Trazado_1243670" data-name="Trazado 1243670" d="M10.411,91.471a1.068,1.068,0,0,1-.964-.91c-.366-2.343.483-4.943-.443-7.329S6.329,80.7,4.591,79.316A12.427,12.427,0,0,1,.767,73.978C-.1,71.466-.1,65.684.131,62.945a4.642,4.642,0,0,1,4.3-4.234c.061-1.661-.268-3.1.589-4.616,1.4-2.471,4.442-2.851,6.776-1.484,1.027-3.81,6.505-4.131,8.271-.685A4.738,4.738,0,0,1,27.3,53.711a4.66,4.66,0,0,1,7.275,3.273v15.89h2.152c.064,0,1.038.4,1.188.478a4.99,4.99,0,0,1,1.875,1.89,4.748,4.748,0,0,1,7.231,1.788,13.374,13.374,0,0,0,1.329-.589,4.584,4.584,0,0,1,5.948,3.992c-.367,6.883.865,14.269-.988,20.951-.547,1.972-1.58,3.87-1.9,5.878-.149.947-.011,2.9-.2,3.543-.074.244-.432.395-.528.653h-.833a1.511,1.511,0,0,1-.694-.972c-.553-3.448,1.379-6.762,2.211-9.934a32.938,32.938,0,0,0,.843-9.635,5.5,5.5,0,0,1-1.942.694,5.374,5.374,0,0,1-3.962-1.4l-.182.033a4.339,4.339,0,0,1-6.967-.3h-.2a4.54,4.54,0,0,1-5.3.855c-.679-.332-1.013-.936-1.649-1.276l-2.141.423.441,2.326a10.362,10.362,0,0,1,7.388,4.205c.588.849,2.248,3.586.992,4.3-1.4.79-1.893-1.744-2.465-2.685-1.475-2.43-3.36-3.15-6.029-3.689-.9-.181-1.389.2-1.793-.983A33.014,33.014,0,0,1,27.5,89.3a1.255,1.255,0,0,1,.823-1.092c1.636-.706,5.265-.588,5.863-2.606A2.477,2.477,0,0,0,31.6,82.323c-2.467.874-5.649,1.057-8.035,1.967a2.531,2.531,0,0,0-1.638,2.249c-.206,2.31-.195,7.579.418,9.725.956,3.35,2.884,4.389,5.547,6.113a8.236,8.236,0,0,1,3.344,8.108c-.068.5-.327.681-.694.972h-.694c-.421-.361-.625-.378-.694-.972-.157-1.339.129-2.311-.353-3.741-.817-2.422-2.472-2.61-4.275-3.916A11.876,11.876,0,0,1,20.442,97.2c-.8-2.424-.848-8.45-.588-11.068a4.7,4.7,0,0,1,4.289-4.109c.076-1.663-.264-3.091.6-4.609a4.815,4.815,0,0,1,6.776-1.484c-.208-.49.973-1.634.973-1.735V67.6a5.827,5.827,0,0,1-1.944.694,5.481,5.481,0,0,1-3.962-1.4l-.182.033a4.361,4.361,0,0,1-6.967-.3c-.32-.049-.444.306-.7.476a4.6,4.6,0,0,1-5.4,0c-.327-.236-.689-.836-1.058-.895l-2.135.428.414,2.481a9.767,9.767,0,0,1,7.409,3.906c.619.847,2.483,3.849.78,4.372-1.2.368-1.477-1.407-1.877-2.166a7.716,7.716,0,0,0-6.253-4.021c-.982-.133-1.521.311-1.947-.969a32.586,32.586,0,0,1-.889-4.256,1.654,1.654,0,0,1,.263-.784c.378-.462,3.912-1.085,4.759-1.387a2.455,2.455,0,0,0-.916-4.808c-2.474.857-5.641,1.054-8.035,1.967a2.531,2.531,0,0,0-1.638,2.249c-.217,2.428-.208,8.04.592,10.244,1.195,3.289,3.04,3.978,5.624,5.76,1.427.984,3.093,3.472,3.093,5.236v6.107c0,.406-.7.9-1.111.9m3.194-35.946c.009.546-.032,1.1.023,1.643a4.548,4.548,0,0,1,.952,8.141,2.4,2.4,0,0,0,3.889-1.523c-.307-3.15.406-7.066-.016-10.123a2.476,2.476,0,0,0-4.327-1.158c-.719.876-.538,1.946-.52,3.019m7.22,9.438c.929,2.33,4.315,1.774,4.685-.8a54.152,54.152,0,0,0,0-8.81,2.5,2.5,0,0,0-2.325-2.326,2.454,2.454,0,0,0-2.6,2.187,57.337,57.337,0,0,0-.042,8.713,3.1,3.1,0,0,0,.284,1.036M6.524,56.5c-.035.549.024,1.114,0,1.665l4.936-1.24A2.4,2.4,0,0,0,9.162,54c-.024,0-.091-.119-.2-.118A2.467,2.467,0,0,0,6.524,56.5m21.384,8.327a2.4,2.4,0,0,0,4.549-.657,44.744,44.744,0,0,0,0-7.151,2.443,2.443,0,0,0-4.794-.138,47.428,47.428,0,0,0-.037,7.327c.046.422.161.386.282.62m5.415,14.018c.009.546-.032,1.1.023,1.643a4.549,4.549,0,0,1,2.117,7.088,6.85,6.85,0,0,1-.935.869c-.134.123-.3.126-.233.39a2.573,2.573,0,0,0,3.879-1.6c.162-1.036-.554-3.692.98-3.808,1.665-.126,1.009,2.891,1.113,3.953a2.681,2.681,0,0,0,.276.9,2.449,2.449,0,0,0,4.685-.8,54.154,54.154,0,0,0,0-8.81A2.505,2.505,0,0,0,42.9,76.343a2.432,2.432,0,0,0-2.576,2.074c-.146.863.21,2.336-1.173,2.228-1.481-.116-.863-2.532-.972-3.539a2.471,2.471,0,0,0-4.34-1.284c-.719.876-.538,1.946-.52,3.019m-7.082.971c-.035.549.024,1.114,0,1.665l4.936-1.24a2.4,2.4,0,0,0-2.3-2.923c-.024,0-.091-.119-.2-.118a2.467,2.467,0,0,0-2.436,2.616M47.624,88.14a2.4,2.4,0,0,0,4.549-.658,44.743,44.743,0,0,0,0-7.151,2.442,2.442,0,0,0-4.794-.138,47.427,47.427,0,0,0-.037,7.327c.046.422.161.386.282.62" transform="translate(0 -40.363)" fill="#030202"/>
        <path id="Trazado_1243671" data-name="Trazado 1243671" d="M219.05.034c8.6.794,15.136,8.9,14.585,17.424-.071,1.091-.084,2.791-1.533,2.562-1.318-.208-.6-1.908-.557-2.708a14.863,14.863,0,0,0-2.334-8.768c-.126-.191-.206-.37-.441-.46-.331-1.066-2.908-3.187-3.9-3.806-10.942-6.83-24.551,3.3-21.3,15.741.551,2.11,1.116,2.423,1.18,4.858.036,1.384-.026,2.779,0,4.164h6.179c.151,0,2.271.935,2.817,1.071a14.372,14.372,0,0,0,14.4-4.539c.388-.451,1.783-2.7,1.933-2.787a2.306,2.306,0,0,1,1.19-.129c.045.316.714.5.452,1.344a13.331,13.331,0,0,1-1.705,2.607,16.416,16.416,0,0,1-17.105,5.447c-.746-.2-1.955-.83-2.547-.924-2-.317-4.77.27-6.8,0a1.18,1.18,0,0,1-.823-.566c-.335-2.161.2-4.743-.085-6.855-.1-.746-.818-2.079-1.059-2.966A16.328,16.328,0,0,1,212.911.628L215.44.034c1.167.078,2.46-.106,3.61,0" transform="translate(-163.788 0)" fill="#020304"/>
        <path id="Trazado_1243672" data-name="Trazado 1243672" d="M51.331,291.041c.691-.02,1.025.37,1.114,1.038l0,15.2c-.03.475-.36.7-.694.972h-.694c-.277-.283-.717-.426-.7-.9.346-4.925-.436-10.424,0-15.28.062-.685.227-1.013.978-1.035" transform="translate(-40.92 -237.157)" fill="#030202"/>
        <path id="Trazado_1243673" data-name="Trazado 1243673" d="M181.651,378.753h1.944a1.51,1.51,0,0,0,.694.971h-19.3c.367-.29.626-.472.694-.971Z" transform="translate(-134.442 -308.631)" fill="#fefefe"/>
        <path id="Trazado_1243674" data-name="Trazado 1243674" d="M75.151,378.753h1.666c.069.593.273.611.694.971H58.488c.334-.27.664-.5.694-.971Z" transform="translate(-47.66 -308.631)" fill="#fdfdfd"/>
        <path id="Trazado_1243675" data-name="Trazado 1243675" d="M19.625,133.157c.414,0,1.111-.5,1.111-.9v-6.107c0-1.764-1.666-4.252-3.093-5.236-2.584-1.782-4.429-2.471-5.624-5.76-.8-2.2-.809-7.816-.592-10.244a2.532,2.532,0,0,1,1.638-2.249c2.395-.914,5.562-1.111,8.035-1.967a2.455,2.455,0,0,1,.916,4.808c-.847.3-4.38.925-4.759,1.387a1.653,1.653,0,0,0-.263.784,32.6,32.6,0,0,0,.889,4.256c.426,1.279.965.836,1.947.969a7.716,7.716,0,0,1,6.253,4.02c.4.759.677,2.535,1.877,2.166,1.7-.523-.161-3.525-.78-4.372a9.767,9.767,0,0,0-7.409-3.906l-.414-2.481,2.135-.428c.369.059.732.659,1.058.895a4.6,4.6,0,0,0,5.4,0c.257-.169.381-.524.7-.475a4.361,4.361,0,0,0,6.967.3l.182-.033a5.48,5.48,0,0,0,3.962,1.4c-.341,1.373.211,4.586-1.386,5.207-.964.375-2.083.21-3.248.778-2.6,1.27-3.38,3.8-3.482,6.512a5.568,5.568,0,0,0-3.252,2.856c-.9,1.915-.976,7.718-.849,9.974.242,4.309,1.547,7.612,5.009,10.26,1.609,1.231,3.863,1.734,4.138,4.052.1.816-.038,1.725.015,2.552H20.735l0-15.2c-.089-.667-.423-1.057-1.114-1.038Z" transform="translate(-9.213 -82.049)" fill="#c76f5c"/>
        <path id="Trazado_1243676" data-name="Trazado 1243676" d="M248.563,55.6c.077.646-.9,2.18-.833,2.637a2.31,2.31,0,0,0-1.19.129c-.15.089-1.545,2.335-1.933,2.787a14.372,14.372,0,0,1-14.4,4.539c-.546-.136-2.666-1.071-2.816-1.071h-6.179c-.026-1.385.036-2.779,0-4.164a16.14,16.14,0,0,0,23.117-7.774c.962-2.392,1.674-6.543.9-9.019.236.09.315.269.441.46a14.863,14.863,0,0,1,2.334,8.768c-.044.8-.76,2.5.557,2.708" transform="translate(-180.248 -35.579)" fill="#3ba3f0"/>
        <path id="Trazado_1243677" data-name="Trazado 1243677" d="M127.238,254.794a8.236,8.236,0,0,0-3.344-8.108c-2.664-1.725-4.591-2.764-5.547-6.113-.612-2.146-.624-7.416-.418-9.725a2.532,2.532,0,0,1,1.638-2.249c2.387-.911,5.569-1.093,8.035-1.967a2.477,2.477,0,0,1,2.582,3.281c-.6,2.018-4.226,1.9-5.863,2.606a1.256,1.256,0,0,0-.823,1.093,33.014,33.014,0,0,0,.888,4.117c.4,1.183.9.8,1.793.983,2.669.539,4.555,1.259,6.029,3.689.572.942,1.068,3.475,2.465,2.685,1.256-.71-.4-3.447-.992-4.3a10.363,10.363,0,0,0-7.388-4.205l-.441-2.326,2.141-.423c.636.34.97.944,1.649,1.276a4.54,4.54,0,0,0,5.3-.855l.2,0a4.339,4.339,0,0,0,6.967.3l.182-.033a5.375,5.375,0,0,0,3.962,1.4,30.521,30.521,0,0,1-1.29,7.663,37.735,37.735,0,0,0-1.589,4.658c-.377,2.149-.083,4.382-.176,6.555Z" transform="translate(-95.998 -184.672)" fill="#d38679"/>
        <path id="Trazado_1243678" data-name="Trazado 1243678" d="M111,147.807a5.827,5.827,0,0,0,1.944-.694v6.592c0,.1-1.181,1.245-.973,1.735a4.815,4.815,0,0,0-6.776,1.484c-.86,1.519-.52,2.946-.6,4.609a4.7,4.7,0,0,0-4.289,4.109c-.26,2.618-.211,8.645.588,11.068a11.875,11.875,0,0,0,4.086,5.631c1.8,1.306,3.458,1.494,4.275,3.916.482,1.43.2,2.4.353,3.741h-1.666c-.053-.827.082-1.736-.015-2.552-.276-2.318-2.529-2.821-4.138-4.052-3.462-2.648-4.767-5.95-5.009-10.26-.127-2.256-.052-8.059.849-9.974a5.569,5.569,0,0,1,3.252-2.856c.1-2.714.878-5.242,3.482-6.512,1.165-.568,2.285-.4,3.248-.778,1.6-.621,1.045-3.834,1.386-5.207" transform="translate(-80.457 -119.877)" fill="#ad5549"/>
        <path id="Trazado_1243679" data-name="Trazado 1243679" d="M256.836,292.623h-1.944c.093-2.173-.2-4.406.176-6.555a37.743,37.743,0,0,1,1.588-4.658,30.52,30.52,0,0,0,1.29-7.663,5.507,5.507,0,0,0,1.942-.694,32.935,32.935,0,0,1-.843,9.635c-.832,3.172-2.764,6.485-2.211,9.934" transform="translate(-207.684 -222.501)" fill="#c66e5b"/>
        <path id="Trazado_1243680" data-name="Trazado 1243680" d="M185.791,192.534v2.776c-1.534.117-.818,2.772-.981,3.808a2.573,2.573,0,0,1-3.879,1.6c-.065-.264.1-.267.233-.39a6.841,6.841,0,0,0,.935-.869,4.548,4.548,0,0,0-2.117-7.088c-.055-.544-.014-1.1-.023-1.643.81-.059,2.112,1.429,2.566.413.353-.791-.113-3.307.073-4.3a2.359,2.359,0,0,1,2.222,2.151c.109,1.007-.509,3.424.972,3.54" transform="translate(-146.637 -152.252)" fill="#c56d5b"/>
        <path id="Trazado_1243681" data-name="Trazado 1243681" d="M76.1,60.9a2.366,2.366,0,0,1,2.209,2.025c.422,3.056-.292,6.973.016,10.123a2.4,2.4,0,0,1-3.889,1.523,4.548,4.548,0,0,0-.952-8.141c-.055-.544-.014-1.1-.023-1.643.8-.059,2.127,1.4,2.566.413.353-.792-.113-3.306.073-4.3" transform="translate(-59.854 -49.628)" fill="#ad5549"/>
        <path id="Trazado_1243682" data-name="Trazado 1243682" d="M218.988,206.277a3.133,3.133,0,0,0,2.324-2.6l.036-9.332a2.505,2.505,0,0,1,2.325,2.326,54.155,54.155,0,0,1,0,8.81,2.449,2.449,0,0,1-4.685.8" transform="translate(-178.445 -158.361)" fill="#c36d5a"/>
        <path id="Trazado_1243683" data-name="Trazado 1243683" d="M114.849,68.4a2.505,2.505,0,0,1,2.325,2.326,54.153,54.153,0,0,1,0,8.81c-.37,2.574-3.756,3.129-4.685.8a3.141,3.141,0,0,0,2.324-2.6Z" transform="translate(-91.662 -55.737)" fill="#ab5448"/>
        <path id="Trazado_1243684" data-name="Trazado 1243684" d="M215.237,194.326l-.036,9.332a3.133,3.133,0,0,1-2.324,2.6,2.68,2.68,0,0,1-.276-.9c-.1-1.062.552-4.079-1.113-3.953v-2.776c1.383.108,1.027-1.364,1.173-2.228a2.432,2.432,0,0,1,2.576-2.074" transform="translate(-172.333 -158.346)" fill="#d38578"/>
        <path id="Trazado_1243685" data-name="Trazado 1243685" d="M112.964,68.387l-.036,9.332a3.141,3.141,0,0,1-2.324,2.6,3.1,3.1,0,0,1-.284-1.035,57.339,57.339,0,0,1,.042-8.713,2.454,2.454,0,0,1,2.6-2.187" transform="translate(-89.777 -55.723)" fill="#c56d5b"/>
        <path id="Trazado_1243686" data-name="Trazado 1243686" d="M150.738,88.749a3.874,3.874,0,0,0,2.189-2.462l.033-7.392a2.579,2.579,0,0,1,2.328,2.045,44.743,44.743,0,0,1,0,7.151,2.4,2.4,0,0,1-4.549.658" transform="translate(-122.83 -64.288)" fill="#ae564a"/>
        <path id="Trazado_1243687" data-name="Trazado 1243687" d="M257.238,214.689a3.874,3.874,0,0,0,2.189-2.462l.033-7.392a2.579,2.579,0,0,1,2.328,2.045,44.741,44.741,0,0,1,0,7.151,2.4,2.4,0,0,1-4.549.658" transform="translate(-209.613 -166.912)" fill="#c66e5c"/>
        <path id="Trazado_1243688" data-name="Trazado 1243688" d="M151.179,78.894l-.033,7.392a3.874,3.874,0,0,1-2.189,2.462c-.121-.234-.235-.2-.282-.62a47.43,47.43,0,0,1,.037-7.327,2.57,2.57,0,0,1,2.466-1.907" transform="translate(-121.05 -64.287)" fill="#c76e5b"/>
        <path id="Trazado_1243689" data-name="Trazado 1243689" d="M257.679,204.833l-.033,7.392a3.873,3.873,0,0,1-2.189,2.462c-.121-.234-.235-.2-.282-.619a47.432,47.432,0,0,1,.037-7.328,2.57,2.57,0,0,1,2.466-1.907" transform="translate(-207.833 -166.91)" fill="#d48679"/>
        <path id="Trazado_1243690" data-name="Trazado 1243690" d="M144.327,199.588a2.4,2.4,0,0,1,2.3,2.923l-4.936,1.24c.023-.551-.036-1.115,0-1.665,1.752-.355,3.017-.221,2.638-2.5" transform="translate(-115.447 -162.636)" fill="#c46d5a"/>
        <path id="Trazado_1243691" data-name="Trazado 1243691" d="M37.827,73.648a2.4,2.4,0,0,1,2.3,2.923l-4.936,1.24c.023-.551-.036-1.115,0-1.665,1.735-.381,3.027-.22,2.638-2.5" transform="translate(-28.664 -60.013)" fill="#ab5449"/>
        <path id="Trazado_1243692" data-name="Trazado 1243692" d="M182.483,186.811c-.186.992.281,3.508-.073,4.3-.454,1.016-1.756-.472-2.566-.413-.017-1.073-.2-2.143.52-3.019a2.345,2.345,0,0,1,2.118-.867" transform="translate(-146.521 -152.219)" fill="#d28578"/>
        <path id="Trazado_1243693" data-name="Trazado 1243693" d="M75.983,60.871c-.186.993.281,3.507-.073,4.3-.438.983-1.766-.472-2.566-.413-.017-1.073-.2-2.143.52-3.019a2.344,2.344,0,0,1,2.118-.867" transform="translate(-59.739 -49.595)" fill="#c66d5b"/>
        <path id="Trazado_1243694" data-name="Trazado 1243694" d="M144.376,199.069c.379,2.277-.886,2.144-2.638,2.5a2.467,2.467,0,0,1,2.436-2.616c.112,0,.179.116.2.118" transform="translate(-115.497 -162.117)" fill="#d18578"/>
        <path id="Trazado_1243695" data-name="Trazado 1243695" d="M37.876,73.129c.389,2.279-.9,2.118-2.638,2.5a2.467,2.467,0,0,1,2.436-2.616c.112,0,.179.116.2.118" transform="translate(-28.714 -59.494)" fill="#c46d5a"/>
        <path id="Trazado_1243696" data-name="Trazado 1243696" d="M237.917,17.222c.769,2.476.057,6.627-.9,9.019A16.14,16.14,0,0,1,213.9,34.016c-.063-2.435-.629-2.748-1.18-4.858-3.249-12.444,10.36-22.57,21.3-15.741.991.619,3.568,2.739,3.9,3.806m-20.55,5.552a5.7,5.7,0,0,0,.555,2.637c-1.42,1.559,1.251,3.493,2.5,4.232-.825.583-4.738,1.626-2.686,3.1a46.257,46.257,0,0,0,4.947,2.689c2.788.82,2.709-1.867,4.674-2.33a19.988,19.988,0,0,0,2.882-.589,7.178,7.178,0,0,0,4.623-6.205,16.782,16.782,0,0,1,.1-2.54c.393-1.632,2.576-1.545,1.019-3.429-1.584-1.917-3.984-3.136-6.3-1.57-1.347.912-1.5,1.953-1.894,3.385-.05.183.1.231-.186.177-1.888-.356-4.567-2.293-6.13-3.452-.9-.667-2.307-2.492-3.4-1.726-.927.646-3.017,5.645-.7,5.618" transform="translate(-172.936 -9.139)" fill="#4db6f6"/>
        <path id="Trazado_1243697" data-name="Trazado 1243697" d="M235.338,48.11c-2.32.027-.23-4.972.7-5.618,1.1-.766,2.506,1.059,3.4,1.726,1.563,1.159,4.242,3.1,6.13,3.452.284.054.136.006.186-.177.393-1.432.547-2.473,1.894-3.385,2.314-1.566,4.714-.347,6.3,1.57,1.557,1.885-.626,1.8-1.019,3.429a16.786,16.786,0,0,0-.1,2.54,7.178,7.178,0,0,1-4.623,6.205,19.989,19.989,0,0,1-2.882.589c-1.965.462-1.886,3.149-4.674,2.33a46.258,46.258,0,0,1-4.947-2.689c-2.052-1.476,1.861-2.519,2.686-3.1-1.248-.74-3.919-2.673-2.5-4.232,1.4-.288,1.624.979,2.5,1.736a5.172,5.172,0,0,0,2.447,1.163c.718.09,1.466-.25,1.921.438a1.07,1.07,0,0,1-.1,1.343,36.993,36.993,0,0,1-3.477,1.594,1.165,1.165,0,0,1-.512.11c-.069.325.044.222.179.31a14.517,14.517,0,0,0,2.777,1.336c.518-.416.824-1.006,1.347-1.44,2.119-1.761,5.1-.426,6.92-3.354,1.34-2.16.392-4.031,1.206-6.012.159-.386.814-1.164.748-1.43-1.446-1.784-3.687-1.208-4,1.1-.113.838.287,1.6-.783,1.994-3.069,1.126-7.545-3.027-9.854-4.577-.115-.077-.132-.2-.347-.138-.454.854-.308,3.178-1.529,3.192" transform="translate(-190.907 -34.475)" fill="#020304"/>
        <path id="Trazado_1243698" data-name="Trazado 1243698" d="M239.928,59.529c1.22-.014,1.075-2.338,1.529-3.192.215-.059.232.061.347.138,2.309,1.55,6.785,5.7,9.854,4.577,1.069-.392.67-1.155.783-1.994.31-2.305,2.55-2.881,4-1.1.066.265-.589,1.043-.748,1.43-.814,1.98.134,3.852-1.206,6.012-1.817,2.928-4.8,1.593-6.92,3.354-.523.435-.828,1.024-1.347,1.44a14.516,14.516,0,0,1-2.777-1.336c-.135-.087-.248.015-.179-.31a1.164,1.164,0,0,0,.512-.11,37,37,0,0,0,3.477-1.594,1.07,1.07,0,0,0,.1-1.343c-.455-.688-1.2-.348-1.921-.438a5.172,5.172,0,0,1-2.447-1.163c-.874-.758-1.1-2.024-2.5-1.736a5.7,5.7,0,0,1-.555-2.637" transform="translate(-195.497 -45.894)" fill="#f2f5f6"/>
      </g>
    </g>
  </g>
</svg>
