<svg xmlns="http://www.w3.org/2000/svg" xmlns:xlink="http://www.w3.org/1999/xlink" width="118" height="118" viewBox="0 0 118 118">
  <defs>
    <filter id="Elipse_12115" x="0" y="0" width="118" height="118" filterUnits="userSpaceOnUse">
      <feOffset dy="3" input="SourceAlpha"/>
      <feGaussianBlur stdDeviation="3" result="blur"/>
      <feFlood flood-opacity="0.161"/>
      <feComposite operator="in" in2="blur"/>
      <feComposite in="SourceGraphic"/>
    </filter>
    <clipPath id="clip-path">
      <rect id="Rectángulo_410280" data-name="Rectángulo 410280" width="62" height="62" transform="translate(0 -0.178)" fill="none"/>
    </clipPath>
  </defs>
  <g id="Grupo_1186633" data-name="Grupo 1186633" transform="translate(-745.781 -3846)">
    <g id="Grupo_1181949" data-name="Grupo 1181949" transform="translate(-54 1303)">
      <g transform="matrix(1, 0, 0, 1, 799.78, 2543)" filter="url(#Elipse_12115)">
        <g id="Elipse_12115-2" data-name="Elipse 12115" transform="translate(9 6)" fill="#eceff0" stroke="#f5f5f5" stroke-width="1.5">
          <circle cx="50" cy="50" r="50" stroke="none"/>
          <circle cx="50" cy="50" r="49.25" fill="none"/>
        </g>
      </g>
    </g>
    <g id="Grupo_1186646" data-name="Grupo 1186646" transform="translate(774.264 3871.01)">
      <g id="Grupo_1186645" data-name="Grupo 1186645" transform="translate(0 -0.136)" clip-path="url(#clip-path)">
        <path id="Trazado_1243778" data-name="Trazado 1243778" d="M251.978,91.236c-.428.427-.818,3.441-1.346,4.1a1.064,1.064,0,0,1-1.16.093c-.561-.361-1.059-3.437-1.5-4.157-.725-.5-4.086-.96-4.311-1.71a.85.85,0,0,1,.346-1.048c.723-.439,3.625-.928,3.973-1.326.528-1.107.666-2.676,1.192-3.742a.835.835,0,0,1,1.126-.51c.772.231,1.207,3.568,1.71,4.306.3.283,3.031.858,3.677,1.141a.891.891,0,0,1,.577,1.179c-.223.744-3.543,1.244-4.284,1.677m-1.32-2.707-.754-1.891-.66,1.928-1.871.6,1.924.784.607,1.861.754-1.891,1.894-.636Z" transform="translate(-204.461 -69.441)" fill="#040403"/>
        <path id="Trazado_1243779" data-name="Trazado 1243779" d="M323.127,139.044c-.452.446-2.637.7-3.287,1.109-.636.741-.675,4.392-2.269,3.481-.64-.366-.9-2.775-1.338-3.475-.665-.386-3.091-.71-3.421-1.275-.926-1.585,2.655-1.715,3.452-2.24.468-.752.708-4.435,2.245-3.448.54.347.866,2.781,1.268,3.424.351.393,2.816.68,3.329,1.127a.971.971,0,0,1,.02,1.3m-3.582-.687c-1.014-.162-1.263-.485-1.5-1.444a1.892,1.892,0,0,1-1.508,1.5c0,.095.884.288,1.052.454.259.256.16.866.514,1.049l.359-1.026Z" transform="translate(-262.417 -111.537)" fill="#040403"/>
        <path id="Trazado_1243780" data-name="Trazado 1243780" d="M196.386,191.626c-.068.386.195.208.421.236a6.765,6.765,0,0,1,4.838,2.78c.445-.045.953-.291,1.368-.369.3-.058.734-.064,1.084-.12l2.212.739a6.056,6.056,0,0,1,3.109,3.452c3.5-.03,5.82,3.615,5.163,6.876a3.738,3.738,0,0,1-2.471,1.2l-16.847.006c-1.935-3.921-6.157-5.36-9.961-6.863.561-1.382,2.5-2.277,3.931-2.388.675-.052,1.48.24,1.968-.082.447-.3.636-1.685.948-2.3a6.133,6.133,0,0,1,4.238-3.167" transform="translate(-155.524 -160.718)" fill="#dee5ec"/>
        <path id="Trazado_1243781" data-name="Trazado 1243781" d="M312.753,217.717c.658-3.261-1.659-6.906-5.163-6.875a6.054,6.054,0,0,0-3.108-3.452l-2.212-.739c2.166-.347,3.965-.1,5.419,1.747.36.457.807,1.678,1.02,1.868.366.327,1,.167,1.424.262,2.977.668,4.832,4.83,2.619,7.189" transform="translate(-253.696 -173.216)" fill="#c5cbd1"/>
        <path id="Trazado_1243782" data-name="Trazado 1243782" d="M260.853,192.969c-.415.079-.922.325-1.367.369a6.765,6.765,0,0,0-4.838-2.78c-.226-.028-.489.151-.421-.236a5.129,5.129,0,0,1,1.387-.249,6.913,6.913,0,0,1,5.24,2.9" transform="translate(-213.364 -159.414)" fill="#c5cad0"/>
        <path id="Trazado_1243783" data-name="Trazado 1243783" d="M270.32,108.188l1.894.753-1.894.636-.754,1.891-.607-1.861-1.924-.784,1.871-.6.66-1.928Z" transform="translate(-224.123 -89.1)" fill="#f5ca39"/>
        <path id="Trazado_1243784" data-name="Trazado 1243784" d="M339.768,158.641l-1.087.536-.359,1.026c-.354-.184-.255-.794-.514-1.049-.168-.166-1.052-.359-1.052-.454a1.892,1.892,0,0,0,1.508-1.5c.242.959.491,1.283,1.5,1.444" transform="translate(-282.64 -131.821)" fill="#f2c738"/>
        <path id="Trazado_1243785" data-name="Trazado 1243785" d="M.015,60.041c.218-3.942,1-10.222,3.276-13.51,2.737-3.951,7.837-4.762,11.791-7.02l-.067-2.2A16.969,16.969,0,0,1,9.036,26.136a4.578,4.578,0,0,1-3.418-5.79c.155-.547.709-1.261.778-1.629.316-1.7-.147-4.49.007-6.368A10.911,10.911,0,0,1,18.5,2.558c2.3.331,4.7,2.173,6.76,2.028.718-.05,1.491-.314,2.271-.313a8.635,8.635,0,0,1,8.195,6.95c.523,2.405-.157,5.117.206,7.372a13.184,13.184,0,0,0,.689,1.357,4.614,4.614,0,0,1-3.34,6.173,17.147,17.147,0,0,1-6.006,11.266l-.005,2.181.872.37a7.18,7.18,0,0,1,6.447-3.25,7.908,7.908,0,0,1,12.05-4.367c.314.217,1.431,1.324,1.531,1.343a11.188,11.188,0,0,0,1.193-.209,7.048,7.048,0,0,1,6.829,4.065c2.721.165,5.206,2.94,5.52,5.556v2.045a5.71,5.71,0,0,1-2.894,3.667,11.058,11.058,0,0,1-1.625.543H40.5a45.963,45.963,0,0,1,1.8,13.288l-.619.585-40.531.085a1.227,1.227,0,0,1-1.14-.606c.036-.877-.048-1.771,0-2.646M10.137,7.6a10.759,10.759,0,0,0-2.048,4.751V17.46a2.553,2.553,0,0,1,1.434-.373c.264-.706.236-2.524.86-2.93a14.627,14.627,0,0,1,2.4-.606,8.152,8.152,0,0,0,3.19-1.747c.457-.41,1.17-1.506,1.7-1.56.709-.073,1.4,1.008,1.92,1.44,2.807,2.325,6.165,2.76,9.7,2.53a8.3,8.3,0,0,1,2.575-.1c.755.4.557,2.162.976,2.874l1.389.357V12.468c0-1.955-1.861-4.645-3.534-5.614-2.034-1.178-3.088-.748-5.2-.583-2.679.209-4.027-1.281-6.369-1.818A8.672,8.672,0,0,0,10.137,7.6M29.9,15.9c-4.432.354-8.725-.253-12.006-3.48a18.17,18.17,0,0,0-1.5,1.244,12.309,12.309,0,0,1-4.815,1.954c-1.453,6.484-1.869,13.32,2.774,18.629,2.546,2.911,5.658,4.854,9.522,3.184C29.944,34.8,32.212,27.5,31.7,21.37c-.156-1.88-.61-3.728-.843-5.6-.328.011-.636.095-.964.121M9.172,18.9a2.922,2.922,0,0,0-.419,5.411c.4.116.054-.851.058-1.021ZM33.513,24.2c.255.261,1.214-.861,1.35-1.117A2.873,2.873,0,0,0,33.151,18.9Zm7.349,8.661a6.134,6.134,0,0,0-4.238,3.167c-.312.616-.5,2.005-.948,2.3-.488.322-1.293.03-1.968.082-1.433.111-3.37,1.006-3.931,2.388,3.8,1.5,8.026,2.942,9.961,6.863l16.848-.006a3.738,3.738,0,0,0,2.471-1.2c2.213-2.359.358-6.521-2.619-7.189-.424-.1-1.058.065-1.424-.262-.213-.19-.66-1.411-1.02-1.868-1.455-1.845-3.253-2.094-5.419-1.747-.351.056-.782.063-1.085.12a6.914,6.914,0,0,0-5.24-2.9,5.134,5.134,0,0,0-1.387.249m-24.1,6.375a5.178,5.178,0,0,1-.025,1.118c-.161.556-2.379,1.47-2.987,1.65-.151.207,2.1,2.815,2.349,3.244a4.364,4.364,0,0,1,4.1-1.928c.565,0,1.13,0,1.682.007,1.964.018,3.146.2,4.336,1.921.619-.8,1.276-1.584,1.868-2.4.191-.265.549-.466.477-.836-.513-.238-3.008-1.237-3.008-1.75V38.51a8.083,8.083,0,0,1-8.736,0c-.116.182-.056.5-.059.721M7.847,53.245c.2.729-.15,2.351,0,3.188.187.042.283-.043.43-.112a43.206,43.206,0,0,0,5.05-3.5c1.93-1.655,1.165-3.525,1.983-5.714l-3.2-4.277c-3.472,1.312-6.637,2.612-8.258,6.184-1.6,3.524-1.8,7.935-2.026,11.749l4.311-2.911c.245-.419-.18-3.58.079-4.433.243-.8,1.471-.761,1.633-.174m21.93-9.8c-.925,1.177-1.825,2.38-2.743,3.564.771,1.874.116,4.353,1.843,5.695l5.6,3.853V53.245c0-.367,1.065-.6,1.415-.269.6.564.061,3.858.331,4.781.941.743,1.965,1.37,2.953,2.044.182.124,1.192.987,1.325.841-.146-3.462-.4-7.343-1.6-10.614-1.553-4.25-4.678-5.821-8.744-7.17a2.547,2.547,0,0,1-.383.584m-9.4,1.564c-2.6-.382-3.383,1.885-3.8,3.965-.588,2.932-.07,3.513-2.669,5.515-3.1,2.391-6.683,4.427-9.838,6.778l-.2.341h8.615l7.892-7.037Zm18.074,16.6c0-.308-.45-.522-.685-.7-2.978-2.25-6.385-4.166-9.354-6.42-2.673-2.029-2.051-2.8-2.693-5.732-.423-1.931-1.248-4.106-3.655-3.749v9.563l7.772,7.037Zm-11.326,0-5.964-5.417L15.2,61.605Z" transform="translate(0 -1.948)" fill="#040404"/>
        <path id="Trazado_1243786" data-name="Trazado 1243786" d="M85.2,67.907c.065,1.285.431,2.533.587,3.8.7,5.764-.118,11.165-4.2,15.5l-2.413,2.222c-3.864,1.67-6.976-.273-9.522-3.184-4.643-5.309-4.227-12.145-2.774-18.629a12.306,12.306,0,0,0,4.815-1.954,18.139,18.139,0,0,1,1.5-1.244c3.28,3.226,7.573,3.834,12.005,3.48M70.71,71.785c-1,.143-2.546,1.524-1.713,2.494s1.425-.539,1.62-.659c1.027-.627,1,1.1,2.082.883,1.608-.326.044-3.006-1.99-2.717m10.844,0C80.066,72,78.727,74.2,80.228,74.5c1.086.218.83-.953,1.658-.953s.572,1.171,1.658.953c1.57-.315.073-3.01-1.99-2.717M72.579,83.7c-.893.947,1.11,2.092,1.815,2.4a4.895,4.895,0,0,0,4.224-.036c.77-.345,2.749-1.509,1.637-2.447-.733-.618-1.727.655-2.528.956a3.048,3.048,0,0,1-2.692-.076c-.76-.33-1.72-1.575-2.456-.794" transform="translate(-55.302 -53.959)" fill="#f9bc7f"/>
        <path id="Trazado_1243787" data-name="Trazado 1243787" d="M17.374,264.107c-.162-.587-1.39-.624-1.633.174-.26.853.166,4.014-.079,4.433l-4.311,2.911c.228-3.814.427-8.225,2.026-11.749C15,256.3,18.163,255,21.635,253.692l3.2,4.277c-.818,2.189-.052,4.059-1.983,5.714a43.207,43.207,0,0,1-5.05,3.5c-.147.07-.243.154-.43.113-.15-.837.2-2.458,0-3.188" transform="translate(-9.527 -212.81)" fill="#68a5fc"/>
        <path id="Trazado_1243788" data-name="Trazado 1243788" d="M63.081,16.724a8.672,8.672,0,0,1,8.992-3.143c2.341.537,3.69,2.027,6.368,1.818,2.116-.165,3.17-.6,5.2.583,1.673.969,3.534,3.658,3.534,5.614v4.872L85.79,26.11c-.419-.712-.22-2.479-.976-2.874a8.3,8.3,0,0,0-2.575.1,7.658,7.658,0,0,0-5.735-4.8,12.767,12.767,0,0,0-3.363.226c-2.22.171-3.975-1.392-6.082-1.863a11.738,11.738,0,0,0-3.977-.179" transform="translate(-52.944 -11.076)" fill="#446080"/>
        <path id="Trazado_1243789" data-name="Trazado 1243789" d="M180.37,273.856c-.988-.674-2.012-1.3-2.953-2.044-.271-.923.271-4.217-.331-4.781-.35-.328-1.415-.1-1.415.269v3.308l-5.6-3.853c-1.727-1.341-1.072-3.821-1.843-5.695.918-1.184,1.818-2.387,2.743-3.564,2.048.847,4.326,1.814,5.845,3.487,2.385,2.625,3.192,7.211,3.552,10.648a5.508,5.508,0,0,1,0,2.224" transform="translate(-141.194 -216.003)" fill="#68a6fd"/>
        <path id="Trazado_1243790" data-name="Trazado 1243790" d="M40.6,267.006v9.563l-7.892,7.037H24.09l.2-.341c3.155-2.351,6.734-4.387,9.838-6.778,2.6-2,2.081-2.583,2.669-5.515.417-2.081,1.2-4.347,3.8-3.965" transform="translate(-20.219 -223.949)" fill="#f6b97e"/>
        <path id="Trazado_1243791" data-name="Trazado 1243791" d="M153.7,283.624h-8.615l-7.772-7.037v-9.563c2.407-.358,3.232,1.818,3.655,3.749.642,2.932.021,3.7,2.693,5.732,2.969,2.254,6.376,4.17,9.354,6.42.235.178.682.391.685.7" transform="translate(-115.246 -223.967)" fill="#f7ba7e"/>
        <path id="Trazado_1243792" data-name="Trazado 1243792" d="M71.541,40.588c-3.531.23-6.889-.2-9.7-2.53-.521-.432-1.211-1.512-1.92-1.44-.531.055-1.244,1.15-1.7,1.56a8.153,8.153,0,0,1-3.19,1.747,14.629,14.629,0,0,0-2.4.606c-.624.406-.6,2.225-.86,2.93a2.554,2.554,0,0,0-1.434.373V38.723a10.761,10.761,0,0,1,2.048-4.751,11.747,11.747,0,0,1,3.978.179c2.107.472,3.862,2.035,6.082,1.863a12.768,12.768,0,0,1,3.363-.226,7.658,7.658,0,0,1,5.735,4.8" transform="translate(-42.246 -28.324)" fill="#4c6b8e"/>
        <path id="Trazado_1243793" data-name="Trazado 1243793" d="M88.549,231.3a12.52,12.52,0,0,1,1.781.688,9.1,9.1,0,0,0,5.929-.206l.021,1.3,3.595,1.823c-.591.82-1.249,1.6-1.868,2.4-1.19-1.719-2.372-1.9-4.336-1.921-.552,0-1.118,0-1.682-.007a4.365,4.365,0,0,0-4.1,1.928c-.246-.429-2.5-3.037-2.349-3.244.608-.18,2.827-1.094,2.987-1.65a5.178,5.178,0,0,0,.025-1.118" transform="translate(-71.785 -194.014)" fill="#dea871"/>
        <path id="Trazado_1243794" data-name="Trazado 1243794" d="M106.5,342.232H94.573l5.964-5.417Z" transform="translate(-79.375 -282.575)" fill="#66a2f7"/>
        <path id="Trazado_1243795" data-name="Trazado 1243795" d="M185.3,254.446a2.541,2.541,0,0,0,.383-.584c4.066,1.349,7.191,2.921,8.744,7.17,1.2,3.271,1.451,7.152,1.6,10.614-.133.145-1.143-.717-1.325-.841a5.505,5.505,0,0,0,0-2.224c-.359-3.437-1.167-8.023-3.552-10.648-1.52-1.673-3.8-2.64-5.846-3.487" transform="translate(-155.523 -212.952)" fill="#5d93e2"/>
        <path id="Trazado_1243796" data-name="Trazado 1243796" d="M154.584,85.45c.328-.026.636-.111.964-.121.233,1.867.687,3.716.843,5.6.508,6.13-1.76,13.434-7.831,16.057l2.413-2.222c4.081-4.34,4.9-9.741,4.2-15.5-.156-1.271-.522-2.52-.587-3.8" transform="translate(-124.686 -71.502)" fill="#dca670"/>
        <path id="Trazado_1243797" data-name="Trazado 1243797" d="M104.255,227.529c0-.221-.057-.539.059-.721a8.083,8.083,0,0,0,8.736,0v1.744c0,.513,2.494,1.512,3.008,1.75.071.37-.286.571-.477.836l-3.595-1.823-.021-1.3a9.1,9.1,0,0,1-5.929.206,12.516,12.516,0,0,0-1.781-.688" transform="translate(-87.491 -190.245)" fill="#c69564"/>
        <path id="Trazado_1243798" data-name="Trazado 1243798" d="M46.413,104.8l-.361,4.39c0,.169.341,1.137-.058,1.021a2.922,2.922,0,0,1,.419-5.411" transform="translate(-37.24 -87.842)" fill="#d9a46e"/>
        <path id="Trazado_1243799" data-name="Trazado 1243799" d="M206.66,110.089,206.3,104.8a2.873,2.873,0,0,1,1.711,4.175c-.135.256-1.095,1.379-1.35,1.117" transform="translate(-173.147 -87.842)" fill="#dba56f"/>
        <path id="Trazado_1243800" data-name="Trazado 1243800" d="M106.34,183.009c.736-.78,1.7.464,2.456.794a3.048,3.048,0,0,0,2.692.076c.8-.3,1.795-1.574,2.528-.956,1.112.938-.867,2.1-1.637,2.447a4.895,4.895,0,0,1-4.224.036c-.7-.3-2.708-1.45-1.815-2.4" transform="translate(-89.062 -153.273)" fill="#050403"/>
        <path id="Trazado_1243801" data-name="Trazado 1243801" d="M153.005,110.095c2.063-.293,3.56,2.4,1.99,2.717-1.086.218-.83-.953-1.658-.953s-.572,1.171-1.658.953c-1.5-.3-.162-2.506,1.327-2.717" transform="translate(-126.753 -92.269)" fill="#070504"/>
        <path id="Trazado_1243802" data-name="Trazado 1243802" d="M85.693,110.1c2.034-.289,3.6,2.391,1.99,2.717-1.085.22-1.055-1.509-2.082-.882-.2.119-.784,1.632-1.62.659s.708-2.351,1.713-2.494" transform="translate(-70.285 -92.272)" fill="#070503"/>
      </g>
    </g>
  </g>
</svg>
