<svg xmlns="http://www.w3.org/2000/svg" xmlns:xlink="http://www.w3.org/1999/xlink" width="118" height="118" viewBox="0 0 118 118">
  <defs>
    <filter id="Elipse_12115" x="0" y="0" width="118" height="118" filterUnits="userSpaceOnUse">
      <feOffset dy="3" input="SourceAlpha"/>
      <feGaussianBlur stdDeviation="3" result="blur"/>
      <feFlood flood-opacity="0.161"/>
      <feComposite operator="in" in2="blur"/>
      <feComposite in="SourceGraphic"/>
    </filter>
    <clipPath id="clip-path">
      <rect id="Rectángulo_410285" data-name="Rectángulo 410285" width="68" height="68" transform="translate(0 -0.4)" fill="none"/>
    </clipPath>
  </defs>
  <g id="Grupo_1186649" data-name="Grupo 1186649" transform="translate(-745.781 -3846)">
    <g id="Grupo_1181949" data-name="Grupo 1181949" transform="translate(-54 1303)">
      <g transform="matrix(1, 0, 0, 1, 799.78, 2543)" filter="url(#Elipse_12115)">
        <g id="Elipse_12115-2" data-name="Elipse 12115" transform="translate(9 6)" fill="#eceff0" stroke="#f5f5f5" stroke-width="1.5">
          <circle cx="50" cy="50" r="50" stroke="none"/>
          <circle cx="50" cy="50" r="49.25" fill="none"/>
        </g>
      </g>
    </g>
    <g id="Grupo_1186655" data-name="Grupo 1186655" transform="translate(770.883 3868.368)">
      <g id="Grupo_1186654" data-name="Grupo 1186654" clip-path="url(#clip-path)">
        <path id="Trazado_1243823" data-name="Trazado 1243823" d="M67.923,86.805c-.273.5-.612,1.024-1.249,1.057l-14.6.024C35.48,103.5,7.767,91.386,7.83,68.561l.4-4.684H1.576c-.376,0-1.01-.753-1.09-1.15a21.438,21.438,0,0,1-.019-3.78c.291-2.218,2.3-3.193,4.205-3.768-1.842-1.594-1.741-4.526-1.586-6.79.292-4.279,3.98-7.306,8.212-5.829,2.011.7,4.049,3.108,4.049,5.307v2.306c.912-.677,1.682-1.537,2.573-2.237A26.356,26.356,0,0,1,60.442,66.35a6.207,6.207,0,0,1,4.487,4.012c.546,1.759.68,6.337-.375,7.869-.251.364-.79.558-.715,1.06,1.955.481,3.467,1.432,4.084,3.429ZM8.23,54.916a4.23,4.23,0,0,0,1.636.121,5.467,5.467,0,0,0,3.3-2.364,15.168,15.168,0,0,0,.2-4.277c-.221-2.716-2.083-4.493-4.874-4.153a4.147,4.147,0,0,0-3.235,3.025c-.279,1.152-.371,4.548.085,5.594A5.942,5.942,0,0,0,8.23,54.916M39.2,44.9a23.978,23.978,0,0,0-13.869,1.087c-1.316.518-2.163.666-2.34,2.272-.365,3.313,2.71,5.752,4.667,7.984.43.746-.047.817-.054,1.307-.572.269-.917.444-1.481,0a28.4,28.4,0,0,1-2.54-2.768c-1.528-1.848-2.839-3.941-2.568-6.458-.135-.147-1.239.724-1.435.869a25.675,25.675,0,0,0-3.639,3.345,16.585,16.585,0,0,0-1.91,2.574c-.046.264.048.163.17.225,1.535.772,2.749.8,3.5,2.688a12.968,12.968,0,0,1,.179,4.889,1.5,1.5,0,0,1-1.159.95l-6.369.023a20.9,20.9,0,0,0-.408,2.688,29.822,29.822,0,0,0,.026,4.32c.274.934,2.152.908,2.9.587,1.09-.466,3.146-3.133,4.254-4.047,2.335-1.926,5.753-2.309,7.271.759.63,1.273.693,2.775,1.254,4.017,1,2.22,4.445,2.586,5.661,5.145,2.514,5.292-4.325,9.994-1.975,14.23.659,1.187,1.522,1.189,2.809,1.276a22,22,0,0,0,7.048-.526A23.094,23.094,0,0,0,50.33,86.8a21.894,21.894,0,0,0,.068-2.766c.077-2.021.548-3.328,2.5-4.217.433-.2,1.23-.368,1.713-.528.2-.222-.826-.913-.922-1.053-.959-1.392-.817-6.261-.3-7.877a6.087,6.087,0,0,1,2.145-2.928,6.189,6.189,0,0,1,1.095-.684c.357-.157,1.448-.361,1.547-.43.375-.262-.193-2.749-.308-3.262A24.533,24.533,0,0,0,45.323,47.01c-.058.446-.1.874-.2,1.317-.55,2.58-2.8,4.052-3.844,6.236-2.257,4.72,2.9,10.518-.215,15.729a6.441,6.441,0,0,1-10.04,1.028c-2.355-2.483-1.941-6.091-2.54-9.188-.175-.9-1.137-2.629-.1-3.132.884-.427,1.3.28,1.584.986,1.34,3.334-.02,10.654,5.005,11.269,3.017.37,5.068-1.9,5.145-4.8.113-4.215-2.585-7.751-.86-12.193.962-2.478,4.077-4.7,4.024-7.32a2.57,2.57,0,0,0-.171-.953,15.6,15.6,0,0,0-3.395-.954c-.043,0-.088,0-.132,0-.083-.182-.27-.1-.4-.132M11.261,56.761a8.454,8.454,0,0,1-2.574.268c-.576-.039-1.759-.518-2.04-.478a21.888,21.888,0,0,0-3.47,1.416A2.8,2.8,0,0,0,2.432,59.2v2.7c3.556-.012,7.118.016,10.674,0,.965,0,1.935,0,2.9,0V59.067c0-.472-.753-1.128-1.158-1.346a17.4,17.4,0,0,0-3.33-1.172c-.12.038-.221.2-.256.212m8.17,11.6c-2.57,1.218-3.673,4.519-6.559,5.235a5.842,5.842,0,0,1-2.4.037,24.071,24.071,0,0,0,13.44,17c.44.2,3.088,1.367,3.294,1.185a7.276,7.276,0,0,1-.227-3.719c.581-3.066,4.739-7.908,1.926-10.7-1.849-1.832-4-1.742-5.188-4.695-.889-2.211-.678-6.056-4.285-4.346m39.137,0c-3.7.551-3.845,4.211-3.556,7.311a3.885,3.885,0,0,0,3.16,3.231,3.683,3.683,0,0,0,3.152-.472,3.3,3.3,0,0,0,1.992-2.752c.3-3.436-.209-7.995-4.749-7.318M61.2,80.743a12.011,12.011,0,0,1-2.042.395c-.815,0-2.087-.593-2.733-.5a26.993,26.993,0,0,0-3.047,1.179,2.705,2.705,0,0,0-1.007,1.365v2.7c3.556-.012,7.118.016,10.674,0,.964,0,1.934,0,2.9,0v-2.7c0-.415-.719-1.2-1.094-1.41a8.057,8.057,0,0,0-3.65-1.028" transform="translate(-0.324 -34.755)" fill="#030303"/>
        <path id="Trazado_1243824" data-name="Trazado 1243824" d="M11.43,178.856a1.1,1.1,0,0,1,1.329.592,23.926,23.926,0,0,1,.022,3.273,29.979,29.979,0,0,0,37.984,27.3,31.306,31.306,0,0,0,12.981-7.447A1.021,1.021,0,0,1,65,203.963a11.5,11.5,0,0,1-1.743,1.683c-14.474,12.326-36.7,8.95-47.152-6.747-3.424-5.14-5.874-12.735-5.3-18.957.036-.394.193-.956.626-1.086" transform="translate(-8.833 -147.335)" fill="#040404"/>
        <path id="Trazado_1243825" data-name="Trazado 1243825" d="M137.292,40.1a1,1,0,0,1-1.6-.232c-2.3-20.949-25.08-33.453-43.959-23.383-.671.358-2.63,1.778-3.123,1.888a.981.981,0,0,1-1.153-1.422c.2-.472,3.129-2.122,3.749-2.443a32.035,32.035,0,0,1,44.808,17.922,29.839,29.839,0,0,1,1.57,6.872,1.472,1.472,0,0,1-.3.8" transform="translate(-71.975 -9.046)" fill="#040404"/>
        <path id="Trazado_1243826" data-name="Trazado 1243826" d="M20.806,124.013c2.04,1.06,1.9,3.131,1.845,5.139-3.556.016-7.118-.012-10.674,0v-2.7a2.8,2.8,0,0,1,.744-1.232,21.888,21.888,0,0,1,3.47-1.416c.281-.039,1.465.439,2.04.478a8.454,8.454,0,0,0,2.574-.268" transform="translate(-9.869 -102.007)" fill="#fdcf5a"/>
        <path id="Trazado_1243827" data-name="Trazado 1243827" d="M30.178,53.9A6.7,6.7,0,0,1,31.853,56.5a23.282,23.282,0,0,1,.08,5.933,3.754,3.754,0,0,1-2.018,2.133,5.941,5.941,0,0,1-2.886-2.055c-.456-1.046-.364-4.441-.085-5.594A4.147,4.147,0,0,1,30.178,53.9" transform="translate(-22.008 -44.407)" fill="#f3a76b"/>
        <path id="Trazado_1243828" data-name="Trazado 1243828" d="M44.912,64.373A3.755,3.755,0,0,0,46.93,62.24a23.291,23.291,0,0,0-.08-5.933A6.7,6.7,0,0,0,45.176,53.7c2.791-.34,4.652,1.437,4.874,4.153a15.174,15.174,0,0,1-.2,4.277,5.467,5.467,0,0,1-3.3,2.364,4.229,4.229,0,0,1-1.636-.121" transform="translate(-37.006 -44.212)" fill="#e69857"/>
        <path id="Trazado_1243829" data-name="Trazado 1243829" d="M62.129,123.991c.035-.009.136-.174.256-.212a17.389,17.389,0,0,1,3.33,1.172c.4.217,1.158.874,1.158,1.345v2.833c-.965,0-1.935,0-2.9,0,.053-2.008.2-4.079-1.845-5.139" transform="translate(-51.192 -101.985)" fill="#f6bd43"/>
        <path id="Trazado_1243830" data-name="Trazado 1243830" d="M304.5,260.7c2.024,1.059,1.852,3.149,1.845,5.139-3.556.016-7.118-.012-10.674,0v-2.7a2.705,2.705,0,0,1,1.007-1.365,27,27,0,0,1,3.047-1.179c.645-.092,1.918.5,2.733.5a12.008,12.008,0,0,0,2.042-.395" transform="translate(-243.623 -214.708)" fill="#c996e5"/>
        <path id="Trazado_1243831" data-name="Trazado 1243831" d="M313.761,190.877a7.494,7.494,0,0,1,1.42,2.2,19.385,19.385,0,0,1,.3,5.642,3.16,3.16,0,0,1-2.114,2.7,3.885,3.885,0,0,1-3.16-3.231c-.29-3.1-.14-6.76,3.556-7.311" transform="translate(-255.517 -157.275)" fill="#fbd0a2"/>
        <path id="Trazado_1243832" data-name="Trazado 1243832" d="M328.608,201.1a3.16,3.16,0,0,0,2.114-2.7,19.392,19.392,0,0,0-.3-5.642,7.494,7.494,0,0,0-1.42-2.2c4.54-.677,5.044,3.882,4.748,7.318a3.3,3.3,0,0,1-1.992,2.752,3.684,3.684,0,0,1-3.152.472" transform="translate(-270.76 -156.959)" fill="#fbba84"/>
        <path id="Trazado_1243833" data-name="Trazado 1243833" d="M345.825,261.127a8.057,8.057,0,0,1,3.65,1.028c.375.214,1.094.995,1.094,1.41v2.7c-.965,0-1.935,0-2.9,0,.007-1.99.179-4.081-1.845-5.139" transform="translate(-284.946 -215.138)" fill="#bb7fdf"/>
        <path id="Trazado_1243834" data-name="Trazado 1243834" d="M299.458,247.018c.1.14,1.122.831.922,1.053-.483.16-1.28.331-1.713.528Z" transform="translate(-246.089 -203.533)" fill="#91d8ed"/>
        <path id="Trazado_1243835" data-name="Trazado 1243835" d="M83.593,121.037a22.005,22.005,0,0,1-7.048.526c-1.287-.087-2.15-.089-2.809-1.276-2.35-4.236,4.489-8.938,1.975-14.23-1.216-2.559-4.659-2.925-5.661-5.144-.561-1.243-.623-2.744-1.253-4.017-1.518-3.068-4.937-2.685-7.271-.759-1.108.914-3.165,3.582-4.254,4.047-.752.321-2.63.347-2.9-.587a29.82,29.82,0,0,1-.026-4.32,20.9,20.9,0,0,1,.408-2.688l6.369-.023a1.5,1.5,0,0,0,1.159-.95,12.964,12.964,0,0,0-.179-4.888c-.755-1.885-1.968-1.917-3.5-2.689-.122-.061-.216.039-.17-.225a16.6,16.6,0,0,1,1.91-2.574,25.676,25.676,0,0,1,3.639-3.345c.2-.145,1.3-1.016,1.435-.869-.271,2.517,1.04,4.61,2.568,6.458a28.378,28.378,0,0,0,2.54,2.768c.564.442.908.267,1.481,0-.007.465.694.96.791,1.45-1.041.5-.079,2.228.1,3.132.6,3.1.185,6.7,2.54,9.188A6.441,6.441,0,0,0,85.463,98.99c3.114-5.211-2.042-11.01.215-15.73,1.044-2.184,3.294-3.656,3.844-6.236a7.823,7.823,0,0,1,2.039,1.453,25.736,25.736,0,0,1,8.371,17.654,6.085,6.085,0,0,0-2.145,2.928c-.516,1.616-.658,6.485.3,7.877l-.791,1.581c-1.956.889-2.427,2.2-2.5,4.217a32.2,32.2,0,0,1-5.285,5.059,26.558,26.558,0,0,1-5.915,3.243M94.11,85.357c-4.684.332-6.306,10.611-.495,9.4,1.664-.347,3.8-3.6,4.046-5.178.36-2.279-1.121-4.393-3.551-4.221M89.259,110.5l1.581-.922c1.795,1.145,2.873-1.994,2.766-3.359-.278-3.556-4.238-3.782-6.92-2.838a10.1,10.1,0,0,0-6.659,9.157c-.045,2.743,2.634,4.112,4.753,2.246.642-.566.8-1.129,1.592-1.7,1.1-.791,3.167-1,2.887-2.582" transform="translate(-44.72 -63.452)" fill="#c6edfc"/>
        <path id="Trazado_1243836" data-name="Trazado 1243836" d="M144.814,54.949c.068.175.251.122.4.132.044,0,.089,0,.132,0,2.123,3.3-1.424,5.915-2.921,8.477-3.481,5.957,3.631,12.588-1.823,17.746-5.025-.615-3.665-7.935-5.005-11.269-.284-.706-.7-1.413-1.584-.986-.1-.489-.8-.985-.791-1.45.007-.49.484-.561.054-1.307-1.957-2.231-5.032-4.671-4.667-7.984.177-1.606,1.023-1.754,2.34-2.272a23.978,23.978,0,0,1,13.869-1.087" transform="translate(-105.941 -44.803)" fill="#6ed6a2"/>
        <path id="Trazado_1243837" data-name="Trazado 1243837" d="M66.6,190.877c.825,1.486.764,3.539,1.736,4.919,1.354,1.921,4.35,2.458,5.313,4.57,1.967,4.309-3.3,8.394-2.569,12.781a24.071,24.071,0,0,1-13.44-17,5.841,5.841,0,0,0,2.4-.037c2.886-.716,3.989-4.017,6.559-5.235" transform="translate(-47.494 -157.275)" fill="#6ed6a2"/>
        <path id="Trazado_1243838" data-name="Trazado 1243838" d="M201.61,58.386A15.584,15.584,0,0,1,205,59.34a2.571,2.571,0,0,1,.171.953c.052,2.624-3.062,4.841-4.024,7.32-1.725,4.442.973,7.977.86,12.193-.078,2.906-2.128,5.173-5.145,4.8,5.454-5.157-1.659-11.788,1.823-17.746,1.5-2.562,5.044-5.181,2.921-8.477" transform="translate(-162.21 -48.108)" fill="#3ec1a2"/>
        <path id="Trazado_1243839" data-name="Trazado 1243839" d="M108.538,188.884c3.607-1.709,3.4,2.135,4.285,4.346,1.188,2.953,3.339,2.863,5.188,4.695,2.813,2.787-1.345,7.629-1.926,10.7a7.276,7.276,0,0,0,.227,3.719c-.206.182-2.854-.98-3.294-1.185-.734-4.387,4.536-8.473,2.569-12.781-.964-2.112-3.959-2.649-5.313-4.57-.972-1.379-.911-3.433-1.736-4.919" transform="translate(-89.431 -155.282)" fill="#3ec1a2"/>
        <path id="Trazado_1243840" data-name="Trazado 1243840" d="M264.913,90.043a25.737,25.737,0,0,0-8.371-17.654,7.825,7.825,0,0,0-2.039-1.453c.094-.443.139-.871.2-1.317a24.533,24.533,0,0,1,12.547,16.048c.116.512.683,3,.308,3.262-.1.069-1.189.273-1.547.43a6.194,6.194,0,0,0-1.095.684" transform="translate(-209.7 -57.363)" fill="#97e3f9"/>
        <path id="Trazado_1243841" data-name="Trazado 1243841" d="M220.819,288.255a26.559,26.559,0,0,0,5.915-3.243,32.2,32.2,0,0,0,5.285-5.059,21.9,21.9,0,0,1-.068,2.766,23.1,23.1,0,0,1-11.133,5.536" transform="translate(-181.946 -230.67)" fill="#97e2f7"/>
        <path id="Trazado_1243842" data-name="Trazado 1243842" d="M221.213,57.769c-.145-.01-.328.043-.4-.132.126.032.312-.05.4.132" transform="translate(-181.945 -47.491)" fill="#3ec1a2"/>
        <path id="Trazado_1243843" data-name="Trazado 1243843" d="M260.8,124.383c2.43-.172,3.91,1.942,3.551,4.221-.249,1.577-2.382,4.831-4.046,5.178-5.811,1.212-4.189-9.068.495-9.4m.245,2c-1.191.014-1.664,1.044-2.033,2.025-.377,1-1.1,3.86.8,3.435,1.1-.245,2.722-3.179,2.6-4.259a1.344,1.344,0,0,0-1.365-1.2" transform="translate(-211.408 -102.478)" fill="#030403"/>
        <path id="Trazado_1243844" data-name="Trazado 1243844" d="M270.3,135.764a1.344,1.344,0,0,1,1.365,1.2c.119,1.081-1.506,4.014-2.6,4.259-1.9.425-1.172-2.434-.8-3.435.369-.981.842-2.011,2.033-2.025" transform="translate(-220.667 -111.864)" fill="#6dd3a0"/>
        <path id="Trazado_1243845" data-name="Trazado 1243845" d="M211.374,230.755c-.593-1.412,1.127-2.054.729-3.561-.412-1.561-2.835-1.173-3.995-.825a7.938,7.938,0,0,0-5.038,4.845c-.217.684-.736,2.721-.379,3.283.791,1.248,1.92-.91,2.5-1.423a12.09,12.09,0,0,1,3.278-1.865c.66-.175.848.109,1.321.468.28,1.585-1.789,1.79-2.887,2.582-.8.573-.95,1.137-1.592,1.7-2.119,1.866-4.8.5-4.753-2.246a10.1,10.1,0,0,1,6.659-9.157c2.682-.944,6.642-.718,6.92,2.838.107,1.365-.972,4.5-2.766,3.359" transform="translate(-165.253 -184.635)" fill="#030404"/>
        <path id="Trazado_1243846" data-name="Trazado 1243846" d="M220.777,239.993l-1.581.922c-.473-.358-.661-.643-1.321-.468a12.09,12.09,0,0,0-3.278,1.865c-.584.512-1.712,2.67-2.5,1.423-.356-.562.162-2.6.379-3.283a7.938,7.938,0,0,1,5.038-4.845c1.16-.349,3.582-.737,3.995.825.4,1.507-1.322,2.149-.729,3.561" transform="translate(-174.657 -193.873)" fill="#6dd4a1"/>
      </g>
    </g>
  </g>
</svg>
