<svg xmlns="http://www.w3.org/2000/svg" xmlns:xlink="http://www.w3.org/1999/xlink" width="72" height="71" viewBox="0 0 72 71">
  <defs>
    <clipPath id="clip-path">
      <rect id="Rectángulo_410693" data-name="Rectángulo 410693" width="72" height="71" transform="translate(-0.191)" fill="none"/>
    </clipPath>
  </defs>
  <g id="Grupo_1187760" data-name="Grupo 1187760" transform="translate(0.191 -0.053)">
    <g id="Grupo_1187759" data-name="Grupo 1187759" transform="translate(0 0.053)" clip-path="url(#clip-path)">
      <path id="Trazado_1296244" data-name="Trazado 1296244" d="M24,91.886c.008.322-.007.648,0,.969l33.371.026L63,103.373h2.03V51.959l-4.974-4.771-14.911,0a3.343,3.343,0,0,1-.14,1.108c-.025.319.017.65,0,.969l14.071,0c.449.085,1.368,1.288,1.754,1.658.649.622,1.349,1.2,1.96,1.868V98.252l-2.1-3.875a38.855,38.855,0,0,0-1.96-3.6H24c.006.368-.009.74,0,1.108" transform="translate(-0.784 -32.523)" fill="#080606"/>
      <rect id="Rectángulo_410690" data-name="Rectángulo 410690" width="2.104" height="2.082" transform="translate(19.016 58.253)" fill="#020102"/>
      <path id="Trazado_1296245" data-name="Trazado 1296245" d="M31.251,61.672v2.076c0,12.7.162,25.429,0,38.13,0,.234.089.616-.142.759l2.1,3.875V61.049c-.612-.664-1.311-1.246-1.96-1.868Z" transform="translate(28.796 -40.783)" fill="#d25074"/>
      <rect id="Rectángulo_410691" data-name="Rectángulo 410691" width="2.24" height="2.076" transform="translate(53.605 20.89)" fill="#fdfafb"/>
      <rect id="Rectángulo_410692" data-name="Rectángulo 410692" width="2.101" height="2.076" transform="translate(57.946 20.89)" fill="#fefefe"/>
      <path id="Trazado_1296246" data-name="Trazado 1296246" d="M69.751,50.74c-.2,3.088-.362,6.185-.56,9.273-.372-.007-.749.008-1.121,0a6.292,6.292,0,0,1-.14,2.076c.372-.006.749,0,1.121,0l-.561,8.3H58.129l-1.26-18.683H40.695l-3.438,3.383c-.313,11.4-.036,22.9-.14,34.337.084.623,1.227,1.391,1.687,1.861l45.768.022a6.363,6.363,0,0,0,.709,1.31,3.189,3.189,0,0,1,.153.606,38.975,38.975,0,0,1,1.961,3.6c.232-.144.139-.525.142-.759.159-12.7,0-25.428,0-38.13h-2.1V55.861h2.1V53.37c-.386-.37-1.3-1.573-1.753-1.658l-14.071,0c.017-.32-.025-.651,0-.97Zm11.342,5.121h2.24v2.076h-2.24Zm-24.1,22.876a6.315,6.315,0,1,1,6.314,6.241,6.278,6.278,0,0,1-6.314-6.241" transform="translate(-27.488 -34.971)" fill="#ec8da8"/>
      <path id="Trazado_1296247" data-name="Trazado 1296247" d="M44,180.909a18.432,18.432,0,0,0,1.919,1.909l3.683.027c-.007.368.008.74,0,1.108h2.1v-1.111l2.1,0v1.11h2.1c-.009-.368.006-.74,0-1.108H90.63a3.215,3.215,0,0,0-.153-.606,6.372,6.372,0,0,1-.709-1.31Z" transform="translate(-32.684 -124.59)" fill="#d25075"/>
      <path id="Trazado_1296248" data-name="Trazado 1296248" d="M119.275.03a7.278,7.278,0,0,0-5.888,6.429l.427,8.241H96.8l-4.828,4.916V55.453l4.857,4.888,4.663.029c.006-.322-.009-.648,0-.97.009-.368-.006-.74,0-1.108l-3.683-.028a18.4,18.4,0,0,1-1.919-1.909c-.461-.47-1.6-1.238-1.688-1.861.1-11.437-.173-22.94.14-34.336l3.438-3.383h16.173l1.26,18.683h10.362l.561-8.3c-.372,0-.749-.006-1.121,0-.212,0-.884-.088-.987.089l-.413,6.139h-6.442a9.515,9.515,0,0,0-.14-1.938c-.5-7.38-1.038-14.825-1.4-22.214a13.486,13.486,0,0,1,.037-3.42,4.877,4.877,0,0,1,7.8-2.6,4.972,4.972,0,0,1,1.818,3.393L124.175,25.08c.326.006.655-.008.981,0,.372.009.749-.006,1.121,0,.2-3.088.361-6.185.56-9.273.167-2.6.51-5.371.566-7.952.089-4.079-1.787-6.668-5.747-7.825-.755.067-1.648-.092-2.381,0" transform="translate(-84.574 -0.038)" fill="#070605"/>
      <path id="Trazado_1296249" data-name="Trazado 1296249" d="M105.915,36.147h4.76l1.4-22.972c-.6.017-1.216-.012-1.82,0V11.1h2.1c-.037-1.057.027-2.126,0-3.183a4.877,4.877,0,0,0-7.8,2.6,13.485,13.485,0,0,0-.037,3.42c.361,7.389.9,14.834,1.4,22.214" transform="translate(-73.454 -4.739)" fill="#f8ed92"/>
      <path id="Trazado_1296250" data-name="Trazado 1296250" d="M105.115,13.5a.713.713,0,0,1,.146.335c.025.578-.028,1.164-.005,1.742-.139.005-.28,0-.42,0l-1.4,22.972h-4.76a9.537,9.537,0,0,1,.14,1.938h6.441l.413-6.139c.1-.177.775-.085.987-.089a6.292,6.292,0,0,0,.14-2.076c-.326-.008-.655.007-.981,0l1.118-18.474a4.971,4.971,0,0,0-1.818-3.393c.027,1.057-.037,2.126,0,3.183" transform="translate(-66.213 -7.138)" fill="#f3df3d"/>
      <path id="Trazado_1296251" data-name="Trazado 1296251" d="M106.061,20.531h-2.1v2.076c.6-.012,1.216.017,1.82,0,.14,0,.281.006.42,0-.023-.577.03-1.164.005-1.742a.713.713,0,0,0-.146-.335" transform="translate(-67.159 -14.173)" fill="#fefdf8"/>
      <path id="Trazado_1296252" data-name="Trazado 1296252" d="M94.183,126.82a6.315,6.315,0,1,0,6.315-6.241,6.278,6.278,0,0,0-6.315,6.241m9.256-2.947c.037.042.116.068.14.138v.139c3.574,3.788-1.983,9.267-5.881,5.674-3.774-3.477.756-9.084,5.088-6.482a5.227,5.227,0,0,1,.653.531" transform="translate(-64.677 -83.054)" fill="#040302"/>
      <path id="Trazado_1296253" data-name="Trazado 1296253" d="M105.849,134.454a5.419,5.419,0,0,0,5.881-5.674v-.138l-.14-.138a5.227,5.227,0,0,0-.653-.531c-4.332-2.6-8.861,3-5.088,6.482" transform="translate(-72.828 -87.684)" fill="#f8ed91"/>
      <path id="Trazado_1296254" data-name="Trazado 1296254" d="M100.8,137.714c3.9,3.593,9.455-1.886,5.881-5.674a5.419,5.419,0,0,1-5.881,5.674" transform="translate(-67.778 -90.945)" fill="#f2de3d"/>
      <path id="Trazado_1296255" data-name="Trazado 1296255" d="M104.584,131.29c-.024-.07-.1-.1-.14-.138Z" transform="translate(-65.682 -90.333)" fill="#f2de3d"/>
    </g>
  </g>
</svg>
