<svg xmlns="http://www.w3.org/2000/svg" xmlns:xlink="http://www.w3.org/1999/xlink" width="118" height="118" viewBox="0 0 118 118">
  <defs>
    <filter id="Elipse_12115" x="0" y="0" width="118" height="118" filterUnits="userSpaceOnUse">
      <feOffset dy="3" input="SourceAlpha"/>
      <feGaussianBlur stdDeviation="3" result="blur"/>
      <feFlood flood-opacity="0.161"/>
      <feComposite operator="in" in2="blur"/>
      <feComposite in="SourceGraphic"/>
    </filter>
    <clipPath id="clip-path">
      <rect id="Rectángulo_411052" data-name="Rectángulo 411052" width="70.843" height="58.782" fill="none"/>
    </clipPath>
  </defs>
  <g id="Grupo_1181944" data-name="Grupo 1181944" transform="translate(-799.781 -1970)">
    <g id="Grupo_1181939" data-name="Grupo 1181939" transform="translate(808.781 1976)">
      <g transform="matrix(1, 0, 0, 1, -9, -6)" filter="url(#Elipse_12115)">
        <g id="Elipse_12115-2" data-name="Elipse 12115" transform="translate(9 6)" fill="#f3b6ad" stroke="#a87f78" stroke-width="2">
          <circle cx="50" cy="50" r="50" stroke="none"/>
          <circle cx="50" cy="50" r="49" fill="none"/>
        </g>
      </g>
    </g>
    <g id="Grupo_1188559" data-name="Grupo 1188559" transform="translate(819.896 1996.977)">
      <g id="Grupo_1188558" data-name="Grupo 1188558" transform="translate(3 3.581)" clip-path="url(#clip-path)">
        <path id="Trazado_1321659" data-name="Trazado 1321659" d="M57.93,7.009a1.411,1.411,0,0,1,2.052.265c3.277,3.291,6.571,6.565,9.846,9.857a2.757,2.757,0,0,1-.028,4.295c-1.473,1.486-2.957,2.962-4.438,4.441-1.673,1.671-2.9,1.724-4.727.166-.9.713-1.675,1.361-1.217,2.793A12.567,12.567,0,0,1,59.84,32.3c.035,1.363-.438,2.2-1.93,3.988.6.589,1.179,1.23,1.833,1.776a4.859,4.859,0,0,1-1.779,8.525,4.876,4.876,0,0,1-1.139,4.975,4.719,4.719,0,0,1-4.912,1.122A4.806,4.806,0,0,1,44.6,55.518c-.273.457-.521.933-.824,1.369a5.169,5.169,0,0,1-3.194,1.9H39.2l-2.457-1.188-2.532,1.188H32.324a5.088,5.088,0,0,1-3.473-3.346c-.13-.464-.193-.945-.287-1.418-2.682-.341-4.03-1.47-4.756-4.026a4.793,4.793,0,0,1-4.4-1.276,4.921,4.921,0,0,1-1.32-4.448,4.8,4.8,0,0,1-3.72-3.223,4.7,4.7,0,0,1,1.151-4.861c-2.4-1.85-3.316-4.695-4.831-7.151A11.024,11.024,0,0,0,9.421,27.6c-1.64.829-2.9.3-4.056-.945-1.4-1.507-2.909-2.921-4.358-4.388a2.742,2.742,0,0,1-.023-4.227c.88-.9,1.775-1.788,2.672-2.673.772-.761,1.149-.8,2.114-.236.507,1.052.459,1.352-.375,2.187-.928.929-1.862,1.852-2.734,2.718L8.09,25.463c.3-.35.628-.783,1.007-1.165q6.1-6.148,12.223-12.283L24.3,8.868,19.259,3.73l-3.13,2.92-6.69,6.628c-.836.828-1.134.877-2.185.37-.561-.967-.53-1.345.239-2.115q4.86-4.871,9.734-9.728a2.736,2.736,0,0,1,4.115,0c1.574,1.547,3.127,3.117,4.686,4.68a2.832,2.832,0,0,1,.516,4.053,2.648,2.648,0,0,0,2.018,1.274,13.475,13.475,0,0,1,1.766.338,2.493,2.493,0,0,0,2.879-.729,3.272,3.272,0,0,1,3.333-.861c1.86.441,3.733.835,5.576,1.342a1.331,1.331,0,0,0,1.568-.449,15.892,15.892,0,0,1,1.19-1.136,11,11,0,0,1-.845-1.13,2.651,2.651,0,0,1,.521-3.3Q46.992,3.4,49.473.956a2.762,2.762,0,0,1,4.18,0c.844.818,1.672,1.653,2.494,2.493.756.773.79,1.161.236,2.121-1.063.5-1.347.461-2.188-.378-.865-.863-1.72-1.736-2.5-2.527L46.345,8.044c2.309,2.3,4.676,4.665,7.05,7.024q3.131,3.112,6.273,6.213l3.256,3.09L68,19.273,65.034,16.1q-3.425-3.456-6.85-6.913a1.441,1.441,0,0,1-.253-2.175M38.694,48.285a1.915,1.915,0,0,0-2.636.128Q33.9,50.5,31.813,52.663a2.1,2.1,0,0,0,3,2.922q2.148-2.031,4.182-4.182a1.985,1.985,0,0,0-.3-3.118M26.932,50.548A1.966,1.966,0,0,0,30,50.723q2.106-2.025,4.134-4.131a2,2,0,0,0-.255-3.127,1.875,1.875,0,0,0-2.626.088q-2.2,2.094-4.292,4.3a1.937,1.937,0,0,0-.028,2.7m-2.687-16.72a1.922,1.922,0,0,0-2.7.078q-2.168,2.07-4.24,4.239a1.952,1.952,0,0,0-.014,2.771,1.987,1.987,0,0,0,3.02.17c1.43-1.364,2.833-2.759,4.192-4.193a1.978,1.978,0,0,0-.259-3.065M21.073,46.6a2,2,0,0,0,3.127.262c1.725-1.671,3.4-3.39,5.1-5.086a2.044,2.044,0,0,0-.243-3.13,1.915,1.915,0,0,0-2.7.11q-2.621,2.52-5.147,5.138a1.953,1.953,0,0,0-.144,2.705M45.044,25.4a1.5,1.5,0,0,1-2.051-.381c-.7-.754-1.454-1.453-2.171-2.188-.747-.766-1.477-1.548-2.227-2.336l-1.461,1.464c-.217.134-.436.265-.652.4a6.964,6.964,0,0,1-8.65-.981,3.273,3.273,0,0,1-.308-4.3c.256-.339.565-.638.85-.956l1.493-1.438c-2.034-.36-3.99-.479-5.147-2.221l-1.679,1.591q-5.815,5.793-11.627,11.588c-.037.037-.045.1,0-.009.764,1.142,1.5,2.179,2.169,3.262.568.923.993,1.936,1.587,2.84.618.94,1.362,1.8,2.147,2.817.893-.929,1.616-1.738,2.4-2.485a4.674,4.674,0,0,1,7.808,2.252c.1.406.159.825.235,1.228,2.828.209,4.446,1.823,4.805,4.763,3.209.6,4.341,1.731,4.847,4.862.1.017.207.038.316.055a4.742,4.742,0,0,1,4.407,4.011.992.992,0,0,0,.212.447c1.193,1.2,2.366,2.419,3.611,3.562a2.078,2.078,0,0,0,3.364-1.886,3.587,3.587,0,0,0-.869-1.518c-1.647-1.717-3.358-3.371-5.027-5.066a1.305,1.305,0,0,1-.126-1.909,1.279,1.279,0,0,1,1.965.079c.4.371.773.767,1.159,1.152,1.865,1.864,3.722,3.737,5.6,5.587a1.97,1.97,0,0,0,2.439.409,1.856,1.856,0,0,0,1.07-2.129,3.475,3.475,0,0,0-.878-1.6c-2.092-2.163-4.245-4.268-6.363-6.406a1.3,1.3,0,1,1,1.841-1.814q2.58,2.588,5.169,5.167a2.025,2.025,0,0,0,2.485.5.493.493,0,0,0,.163-.036c1.337-.858,1.422-2.378.176-3.629q-5.568-5.589-11.153-11.161c-.848-.848-.893-1.146-.354-2.167,1.007-.55,1.33-.5,2.164.321l5.046,4.982,2.252,2.189a3.039,3.039,0,0,0,1.152-3.031q-.261-1.6-.576-3.191a2.727,2.727,0,0,1,.77-2.585c.45-.454.937-.872,1.275-1.184l-2.125-2.349q-4.631-4.663-9.263-9.325c-.177-.178-.371-.34-.658-.6-.573.615-1.094,1.223-1.668,1.778a2.76,2.76,0,0,1-2.747.778c-1.993-.5-4-.926-5.993-1.436a1.618,1.618,0,0,0-1.7.489c-1.535,1.545-3.082,3.078-4.615,4.624-.653.659-.62,1.041.1,1.614a4.4,4.4,0,0,0,5.736-.256c.564-.529,1.094-1.094,1.649-1.633a1.358,1.358,0,0,1,2.22,0q2.623,2.6,5.23,5.226c.783.787.812,1.243.175,2.173M41.691,52.826l-3.2,2.669c1.251.864,2.4.782,3.139-.095a1.906,1.906,0,0,0,.063-2.574" transform="translate(0 0)" fill="#0b0b0a"/>
        <path id="Trazado_1321661" data-name="Trazado 1321661" d="M213.244,15.945a1.441,1.441,0,0,0,.253,2.175q3.422,3.459,6.85,6.913c-.357.329-.722.649-1.069.987q-2.153,2.094-4.3,4.2Q211.844,27.11,208.708,24c-2.374-2.359-4.741-4.723-7.05-7.024l5.348-5.378c.783.791,1.637,1.664,2.5,2.527.841.839,1.125.883,2.188.378l1.547,1.438" transform="translate(-155.313 -8.936)" fill="#59c4e9"/>
        <path id="Trazado_1321662" data-name="Trazado 1321662" d="M30.238,34.3q-6.113,6.14-12.223,12.283c-.379.382-.707.815-1.007,1.165l-5.429-5.424c.872-.866,1.806-1.789,2.734-2.718.834-.835.882-1.135.375-2.187l1.484-1.485c1.051.507,1.349.457,2.185-.37l6.69-6.628c.373.395.742.794,1.12,1.184Q28.2,32.214,30.238,34.3" transform="translate(-8.918 -22.287)" fill="#ac86bc"/>
        <path id="Trazado_1321663" data-name="Trazado 1321663" d="M66.523,63.206c-.285.318-.593.617-.85.956a3.273,3.273,0,0,0,.308,4.3,6.965,6.965,0,0,0,8.65.981c.216-.136.434-.268.652-.4.226.256.44.525.681.767,6.28,6.285,12.578,12.553,18.822,18.874a8.485,8.485,0,0,1,1.15,2.209,2.025,2.025,0,0,1-2.485-.5q-2.581-2.587-5.169-5.167a1.3,1.3,0,1,0-1.841,1.815c2.118,2.138,4.271,4.242,6.363,6.406a3.476,3.476,0,0,1,.878,1.6,1.857,1.857,0,0,1-1.07,2.129,1.969,1.969,0,0,1-2.439-.409c-1.879-1.85-3.736-3.723-5.6-5.587-.385-.385-.76-.78-1.159-1.152a1.279,1.279,0,0,0-1.965-.079,1.306,1.306,0,0,0,.126,1.91c1.669,1.7,3.38,3.35,5.027,5.066a3.585,3.585,0,0,1,.869,1.518,2.078,2.078,0,0,1-3.364,1.886c-1.244-1.143-2.418-2.363-3.611-3.562a1,1,0,0,1-.212-.447,4.742,4.742,0,0,0-4.407-4.011c-.109-.017-.217-.038-.316-.055-.507-3.132-1.638-4.261-4.847-4.863-.36-2.94-1.978-4.553-4.805-4.763-.076-.4-.132-.822-.235-1.228a4.674,4.674,0,0,0-7.808-2.252c-.783.747-1.506,1.556-2.4,2.485-.785-1.019-1.529-1.876-2.147-2.817-.594-.9-1.019-1.917-1.587-2.84-.666-1.083-1.406-2.121-2.169-3.262-.046.11-.038.046,0,.009q5.812-5.8,11.627-11.588c.171.088.406.13.5.27a3.142,3.142,0,0,0,2.258,1.121c.869.165,1.715.447,2.571.678" transform="translate(-38.149 -47.087)" fill="#ffdeb2"/>
        <path id="Trazado_1321664" data-name="Trazado 1321664" d="M152.584,72.471l-5.046-4.982c-.834-.824-1.157-.871-2.164-.321L143.8,65.752c.638-.931.609-1.387-.175-2.174q-2.608-2.62-5.23-5.226a1.358,1.358,0,0,0-2.22,0c-.555.539-1.085,1.1-1.649,1.633a4.405,4.405,0,0,1-5.736.256c-.72-.573-.753-.956-.1-1.614,1.534-1.546,3.081-3.079,4.615-4.625a1.619,1.619,0,0,1,1.7-.489c1.99.51,4,.938,5.993,1.436a2.76,2.76,0,0,0,2.747-.778c.573-.555,1.095-1.163,1.668-1.778.286.261.481.422.658.6q4.633,4.661,9.263,9.325a10.526,10.526,0,0,1-1.11,1.173,1.764,1.764,0,0,0-.586,1.84c.129.838.309,1.668.466,2.5a4.307,4.307,0,0,1-1.519,4.635" transform="translate(-98.755 -40.353)" fill="#fbac6f"/>
        <path id="Trazado_1321665" data-name="Trazado 1321665" d="M169.49,94.079l1.574,1.415c-.538,1.021-.493,1.318.354,2.166q5.576,5.581,11.153,11.161c1.246,1.251,1.161,2.77-.176,3.629a.488.488,0,0,1-.163.036,8.479,8.479,0,0,0-1.15-2.208c-6.244-6.321-12.542-12.589-18.822-18.874-.241-.241-.455-.51-.681-.766l1.461-1.464c.75.788,1.48,1.57,2.227,2.336.717.736,1.475,1.434,2.171,2.188a1.5,1.5,0,0,0,2.051.381" transform="translate(-124.446 -68.679)" fill="#fbc48e"/>
        <path id="Trazado_1321666" data-name="Trazado 1321666" d="M259.63,75.227q2.148-2.1,4.3-4.2c.347-.338.712-.658,1.069-.987l2.964,3.175-5.075,5.1-3.256-3.09" transform="translate(-199.962 -53.946)" fill="#12b0e9"/>
        <path id="Trazado_1321667" data-name="Trazado 1321667" d="M75.373,24.516q-2.036-2.09-4.071-4.181c-.379-.39-.747-.789-1.12-1.184l3.13-2.92,5.042,5.138-2.98,3.147" transform="translate(-54.052 -12.501)" fill="#7e559c"/>
        <path id="Trazado_1321668" data-name="Trazado 1321668" d="M90.11,174.436a1.953,1.953,0,0,1,.144-2.705q2.528-2.613,5.147-5.138a1.915,1.915,0,0,1,2.7-.11,7.446,7.446,0,0,1-.95,2.019c-1.579,1.716-3.231,3.373-4.95,4.949a7.767,7.767,0,0,1-2.088.985" transform="translate(-69.037 -127.838)" fill="#f7aa6d"/>
        <path id="Trazado_1321669" data-name="Trazado 1321669" d="M234.221,105.734a4.307,4.307,0,0,0,1.519-4.635c-.156-.834-.336-1.665-.466-2.5a1.764,1.764,0,0,1,.586-1.84,10.519,10.519,0,0,0,1.11-1.173l2.125,2.349c-.339.313-.826.73-1.276,1.184a2.726,2.726,0,0,0-.77,2.585q.313,1.591.576,3.191a3.04,3.04,0,0,1-1.152,3.031l-2.252-2.189" transform="translate(-180.393 -73.615)" fill="#f49354"/>
        <path id="Trazado_1321670" data-name="Trazado 1321670" d="M73.335,152.561a1.952,1.952,0,0,1,.014-2.771q2.07-2.167,4.24-4.239a1.922,1.922,0,0,1,2.7-.078,4.345,4.345,0,0,1-.561,1.474c-1.509,1.626-3.066,3.211-4.677,4.736a6.8,6.8,0,0,1-1.714.878" transform="translate(-56.043 -111.645)" fill="#f9ab6e"/>
        <path id="Trazado_1321671" data-name="Trazado 1321671" d="M115.4,194.564a1.937,1.937,0,0,1,.028-2.7q2.091-2.2,4.292-4.3a1.875,1.875,0,0,1,2.626-.088,7.06,7.06,0,0,1-.884,1.952c-1.321,1.466-2.729,2.862-4.187,4.194a7.588,7.588,0,0,1-1.875.937" transform="translate(-88.473 -144.016)" fill="#f5a96d"/>
        <path id="Trazado_1321672" data-name="Trazado 1321672" d="M136.439,215.637a1.945,1.945,0,0,1,.059-2.7q2.082-2.164,4.245-4.249a1.915,1.915,0,0,1,2.636-.128,6.379,6.379,0,0,1-.808,1.875c-1.334,1.475-2.749,2.883-4.217,4.224a8.047,8.047,0,0,1-1.916.981" transform="translate(-104.686 -160.271)" fill="#fcac6f"/>
        <path id="Trazado_1321673" data-name="Trazado 1321673" d="M91.694,176.109a7.766,7.766,0,0,0,2.088-.985c1.719-1.576,3.371-3.233,4.95-4.949a7.444,7.444,0,0,0,.95-2.019,2.044,2.044,0,0,1,.243,3.13c-1.7,1.7-3.378,3.415-5.1,5.086a2,2,0,0,1-3.127-.262" transform="translate(-70.621 -129.511)" fill="#f79455"/>
        <path id="Trazado_1321674" data-name="Trazado 1321674" d="M138.168,217.181a8.046,8.046,0,0,0,1.916-.981c1.468-1.341,2.883-2.749,4.217-4.224a6.379,6.379,0,0,0,.808-1.875,1.985,1.985,0,0,1,.3,3.118q-2.027,2.151-4.182,4.182a1.96,1.96,0,0,1-3.058-.219" transform="translate(-106.414 -161.816)" fill="#ef9053"/>
        <path id="Trazado_1321675" data-name="Trazado 1321675" d="M75.244,154.28a6.8,6.8,0,0,0,1.714-.878c1.61-1.525,3.168-3.11,4.677-4.736a4.345,4.345,0,0,0,.561-1.474,1.978,1.978,0,0,1,.259,3.065c-1.359,1.434-2.762,2.829-4.192,4.194a1.987,1.987,0,0,1-3.02-.17" transform="translate(-57.952 -113.364)" fill="#f49354"/>
        <path id="Trazado_1321676" data-name="Trazado 1321676" d="M117.188,196.21a7.589,7.589,0,0,0,1.875-.937c1.458-1.331,2.866-2.727,4.187-4.194a7.06,7.06,0,0,0,.884-1.952,2,2,0,0,1,.255,3.127q-2.023,2.108-4.134,4.131a1.966,1.966,0,0,1-3.067-.175" transform="translate(-90.256 -145.662)" fill="#f79555"/>
        <path id="Trazado_1321677" data-name="Trazado 1321677" d="M105.591,57.875c-.856-.231-1.7-.513-2.571-.678a3.142,3.142,0,0,1-2.258-1.121c-.1-.139-.332-.182-.5-.27l1.679-1.591c1.158,1.741,3.113,1.861,5.147,2.22l-1.493,1.438" transform="translate(-77.217 -41.757)" fill="#f9c38d"/>
        <path id="Trazado_1321678" data-name="Trazado 1321678" d="M170.678,229.86a1.906,1.906,0,0,1-.063,2.574c-.742.877-1.888.959-3.139.095l3.2-2.669" transform="translate(-128.987 -177.034)" fill="#fad9af"/>
      </g>
    </g>
  </g>
</svg>
