<svg xmlns="http://www.w3.org/2000/svg" xmlns:xlink="http://www.w3.org/1999/xlink" width="118" height="118" viewBox="0 0 118 118">
  <defs>
    <filter id="Elipse_12115" x="0" y="0" width="118" height="118" filterUnits="userSpaceOnUse">
      <feOffset dy="3" input="SourceAlpha"/>
      <feGaussianBlur stdDeviation="3" result="blur"/>
      <feFlood flood-opacity="0.161"/>
      <feComposite operator="in" in2="blur"/>
      <feComposite in="SourceGraphic"/>
    </filter>
    <clipPath id="clip-path">
      <rect id="Rectángulo_411051" data-name="Rectángulo 411051" width="65" height="65" transform="translate(0 -0.351)" fill="none"/>
    </clipPath>
  </defs>
  <g id="Grupo_1186142" data-name="Grupo 1186142" transform="translate(-799.781 -1970)">
    <g id="Grupo_1181939" data-name="Grupo 1181939" transform="translate(808.781 1976)">
      <g transform="matrix(1, 0, 0, 1, -9, -6)" filter="url(#Elipse_12115)">
        <g id="Elipse_12115-2" data-name="Elipse 12115" transform="translate(9 6)" fill="#f3b6ad" stroke="#a87f78" stroke-width="2">
          <circle cx="50" cy="50" r="50" stroke="none"/>
          <circle cx="50" cy="50" r="49" fill="none"/>
        </g>
      </g>
    </g>
    <g id="Grupo_1188557" data-name="Grupo 1188557" transform="translate(826.164 1993.714)">
      <g id="Grupo_1188556" data-name="Grupo 1188556" transform="translate(-0.217 0.593)" clip-path="url(#clip-path)">
        <path id="Trazado_1321641" data-name="Trazado 1321641" d="M65.533,40.423c-.207.928-.38,1.866-.626,2.784a18.85,18.85,0,0,1-9.48,12.06,1.26,1.26,0,0,0-.761,1.287c.035,2.005,0,4.012.019,6.017.01.938-.1,1.79-1.107,2.188s-1.65-.183-2.32-.826c-1.889-1.813-3.817-3.585-5.759-5.4a53.711,53.711,0,0,1-5.535,1.82c-10.535,2.34-19.739-.231-27.43-7.831a27.582,27.582,0,0,1-7.649-14.4A30.382,30.382,0,0,1,4.331,31.2a1.652,1.652,0,0,0-.271-.92A19.344,19.344,0,0,1,15.219.557C16.06.345,16.913.185,17.76,0h4.055c.04.039.078.11.121.114a18.578,18.578,0,0,1,9.052,3.379,1.433,1.433,0,0,0,.7.2c2,.129,4.013.11,5.988.384A27.209,27.209,0,0,1,50.724,9.72a.984.984,0,0,1,.319,1.426c-.358.479-.914.511-1.506.095C48.761,10.7,48,10.121,47.2,9.62a26.4,26.4,0,0,0-13.675-4,19.95,19.95,0,0,1,4.423,6.794,19.233,19.233,0,0,1,1.231,7.922,19.519,19.519,0,0,1,19.034,2.794,2.339,2.339,0,0,0-.1-.362c-.758-1.521-1.411-3.109-2.31-4.541A50.452,50.452,0,0,0,52.675,14.1c-.3-.388-.483-.816-.152-1.2a1.5,1.5,0,0,1,.954-.442c.229-.015.523.244.713.449a28.461,28.461,0,0,1,6.8,12.511,3.192,3.192,0,0,0,.545,1.107,19.02,19.02,0,0,1,3.5,7.415c.179.805.332,1.617.5,2.425ZM32.688,50.663a1.061,1.061,0,0,1-1.463-.258,19.1,19.1,0,0,1-4.2-10.826c-.05-.763-.007-1.532-.007-2.175-1.675.352-3.282.756-4.913,1a2.95,2.95,0,0,0-1.816.964c-1.866,1.955-3.765,3.878-5.66,5.805a1.722,1.722,0,0,1-2.43.319,1.833,1.833,0,0,1-.689-1.614c.007-2.175-.006-4.35.01-6.524A1.117,1.117,0,0,0,10.9,36.3c-1.37-.9-2.693-1.87-4.029-2.821a7.58,7.58,0,0,1-.592-.525c.68,20.258,21.08,31.064,36.627,24.385a19.967,19.967,0,0,1-8.266-3.631c-.637-.493-.71-.769-.4-1.514.687-.505.9-.5,1.615.031a16.884,16.884,0,0,0,8.124,3.29,4.06,4.06,0,0,1,2.9,1.136c.928,1.058,1.967,2.018,2.959,3.02L52.747,62.3c0-1.758.034-3.738-.011-5.717A3.014,3.014,0,0,1,54.5,53.59,17.25,17.25,0,0,0,63.478,36,17.036,17.036,0,0,0,57.2,24.833a16.1,16.1,0,0,0-7.88-3.579,14.709,14.709,0,0,0-5.212-.178A17.476,17.476,0,0,0,28.934,37.109a16.975,16.975,0,0,0,3.692,11.96,1.168,1.168,0,0,1,.062,1.594M22.824,2.177a16.355,16.355,0,0,0-7.575.371A17.353,17.353,0,0,0,2.909,22.674a16.95,16.95,0,0,0,8.913,11.942,2.8,2.8,0,0,1,1.623,2.7c-.018,1.245.011,2.491.019,3.736v2.586l6.191-6.383c.567-.219,1.124-.476,1.706-.645a12.191,12.191,0,0,1,1.469-.248c1.071-.277,2.137-.578,3.216-.824a1.648,1.648,0,0,0,1.463-1.712c0-.042,0-.084-.007-.126.37-1.044.688-2.109,1.118-3.128a19.657,19.657,0,0,1,5.361-7.128,28.29,28.29,0,0,1,2.5-1.7,1.4,1.4,0,0,0,.789-1.348A17.047,17.047,0,0,0,33.964,9.1a16.962,16.962,0,0,0-11.14-6.923" transform="translate(-0.309 -0.575)" fill="#0b0b0b"/>
        <path id="Trazado_1321643" data-name="Trazado 1321643" d="M43.4,32.734a19.656,19.656,0,0,0-5.361,7.128c-.43,1.018-.749,2.084-1.118,3.128l-4.671,2.662a12.15,12.15,0,0,0-1.469.248c-.582.169-1.139.426-1.706.645-.31.044-.619.111-.93.128a3.839,3.839,0,0,0-3.077,1.409,27.951,27.951,0,0,1-2.185,2.26c-.008-1.245-.037-2.491-.019-3.736a2.8,2.8,0,0,0-1.623-2.7,16.95,16.95,0,0,1-8.913-11.942,17.353,17.353,0,0,1,12.34-20.127,16.357,16.357,0,0,1,7.575-.371,3.285,3.285,0,0,0,.377.223A18.41,18.41,0,0,1,39.9,17.246a18.058,18.058,0,0,1,3.961,11.061,32.232,32.232,0,0,1-.469,4.426m-7.307.716a1.088,1.088,0,0,0,1.567-.218c.711-.751,1.477-1.45,2.18-2.207a6.424,6.424,0,0,0-8.985-9.164c-.513.458-1,.949-1.577,1.5-.435-.472-.806-.935-1.237-1.333A6.177,6.177,0,0,0,22.15,20.4a6.106,6.106,0,0,0-4.744,4.5,6.156,6.156,0,0,0,1.658,6.338c2.979,3.022,5.992,6.01,9,9.006a1.612,1.612,0,0,0,2.591-.026q1.842-1.83,3.673-3.671c.572-.574.606-.845.227-1.563l1.537-1.54" transform="translate(-9.725 -9.866)" fill="#ffd860"/>
        <path id="Trazado_1321644" data-name="Trazado 1321644" d="M188.486,162.365c-.991-1-2.031-1.962-2.959-3.02a4.06,4.06,0,0,0-2.9-1.136,16.883,16.883,0,0,1-8.124-3.29c-.72-.53-.928-.536-1.615-.031l-1.55-1.534a1.168,1.168,0,0,0-.062-1.594,17.406,17.406,0,0,1,11.482-27.993,14.708,14.708,0,0,1,5.212.178,1.471,1.471,0,0,0,.244.173,18.25,18.25,0,0,1,9.537,9.292,17.592,17.592,0,0,1,1.3,11.136A18,18,0,0,1,189.4,157.34a1.419,1.419,0,0,0-.8,1.323c-.013.675.01,1.351-.008,2.025-.015.559-.069,1.117-.106,1.676m-3.566-9.213a12.186,12.186,0,1,0-12.2-12.195,12.16,12.16,0,0,0,12.2,12.195" transform="translate(-138.961 -103.266)" fill="#5ac4e9"/>
        <path id="Trazado_1321646" data-name="Trazado 1321646" d="M288.741,163.971c.037-.559.09-1.117.106-1.676.019-.674-.005-1.35.008-2.025a1.419,1.419,0,0,1,.8-1.323,18,18,0,0,0,9.652-12.794,17.591,17.591,0,0,0-1.3-11.136,18.248,18.248,0,0,0-9.537-9.292,1.454,1.454,0,0,1-.244-.173,16.094,16.094,0,0,1,7.88,3.579,17.037,17.037,0,0,1,6.279,11.166,17.25,17.25,0,0,1-8.981,17.59,3.014,3.014,0,0,0-1.761,2.994c.045,1.979.011,3.96.011,5.717l-2.912-2.628" transform="translate(-239.215 -104.872)" fill="#14b0e9"/>
        <path id="Trazado_1321647" data-name="Trazado 1321647" d="M142.87,34.125a32.234,32.234,0,0,0,.469-4.426,18.058,18.058,0,0,0-3.961-11.061,18.409,18.409,0,0,0-7.287-5.555,3.257,3.257,0,0,1-.377-.222,16.961,16.961,0,0,1,11.14,6.923,17.046,17.046,0,0,1,3.309,11.292,1.4,1.4,0,0,1-.789,1.348,28.287,28.287,0,0,0-2.5,1.7" transform="translate(-109.198 -11.258)" fill="#ffb32f"/>
        <path id="Trazado_1321648" data-name="Trazado 1321648" d="M76.421,223.856a27.953,27.953,0,0,0,2.185-2.26,3.839,3.839,0,0,1,3.077-1.409c.311-.017.62-.084.93-.128l-6.191,6.383Z" transform="translate(-63.267 -183.38)" fill="#ffb22e"/>
        <path id="Trazado_1321649" data-name="Trazado 1321649" d="M131.75,201.72l4.671-2.662c0,.042.008.084.007.125a1.648,1.648,0,0,1-1.463,1.712c-1.078.246-2.144.547-3.216.824" transform="translate(-109.229 -165.935)" fill="#f8ae2e"/>
        <path id="Trazado_1321650" data-name="Trazado 1321650" d="M59.872,79.305c.379.718.345.989-.227,1.564q-1.832,1.84-3.673,3.671a1.612,1.612,0,0,1-2.591.026c-3-3-6.018-5.984-9-9.006a6.431,6.431,0,0,1,8.973-9.214c.431.4.8.861,1.237,1.333.58-.555,1.064-1.046,1.577-1.5a6.424,6.424,0,0,1,8.985,9.164c-.7.757-1.47,1.456-2.18,2.207a1.088,1.088,0,0,1-1.567.218c-.412-.782-.381-.953.242-1.593.806-.828,1.675-1.609,2.39-2.509a4.507,4.507,0,0,0-6.586-6.076c-.528.486-1.016,1.015-1.534,1.512a1.6,1.6,0,0,1-2.5,0c-.566-.539-1.087-1.129-1.687-1.625a4.222,4.222,0,0,0-4.025-.851,4.483,4.483,0,0,0-2.089,7.454c.714.777,1.48,1.506,2.229,2.25Q50.66,79.12,53.473,81.9l1.2,1.257c1.239-1.242,2.439-2.449,3.644-3.651.561-.56.849-.592,1.556-.2" transform="translate(-35.045 -54.181)" fill="#0c0a09"/>
        <path id="Trazado_1321651" data-name="Trazado 1321651" d="M116.865,79.92a4.434,4.434,0,0,1,1.279,6.527c-.716.9-1.585,1.681-2.391,2.51-.623.64-.654.811-.242,1.593l-1.537,1.54c-.707-.388-1-.356-1.556.2-1.205,1.2-2.4,2.409-3.644,3.651l-1.2-1.257c.168-.188.327-.385.505-.564,2.61-2.614,5.253-5.2,7.811-7.86a7.271,7.271,0,0,0,1.336-2.31,5.14,5.14,0,0,0-.364-4.033" transform="translate(-89.148 -66.965)" fill="#dc2985"/>
        <path id="Trazado_1321652" data-name="Trazado 1321652" d="M210.338,178.48a12.186,12.186,0,1,1,12.175-12.213,12.158,12.158,0,0,1-12.175,12.213m.893-22.429a10.279,10.279,0,1,0,0,20.48,10.278,10.278,0,0,0,0-20.48" transform="translate(-164.378 -128.594)" fill="#0a0b0a"/>
        <path id="Trazado_1321653" data-name="Trazado 1321653" d="M72.173,76.511a5.14,5.14,0,0,1,.364,4.033,7.27,7.27,0,0,1-1.336,2.31c-2.558,2.664-5.2,5.246-7.811,7.86-.178.178-.337.376-.505.564q-2.811-2.785-5.621-5.571c-.749-.744-1.515-1.474-2.229-2.25A4.483,4.483,0,0,1,57.123,76a4.223,4.223,0,0,1,4.025.851c.6.5,1.121,1.087,1.687,1.625a1.6,1.6,0,0,0,2.5,0c.518-.5,1.006-1.026,1.534-1.512a4.408,4.408,0,0,1,5.307-.451" transform="translate(-44.456 -63.556)" fill="#dc609f"/>
        <path id="Trazado_1321654" data-name="Trazado 1321654" d="M220.625,185.907a10.279,10.279,0,1,1,0-20.48,22.132,22.132,0,0,1,3.036,2.112,10.848,10.848,0,0,1,3.436,9.093,10.586,10.586,0,0,1-3.257,6.979,26.537,26.537,0,0,1-3.212,2.3m-1-3.583c.843-.19,1.691-.34,2.513-.581a.9.9,0,0,0,.65-1.231.933.933,0,0,0-1.282-.55,5.3,5.3,0,0,1-3.588,0,.912.912,0,0,0-1.265.575.893.893,0,0,0,.619,1.2c.758.237,1.541.393,2.352.593m5.662-8.893c-.018-.358-.008-.655-.053-.944a.89.89,0,0,0-.96-.818.846.846,0,0,0-.9.8,10.706,10.706,0,0,0,.013,1.759.837.837,0,0,0,.873.76.876.876,0,0,0,.953-.746,6.754,6.754,0,0,0,.075-.814m-9.209-.1c0-.231,0-.463,0-.694a.9.9,0,0,0-.88-.963.932.932,0,0,0-1.007.842,9.148,9.148,0,0,0,0,1.637.944.944,0,0,0,1.009.845.92.92,0,0,0,.878-.973c0-.231,0-.463,0-.694" transform="translate(-173.769 -137.971)" fill="#ffd860"/>
        <path id="Trazado_1321655" data-name="Trazado 1321655" d="M275.485,186.068a26.567,26.567,0,0,0,3.212-2.3,10.586,10.586,0,0,0,3.257-6.979,10.848,10.848,0,0,0-3.436-9.093,22.12,22.12,0,0,0-3.036-2.112,10.278,10.278,0,0,1,0,20.48" transform="translate(-228.629 -138.131)" fill="#ffb32f"/>
        <path id="Trazado_1321656" data-name="Trazado 1321656" d="M254.706,253.418c-.812-.2-1.595-.356-2.353-.593a.893.893,0,0,1-.618-1.2.912.912,0,0,1,1.265-.575,5.3,5.3,0,0,0,3.588,0,.933.933,0,0,1,1.282.55.9.9,0,0,1-.65,1.231c-.822.241-1.671.391-2.513.581" transform="translate(-208.852 -209.064)" fill="#110f09"/>
        <path id="Trazado_1321657" data-name="Trazado 1321657" d="M293.493,204.221a6.756,6.756,0,0,1-.075.814.876.876,0,0,1-.953.746.837.837,0,0,1-.873-.76,10.7,10.7,0,0,1-.013-1.759.846.846,0,0,1,.9-.8.89.89,0,0,1,.959.818c.045.289.035.586.053.944" transform="translate(-241.977 -168.76)" fill="#17140b"/>
        <path id="Trazado_1321658" data-name="Trazado 1321658" d="M239.191,204.091c0,.231,0,.463,0,.694a.92.92,0,0,1-.878.973.944.944,0,0,1-1.008-.845,9.135,9.135,0,0,1,0-1.637.932.932,0,0,1,1.007-.842.9.9,0,0,1,.88.963c0,.231,0,.463,0,.694" transform="translate(-196.883 -168.734)" fill="#0f0e09"/>
      </g>
    </g>
  </g>
</svg>
