<svg xmlns="http://www.w3.org/2000/svg" xmlns:xlink="http://www.w3.org/1999/xlink" width="118" height="118" viewBox="0 0 118 118">
  <defs>
    <filter id="Elipse_12115" x="0" y="0" width="118" height="118" filterUnits="userSpaceOnUse">
      <feOffset dy="3" input="SourceAlpha"/>
      <feGaussianBlur stdDeviation="3" result="blur"/>
      <feFlood flood-opacity="0.161"/>
      <feComposite operator="in" in2="blur"/>
      <feComposite in="SourceGraphic"/>
    </filter>
    <clipPath id="clip-path">
      <rect id="Rectángulo_411053" data-name="Rectángulo 411053" width="67" height="67" fill="none"/>
    </clipPath>
  </defs>
  <g id="Grupo_1188554" data-name="Grupo 1188554" transform="translate(-799.781 -1970)">
    <g id="Grupo_1181939" data-name="Grupo 1181939" transform="translate(808.781 1976)">
      <g transform="matrix(1, 0, 0, 1, -9, -6)" filter="url(#Elipse_12115)">
        <g id="Elipse_12115-2" data-name="Elipse 12115" transform="translate(9 6)" fill="#f3b6ad" stroke="#a87f78" stroke-width="2">
          <circle cx="50" cy="50" r="50" stroke="none"/>
          <circle cx="50" cy="50" r="49" fill="none"/>
        </g>
      </g>
    </g>
    <g id="Grupo_1188561" data-name="Grupo 1188561" transform="translate(824.947 1992.455)">
      <g id="Grupo_1188560" data-name="Grupo 1188560" transform="translate(0 -0.236)" clip-path="url(#clip-path)">
        <path id="Trazado_1321679" data-name="Trazado 1321679" d="M63.39,67.023a2.679,2.679,0,0,0,1.693-3.054c-.22-2.47-.347-4.949-.539-7.422a4.172,4.172,0,0,0-1.71-3.168.856.856,0,0,1-.377-.807q.012-6.958,0-13.916a12.2,12.2,0,0,0-.152-2.08A10.959,10.959,0,0,0,49.111,27.7,10.807,10.807,0,0,0,40.7,36.912c-.243,2.965-.114,5.961-.132,8.944a1,1,0,0,0,.988,1.084q0,1.141,0,2.281a1.022,1.022,0,0,0-1,1.137c-.014.781.01,1.564-.014,2.345a.777.777,0,0,1-.218.552,4.808,4.808,0,0,0-1.913,4.064c-.1,2.145-.208,4.295-.451,6.427-.173,1.516.19,2.63,1.631,3.278H27.054a2.646,2.646,0,0,0,1.622-3.192A10.444,10.444,0,0,1,28.6,62.6c-.054-.871-.26-1.116-1.112-1.332l-.156-2.209a1.1,1.1,0,0,0,.9-1.355c-.034-.258-.013-.522-.03-.783a4.414,4.414,0,0,0-3.5-4.382q-2.523-.741-5.048-1.477c-.036-.011-.065-.05-.134-.107l.034-.539c1.336,0,2.62,0,3.9,0A2.362,2.362,0,0,0,26.089,47.8c.008-3.07.015-6.141-.007-9.211a13.712,13.712,0,0,0-.207-2.2A10.929,10.929,0,0,0,4.2,38.463c-.011,3.136,0,6.271,0,9.407a2.347,2.347,0,0,0,2.558,2.549c1.323,0,2.647,0,3.936,0,.181.511-.063.674-.448.783-1.666.475-3.333.948-4.99,1.456A4.115,4.115,0,0,0,2.2,56.041a16.418,16.418,0,0,0-.173,1.816c-.158,2.279-.32,4.558-.455,6.838a2.191,2.191,0,0,0,1.157,2.049c.138.088.271.186.406.279M41.941,11.9c-.781.384-.956.733-.719,1.56A10.6,10.6,0,0,0,47.3,20.517a1.8,1.8,0,0,1,.745.659c.649,1.051,1.247,2.135,1.869,3.2.9,1.549,2.307,1.538,3.215-.025.61-1.05,1.2-2.117,1.836-3.148a1.9,1.9,0,0,1,.786-.7A10.648,10.648,0,1,0,41.167,8.284c-.174.762.01,1.1.76,1.392q.006,1.113.013,2.226m-16.18-.172c.068-7.619-6.13-12.754-12.64-11.452a10.647,10.647,0,0,0-2.168,20.243,1.765,1.765,0,0,1,.732.672c.678,1.11,1.3,2.255,1.965,3.373a1.638,1.638,0,0,0,2.984-.011c.667-1.118,1.288-2.264,1.969-3.373a1.833,1.833,0,0,1,.74-.663c4.139-1.947,6.215-5.238,6.417-8.79" transform="translate(0.132 0.208)" fill="#fefefe"/>
        <path id="Trazado_1321680" data-name="Trazado 1321680" d="M35.663,190.96c.852.216,1.059.462,1.113,1.332a10.477,10.477,0,0,0,.073,1.227,2.646,2.646,0,0,1-1.622,3.192H11.308c-.135-.093-.267-.191-.406-.279a2.191,2.191,0,0,1-1.157-2.049c.135-2.281.3-4.559.455-6.838a16.415,16.415,0,0,1,.173-1.815,4.115,4.115,0,0,1,3.052-3.382c1.656-.508,3.324-.98,4.99-1.456.385-.11.629-.272.448-.783-1.29,0-2.613,0-3.936,0a2.347,2.347,0,0,1-2.558-2.549c0-3.136-.01-6.271,0-9.407a10.929,10.929,0,0,1,21.679-2.073,13.733,13.733,0,0,1,.207,2.2c.023,3.07.015,6.14.007,9.211a2.362,2.362,0,0,1-2.628,2.615h-3.9c-.013.2-.024.385-.034.539.07.057.1.1.135.107q2.523.741,5.048,1.477a4.414,4.414,0,0,1,3.5,4.382c.017.261,0,.525.03.783a1.1,1.1,0,0,1-.9,1.355c-.858-.235-1.026-.445-1.069-1.288-.021-.409-.07-.817-.111-1.226a2.159,2.159,0,0,0-1.5-1.924c-.582-.215-1.194-.348-1.793-.518l-3.288-1c-.5,3.022-1.947,4.588-4.207,4.638-2.584.057-4-1.322-4.689-4.587-.142.033-.286.059-.425.1q-2.092.608-4.183,1.221a2.435,2.435,0,0,0-2.01,2.532c-.164,2.432-.327,4.863-.519,7.293-.044.563.1.774.7.769,3.2-.024,6.4-.009,9.606-.012q4.966-.006,9.931-.021c.805.008,1.61.007,2.415.026.378.009.578-.121.545-.529-.046-.585-.066-1.173-.119-1.758-.083-.91.038-1.134.87-1.507m-5.92-12.842.9-.015a8.079,8.079,0,0,0,1.106.014c.17-.019.456-.2.459-.314.035-1.092.021-2.186.021-3.282a8.825,8.825,0,0,1-.935.124c-.356.008-.5.161-.521.512a7.373,7.373,0,0,1-.132.83l-.913,1.893q.007.119.013.237M26.352,159.7a8.871,8.871,0,0,0-11.382,5.138,9.211,9.211,0,0,0-.595,3.63l1.319-.227c.411-1.425,1-1.959,2.067-1.8a6.459,6.459,0,0,0,4.382-.882,21.518,21.518,0,0,0,3.067-2.393,1.781,1.781,0,0,1,2.655-.195,7.763,7.763,0,0,1,2.418,3.023,4.112,4.112,0,0,1,.343,1.043c.05.964.508,1.434,1.47,1.412.035,0,.069-.032.225-.107a18.775,18.775,0,0,0-.382-2.576,8.534,8.534,0,0,0-5.588-6.062m-.284,5.5c-.268.22-.537.439-.8.66a10.659,10.659,0,0,1-5.538,2.561c-.657.081-1.325.068-2.018.1,0,1.808-.023,3.57.013,5.33A6.065,6.065,0,0,0,18,175.571c.9,2.771,4.093,4.5,6.635,3.62a5.253,5.253,0,0,0,4.156-4.378,48.4,48.4,0,0,0,.1-6.241,5.2,5.2,0,0,0-2.235-4.03l-.589.653m-5.12,15.82c0,.781-.025,1.5.006,2.209a2.368,2.368,0,0,0,4.7.3A21.2,21.2,0,0,0,25.67,181a7.66,7.66,0,0,1-4.722.014m-6.6-6.5c0,1.079-.019,2.1.018,3.119.006.172.242.469.387.479.739.049,1.483.023,2.155.023l-1.288-3.44-1.272-.18m1.355-4.183c-.846-.005-1.377.493-1.341,1.2a1.144,1.144,0,0,0,1.341,1.1Zm15.232,2.308a.9.9,0,0,0,1.122-.563,2.046,2.046,0,0,0-.047-1.268.855.855,0,0,0-1.075-.464Z" transform="translate(-8.04 -129.48)" fill="#0b0b0a"/>
        <path id="Trazado_1321681" data-name="Trazado 1321681" d="M221.687,176.785a1,1,0,0,1-.988-1.084c.018-2.982-.111-5.979.132-8.944a10.807,10.807,0,0,1,8.407-9.211,10.959,10.959,0,0,1,13.191,8.876,12.2,12.2,0,0,1,.152,2.08q.019,6.958,0,13.916a.856.856,0,0,0,.378.807,4.173,4.173,0,0,1,1.71,3.168c.191,2.473.318,4.952.539,7.422a2.679,2.679,0,0,1-1.693,3.053H219.729c-1.441-.648-1.8-1.762-1.631-3.278.243-2.132.347-4.282.451-6.427a4.807,4.807,0,0,1,1.913-4.064.776.776,0,0,0,.218-.552c.024-.781,0-1.563.014-2.345a1.022,1.022,0,0,1,1-1.137c.756.174.993.442,1.01,1.2.015.638,0,1.276,0,1.959,1.425-.414,2.756-.79,4.079-1.2.189-.058.468-.257.469-.394a.994.994,0,0,0-.292-.707,7.7,7.7,0,0,1-2.806-4.7.631.631,0,0,0-.377-.4,6.776,6.776,0,0,0-1.037-.151c-.143.808.285,1.912-1.053,2.105m17.252,4.915,1.634.536v-7.57l-1.35.2-.377,1.487a8.146,8.146,0,0,1-2.5,3.572,1.1,1.1,0,0,0-.28.769c0,.119.314.29.513.35.783.238,1.576.441,2.365.658m-4.575-21.956c-3.662-1.446-8.338.328-10.45,3.969a8.351,8.351,0,0,0-1.18,4.9,8.714,8.714,0,0,0,1.005-.162.655.655,0,0,0,.409-.317,1.851,1.851,0,0,1,1.506-1.188,15.442,15.442,0,0,0,2-.546,4.413,4.413,0,0,0,2.993-2.767,1.005,1.005,0,0,1,1.983,0,3.427,3.427,0,0,0,1.881,2.224c.95.451,1.99.71,2.977,1.089.492.189.953.461,1.428.695.116,1.024.974.805,1.681.993a9.124,9.124,0,0,0-.482-3.266,8.611,8.611,0,0,0-5.755-5.626m-1.438,19.613a5.114,5.114,0,0,0,4.147-4.221,61.375,61.375,0,0,0,.046-6.242l-1.45-.356a8.35,8.35,0,0,1-3.905-2.4,25.3,25.3,0,0,1-2.69,1.781,26.027,26.027,0,0,1-3.052,1.1c0,1.724-.03,3.484.017,5.241a5.436,5.436,0,0,0,.372,1.7,5.5,5.5,0,0,0,6.515,3.395m7.323,15.53c.782.007,1.566-.014,2.346.031.59.034.691-.237.652-.747-.186-2.447-.354-4.895-.519-7.343a2.433,2.433,0,0,0-1.963-2.5c-.474-.141-.955-.257-1.433-.385l-3.253-1c-.458,2.967-1.985,4.59-4.238,4.645a4.382,4.382,0,0,1-4.553-4.684c-1.885.58-3.688,1.094-5.46,1.7a1.885,1.885,0,0,0-1.175,1.539,13,13,0,0,0-.137,1.427c-.152,2.19-.276,4.382-.463,6.569-.05.584.082.776.677.771,2.742-.022,5.484-.007,8.226-.01q5.647-.007,11.293-.021m-6.27-13.72a7.778,7.778,0,0,1-4.707,0c0,.84-.047,1.623.011,2.4a2.357,2.357,0,0,0,2.317,2.06,2.332,2.332,0,0,0,2.363-1.922,24.993,24.993,0,0,0,.017-2.541m5.263-8.364c.844.006,1.363-.472,1.349-1.186a1.121,1.121,0,0,0-1.349-1.1Zm-15.22-2.329c-.88.014-1.328.443-1.308,1.213a1.107,1.107,0,0,0,1.308,1.109Z" transform="translate(-179.995 -129.638)" fill="#0c0b0a"/>
        <path id="Trazado_1321682" data-name="Trazado 1321682" d="M240.967,21.8q-.006-1.113-.013-2.226c.753.021,1.04-.434,1.207-1.094a8.653,8.653,0,0,1,8.758-6.485,10.455,10.455,0,0,1,2.98,2.358,9.189,9.189,0,0,1,2.255,7.394,9.332,9.332,0,0,1-5.712,7.71,1.968,1.968,0,0,0-1.252,1.221A5.146,5.146,0,0,0,246.6,28.3a8.077,8.077,0,0,1-4.414-5.392,1.269,1.269,0,0,0-1.219-1.111m8.253-1.141c-.234.192-.413.317-.567.468-.544.533-1.088,1.067-1.615,1.616a1,1,0,0,0-.1,1.5,1.023,1.023,0,0,0,1.5-.114q.311-.288.6-.6c.482-.518.958-1.043,1.44-1.569l1.97,1.971c.668.668,1.207.768,1.673.31.491-.482.412-1-.266-1.675-.632-.63-1.268-1.254-1.97-1.947.261-.238.509-.447.739-.674.524-.522,1.057-1.037,1.552-1.585a.866.866,0,0,0,.011-1.24.919.919,0,0,0-1.226-.221,2.326,2.326,0,0,0-.544.459c-.618.628-1.228,1.265-1.884,1.944-.748-.768-1.394-1.444-2.054-2.1a1.02,1.02,0,0,0-1.541-.147c-.449.457-.4.96.163,1.527.673.674,1.357,1.338,2.114,2.083" transform="translate(-198.894 -9.688)" fill="#dc609f"/>
        <path id="Trazado_1321683" data-name="Trazado 1321683" d="M47.9,12.132c-.2,3.552-2.278,6.843-6.416,8.79a1.831,1.831,0,0,0-.741.663c-.68,1.109-1.3,2.255-1.969,3.373a1.639,1.639,0,0,1-2.984.011c-.665-1.118-1.287-2.263-1.965-3.373a1.765,1.765,0,0,0-.732-.672A10.647,10.647,0,0,1,35.257.68c6.51-1.3,12.708,3.833,12.64,11.452M37.682,2.5c-.562.031-1.128.024-1.684.1A8.616,8.616,0,0,0,33.207,18.75a5.046,5.046,0,0,1,2.682,2.392L37.271,23.6c.626-1.081,1.214-2.063,1.767-3.064a3.136,3.136,0,0,1,1.556-1.4A8.651,8.651,0,0,0,37.682,2.5" transform="translate(-22.004 -0.194)" fill="#0b0c0a"/>
        <path id="Trazado_1321684" data-name="Trazado 1321684" d="M247.035,2.577a8.653,8.653,0,0,0-8.758,6.485c-.167.661-.454,1.115-1.207,1.094-.75-.3-.935-.63-.761-1.392A10.635,10.635,0,1,1,250.9,20.988a1.9,1.9,0,0,0-.786.7c-.641,1.031-1.225,2.1-1.836,3.148-.908,1.562-2.313,1.573-3.215.025-.622-1.068-1.22-2.151-1.869-3.2a1.8,1.8,0,0,0-.745-.659,10.6,10.6,0,0,1-6.081-7.055c-.237-.827-.061-1.176.719-1.56a1.269,1.269,0,0,1,1.219,1.112,8.077,8.077,0,0,0,4.414,5.392,5.147,5.147,0,0,1,2.59,2.374l1.344,2.424c.61-1.059,1.178-2,1.7-2.971a3.4,3.4,0,0,1,1.683-1.544,8.641,8.641,0,0,0-3-16.594" transform="translate(-195.01 -0.272)" fill="#0d0a0b"/>
        <path id="Trazado_1321685" data-name="Trazado 1321685" d="M136.352,317.172c-.831.373-.953.6-.87,1.507.053.585.073,1.172.119,1.758.032.408-.167.538-.546.529-.8-.018-1.61-.018-2.415-.026,0-.5.021-1-.014-1.493-.158-2.256-.314-4.512-.51-6.765-.078-.9-.259-1.783-.394-2.674.6.17,1.211.3,1.793.518a2.159,2.159,0,0,1,1.5,1.923c.041.408.09.816.111,1.226.044.843.211,1.054,1.069,1.288l.156,2.209" transform="translate(-108.73 -255.693)" fill="#ffb32f"/>
        <path id="Trazado_1321686" data-name="Trazado 1321686" d="M238.844,258.986c1.338-.193.911-1.3,1.053-2.105a6.792,6.792,0,0,1,1.037.151.631.631,0,0,1,.377.4,7.7,7.7,0,0,0,2.806,4.7,1,1,0,0,1,.292.707c0,.136-.28.336-.469.394-1.322.406-2.653.782-4.079,1.2,0-.682.012-1.321,0-1.959-.017-.756-.254-1.024-1.01-1.2q0-1.141,0-2.281" transform="translate(-197.152 -211.84)" fill="#ffd65f"/>
        <path id="Trazado_1321687" data-name="Trazado 1321687" d="M40.328,305.279c.134.891.316,1.778.394,2.674.2,2.253.352,4.509.51,6.765.035.5.011,1,.014,1.494q-4.966.011-9.932.021c-3.2,0-6.4-.012-9.606.012-.6,0-.744-.206-.7-.769.191-2.43.355-4.862.519-7.293a2.435,2.435,0,0,1,2.01-2.532q2.091-.612,4.183-1.221c.139-.041.283-.066.425-.1.685,3.265,2.1,4.644,4.689,4.587,2.26-.05,3.7-1.617,4.207-4.638l3.288,1" transform="translate(-17.335 -250.964)" fill="#ffd860"/>
        <path id="Trazado_1321688" data-name="Trazado 1321688" d="M62.281,217.448c-2.542.877-5.737-.849-6.635-3.62a6.071,6.071,0,0,1-.281-1.725c-.036-1.76-.013-3.522-.013-5.33.693-.031,1.361-.017,2.018-.1a10.659,10.659,0,0,0,5.538-2.561c.267-.221.536-.44.8-.66a6.516,6.516,0,0,1,1.2,3.961c-.06,1.625.055,3.259-.042,4.88a6.509,6.509,0,0,1-.638,2.6,18.25,18.25,0,0,1-1.952,2.556" transform="translate(-45.685 -167.738)" fill="#f39657"/>
        <path id="Trazado_1321689" data-name="Trazado 1321689" d="M52.176,175.4a7.76,7.76,0,0,0-2.418-3.023,1.781,1.781,0,0,0-2.655.2,21.506,21.506,0,0,1-3.067,2.393,6.457,6.457,0,0,1-4.382.882c-1.071-.156-1.656.377-2.067,1.8l-1.319.228a9.213,9.213,0,0,1,.595-3.63,8.871,8.871,0,0,1,11.382-5.138,1.645,1.645,0,0,0,.285.388,9.829,9.829,0,0,1,3.237,4.143,10.227,10.227,0,0,1,.408,1.76" transform="translate(-29.934 -138.891)" fill="#948796"/>
        <path id="Trazado_1321690" data-name="Trazado 1321690" d="M95.079,214.36a18.253,18.253,0,0,0,1.952-2.556,6.509,6.509,0,0,0,.638-2.6c.1-1.622-.018-3.255.042-4.88a6.516,6.516,0,0,0-1.2-3.961l.589-.653a5.2,5.2,0,0,1,2.235,4.03,48.466,48.466,0,0,1-.1,6.241,5.254,5.254,0,0,1-4.157,4.378" transform="translate(-78.482 -164.65)" fill="#e48543"/>
        <path id="Trazado_1321691" data-name="Trazado 1321691" d="M73.9,294.015A7.659,7.659,0,0,0,78.625,294a21.2,21.2,0,0,1-.019,2.52,2.368,2.368,0,0,1-4.7-.3c-.031-.713-.006-1.428-.006-2.208" transform="translate(-60.995 -242.48)" fill="#ce7441"/>
        <path id="Trazado_1321692" data-name="Trazado 1321692" d="M108.833,178.258a10.225,10.225,0,0,0-.408-1.76,9.829,9.829,0,0,0-3.237-4.143,1.644,1.644,0,0,1-.285-.388,8.535,8.535,0,0,1,5.588,6.062,18.8,18.8,0,0,1,.382,2.576c-.156.076-.19.106-.225.107-.963.022-1.42-.447-1.47-1.412a4.111,4.111,0,0,0-.343-1.043" transform="translate(-86.591 -141.749)" fill="#7b6d7d"/>
        <path id="Trazado_1321693" data-name="Trazado 1321693" d="M36.129,256.821,37.4,257l1.288,3.44c-.671,0-1.415.026-2.155-.023-.145-.01-.381-.307-.387-.479-.037-1.019-.018-2.04-.018-3.119" transform="translate(-29.818 -211.79)" fill="#8d818f"/>
        <path id="Trazado_1321694" data-name="Trazado 1321694" d="M129.489,258.344a7.415,7.415,0,0,0,.132-.83c.018-.351.165-.5.521-.512a8.837,8.837,0,0,0,.935-.124c0,1.1.014,2.19-.021,3.282,0,.114-.29.295-.459.314a8.071,8.071,0,0,1-1.106-.014q0-1.057,0-2.115" transform="translate(-106.886 -211.836)" fill="#7b6d7d"/>
        <path id="Trazado_1321695" data-name="Trazado 1321695" d="M37.567,232.86v2.3a1.144,1.144,0,0,1-1.34-1.1c-.037-.709.495-1.208,1.34-1.2" transform="translate(-29.902 -192.011)" fill="#db8040"/>
        <path id="Trazado_1321696" data-name="Trazado 1321696" d="M131.178,235.055V232.76a.855.855,0,0,1,1.075.464,2.046,2.046,0,0,1,.047,1.268.9.9,0,0,1-1.122.563" transform="translate(-108.28 -191.898)" fill="#ce7441"/>
        <path id="Trazado_1321697" data-name="Trazado 1321697" d="M125.17,265.279q0,1.058,0,2.115l-.9.015q-.006-.119-.013-.237l.913-1.893" transform="translate(-102.567 -218.772)" fill="#8d818f"/>
        <path id="Trazado_1321698" data-name="Trazado 1321698" d="M124.257,276.123q.006.119.013.237-.007-.119-.013-.237" transform="translate(-102.567 -227.723)" fill="#7b6d7d"/>
        <path id="Trazado_1321699" data-name="Trazado 1321699" d="M249.634,316.017q-5.647.011-11.293.021c-2.742,0-5.484-.012-8.226.01-.595,0-.726-.187-.677-.771.186-2.187.311-4.379.463-6.569a12.959,12.959,0,0,1,.137-1.427,1.884,1.884,0,0,1,1.175-1.539c1.772-.606,3.575-1.121,5.46-1.7a4.382,4.382,0,0,0,4.553,4.684c2.254-.056,3.78-1.678,4.238-4.645l3.253,1c.132.848.292,1.693.388,2.545.087.771.1,1.55.151,2.325q.189,3.035.378,6.07" transform="translate(-189.38 -250.768)" fill="#dd60a0"/>
        <path id="Trazado_1321700" data-name="Trazado 1321700" d="M270.536,221.173a5.5,5.5,0,0,1-6.515-3.395,5.441,5.441,0,0,1-.372-1.7c-.048-1.757-.017-3.517-.017-5.241a26.025,26.025,0,0,0,3.052-1.1,25.257,25.257,0,0,0,2.69-1.78,8.354,8.354,0,0,0,3.905,2.4c0,1.8.054,3.6-.012,5.4a6.375,6.375,0,0,1-1.4,4.024c-.415.489-.885.932-1.33,1.4" transform="translate(-217.606 -171.455)" fill="#fdc592"/>
        <path id="Trazado_1321701" data-name="Trazado 1321701" d="M260.924,176.838c-.475-.234-.936-.506-1.428-.695-.986-.38-2.026-.639-2.977-1.089a3.426,3.426,0,0,1-1.881-2.224,1.005,1.005,0,0,0-1.983,0,4.413,4.413,0,0,1-2.994,2.767,15.431,15.431,0,0,1-2,.546,1.851,1.851,0,0,0-1.506,1.188.656.656,0,0,1-.409.317,8.71,8.71,0,0,1-1.005.162,8.35,8.35,0,0,1,1.18-4.9c2.112-3.641,6.788-5.415,10.45-3.969.7.636,1.459,1.22,2.09,1.919a9.361,9.361,0,0,1,2.465,5.98" transform="translate(-201.999 -138.832)" fill="#ffd760"/>
        <path id="Trazado_1321702" data-name="Trazado 1321702" d="M340.845,320.912q-.189-3.035-.378-6.07c-.048-.775-.065-1.554-.151-2.325-.1-.852-.256-1.7-.388-2.545.478.128.959.244,1.433.385a2.433,2.433,0,0,1,1.963,2.5c.165,2.448.333,4.9.519,7.343.039.511-.062.781-.652.747-.78-.044-1.564-.024-2.346-.031" transform="translate(-280.592 -255.663)" fill="#dc2885"/>
        <path id="Trazado_1321703" data-name="Trazado 1321703" d="M286.916,294.044a25,25,0,0,1-.017,2.541,2.333,2.333,0,0,1-2.363,1.922,2.357,2.357,0,0,1-2.317-2.06c-.059-.775-.011-1.558-.011-2.4a7.778,7.778,0,0,0,4.707,0" transform="translate(-232.932 -242.516)" fill="#f29557"/>
        <path id="Trazado_1321704" data-name="Trazado 1321704" d="M303.232,232.518c.445-.464.914-.907,1.33-1.4a6.375,6.375,0,0,0,1.4-4.024c.066-1.8.013-3.6.012-5.4l1.45.355a61.379,61.379,0,0,1-.046,6.242,5.114,5.114,0,0,1-4.147,4.221" transform="translate(-250.301 -182.8)" fill="#faab70"/>
        <path id="Trazado_1321705" data-name="Trazado 1321705" d="M316.027,179.219a9.361,9.361,0,0,0-2.465-5.98c-.631-.7-1.39-1.283-2.09-1.919a8.61,8.61,0,0,1,5.755,5.627,9.119,9.119,0,0,1,.481,3.266c-.707-.188-1.565.031-1.681-.993" transform="translate(-257.102 -141.213)" fill="#fbaf2e"/>
        <path id="Trazado_1321706" data-name="Trazado 1321706" d="M337.145,258.49l.377-1.487,1.35-.2v7.57l-1.634-.536c0-1.446.011-2.892,0-4.338,0-.337-.062-.674-.1-1.011" transform="translate(-278.294 -211.777)" fill="#f5ac2d"/>
        <path id="Trazado_1321707" data-name="Trazado 1321707" d="M323.978,266.458c.033.337.093.674.1,1.011.009,1.446,0,2.892,0,4.338-.789-.216-1.582-.42-2.365-.658-.2-.06-.513-.23-.513-.35a1.1,1.1,0,0,1,.28-.769,8.146,8.146,0,0,0,2.5-3.572" transform="translate(-265.128 -219.745)" fill="#ffd65f"/>
        <path id="Trazado_1321708" data-name="Trazado 1321708" d="M339.413,235.26v-2.289a1.121,1.121,0,0,1,1.349,1.1c.014.714-.505,1.192-1.349,1.186" transform="translate(-280.166 -192.096)" fill="#e88f53"/>
        <path id="Trazado_1321709" data-name="Trazado 1321709" d="M246.03,232.785v2.322A1.107,1.107,0,0,1,244.722,234c-.02-.769.428-1.2,1.308-1.213" transform="translate(-202.004 -191.95)" fill="#f5a86f"/>
        <path id="Trazado_1321710" data-name="Trazado 1321710" d="M289.864,12.051a8.641,8.641,0,0,1,3,16.594,3.4,3.4,0,0,0-1.683,1.544c-.526.967-1.094,1.912-1.7,2.971l-1.344-2.424a1.967,1.967,0,0,1,1.252-1.221A9.332,9.332,0,0,0,295.1,21.8a9.19,9.19,0,0,0-2.255-7.394,10.458,10.458,0,0,0-2.98-2.358" transform="translate(-237.839 -9.746)" fill="#dc2885"/>
        <path id="Trazado_1321711" data-name="Trazado 1321711" d="M276.11,43.24c-.757-.745-1.441-1.408-2.114-2.083-.565-.567-.613-1.07-.163-1.527a1.02,1.02,0,0,1,1.541.147c.66.661,1.306,1.337,2.054,2.1.657-.679,1.266-1.316,1.885-1.944a2.325,2.325,0,0,1,.544-.459.919.919,0,0,1,1.226.221.866.866,0,0,1-.011,1.24c-.5.548-1.028,1.063-1.552,1.585-.229.228-.477.437-.739.674.7.693,1.338,1.317,1.97,1.947.678.676.757,1.193.266,1.675-.466.458-1.005.358-1.673-.31l-1.97-1.971c-.482.526-.958,1.051-1.44,1.569q-.289.311-.6.6a1.023,1.023,0,0,1-1.5.114,1,1,0,0,1,.1-1.5c.527-.549,1.071-1.083,1.615-1.616.154-.151.333-.276.567-.468" transform="translate(-225.784 -32.271)" fill="#0d080b"/>
        <path id="Trazado_1321712" data-name="Trazado 1321712" d="M45.044,30.695A5.047,5.047,0,0,0,42.362,28.3a8.616,8.616,0,0,1,2.791-16.154c.556-.074,1.122-.067,1.684-.1,3.714,2.157,5.637,5.3,5.226,9.667a9.263,9.263,0,0,1-4.707,7.311c-.81.5-1.891.628-2.311,1.666m.506-8.45c-.665-.685-1.276-1.332-1.907-1.958-.536-.532-1.108-.56-1.538-.109a1.016,1.016,0,0,0,.147,1.495q1.234,1.256,2.49,2.49c.607.593,1.066.583,1.682-.028q2.082-2.067,4.151-4.148c.546-.549.607-1.1.19-1.539s-1.023-.4-1.584.159c-1.185,1.181-2.364,2.369-3.63,3.639" transform="translate(-31.159 -9.746)" fill="#b9ce56"/>
        <path id="Trazado_1321713" data-name="Trazado 1321713" d="M79.548,30.695c.421-1.039,1.5-1.17,2.311-1.667a9.262,9.262,0,0,0,4.707-7.311c.412-4.364-1.512-7.51-5.226-9.667a8.651,8.651,0,0,1,2.912,16.633,3.136,3.136,0,0,0-1.556,1.4c-.553,1-1.141,1.983-1.766,3.064l-1.382-2.457" transform="translate(-65.662 -9.746)" fill="#95bd27"/>
        <path id="Trazado_1321714" data-name="Trazado 1321714" d="M64.905,51.05c1.267-1.271,2.445-2.458,3.63-3.639.561-.559,1.157-.612,1.584-.159s.356.991-.19,1.539q-2.07,2.079-4.151,4.148c-.615.611-1.075.621-1.682.028q-1.259-1.23-2.49-2.49a1.016,1.016,0,0,1-.147-1.495c.43-.451,1-.423,1.538.109.631.626,1.242,1.273,1.907,1.958" transform="translate(-50.514 -38.551)" fill="#080907"/>
      </g>
    </g>
  </g>
</svg>
