<svg xmlns="http://www.w3.org/2000/svg" xmlns:xlink="http://www.w3.org/1999/xlink" width="76.345" height="76.344" viewBox="0 0 76.345 76.344">
  <defs>
    <clipPath id="clip-path">
      <path id="path1455" d="M0-682.665H53.095v53.095H0Z" transform="translate(0 682.665)"/>
    </clipPath>
  </defs>
  <g id="Grupo_1185946" data-name="Grupo 1185946" transform="translate(0)">
    <g id="Grupo_1184280" data-name="Grupo 1184280" transform="translate(0)">
      <g id="Grupo_1182168" data-name="Grupo 1182168">
        <g id="Grupo_1178877" data-name="Grupo 1178877">
          <g id="Grupo_1111311" data-name="Grupo 1111311">
            <g id="Grupo_1098742" data-name="Grupo 1098742">
              <g id="Rect치ngulo_400898" data-name="Rect치ngulo 400898" transform="translate(0)" fill="#d8cdc7" stroke="#a87f78" stroke-width="3" opacity="0.859">
                <rect width="76.345" height="76.345" rx="38.172" stroke="none"/>
                <rect x="1.5" y="1.5" width="73.345" height="73.345" rx="36.672" fill="none"/>
              </g>
              <g id="Rect치ngulo_400907" data-name="Rect치ngulo 400907" fill="none" stroke="#a87f78" stroke-width="3">
                <rect width="76.345" height="76.345" rx="38.172" stroke="none"/>
                <rect x="1.5" y="1.5" width="73.345" height="73.345" rx="36.672" fill="none"/>
              </g>
            </g>
          </g>
        </g>
      </g>
    </g>
    <g id="g1449" transform="translate(10.627 13.328)">
      <g id="g1451">
        <g id="g1453" clip-path="url(#clip-path)">
          <g id="g1459" transform="translate(33.297 5.595)">
            <path id="path1461" d="M-206.275-270.507h-16.878a.519.519,0,0,1-.518-.519V-292.8a.518.518,0,0,1,.518-.518h16.878a.518.518,0,0,1,.519.518v21.776a.519.519,0,0,1-.519.519" transform="translate(223.671 293.321)" fill="#fef0ae"/>
          </g>
          <g id="g1463" transform="translate(33.297 5.595)">
            <path id="path1465" d="M-33.1-264.359v-21.776a.519.519,0,0,1,.519-.519h-2.791a.519.519,0,0,0-.519.519v21.776a.519.519,0,0,0,.519.518h2.791a.519.519,0,0,1-.519-.518" transform="translate(35.889 286.654)" fill="#fee97d"/>
          </g>
          <g id="g1467" transform="translate(33.297 5.595)">
            <path id="path1469" d="M-212.423-108.27v-8.612a.518.518,0,0,0-.519-.519H-229.82a.518.518,0,0,0-.518.519v21.776a.519.519,0,0,0,.518.519h16.878a.518.518,0,0,0,.519-.519v-9.534" transform="translate(230.338 117.401)" fill="none" stroke="#000" stroke-linecap="round" stroke-linejoin="round" stroke-miterlimit="10" stroke-width="1"/>
          </g>
          <g id="g1471" transform="translate(37.825 10.126)">
            <path id="path1473" d="M0,0H8.858" fill="none" stroke="#000" stroke-linecap="round" stroke-linejoin="round" stroke-miterlimit="10" stroke-width="1"/>
          </g>
          <g id="g1475" transform="translate(37.825 13.564)">
            <path id="path1477" d="M0,0H8.858" fill="none" stroke="#000" stroke-linecap="round" stroke-linejoin="round" stroke-miterlimit="10" stroke-width="1"/>
          </g>
          <g id="g1479" transform="translate(37.825 17.001)">
            <path id="path1481" d="M0,0H8.858" fill="none" stroke="#000" stroke-linecap="round" stroke-linejoin="round" stroke-miterlimit="10" stroke-width="1"/>
          </g>
          <g id="g1483" transform="translate(37.825 20.439)">
            <path id="path1485" d="M0,0H8.858" fill="none" stroke="#000" stroke-linecap="round" stroke-linejoin="round" stroke-miterlimit="10" stroke-width="1"/>
          </g>
          <g id="g1487" transform="translate(37.825 23.876)">
            <path id="path1489" d="M0,0H6.306" fill="none" stroke="#000" stroke-linecap="round" stroke-linejoin="round" stroke-miterlimit="10" stroke-width="1"/>
          </g>
          <path id="path1491" d="M280.832-243.848H269.343v-17.11h11.488Z" transform="translate(-248.395 293.757)" fill="#fed2a4"/>
          <g id="g1493" transform="translate(20.948 36.308)">
            <path id="path1495" d="M-81.789-64.458l-1.655-2.7a1.4,1.4,0,0,0-.879-.631,11.394,11.394,0,0,1-4.363-2.108v11.176H-77.2v-4.552h-2.469a2.5,2.5,0,0,1-2.121-1.187" transform="translate(88.686 69.895)" fill="#fed2a4"/>
          </g>
          <g id="g1497" transform="translate(20.948 36.308)">
            <path id="path1499" d="M0,0V11.176H3.525v-9.3A11.45,11.45,0,0,1,0,0" fill="#ffbd86"/>
          </g>
          <g id="g1501" transform="translate(20.948 36.308)">
            <path id="path1503" d="M-81.789-64.458l-1.655-2.7a1.4,1.4,0,0,0-.879-.631,11.394,11.394,0,0,1-4.363-2.108v11.176H-77.2v-4.552h-2.469A2.5,2.5,0,0,1-81.789-64.458Z" transform="translate(88.686 69.895)" fill="none" stroke="#000" stroke-linecap="round" stroke-linejoin="round" stroke-miterlimit="10" stroke-width="1"/>
          </g>
          <g id="g1505" transform="translate(16.468 15.855)">
            <path id="path1507" d="M-309.816-206.6l-3.152-3.362v-2.448a11.569,11.569,0,0,0-11.448-11.613,11.488,11.488,0,0,0-11.529,11.488,11.49,11.49,0,0,0,8.819,11.173,1.308,1.308,0,0,1,.815.584l1.655,2.7a2.593,2.593,0,0,0,2.21,1.236h8.183a1.294,1.294,0,0,0,1.294-1.294v-6.282h2.208a1.294,1.294,0,0,0,1.294-1.294,1.294,1.294,0,0,0-.35-.885" transform="translate(335.944 224.019)" fill="#ffe5c2"/>
          </g>
          <g id="g1509" transform="translate(16.468 15.855)">
            <path id="path1511" d="M-41.639-166.973A11.488,11.488,0,0,1-30.11-178.462a11.306,11.306,0,0,1,4.841,1.1,11.387,11.387,0,0,0-8.353-3.7,11.488,11.488,0,0,0-11.529,11.488A11.485,11.485,0,0,0-38.6-159.194a11.439,11.439,0,0,1-3.04-7.78" transform="translate(45.151 181.055)" fill="#fed2a4"/>
          </g>
          <g id="g1513" transform="translate(16.468 15.855)">
            <path id="path1515" d="M-242.48-322.278h1.232a1.294,1.294,0,0,0,1.294-1.294v-6.282h2.208a1.294,1.294,0,0,0,1.294-1.294,1.3,1.3,0,0,0-.35-.885l-3.152-3.362v-2.448A11.569,11.569,0,0,0-251.4-349.457a11.488,11.488,0,0,0-11.529,11.488,11.49,11.49,0,0,0,8.819,11.173,1.307,1.307,0,0,1,.815.584l1.655,2.7a2.593,2.593,0,0,0,2.21,1.236h3.321" transform="translate(262.93 349.457)" fill="none" stroke="#000" stroke-linecap="round" stroke-linejoin="round" stroke-miterlimit="10" stroke-width="1"/>
          </g>
          <g id="g1521" transform="translate(2.493 0.778)">
            <path id="path1523" d="M-259.318-107.717h-.192a6.2,6.2,0,0,0,.7-2.86,6.224,6.224,0,0,0-6.224-6.224,6.224,6.224,0,0,0-5.581,3.469,4.69,4.69,0,0,0-1.989-.44,4.71,4.71,0,0,0-4.71,4.71,4.71,4.71,0,0,0,.2,1.358,4.388,4.388,0,0,0-4.069,4.362,4.387,4.387,0,0,0,4.374,4.374h9.019a2.907,2.907,0,0,0,2.859,2.384,2.907,2.907,0,0,0,2.859-2.384h2.759a4.387,4.387,0,0,0,4.374-4.374,4.387,4.387,0,0,0-4.374-4.374" transform="translate(281.187 116.801)" fill="#eaf6ff"/>
          </g>
          <g id="g1525" transform="translate(2.494 0.778)">
            <path id="path1527" d="M-31.83-184.787a4.387,4.387,0,0,1,4.069-4.362,4.707,4.707,0,0,1-.2-1.358,4.71,4.71,0,0,1,4.71-4.71,4.691,4.691,0,0,1,1.989.44,6.224,6.224,0,0,1,5.581-3.468,6.2,6.2,0,0,1,2.37.468,6.215,6.215,0,0,0-5.055-2.594,6.224,6.224,0,0,0-5.581,3.468,4.692,4.692,0,0,0-1.989-.44,4.71,4.71,0,0,0-4.71,4.71,4.707,4.707,0,0,0,.2,1.358,4.387,4.387,0,0,0-4.069,4.362,4.391,4.391,0,0,0,3.221,4.218,4.336,4.336,0,0,1-.536-2.092" transform="translate(34.515 200.371)" fill="#d8ecfe"/>
          </g>
          <g id="g1529" transform="translate(11.043 5.673)">
            <path id="path1531" d="M-57.827-2.247-56.677.082a.34.34,0,0,0,.256.186l2.57.373a.34.34,0,0,1,.188.58l-1.86,1.813a.34.34,0,0,0-.1.3l.439,2.56a.34.34,0,0,1-.493.358l-2.3-1.209a.34.34,0,0,0-.316,0l-2.3,1.209a.34.34,0,0,1-.493-.358l.439-2.56a.34.34,0,0,0-.1-.3L-62.6,1.221a.34.34,0,0,1,.188-.58l2.57-.373a.34.34,0,0,0,.256-.186l1.15-2.329a.34.34,0,0,1,.61,0" transform="translate(62.703 2.437)" fill="#fed402"/>
          </g>
          <g id="g1533" transform="translate(11.043 8.4)">
            <path id="path1535" d="M-50.378-55.75l.439-2.56a.34.34,0,0,0-.1-.3l-1.86-1.813a.37.37,0,0,1-.025-.028l-2.414.351a.34.34,0,0,0-.188.58l1.86,1.813a.34.34,0,0,1,.1.3L-53-54.848a.34.34,0,0,0,.493.358l2.138-1.124a.34.34,0,0,1,0-.137" transform="translate(54.626 60.452)" fill="#fac600"/>
          </g>
          <g id="g1537" transform="translate(11.043 5.673)">
            <path id="path1539" d="M-57.827-2.247-56.677.082a.34.34,0,0,0,.256.186l2.57.373a.34.34,0,0,1,.188.58l-1.86,1.813a.34.34,0,0,0-.1.3l.439,2.56a.34.34,0,0,1-.493.358l-2.3-1.209a.34.34,0,0,0-.316,0l-2.3,1.209a.34.34,0,0,1-.493-.358l.439-2.56a.34.34,0,0,0-.1-.3L-62.6,1.221a.34.34,0,0,1,.188-.58l2.57-.373a.34.34,0,0,0,.256-.186l1.15-2.329A.34.34,0,0,1-57.827-2.247Z" transform="translate(62.703 2.437)" fill="none" stroke="#000" stroke-linecap="round" stroke-linejoin="round" stroke-miterlimit="10" stroke-width="1"/>
          </g>
          <g id="g1549" transform="translate(22.596 21.139)">
            <path id="path1551" d="M-45.57-22.785a1.922,1.922,0,0,1-1.922,1.922,1.922,1.922,0,0,1-1.922-1.922,1.922,1.922,0,0,1,1.922-1.922,1.922,1.922,0,0,1,1.922,1.922" transform="translate(49.413 24.707)" fill="#eaf6ff"/>
          </g>
          <g id="g1553" transform="translate(2.493 0.778)">
            <path id="path1555" d="M-259.318-107.717h-.192a6.2,6.2,0,0,0,.7-2.86,6.224,6.224,0,0,0-6.224-6.224,6.224,6.224,0,0,0-5.581,3.469,4.69,4.69,0,0,0-1.989-.44,4.71,4.71,0,0,0-4.71,4.71,4.71,4.71,0,0,0,.2,1.358,4.388,4.388,0,0,0-4.069,4.362,4.387,4.387,0,0,0,4.374,4.374h9.019a2.907,2.907,0,0,0,2.859,2.384,2.907,2.907,0,0,0,2.859-2.384h2.759a4.387,4.387,0,0,0,4.374-4.374A4.387,4.387,0,0,0-259.318-107.717Z" transform="translate(281.187 116.801)" fill="none" stroke="#000" stroke-linecap="round" stroke-linejoin="round" stroke-miterlimit="10" stroke-width="1"/>
          </g>
          <g id="g1557" transform="translate(22.596 21.139)">
            <path id="path1559" d="M-45.57-22.785a1.922,1.922,0,0,1-1.922,1.922,1.922,1.922,0,0,1-1.922-1.922,1.922,1.922,0,0,1,1.922-1.922A1.922,1.922,0,0,1-45.57-22.785Z" transform="translate(49.413 24.707)" fill="none" stroke="#000" stroke-linecap="round" stroke-linejoin="round" stroke-miterlimit="10" stroke-width="1"/>
          </g>
          <g id="g1561" transform="translate(19.392 47.38)">
            <path id="path1563" d="M-188.041-58.543h-15.34a.518.518,0,0,1-.519-.519v-3.9a.518.518,0,0,1,.519-.519h12.747a3.111,3.111,0,0,1,3.111,3.111v1.308a.519.519,0,0,1-.519.519" transform="translate(203.9 63.48)" fill="#27a5fe"/>
          </g>
          <g id="g1565" transform="translate(19.392 47.38)">
            <path id="path1567" d="M-36.321-31.536a.518.518,0,0,1,.519-.519h12.64A3.112,3.112,0,0,0-26.118-34.2H-38.865a.519.519,0,0,0-.519.518v3.9a.519.519,0,0,0,.519.519h2.545Z" transform="translate(39.384 34.196)" fill="#0593fc"/>
          </g>
          <g id="g1569" transform="translate(19.392 47.38)">
            <path id="path1571" d="M-188.041-58.543h-15.34a.518.518,0,0,1-.519-.519v-3.9a.518.518,0,0,1,.519-.519h12.747a3.111,3.111,0,0,1,3.111,3.111v1.308A.519.519,0,0,1-188.041-58.543Z" transform="translate(203.9 63.48)" fill="none" stroke="#000" stroke-linecap="round" stroke-linejoin="round" stroke-miterlimit="10" stroke-width="1"/>
          </g>
          <g id="g1573" transform="translate(7.922 12.097)">
            <path id="path1575" d="M0,0V3.337" fill="none" stroke="#000" stroke-linecap="round" stroke-linejoin="round" stroke-miterlimit="10" stroke-width="1"/>
          </g>
          <g id="g1577" transform="translate(6.254 13.766)">
            <path id="path1579" d="M0,0H3.337" fill="none" stroke="#000" stroke-linecap="round" stroke-linejoin="round" stroke-miterlimit="10" stroke-width="1"/>
          </g>
          <g id="g1581" transform="translate(3.552 1.862)">
            <path id="path1583" d="M0,0V3.337" fill="none" stroke="#000" stroke-linecap="round" stroke-linejoin="round" stroke-miterlimit="10" stroke-width="1"/>
          </g>
          <g id="g1585" transform="translate(1.884 3.53)">
            <path id="path1587" d="M0,0H3.337" fill="none" stroke="#000" stroke-linecap="round" stroke-linejoin="round" stroke-miterlimit="10" stroke-width="1"/>
          </g>
          <g id="g1589" transform="translate(22.733 12.338)">
            <path id="path1591" d="M0,0V2.614" fill="none" stroke="#000" stroke-linecap="round" stroke-linejoin="round" stroke-miterlimit="10" stroke-width="1"/>
          </g>
          <g id="g1593" transform="translate(21.426 13.645)">
            <path id="path1595" d="M0,0H2.614" fill="none" stroke="#000" stroke-linecap="round" stroke-linejoin="round" stroke-miterlimit="10" stroke-width="1"/>
          </g>
          <g id="g1597" transform="translate(19.519 0.778)">
            <path id="path1599" d="M-67.143-37.433a2.812,2.812,0,0,0-2.506,2.506.241.241,0,0,1-.468,0,2.812,2.812,0,0,0-2.506-2.506.241.241,0,0,1,0-.468,2.812,2.812,0,0,0,2.506-2.506.241.241,0,0,1,.468,0A2.812,2.812,0,0,0-67.143-37.9a.241.241,0,0,1,0,.468" transform="translate(72.805 40.59)" fill="#fed402"/>
          </g>
          <g id="g1601" transform="translate(19.519 0.778)">
            <path id="path1603" d="M-67.143-37.433a2.812,2.812,0,0,0-2.506,2.506.241.241,0,0,1-.468,0,2.812,2.812,0,0,0-2.506-2.506.241.241,0,0,1,0-.468,2.812,2.812,0,0,0,2.506-2.506.241.241,0,0,1,.468,0A2.812,2.812,0,0,0-67.143-37.9.241.241,0,0,1-67.143-37.433Z" transform="translate(72.805 40.59)" fill="none" stroke="#000" stroke-linecap="round" stroke-linejoin="round" stroke-miterlimit="10" stroke-width="1"/>
          </g>
          <g id="g1605" transform="translate(3.837 22.399)">
            <path id="path1607" d="M-171.083-62.91l1.265-1.265a.5.5,0,0,0,.043-.659,8.852,8.852,0,0,0-1.514-1.514.5.5,0,0,0-.659.043l-1.265,1.265a.5.5,0,0,1-.59.086,6.217,6.217,0,0,0-1.045-.433.5.5,0,0,1-.355-.478v-1.79a.5.5,0,0,0-.435-.5,8.863,8.863,0,0,0-1.071-.065,8.863,8.863,0,0,0-1.071.065.5.5,0,0,0-.435.5v1.79a.5.5,0,0,1-.355.478,6.216,6.216,0,0,0-1.045.433.5.5,0,0,1-.59-.086l-1.265-1.265a.5.5,0,0,0-.659-.043,8.848,8.848,0,0,0-1.514,1.514.5.5,0,0,0,.043.659l1.265,1.265a.5.5,0,0,1,.086.59,6.213,6.213,0,0,0-.432,1.045.5.5,0,0,1-.478.356h-1.79a.5.5,0,0,0-.5.435,8.862,8.862,0,0,0-.065,1.071,8.862,8.862,0,0,0,.065,1.071.5.5,0,0,0,.5.435h1.79a.5.5,0,0,1,.478.355,6.215,6.215,0,0,0,.432,1.045.5.5,0,0,1-.086.589l-1.265,1.265a.5.5,0,0,0-.043.659,8.845,8.845,0,0,0,1.514,1.514.5.5,0,0,0,.659-.043l1.265-1.265a.5.5,0,0,1,.59-.086,6.224,6.224,0,0,0,1.045.433.5.5,0,0,1,.355.478v1.79a.5.5,0,0,0,.435.5,8.863,8.863,0,0,0,1.071.065,8.863,8.863,0,0,0,1.071-.065.5.5,0,0,0,.435-.5v-1.79a.5.5,0,0,1,.355-.478,6.225,6.225,0,0,0,1.045-.433.5.5,0,0,1,.59.086l1.265,1.265a.5.5,0,0,0,.659.043,8.848,8.848,0,0,0,1.514-1.514.5.5,0,0,0-.043-.659l-1.265-1.265a.5.5,0,0,1-.086-.589,6.209,6.209,0,0,0,.433-1.045.5.5,0,0,1,.478-.355h1.79a.5.5,0,0,0,.5-.435,8.863,8.863,0,0,0,.065-1.071,8.862,8.862,0,0,0-.065-1.071.5.5,0,0,0-.5-.435h-1.79a.5.5,0,0,1-.478-.356,6.207,6.207,0,0,0-.433-1.045.5.5,0,0,1,.086-.59" transform="translate(185.512 68.216)" fill="#6e61b6"/>
          </g>
          <g id="g1609" transform="translate(3.837 22.399)">
            <path id="path1611" d="M-171.083-62.91l1.265-1.265a.5.5,0,0,0,.043-.659,8.852,8.852,0,0,0-1.514-1.514.5.5,0,0,0-.659.043l-1.265,1.265a.5.5,0,0,1-.59.086,6.217,6.217,0,0,0-1.045-.433.5.5,0,0,1-.355-.478v-1.79a.5.5,0,0,0-.435-.5,8.863,8.863,0,0,0-1.071-.065,8.863,8.863,0,0,0-1.071.065.5.5,0,0,0-.435.5v1.79a.5.5,0,0,1-.355.478,6.216,6.216,0,0,0-1.045.433.5.5,0,0,1-.59-.086l-1.265-1.265a.5.5,0,0,0-.659-.043,8.848,8.848,0,0,0-1.514,1.514.5.5,0,0,0,.043.659l1.265,1.265a.5.5,0,0,1,.086.59,6.213,6.213,0,0,0-.432,1.045.5.5,0,0,1-.478.356h-1.79a.5.5,0,0,0-.5.435,8.862,8.862,0,0,0-.065,1.071,8.862,8.862,0,0,0,.065,1.071.5.5,0,0,0,.5.435h1.79a.5.5,0,0,1,.478.355,6.215,6.215,0,0,0,.432,1.045.5.5,0,0,1-.086.589l-1.265,1.265a.5.5,0,0,0-.043.659,8.845,8.845,0,0,0,1.514,1.514.5.5,0,0,0,.659-.043l1.265-1.265a.5.5,0,0,1,.59-.086,6.224,6.224,0,0,0,1.045.433.5.5,0,0,1,.355.478v1.79a.5.5,0,0,0,.435.5,8.863,8.863,0,0,0,1.071.065,8.863,8.863,0,0,0,1.071-.065.5.5,0,0,0,.435-.5v-1.79a.5.5,0,0,1,.355-.478,6.225,6.225,0,0,0,1.045-.433.5.5,0,0,1,.59.086l1.265,1.265a.5.5,0,0,0,.659.043,8.848,8.848,0,0,0,1.514-1.514.5.5,0,0,0-.043-.659l-1.265-1.265a.5.5,0,0,1-.086-.589,6.209,6.209,0,0,0,.433-1.045.5.5,0,0,1,.478-.355h1.79a.5.5,0,0,0,.5-.435,8.863,8.863,0,0,0,.065-1.071,8.862,8.862,0,0,0-.065-1.071.5.5,0,0,0-.5-.435h-1.79a.5.5,0,0,1-.478-.356,6.207,6.207,0,0,0-.433-1.045A.5.5,0,0,1-171.083-62.91Z" transform="translate(185.512 68.216)" fill="none" stroke="#000" stroke-linecap="round" stroke-linejoin="round" stroke-miterlimit="10" stroke-width="1"/>
          </g>
          <g id="g1613" transform="translate(8.692 27.255)">
            <path id="path1615" d="M-93.59-46.795a3.946,3.946,0,0,1-3.946,3.946,3.946,3.946,0,0,1-3.946-3.946,3.946,3.946,0,0,1,3.946-3.946,3.946,3.946,0,0,1,3.946,3.946" transform="translate(101.482 50.741)" fill="#463a84"/>
          </g>
          <g id="g1617" transform="translate(8.692 27.255)">
            <path id="path1619" d="M-88.107-24.814a3.945,3.945,0,0,0-3.484-2.093,3.946,3.946,0,0,0-3.946,3.946,3.946,3.946,0,0,0,3.946,3.946,3.945,3.945,0,0,0,3.524-2.171" transform="translate(95.537 26.907)" fill="none" stroke="#000" stroke-linecap="round" stroke-linejoin="round" stroke-miterlimit="10" stroke-width="1"/>
          </g>
          <g id="g1621" transform="translate(11.268 29.831)">
            <path id="path1623" d="M-32.493-16.246a1.37,1.37,0,0,1-1.37,1.37,1.37,1.37,0,0,1-1.37-1.37,1.37,1.37,0,0,1,1.37-1.37,1.37,1.37,0,0,1,1.37,1.37" transform="translate(35.233 17.616)" fill="#fff"/>
          </g>
          <g id="g1625" transform="translate(11.268 29.831)">
            <path id="path1627" d="M-32.493-16.246a1.37,1.37,0,0,1-1.37,1.37,1.37,1.37,0,0,1-1.37-1.37,1.37,1.37,0,0,1,1.37-1.37A1.37,1.37,0,0,1-32.493-16.246Z" transform="translate(35.233 17.616)" fill="none" stroke="#000" stroke-linecap="round" stroke-linejoin="round" stroke-miterlimit="10" stroke-width="1"/>
          </g>
        </g>
      </g>
    </g>
  </g>
</svg>
