<svg id="Grupo_1188543" data-name="Grupo 1188543" xmlns="http://www.w3.org/2000/svg" xmlns:xlink="http://www.w3.org/1999/xlink" width="351.597" height="321.104" viewBox="0 0 351.597 321.104">
  <defs>
    <clipPath id="clip-path">
      <rect id="Rect치ngulo_411033" data-name="Rect치ngulo 411033" width="351.597" height="321.104" fill="none"/>
    </clipPath>
    <clipPath id="clip-path-3">
      <rect id="Rect치ngulo_411030" data-name="Rect치ngulo 411030" width="15.093" height="15.105" fill="none"/>
    </clipPath>
  </defs>
  <g id="Grupo_1188542" data-name="Grupo 1188542" clip-path="url(#clip-path)">
    <g id="Grupo_1188541" data-name="Grupo 1188541">
      <g id="Grupo_1188540" data-name="Grupo 1188540" clip-path="url(#clip-path)">
        <path id="Trazado_1321510" data-name="Trazado 1321510" d="M221.418,488.609q-3.866-9.163-7.736-18.331-4.17-9.89-8.343-19.78-4.371-10.367-8.752-20.735-4.234-10.031-8.466-20.062-4.306-10.211-8.618-20.428l-6.463-15.323a1.85,1.85,0,1,1,3.372-1.522q4.2,9.955,8.4,19.91l8.611,20.4q4.218,10.009,8.444,20.015,4.343,10.307,8.7,20.612,4.17,9.89,8.343,19.777,2.945,6.973,5.885,13.942a1.874,1.874,0,0,1-.925,2.447,1.875,1.875,0,0,1-2.451-.925" transform="translate(-90.722 -194.863)" fill="#45133e"/>
        <path id="Trazado_1321511" data-name="Trazado 1321511" d="M159.288,143.628c1.366-.39,12.414-2.631,11.766-.239.47,3-6.207,9.822-9.236,9.753a1.769,1.769,0,0,1-1.312-.806,21.246,21.246,0,0,1-3.466-5.643c-.878-2.154.426-2.621,2.248-3.065" transform="translate(-82.259 -74.672)" fill="#45133e"/>
        <path id="Trazado_1321512" data-name="Trazado 1321512" d="M12.652,211.724c2.87-1.254,3.452,4.457,3.947,6.3-.094,2.769-5.147,2.787-7.186,2.794a15.485,15.485,0,0,1-8.73-2.78c-3.047-1.844,10.609-6.015,11.969-6.315" transform="translate(-0.126 -111.009)" fill="#45133e"/>
        <path id="Trazado_1321513" data-name="Trazado 1321513" d="M113.625,199.317a86.254,86.254,0,0,1,.079,14.365,71.612,71.612,0,0,1-2.179,12.822,60.624,60.624,0,0,1-4.793,12.443,49.22,49.22,0,0,1-7.638,10.819,41.513,41.513,0,0,1-10.364,8.046,39.77,39.77,0,0,1-12.8,4.323,40.88,40.88,0,0,1-6.478.506,45.47,45.47,0,0,1-7.212-.585,51.813,51.813,0,0,1-7.161-1.7c-1.139-.35-2.259-.748-3.369-1.178-.271-.105-.542-.21-.809-.318-.062-.026-.127-.051-.192-.076-.119-.04-.235-.1-.351-.148-.163-.065-.329-.134-.492-.206q-.813-.341-1.616-.716-1.572-.726-3.1-1.54-2.863-1.518-5.567-3.318A75.411,75.411,0,0,1,28.944,244.3c-1.739-1.677-3.416-3.42-5.01-5.238-.727-.832-1.439-1.671-2.137-2.527q-.525-.645-1.041-1.3c-.058-.073-.126-.148-.181-.228-.055-.065-.105-.134-.152-.2a.5.5,0,0,1-.036-.047c-.076-.094-.148-.188-.221-.282-.2-.253-.383-.5-.575-.756q-1.117-1.475-2.165-3-2.055-2.961-3.882-6.073a101.94,101.94,0,0,1-6.174-12.37v-.007c-.011-.025-.025-.054-.032-.072a102.889,102.889,0,0,1-4.512-13.473A96.56,96.56,0,0,1,.416,185.79c-.166-1.439-.289-2.874-.394-4.32l0,0v-.033c0-.036,0-.072-.007-.108a.429.429,0,0,1,.007-.119A1.811,1.811,0,0,0,0,180.961c.018-.08.033-.159.047-.239a.725.725,0,0,1,.68-.271c4.743.712,9.6.137,14.246-.462A143.07,143.07,0,0,0,60.35,164.444a117.974,117.974,0,0,0,26.193-20.691c.636-.47,1.124-1.829,2.024-1.344a.7.7,0,0,1,.4.217q.326.358.64.716a.175.175,0,0,1,.021.026q2.05,2.32,3.944,4.772a95.133,95.133,0,0,1,7.486,11.293,101.75,101.75,0,0,1,5.914,12.319,101.5,101.5,0,0,1,4.309,13.465,93.042,93.042,0,0,1,2.343,14.1" transform="translate(0 -74.675)" fill="#efa444"/>
        <path id="Trazado_1321514" data-name="Trazado 1321514" d="M50.739,274.567a14.541,14.541,0,0,1,24.631-7.179,21.194,21.194,0,0,1,1.917,2.3,15.753,15.753,0,0,0-1.541-.681,18.17,18.17,0,0,0-2.118-.654c-.629-.152-1.269-.271-1.909-.362h.025c-.163-.022-.325-.043-.484-.061a20.439,20.439,0,0,0-13.873,3.387,19.948,19.948,0,0,0-3.835,3.379c.014-.014.025-.029.039-.043a19.9,19.9,0,0,0-2.906,4.258l.007-.014a.027.027,0,0,0-.007.014v0a.2.2,0,0,0-.021.038c.006-.012.012-.022.019-.034q-.22.431-.42.872c-.294-1.407.433-4.454.477-5.226" transform="translate(-26.338 -138.004)" fill="#45133e"/>
        <path id="Trazado_1321515" data-name="Trazado 1321515" d="M171.563,228.42a14.542,14.542,0,0,0-23.441,10.43,21.165,21.165,0,0,0,.025,3,15.888,15.888,0,0,1,.737-1.515,18.166,18.166,0,0,1,1.195-1.868c.382-.522.793-1.027,1.223-1.509l-.02.017c.11-.122.221-.243.33-.36a20.436,20.436,0,0,1,12.779-6.376,19.979,19.979,0,0,1,5.111.1c-.02,0-.038-.006-.058-.008a19.925,19.925,0,0,1,4.969,1.373l-.015-.006a.026.026,0,0,1,.015.006h0a.169.169,0,0,1,.04.016l-.036-.014q.447.187.884.394c-.685-1.264-3.208-3.12-3.74-3.681" transform="translate(-77.704 -118.241)" fill="#45133e"/>
        <path id="Trazado_1321516" data-name="Trazado 1321516" d="M143.7,291.088c.553,1.8-.119,3.77-.466,5.559-3.2,13.325-17.839,21.187-30.921,18.714a23.631,23.631,0,0,1-12.9-6.2c-.976-1.113-2.6-2.831-1.724-4.374.723-.741,1.88-.221,2.773-.148a67.471,67.471,0,0,0,10.432,1.178,39.154,39.154,0,0,0,29.089-14.278c.925-.965,2.867-2.075,3.716-.452" transform="translate(-51.131 -152.316)" fill="#45133e"/>
        <path id="Trazado_1321517" data-name="Trazado 1321517" d="M129.06,273.643c-.267-.527.279-.935.687-1.092a17.833,17.833,0,0,0,5.093-3.889c.75-.918,1.548-2,1.218-3.225-1.834-5.007-6.445-8.217-10.3-11.613-2.126-1.923-4.66-3.495-6.659-5.489a.694.694,0,0,1,1.31-.449.72.72,0,0,0-.164-.245c5.11,4.1,10.558,8.015,14.748,13.093,3,3.714,3.636,6.682-.275,10.035-.8.657-5.045,4.351-5.661,2.874" transform="translate(-62.481 -129.854)" fill="#45133e"/>
        <path id="Trazado_1321518" data-name="Trazado 1321518" d="M436.36,391.034q4.443-8.9,8.89-17.8,4.792-9.6,9.588-19.208,5.024-10.067,10.057-20.134,4.866-9.74,9.729-19.481,4.949-9.915,9.9-19.836l7.428-14.879a1.85,1.85,0,1,0-3.269-1.734q-4.829,9.667-9.654,19.334l-9.9,19.811q-4.849,9.719-9.7,19.435-4.992,10.009-9.995,20.015-4.793,9.6-9.588,19.2-3.383,6.771-6.763,13.538a1.874,1.874,0,0,0,.767,2.5,1.874,1.874,0,0,0,2.505-.767" transform="translate(-227.156 -145.349)" fill="#45133e"/>
        <path id="Trazado_1321519" data-name="Trazado 1321519" d="M570.078,50c-1.339-.477-12.22-3.418-11.727-.989-.66,2.96,5.568,10.2,8.595,10.322a1.772,1.772,0,0,0,1.361-.721,21.244,21.244,0,0,0,3.82-5.41c1.014-2.094-.259-2.643-2.048-3.2" transform="translate(-292.969 -25.219)" fill="#45133e"/>
        <path id="Trazado_1321520" data-name="Trazado 1321520" d="M709.468,127.238c-2.785-1.435-3.73,4.228-4.342,6.036-.083,2.77,4.959,3.11,6.993,3.247a15.486,15.486,0,0,0,8.89-2.217c3.158-1.645-10.2-6.68-11.541-7.066" transform="translate(-370.015 -66.647)" fill="#45133e"/>
        <path id="Trazado_1321521" data-name="Trazado 1321521" d="M497.643,103.128a86.239,86.239,0,0,0-1,14.331A71.575,71.575,0,0,0,498,130.393a60.637,60.637,0,0,0,3.989,12.723,49.212,49.212,0,0,0,6.932,11.285,41.519,41.519,0,0,0,9.829,8.692,39.784,39.784,0,0,0,12.5,5.131,40.972,40.972,0,0,0,6.433.919,45.451,45.451,0,0,0,7.234-.125,51.826,51.826,0,0,0,7.255-1.235c1.159-.277,2.3-.6,3.437-.961.278-.087.555-.175.828-.266l.2-.064c.122-.032.241-.086.359-.125.166-.055.337-.113.5-.174q.833-.289,1.658-.611,1.615-.624,3.2-1.338,2.954-1.332,5.768-2.957a75.383,75.383,0,0,0,11.159-7.86c1.843-1.563,3.628-3.195,5.334-4.907.778-.783,1.543-1.575,2.294-2.385q.566-.61,1.122-1.232c.062-.068.135-.14.195-.216s.113-.126.164-.189a.544.544,0,0,0,.039-.045c.082-.089.16-.178.238-.267.211-.24.414-.477.622-.717q1.209-1.4,2.352-2.852,2.24-2.824,4.262-5.813a101.955,101.955,0,0,0,6.951-11.951v-.007c.012-.025.029-.053.037-.07a102.84,102.84,0,0,0,5.362-13.157,96.564,96.564,0,0,0,3.232-12.765c.258-1.425.472-2.849.669-4.286l0,0c0-.011,0-.021,0-.032.006-.036.008-.072.014-.108a.42.42,0,0,0,0-.119,1.868,1.868,0,0,1,.034-.244c-.013-.081-.022-.161-.032-.241a.724.724,0,0,0-.661-.314c-4.778.408-9.594-.476-14.187-1.371a143.068,143.068,0,0,1-44.293-18.408,117.986,117.986,0,0,1-24.819-22.321c-.605-.509-1.005-1.9-1.934-1.471a.7.7,0,0,0-.414.191q-.347.336-.684.673a.124.124,0,0,0-.023.024q-2.194,2.185-4.241,4.51a95.188,95.188,0,0,0-8.191,10.792A100.939,100.939,0,0,0,500.881,89.2a93.063,93.063,0,0,0-3.237,13.923" transform="translate(-260.611 -25.112)" fill="#7985bc"/>
        <path id="Trazado_1321522" data-name="Trazado 1321522" d="M586.253,182.481c.3-.509-.218-.952-.615-1.133a17.885,17.885,0,0,1-4.835-4.207c-.689-.964-1.417-2.094-1.007-3.295,2.149-4.879,6.957-7.788,11.015-10.934,2.247-1.783,4.877-3.19,7-5.051a.7.7,0,0,0-1.141-.736c-5.348,3.755-11.015,7.308-15.509,12.1-3.231,3.514-4.055,6.434-.37,10.032.632.591,3.532,3.453,4.878,3.539a.556.556,0,0,0,.588-.31" transform="translate(-303.494 -82.355)" fill="#45133e"/>
        <path id="Trazado_1321523" data-name="Trazado 1321523" d="M561.494,139.337a20.832,20.832,0,0,0,2.158-2.083,14.945,14.945,0,0,1-1.608.509,18.4,18.4,0,0,1-2.179.422c-.639.082-1.291.131-1.937.152h.025c-.163,0-.326.008-.486.009a20.269,20.269,0,0,1-4.748-.514,20.433,20.433,0,0,1-8.68-4.355,20.114,20.114,0,0,1-3.446-3.773c.014.015.024.03.037.046a19.935,19.935,0,0,1-2.423-4.534.026.026,0,0,1-.007-.015c-.006-.015-.016-.026-.015-.041a.108.108,0,0,0,.016.038c-.115-.3-.226-.6-.326-.912-.443,1.366-.051,4.474-.093,5.246a14.548,14.548,0,0,0,13.645,13.116,14.174,14.174,0,0,0,10.065-3.312" transform="translate(-282.139 -65.22)" fill="#45133e"/>
        <path id="Trazado_1321524" data-name="Trazado 1321524" d="M652.7,188.8c.586-.5,3.3-2.071,4.116-3.25-.3.1-.6.2-.9.287a.062.062,0,0,1,.014,0l-.033.009h-.011l0,0s-.008,0-.011,0,.008,0,.011,0a.042.042,0,0,1-.011,0,19.788,19.788,0,0,1-5.073.824h.011a19.911,19.911,0,0,1-5.046-.453,20.425,20.425,0,0,1-12.014-7.723c-.09-.121-.183-.247-.277-.376,0,0,0,0,.007,0-.375-.527-.732-1.076-1.058-1.632a19.528,19.528,0,0,1-.981-1.987,15.755,15.755,0,0,1-.568-1.587,21.709,21.709,0,0,0-.35,2.977A14.536,14.536,0,0,0,644.2,190.976a14.244,14.244,0,0,0,8.5-2.171" transform="translate(-330.862 -90.742)" fill="#45133e"/>
        <path id="Trazado_1321525" data-name="Trazado 1321525" d="M541.458,206.132a23.629,23.629,0,0,0-13.713,4.089c-1.14.946-3.016,2.385-2.392,4.048.6.845,1.822.514,2.715.583a67.473,67.473,0,0,1,10.488.48,39.152,39.152,0,0,1,26.474,18.685c.762,1.1,2.5,2.5,3.6,1.032.83-1.69.476-3.742.416-5.564-.925-11.978-11.2-21.2-22.692-23.03a26.379,26.379,0,0,0-4.894-.324" transform="translate(-275.614 -108.163)" fill="#45133e"/>
        <path id="Trazado_1321526" data-name="Trazado 1321526" d="M361.1,351.356a.7.7,0,0,1,.347.723c-2.487,8.05-7.269,15.2-10.974,22.726-3.6,6.937-7.338,13.8-10.956,20.724-1.84,3.478-3.582,7.013-5.524,10.429-1.052,1.807-2.7,4.588-5.169,3.492-1.84-1.005-2.444-3.3-3.579-4.949-1.945-3.383-3.936-6.741-5.9-10.114-5.91-10.324-11.647-20.76-16.928-31.424-1.822-3.669-3.784-7.291-5.491-11.014a.517.517,0,0,1-.246-.264.725.725,0,0,1,.1-.672.763.763,0,0,1,.77-.383c.719-.242,1.42-.509,2.107-.817,9.424-4.132,9.916-13.826,8.289-22.7-.04-.575-.347-1.168-.087-1.717a.708.708,0,0,1,1.251.155c1.681-4.045,6.261-6.4,10.219-7.823,8.238-2.787,17.391-.452,24.411,4.338a14.446,14.446,0,0,1,3.933,3.766c.039-.282.083-.567.126-.853a.694.694,0,0,1,1.366.239c-.032.231-.065.474-.1.709-.918,6.218-1.807,13.364,1.956,18.793,2.592,2.961,6.192,4.562,9.691,6.149a.612.612,0,0,1,.387.491" transform="translate(-155.663 -166.097)" fill="#ef9a97"/>
        <path id="Trazado_1321527" data-name="Trazado 1321527" d="M335.342,350.093a52.16,52.16,0,0,1-6.044-.682,57.028,57.028,0,0,1-7.954-1.9,36.476,36.476,0,0,0-.507-7.372c.785.256,1.581.486,2.377.706,1.021.26,2.045.5,3.08.712s2.1.386,3.159.542l-.173-.021c1.435.192,2.866.351,4.309.462,1.424.114,2.852.182,4.281.225h.022l.086,0-.056,0c.736.008,1.475.02,2.21.017.835-.007,1.667-.029,2.5-.054,1.507-.046,3.009-.16,4.512-.3l-.048.005.081-.009.1-.009-.046,0c1.361-.149,2.715-.326,4.069-.542,1.328-.21,2.649-.475,3.964-.762,1.154-.272,2.3-.567,3.439-.9.965-.276,1.916-.593,2.863-.918a51.382,51.382,0,0,0-.6,7.118,52.6,52.6,0,0,1-7.231,2.114c.058-.01.116-.025.173-.036-.21.047-.419.091-.633.137.058-.011.115-.025.173-.036l-.121.025.02,0a70.547,70.547,0,0,1-11.958,1.529c-.788.037-1.576.053-2.364.053-1.23,0-2.46-.04-3.687-.1" transform="translate(-168.359 -178.046)" fill="#c66f79"/>
        <path id="Trazado_1321528" data-name="Trazado 1321528" d="M353.12,103.791c5.025,15.959,5.383,32.989,4.07,49.545-.856,9.76-2.733,19.668-7.345,28.395-5.871,10.313-14.864,19.506-26.4,23.091a63.96,63.96,0,0,1-22.958,3.666c-14.951-.087-30.654-5.187-40.772-16.589-11.842-14.217-13.429-35.01-13.252-52.831.043-5.979.7-11.933,1.334-17.9,1.142-11.791,5.137-23.916,14.6-31.619,5.064-4.547,11.6-6.846,18.265-7.732a127.6,127.6,0,0,1,24.74-1.291c17.7,1.037,41.856,3.156,47.712,23.262" transform="translate(-129.326 -42.188)" fill="#ef9a97"/>
        <path id="Trazado_1321529" data-name="Trazado 1321529" d="M349,58.69c2.339,9.547-.741,19.368-2.361,28.781-.575,2.635-1.048,5.3-1.742,7.9-.289,1.367-1.3,3.286-2.968,2.5-6.34-6.12-9.21-15.128-10.7-23.638-.994-5.874-1.876-11.915-1.587-17.879-7.519,5.549-16.668,8.56-25.535,11.257a101.471,101.471,0,0,1-35.339,3.9,70.63,70.63,0,0,1-26.424-6.55c.419,9.192-2.842,18.251-6.648,26.464a70.317,70.317,0,0,0-4.345,10.392c-.3.857-.56,2.245-1.685,2.248-1.413-.43-1.6-2.357-2.154-3.539-.961-2.675-1.894-5.361-2.675-8.09-3.539-11.557-3.922-28.156,2.115-39.463q-.857-1.057-1.645-2.18c-5.014-7.291-8.712-15.771-8.979-24.7-.567-8.524,2.592-14.506,10.838-7.544A28.1,28.1,0,0,0,235.3,24.2a23.737,23.737,0,0,1,2.953-10A35.058,35.058,0,0,1,251.1.892c4.132-2.559,7.324.792,7.591,4.97.2,1.8.13,3.619.369,5.383,1.092,9.026,19,5.053,25.369,5.032,8.318-.582,16.7-1.146,25.015-.3,11.889,1.146,24.787,8.939,26.826,21.479a15.5,15.5,0,0,1-.289,6.405C342.4,46.215,347.171,52.147,349,58.69" transform="translate(-113.487 0)" fill="#45133e"/>
        <path id="Trazado_1321530" data-name="Trazado 1321530" d="M233.486,233.323c.181.538.206,1.276-.264,1.457a.63.63,0,0,1-.275.253,14.843,14.843,0,0,1-9.811.278c-10.574-2.765-17.583-14.738-14.882-25.293,1.533-7.569,9.46-13,16.82-9.348a22.937,22.937,0,0,1,3.127,1.9.673.673,0,0,1,1.027.4c.058.3.115.589.17.885a.728.728,0,0,1,.058.318c.528,2.9.871,5.831,1.186,8.763.68,6.817,1.529,13.664,2.845,20.384" transform="translate(-108.977 -104.69)" fill="#ef9a97"/>
        <path id="Trazado_1321531" data-name="Trazado 1321531" d="M230.8,220.025c-3.067-2.611-7.479-4.64-11.484-3.445a.462.462,0,0,1-.452-.807c2.752-1.091,5.95-.221,8.546.944.757.405,4.826,2.392,4.037,3.311a.473.473,0,0,1-.654-.014l.007.01" transform="translate(-114.728 -112.965)" fill="#c66f79"/>
        <path id="Trazado_1321532" data-name="Trazado 1321532" d="M464.02,232.926c-.181.538-.206,1.276.264,1.457a.63.63,0,0,0,.275.253,14.844,14.844,0,0,0,9.811.278c10.573-2.765,17.582-14.738,14.882-25.293-1.533-7.569-9.46-13-16.82-9.348a22.907,22.907,0,0,0-3.127,1.9.673.673,0,0,0-1.027.4c-.058.3-.115.589-.17.885a.722.722,0,0,0-.058.318c-.528,2.9-.871,5.831-1.186,8.763-.68,6.817-1.529,13.664-2.845,20.384" transform="translate(-243.431 -104.482)" fill="#ef9a97"/>
        <path id="Trazado_1321533" data-name="Trazado 1321533" d="M481.074,219.628c3.067-2.611,7.479-4.64,11.484-3.445a.462.462,0,0,0,.452-.807c-2.752-1.091-5.95-.221-8.546.944-.757.406-4.826,2.392-4.037,3.311a.472.472,0,0,0,.654-.014l-.007.01" transform="translate(-252.051 -112.757)" fill="#c66f79"/>
        <path id="Trazado_1321534" data-name="Trazado 1321534" d="M351.411,275.12a95.523,95.523,0,0,1-11.181-.824c-.6-.068-1.585-.168-1.377-1.012a.693.693,0,0,1,.8-.491,88.224,88.224,0,0,0,11.77.94.694.694,0,0,1-.007,1.388" transform="translate(-177.798 -143.142)" fill="#45133e"/>
        <path id="Trazado_1321535" data-name="Trazado 1321535" d="M303.377,167.066a3.9,3.9,0,0,1-.448,1.988,9.585,9.585,0,0,1-1.319,1.963A16.177,16.177,0,0,1,300,172.659a27.246,27.246,0,0,1-8.939,5.216,16.859,16.859,0,0,1-2.628.672,9.842,9.842,0,0,1-1.565.137,6.672,6.672,0,0,1-.929-.061,3.062,3.062,0,0,1-2.176-1.2,2.78,2.78,0,0,1-.163-2.455,7.686,7.686,0,0,1,1.3-2.245,15.221,15.221,0,0,1,1.663-1.779.533.533,0,0,1,.043-.039c.08-.076.163-.144.242-.217a22.245,22.245,0,0,1,1.934-1.547c.029-.022.058-.04.087-.061a.505.505,0,0,1,.047-.033,28.3,28.3,0,0,1,3.929-2.324,22.386,22.386,0,0,1,4.648-1.7,11.412,11.412,0,0,1,2.476-.3,4.248,4.248,0,0,1,2.422.625,2.289,2.289,0,0,1,.987,1.717" transform="translate(-148.709 -86.439)" fill="#45133e"/>
        <path id="Trazado_1321536" data-name="Trazado 1321536" d="M311.315,211.191a15.6,15.6,0,0,1-.528,5.426,10.339,10.339,0,0,1-.979,2.357,6.21,6.21,0,0,1-1.478,1.782,3.764,3.764,0,0,1-1.681.781,3.023,3.023,0,0,1-.51.039,3.409,3.409,0,0,1-1.359-.289,4.711,4.711,0,0,1-1.71-1.384,8.566,8.566,0,0,1-1.247-2.2c-.137-.34-.25-.694-.354-1.041a.071.071,0,0,0-.007-.025c0-.022-.011-.04-.011-.047a15.25,15.25,0,0,1-.466-2.386c-.033-.286-.055-.571-.069-.86-.007-.105-.011-.206-.014-.311a2.958,2.958,0,0,1-.015-.473v-.166c0-.188,0-.376.011-.56a16.377,16.377,0,0,1,.271-2.451c.043-.228.1-.452.152-.676.007-.022.011-.04.018-.061l.014-.076a10.086,10.086,0,0,1,1.518-3.409,5.1,5.1,0,0,1,1.764-1.569,3.255,3.255,0,0,1,2.086-.3,5.206,5.206,0,0,1,3.343,3.018,13.085,13.085,0,0,1,1.251,4.887" transform="translate(-157.887 -106.644)" fill="#45133e"/>
        <g id="Grupo_1188536" data-name="Grupo 1188536" transform="translate(125.618 114.157)" opacity="0.5">
          <g id="Grupo_1188535" data-name="Grupo 1188535">
            <g id="Grupo_1188534" data-name="Grupo 1188534" clip-path="url(#clip-path-3)">
              <path id="Trazado_1321537" data-name="Trazado 1321537" d="M277.642,242.9a7.551,7.551,0,0,1,.036,9.677,7.583,7.583,0,0,1-5.827,2.736,7.357,7.357,0,0,1-3-.629,7.778,7.778,0,0,1-2.27-1.526,7.5,7.5,0,0,1-2.259-5.665c0-.039,0-.076,0-.115a7.57,7.57,0,0,1,2.133-4.891c.018-.018.04-.036.058-.054a7.547,7.547,0,0,1,11.13.466" transform="translate(-264.32 -240.204)" fill="#eb6670"/>
            </g>
          </g>
        </g>
        <path id="Trazado_1321538" data-name="Trazado 1321538" d="M400.651,166.025a3.9,3.9,0,0,0,.448,1.988,9.6,9.6,0,0,0,1.319,1.963,16.175,16.175,0,0,0,1.613,1.641,27.247,27.247,0,0,0,8.939,5.216,16.865,16.865,0,0,0,2.628.672,9.832,9.832,0,0,0,1.565.137,6.669,6.669,0,0,0,.929-.061,3.062,3.062,0,0,0,2.176-1.2,2.78,2.78,0,0,0,.163-2.455,7.674,7.674,0,0,0-1.3-2.245,15.223,15.223,0,0,0-1.663-1.779.463.463,0,0,0-.043-.039c-.08-.076-.163-.145-.242-.217a22.173,22.173,0,0,0-1.934-1.547c-.029-.022-.058-.04-.087-.061a.5.5,0,0,0-.047-.033,28.267,28.267,0,0,0-3.929-2.324,22.385,22.385,0,0,0-4.648-1.7,11.412,11.412,0,0,0-2.476-.3,4.246,4.246,0,0,0-2.422.625,2.288,2.288,0,0,0-.987,1.717" transform="translate(-210.236 -85.892)" fill="#45133e"/>
        <path id="Trazado_1321539" data-name="Trazado 1321539" d="M403.222,210.15a15.6,15.6,0,0,0,.528,5.426,10.341,10.341,0,0,0,.979,2.357,6.21,6.21,0,0,0,1.479,1.782,3.763,3.763,0,0,0,1.681.781,3.016,3.016,0,0,0,.509.039,3.417,3.417,0,0,0,1.359-.289,4.711,4.711,0,0,0,1.71-1.384,8.554,8.554,0,0,0,1.247-2.2c.137-.34.25-.694.354-1.041a.071.071,0,0,1,.007-.025c0-.022.011-.04.011-.047a15.251,15.251,0,0,0,.466-2.386c.033-.286.054-.571.069-.86.007-.105.011-.206.014-.311a2.965,2.965,0,0,0,.015-.473v-.166c0-.188,0-.376-.011-.56a16.378,16.378,0,0,0-.271-2.451c-.043-.228-.1-.452-.152-.676-.007-.022-.011-.04-.018-.061l-.014-.076a10.085,10.085,0,0,0-1.518-3.409,5.1,5.1,0,0,0-1.764-1.569,3.256,3.256,0,0,0-2.086-.3,5.206,5.206,0,0,0-3.343,3.018,13.086,13.086,0,0,0-1.251,4.887" transform="translate(-211.567 -106.098)" fill="#45133e"/>
        <g id="Grupo_1188539" data-name="Grupo 1188539" transform="translate(204.372 113.662)" opacity="0.5">
          <g id="Grupo_1188538" data-name="Grupo 1188538">
            <g id="Grupo_1188537" data-name="Grupo 1188537" clip-path="url(#clip-path-3)">
              <path id="Trazado_1321540" data-name="Trazado 1321540" d="M431.8,241.854a7.551,7.551,0,0,0-.036,9.677,7.584,7.584,0,0,0,5.827,2.737,7.357,7.357,0,0,0,3-.629,7.785,7.785,0,0,0,2.27-1.526,7.5,7.5,0,0,0,2.259-5.665c0-.039,0-.076,0-.115a7.57,7.57,0,0,0-2.133-4.891c-.018-.018-.04-.036-.058-.054a7.547,7.547,0,0,0-11.13.466" transform="translate(-430.03 -239.163)" fill="#eb6670"/>
            </g>
          </g>
        </g>
        <path id="Trazado_1321541" data-name="Trazado 1321541" d="M363.783,206.856c.983,7.6,1.738,15.663-8.52,15.106a22.248,22.248,0,0,1-7.244-1.67.7.7,0,0,1-.368-.911c.383-.809,1.279-.181,1.872-.018,3.427,1.229,7.4,1.844,10.837.373,2.664-1.493,2.693-5.209,2.516-7.906a110.724,110.724,0,0,0-1.789-13.172,54.314,54.314,0,0,0-1.544-6c-.239-.517-.5-1.309.242-1.529,1.887-.658,3.749,13.874,4,15.732" transform="translate(-182.402 -100.281)" fill="#c66f79"/>
        <path id="Trazado_1321542" data-name="Trazado 1321542" d="M351.823,509.46c.213,3.94.626,8.09.043,12.048a.694.694,0,0,1-.431.553s0,0-.007,0a.633.633,0,0,1-.384.13q-8.966,0-17.932.025-12.4.021-24.806.039-12.755.016-25.51.037-13.107.021-26.218.039-12.889.022-25.774.04-13.129.021-26.25.04-12.232.021-24.461.039-12.782.016-25.557.04l-22.987.032c-.16,0-.32,0-.48,0a.673.673,0,0,1-.324-.083.122.122,0,0,1-.036.007.688.688,0,0,1-.765-.6c-.587-3.962-.171-8.108.039-12.052.331-5.281.761-10.559,1.462-15.808a210.114,210.114,0,0,1,22.839-70.731c6.611-12.97,16.644-21.523,29.588-27.545A258.412,258.412,0,0,1,209.421,384.6c.473-.119.9-.557,1.387-.336a.7.7,0,0,1,.634.358q2.337,4.207,4.679,8.415,2.519,4.527,5.038,9.063,2.685,4.831,5.369,9.655,2.648,4.761,5.294,9.521,2.6,4.691,5.213,9.373,1.883,3.395,3.771,6.785,1.991-3.562,3.967-7.132,2.6-4.685,5.212-9.373,2.642-4.761,5.294-9.521,2.679-4.826,5.369-9.655,2.519-4.533,5.038-9.063,2.342-4.208,4.679-8.415a.7.7,0,0,1,.63-.358c.487-.228.918.217,1.394.332a259.835,259.835,0,0,1,25.549,11.123c12.94,6.026,22.974,14.575,29.588,27.545a210.2,210.2,0,0,1,22.838,70.731c.7,5.249,1.128,10.526,1.459,15.811" transform="translate(-68.03 -201.427)" fill="#7985bc"/>
        <path id="Trazado_1321543" data-name="Trazado 1321543" d="M360.587,386.432q-1.356,2.424-2.711,4.844-2.824,5.054-5.65,10.111-2.847,5.1-5.7,10.2-2.814,5.032-5.628,10.067-2.8,5-5.588,10-2.8,5.021-5.614,10.045-2.6,4.642-5.194,9.286c-.061.112-.126.228-.191.344a.322.322,0,0,1-.025.051c-.007.014-.018.029-.025.043a.7.7,0,0,1-.944.264.7.7,0,0,1-.213-.184v0a.7.7,0,0,1-.336-.293s0,0,0-.007a0,0,0,0,0,0,0c-.007-.011-.011-.026-.018-.036-.687-1.266-1.4-2.516-2.093-3.778q-1.334-2.407-2.668-4.811-2.717-4.89-5.426-9.782-2.679-4.821-5.35-9.648-2.717-4.9-5.437-9.8l-5.227-9.435q-2.63-4.739-5.26-9.482-1.128-2.039-2.256-4.074c-.676-1.215-1.334-2.447-2.028-3.651a.648.648,0,0,1-.065-.163c.116-.047.235-.09.351-.137.311-.123.622-.246.936-.365q1.866-.732,3.738-1.424c.271-.1.571-.26.882-.34a.063.063,0,0,1,.007-.025,1.417,1.417,0,0,1,.279-.022.862.862,0,0,1,.477.091c.025.01.05.025.072.036a.7.7,0,0,1,.257.213c.007,0,.011.011.018.018l0,0a.209.209,0,0,1,.033.047q4.853,8.741,9.716,17.478,9.652,17.34,19.289,34.688c.119.217.239.43.358.647q9.933-17.834,19.842-35.682,4.858-8.741,9.716-17.478a.868.868,0,0,1,.369-.311s0,0,0,0a1.057,1.057,0,0,1,.437-.1.8.8,0,0,1,.412.054,1.662,1.662,0,0,1,.412.181v0a1.969,1.969,0,0,0,.391.152q2.191.808,4.359,1.666v0c.134.05.268.105.4.159.3.116.6.235.9.354" transform="translate(-150.569 -201.429)" fill="#b3b27d"/>
        <path id="Trazado_1321544" data-name="Trazado 1321544" d="M231.4,596.943q.185-5.948.756-11.871c.376-3.882.889-7.747,1.5-11.6q.77-4.891,1.768-9.738c-.007.032-.015.061-.022.09.051-.25.1-.5.155-.749-.007.029-.014.058-.021.091.77-3.821,1.608-7.627,2.559-11.405.958-3.81,2.035-7.584,3.275-11.307q.9-2.706,1.876-5.383c.311-.853.636-1.7.969-2.541.163-.419.329-.835.5-1.25.163-.395.333-.785.481-1.182a.7.7,0,0,1,.911-.368.7.7,0,0,1,.369.907c-.217.589-.473,1.164-.7,1.746q-.38.955-.745,1.909c-.5,1.316-.976,2.643-1.442,3.973.008-.021.014-.041.02-.062-1.284,3.711-2.456,7.459-3.473,11.253-1.023,3.81-1.9,7.66-2.718,11.521-.168.779-.329,1.562-.49,2.345v-.009l-.006.03c0,.02-.009.04-.012.06,0-.006,0-.011,0-.017l-.008.039c0-.006,0-.012,0-.018,0,.017-.007.034-.01.051,0-.008,0-.017,0-.025,0,.015-.006.03-.009.046l-.127.625V564.1l-.008.041,0,.018v0q-1.15,5.737-2.029,11.516c-.586,3.864-1.037,7.743-1.381,11.636-.1,1.114-.177,2.227-.257,3.34,0-.029,0-.061.008-.094-.123,1.93-.224,3.861-.286,5.795q-.041,1.315-.054,2.632l-1.394,0q.011-1.019.042-2.038" transform="translate(-121.408 -277.949)" fill="#45133e"/>
        <path id="Trazado_1321545" data-name="Trazado 1321545" d="M488.725,590.878c0,.032,0,.061.007.094-.271-3.918-.611-7.826-1.056-11.727q-.683-5.98-1.623-11.925-.932-5.906-2.05-11.781-.379-2.012-.788-4.016v.01c-.047-.228-.094-.454-.141-.681l0,.013q-1.2-5.8-2.689-11.531-.5-1.936-1.038-3.864c-.163-.6-.329-1.2-.5-1.789-.083-.286-.163-.568-.246-.85a1.509,1.509,0,0,1-.123-.625.7.7,0,0,1,.781-.593.713.713,0,0,1,.6.578c.018.058.037.116.055.174.061.206.123.412.181.618.13.452.257.9.383,1.348q.385,1.388.756,2.78c.506,1.883.994,3.77,1.45,5.664q.949,3.914,1.764,7.862l-.022-.09q1.2,5.829,2.2,11.7c.68,3.969,1.3,7.945,1.829,11.936.509,3.864.954,7.747,1.276,11.632q.5,5.97.762,11.958.044,1.008.081,2.018l-1.388,0q-.167-4.462-.461-8.917" transform="translate(-251.082 -278.961)" fill="#45133e"/>
      </g>
    </g>
  </g>
</svg>
