<svg id="Grupo_1188492" data-name="Grupo 1188492" xmlns="http://www.w3.org/2000/svg" xmlns:xlink="http://www.w3.org/1999/xlink" width="302.092" height="334.346" viewBox="0 0 302.092 334.346">
  <defs>
    <clipPath id="clip-path">
      <rect id="Rectángulo_411014" data-name="Rectángulo 411014" width="302.092" height="334.346" fill="none"/>
    </clipPath>
    <clipPath id="clip-path-3">
      <rect id="Rectángulo_411011" data-name="Rectángulo 411011" width="17.075" height="17.073" fill="none"/>
    </clipPath>
    <clipPath id="clip-path-4">
      <rect id="Rectángulo_411012" data-name="Rectángulo 411012" width="12.904" height="14.588" fill="none"/>
    </clipPath>
  </defs>
  <g id="Grupo_1188491" data-name="Grupo 1188491" clip-path="url(#clip-path)">
    <g id="Grupo_1188490" data-name="Grupo 1188490">
      <g id="Grupo_1188489" data-name="Grupo 1188489" clip-path="url(#clip-path)">
        <path id="Trazado_1321341" data-name="Trazado 1321341" d="M177.449,136.408c1.407.174.853,1.908.926,2.887-.166,1.088.509,3.206-1.144,3.247-1.549-.255-.78-2.268-.922-3.352.089-.986-.36-2.8,1.14-2.782" transform="translate(-83.813 -64.87)" fill="#83327a"/>
        <path id="Trazado_1321342" data-name="Trazado 1321342" d="M176.707,114.62c1.443-.008,1.1,1.759,1.136,2.733-.134,1.064.477,3.138-1.141,3.162-1.46-.154-.821-2.139-.926-3.029.113-.978-.506-2.693.93-2.867" transform="translate(-83.568 -54.508)" fill="#83327a"/>
        <path id="Trazado_1321343" data-name="Trazado 1321343" d="M177.1,93.277c1.71.319.623,2.75.861,3.963a1.051,1.051,0,0,1-1.108.962c-1.666-.32-.732-2.766-.862-3.963a1.054,1.054,0,0,1,1.108-.962" transform="translate(-83.625 -44.358)" fill="#83327a"/>
        <path id="Trazado_1321344" data-name="Trazado 1321344" d="M209.031,177.581a1.036,1.036,0,0,1-2.066.134c-.016-1.149-.028-2.3-.048-3.449-.166-.821.239-1.88,1.237-1.682a1.046,1.046,0,0,1,.821,1.108c.008,1.3.036,2.6.057,3.89" transform="translate(-98.384 -82.062)" fill="#83327a"/>
        <path id="Trazado_1321345" data-name="Trazado 1321345" d="M208.887,197.175a1.036,1.036,0,0,1-2.066.137c.239-1.225-.817-3.825.9-4.12,1.8.06.95,2.786,1.168,3.983" transform="translate(-98.305 -91.874)" fill="#83327a"/>
        <path id="Trazado_1321346" data-name="Trazado 1321346" d="M209.191,154.321a1.036,1.036,0,0,1-2.066.134c0-1.338-.045-2.677-.069-4.007a1.035,1.035,0,0,1,2.066.016c.016,1.285.057,2.571.069,3.857" transform="translate(-98.467 -71.09)" fill="#83327a"/>
        <path id="Trazado_1321347" data-name="Trazado 1321347" d="M209.32,128.9c.045.886.117,2.183-1.108,2.139-1.455-.186-.837-2.025-.954-3.032.065-1-.445-2.855,1.088-2.847,1.642.271.752,2.576.974,3.74" transform="translate(-98.547 -59.52)" fill="#83327a"/>
        <path id="Trazado_1321348" data-name="Trazado 1321348" d="M207.351,104.089a1.034,1.034,0,0,1,2.062.024c0,1.5,0,2.992-.02,4.488a1.035,1.035,0,0,1-2.066-.145c.024-1.577.028-2.883.024-4.367" transform="translate(-98.596 -49.045)" fill="#83327a"/>
        <path id="Trazado_1321349" data-name="Trazado 1321349" d="M209.5,84.337a1.036,1.036,0,0,1-2.066.133c.186-1.193-.724-3.635,1.092-3.736,1.6.3.756,2.451.974,3.6" transform="translate(-98.616 -38.394)" fill="#83327a"/>
        <path id="Trazado_1321350" data-name="Trazado 1321350" d="M240.39,84.311c1.338.149.873,1.7.9,2.624-.13,1.011.364,2.9-1.168,2.895-1.464-.21-.825-2.026-.9-3.041.052-.922-.182-2.519,1.168-2.479" transform="translate(-113.727 -40.095)" fill="#83327a"/>
        <path id="Trazado_1321351" data-name="Trazado 1321351" d="M240.743,111.026c1.3.331.635,1.9.732,2.855-.154,1.039.42,3.037-1.165,3.041-1.537-.243-.788-2.232-.9-3.3.049-.979-.166-2.806,1.331-2.592" transform="translate(-113.813 -52.791)" fill="#83327a"/>
        <path id="Trazado_1321352" data-name="Trazado 1321352" d="M241.717,135.589c0,1.258.016,2.519.008,3.772a1.045,1.045,0,0,1-1.108.962c-1.557-.23-.776-2.406-.95-3.481-.04-.882-.17-2.28,1.1-2.232a1.043,1.043,0,0,1,.954.979" transform="translate(-113.954 -64.014)" fill="#83327a"/>
        <path id="Trazado_1321353" data-name="Trazado 1321353" d="M240.423,157.749c1.4.2.861,1.8.979,2.762-.149,1.092.533,3.238-1.132,3.271-1.46-.2-.821-2.038-.938-3.053.1-1.027-.5-2.98,1.092-2.98" transform="translate(-113.796 -75.019)" fill="#83327a"/>
        <path id="Trazado_1321354" data-name="Trazado 1321354" d="M272.843,133.517c1.447.194.813,1.953.918,2.952-.206,1.149.586,3.457-1.156,3.526-1.617-.3-.736-2.47-.91-3.627.077-.994-.351-2.85,1.149-2.85" transform="translate(-129.166 -63.495)" fill="#83327a"/>
        <path id="Trazado_1321355" data-name="Trazado 1321355" d="M272.967,111.567c1.516,0,1.047,1.844,1.071,2.842-.2,1.124.518,3.368-1.181,3.429-1.722-.279-.643-3.109-.865-4.355-.024-.764-.033-1.848.974-1.916" transform="translate(-129.285 -53.057)" fill="#83327a"/>
        <path id="Trazado_1321356" data-name="Trazado 1321356" d="M274.466,91.048c.012,1.557-.069,3.117-.133,4.67a1.038,1.038,0,0,1-1.1.958,1.049,1.049,0,0,1-.962-1.1c.061-1.4.13-2.8.133-4.2a1.092,1.092,0,0,1,1.1-1.318,1.045,1.045,0,0,1,.962.995" transform="translate(-129.478 -42.824)" fill="#83327a"/>
        <path id="Trazado_1321357" data-name="Trazado 1321357" d="M272.949,79.012c1.452.1,1.262,2.992-.2,2.879s-1.261-2.988.2-2.879" transform="translate(-129.235 -37.573)" fill="#83327a"/>
        <path id="Trazado_1321358" data-name="Trazado 1321358" d="M302.872,79.406c1.3.137.9,1.646.894,2.551a1.043,1.043,0,0,1-1.1.958c-1.29-.133-.906-1.646-.9-2.547a1.048,1.048,0,0,1,1.108-.962" transform="translate(-143.478 -37.761)" fill="#83327a"/>
        <path id="Trazado_1321359" data-name="Trazado 1321359" d="M303.1,92.392c1.513.215.772,2.107.91,3.146-.263,1.205.659,3.821-1.168,3.9-1.67-.287-.708-2.846-.9-4.047.109-1.027-.4-2.992,1.156-3" transform="translate(-143.542 -43.938)" fill="#83327a"/>
        <path id="Trazado_1321360" data-name="Trazado 1321360" d="M304.014,122.64a1.036,1.036,0,0,1-2.066.133c0-1.605-.024-3.206-.028-4.808a1.035,1.035,0,0,1,2.066.025c.012,1.548.024,3.1.028,4.65" transform="translate(-143.58 -55.643)" fill="#83327a"/>
        <path id="Trazado_1321361" data-name="Trazado 1321361" d="M304.279,144.623a1.036,1.036,0,0,1-2.066.137c-.02-1.455-.085-2.919-.093-4.375a1.036,1.036,0,0,1,2.066.146c0,1.362.069,2.729.093,4.092" transform="translate(-143.676 -66.305)" fill="#83327a"/>
        <path id="Trazado_1321362" data-name="Trazado 1321362" d="M303.951,162.991c0,1.54.02,3.081,0,4.621a1.038,1.038,0,0,1-1.108.959c-1.666-.235-.707-3.118-.954-4.331-.061-.885-.15-2.292,1.1-2.244a1.018,1.018,0,0,1,.958.995" transform="translate(-143.541 -77.038)" fill="#83327a"/>
        <path id="Trazado_1321363" data-name="Trazado 1321363" d="M304.324,190.786a1.036,1.036,0,0,1-2.066.137q-.03-2.39-.077-4.771a1.037,1.037,0,0,1,2.07.125c.008,1.5.052,3,.073,4.509" transform="translate(-143.705 -88.069)" fill="#83327a"/>
        <path id="Trazado_1321364" data-name="Trazado 1321364" d="M304.155,211.923a1.036,1.036,0,0,1-2.066.133c-.028-1.285-.081-2.58-.093-3.865a1.033,1.033,0,0,1,2.062.016c0,1.233.064,2.479.1,3.716" transform="translate(-143.617 -98.548)" fill="#83327a"/>
        <path id="Trazado_1321365" data-name="Trazado 1321365" d="M273.7,248.972a1.036,1.036,0,0,1-2.066.133c.234-1.229-.732-4.2.962-4.444,1.852.024.865,3.077,1.1,4.31" transform="translate(-129.147 -116.351)" fill="#83327a"/>
        <path id="Trazado_1321366" data-name="Trazado 1321366" d="M273.093,224.268a1.044,1.044,0,0,1,.962,1.1c-.04,1.468-.024,2.939-.024,4.407a1.036,1.036,0,0,1-2.066.137c0-1.565,0-3.13.024-4.691a1.043,1.043,0,0,1,1.1-.958" transform="translate(-129.334 -106.651)" fill="#83327a"/>
        <path id="Trazado_1321367" data-name="Trazado 1321367" d="M273.635,202.729a1.044,1.044,0,0,1,.809,1.168c.016,1.185,0,2.369,0,3.554a1.036,1.036,0,0,1-2.066.137c0-1.148,0-2.285,0-3.432a1.133,1.133,0,0,1,1.249-1.428" transform="translate(-129.525 -96.398)" fill="#83327a"/>
        <path id="Trazado_1321368" data-name="Trazado 1321368" d="M274.089,181.428c.008,1.334-.033,2.665-.057,4a1.033,1.033,0,0,1-1.1.958,1.052,1.052,0,0,1-.962-1.1c.028-1.306.052-2.608.057-3.914a1.036,1.036,0,0,1,2.066.061" transform="translate(-129.336 -85.803)" fill="#83327a"/>
        <path id="Trazado_1321369" data-name="Trazado 1321369" d="M273.162,156.575a1.043,1.043,0,0,1,.958,1.1c-.1,1.468-.121,2.939-.166,4.407a1.036,1.036,0,1,1-2.066-.146c.049-1.468.061-2.94.17-4.407a1.043,1.043,0,0,1,1.1-.958" transform="translate(-129.299 -74.459)" fill="#83327a"/>
        <path id="Trazado_1321370" data-name="Trazado 1321370" d="M238.248,31c.441,1.181,1.011,7.311-.287,8.071a.533.533,0,0,1-.477.263c-1.787.016-3.575,0-5.361,0q-2.96,0-5.916,0-6.186,0-12.369,0t-12.336.008q-6.149,0-12.3.008-6.344,0-12.7,0-6.314.006-12.632.008-5.889,0-11.786,0c-1.249,0-2.5,0-3.752,0a.473.473,0,0,1-.352-.166.484.484,0,0,1-.287-.271c-1.739-5.807.477-12.494,4.945-16.5,4.6-4.258,12.632-6.353,17.71-2.317a16.92,16.92,0,0,1,7.282-13.8c13.756-10.052,41.032-9.082,46.532,9.765a21.967,21.967,0,0,1,.736,5.39c5.843-.445,12.053,3.461,13.351,9.514" transform="translate(-69.954 0)" fill="#83327a"/>
        <path id="Trazado_1321371" data-name="Trazado 1321371" d="M320.464,33.083c10.5,9.91,16.441,24.252,15.1,38.72-1.3,20.294-13.137,35.295-24.2,51.25-6.251,9.947-12.114,20.889-12.732,32.833-.239,9.89,4.136,19.683,1.488,29.537-2.03,8.366-7.9,15.135-14.188,20.735C264.6,225.076,232.3,228.82,204.786,228.028c-14.564-.768-28.866-4.371-42.626-9.122a.814.814,0,0,1-.453-.1c-.093-.048-.182-.1-.275-.149,0,0,0,0-.008,0-.449-.157-.9-.319-1.35-.477a.751.751,0,0,1-.469-.53c-16.586-9.195-33.56-19.788-42.375-37.2-7.032-13.481-10.65-29.355-7.974-44.47,4.621-22.178,18.887-42.278,38.72-53.365,7.884-4.545,16.768-7.391,24.47-12.232C185.8,61.828,189.939,45.553,195.2,31.591c12.854-34.8,56.393-37.066,86.315-24.746,5.717,2.382,13.371,5.625,15.033,12.038a13.39,13.39,0,0,1,4.609.627c7.614,2.454,13.707,8.071,19.307,13.574" transform="translate(-51.538 -0.018)" fill="#45133e"/>
        <path id="Trazado_1321372" data-name="Trazado 1321372" d="M308.534,254.464c6.967,8.418,8.786,21.054,2.568,30.394a40.651,40.651,0,0,1-2.863,3.939.693.693,0,0,1-.178.578c-8.184,10.647-23.2,10.687-35.412,9.514-22.485-1.945-41.825-16.55-54.408-34.656a59.581,59.581,0,0,1-4.12-7.088,1.363,1.363,0,0,1-.1-.17.788.788,0,0,1-.6-.445c-.51-1.221,2.183-1.767,2.952-2.333,3.987-1.86,8.281-3.4,12.122-5.523,13.889-7.541,22.9-23.068,22.109-38.849.142-.882-.578-2.236.428-2.7a1.135,1.135,0,0,1,.445.012,1.157,1.157,0,0,1,.934.683c6.918,9.348,14.641,18.187,24.18,24.927,10.573,7.323,23.791,11.232,31.943,21.717" transform="translate(-101.464 -98.492)" fill="#ef9a97"/>
        <path id="Trazado_1321373" data-name="Trazado 1321373" d="M345.271,274.376c-20.784-1.146-38.971-13.808-49.281-31.591a67.551,67.551,0,0,1-7.326-17.295,67.7,67.7,0,0,1-4.258-13.374,18.25,18.25,0,0,1-.133-2.289c.142-.882-.578-2.236.428-2.7a1.237,1.237,0,0,1,1.379.7c6.918,9.348,14.641,18.187,24.179,24.928,16.254,10.348,40.108,18.054,38.183,41.7q-1.585.007-3.17-.077" transform="translate(-135.131 -98.495)" fill="#c66f79"/>
        <path id="Trazado_1321374" data-name="Trazado 1321374" d="M220.1,391.613c4.735,21.369,5.827,44.045.647,65.43-4.8,16.735-11.483,22.428-29.165,21.943-37.111-.008-53.652-51.375-58.011-81.7-3.34-24.334.441-50.195,14.593-70.691a77.619,77.619,0,0,1,20.937-20.67c.445-.351,1.411-.873,1.5.033,27.511,20.358,41.934,53.139,49.5,85.651" transform="translate(-62.98 -145.263)" fill="#ef9a97"/>
        <path id="Trazado_1321375" data-name="Trazado 1321375" d="M484.521,372.87c7.387,22.449,12.62,47.655,4.23,70.537-4.488,12.045-14.189,25.077-28.643,22.291-21.2-4.213-29.776-27.879-35.3-46.273A296.547,296.547,0,0,1,414.9,374.7c-1.965-13.853-2.426-27.944-4.48-41.772a72.706,72.706,0,0,0-5.6-18.968c-1.011-2.6-4.844-5.98-2.555-8.637,7.969-4.573,22.667.748,30.661,4.011,25.21,11.035,42.824,38.275,51.6,63.534" transform="translate(-190.958 -144.355)" fill="#ef9a97"/>
        <path id="Trazado_1321376" data-name="Trazado 1321376" d="M214.567,505.379a.873.873,0,0,1-.467-.487,1.167,1.167,0,0,1-.912.107.966.966,0,0,1-.61-.513,1.2,1.2,0,0,1-.028-.841c.012-.039.024-.079.038-.117a1.319,1.319,0,0,1-1.559.222.907.907,0,0,1-.373-.557,8.512,8.512,0,0,1-.5.728,1.5,1.5,0,0,1-1.493.6,1.05,1.05,0,0,1-.57-1.524,5.935,5.935,0,0,1,.47-.792,1.3,1.3,0,0,1,.136-1.181,90.628,90.628,0,0,1,8.183-10.581q.5-.576,1.02-1.141,2.1-2.295,4.39-4.412.81-.771,1.639-1.523c1.925-1.751,3.946-3.392,6.017-4.961a79.575,79.575,0,0,1,13.137-8.038c2.208-1.08,4.488-1.981,6.789-2.835a3.394,3.394,0,0,1,.995-.271,1.5,1.5,0,0,1,1.064.315.694.694,0,0,1,.167.2l.274-.067c.521-.121,1.043-.242,1.565-.356.271-.061.538-.117.809-.174a2.328,2.328,0,0,1,.951-.079q.164.684.323,1.369c.036.159.07.318.105.477a1.487,1.487,0,0,1-.485.436l-.02.01a1.291,1.291,0,0,1-.029.685,1.634,1.634,0,0,1-.518.775.929.929,0,0,1,.158.31c.121-.034.242-.066.364-.1a5.788,5.788,0,0,1,.936-.212q.561,2.7,1.042,5.422a13.158,13.158,0,0,1-1.3.443c-.63.21-1.257.424-1.884.639-1.31.449-2.62.9-3.914,1.391l.037-.015q-.686.269-1.364.554-2.068.923-4.084,1.964l.069-.039-.148.079-.018.009.013-.006c-1.047.565-2.087,1.143-3.11,1.75q-1.6.981-3.14,2.046l.039-.029-.07.05-.092.063.077-.052a116.865,116.865,0,0,0-9.321,7.539c-1.308,1.182-2.612,2.367-3.86,3.612-1.3,1.3-2.56,2.646-3.793,4.017l-.068.076-.057.065.009-.01-.285.32.009-.01-.046.052-.088.1.028-.031a16.957,16.957,0,0,1-2.161,2.216,5.265,5.265,0,0,1-.795.815,1.36,1.36,0,0,1-1.355.247s-.008,0-.016,0a.9.9,0,0,1-.1-.049,7.9,7.9,0,0,1-.572.765,1.7,1.7,0,0,1-1.2.633,1.045,1.045,0,0,1-.439-.1" transform="translate(-98.899 -222.124)" fill="#c66f79"/>
        <path id="Trazado_1321377" data-name="Trazado 1321377" d="M492.1,506.578a2.456,2.456,0,0,1-.539-.231,1.512,1.512,0,0,1-1.4.051l0,.006c-.3-.132-.607-.251-.915-.368a81.022,81.022,0,0,0-8.312-2.483l.19.049c-.34-.079-.673-.167-1.011-.251l.19.048c-5.818-1.5-11.887-1.93-17.5-4.173.665-.128,1.5-.135,2.23-.2q-1.129-.158-2.259-.3l.19.025c-.154-.02-.307-.037-.461-.057l.19.024c-1.352-.282-3-.018-4.128-.93-1.225-1.43.474-2.071,1.755-2,9.9-.693,20.25,1.09,28.5,6.833l-.025-.016c.56.374,6.2,4.182,3.308,3.971" transform="translate(-217.869 -235.71)" fill="#c66f79"/>
        <path id="Trazado_1321378" data-name="Trazado 1321378" d="M347.874,392.13a116.931,116.931,0,0,1,1.54,20.338c-.06,1.8-.21,3.6-.376,5.4a.8.8,0,0,1,.231.344,1.469,1.469,0,0,1-1.168,1.358.672.672,0,0,1-.239-.064c-7.889,2.777-15.846,5.39-23.917,7.6a178.633,178.633,0,0,1-55.953,5.96,159.76,159.76,0,0,1-27.366-3.384c-.837-.352-2.413-.041-2.462-1.226a.27.27,0,0,1,.008-.057.682.682,0,0,1-.077-.489,128.013,128.013,0,0,0,2.636-15.022,113.5,113.5,0,0,0-1.035-29.6c-4.29-23.072-14.516-49.042-29.3-67.375-4-4.484-7.84-9.279-13.056-12.264a.786.786,0,0,1-.667-.692.826.826,0,0,1,.493-.752c1.629-2.187,9.433-5.968,10.767-6.485A.766.766,0,0,1,209,296.4a13.451,13.451,0,0,0,.97,1.44c7.763,10.056,18.426,17.362,29.379,23.557,12.506,7.177,27.313,11.758,41.744,9.207,13.04-1.843,21.9-15.195,18.054-27.81a24.461,24.461,0,0,0-2.11-4.44.784.784,0,0,1,.295-1.059c.906-.364,1.4.675,1.82,1.65.513-2.1,2.22-2.875,5.527-.3,3.757,3.1,6.542,7.165,9.312,11.128,16.675,24.834,29.137,52.706,33.888,82.364" transform="translate(-93.529 -140.601)" fill="#7985bc"/>
        <path id="Trazado_1321379" data-name="Trazado 1321379" d="M197.869,484.769c-.589,16.225,13.795,24.534,28.413,25.148,14.763.824,29-5.086,41.422-12.6,13.362-8.191,25.049-18.864,35.621-30.378,6.91-7.473,13.149-15.725,20.04-23.182,4.641-4.985,10.006-8.848,15.316-12.991,8.6-6.912,17.029-14.6,22.37-24.4,1.237-2.5,4.63-9.115.281-9.779a6.956,6.956,0,0,0-2.3.728,60.366,60.366,0,0,0,4.236-9.642c2.835-7.827,1.113-12.835-4.755-8.441q.569-1.593,1.022-3.234c.485-1.974.271-4.994-2.347-5.043-3.4.305-5.968,2.9-8.46,5.171.127-.5.232-1.009.325-1.518.433-2.128-.116-5.473-2.913-5.244-2.078.231-3.452,2.09-4.822,3.489-5.151,5.828-9.841,12.379-15.831,17.352-.318.254-.642.507-.964.754.434-4.292-.037-9.231-3.178-11.462a3.348,3.348,0,0,0-3.861.169c-2.855,2.395-3.453,6.413-4.819,9.684-2.376,6.44-5.85,12.843-11.2,17.205-8.96,6.936-19.988,10.077-30.4,14.074-4.973,1.884-9.952,3.85-14.855,5.986-.013,0-.023.009-.039.015-26.827,11.182-57.218,29.829-58.3,58.14" transform="translate(-94.09 -175.648)" fill="#ef9a97"/>
        <path id="Trazado_1321380" data-name="Trazado 1321380" d="M478.539,378.688c2.022,5.014-1.65,12.1-3.861,16.659-.174.331-.352.663-.534.991,2.159-.777,4.315.162,4.181,2.806-.295,4.816-3.6,8.831-6.215,12.684A99.825,99.825,0,0,1,456.171,428.7q-1.929,1.668-3.942,3.235a.529.529,0,0,1-.728-.093.522.522,0,0,1,.089-.724c1.011-.792,2.014-1.593,2.992-2.422a111.078,111.078,0,0,0,12.486-12.183c4.007-5.127,9-10.412,10.213-16.974.121-1.763-.542-2.794-2.418-2.325a6.4,6.4,0,0,0-1.654.752,75.51,75.51,0,0,1-9.332,12.353c-.344.356-.752,1.083-1.286.618a.53.53,0,0,1,0-.736c1.8-1.973,3.534-3.963,5.172-6.065a61.218,61.218,0,0,0,8.261-14.063c.978-2.369,4.646-12.955-.809-11.552a15.961,15.961,0,0,0-2.369,1.355c-3.247,7.411-8.144,13.97-13.339,20.1-1.682,1.953-3.437,3.837-5.2,5.717a.516.516,0,1,1-.732-.728c1.658-1.779,3.316-3.562,4.909-5.39a97.035,97.035,0,0,0,10.541-14.5c1.949-3.684,4.868-7.868,3.8-12.179-.861-2.681-3.91-.7-5.386.263a36.314,36.314,0,0,0-4.144,3.388.433.433,0,0,1-.158.1,19.327,19.327,0,0,1-.974,2.693c-2.653,6.538-6.938,12.268-11.443,17.641-1.31,1.525-2.665,3.009-4.015,4.5a.526.526,0,0,1-.732,0,.534.534,0,0,1,0-.736c1.176-1.294,2.353-2.583,3.481-3.881a86.776,86.776,0,0,0,9.15-12.543c2.014-3.934,4.545-8.2,3.906-12.745-.246-1.537-1.751-1.848-2.927-1.1-6.279,4.185-10.23,10.861-15.418,16.21-.829.7-5.094,6-5.737,4.7-.311-.55.433-.841.7-1.128,5.806-5.261,10.306-11.714,15.745-17.322,6.312-6.732,9.591-3.756,8.641,2.03a2.478,2.478,0,0,0,.457-.421c2.083-1.71,4.327-3.7,7.08-4.064,3.773.267,3.393,4.731,2.438,7.723,1.549-1.063,4.007-1.451,5.05.465" transform="translate(-208.461 -175.525)" fill="#45133e"/>
        <path id="Trazado_1321381" data-name="Trazado 1321381" d="M377.09,520.9c9.041,13.484,1.185,28.122-10.921,36.338-12.118,8.471-27.338,10.941-41.854,11.087-15.672.069-31.227-2.855-46.276-7.081-9.81-2.717-19.457-6.449-29.242-9.162-6.57-1.8-13.165-2.256-19.861-2.984-10.949-1.35-22.166-3.453-31.862-8.968-2.365-1.472-8.734-5.313-5.385-8.168a6.963,6.963,0,0,1,2.337-.59,60.377,60.377,0,0,1-8.677-5.968c-6.53-5.164-7.7-10.327-.4-9.68-.881-.7-1.739-1.443-2.571-2.212-1.452-1.423-2.859-4.1-.659-5.523,3.049-1.528,6.6-.679,9.915-.057-.372-.36-.728-.736-1.076-1.12-1.488-1.581-2.782-4.715-.283-5.992,1.889-.9,4.036-.04,5.936.428,7.448,2.244,14.884,5.345,22.595,6.421.4.049.813.093,1.217.134-2.628-3.421-4.828-7.869-3.332-11.419a3.349,3.349,0,0,1,3.372-1.889c3.688.534,6.312,3.635,9.195,5.7,5.41,4.225,11.734,7.84,18.58,8.734,11.269,1.181,22.3-1.953,33.256-4.035,5.22-1.015,10.489-1.965,15.781-2.73.012,0,.025,0,.04-.008,28.7-4.613,64.351-4.755,80.177,18.745" transform="translate(-85.574 -235.147)" fill="#ef9a97"/>
        <path id="Trazado_1321382" data-name="Trazado 1321382" d="M223.59,526.245c-8.96-3.549-18.671-7-25.262-14.355-1.926-2.024-2.647-5.941.788-6.768a10.226,10.226,0,0,1,5.612.4c3.894,1.145,7.664,2.652,11.564,3.781a108.1,108.1,0,0,0,11.819,2.778.519.519,0,0,1-.2,1.019,108,108,0,0,1-13.772-3.377c-4.645-1.221-9.161-3.885-14.011-3.769-5.719,1.063.068,6.885,2.415,8.557,6.074,4.705,13.24,7.618,20.346,10.359.384.146.78.275,1.156.445a.517.517,0,0,1-.465.922l.008,0" transform="translate(-93.548 -240.095)" fill="#45133e"/>
        <path id="Trazado_1321383" data-name="Trazado 1321383" d="M211,540.589c-8.808-3.19-17.79-6.6-25.275-12.365-9.854-7.291-5.491-11.9,5.216-9.652.583.189,1.869-.049,1.82.837a.529.529,0,0,1-.61.409c-.992-.171-1.988-.326-2.972-.457-2.4-.277-9.193-1.292-7.642,2.984,2.249,4.054,6.773,6.415,10.524,8.906a100.457,100.457,0,0,0,11.788,5.51c2.463,1.044,4.936,2.044,7.487,2.849a.518.518,0,0,1-.336.979" transform="translate(-85.703 -246.338)" fill="#45133e"/>
        <path id="Trazado_1321384" data-name="Trazado 1321384" d="M208.565,556.884c-5.406-1.674-10.436-4.328-15.437-6.926a42.609,42.609,0,0,1-9.454-6.308c-3.63-3.136-8.039-10.227.351-9.583a.519.519,0,0,1-.06,1.035,6.466,6.466,0,0,0-2.394.089c-3.552,1.043.824,5.6,2.1,7.016,3.41,3.457,7.759,5.713,12.025,7.925,2.954,1.53,6.048,3.025,9.081,4.3,1.343.566,2.731,1.026,4.117,1.471a.517.517,0,0,1-.331.979" transform="translate(-85.23 -253.96)" fill="#45133e"/>
        <path id="Trazado_1321385" data-name="Trazado 1321385" d="M295.828,596.945c-14.573-3.182-28.223-9.713-42.8-12.737-11.747-1.947-23.806-2.09-35.218-5.806-3.934-1.144-22.872-7.735-17.3-13.368.545-.659,4.673-1.985,4.488-.364a.51.51,0,0,1-.591.344,4.539,4.539,0,0,0-3.252.827c-3.4,3.051,7.537,8.1,9.761,8.978,13.992,6.229,29.371,6.093,44.174,8.73,10.931,2.444,21.229,7.041,32.023,9.987,2.959.848,5.923,1.67,8.916,2.394a.517.517,0,1,1-.2,1.014" transform="translate(-94.868 -268.166)" fill="#45133e"/>
        <path id="Trazado_1321386" data-name="Trazado 1321386" d="M279.441,509.043c-7.35-.962-13.762-5.191-19.521-9.619-2.609-1.732-6.069-5.8-9.4-4.051-3,2.232-.427,6.987.881,9.55.392.729.912,1.372,1.362,2.058a.534.534,0,0,1,0,.465c-.818,1.065-1.609-1.208-2.09-1.723-1.546-2.826-3.319-6.244-2.179-9.5,1.185-2.9,4.995-2.779,7.2-1.169,5.591,3.809,10.695,8.526,17.051,11.071,11.444,4.654,23.933,1.049,35.582-.882,21.483-3.853,43.49-8.418,65.362-5.4a79.641,79.641,0,0,1,16.117,4.076,39.09,39.09,0,0,1,3.578,1.589.516.516,0,1,1-.465.922,40.462,40.462,0,0,0-6.53-2.588,84.322,84.322,0,0,0-21.612-3.845c-15.9-.552-31.777,1.711-47.364,4.667-12.569,1.926-25.144,5.844-37.963,4.383" transform="translate(-117.998 -234.889)" fill="#45133e"/>
        <path id="Trazado_1321387" data-name="Trazado 1321387" d="M476.394,211.242c5.81,2.394,8.257,9.421,7.226,15.3-1.981,11.148-13.473,20.209-24.79,19.413a29.835,29.835,0,0,1-6.6-1.763.78.78,0,0,1-.433-1.007.752.752,0,0,1,.348-.384c1.989-3.425,3.922-6.874,6.041-10.222,4.444-6.991,8.993-13.8,12.939-21.062-.352-2.135,4.242-.7,5.269-.275" transform="translate(-214.831 -100.046)" fill="#c66f79"/>
        <path id="Trazado_1321388" data-name="Trazado 1321388" d="M407.361,99.337c.979.384.319,1.508.158,2.228-.57,1.889-1.193,3.764-1.856,5.62A253.8,253.8,0,0,1,391.883,138c-10.723,20.888-27.491,43.592-53.644,41.74-24.4-.222-48.015-18.143-54.355-41.777-7.359-28.073,13.748-72.219,36.625-88.914,43.418-33.435,82.74,3.78,86.852,50.283" transform="translate(-134.294 -17.222)" fill="#ef9a97"/>
        <path id="Trazado_1321389" data-name="Trazado 1321389" d="M406.7,55.286c7.586,12.943,11.3,28.757,7.392,43.491-.344,1.261-2.56,8.644-4.149,9.663-.008.016-.016.037-.024.053a.789.789,0,0,1-1.071.251c-21.414-14.6-29.707-41.9-30.677-66.781-13.258,19.8-42.581,40.7-64.816,49.063a67.1,67.1,0,0,1-18.126,4.128.783.783,0,0,1-.125.1c-2.745,1.354-1.779-12.4-1.585-13.934,2.859-36.7,42.2-66.655,77.985-53.284,7.205,2.544,13.841,6.506,20.116,10.82A48.068,48.068,0,0,1,406.7,55.286" transform="translate(-139.43 -11.788)" fill="#45133e"/>
        <path id="Trazado_1321390" data-name="Trazado 1321390" d="M272.839,127.714c7.783,10.238,5.1,18.693.23,29.4-1.063,2.434-2.122,4.88-3.141,7.331-.607.817-1.933.275-2.81.332-14.516-1.411-26.884-14.3-23.459-29.331,2.818-14.851,19.756-20.69,29.181-7.735" transform="translate(-115.6 -57.329)" fill="#ef9a97"/>
        <path id="Trazado_1321391" data-name="Trazado 1321391" d="M273.888,161.189c-.675-4.432,1.816-8.838,5.483-11.232.495-.4,1.153-.555,1.623-.99a3.657,3.657,0,0,0,.729-2.134c.18-5.507-3.922-11.118-9.319-12.317q-.573-.128-1.157-.2a.776.776,0,0,1,.239-1.532c7.277.742,13.727,9.306,11.208,16.428a4.125,4.125,0,0,1-2.162,1.837,14.363,14.363,0,0,0-2.576,2.156,9.745,9.745,0,0,0-2.561,7.615.776.776,0,0,1-1.508.369" transform="translate(-128.692 -63.141)" fill="#c66f79"/>
        <path id="Trazado_1321392" data-name="Trazado 1321392" d="M404.121,209.423c-1.1-.144-6.388-2.685-5.119-4a.794.794,0,0,1,1.1-.008c1.99,1.788,4.631,3.148,7.344,2.534a4.689,4.689,0,0,0,3.619-2.5,5.586,5.586,0,0,0,.5-2.247c.033-3.751-.514-7.543.28-11.261.218-1.394,2.111-8.206,3.95-7.157.578.451.2,1.1-.17,1.536-2.88,4.439-2.835,9.845-2.527,14.912.812,5.77-3.369,9.393-8.976,8.188" transform="translate(-189.656 -87.824)" fill="#c66f79"/>
        <path id="Trazado_1321393" data-name="Trazado 1321393" d="M372.519,169.961c-.38-.228-.771.117-1.022.388a17.115,17.115,0,0,1-7.517,2.356,11.567,11.567,0,0,1-12.935-11.8c-.1-.861.476-1.934-.3-2.582-1.308-.7-2-.316-2.33.56a11.334,11.334,0,0,1-4.138,1.236c-.246-.072-.676.1-.439.4a5.167,5.167,0,0,0,2.422.675,5.54,5.54,0,0,0,1.917-.142c.016.369.048.744.094,1.122-.857.539-1.735,1.431-2.678,1.425-.337.117-1.066-.186-1.286.178a.174.174,0,0,0,.006.106c.356.458,1.145.337,1.676.44a7.845,7.845,0,0,0,2.62-.205,13.587,13.587,0,0,0,.421,1.521c1.66,4.963,6.69,8.235,11.8,8.612a15.253,15.253,0,0,0,11.287-3.393c.324-.158.83-.583.406-.9" transform="translate(-163.48 -75.12)" fill="#45133e"/>
        <path id="Trazado_1321394" data-name="Trazado 1321394" d="M465.54,212.521a10.091,10.091,0,0,1-1.442-3.788c.5-.79.394-1.54-.922-2.065-.962-.167-1.468.919-2.2,1.385-5.5,4.577-13.232,3.49-16.769-2.121a15.287,15.287,0,0,1-2.536-6.97c.065-.352.107-.854-.292-.99-.5-.112-.533.523-.468.858a13.652,13.652,0,0,0,3.922,10.377,12.718,12.718,0,0,0,13.614,3.275,14.266,14.266,0,0,0,1.435-.639,6.872,6.872,0,0,0,1.366,2.045c.39.324.755.977,1.321.953a.19.19,0,0,0,.087-.061c.157-.388-.505-.733-.61-1.052-.554-.686-.368-1.884-.445-2.847.322-.2.637-.412.934-.63a4.85,4.85,0,0,0,1.005,1.489,4.6,4.6,0,0,0,1.939,1.353c.377-.016.259-.436.059-.572" transform="translate(-209.658 -94.141)" fill="#45133e"/>
        <path id="Trazado_1321395" data-name="Trazado 1321395" d="M385.633,131.5a2.871,2.871,0,0,1-.428,2.086,7.922,7.922,0,0,1-1.791,1.99,17.084,17.084,0,0,1-2.576,1.743,27.185,27.185,0,0,1-5.038,2.2,23.053,23.053,0,0,1-5.325,1.108c-.344.024-.688.04-1.035.04a9.777,9.777,0,0,1-1.719-.142,3.882,3.882,0,0,1-2.095-.958,2.17,2.17,0,0,1-.606-1.084,2.534,2.534,0,0,1,.085-1.29,5.284,5.284,0,0,1,1.314-1.986,13.508,13.508,0,0,1,2.288-1.836,20.321,20.321,0,0,1,1.872-1.092.209.209,0,0,0,.033-.016,27.425,27.425,0,0,1,7.3-2.559,18.828,18.828,0,0,1,2.725-.34,9.322,9.322,0,0,1,2.778.239,2.83,2.83,0,0,1,2.216,1.9" transform="translate(-173.566 -61.515)" fill="#45133e"/>
        <path id="Trazado_1321396" data-name="Trazado 1321396" d="M478.983,175.1a14.829,14.829,0,0,1,.04,2.539,7.053,7.053,0,0,1-.461,2.2,2.53,2.53,0,0,1-1.746,1.629,1.86,1.86,0,0,1-.4.04,3.116,3.116,0,0,1-1.8-.7,8.76,8.76,0,0,1-1.94-2.147,19.883,19.883,0,0,1-1.5-2.673c-.061-.125-.117-.246-.17-.372-.012-.016-.02-.036-.033-.057a28.319,28.319,0,0,1-1.633-4.743c-.008-.04-.02-.081-.033-.121a.049.049,0,0,0,0-.024c-.117-.477-.222-.959-.311-1.444a17.09,17.09,0,0,1-.307-5.366,4.623,4.623,0,0,1,1.108-2.68,2.14,2.14,0,0,1,1.2-.578,2.345,2.345,0,0,1,1.229.2,5.479,5.479,0,0,1,1.925,1.544,13.57,13.57,0,0,1,1.537,2.224,27.928,27.928,0,0,1,3.3,10.525" transform="translate(-222.842 -76.366)" fill="#45133e"/>
        <path id="Trazado_1321397" data-name="Trazado 1321397" d="M373.254,232.163c.416.853,1.985,3.76.655,4.2a.775.775,0,0,1-.958-.534c-.623-5.479-7.189-7.177-11.532-4.9a6.39,6.39,0,0,0-1.642,1.168c-.7.72-1.816-.38-1.1-1.1,3.934-3.761,11.5-3.538,14.581,1.164" transform="translate(-170.462 -108.611)" fill="#45133e"/>
        <g id="Grupo_1188485" data-name="Grupo 1188485" transform="translate(166.89 93.8)" opacity="0.5">
          <g id="Grupo_1188484" data-name="Grupo 1188484">
            <g id="Grupo_1188483" data-name="Grupo 1188483" clip-path="url(#clip-path-3)">
              <path id="Trazado_1321398" data-name="Trazado 1321398" d="M335.009,185.177a8.54,8.54,0,0,1-.412,5.6.241.241,0,0,1-.02.049v0a8.527,8.527,0,0,1-6.955,5.054,8.146,8.146,0,0,1-.889.045,8.025,8.025,0,0,1-1.864-.21,9.137,9.137,0,0,1-2.681-1.12,8.514,8.514,0,0,1-3.9-6.247c-.008-.044-.016-.085-.02-.129a8.321,8.321,0,0,1,.1-2.35c.02-.117.04-.234.069-.352a8.453,8.453,0,0,1,2.107-3.978c.02-.02.045-.045.065-.061a8.363,8.363,0,0,1,.708-.663,8.513,8.513,0,0,1,5.276-1.961,8.534,8.534,0,0,1,8.418,6.32" transform="translate(-318.224 -178.856)" fill="#eb6670"/>
            </g>
          </g>
        </g>
        <g id="Grupo_1188488" data-name="Grupo 1188488" transform="translate(234.586 125.486)" opacity="0.5">
          <g id="Grupo_1188487" data-name="Grupo 1188487">
            <g id="Grupo_1188486" data-name="Grupo 1188486" clip-path="url(#clip-path-4)">
              <path id="Trazado_1321399" data-name="Trazado 1321399" d="M460.208,244.074a8.453,8.453,0,0,1-.449,2.8,11.034,11.034,0,0,1-1.367,2.77,10.25,10.25,0,0,1-4.2,3.655,7.1,7.1,0,0,1-1.379.445.012.012,0,0,1-.008,0H452.8a5.783,5.783,0,0,1-1.12.117,4.512,4.512,0,0,1-1.265-.174,4.134,4.134,0,0,1-2.083-1.415,5.1,5.1,0,0,1-.954-2.382,7.633,7.633,0,0,1,.178-2.887,10.68,10.68,0,0,1,.433-1.367.015.015,0,0,0,0-.008c0-.012.012-.024.016-.036.02-.052.041-.105.061-.154,0,0,0-.008.008-.012.077-.182.158-.364.247-.546a11.422,11.422,0,0,1,1.722-2.568c.037-.045.077-.089.113-.13.012-.016.028-.028.04-.044a10.728,10.728,0,0,1,2.038-1.714,5.953,5.953,0,0,1,5.208-.865,4.127,4.127,0,0,1,2.155,1.94,5.783,5.783,0,0,1,.61,2.572" transform="translate(-447.306 -239.275)" fill="#eb6670"/>
            </g>
          </g>
        </g>
        <path id="Trazado_1321400" data-name="Trazado 1321400" d="M177.868,81.748a1.037,1.037,0,0,1-2.07.133c.19-1.176-.753-3.55.909-3.845,1.779.109.922,2.527,1.161,3.712" transform="translate(-83.556 -37.111)" fill="#83327a"/>
        <path id="Trazado_1321401" data-name="Trazado 1321401" d="M28.074,195.025c.189-1.177-.752-3.551.906-3.845,1.783.109.925,2.524,1.16,3.712a1.036,1.036,0,0,1-2.066.133" transform="translate(-13.304 -90.917)" fill="#ab76f2"/>
        <path id="Trazado_1321402" data-name="Trazado 1321402" d="M29.125,211.342c-1.665-.319-.73-2.762-.861-3.963a1.047,1.047,0,0,1,1.108-.958c1.711.317.625,2.747.861,3.958a1.043,1.043,0,0,1-1.108.962" transform="translate(-13.372 -98.164)" fill="#ab76f2"/>
        <path id="Trazado_1321403" data-name="Trazado 1321403" d="M28.976,233.659c-1.457-.156-.82-2.141-.927-3.029.115-.98-.5-2.694.93-2.867,1.444-.011,1.1,1.756,1.136,2.733-.131,1.064.478,3.136-1.14,3.162" transform="translate(-13.315 -108.315)" fill="#ab76f2"/>
        <path id="Trazado_1321404" data-name="Trazado 1321404" d="M29.5,255.681c-1.549-.252-.781-2.267-.922-3.352.092-.987-.358-2.8,1.141-2.782,1.408.176.853,1.908.926,2.887-.165,1.087.512,3.209-1.144,3.247" transform="translate(-13.559 -118.674)" fill="#ab76f2"/>
        <path id="Trazado_1321405" data-name="Trazado 1321405" d="M29.024,276.2c.242-1.286-.918-4.908,1.019-4.86a1.015,1.015,0,0,1,.959.97c.026,1.246.085,2.5.089,3.752a1.036,1.036,0,0,1-2.066.137" transform="translate(-13.742 -129.037)" fill="#ab76f2"/>
        <path id="Trazado_1321406" data-name="Trazado 1321406" d="M28.814,297.25c.206-1.237-.841-3.977,1.055-4.084a1.045,1.045,0,0,1,.958,1.108v-.045c-.232,1.211.788,3.671-.91,3.987a1.043,1.043,0,0,1-1.1-.967" transform="translate(-13.652 -139.417)" fill="#ab76f2"/>
        <path id="Trazado_1321407" data-name="Trazado 1321407" d="M59.707,197.608c.189-1.19-.724-3.632,1.092-3.736,1.6.3.757,2.453.974,3.6a1.036,1.036,0,0,1-2.066.133" transform="translate(-28.363 -92.197)" fill="#ab76f2"/>
        <path id="Trazado_1321408" data-name="Trazado 1321408" d="M60.557,222.7a1.046,1.046,0,0,1-.958-1.1c.025-1.575.03-2.881.024-4.367a1.034,1.034,0,0,1,2.062.024q0,2.244-.02,4.488a1.04,1.04,0,0,1-1.108.958" transform="translate(-28.343 -102.849)" fill="#ab76f2"/>
        <path id="Trazado_1321409" data-name="Trazado 1321409" d="M60.483,244.179c-1.455-.186-.834-2.025-.954-3.033.065-1-.442-2.854,1.088-2.846,1.641.27.752,2.575.974,3.74.046.884.12,2.183-1.108,2.139" transform="translate(-28.294 -113.325)" fill="#ab76f2"/>
        <path id="Trazado_1321410" data-name="Trazado 1321410" d="M59.4,267.593c-.006-1.335-.046-2.675-.069-4.007a1.035,1.035,0,0,1,2.066.016c.013,1.286.056,2.572.069,3.857a1.036,1.036,0,0,1-2.066.134" transform="translate(-28.216 -124.893)" fill="#ab76f2"/>
        <path id="Trazado_1321411" data-name="Trazado 1321411" d="M59.24,290.859c-.018-1.149-.028-2.3-.048-3.449-.165-.824.237-1.883,1.237-1.682a1.047,1.047,0,0,1,.821,1.107c.005,1.3.036,2.594.056,3.891a1.036,1.036,0,0,1-2.066.133" transform="translate(-28.132 -135.868)" fill="#ab76f2"/>
        <path id="Trazado_1321412" data-name="Trazado 1321412" d="M59.1,310.452c.239-1.226-.817-3.824.9-4.12,1.794.062.948,2.785,1.168,3.983a1.036,1.036,0,0,1-2.066.137" transform="translate(-28.054 -145.679)" fill="#ab76f2"/>
        <path id="Trazado_1321413" data-name="Trazado 1321413" d="M92.392,202.972c-1.461-.208-.822-2.026-.9-3.041.054-.921-.182-2.519,1.168-2.479,1.338.148.873,1.7.9,2.624-.129,1.011.365,2.9-1.168,2.895" transform="translate(-43.475 -93.9)" fill="#ab76f2"/>
        <path id="Trazado_1321414" data-name="Trazado 1321414" d="M92.583,230.065c-1.536-.245-.788-2.234-.9-3.3.051-.979-.165-2.805,1.33-2.592,1.3.331.634,1.9.732,2.855-.153,1.038.421,3.035-1.165,3.041" transform="translate(-43.56 -106.597)" fill="#ab76f2"/>
        <path id="Trazado_1321415" data-name="Trazado 1321415" d="M92.893,253.469c-1.558-.231-.777-2.407-.954-3.481-.039-.882-.167-2.283,1.1-2.232a1.043,1.043,0,0,1,.958.976c0,1.257.016,2.518,0,3.775a1.041,1.041,0,0,1-1.1.962" transform="translate(-43.702 -117.822)" fill="#ab76f2"/>
        <path id="Trazado_1321416" data-name="Trazado 1321416" d="M92.546,276.927c-1.461-.205-.822-2.037-.938-3.053.1-1.028-.5-2.98,1.092-2.98,1.4.2.861,1.8.974,2.762-.146,1.09.537,3.238-1.128,3.271" transform="translate(-43.545 -128.826)" fill="#ab76f2"/>
        <path id="Trazado_1321417" data-name="Trazado 1321417" d="M125.023,195.03c-1.448-.1-1.26-2.986.2-2.879s1.263,2.993-.2,2.879" transform="translate(-58.982 -91.377)" fill="#ab76f2"/>
        <path id="Trazado_1321418" data-name="Trazado 1321418" d="M125.5,209.821a1.049,1.049,0,0,1-.962-1.1c.063-1.4.131-2.8.137-4.2a1.087,1.087,0,0,1,1.1-1.318,1.04,1.04,0,0,1,.963.994c.014,1.556-.066,3.115-.134,4.671a1.041,1.041,0,0,1-1.1.958" transform="translate(-59.224 -96.631)" fill="#ab76f2"/>
        <path id="Trazado_1321419" data-name="Trazado 1321419" d="M125.132,230.981c-1.721-.278-.644-3.11-.865-4.355-.026-.767-.033-1.848.974-1.916,1.517,0,1.047,1.842,1.072,2.842-.2,1.124.515,3.368-1.181,3.429" transform="translate(-59.033 -106.863)" fill="#ab76f2"/>
        <path id="Trazado_1321420" data-name="Trazado 1321420" d="M124.877,253.139c-1.616-.3-.736-2.474-.909-3.627.077-1-.351-2.852,1.148-2.851,1.45.194.813,1.95.918,2.952-.205,1.145.585,3.454-1.157,3.526" transform="translate(-58.913 -117.302)" fill="#ab76f2"/>
        <path id="Trazado_1321421" data-name="Trazado 1321421" d="M125.118,276.19a1.055,1.055,0,0,1-.958-1.108c.048-1.467.06-2.94.17-4.407a1.034,1.034,0,1,1,2.062.145c-.105,1.468-.122,2.939-.166,4.407a1.048,1.048,0,0,1-1.108.962" transform="translate(-59.045 -128.265)" fill="#ab76f2"/>
        <path id="Trazado_1321422" data-name="Trazado 1321422" d="M125.205,299.526a1.052,1.052,0,0,1-.962-1.1c.025-1.3.049-2.61.057-3.914a1.034,1.034,0,0,1,2.063.061q0-.026,0-.053c.008,1.35-.033,2.7-.057,4.052a1.036,1.036,0,0,1-1.1.958" transform="translate(-59.085 -139.608)" fill="#ab76f2"/>
        <path id="Trazado_1321423" data-name="Trazado 1321423" d="M124.652,320.729c0-1.146,0-2.285,0-3.433a1.134,1.134,0,0,1,1.249-1.427,1.048,1.048,0,0,1,.812,1.168c.013,1.185,0,2.37,0,3.555a1.036,1.036,0,0,1-2.066.137" transform="translate(-59.271 -150.202)" fill="#ab76f2"/>
        <path id="Trazado_1321424" data-name="Trazado 1321424" d="M124.236,343.057c0-1.563,0-3.129.024-4.691a1.036,1.036,0,0,1,2.066.146c-.039,1.466-.023,2.94-.024,4.407a1.036,1.036,0,0,1-2.066.137" transform="translate(-59.081 -160.456)" fill="#ab76f2"/>
        <path id="Trazado_1321425" data-name="Trazado 1321425" d="M123.912,362.249c.232-1.231-.732-4.2.959-4.444,1.854.023.866,3.077,1.108,4.31a1.036,1.036,0,0,1-2.066.133" transform="translate(-58.895 -170.157)" fill="#ab76f2"/>
        <path id="Trazado_1321426" data-name="Trazado 1321426" d="M154.937,196.059c-1.291-.135-.908-1.647-.9-2.547a1.048,1.048,0,0,1,1.108-.962c1.3.138.9,1.645.894,2.551a1.044,1.044,0,0,1-1.1.958" transform="translate(-73.225 -91.567)" fill="#ab76f2"/>
        <path id="Trazado_1321427" data-name="Trazado 1321427" d="M155.115,212.581c-1.669-.286-.705-2.846-.9-4.048.109-1.027-.4-2.993,1.156-3,1.512.215.776,2.106.91,3.146-.261,1.207.662,3.819-1.169,3.9" transform="translate(-73.289 -97.743)" fill="#ab76f2"/>
        <path id="Trazado_1321428" data-name="Trazado 1321428" d="M154.22,235.913c0-1.6-.023-3.2-.028-4.808a1.035,1.035,0,0,1,2.066.024c.012,1.549.024,3.1.028,4.65a1.036,1.036,0,0,1-2.066.134" transform="translate(-73.327 -109.447)" fill="#ab76f2"/>
        <path id="Trazado_1321429" data-name="Trazado 1321429" d="M154.488,257.9c-.021-1.456-.087-2.92-.093-4.375a1.035,1.035,0,0,1,2.066.145c0,1.363.069,2.729.093,4.092a1.036,1.036,0,0,1-2.066.137" transform="translate(-73.424 -120.11)" fill="#ab76f2"/>
        <path id="Trazado_1321430" data-name="Trazado 1321430" d="M155.122,281.711c-1.667-.236-.707-3.116-.954-4.33-.062-.885-.149-2.292,1.1-2.244a1.018,1.018,0,0,1,.958.994c0,1.541.02,3.081,0,4.622a1.04,1.04,0,0,1-1.108.958" transform="translate(-73.289 -130.843)" fill="#ab76f2"/>
        <path id="Trazado_1321431" data-name="Trazado 1321431" d="M154.536,304.061c-.023-1.59-.048-3.184-.077-4.771a1.035,1.035,0,0,1,2.067.126c.009,1.5.052,3.005.076,4.508a1.036,1.036,0,0,1-2.066.137" transform="translate(-73.454 -141.873)" fill="#ab76f2"/>
        <path id="Trazado_1321432" data-name="Trazado 1321432" d="M154.363,325.2c-.027-1.286-.082-2.581-.093-3.866a1.033,1.033,0,0,1,2.062.017c0,1.233.064,2.479.1,3.715a1.036,1.036,0,0,1-2.066.133" transform="translate(-73.364 -152.354)" fill="#ab76f2"/>
        <path id="Trazado_1321433" data-name="Trazado 1321433" d="M98.375,149.965c-.061.578.17,2.135-.409,2.479a.534.534,0,0,1-.477.275c-3.89,0-7.784-.025-11.678-.037q-6.247-.018-12.49-.04l-12.7-.036q-6.253-.018-12.5-.04-6.411-.019-12.822-.041t-12.818-.04l-12.595-.036q-4.525-.018-9.057-.028a.489.489,0,0,1-.445-.307.447.447,0,0,1-.146-.19C-2.006,139.1,12.3,129.817,22.9,136.42a8.479,8.479,0,0,1,4.945-5.519,9.282,9.282,0,0,1,5.875-.4c0-.037-.008-.065-.012-.089-1.217-11.819,9.663-19.744,20.69-19.344,12.644-.008,25.377,9.5,27.588,22.182a18.254,18.254,0,0,1-.388,7.205c6.987-3.954,16.776.421,16.776,9.51" transform="translate(0 -52.812)" fill="#ab76f2"/>
      </g>
    </g>
  </g>
</svg>
