<svg id="Grupo_1188499" data-name="Grupo 1188499" xmlns="http://www.w3.org/2000/svg" xmlns:xlink="http://www.w3.org/1999/xlink" width="341.764" height="318.104" viewBox="0 0 341.764 318.104">
  <defs>
    <clipPath id="clip-path">
      <rect id="Rect치ngulo_411017" data-name="Rect치ngulo 411017" width="341.764" height="318.104" fill="none"/>
    </clipPath>
    <clipPath id="clip-path-3">
      <rect id="Rect치ngulo_411015" data-name="Rect치ngulo 411015" width="18.578" height="18.572" fill="none"/>
    </clipPath>
  </defs>
  <g id="Grupo_1188498" data-name="Grupo 1188498" clip-path="url(#clip-path)">
    <g id="Grupo_1188497" data-name="Grupo 1188497">
      <g id="Grupo_1188496" data-name="Grupo 1188496" clip-path="url(#clip-path)">
        <path id="Trazado_1321434" data-name="Trazado 1321434" d="M499.689,282.665a42.77,42.77,0,0,0-10.219-6.506,53.528,53.528,0,0,0-1.413-10.135c.085-.077.172-.152.256-.229,3.948-3.968,9.439-7.988,9.985-13.958-.208-2.73-1.951-5.056-3.236-7.386-2.588-4.176-6.2-9.145-11.633-9.07a43.277,43.277,0,0,0-12.13,2.735,56.368,56.368,0,0,0-7.344-5.515c-.467-.293-.946-.568-1.422-.847.042-5.481.892-11.918-2.814-16.372-2.078-1.785-4.955-2.194-7.508-2.932-4.788-1.123-10.854-2.083-14.641,1.814a42.967,42.967,0,0,0-6.581,10.372,52.042,52.042,0,0,0-5.289.7c-1.159.218-2.31.481-3.457.769-.177-.2-.349-.4-.526-.592-3.954-3.958-7.957-9.464-13.928-10.03-2.724.2-5.055,1.941-7.391,3.215-4.186,2.578-9.166,6.173-9.1,11.607a45.116,45.116,0,0,0,3.021,13.042c-.125.145-.255.284-.378.431a55.116,55.116,0,0,0-4.069,5.566c-.035.043-.063.089-.1.133-.9-.055-1.793-.114-2.69-.158-5.6,0-12.32-1.062-16.941,2.76-1.79,2.068-2.2,4.944-2.957,7.5-1.133,4.783-2.113,10.849,1.769,14.646a47.559,47.559,0,0,0,12.416,7.584,53.888,53.888,0,0,0,.941,7.256c-.68.537-1.363,1.069-2.038,1.615-4.17,3.731-9.894,7.422-10.788,13.347.045,2.735,1.653,5.161,2.8,7.563,2.34,4.322,5.652,9.494,11.076,9.737,5.23.041,10.362-1.369,15.355-2.95a54.827,54.827,0,0,0,5.651,4.539c-.068,1.133-.136,2.266-.187,3.4.015,5.592-1.026,12.32,2.811,16.931,2.073,1.78,4.954,2.189,7.507,2.932,4.788,1.123,10.854,2.083,14.641-1.815a45.716,45.716,0,0,0,7.188-11.674,53.089,53.089,0,0,0,10.169-1.14c.188.208.365.424.554.631,3.963,3.943,7.988,9.439,13.958,9.985,2.725-.208,5.051-1.956,7.381-3.236,4.176-2.588,9.145-6.2,9.07-11.633a42.455,42.455,0,0,0-2.578-11.688,55.643,55.643,0,0,0,6.233-8.012c.177.008.354.021.531.029,5.6-.015,12.325,1.026,16.931-2.811,1.784-2.073,2.189-4.954,2.932-7.508,1.122-4.782,2.083-10.854-1.815-14.641m-50.237,10.182c-.3.314-.6.632-.92.935q-.333.318-.682.622c-.005.005-.01.005-.015.01l-.122.106a22.581,22.581,0,0,1-1.886,1.416,21.572,21.572,0,0,1-2.351,1.335,22.972,22.972,0,0,1-2.239.91c0,.005-.02.01-.045.02l-.045.015a19.56,19.56,0,0,1-7.786.925,21.966,21.966,0,0,1-2.634-.394,22.894,22.894,0,0,1-2.553-.748,23.42,23.42,0,0,1-2.179-.95h-.005a.836.836,0,0,0-.1-.05,24.349,24.349,0,0,1-2.1-1.264c-.652-.46-1.325-.991-1.977-1.557a23.277,23.277,0,0,1-1.9-1.956c-.44-.531-.925-1.178-1.385-1.855a22.98,22.98,0,0,1-1.289-2.275l-.02-.04a.235.235,0,0,1-.025-.05,22.84,22.84,0,0,1-.875-2.154l-.02-.051a.327.327,0,0,0-.01-.035,21.753,21.753,0,0,1-.632-2.4,21.349,21.349,0,0,1-.349-2.781,21.821,21.821,0,0,1,.03-2.553,22.185,22.185,0,0,1,.425-2.826,20.946,20.946,0,0,1,.693-2.366l.015-.056s.01-.02.02-.045c.237-.627.5-1.244.793-1.845.066-.132.137-.263.192-.394.02-.035.035-.071.056-.106.03-.056.1-.192.177-.324.03-.061.066-.121.1-.182s.056-.1.081-.147l.015-.03c.03-.045.056-.091.086-.141.247-.425.516-.834.788-1.239l.016-.02.03-.045a19.768,19.768,0,0,1,3.4-3.731.2.2,0,0,0,.035-.035c.015-.01.025-.02.04-.03a23.746,23.746,0,0,1,1.926-1.426c.591-.379,1.3-.789,2.042-1.163a23.594,23.594,0,0,1,2.513-1.022,22.956,22.956,0,0,1,2.376-.627,19.806,19.806,0,0,1,5.45-.3,22.515,22.515,0,0,1,2.523.379,21.993,21.993,0,0,1,2.659.779c.738.283,1.451.6,2.158.945.036.015.066.035.1.051a24.082,24.082,0,0,1,2.249,1.375,21.923,21.923,0,0,1,1.785,1.421,21.325,21.325,0,0,1,1.749,1.775,23.748,23.748,0,0,1,1.577,2.088,22.246,22.246,0,0,1,1.259,2.22,19.634,19.634,0,0,1,1.607,4.828,24.717,24.717,0,0,1,.344,2.861,23.04,23.04,0,0,1-.04,2.331,21.913,21.913,0,0,1-.394,2.745,22.96,22.96,0,0,1-.7,2.457,23.448,23.448,0,0,1-1.087,2.477,19.438,19.438,0,0,1-2.947,4.2" transform="translate(-160.729 -92.818)" fill="#efa444"/>
        <path id="Trazado_1321435" data-name="Trazado 1321435" d="M455.848,342.147a41.981,41.981,0,0,1-22.619-6.774,41.4,41.4,0,0,1-11.491-11.133,41.8,41.8,0,0,1-7.073-30.09,41.337,41.337,0,0,1,4.99-14.484l.057-.1a41.365,41.365,0,0,1,3.272-4.9l.018-.024.091-.117.085-.108.182-.229.073-.091.095-.118.024-.027a42.376,42.376,0,0,1,11.513-9.841c.826-.484,1.672-.926,2.5-1.34A39.876,39.876,0,0,1,445,259.949c1.37-.364,2.75-.663,4.151-.91a40.313,40.313,0,0,1,4.135-.48,41.383,41.383,0,0,1,16.142,2.1,42.809,42.809,0,0,1,7.412,3.332,42.177,42.177,0,0,1,6.618,4.692l.081.076a5.472,5.472,0,0,1,.421.371c.043.038.086.077.13.114l.394.364c.232.213.46.425.682.642.48.47.95.95,1.416,1.441a38.811,38.811,0,0,1,2.644,3.114,37.334,37.334,0,0,1,2.27,3.261,41.777,41.777,0,0,1,5.794,15.151,41.863,41.863,0,0,1-.43,16.339,35.862,35.862,0,0,1-1.082,3.893c-.435,1.269-.895,2.522-1.446,3.746a41.952,41.952,0,0,1-3.944,7.017,43.183,43.183,0,0,1-5.243,6.163,42.1,42.1,0,0,1-6.375,5.061,41.267,41.267,0,0,1-14.934,5.975,42.9,42.9,0,0,1-7.768.734h-.219m2.976-2.036a46.461,46.461,0,0,0,5.272-.727,39.527,39.527,0,0,0,9.848-3.415c1.419-.731,2.786-1.524,4.124-2.388a40.187,40.187,0,0,0,7.688-6.632,39.9,39.9,0,0,0,7.958-13.467,45.436,45.436,0,0,0,1.385-4.945c.007-.035.014-.071.021-.105,0-.007,0-.014,0-.009a47.814,47.814,0,0,0,.711-4.967c0-.024,0-.047,0-.071l0-.028c.062-.907.1-1.809.115-2.716.015-.986-.03-1.967-.085-2.937a39.773,39.773,0,0,0-2.187-10.675c-.548-1.5-1.164-2.963-1.857-4.4a46.583,46.583,0,0,0-2.7-4.644,48.08,48.08,0,0,0-2.953-3.847l-.075-.085-.006-.006,0,0a40.849,40.849,0,0,0-3.361-3.407c-.132-.118-.286-.234-.413-.369l-.042-.035a47.333,47.333,0,0,0-3.916-3.012c-1.359-.9-2.758-1.719-4.127-2.438l-.09-.044-.006,0a45.935,45.935,0,0,0-5.075-2.152h0a45.025,45.025,0,0,0-5.1-1.391,39.465,39.465,0,0,0-10.513-.71c-.887.065-1.766.153-2.649.265-.92.112-1.83.28-2.74.459a39.577,39.577,0,0,0-9.585,3.268c-.137.067-.274.134-.39.2a40.317,40.317,0,0,0-4.064,2.356,43.98,43.98,0,0,0-4.257,3.251,39.484,39.484,0,0,0-6.361,7.075l-.114.163-.092.131-.027.039c-.035.05-.069.1-.094.139a42.518,42.518,0,0,0-2.626,4.44l0,.01q-.291.582-.565,1.173-.741,1.6-1.355,3.269l-.033.088c-.017.048-.035.1-.044.127a40.082,40.082,0,0,0-2.219,10.717,39.864,39.864,0,0,0,.723,10.648l0,.018,0,.016a44.423,44.423,0,0,0,1.363,4.986,45.748,45.748,0,0,0,2.073,4.914,45.22,45.22,0,0,0,2.53,4.326,46.676,46.676,0,0,0,2.96,3.874,43.774,43.774,0,0,0,3.833,3.852,39.483,39.483,0,0,0,8.3,5.617l.071.035.025.012a47.163,47.163,0,0,0,4.459,1.914,39.961,39.961,0,0,0,16.247,2.246" transform="translate(-181.817 -113.446)" fill="#cf842f"/>
        <path id="Trazado_1321436" data-name="Trazado 1321436" d="M463.457,340.164a32.642,32.642,0,0,1-17.589-5.268,32.2,32.2,0,0,1-8.936-8.657,32.514,32.514,0,0,1-5.5-23.4,32.138,32.138,0,0,1,3.88-11.263l.044-.076a32.251,32.251,0,0,1,2.544-3.812l.014-.018.071-.091.066-.084.141-.178.057-.071.073-.092.019-.021a32.973,32.973,0,0,1,8.953-7.653c.643-.376,1.3-.72,1.942-1.042a31.02,31.02,0,0,1,5.783-2.194c1.065-.283,2.139-.515,3.227-.707a31.327,31.327,0,0,1,3.216-.374,32.188,32.188,0,0,1,12.553,1.635,33.25,33.25,0,0,1,5.764,2.591,32.785,32.785,0,0,1,5.146,3.648l.063.059a4.092,4.092,0,0,1,.327.288l.1.089.306.283c.181.165.358.33.531.5q.56.548,1.1,1.12a30.04,30.04,0,0,1,2.056,2.422,28.853,28.853,0,0,1,1.765,2.536,32.479,32.479,0,0,1,4.505,11.782,32.555,32.555,0,0,1-.334,12.706,27.891,27.891,0,0,1-.842,3.027c-.338.986-.7,1.961-1.124,2.913a32.608,32.608,0,0,1-3.066,5.457,33.6,33.6,0,0,1-4.077,4.792,32.739,32.739,0,0,1-4.958,3.936,32.081,32.081,0,0,1-11.613,4.647,33.4,33.4,0,0,1-6.04.571h-.171m2.314-1.583a30.953,30.953,0,0,0,11.758-3.22c1.1-.568,2.166-1.185,3.207-1.857a31.276,31.276,0,0,0,5.978-5.158,31.032,31.032,0,0,0,6.189-10.472,35.326,35.326,0,0,0,1.077-3.845l.016-.082c0-.006,0-.011,0-.007a37.11,37.11,0,0,0,.553-3.861c0-.019,0-.038,0-.056l0-.022c.048-.705.074-1.407.089-2.112.012-.766-.024-1.529-.066-2.284a30.9,30.9,0,0,0-1.7-8.3,37.079,37.079,0,0,0-1.444-3.424,36.239,36.239,0,0,0-2.1-3.612,37.538,37.538,0,0,0-2.3-2.992l-.059-.066,0-.005,0,0a31.858,31.858,0,0,0-2.613-2.649c-.1-.092-.222-.182-.322-.287l-.032-.028a36.99,36.99,0,0,0-3.045-2.341c-1.057-.7-2.144-1.337-3.209-1.9l-.07-.035-.005,0a35.676,35.676,0,0,0-3.947-1.673h0a35.027,35.027,0,0,0-3.968-1.082,30.719,30.719,0,0,0-8.176-.552c-.69.05-1.373.119-2.06.206-.715.087-1.423.218-2.131.357a35.226,35.226,0,0,0-3.829,1.039,35.765,35.765,0,0,0-3.624,1.5c-.107.052-.213.1-.3.153a31.49,31.49,0,0,0-3.161,1.832,34.377,34.377,0,0,0-3.31,2.528,33.673,33.673,0,0,0-2.736,2.709,33.329,33.329,0,0,0-2.211,2.793l-.089.127-.071.1-.021.03c-.027.039-.054.078-.073.108a33.028,33.028,0,0,0-2.042,3.453l0,.007q-.226.453-.439.912-.577,1.248-1.054,2.542l-.025.068c-.014.038-.028.075-.035.1a31.137,31.137,0,0,0-1.725,8.334,31.008,31.008,0,0,0,.562,8.28l0,.014,0,.012a34.609,34.609,0,0,0,1.06,3.877,35.609,35.609,0,0,0,1.612,3.821,35,35,0,0,0,1.968,3.364,35.983,35.983,0,0,0,2.3,3.013,33.942,33.942,0,0,0,2.98,3,30.707,30.707,0,0,0,6.452,4.368l.055.027a.077.077,0,0,0,.02.01,36.533,36.533,0,0,0,3.467,1.489,31.077,31.077,0,0,0,12.635,1.747" transform="translate(-189.219 -120.744)" fill="#cf842f"/>
        <path id="Trazado_1321437" data-name="Trazado 1321437" d="M73.958,58.151a19.19,19.19,0,0,0,.034-1.95,20.651,20.651,0,0,0-.288-2.394,16.4,16.4,0,0,0-1.345-4.039,18.556,18.556,0,0,0-1.053-1.857,19.9,19.9,0,0,0-1.319-1.747,18,18,0,0,0-1.464-1.484,18.39,18.39,0,0,0-1.493-1.189,20.1,20.1,0,0,0-1.882-1.15c-.03-.012-.055-.03-.085-.042-.592-.292-1.188-.554-1.805-.791a18.453,18.453,0,0,0-2.225-.651,18.858,18.858,0,0,0-2.111-.317,16.628,16.628,0,0,0-4.559.254,19.112,19.112,0,0,0-1.987.525,19.583,19.583,0,0,0-2.1.854c-.617.313-1.214.655-1.708.972a19.867,19.867,0,0,0-1.611,1.193c-.013.008-.021.017-.034.025a.183.183,0,0,1-.03.03,16.521,16.521,0,0,0-2.842,3.121l-.025.038-.012.017c-.228.338-.453.681-.66,1.036-.026.042-.047.08-.072.118l-.012.025c-.021.038-.047.08-.068.123s-.059.1-.084.152c-.063.11-.123.224-.148.27-.017.03-.03.059-.047.089-.047.11-.106.22-.161.33-.245.5-.465,1.019-.664,1.543-.008.021-.017.038-.017.038l-.013.047a17.687,17.687,0,0,0-.58,1.979,18.647,18.647,0,0,0-.355,2.364,18.336,18.336,0,0,0-.025,2.136,17.842,17.842,0,0,0,.292,2.326,18.18,18.18,0,0,0,.529,2.009.178.178,0,0,1,.008.03l.017.042a19.03,19.03,0,0,0,.732,1.8.2.2,0,0,0,.021.042l.017.034a19.006,19.006,0,0,0,1.078,1.9c.385.567.791,1.108,1.159,1.552a19.45,19.45,0,0,0,1.59,1.637c.546.474,1.108.918,1.654,1.3a20.283,20.283,0,0,0,1.755,1.057.785.785,0,0,1,.08.042h0a19.581,19.581,0,0,0,1.822.8A19.174,19.174,0,0,0,54,73.02a18.5,18.5,0,0,0,2.2.33,16.372,16.372,0,0,0,4.293-.207,19.847,19.847,0,0,0,2.221-.567l.038-.013c.021-.008.038-.013.038-.017a19.242,19.242,0,0,0,1.874-.761,18.067,18.067,0,0,0,1.967-1.117,18.964,18.964,0,0,0,1.578-1.184l.1-.089s.008,0,.012-.008q.292-.253.571-.52c.267-.254.52-.52.77-.783A18.643,18.643,0,0,0,71,66.436a18.882,18.882,0,0,0,1.133-1.861,19.593,19.593,0,0,0,.909-2.073,19.317,19.317,0,0,0,.588-2.055,18.358,18.358,0,0,0,.33-2.3m37.733,1.417c3.261,3.168,2.457,8.247,1.518,12.248-.622,2.136-.96,4.546-2.453,6.281-3.853,3.21-9.482,2.338-14.164,2.351-.148-.008-.292-.013-.439-.021a46.2,46.2,0,0,1-5.215,6.7A35.52,35.52,0,0,1,93.091,96.9c.063,4.542-4.094,7.566-7.587,9.731-1.95,1.071-3.895,2.534-6.174,2.707-5-.457-8.361-5.054-11.677-8.353-.152-.169-.309-.338-.457-.507a44.34,44.34,0,0,1-8.517.952,38.178,38.178,0,0,1-6.01,9.748c-3.168,3.261-8.243,2.457-12.248,1.518-2.136-.622-4.546-.964-6.281-2.453-3.21-3.857-2.339-9.486-2.351-14.164.042-.952.093-1.9.157-2.846a45.1,45.1,0,0,1-4.72-3.793c-4.178,1.324-8.475,2.5-12.852,2.465-4.538-.2-7.308-4.529-9.266-8.145-.955-2.009-2.3-4.039-2.339-6.327.748-4.957,5.536-8.044,9.025-11.165q.843-.685,1.7-1.349a45.162,45.162,0,0,1-.791-6.077A39.83,39.83,0,0,1,2.323,52.5C-.925,49.328-.1,44.253.843,40.252c.63-2.135.977-4.542,2.474-6.272,3.865-3.2,9.49-2.309,14.172-2.309.748.038,1.5.076,2.25.127a1.008,1.008,0,0,1,.081-.105,46.149,46.149,0,0,1,3.4-4.657c.1-.118.2-.241.309-.359a37.8,37.8,0,0,1-2.521-10.912c-.05-4.547,4.115-7.554,7.617-9.71,1.954-1.066,3.9-2.525,6.183-2.69,5,.474,8.345,5.08,11.652,8.391.148.16.292.321.435.486.96-.241,1.928-.453,2.9-.635a43.292,43.292,0,0,1,4.424-.588,35.955,35.955,0,0,1,5.507-8.674C62.894-.915,67.97-.112,71.975.827c2.136.617,4.542.96,6.281,2.453,3.1,3.722,2.39,9.105,2.356,13.685.4.233.8.474,1.188.719a47.1,47.1,0,0,1,6.149,4.606,36.176,36.176,0,0,1,10.142-2.28c4.542-.063,7.566,4.094,9.732,7.587,1.074,1.95,2.533,3.895,2.707,6.179-.457,4.995-5.05,8.357-8.353,11.677-.072.063-.144.131-.216.195a44.609,44.609,0,0,1,1.188,8.475,35.9,35.9,0,0,1,8.543,5.443" transform="translate(0 0)" fill="#7985bc"/>
        <path id="Trazado_1321438" data-name="Trazado 1321438" d="M107.473,80.666c.008-.638-.021-1.278-.055-1.908a25.751,25.751,0,0,0-1.426-6.949c-.355-.977-.757-1.924-1.205-2.863a26.033,26.033,0,0,0-3.675-5.523c-.017-.017-.034-.038-.051-.055a25.79,25.79,0,0,0-2.186-2.216c-.085-.08-.186-.152-.267-.241a.1.1,0,0,1-.03-.025,31.6,31.6,0,0,0-2.546-1.958c-.884-.583-1.8-1.117-2.686-1.586a.341.341,0,0,1-.059-.03h0a29.524,29.524,0,0,0-3.3-1.4,28.947,28.947,0,0,0-3.316-.9,25.677,25.677,0,0,0-6.839-.461c-.579.042-1.15.1-1.725.173-.6.072-1.188.182-1.781.3a29.709,29.709,0,0,0-3.2.871,30.052,30.052,0,0,0-3.033,1.256c-.089.042-.177.089-.254.127A26.418,26.418,0,0,0,67.185,58.8a29.8,29.8,0,0,0-2.765,2.115,25.845,25.845,0,0,0-4.141,4.605c-.025.034-.05.072-.072.106s-.042.055-.063.085a.094.094,0,0,1-.017.025c-.021.034-.043.068-.059.089a27.684,27.684,0,0,0-1.708,2.889l0,.008c-.122.254-.245.507-.364.761-.321.7-.617,1.4-.884,2.127-.008.021-.013.038-.021.059s-.021.059-.03.08a28.268,28.268,0,0,0-.977,3.523,27.874,27.874,0,0,0-.465,3.451,26.063,26.063,0,0,0,.469,6.923.015.015,0,0,0,0,.013v.013a25.779,25.779,0,0,0,2.238,6.437,28.914,28.914,0,0,0,1.645,2.817,30.482,30.482,0,0,0,1.924,2.52,28.421,28.421,0,0,0,2.5,2.5,25.489,25.489,0,0,0,5.4,3.654.5.5,0,0,0,.047.025l.017.008a31.432,31.432,0,0,0,2.9,1.243,26.319,26.319,0,0,0,6.97,1.463,30.169,30.169,0,0,0,3.6,0,31.267,31.267,0,0,0,3.43-.474,25.712,25.712,0,0,0,6.4-2.221c.926-.477,1.814-.994,2.686-1.556a30.51,30.51,0,0,0,2.707-2.055,31.312,31.312,0,0,0,2.292-2.258,29.1,29.1,0,0,0,2.212-2.838,29.75,29.75,0,0,0,1.59-2.7,29.358,29.358,0,0,0,1.375-3.227,28.07,28.07,0,0,0,.9-3.214.408.408,0,0,0,.017-.067v-.008a31.367,31.367,0,0,0,.461-3.231c0-.013,0-.03,0-.047v-.017c.042-.588.063-1.176.076-1.768m.867-4.826a27.224,27.224,0,0,1-.279,10.628,22.862,22.862,0,0,1-.7,2.533c-.283.825-.583,1.641-.943,2.436A26.993,26.993,0,0,1,103.853,96a27.767,27.767,0,0,1-3.413,4.009,27.247,27.247,0,0,1-4.145,3.295,26.823,26.823,0,0,1-9.719,3.887,27.757,27.757,0,0,1-5.05.477h-.144a27.053,27.053,0,0,1-5.024-.5,27.449,27.449,0,0,1-9.689-3.908,26.912,26.912,0,0,1-7.477-7.245,27.2,27.2,0,0,1-4.6-19.573,26.838,26.838,0,0,1,3.248-9.423.464.464,0,0,1,.034-.063A26.85,26.85,0,0,1,60,63.771a.022.022,0,0,1,.008-.017c.021-.026.043-.051.059-.076a.873.873,0,0,0,.055-.072c.042-.047.08-.1.122-.148A.549.549,0,0,1,60.3,63.4c.021-.026.038-.051.059-.076a.053.053,0,0,1,.017-.017,27.536,27.536,0,0,1,7.49-6.4c.537-.317,1.087-.6,1.624-.871A26.011,26.011,0,0,1,74.324,54.2c.893-.237,1.789-.431,2.7-.592a27.239,27.239,0,0,1,13.2,1.057,27.854,27.854,0,0,1,4.821,2.166,27.335,27.335,0,0,1,4.306,3.053l.05.047c.089.08.19.157.275.241.025.025.055.05.085.076.085.08.169.157.254.237.153.14.3.275.444.419.313.3.622.618.922.935a26.1,26.1,0,0,1,1.721,2.026,25.409,25.409,0,0,1,1.476,2.123,27.2,27.2,0,0,1,3.768,9.858" transform="translate(-23.834 -23.362)" fill="#4c60b0"/>
        <path id="Trazado_1321439" data-name="Trazado 1321439" d="M108.568,74.6c.013-.825-.025-1.645-.072-2.453a33.493,33.493,0,0,0-1.827-8.932c-.461-1.256-.977-2.479-1.556-3.684a39.574,39.574,0,0,0-2.254-3.886c-.778-1.125-1.611-2.208-2.47-3.219-.021-.021-.043-.046-.064-.067v0a35.125,35.125,0,0,0-2.812-2.85c-.11-.1-.237-.195-.347-.3l-.034-.034a38.82,38.82,0,0,0-3.277-2.516c-1.134-.749-2.305-1.438-3.451-2.043-.026-.013-.051-.021-.076-.034l0,0a38.092,38.092,0,0,0-4.242-1.8,37.529,37.529,0,0,0-4.267-1.167,39.635,39.635,0,0,0-4.326-.588,38.46,38.46,0,0,0-4.471,0c-.74.054-1.476.127-2.216.219-.77.1-1.531.237-2.292.385a38.434,38.434,0,0,0-4.119,1.117,37.667,37.667,0,0,0-3.9,1.62c-.114.055-.228.11-.326.16a33.748,33.748,0,0,0-3.4,1.971A37.77,37.77,0,0,0,53.2,49.206a36.021,36.021,0,0,0-2.943,2.918,35.25,35.25,0,0,0-2.377,3l-.1.135c-.025.038-.05.076-.076.11a.127.127,0,0,0-.021.034l-.081.114a36.252,36.252,0,0,0-2.195,3.718l0,0c-.161.325-.321.655-.474.981-.41.9-.791,1.805-1.133,2.736-.008.025-.017.05-.025.072-.017.042-.03.085-.038.105A33.44,33.44,0,0,0,41.881,72.1a33.408,33.408,0,0,0,.6,8.907c0,.008,0,.012,0,.017v.013a37.373,37.373,0,0,0,1.142,4.17,33.411,33.411,0,0,0,3.848,7.731,38.14,38.14,0,0,0,2.478,3.24A36.628,36.628,0,0,0,53.165,99.4a38.249,38.249,0,0,0,3.075,2.4,36.687,36.687,0,0,0,3.866,2.3.446.446,0,0,0,.059.03l.021.012a39.09,39.09,0,0,0,3.73,1.6,33.753,33.753,0,0,0,8.961,1.882,38.411,38.411,0,0,0,4.631,0,38.766,38.766,0,0,0,4.412-.609,33.386,33.386,0,0,0,8.238-2.855q1.777-.92,3.447-2a37.9,37.9,0,0,0,3.481-2.648,39.025,39.025,0,0,0,2.952-2.9,36.971,36.971,0,0,0,2.842-3.65,33.486,33.486,0,0,0,3.815-7.617,38.077,38.077,0,0,0,1.159-4.136c0-.03.013-.059.017-.085v-.008a39.1,39.1,0,0,0,.6-4.157c0-.017,0-.038,0-.059v-.021c.05-.761.08-1.514.1-2.275m1.117-6.209a35.013,35.013,0,0,1-.36,13.669,29.912,29.912,0,0,1-.9,3.256c-.364,1.062-.748,2.11-1.21,3.134a35.076,35.076,0,0,1-3.3,5.87,36.181,36.181,0,0,1-4.386,5.156,35.227,35.227,0,0,1-5.333,4.233,34.519,34.519,0,0,1-12.493,5,35.673,35.673,0,0,1-6.5.618c-.063,0-.122,0-.186,0A35.111,35.111,0,0,1,56.1,103.657a34.629,34.629,0,0,1-9.613-9.312,34.973,34.973,0,0,1-5.916-25.173A34.583,34.583,0,0,1,44.74,57.055a.845.845,0,0,0,.047-.08,35.431,35.431,0,0,1,2.736-4.1c.008,0,.012-.013.017-.017l.076-.1c.026-.03.047-.059.072-.089l.152-.19c.021-.025.038-.05.059-.076s.054-.068.08-.1c.008,0,.012-.013.021-.021a35.473,35.473,0,0,1,9.63-8.234c.694-.4,1.4-.774,2.089-1.121a33.419,33.419,0,0,1,6.221-2.36c1.146-.3,2.3-.554,3.472-.761a33.846,33.846,0,0,1,3.46-.4,34.623,34.623,0,0,1,13.5,1.759,35.779,35.779,0,0,1,6.2,2.787,35.223,35.223,0,0,1,5.536,3.925l.068.063a4.224,4.224,0,0,1,.351.313c.038.03.072.064.11.093l.33.3c.195.178.385.355.571.537.4.393.8.8,1.184,1.206a32.357,32.357,0,0,1,2.212,2.605,30.989,30.989,0,0,1,1.9,2.728,34.947,34.947,0,0,1,4.847,12.675" transform="translate(-17.642 -17.255)" fill="#4c60b0"/>
        <path id="Trazado_1321440" data-name="Trazado 1321440" d="M123.241,369.006a22.066,22.066,0,0,0-.977-2.019,23.82,23.82,0,0,0-1.538-2.307,18.908,18.908,0,0,0-3.477-3.447,21.319,21.319,0,0,0-2.045-1.358,22.849,22.849,0,0,0-2.262-1.108,20.772,20.772,0,0,0-2.272-.764,21.311,21.311,0,0,0-2.149-.444,23.085,23.085,0,0,0-2.529-.2c-.037,0-.072,0-.109,0-.759.008-1.507.048-2.264.126a21.206,21.206,0,0,0-2.621.486,21.734,21.734,0,0,0-2.33.77,19.105,19.105,0,0,0-4.547,2.628,22.093,22.093,0,0,0-1.767,1.57,22.649,22.649,0,0,0-1.713,1.968c-.471.642-.9,1.3-1.248,1.886a22.785,22.785,0,0,0-1.034,2.06c-.009.016-.013.029-.022.044a.189.189,0,0,1-.015.046,18.977,18.977,0,0,0-1.3,4.679c0,.017,0,.035-.006.052l0,.024c-.058.466-.111.934-.139,1.406,0,.057-.006.107-.012.159v.033c0,.05-.006.107-.006.161s-.008.135-.007.2c-.008.146-.01.293-.012.355,0,.039,0,.076,0,.116.009.137.006.281.006.422.01.644.052,1.288.12,1.929,0,.026,0,.048,0,.048l.011.054a20.343,20.343,0,0,0,.433,2.332,21.32,21.32,0,0,0,.863,2.611,20.889,20.889,0,0,0,1.083,2.2,20.454,20.454,0,0,0,1.507,2.236,20.941,20.941,0,0,0,1.586,1.787c.008.007.013.015.024.026l.039.035a21.906,21.906,0,0,0,1.687,1.469.219.219,0,0,0,.043.032l.035.026a21.849,21.849,0,0,0,2.1,1.393c.689.382,1.387.727,2,.991a22.354,22.354,0,0,0,2.482.854c.806.2,1.614.366,2.374.478a23.537,23.537,0,0,0,2.35.174.736.736,0,0,1,.1,0l0,0a22.542,22.542,0,0,0,2.284-.131,22.024,22.024,0,0,0,2.517-.467,21.256,21.256,0,0,0,2.433-.806,18.814,18.814,0,0,0,6.282-4.177l.033-.033c.017-.02.033-.033.03-.037a22.18,22.18,0,0,0,1.528-1.754,20.717,20.717,0,0,0,1.438-2.167,21.783,21.783,0,0,0,1-2.034l.058-.144c0-.007.007-.009.009-.016q.167-.412.316-.83c.141-.4.264-.8.383-1.2a18.708,18.708,0,0,0,.707-4.883,22.461,22.461,0,0,0-.143-2.6,22,22,0,0,0-.465-2.414,20.885,20.885,0,0,0-.854-2.528m39.459-18.14c4.991,1.557,6.8,7.188,7.918,11.781.471,2.515,1.376,5.165.744,7.719-2.287,5.3-8.516,7.324-13.315,9.768-.156.068-.306.139-.462.207a53.121,53.121,0,0,1-1.873,9.582A40.885,40.885,0,0,1,163,398.84c2.423,4.629-.273,9.89-2.733,13.927-1.445,2.111-2.682,4.623-4.931,5.984-5.363,2.125-11.2-.845-16.321-2.508-.244-.094-.493-.187-.732-.283a51.036,51.036,0,0,1-8.247,5.4,43.909,43.909,0,0,1-1.105,13.125c-1.558,4.991-7.183,6.8-11.781,7.918-2.514.471-5.166,1.372-7.719.744-5.3-2.291-7.326-8.52-9.768-13.314q-.677-1.5-1.318-3a51.8,51.8,0,0,1-6.814-1.443c-3.6,3.529-7.4,6.966-11.909,9.2-4.763,2.148-9.852-.853-13.739-3.548-2.024-1.565-4.459-2.95-5.686-5.278-1.805-5.475,1.5-11.13,3.464-16.145.34-.761.689-1.515,1.04-2.265a51.924,51.924,0,0,1-3.968-5.826,45.813,45.813,0,0,1-13.938-1.119c-4.983-1.573-6.776-7.207-7.881-11.805-.462-2.519-1.356-5.168-.718-7.721,2.307-5.289,8.54-7.3,13.345-9.729.788-.35,1.58-.7,2.374-1.039a1.2,1.2,0,0,1,.028-.15,53.1,53.1,0,0,1,1.076-6.546c.043-.174.083-.353.13-.53A43.477,43.477,0,0,1,46.9,353c-2.413-4.639.3-9.889,2.774-13.921,1.451-2.108,2.695-4.618,4.949-5.971,5.372-2.108,11.2.879,16.315,2.56.235.088.466.178.7.273q1.29-1.119,2.644-2.156a49.643,49.643,0,0,1,4.234-2.9,41.37,41.37,0,0,1,1.147-11.762c1.558-4.991,7.183-6.8,11.781-7.918,2.512-.475,5.16-1.373,7.719-.744,5.114,2.21,7.18,8.1,9.524,12.822.534.03,1.062.073,1.593.121a54.152,54.152,0,0,1,8.7,1.533,41.625,41.625,0,0,1,9.224-7.606c4.628-2.424,9.89.273,13.927,2.733,2.115,1.443,4.622,2.682,5.986,4.936,2.125,5.363-.843,11.2-2.508,16.321-.041.1-.08.209-.121.311a51.332,51.332,0,0,1,5.621,8.081,41.288,41.288,0,0,1,11.594,1.15" transform="translate(-16.668 -136.18)" fill="#ab76f2"/>
        <path id="Trazado_1321441" data-name="Trazado 1321441" d="M161.451,390.349c-.323-.66-.684-1.3-1.047-1.929a34.067,34.067,0,0,0-2.3-3.359,34.429,34.429,0,0,0-2.767-3.033c-.872-.818-1.776-1.582-2.723-2.312a29.956,29.956,0,0,0-6.64-3.76c-.026-.008-.054-.021-.08-.03a29.717,29.717,0,0,0-3.395-1.139c-.128-.039-.27-.059-.4-.109a.113.113,0,0,1-.044-.011,36.5,36.5,0,0,0-3.63-.688c-1.21-.14-2.424-.212-3.58-.233a.5.5,0,0,1-.076,0l0,0a33.757,33.757,0,0,0-4.117.278,33.2,33.2,0,0,0-3.872.793,29.532,29.532,0,0,0-7.258,3.078c-.572.344-1.13.7-1.68,1.074-.575.383-1.125.8-1.674,1.228a34.2,34.2,0,0,0-2.833,2.557,34.616,34.616,0,0,0-2.46,2.864c-.069.09-.136.183-.194.262a30.247,30.247,0,0,0-1.922,2.946,34.238,34.238,0,0,0-1.74,3.607,29.7,29.7,0,0,0-1.858,6.876c-.008.048-.015.1-.019.146s-.015.078-.021.119a.1.1,0,0,1,0,.035,1.094,1.094,0,0,1-.015.122,31.853,31.853,0,0,0-.253,3.851v.011c.006.324.012.648.022.97.033.883.1,1.761.2,2.642,0,.026.007.045.009.072s.009.072.011.1a32.517,32.517,0,0,0,.827,4.123,32.062,32.062,0,0,0,1.315,3.783,29.982,29.982,0,0,0,4.077,6.861.015.015,0,0,0,.011.011l.007.013a29.676,29.676,0,0,0,5.639,5.444,33.269,33.269,0,0,0,3.151,2.036,35.143,35.143,0,0,0,3.283,1.587,32.743,32.743,0,0,0,3.861,1.274,29.348,29.348,0,0,0,7.435.948c.017,0,.039,0,.061,0h.022a36.088,36.088,0,0,0,3.618-.228,30.284,30.284,0,0,0,7.913-2.117,34.6,34.6,0,0,0,3.7-1.871,35.934,35.934,0,0,0,3.274-2.267,29.54,29.54,0,0,0,5.418-5.6c.7-.971,1.346-1.962,1.948-2.992a35.139,35.139,0,0,0,1.711-3.515,35.952,35.952,0,0,0,1.179-3.508,33.381,33.381,0,0,0,.8-4.061,29.38,29.38,0,0,0-.034-7.62,32.153,32.153,0,0,0-.745-3.766.444.444,0,0,0-.018-.079l0-.008a35.937,35.937,0,0,0-1.205-3.555c-.006-.013-.011-.033-.02-.05l-.009-.017c-.261-.625-.545-1.239-.84-1.854m-1.616-5.4A31.314,31.314,0,0,1,165.067,396a26.427,26.427,0,0,1,.6,2.965c.137.994.253,1.987.3,2.989a31.067,31.067,0,0,1-.26,6.014,31.976,31.976,0,0,1-1.421,5.887,31.383,31.383,0,0,1-2.543,5.533,30.857,30.857,0,0,1-7.956,9.035,31.894,31.894,0,0,1-4.934,3.113l-.148.075a31.128,31.128,0,0,1-5.415,2.1,31.567,31.567,0,0,1-11.972,1.021,30.965,30.965,0,0,1-11.436-3.552,31.285,31.285,0,0,1-14.886-17.7,30.891,30.891,0,0,1-1.56-11.357.516.516,0,0,1,0-.082,30.809,30.809,0,0,1,.531-4.379.025.025,0,0,1,0-.022c.008-.037.017-.074.021-.109a1.021,1.021,0,0,0,.019-.1c.019-.07.032-.141.049-.215a.73.73,0,0,1,.017-.085c.008-.037.013-.072.021-.109a.086.086,0,0,1,.008-.026,31.682,31.682,0,0,1,4.362-10.46c.387-.6.8-1.18,1.214-1.738a29.949,29.949,0,0,1,4.012-4.4c.793-.706,1.612-1.372,2.462-2.009a31.334,31.334,0,0,1,14.09-5.767,32.008,32.008,0,0,1,6.072-.281,31.481,31.481,0,0,1,6,.9l.077.021c.132.036.276.062.407.1.039.013.083.024.127.034.129.038.255.072.383.111.229.064.451.126.673.2.479.15.958.311,1.431.48a29.99,29.99,0,0,1,2.818,1.185,29.026,29.026,0,0,1,2.617,1.413,31.28,31.28,0,0,1,8.987,8.16" transform="translate(-45.382 -163.418)" fill="#83327a"/>
        <path id="Trazado_1321442" data-name="Trazado 1321442" d="M161.83,379.644c-.415-.853-.88-1.675-1.348-2.48a38.526,38.526,0,0,0-6.513-8.218c-1.125-1.05-2.289-2.036-3.51-2.972a45.367,45.367,0,0,0-4.331-2.818c-1.383-.75-2.8-1.429-4.206-2.02-.033-.011-.067-.026-.1-.036l0,0a40.577,40.577,0,0,0-4.367-1.465c-.163-.043-.344-.076-.514-.132l-.052-.017a44.656,44.656,0,0,0-4.67-.88c-1.552-.18-3.112-.279-4.6-.3-.033,0-.063.005-.1.005l-.007,0a43.753,43.753,0,0,0-5.286.359,43.045,43.045,0,0,0-4.986,1.018,45.569,45.569,0,0,0-4.745,1.643,44.145,44.145,0,0,0-4.59,2.317c-.731.44-1.449.9-2.16,1.376-.739.5-1.448,1.038-2.152,1.586a44.423,44.423,0,0,0-3.648,3.284,43.466,43.466,0,0,0-3.16,3.687c-.089.116-.177.232-.251.334a38.953,38.953,0,0,0-2.466,3.788,43.551,43.551,0,0,0-2.243,4.64,41.568,41.568,0,0,0-1.505,4.523,40.505,40.505,0,0,0-.88,4.316c-.011.066-.019.125-.03.19s-.012.1-.021.153a.164.164,0,0,0,0,.045c-.008.059-.017.118-.023.159a41.579,41.579,0,0,0-.322,4.955l0,.006c0,.418.011.84.024,1.253.044,1.133.126,2.264.258,3.4,0,.03.009.061.011.087,0,.052.013.1.016.128A38.432,38.432,0,0,0,92.1,411.708a42.459,42.459,0,0,0,2.334,4.6,43.087,43.087,0,0,0,2.911,4.224c0,.008.011.011.013.015l.006.013a43.088,43.088,0,0,0,3.337,3.687,38.476,38.476,0,0,0,7.964,5.935,43.841,43.841,0,0,0,4.226,2.038,42.127,42.127,0,0,0,4.963,1.643,43.727,43.727,0,0,0,4.4.868,42.071,42.071,0,0,0,5.16.35.429.429,0,0,0,.076,0l.028,0a45.034,45.034,0,0,0,4.659-.3,38.842,38.842,0,0,0,10.174-2.722,38.546,38.546,0,0,0,12.574-8.581,44.281,44.281,0,0,0,3.361-3.947c.9-1.244,1.728-2.521,2.5-3.843a43.667,43.667,0,0,0,2.2-4.524,44.9,44.9,0,0,0,1.523-4.51,42.384,42.384,0,0,0,1.021-5.221,38.436,38.436,0,0,0-.04-9.8,43.571,43.571,0,0,0-.958-4.846c-.011-.033-.018-.067-.027-.1l0-.009a45.1,45.1,0,0,0-1.547-4.576c-.009-.017-.016-.041-.027-.063l-.011-.022c-.343-.807-.7-1.6-1.082-2.386m-2.078-6.951a40.264,40.264,0,0,1,6.729,14.214,34.4,34.4,0,0,1,.762,3.812c.178,1.278.328,2.555.386,3.844a40.324,40.324,0,0,1-.337,7.738,41.574,41.574,0,0,1-1.823,7.568,40.5,40.5,0,0,1-3.275,7.114A39.713,39.713,0,0,1,151.969,428.6a41.076,41.076,0,0,1-6.346,4.007c-.065.033-.126.064-.193.093a40.385,40.385,0,0,1-22.361,4.009,39.822,39.822,0,0,1-14.7-4.565,40.226,40.226,0,0,1-19.143-22.761,39.773,39.773,0,0,1-2.008-14.6,1.007,1.007,0,0,0,.006-.107,40.768,40.768,0,0,1,.678-5.631.083.083,0,0,0,.008-.026l.025-.144c.011-.043.017-.085.028-.128l.057-.274c.008-.037.013-.072.021-.109s.021-.1.03-.146a.13.13,0,0,0,.011-.033,40.8,40.8,0,0,1,5.607-13.451c.5-.773,1.035-1.522,1.562-2.235a38.437,38.437,0,0,1,5.159-5.652c1.018-.908,2.074-1.763,3.168-2.585a38.952,38.952,0,0,1,3.342-2.208,39.82,39.82,0,0,1,14.772-5.207,41.188,41.188,0,0,1,7.811-.359,40.524,40.524,0,0,1,7.719,1.153l.1.03a4.719,4.719,0,0,1,.523.139c.054.011.107.027.162.038l.5.141c.292.081.579.165.865.255.617.2,1.229.4,1.841.622a37.24,37.24,0,0,1,3.623,1.525A35.766,35.766,0,0,1,148.2,362.2a40.194,40.194,0,0,1,11.556,10.491" transform="translate(-38.261 -156.454)" fill="#83327a"/>
        <path id="Trazado_1321443" data-name="Trazado 1321443" d="M309.924,379.735c1.823.477-.927,5.865-1.244,7.11-3.094,7.666-9.52,13.435-15.968,18.311-11.629,8.818-26.547,11.956-40.926,11.365-17.125-.269-33.371-10.954-37.435-28.1a11.607,11.607,0,0,1-.3-1.28c-.309-1.09,1.4-1.364,2.03-1.854a29.076,29.076,0,0,0,5.857-4.158c8.478-8.324,6.545-22.986,4.272-33.547a35.722,35.722,0,0,0-5.49-12.274c-.38-.42-.654-.94-.226-1.421a.742.742,0,0,1,1.046-.089,13.017,13.017,0,0,0,1.05-.9c3.813-3.146,7.807-6.073,11.753-9.052A324.451,324.451,0,0,1,263.7,303.8c3.915-2.37,7.759-4.877,11.673-7.256a.8.8,0,0,1,1.086.181.823.823,0,0,1,.6,1.165,28.569,28.569,0,0,0-.772,3.589c-3.261,21.511,4.475,43.411,17.08,60.655A135.67,135.67,0,0,0,303.59,374c1.951,2,3.985,3.928,6.117,5.737a1.731,1.731,0,0,1,.216,0" transform="translate(-93.94 -130.106)" fill="#ef9a97"/>
        <path id="Trazado_1321444" data-name="Trazado 1321444" d="M231.112,351.176a35.714,35.714,0,0,0-5.491-12.274c-.379-.42-.653-.94-.225-1.421a.742.742,0,0,1,1.046-.089,13.126,13.126,0,0,0,1.051-.9c3.813-3.147,7.807-6.073,11.753-9.052A324.294,324.294,0,0,1,268.6,307.4c1.513-.916,3.016-1.853,4.516-2.795q-.114,2.629-.429,5.244a52.119,52.119,0,0,1-1.417,7.159,42.619,42.619,0,0,1-1.447,4.43,1.233,1.233,0,0,1,.123.623,5.4,5.4,0,0,1-.2,1.086c-.026.1-.053.2-.081.3a4.27,4.27,0,0,1-.2,1.58,14.785,14.785,0,0,1-.522,1.535c0-.008.006-.017.01-.025-.022.057-.044.113-.065.17l.03-.082a33.151,33.151,0,0,1-3.438,6.483,45.341,45.341,0,0,1-4.5,5.685c-.808.874-1.62,1.743-2.48,2.56q-1.424,1.35-2.931,2.6c-.913.75-1.862,1.461-2.815,2.162-.98.72-1.982,1.417-3.006,2.066a55.727,55.727,0,0,1-6.6,3.526,43.042,43.042,0,0,1-6.9,2.493,39.278,39.278,0,0,1-4.356.887c-.243-1.349-.508-2.658-.777-3.91" transform="translate(-98.84 -133.703)" fill="#c66f79"/>
        <path id="Trazado_1321445" data-name="Trazado 1321445" d="M227.654,187.63c4.21,11.652,4.008,24.508,1.933,36.592-2.326,12.945-7.507,26.154-17.226,35.326-7.092,6.263-17,7.873-26.172,7.794-21.852.119-44.643-11.8-52.746-32.845a57.255,57.255,0,0,1-3.99-14.975c-6.3-2.507-13.66-8.324-10.513-15.041,1.4-2.238,4.047-3.434,5.716-5.411,3.716-4.193,3.261-9.97,3.24-15.165-.282-18.894.225-39.28,10.628-55.738.521-.653.971-2.088,1.894-1.88a.847.847,0,0,1,.825.282c7.94,7.013,16.506,13.594,25.841,18.577a71.9,71.9,0,0,0,8.995,3.243.809.809,0,0,1,.521.4c4.467,1.333,8.915,2.772,13.249,4.5,16.308,6.135,31.173,17.87,37.806,34.346" transform="translate(-51.878 -55.423)" fill="#ef9a97"/>
        <path id="Trazado_1321446" data-name="Trazado 1321446" d="M313.984,63.289c3.769,2.03,3.972,7.468.936,10.252a15.175,15.175,0,0,1-6.5,3.818,3.509,3.509,0,0,0-.715.2c.225.278.437.561.649.838,12.116,17.95,8.108,41.461,4.467,61.5-4.237,19.384-9.8,39.876-24.729,53.9a85.4,85.4,0,0,1-28.03,18.656,66.143,66.143,0,0,1-7.494,2.657c-2.291.609-4.753,1.77-7.106.861-5.786-3.972-8.884-27.615-11.245-35.14a38.128,38.128,0,0,0-10.721-18.576c-8.668-8.328-18.453-17.464-21.449-29.341a53.926,53.926,0,0,1-8.761-.221c-22.213-2.622-43.508-18.96-48.376-41.315-5.12-20.064,6.537-43.058,26.446-49.559C206.1,31.08,238.919,53.686,272.245,60.151c3.2.684,6.417,1.293,9.657,1.774.207-.949.436-1.791.507-2.193,5.632-18.608,21.543-11.713,12.8,6.761,5.111-3.879,12.755-6.272,18.775-3.2" transform="translate(-63.077 -17.106)" fill="#45133e"/>
        <path id="Trazado_1321447" data-name="Trazado 1321447" d="M326.444,253.043c1.66,15.032-12.609,28.2-27.2,27.995-7.216.287-10.09-7.379-11.211-13.3-1.108-5.9-2.3-12.362.667-17.9,8-17.8,35.37-18.735,37.749,3.2" transform="translate(-125.899 -103.822)" fill="#ef9a97"/>
        <path id="Trazado_1321448" data-name="Trazado 1321448" d="M303.786,279.124a.828.828,0,0,1,.292-.852,12.177,12.177,0,0,0,.632-11.178c-.651-1.63-2.261-2.674-2.174-4.542.781-7.053,8.516-12.047,15.3-11.7a.857.857,0,0,1,.821.874c-.061,1.013-1.166.793-1.878.823-5.359.091-10.763,3.835-12.41,8.938-.7,1.86,1.054,3.033,1.722,4.566a14.331,14.331,0,0,1,.1,11.987c-.35.945-1.685,2.7-2.405,1.081" transform="translate(-132.794 -110.103)" fill="#c66f79"/>
        <path id="Trazado_1321449" data-name="Trazado 1321449" d="M169.7,254.811a16.036,16.036,0,0,1-12.525-9.4c-.371-.343.113-1.161.516-.658a3.152,3.152,0,0,0,.331.485c3.792,5.52,11.159,7.754,17.524,6.114,4.459-1.233,7.621-5.118,9.434-9.116,1.194-1.283,2.516.6,1.946,1.827-2.687,6.829-9.732,11.942-17.226,10.747" transform="translate(-68.931 -106.139)" fill="#45133e"/>
        <path id="Trazado_1321450" data-name="Trazado 1321450" d="M146.15,316.623a.857.857,0,0,1,.481-1.1,64.581,64.581,0,0,1,8.607-3.155.847.847,0,0,1,.41,1.642,56.926,56.926,0,0,0-7.627,2.767c-.6.3-1.518.692-1.871-.154" transform="translate(-64.127 -137.097)" fill="#45133e"/>
        <path id="Trazado_1321451" data-name="Trazado 1321451" d="M188.151,207.98c1.1,1.474,2.313,3.743,1.081,5.5a3.462,3.462,0,0,1-2.065,1.289,6.979,6.979,0,0,1-1.655.185,12.034,12.034,0,0,1-1.443-.1,21.973,21.973,0,0,1-6-1.809c-.737-.331-1.456-.685-2.167-1.064a.381.381,0,0,1-.057-.031,32.77,32.77,0,0,1-3.412-2.114c-.066-.044-.132-.093-.194-.137a26.861,26.861,0,0,1-2.719-2.225,13.972,13.972,0,0,1-3.1-3.928,5,5,0,0,1-.578-2.277,2.8,2.8,0,0,1,.874-2.022,4.149,4.149,0,0,1,2.4-1,10.8,10.8,0,0,1,3.112.15,24.084,24.084,0,0,1,6.148,2.1,32.377,32.377,0,0,1,5.269,3.169,21.142,21.142,0,0,1,4.5,4.307" transform="translate(-72.796 -86.997)" fill="#45133e"/>
        <g id="Grupo_1188495" data-name="Grupo 1188495" transform="translate(109.037 151.313)" opacity="0.5">
          <g id="Grupo_1188494" data-name="Grupo 1188494">
            <g id="Grupo_1188493" data-name="Grupo 1188493" clip-path="url(#clip-path-3)">
              <path id="Trazado_1321452" data-name="Trazado 1321452" d="M211.609,274.228a9.25,9.25,0,0,1,1.2,6.157,9.29,9.29,0,0,1-9.035,7.878h-.119a9.265,9.265,0,0,1-8.267-5.014c-.022-.035-.039-.066-.057-.1a9.172,9.172,0,0,1-.944-3.292.331.331,0,0,1,0-.066.49.49,0,0,1-.009-.084c0-.013,0-.031,0-.048a9.384,9.384,0,0,1,.287-3.076.966.966,0,0,1,.039-.123,9.574,9.574,0,0,1,1.073-2.423,9.086,9.086,0,0,1,2.229-2.436,9.788,9.788,0,0,1,2.763-1.452,9.3,9.3,0,0,1,10.853,4.082" transform="translate(-194.341 -269.691)" fill="#ec7380"/>
            </g>
          </g>
        </g>
        <path id="Trazado_1321453" data-name="Trazado 1321453" d="M337.015,507.463c-.009.733.177,2.079-.4,2.52a.848.848,0,0,1-.737.437H322.441q-12.452,0-24.9,0-13.524,0-27.05,0-12.876-.007-25.762,0-13.055,0-26.11,0-12.684-.007-25.369,0-12.929,0-25.859,0-13.293-.007-26.578,0-11.85-.006-23.7,0H117.1a.857.857,0,0,1-.384-.093c-2.357-.481,4.188-13.43,4.934-15.222,10.165-20.624,27.263-39.117,48.893-47.7.838-.19,2.652-1.134,3.676-.989a1.017,1.017,0,0,1,.186-.066c.755-.1.927.622,1.178,1.152a38.294,38.294,0,0,0,8.906,10.91c11.542,9.886,27.805,14.476,42.723,11.664a49.736,49.736,0,0,0,30.082-20.73,37.477,37.477,0,0,0,5.424-10.548.858.858,0,0,1,1.042-.591.6.6,0,0,1,.269.167h0a.82.82,0,0,1,.12.075c1.108.821,2.3,1.624,3.425,2.388,5.212,3.381,11.074,5.455,16.926,7.419,21.944,7.472,44.736,16.449,50.287,41.544a76.058,76.058,0,0,1,2.225,17.7" transform="translate(-51.007 -192.316)" fill="#b3b27d"/>
        <path id="Trazado_1321454" data-name="Trazado 1321454" d="M408.491,551.974q.119,1.171.234,2.344h-1.7c-.207-2.141-.415-4.276-.684-6.4-.247-1.977-.538-3.95-.931-5.9V542a.82.82,0,0,1-.017-.084c-.1-.49-.208-.971-.327-1.453-.1-.415-.221-.825-.331-1.235a.847.847,0,1,1,1.633-.454c.265.962.5,1.92.7,2.9q.344,1.695.6,3.407c.345,2.286.6,4.585.83,6.889" transform="translate(-177.639 -236.219)" fill="#9a984a"/>
        <path id="Trazado_1321455" data-name="Trazado 1321455" d="M196.446,534.9a.859.859,0,0,1,.3,1.161c.009-.013.013-.026.022-.04-.159.335-.287.688-.428,1.028-.212.508-.415,1.019-.613,1.536-.406,1.051-.785,2.119-1.156,3.182-.751,2.185-1.448,4.391-2.07,6.616-.41,1.469-.777,2.948-1.117,4.431h-1.73c.737-3.279,1.619-6.523,2.679-9.714.49-1.47.993-2.935,1.532-4.387q.384-1.027.8-2.039c.119-.3.247-.6.371-.9a5.3,5.3,0,0,1,.251-.57.851.851,0,0,1,1.156-.3" transform="translate(-83.248 -234.738)" fill="#9a984a"/>
        <path id="Trazado_1321456" data-name="Trazado 1321456" d="M311.513,442.048c-.185.446-.371.892-.561,1.337-.04.1-.08.208-.128.309s-.1.2-.141.3-.093.212-.141.313c-.132.3-.269.6-.406.9-.243.53-.494,1.051-.751,1.572-.5,1.006-1.019,2-1.571,2.983a57.346,57.346,0,0,1-8.182,11.422,55.869,55.869,0,0,1-5.274,4.939,48.65,48.65,0,0,1-19.076,9.586,53.99,53.99,0,0,1-20.54,1.205,56.862,56.862,0,0,1-6.721-1.258,60.011,60.011,0,0,1-9.5-3.209c-.058-.026-.111-.048-.168-.071-.013-.008-.026-.013-.044-.022a.175.175,0,0,1-.04-.017,57.155,57.155,0,0,1-11.563-6.921,69.82,69.82,0,0,1-5.459-4.687c-.87-.821-1.708-1.686-2.516-2.569s-1.584-1.779-2.313-2.719a46.621,46.621,0,0,1-3.032-4.325q-.629-1.033-1.2-2.1c-.137-.256-.273-.512-.393-.777a1.16,1.16,0,0,1-.154-.481.4.4,0,0,1,0-.071c.066-.026.137-.057.207-.084.195-.08.389-.155.583-.234.048-.013.1-.026.154-.04.093-.026.194-.062.3-.1a.464.464,0,0,1,.084-.031c.044-.018.093-.035.141-.053v0a7.853,7.853,0,0,1,2.992-.772.978.978,0,0,1,.186-.066.62.62,0,0,1,.181,0,.464.464,0,0,1,.111.013.475.475,0,0,1,.185.062.581.581,0,0,1,.159.11.337.337,0,0,1,.066.066.354.354,0,0,1,.062.075c.039.053.075.111.11.168a3.617,3.617,0,0,1,.195.415c.035.089.07.172.11.252,9.86,17.548,32.294,26.119,51.629,22.575,16-3.557,30.073-15.827,35.506-31.279a1.169,1.169,0,0,1,.128-.256.675.675,0,0,1,.415-.322.732.732,0,0,1,.079-.022.807.807,0,0,1,.42,0,.638.638,0,0,1,.234.132,2.23,2.23,0,0,1,.547.393l0,0c.993.724,2.039,1.426,3.032,2.1l.366.234a.553.553,0,0,0-.08.031s0,0,0,.008l.084-.039.212.132c.243.15.486.3.733.446s.49.291.737.433" transform="translate(-92.895 -192.318)" fill="#9a984a"/>
        <path id="Trazado_1321457" data-name="Trazado 1321457" d="M310.4,108.278c6.748,8.606,11.621,19.5,9.939,30.629-1.942,14.975-16.263,28.105-31.738,25.859-26.481-3.089-34.933-31.883-57.971-31.067-6.387.384-12.782,1.673-19.185.808-16.723-2.22-28.132-15.108-26.741-32.2,1.306-16.449,9.339-28.829,25.7-33.357,17.906-5.155,37-.613,53.938,5.945A111.6,111.6,0,0,1,310.4,108.278" transform="translate(-81.025 -29.288)" fill="#fff"/>
        <path id="Trazado_1321458" data-name="Trazado 1321458" d="M269.86,132.47a14.784,14.784,0,0,0,6.624-1.439,22.268,22.268,0,0,1-8.182-1.9,18.643,18.643,0,0,0,1.5,3.341Zm8.024-30.926A40.569,40.569,0,0,0,264.056,99.2c-.1.167-.2.344-.287.525-1.977,4.215,2.33,8.355,6.461,8.271,3.65-.031,6.748-3.019,7.653-6.448m.256-1.7c.088-2.353-.848-4.7-1.686-6.823-3.888.269-8.337,1.518-11.087,4.431a29.428,29.428,0,0,1,5.128.451,51.94,51.94,0,0,1,7.645,1.942m-1.32,29.465c7.931.2,7.419-5.91,1.271-8.735-4.846-2.145-10.614.909-10.067,6.541a19.525,19.525,0,0,0,8.8,2.194m12.451-8.62c-.071-.08-.132-.159-.194-.225a23.44,23.44,0,0,0-16.07-6.881c-8.266-.172-15.13,6.144-6.669,12.5.159-8.478,11.268-10.23,16.158-4.431a6.587,6.587,0,0,1,1.885,3.513,8.4,8.4,0,0,0,4.89-4.475m.436-7.711a12.208,12.208,0,0,0-.454-1.341,14.265,14.265,0,0,0-4.179-6c-.018,0-.031.013-.049.017-1.372.556-3.358,1.651-2.6,3.385,1.35,2.578,4.5,3.769,7.282,3.941m.181,5.9a11.5,11.5,0,0,0,.177-4.193,11.608,11.608,0,0,1-7.781-3c-2.493-2.122-2.193-5.53.8-6.982.159-.084.322-.168.485-.247a23.088,23.088,0,0,0-4.1-2.268c-1.386,5.129-7.163,9.052-12.362,6.934-5.1-2.061-6.334-6.144-4.935-9.771a20.118,20.118,0,0,0-9.736,3.712C239.292,113.3,255,130.74,267.777,132.351a17.531,17.531,0,0,1-1.377-4.206c-5.3-2.688-8.2-10.222-2.238-13.881,8.01-4.793,18.81-1.779,25.343,4.246.105.105.238.229.384.362m-4.4-15.143c3.716-1.112,7.852-.666,11.577.181-3.121-7.124-11.493-10.315-18.771-10.9.9,2.353,1.774,4.917,1.514,7.459a23.251,23.251,0,0,1,5.68,3.257m7.565,8.659c2.538-1.143,5.217-3.544,4.594-6.572a23.691,23.691,0,0,0-10.628-.715,16.079,16.079,0,0,1,1.593,1.854,16.5,16.5,0,0,1,2.785,5.914,7.515,7.515,0,0,0,1.655-.481m15.628,29.941c17.42-10.416,6.382-30.877-9.273-35.965.274,3.716-3.121,6.673-6.356,7.834a9.879,9.879,0,0,1-1.333.331c.543,3.831-.353,7.763-3.469,10.279-.658.415-2.617,1.96-3.884,2.132a4.294,4.294,0,0,1-2.617,3.1,11.371,11.371,0,0,1-2.052.676,9.274,9.274,0,0,1-2.339,1.77,15.771,15.771,0,0,1-6.471,1.655c7.777,10.892,26.508,14.547,37.793,8.187m-9.613-37.863c10.915,3.363,21.352,13.845,20.095,25.942-1.81,11.939-14.966,17.826-26.009,16.7-8.889-.782-19.543-5.067-24.411-12.985a20.578,20.578,0,0,1-3.716-.6c-11.4-2.9-25.082-17.239-16.573-28.926,3.58-4.449,9.052-6.612,14.666-7.057a11.7,11.7,0,0,1,5.442-4.312c10.178-4.859,26.759.027,30.506,11.237" transform="translate(-107.889 -40.1)" fill="#7985bc"/>
      </g>
    </g>
  </g>
</svg>
