<svg xmlns="http://www.w3.org/2000/svg" xmlns:xlink="http://www.w3.org/1999/xlink" width="609.811" height="614.917" viewBox="0 0 609.811 614.917">
  <defs>
    <clipPath id="clip-path">
      <rect id="Rectángulo_411055" data-name="Rectángulo 411055" width="609.811" height="614.917" fill="none"/>
    </clipPath>
  </defs>
  <g id="Grupo_1188570" data-name="Grupo 1188570" transform="translate(-495.095 -4824)">
    <g id="Grupo_1188565" data-name="Grupo 1188565" transform="translate(495.095 4824)" clip-path="url(#clip-path)">
      <path id="Trazado_1321737" data-name="Trazado 1321737" d="M504.655,293.148c0,121.567-98.55,220.116-220.116,220.116S64.423,414.715,64.423,293.148,162.973,73.033,284.54,73.033s220.116,98.549,220.116,220.116" transform="translate(22.18 25.145)" fill="#d2e1f1"/>
      <path id="Trazado_1321738" data-name="Trazado 1321738" d="M331.185,82.011A82.01,82.01,0,1,1,249.175,0a82.01,82.01,0,0,1,82.01,82.01" transform="translate(57.553 0)" fill="#ee7fbc"/>
      <path id="Trazado_1321739" data-name="Trazado 1321739" d="M253.072,417.427a82.01,82.01,0,1,1-82.01-82.01,82.01,82.01,0,0,1,82.01,82.01" transform="translate(30.659 115.481)" fill="#f6c42b"/>
      <path id="Trazado_1321740" data-name="Trazado 1321740" d="M472.206,133.136a82.01,82.01,0,1,1-82.011-82.01,82.01,82.01,0,0,1,82.011,82.01" transform="translate(106.105 17.602)" fill="#bfd557"/>
      <path id="Trazado_1321741" data-name="Trazado 1321741" d="M164.021,286.306a82.01,82.01,0,1,1-82.01-82.01,82.01,82.01,0,0,1,82.01,82.01" transform="translate(0 70.337)" fill="#78b6fc"/>
      <path id="Trazado_1321742" data-name="Trazado 1321742" d="M495.638,287.022a82.01,82.01,0,1,1-82.01-82.01,82.01,82.01,0,0,1,82.01,82.01" transform="translate(114.173 70.584)" fill="#f89b1c"/>
      <path id="Trazado_1321743" data-name="Trazado 1321743" d="M403.1,415.425a82.01,82.01,0,1,1-82.01-82.01,82.01,82.01,0,0,1,82.01,82.01" transform="translate(82.312 114.792)" fill="#60d9e5"/>
      <path id="Trazado_1321744" data-name="Trazado 1321744" d="M187.448,141.174a82.01,82.01,0,1,1-82.01-82.01,82.009,82.009,0,0,1,82.01,82.01" transform="translate(8.066 20.37)" fill="#f2606e"/>
    </g>
    <g id="Grupo_1188568" data-name="Grupo 1188568" transform="translate(510.396 4825.788)">
      <text id="_Cuál_es_mi_" data-name="¿Cuál es mi " transform="translate(235.09 263.878)" fill="#001f45" font-size="24" font-family="Roboto-Black, Roboto" font-weight="800"><tspan x="0" y="0">¿Cuál es mi </tspan></text>
      <text id="compromiso_en_los_" data-name="compromiso en los " transform="translate(184.838 293.701)" fill="#001f45" font-size="24" font-family="Roboto-Black, Roboto" font-weight="800"><tspan x="0" y="0">comp</tspan><tspan y="0" letter-spacing="-0.017em">r</tspan><tspan y="0">omiso en los </tspan></text>
      <text id="diferentes_entornos_" data-name="diferentes entornos " transform="translate(180.604 323.525)" fill="#001f45" font-size="24" font-family="Roboto-Black, Roboto" font-weight="800"><tspan x="0" y="0">di</tspan><tspan y="0" letter-spacing="-0.011em">f</tspan><tspan y="0">e</tspan><tspan y="0" letter-spacing="-0.009em">r</tspan><tspan y="0">entes en</tspan><tspan y="0" letter-spacing="-0.014em">t</tspan><tspan y="0">ornos </tspan></text>
      <text id="con_los_que_me_" data-name="con los que me " transform="translate(211.321 353.347)" fill="#001f45" font-size="24" font-family="Roboto-Black, Roboto" font-weight="800"><tspan x="0" y="0">con los que me </tspan></text>
      <text id="relaciono_" data-name="relaciono?" transform="translate(242.725 383.17)" fill="#001f45" font-size="24" font-family="Roboto-Black, Roboto" font-weight="800"><tspan x="0" y="0" letter-spacing="-0.009em">r</tspan><tspan y="0">elaciono?</tspan></text>
    </g>
    <path id="Trazado_1321804" data-name="Trazado 1321804" d="M7.176-3.878l3.545-11.763h3.588L8.862,0H5.5L.075-15.641H3.652ZM20.464.215A5.706,5.706,0,0,1,16.3-1.354,5.575,5.575,0,0,1,14.7-5.532v-.3a7.021,7.021,0,0,1,.677-3.131,4.967,4.967,0,0,1,1.917-2.127,5.382,5.382,0,0,1,2.831-.747,4.824,4.824,0,0,1,3.754,1.5,6.111,6.111,0,0,1,1.37,4.265V-4.8h-7.4a2.884,2.884,0,0,0,.908,1.826,2.744,2.744,0,0,0,1.917.688,3.351,3.351,0,0,0,2.8-1.3L25-1.88A4.66,4.66,0,0,1,23.106-.338,6.2,6.2,0,0,1,20.464.215Zm-.354-9.55a1.94,1.94,0,0,0-1.5.626,3.241,3.241,0,0,0-.736,1.791h4.318v-.248a2.311,2.311,0,0,0-.559-1.6A2,2,0,0,0,20.109-9.335ZM31.84-2.288a2.036,2.036,0,0,0,1.4-.473,1.656,1.656,0,0,0,.559-1.257h2.911a3.982,3.982,0,0,1-.645,2.165A4.253,4.253,0,0,1,34.327-.328a5.43,5.43,0,0,1-2.433.542A5.046,5.046,0,0,1,27.962-1.37a6.27,6.27,0,0,1-1.439-4.377v-.2a6.2,6.2,0,0,1,1.429-4.286,4.987,4.987,0,0,1,3.921-1.6,4.889,4.889,0,0,1,3.5,1.241,4.393,4.393,0,0,1,1.337,3.3H33.795a2.133,2.133,0,0,0-.559-1.474,1.862,1.862,0,0,0-1.418-.567,1.87,1.87,0,0,0-1.638.791,4.583,4.583,0,0,0-.553,2.566v.323a4.641,4.641,0,0,0,.548,2.582A1.893,1.893,0,0,0,31.84-2.288ZM41.755,0H38.64V-11.623h3.115Zm-3.3-14.631a1.529,1.529,0,0,1,.467-1.149,1.755,1.755,0,0,1,1.273-.451,1.759,1.759,0,0,1,1.268.451,1.52,1.52,0,0,1,.473,1.149,1.524,1.524,0,0,1-.478,1.16,1.764,1.764,0,0,1-1.262.451,1.764,1.764,0,0,1-1.262-.451A1.524,1.524,0,0,1,38.457-14.631Zm8.712,3.008.1,1.343a4.058,4.058,0,0,1,3.341-1.558,3.372,3.372,0,0,1,2.75,1.085,5.062,5.062,0,0,1,.924,3.244V0h-3.1V-7.434a2.014,2.014,0,0,0-.43-1.434,1.924,1.924,0,0,0-1.429-.446A2.136,2.136,0,0,0,47.351-8.2V0h-3.1V-11.623ZM56.149-5.9a7,7,0,0,1,1.219-4.329A3.956,3.956,0,0,1,60.7-11.838a3.56,3.56,0,0,1,2.8,1.268V-16.5h3.115V0h-2.8l-.15-1.235A3.653,3.653,0,0,1,60.683.215,3.945,3.945,0,0,1,57.39-1.4,7.23,7.23,0,0,1,56.149-5.9Zm3.1.231a4.588,4.588,0,0,0,.569,2.507,1.855,1.855,0,0,0,1.654.871A2.077,2.077,0,0,0,63.508-3.5V-8.1A2.048,2.048,0,0,0,61.5-9.313Q59.254-9.313,59.254-5.666ZM75.765,0a3.448,3.448,0,0,1-.312-1.042A3.756,3.756,0,0,1,72.52.215,4.127,4.127,0,0,1,69.69-.773a3.178,3.178,0,0,1-1.123-2.492A3.285,3.285,0,0,1,69.937-6.1a6.758,6.758,0,0,1,3.958-1h1.429v-.666a1.915,1.915,0,0,0-.414-1.289,1.627,1.627,0,0,0-1.305-.483,1.85,1.85,0,0,0-1.23.376,1.277,1.277,0,0,0-.446,1.031h-3.1A3.118,3.118,0,0,1,69.448-10a4.118,4.118,0,0,1,1.762-1.348,6.42,6.42,0,0,1,2.557-.489,5.073,5.073,0,0,1,3.411,1.08,3.777,3.777,0,0,1,1.262,3.035v5.038a5.557,5.557,0,0,0,.462,2.5V0ZM73.2-2.159a2.674,2.674,0,0,0,1.268-.306,2.011,2.011,0,0,0,.859-.822v-2h-1.16q-2.331,0-2.481,1.611l-.011.183a1.243,1.243,0,0,0,.408.956A1.586,1.586,0,0,0,73.2-2.159ZM87.355-8.712A8.434,8.434,0,0,0,86.238-8.8a2.274,2.274,0,0,0-2.31,1.192V0h-3.1V-11.623h2.933l.086,1.386a2.877,2.877,0,0,1,2.589-1.6,3.253,3.253,0,0,1,.967.14ZM92.125,0H89.01V-11.623h3.115Zm-3.3-14.631a1.529,1.529,0,0,1,.467-1.149,1.755,1.755,0,0,1,1.273-.451,1.759,1.759,0,0,1,1.268.451,1.52,1.52,0,0,1,.473,1.149,1.524,1.524,0,0,1-.478,1.16,1.764,1.764,0,0,1-1.262.451,1.764,1.764,0,0,1-1.262-.451A1.524,1.524,0,0,1,88.827-14.631ZM94.2-5.919A6.893,6.893,0,0,1,94.864-9,4.876,4.876,0,0,1,96.782-11.1a5.594,5.594,0,0,1,2.906-.741,5.293,5.293,0,0,1,3.84,1.439,5.777,5.777,0,0,1,1.66,3.91l.021.795A6.075,6.075,0,0,1,103.716-1.4,5.19,5.19,0,0,1,99.709.215,5.216,5.216,0,0,1,95.7-1.4a6.182,6.182,0,0,1-1.5-4.383Zm3.1.22a4.345,4.345,0,0,0,.623,2.534,2.055,2.055,0,0,0,1.783.877,2.06,2.06,0,0,0,1.762-.866,4.754,4.754,0,0,0,.634-2.77,4.3,4.3,0,0,0-.634-2.518,2.06,2.06,0,0,0-1.783-.893,2.027,2.027,0,0,0-1.762.888A4.834,4.834,0,0,0,97.3-5.7Z" transform="translate(751.5 4910.308)" fill="#001c35"/>
    <path id="Trazado_1321809" data-name="Trazado 1321809" d="M10.227-3.223H4.576L3.5,0H.075L5.9-15.641H8.884L14.738,0H11.312Zm-4.78-2.61h3.91L7.391-11.687Zm13.108-5.79.1,1.3a4.085,4.085,0,0,1,3.341-1.515,3.1,3.1,0,0,1,3.083,1.772,3.991,3.991,0,0,1,3.491-1.772,3.467,3.467,0,0,1,2.814,1.1A5.061,5.061,0,0,1,32.3-7.423V0H29.189V-7.412A2.213,2.213,0,0,0,28.8-8.857a1.714,1.714,0,0,0-1.364-.457A1.938,1.938,0,0,0,25.5-7.981L25.515,0h-3.1V-7.4a2.186,2.186,0,0,0-.4-1.461,1.731,1.731,0,0,0-1.354-.451,2.012,2.012,0,0,0-1.912,1.1V0h-3.1V-11.623ZM37.965,0H34.85V-11.623h3.115Zm-3.3-14.631a1.529,1.529,0,0,1,.467-1.149,1.755,1.755,0,0,1,1.273-.451,1.759,1.759,0,0,1,1.268.451,1.52,1.52,0,0,1,.473,1.149,1.524,1.524,0,0,1-.478,1.16,1.764,1.764,0,0,1-1.262.451,1.764,1.764,0,0,1-1.262-.451A1.524,1.524,0,0,1,34.668-14.631Zm5.4,8.733a6.812,6.812,0,0,1,1.273-4.308,4.125,4.125,0,0,1,3.432-1.633,3.617,3.617,0,0,1,2.976,1.311l.129-1.1h2.814V-.387A4.968,4.968,0,0,1,50,2.267a4.45,4.45,0,0,1-1.95,1.719,6.854,6.854,0,0,1-2.943.591,6.373,6.373,0,0,1-2.492-.51A4.423,4.423,0,0,1,40.78,2.75L42.155.859a3.637,3.637,0,0,0,2.814,1.3A2.662,2.662,0,0,0,46.892,1.5,2.478,2.478,0,0,0,47.58-.376V-1A3.591,3.591,0,0,1,44.754.215a4.114,4.114,0,0,1-3.389-1.638,6.81,6.81,0,0,1-1.294-4.345Zm3.1.231a4.242,4.242,0,0,0,.634,2.48,2.016,2.016,0,0,0,1.74.9,2.156,2.156,0,0,0,2.03-1.065v-4.9a2.151,2.151,0,0,0-2.009-1.065,2.029,2.029,0,0,0-1.756.915A4.781,4.781,0,0,0,43.175-5.666ZM52.6-5.919A6.893,6.893,0,0,1,53.262-9,4.876,4.876,0,0,1,55.18-11.1a5.594,5.594,0,0,1,2.906-.741,5.293,5.293,0,0,1,3.84,1.439,5.777,5.777,0,0,1,1.66,3.91l.021.795A6.075,6.075,0,0,1,62.114-1.4,5.19,5.19,0,0,1,58.107.215,5.216,5.216,0,0,1,54.095-1.4a6.182,6.182,0,0,1-1.5-4.383Zm3.1.22a4.345,4.345,0,0,0,.623,2.534,2.055,2.055,0,0,0,1.783.877,2.06,2.06,0,0,0,1.762-.866,4.754,4.754,0,0,0,.634-2.77,4.3,4.3,0,0,0-.634-2.518,2.06,2.06,0,0,0-1.783-.893,2.027,2.027,0,0,0-1.762.888A4.834,4.834,0,0,0,55.7-5.7ZM71.814-3.212a1,1,0,0,0-.564-.9,6.406,6.406,0,0,0-1.81-.585q-4.146-.87-4.146-3.523A3.194,3.194,0,0,1,66.577-10.8a5.178,5.178,0,0,1,3.357-1.037,5.573,5.573,0,0,1,3.54,1.042A3.284,3.284,0,0,1,74.8-8.089H71.7a1.5,1.5,0,0,0-.43-1.1,1.818,1.818,0,0,0-1.343-.435,1.858,1.858,0,0,0-1.214.354,1.119,1.119,0,0,0-.43.9.957.957,0,0,0,.489.833,5.028,5.028,0,0,0,1.649.548,13.468,13.468,0,0,1,1.955.521,3.212,3.212,0,0,1,2.46,3.126A3.032,3.032,0,0,1,73.468-.768a5.885,5.885,0,0,1-3.523.983,6.147,6.147,0,0,1-2.594-.521,4.353,4.353,0,0,1-1.778-1.429,3.32,3.32,0,0,1-.645-1.96h2.943a1.621,1.621,0,0,0,.612,1.268,2.429,2.429,0,0,0,1.525.44,2.248,2.248,0,0,0,1.348-.338A1.053,1.053,0,0,0,71.814-3.212Z" transform="translate(955.733 4980.369)" fill="#001c35"/>
    <path id="Trazado_1321808" data-name="Trazado 1321808" d="M14.3-5.447a5.786,5.786,0,0,1-1.948,4.155A6.843,6.843,0,0,1,7.715.225,6.153,6.153,0,0,1,2.768-1.892,8.68,8.68,0,0,1,.966-7.7v-1A9.8,9.8,0,0,1,1.8-12.859a6.228,6.228,0,0,1,2.375-2.757,6.654,6.654,0,0,1,3.588-.96,6.666,6.666,0,0,1,4.56,1.516,6.218,6.218,0,0,1,2,4.256H10.95a3.415,3.415,0,0,0-.882-2.3,3.265,3.265,0,0,0-2.308-.713,2.863,2.863,0,0,0-2.521,1.207A6.766,6.766,0,0,0,4.38-8.861v1.235a7.242,7.242,0,0,0,.8,3.875A2.81,2.81,0,0,0,7.715-2.527a3.326,3.326,0,0,0,2.33-.713,3.221,3.221,0,0,0,.882-2.207Zm9.276,4.211A4.07,4.07,0,0,1,20.249.225,3.839,3.839,0,0,1,17.267-.9a4.794,4.794,0,0,1-1.05-3.291v-7.962h3.246v7.859q0,1.9,1.729,1.9A2.343,2.343,0,0,0,23.46-3.539v-8.612h3.257V0H23.663ZM32.591,0H29.334V-17.25h3.257Zm6.559-15.139v2.987h2.078v2.381H39.149v6.064a1.448,1.448,0,0,0,.258.966,1.3,1.3,0,0,0,.988.292,5.176,5.176,0,0,0,.955-.079V-.067a6.682,6.682,0,0,1-1.965.292q-3.414,0-3.481-3.448V-9.771H34.129v-2.381H35.9v-2.987Zm11.163,13.9A4.07,4.07,0,0,1,46.988.225,3.839,3.839,0,0,1,44.007-.9a4.794,4.794,0,0,1-1.05-3.291v-7.962H46.2v7.859q0,1.9,1.729,1.9A2.343,2.343,0,0,0,50.2-3.539v-8.612h3.257V0H50.4ZM62.733-9.108a8.818,8.818,0,0,0-1.168-.09,2.377,2.377,0,0,0-2.415,1.247V0H55.905V-12.151h3.066l.09,1.449a3.007,3.007,0,0,1,2.707-1.673,3.4,3.4,0,0,1,1.011.146ZM70.631,0a3.6,3.6,0,0,1-.326-1.089A3.927,3.927,0,0,1,67.239.225,4.314,4.314,0,0,1,64.28-.809a3.323,3.323,0,0,1-1.174-2.605,3.434,3.434,0,0,1,1.432-2.965,7.065,7.065,0,0,1,4.138-1.044h1.494v-.7a2,2,0,0,0-.432-1.348,1.7,1.7,0,0,0-1.365-.505,1.934,1.934,0,0,0-1.286.393A1.335,1.335,0,0,0,66.622-8.5H63.376a3.26,3.26,0,0,1,.651-1.954,4.306,4.306,0,0,1,1.842-1.409,6.712,6.712,0,0,1,2.673-.511,5.3,5.3,0,0,1,3.566,1.129,3.948,3.948,0,0,1,1.32,3.173v5.267A5.809,5.809,0,0,0,73.91-.191V0ZM67.947-2.257a2.8,2.8,0,0,0,1.325-.32,2.1,2.1,0,0,0,.9-.859V-5.525H68.958q-2.437,0-2.594,1.685l-.011.191a1.3,1.3,0,0,0,.427,1A1.658,1.658,0,0,0,67.947-2.257Z" transform="translate(988.862 5191.59)" fill="#001c35"/>
    <g id="Grupo_1188569" data-name="Grupo 1188569" transform="translate(489.684 4829)">
      <text id="Colegio" transform="translate(372.026 517.968)" fill="#001c35" font-size="22" font-family="Roboto-Bold, Roboto" font-weight="700"><tspan x="0" y="0">Colegio</tspan></text>
      <text id="_educativa_" data-name="(educativa)" transform="translate(350.049 548.745)" fill="#001c35" font-size="23" font-family="Roboto-Bold, Roboto" font-weight="700"><tspan x="0" y="0">(educati</tspan><tspan y="0" letter-spacing="-0.007em">v</tspan><tspan y="0">a)</tspan></text>
    </g>
    <path id="Trazado_1321807" data-name="Trazado 1321807" d="M7.176-3.878l3.545-11.763h3.588L8.862,0H5.5L.075-15.641H3.652ZM18.853,0H15.737V-11.623h3.115Zm-3.3-14.631a1.529,1.529,0,0,1,.467-1.149,1.755,1.755,0,0,1,1.273-.451,1.759,1.759,0,0,1,1.268.451,1.52,1.52,0,0,1,.473,1.149,1.524,1.524,0,0,1-.478,1.16,1.764,1.764,0,0,1-1.262.451,1.764,1.764,0,0,1-1.262-.451A1.524,1.524,0,0,1,15.555-14.631ZM27.94-8.712A8.434,8.434,0,0,0,26.823-8.8a2.274,2.274,0,0,0-2.31,1.192V0h-3.1V-11.623h2.933l.086,1.386a2.877,2.877,0,0,1,2.589-1.6,3.253,3.253,0,0,1,.967.14Zm6.275-5.769v2.857H36.2v2.277H34.215v5.8a1.385,1.385,0,0,0,.247.924,1.241,1.241,0,0,0,.945.279,4.951,4.951,0,0,0,.913-.075V-.064a6.391,6.391,0,0,1-1.88.279q-3.266,0-3.33-3.3V-9.346h-1.7v-2.277h1.7V-14.48Zm10.678,13.3a3.893,3.893,0,0,1-3.18,1.4A3.672,3.672,0,0,1,38.861-.859a4.586,4.586,0,0,1-1-3.147v-7.616h3.1v7.518q0,1.817,1.654,1.817a2.242,2.242,0,0,0,2.17-1.1v-8.238H47.9V0H44.979ZM56.978,0a3.447,3.447,0,0,1-.312-1.042A3.756,3.756,0,0,1,53.734.215,4.127,4.127,0,0,1,50.9-.773a3.178,3.178,0,0,1-1.123-2.492A3.285,3.285,0,0,1,51.151-6.1a6.758,6.758,0,0,1,3.958-1h1.429v-.666a1.915,1.915,0,0,0-.414-1.289,1.627,1.627,0,0,0-1.305-.483,1.85,1.85,0,0,0-1.23.376,1.277,1.277,0,0,0-.446,1.031h-3.1A3.119,3.119,0,0,1,50.662-10a4.118,4.118,0,0,1,1.762-1.348,6.42,6.42,0,0,1,2.557-.489,5.073,5.073,0,0,1,3.411,1.08,3.777,3.777,0,0,1,1.262,3.035v5.038a5.557,5.557,0,0,0,.462,2.5V0ZM54.411-2.159a2.674,2.674,0,0,0,1.268-.306,2.011,2.011,0,0,0,.859-.822v-2h-1.16q-2.331,0-2.481,1.611l-.011.183a1.243,1.243,0,0,0,.408.956A1.586,1.586,0,0,0,54.411-2.159ZM65.314,0H62.2V-16.5h3.115Z" transform="translate(662 5369.968)" fill="#001c35"/>
    <path id="Trazado_1321806" data-name="Trazado 1321806" d="M4.829-2.707h7.154V0H1.46V-16.352H4.829ZM20.743,0a3.6,3.6,0,0,1-.326-1.089A3.927,3.927,0,0,1,17.351.225,4.314,4.314,0,0,1,14.392-.809a3.323,3.323,0,0,1-1.174-2.605A3.434,3.434,0,0,1,14.65-6.379a7.065,7.065,0,0,1,4.138-1.044h1.494v-.7a2,2,0,0,0-.432-1.348,1.7,1.7,0,0,0-1.365-.505A1.934,1.934,0,0,0,17.2-9.58,1.335,1.335,0,0,0,16.733-8.5H13.488a3.26,3.26,0,0,1,.651-1.954,4.306,4.306,0,0,1,1.842-1.409,6.712,6.712,0,0,1,2.673-.511,5.3,5.3,0,0,1,3.566,1.129,3.948,3.948,0,0,1,1.32,3.173v5.267a5.809,5.809,0,0,0,.483,2.617V0ZM18.059-2.257a2.8,2.8,0,0,0,1.325-.32,2.1,2.1,0,0,0,.9-.859V-5.525H19.069q-2.437,0-2.594,1.685l-.011.191a1.3,1.3,0,0,0,.427,1A1.658,1.658,0,0,0,18.059-2.257ZM36.982-5.963a7.358,7.358,0,0,1-1.247,4.554A4.129,4.129,0,0,1,32.254.225,3.794,3.794,0,0,1,29.1-1.292L28.952,0h-2.92V-17.25h3.246v6.188a3.7,3.7,0,0,1,2.954-1.314,4.163,4.163,0,0,1,3.487,1.634,7.369,7.369,0,0,1,1.263,4.6ZM33.736-6.2a4.834,4.834,0,0,0-.584-2.69,1.975,1.975,0,0,0-1.741-.848,2.141,2.141,0,0,0-2.134,1.269v4.8a2.17,2.17,0,0,0,2.156,1.28A2,2,0,0,0,33.5-3.942,8,8,0,0,0,33.736-6.2Zm4.739.011a7.206,7.206,0,0,1,.7-3.223,5.1,5.1,0,0,1,2-2.19,5.849,5.849,0,0,1,3.038-.775,5.533,5.533,0,0,1,4.015,1.5,6.04,6.04,0,0,1,1.735,4.088l.022.831a6.351,6.351,0,0,1-1.561,4.487A5.426,5.426,0,0,1,44.237.225,5.453,5.453,0,0,1,40.042-1.46a6.463,6.463,0,0,1-1.567-4.582Zm3.246.23a4.542,4.542,0,0,0,.651,2.649,2.149,2.149,0,0,0,1.864.917A2.154,2.154,0,0,0,46.079-3.3a4.97,4.97,0,0,0,.663-2.9,4.5,4.5,0,0,0-.663-2.632,2.154,2.154,0,0,0-1.864-.934,2.119,2.119,0,0,0-1.842.928A5.054,5.054,0,0,0,41.721-5.958Zm17.093-3.15a8.818,8.818,0,0,0-1.168-.09,2.377,2.377,0,0,0-2.415,1.247V0H51.986V-12.151h3.066l.09,1.449a3.007,3.007,0,0,1,2.707-1.673,3.4,3.4,0,0,1,1.011.146ZM66.712,0a3.6,3.6,0,0,1-.326-1.089A3.927,3.927,0,0,1,63.32.225,4.314,4.314,0,0,1,60.361-.809a3.323,3.323,0,0,1-1.174-2.605,3.434,3.434,0,0,1,1.432-2.965,7.065,7.065,0,0,1,4.138-1.044h1.494v-.7a2,2,0,0,0-.432-1.348,1.7,1.7,0,0,0-1.365-.505,1.934,1.934,0,0,0-1.286.393A1.335,1.335,0,0,0,62.7-8.5H59.457a3.26,3.26,0,0,1,.651-1.954,4.306,4.306,0,0,1,1.842-1.409,6.712,6.712,0,0,1,2.673-.511,5.3,5.3,0,0,1,3.566,1.129,3.948,3.948,0,0,1,1.32,3.173v5.267a5.809,5.809,0,0,0,.483,2.617V0ZM64.028-2.257a2.8,2.8,0,0,0,1.325-.32,2.1,2.1,0,0,0,.9-.859V-5.525H65.038q-2.437,0-2.594,1.685l-.011.191a1.3,1.3,0,0,0,.427,1A1.658,1.658,0,0,0,64.028-2.257ZM75.426,0H72.17V-17.25h3.257Z" transform="translate(534.138 5191.59)" fill="#001c35"/>
    <path id="Trazado_1321805" data-name="Trazado 1321805" d="M11.3-6.682H4.829V0H1.46V-16.352H12.106v2.729H4.829V-9.4H11.3ZM20.139,0a3.6,3.6,0,0,1-.326-1.089A3.927,3.927,0,0,1,16.747.225,4.314,4.314,0,0,1,13.788-.809a3.323,3.323,0,0,1-1.174-2.605,3.434,3.434,0,0,1,1.432-2.965,7.065,7.065,0,0,1,4.138-1.044h1.494v-.7a2,2,0,0,0-.432-1.348,1.7,1.7,0,0,0-1.365-.505A1.934,1.934,0,0,0,16.6-9.58,1.335,1.335,0,0,0,16.13-8.5H12.884a3.26,3.26,0,0,1,.651-1.954,4.306,4.306,0,0,1,1.842-1.409,6.712,6.712,0,0,1,2.673-.511,5.3,5.3,0,0,1,3.566,1.129,3.948,3.948,0,0,1,1.32,3.173v5.267a5.809,5.809,0,0,0,.483,2.617V0ZM17.455-2.257a2.8,2.8,0,0,0,1.325-.32,2.1,2.1,0,0,0,.9-.859V-5.525H18.465q-2.437,0-2.594,1.685l-.011.191a1.3,1.3,0,0,0,.427,1A1.658,1.658,0,0,0,17.455-2.257Zm11.017-9.894.1,1.359a4.27,4.27,0,0,1,3.493-1.583,3.241,3.241,0,0,1,3.223,1.853,4.172,4.172,0,0,1,3.65-1.853,3.624,3.624,0,0,1,2.942,1.151,5.291,5.291,0,0,1,.966,3.465V0H39.59V-7.749a2.314,2.314,0,0,0-.4-1.51,1.792,1.792,0,0,0-1.426-.477,2.026,2.026,0,0,0-2.021,1.393L35.749,0H32.5V-7.738a2.286,2.286,0,0,0-.416-1.527,1.809,1.809,0,0,0-1.415-.472,2.1,2.1,0,0,0-2,1.146V0H25.428V-12.151ZM48.765,0H45.508V-12.151h3.257ZM45.318-15.3a1.6,1.6,0,0,1,.489-1.2,1.835,1.835,0,0,1,1.331-.472,1.839,1.839,0,0,1,1.325.472,1.589,1.589,0,0,1,.494,1.2,1.593,1.593,0,0,1-.5,1.213,1.844,1.844,0,0,1-1.32.472,1.844,1.844,0,0,1-1.32-.472A1.593,1.593,0,0,1,45.318-15.3ZM54.863,0H51.607V-17.25h3.257Zm6.1,0H57.7V-12.151h3.257ZM57.514-15.3A1.6,1.6,0,0,1,58-16.5a1.835,1.835,0,0,1,1.331-.472,1.839,1.839,0,0,1,1.325.472,1.589,1.589,0,0,1,.494,1.2,1.593,1.593,0,0,1-.5,1.213,1.844,1.844,0,0,1-1.32.472,1.844,1.844,0,0,1-1.32-.472A1.593,1.593,0,0,1,57.514-15.3ZM70.676,0a3.6,3.6,0,0,1-.326-1.089A3.927,3.927,0,0,1,67.284.225,4.314,4.314,0,0,1,64.325-.809a3.323,3.323,0,0,1-1.174-2.605,3.434,3.434,0,0,1,1.432-2.965,7.065,7.065,0,0,1,4.138-1.044h1.494v-.7a2,2,0,0,0-.432-1.348,1.7,1.7,0,0,0-1.365-.505,1.934,1.934,0,0,0-1.286.393A1.335,1.335,0,0,0,66.667-8.5H63.421a3.26,3.26,0,0,1,.651-1.954,4.306,4.306,0,0,1,1.842-1.409,6.712,6.712,0,0,1,2.673-.511,5.3,5.3,0,0,1,3.566,1.129,3.948,3.948,0,0,1,1.32,3.173v5.267a5.809,5.809,0,0,0,.483,2.617V0ZM67.992-2.257a2.8,2.8,0,0,0,1.325-.32,2.1,2.1,0,0,0,.9-.859V-5.525H69q-2.437,0-2.594,1.685L66.4-3.65a1.3,1.3,0,0,0,.427,1A1.658,1.658,0,0,0,67.992-2.257Z" transform="translate(572.638 4994.869)" fill="#001c35"/>
  </g>
</svg>
