<svg xmlns="http://www.w3.org/2000/svg" xmlns:xlink="http://www.w3.org/1999/xlink" width="293" height="173" viewBox="0 0 293 173">
  <defs>
    <clipPath id="clip-path">
      <rect id="Rect치ngulo_411042" data-name="Rect치ngulo 411042" width="293" height="173" transform="translate(1243.051 4192.701)" fill="#fff" stroke="#707070" stroke-width="1"/>
    </clipPath>
    <clipPath id="clip-path-2">
      <rect id="Rect치ngulo_411041" data-name="Rect치ngulo 411041" width="239" height="245" transform="translate(0.068 -0.19)" fill="none"/>
    </clipPath>
  </defs>
  <g id="Enmascarar_grupo_1099188" data-name="Enmascarar grupo 1099188" transform="translate(-1243.051 -4192.701)" clip-path="url(#clip-path)">
    <g id="Grupo_1188553" data-name="Grupo 1188553" transform="translate(1277.051 4145.891)">
      <g id="Grupo_1188552" data-name="Grupo 1188552" transform="translate(-13.068 -9)" clip-path="url(#clip-path-2)">
        <path id="Trazado_1321603" data-name="Trazado 1321603" d="M252.289,295.045c-13.032-10.846-17.664-28.635-18.719-45.777a106.742,106.742,0,0,0-11.4-41.789c-.009,4.98-18.011,9.013-40.212,9.013s-40.207-4.037-40.207-9.018a2.181,2.181,0,0,1,.241-.988.178.178,0,0,1-.026.018c-6.6,12.921-12.245,32.668-13.137,47.214-1.055,17.138-5.687,34.931-18.719,45.777,3.068,0,6.351.629,9.419.633a35.165,35.165,0,0,0-.549,21.759,34.482,34.482,0,0,0,12.412,17.686c.457-2.452.664-4.257,1.121-6.71A35.785,35.785,0,0,0,150.694,361a37.986,37.986,0,0,0,17.085,4.945,139.149,139.149,0,0,1-.255-21.1q2.551,5.214,5.107,10.432a217.04,217.04,0,0,1,2.444-48,21.986,21.986,0,0,0,12.988.579,212.987,212.987,0,0,1,1.71,42.97q2.551-5.214,5.107-10.433a139.713,139.713,0,0,1-.255,21.1,37.96,37.96,0,0,0,17.08-4.944,35.788,35.788,0,0,0,18.183-28.131c.457,2.452.664,4.257,1.116,6.71a34.451,34.451,0,0,0,12.417-17.686,35.2,35.2,0,0,0-.549-21.759c3.068,0,6.351-.629,9.419-.633" transform="translate(-57.293 -106.861)" fill="#212543"/>
        <path id="Trazado_1321604" data-name="Trazado 1321604" d="M253.373,275.98c.023,4.316-.066,8.69-.316,12.776-.551,8.921-1.884,16.433-4.592,18.815-1.766,1.554-4.492,3.715-6.112,5.009a74.081,74.081,0,0,1-8.519,6.02c-11.561,6.833-20.24,5.558-32.772-2.8a105.231,105.231,0,0,1-10.143-7.507c-3.767-3.2-6.061-11.135-7.408-20.34v0l0-.058c-.343-2.353-.626-4.793-.852-7.257v-.009c-1.569-17.029-.584-35.228.084-35.449a69.874,69.874,0,0,0,18.733-9.6,11.806,11.806,0,0,1-1.168,7.155,14.623,14.623,0,0,0,12.437-7.126c.537,3.946,1.055,8.07-.278,11.809A30.16,30.16,0,0,0,216.9,235.4c.028-.154.047-.308.066-.462a25.771,25.771,0,0,0,6.55,8.589q-.155-3.638-.3-7.281a20.3,20.3,0,0,0,5.924,3.778,20.562,20.562,0,0,0,12.649,1.1c-.146-2.112-.292-4.234-.443-6.352a30.762,30.762,0,0,1,10.407,13.373c.414,1.029,1.563,14.118,1.625,27.831" transform="translate(-94.601 -121.284)" fill="#fcd2c8"/>
        <path id="Trazado_1321605" data-name="Trazado 1321605" d="M291.426,275.98c.023,4.316-.066,8.69-.316,12.776-.551,8.921-1.884,16.433-4.592,18.815-1.766,1.554-4.492,3.715-6.112,5.009a74.078,74.078,0,0,1-8.519,6.02c7.761-10.8,22.374-38.024,10.892-73.819a32.857,32.857,0,0,1-19.416-2.868c-.292,1.733-.589,3.46-.885,5.192a16.54,16.54,0,0,1-7.53-11.7c.028-.154.047-.308.066-.462a25.771,25.771,0,0,0,6.55,8.589q-.155-3.638-.3-7.281a20.3,20.3,0,0,0,5.924,3.778,20.562,20.562,0,0,0,12.649,1.1c-.146-2.112-.292-4.234-.443-6.352A30.762,30.762,0,0,1,289.8,248.148c.414,1.029,1.563,14.118,1.625,27.831" transform="translate(-132.653 -121.284)" fill="#e4b7af"/>
        <path id="Trazado_1321606" data-name="Trazado 1321606" d="M305,294.627a7.164,7.164,0,0,1-11.937,4.526,6.727,6.727,0,0,1-2.6-4.146,13.163,13.163,0,0,0,3.689,2.444c4.508,2.2,7.513.5,10.844-2.825" transform="translate(-151.135 -151.8)" fill="#20223a"/>
        <path id="Trazado_1321607" data-name="Trazado 1321607" d="M307.036,277.754a10.548,10.548,0,0,0-2.472-5.706c-5.393-7.1-13.617-10.267-20.656-4.3,2.714.121,12.975,3.272,17.077,5.634a28.653,28.653,0,0,1,6.051,4.372" transform="translate(-147.721 -136.496)" fill="#20223a"/>
        <path id="Trazado_1321608" data-name="Trazado 1321608" d="M306.493,316.247c.024,4.316-.066,8.69-.316,12.776a17.917,17.917,0,0,1-9.075,2.065c-7.4-.169-13.3-4.182-13.2-8.965s6.193-8.531,13.586-8.363a17.926,17.926,0,0,1,9,2.488" transform="translate(-147.72 -161.552)" fill="#f4a2a2"/>
        <path id="Trazado_1321609" data-name="Trazado 1321609" d="M259.73,352.183a6.486,6.486,0,0,1-12.624,1.624,11.781,11.781,0,0,0,3.472,1.834c4.16,1.543,6.6-.22,9.152-3.458" transform="translate(-128.573 -181.145)" fill="#20223a"/>
        <path id="Trazado_1321610" data-name="Trazado 1321610" d="M197.23,297.183a7.165,7.165,0,0,0,11.937,4.527,6.727,6.727,0,0,0,2.6-4.146,13.159,13.159,0,0,1-3.689,2.444c-4.508,2.2-7.513.5-10.844-2.825" transform="translate(-102.621 -153.103)" fill="#20223a"/>
        <path id="Trazado_1321611" data-name="Trazado 1321611" d="M185.2,274.806a10.536,10.536,0,0,1,2.67-5.612c5.639-6.9,13.969-9.762,20.794-3.541-2.716.022-13.081,2.8-17.263,5.006a28.58,28.58,0,0,0-6.2,4.147" transform="translate(-96.363 -135.276)" fill="#20223a"/>
        <path id="Trazado_1321612" data-name="Trazado 1321612" d="M184.423,329.647c2.331,2.642,6.781,4.364,11.853,4.249,7.4-.164,13.3-4.182,13.2-8.965s-6.192-8.527-13.586-8.363c-5.651.13-10.431,2.5-12.319,5.755Z" transform="translate(-95.512 -162.984)" fill="#f4a2a2"/>
        <path id="Trazado_1321613" data-name="Trazado 1321613" d="M256.491,305.51a.6.6,0,0,1-.578-.453.614.614,0,0,1,.423-.751c7.008-1.938,8.153-3.852,8.212-4.82.108-1.788-2.9-3.7-5.744-4.888l-.044-.019a.61.61,0,0,1-.366-.483l-2.237-16.723a.609.609,0,0,1,.513-.69.6.6,0,0,1,.675.523l2.191,16.376c2.177.946,6.381,3.145,6.209,5.979-.142,2.336-3.117,4.275-9.1,5.927a.58.58,0,0,1-.157.022" transform="translate(-133.144 -142.648)" fill="#20223a"/>
        <path id="Trazado_1321614" data-name="Trazado 1321614" d="M354.294,293.341a19.171,19.171,0,0,1-8.9,5.549,64.451,64.451,0,0,1-1.428-26.019,6.667,6.667,0,0,1,3.294-.969,8.3,8.3,0,0,1,2.983.37,10.684,10.684,0,0,1,6.755,6.787,14.209,14.209,0,0,1-2.7,14.282" transform="translate(-178.597 -140.206)" fill="#fcd2c8"/>
        <path id="Trazado_1321615" data-name="Trazado 1321615" d="M347.066,283.15a5.973,5.973,0,0,1,8.53,3.9c1.282,4.636-1.395,9.588-6.025,12.013-.7.368-1.592-.281-1.239-.906a16.206,16.206,0,0,0,2.253-7.346c.037-3.22-1.539-6.292-3.693-6.732-.342-.07-.255-.688.174-.93" transform="translate(-180.383 -145.589)" fill="#f4a2a2"/>
        <path id="Trazado_1321616" data-name="Trazado 1321616" d="M146.2,304.1a19.17,19.17,0,0,0,8.9,5.549,64.451,64.451,0,0,0,1.428-26.019,6.667,6.667,0,0,0-3.294-.969,8.3,8.3,0,0,0-2.983.37,10.684,10.684,0,0,0-6.755,6.787,14.209,14.209,0,0,0,2.7,14.282" transform="translate(-74.212 -145.691)" fill="#fcd2c8"/>
        <path id="Trazado_1321617" data-name="Trazado 1321617" d="M159.258,293.907a5.973,5.973,0,0,0-8.53,3.9c-1.282,4.636,1.395,9.588,6.025,12.013.7.368,1.592-.281,1.239-.906a16.206,16.206,0,0,1-2.253-7.346c-.037-3.22,1.539-6.292,3.693-6.732.342-.07.255-.688-.174-.93" transform="translate(-78.259 -151.073)" fill="#f4a2a2"/>
        <path id="Trazado_1321618" data-name="Trazado 1321618" d="M256.494,199.117v0c-.009,4.981-18.011,9.014-40.212,9.014s-40.207-4.038-40.207-9.018a2.184,2.184,0,0,1,.242-.988c.668-1.379,2.721-2.663,5.837-3.786,7.1-2.551,19.73-4.249,34.129-4.249,17.445,0,32.3,2.492,37.86,5.978,1.52.952,2.351,1.976,2.351,3.045" transform="translate(-91.614 -98.503)" fill="#1a1c33"/>
        <path id="Trazado_1321619" data-name="Trazado 1321619" d="M253.51,190.227a31.275,31.275,0,0,1,.365,5.32c-.3,0-.6.005-.9.005h-.392c-2.463,0-4.876-.063-7.215-.189-1.823-3.348,2.71-7.131,6.816-1.5-.061-1.737-.359-3.451-.555-5.171a14.127,14.127,0,0,1-4.656-2.511c-1.723-1.508-2.07-3.079-1.661-4.168.752-2.024,4.1-2.425,6.121,2.156a35.992,35.992,0,0,1,.437-4.317c-2.019-1.674-4.785-3.491-5.1-6.346-.017-1.393,1.139-2.981,2.631-2.333,1.784.86,2.743,2.981,3.282,4.809.354-1.364.78-2.706,1.251-4.036-.589-4.426.791-6.81,2.278-7.527a2.347,2.347,0,0,1,.448-.16c1.784-.459,3.439,1.439,1.762,5.068a13.767,13.767,0,0,1-2.845,3.308,15.926,15.926,0,0,0-1.15,3.382c1.464-1.508,3.215-2.74,5.419-2.442,1.392.1,2.985,1.365,2.014,2.855-.028.04-.056.074-.09.115a6.677,6.677,0,0,1-3.114,1.806,10.068,10.068,0,0,1-5.1.361,37.512,37.512,0,0,0-.4,8.209c1.862-1.886,7.9-6.1,7.854-1.066,0,.109-.005.218-.011.332a3.544,3.544,0,0,1-2.121,3.079c-1.559.751-3.692.785-5.363.957" transform="translate(-127.45 -85.3)" fill="#3e4bc0"/>
        <path id="Trazado_1321620" data-name="Trazado 1321620" d="M176.995,213.152c-.248.361-.494.717-.741,1.072a.655.655,0,0,1-.174-.321c-.051-.3.319-.55.915-.751" transform="translate(-91.614 -110.259)" fill="#fff"/>
        <path id="Trazado_1321621" data-name="Trazado 1321621" d="M185.993,165.781c-.606,1.376-1.077,2.379-1.268,2.758.516,1,1.178,2.155,1.919,3.359s1.532,2.442,2.339,3.64c.225.338.449.676.673,1-.4-.074-.8-.155-1.184-.229-.23-.052-.454-.1-.679-.143-.426-.642-.667-1.032-.667-1.032s-.494.034-1.3.074c-.483.017-1.083.04-1.756.052h-.011c-.2-.052-.381-.1-.572-.155-.146-.046-.3-.086-.443-.126q-1.835-.542-3.411-1.147-1.246-.473-2.306-.992a18,18,0,0,1-2.62-1.514c-.275-.189-.533-.39-.774-.59v-.109c.482-.063.981-.109,1.464-.144a16.833,16.833,0,0,1,2.681-.046c.258.028.522.063.78.1.124.012.253.029.376.046l.005.005c1.027.15,2.031.338,2.906.522.679.137,1.274.275,1.75.384v.006c.679.155,1.094.27,1.094.27s-.437-.831-1.038-2.041c-.443-.889-.976-1.984-1.492-3.107-.662-1.433-1.3-2.907-1.689-4.053l-.034-.1a22.415,22.415,0,0,1-2.407-.877,23.731,23.731,0,0,1-2.951-1.485,24.9,24.9,0,0,1-9.094-9.344c-.785-3.565,13.184,7.2,13.493,8.668-.061-.3-.123-.625-.179-.98l-10.267-16.6a1.133,1.133,0,0,1,1.481-.028,3.928,3.928,0,0,1,1.11,1.353q3.652,6.088,7.31,12.176c-.174-1.926-.275-3.927-.286-5.216-.023-3.233-.718-6.5-.045-9.757.881-4.248,3.472-8.249,6.575-9.763a.679.679,0,0,1,.881.745,43.827,43.827,0,0,1-6.171,19.284,32.663,32.663,0,0,0,1.582,9c.157.568.326,1.135.488,1.691.354,1.175.7,2.327,1.015,3.405.2.688.388,1.353.544,1.978-1.116-4.345,1.122-9.654,3.254-13.323a28.827,28.827,0,0,1,2.828-4.116c.045-.051.084-.1.123-.138a.72.72,0,0,1,.988.424c.314.785.028,2.488-.567,4.569a102.949,102.949,0,0,1-4.449,11.637" transform="translate(-86.503 -68.168)" fill="#3e4bc0"/>
        <path id="Trazado_1321622" data-name="Trazado 1321622" d="M168.267,148.642l.646-4.1a1.827,1.827,0,0,1,2.625-1.408,2.217,2.217,0,0,1,.563.446,1.893,1.893,0,0,1-.412,2.812l-3.422,2.255,3.748-.709a1.859,1.859,0,0,1,2.137,2.3,2.233,2.233,0,0,1-.183.447,1.8,1.8,0,0,1-2.758.458l-2.945-2.5L169.936,152a1.882,1.882,0,0,1-1.506,2.745h-.056a1.878,1.878,0,0,1-1.635-2.677l1.528-3.426-2.867,2.664a1.8,1.8,0,0,1-2.769-.322,2.272,2.272,0,0,1-.208-.444,1.863,1.863,0,0,1,2.018-2.412l3.826.514-3.564-2.072a1.89,1.89,0,0,1-.558-2.791,2.218,2.218,0,0,1,.545-.476,1.824,1.824,0,0,1,2.688,1.254Z" transform="translate(-84.46 -74.451)" fill="#f47f7f"/>
        <path id="Trazado_1321623" data-name="Trazado 1321623" d="M174.617,152.426a1.5,1.5,0,0,1-1.127,1.778,1.467,1.467,0,0,1-1.74-1.151,1.5,1.5,0,0,1,1.127-1.778,1.467,1.467,0,0,1,1.74,1.151" transform="translate(-89.347 -78.694)" fill="#3e4bc0"/>
        <path id="Trazado_1321624" data-name="Trazado 1321624" d="M301.675,215.157c-.23.051-.46.109-.7.16q-1.641.37-3.417.682c-.09.023-.179.034-.269.052-.252.046-.511.092-.769.132-.527.092-1.066.177-1.61.258l-.2-.4c-.477-.969-.87-2.024-1.375-3.113A16.843,16.843,0,0,0,292,210.514a13.736,13.736,0,0,0-1.2-1.542c-1.072-1.961,2.149-1.5,5.543.688a15.812,15.812,0,0,1,5.33,5.5" transform="translate(-151.2 -107.495)" fill="#fff"/>
        <path id="Trazado_1321625" data-name="Trazado 1321625" d="M341.847,167.055c-.224,2.986-2.452,5.366-4.527,7.275a11.53,11.53,0,0,1-11.064,3.657,29.687,29.687,0,0,0-5.986,4.053c9.2-3.342,7.069-.241,14.906.734,2.081.854-2.188,3.9-3.17,4.317-4.051,2.087-7.462.785-11.018-.613-1.234-.487-2.485-.986-3.792-1.359a25.309,25.309,0,0,0-3.54,5.257c-.544.177-1.111.344-1.694.51a21.454,21.454,0,0,1,1.907-3.566c-5.055-.046-6.177-2.557-7.063-7.188a62.514,62.514,0,0,1-.965-6.38,15.468,15.468,0,0,0-.393-1.749.694.694,0,0,1,.247-.86c.252-.2.566-.063.914.247a10.267,10.267,0,0,1,1.139,1.324,6.8,6.8,0,0,0,1.442,1.582c1.812,1.685,3.972,3.325,5.347,5.383a7.538,7.538,0,0,1,1.386,4.9,28.546,28.546,0,0,1,1.98-2.156,30.429,30.429,0,0,1,2.643-2.35c-.83-1.737-2.643-2.78-3.349-4.6a14.964,14.964,0,0,1,2.143-13.77.677.677,0,0,1,1.217.27c.477,4.443,3.372,8.84,3.2,13.271l5.144-13.764.825.407c-1.257,6.1-2.222,7.687-5.969,15.948a15.89,15.89,0,0,1,2.519-1.341c2.968-7.12,6.665-8.576,13.722-9.895.623-.143,1.694-.527,1.846.459" transform="translate(-158.899 -83.882)" fill="#9cdcff"/>
        <path id="Trazado_1321626" data-name="Trazado 1321626" d="M345.44,140.768l2.462-6.482a3.035,3.035,0,0,1,4.774-1.365,3.75,3.75,0,0,1,.768.93,3.15,3.15,0,0,1-1.636,4.452l-6.369,2.464,6.373.181a3.137,3.137,0,0,1,2.707,4.531,3.768,3.768,0,0,1-.452.667,3.014,3.014,0,0,1-4.667-.237l-3.961-5.143,1.58,6.087a3.121,3.121,0,0,1-3.4,3.951l-.092-.017a3.164,3.164,0,0,1-1.757-4.963l3.672-5.057-5.6,3.332a3.03,3.03,0,0,1-4.418-1.516,3.835,3.835,0,0,1-.189-.8,3.087,3.087,0,0,1,4.125-3.223l6.081,2.208-5.12-4.663a3.167,3.167,0,0,1,.043-4.764,3.654,3.654,0,0,1,1.053-.583,3.077,3.077,0,0,1,3.967,3.012Z" transform="translate(-174.414 -68.168)" fill="#fff"/>
        <path id="Trazado_1321627" data-name="Trazado 1321627" d="M356.26,148.945a2.176,2.176,0,1,1-2.175-2.223,2.2,2.2,0,0,1,2.175,2.223" transform="translate(-183.103 -76.39)" fill="#9cdcff"/>
        <path id="Trazado_1321628" data-name="Trazado 1321628" d="M287.228,161.28c2.648-1.381,7.321-2.614,8.3-5.692-1.425-3.216-6.715,2.757-8.645,3.559,3.535-13.913-5.021-7.137-2.5,1.68-.365.235-.718.476-1.06.74a16.237,16.237,0,0,0-2.435,2.253,41.758,41.758,0,0,0-.814-4.964c-1.548-6.489-3.9-5.641-3.894-1.628a18.652,18.652,0,0,0,2.883,9.1,23.612,23.612,0,0,0-1.369,2.586c-.488-2.04-.892-4.575-2.8-5.761a1.8,1.8,0,0,0-2.817,1.439c.017,1.249.982,2.149,1.768,2.986a24.543,24.543,0,0,1,2.895,3.743c-.275.825-.511,1.657-.707,2.5a25.084,25.084,0,0,0-3.215-3.9c-4.1-3.932-6.373-2.046-3.114,1.806a24.469,24.469,0,0,0,5.846,4.741,28.4,28.4,0,0,0-.247,4.145,22.791,22.791,0,0,0-3.248-1.382c-6.962-2.3-7.8,2.311-2.132,3.411a16.5,16.5,0,0,0,5.476,0,26.739,26.739,0,0,0,1.111,5.675c.578-.057,1.15-.115,1.711-.177.365-.04.73-.086,1.088-.132q.825-.094,1.633-.206c.392-.2.746-.39,1.071-.579,4.876-2.906,2.777-5.767-1.374-3.113a14.489,14.489,0,0,0-2.811,2.419,25.317,25.317,0,0,1-.729-4.729,10.209,10.209,0,0,1,2.2-.109c1.582.046,3.221.143,4.343-.854.05-.046.107-.1.157-.149.959-3.543-4.92-2.614-6.732-1.593a26.451,26.451,0,0,1,.443-3.772c2.284-.023,4.59-.063,6.878-.155a1.57,1.57,0,0,0,.769-2.958c-2.233-1.066-4.808-.321-7.013.527.179-.59.376-1.169.595-1.737a1.864,1.864,0,0,0,.5-.4c1.818-1.043,4.191-1.284,6.194-2.058a7.836,7.836,0,0,0,1.346-.642,4.683,4.683,0,0,0,.561-.4,4.783,4.783,0,0,0,1.088-1.152c.539-2.4-1.072-2.453-2.99-1.777a23.9,23.9,0,0,0-4.741,2.482,13.564,13.564,0,0,1,3.72-4.11c.039-.034.079-.063.118-.092,2.5.121,9.975,4.294,11.063,1.4.623-3.749-6.1-2.907-8.382-2.97M269.971,184.79c-1.65-.229-2.076,1.37-1.447,2.516a2.058,2.058,0,0,0,.662.74c.376.252.757.487,1.156.711,1.021-.051,2.025-.109,3.018-.177,1.038-.075,2.053-.161,3.058-.258a20.812,20.812,0,0,0-6.446-3.531" transform="translate(-138.503 -78.664)" fill="#f47f7f"/>
        <path id="Trazado_1321629" data-name="Trazado 1321629" d="M169.851,193.371a1.193,1.193,0,0,0-1.481.774,14.046,14.046,0,0,0-.561,3.182c-.045.591-.061,1.181-.056,1.766v.006q.009.826.051,1.634a22.685,22.685,0,0,0-1.8-2.023,21.794,21.794,0,0,0-1.75-1.576,16.54,16.54,0,0,0,2.065-2.912,9.672,9.672,0,0,0,.814-1.88c.7-2.247.011-3.6-1.016-3.405a2.585,2.585,0,0,0-1.487,1.232,13.906,13.906,0,0,0-1.767,5.928,23.922,23.922,0,0,0-3.058-1.8c.039-.934.034-1.8,0-2.591a18.21,18.21,0,0,0-.567-4c-.814-2.946-2.227-3.474-2.743-1.88-.4,1.255-.247,3.83,1.212,7.567a21.432,21.432,0,0,0-2.109-.665,21.435,21.435,0,0,1-1.274-3.938,4.158,4.158,0,0,0-1.274-2.729,1.565,1.565,0,0,0-2.367,1.4c-.068,1.978,1.531,3.485,2.749,4.821a20.179,20.179,0,0,0-2.485-.224c-4.707-10.181-13.9-9.441-2.648.155a13.713,13.713,0,0,0-3.787,1.158c-5.043-6.082-13.936-2.986-2.384,1.044-1.492,1.044-8.253,2.11-6.654,4.7,2.648.751,5.756-2.121,7.994-3.417-1.043,1.714-4.847,6.289-1.9,7.613,2.563.579,3.18-6.948,4.291-8.851a11.387,11.387,0,0,1,4.808-.837c-1.526.659-8.033,3.927-4.2,5.389,3.058-.069,4.847-3.422,7.405-4.775a1.463,1.463,0,0,0,.522-.183c.51.109,1.016.241,1.515.39-1.655,1.227-3.406,2.78-3.72,4.942a1.327,1.327,0,0,0,2.463.843c.112-.161.23-.327.342-.493.247-.355.494-.711.741-1.072.779-1.141,1.554-2.3,2.311-3.451l.084.034a22.312,22.312,0,0,1,2.8,1.439,7.158,7.158,0,0,0-1.683,1.4,8.124,8.124,0,0,0-.69.843,18.052,18.052,0,0,0,2.62,1.513,18.977,18.977,0,0,1,1.532-2.3,1.572,1.572,0,0,1,.129-.149c.084.063.163.126.247.2l.005.006a21.314,21.314,0,0,1,2.749,2.6,12.733,12.733,0,0,0-2.356.637q1.574.6,3.411,1.146c.078-.057.151-.121.23-.178.073.1.146.2.213.3.191.051.376.1.572.155h.012c.533.149,1.072.292,1.632.424.039-.16.079-.315.124-.475.28-1.084.578-2.2.819-3.314a19.792,19.792,0,0,0,.555-4.374,1.868,1.868,0,0,0-1.206-1.743m4.819,9.121a1.6,1.6,0,0,0-1.829.636,4.483,4.483,0,0,0-.51.774c.387.075.785.155,1.184.229.555.1,1.116.206,1.689.3a1.7,1.7,0,0,0-.533-1.943" transform="translate(-70.361 -95.758)" fill="#9cdcff"/>
        <path id="Trazado_1321630" data-name="Trazado 1321630" d="M226.965,178.265c-.639,1.531-2.4,3.153-5.851,4.276a41.9,41.9,0,0,0,2.115,4.775c-.69-.046-1.369-.1-2.042-.154-.926-1.978-1.672-3.887-1.8-4.3l-.034-.017c-.712.206-1.5.418-2.306.579a9.453,9.453,0,0,1-4.18.04,4.563,4.563,0,0,1-2.48-1.622c-1.06-1.238-.948-3.755,1.038-3.778a12.807,12.807,0,0,1,1.33.224,29.068,29.068,0,0,1,4.959,1.8c.319.138.639.27.954.4a22.432,22.432,0,0,1-.6-3.6c-.078-.854-.123-1.714-.163-2.568a22.32,22.32,0,0,1-4.925.178,3.729,3.729,0,0,1-3.366-2.849c-.881-3.715,2.02-3.491,4.707-2.465a16.766,16.766,0,0,1,3.349,1.731c-.106-.992-.281-2.1-.51-3.222a36.048,36.048,0,0,0-1.375-5,9.636,9.636,0,0,1-4.4.659,9.231,9.231,0,0,1-3.372-.74,3.821,3.821,0,0,1-1.021-.665c-1.251-1.324.134-2.895,1.52-3.261a4.949,4.949,0,0,1,2.328-.19,5.871,5.871,0,0,1,1.111.287,10.281,10.281,0,0,1,2.474,1.353,16.045,16.045,0,0,0-1.772-3.2s-.662-.384-1.431-.941a8.933,8.933,0,0,1-2.036-1.868c-4.443-6.346,4.286-8.662,4.976,1.359.011.143.022.292.028.447.718,1.249,1.392,2.534,2,3.847a10.336,10.336,0,0,1,1.189-4.065,4.73,4.73,0,0,1,1.257-1.421c1.392-.929,2.85.459,3.08,1.869.011.132.011.269.011.4v.012c-.045,2.752-2.367,4.987-4.022,6.959a35.217,35.217,0,0,1,1.217,4.282c2.283-9.333,12.28-2.052.623,4.609.107,1.777.118,3.56.365,5.325,1.627-3.359,3.832-4.167,5.4-3.652a3,3,0,0,1,1.661,4.168" transform="translate(-107.447 -77.379)" fill="#f47f7f"/>
        <path id="Trazado_1321631" data-name="Trazado 1321631" d="M234.147,163.58c-.067.138-.152.275-.23.407l-.011.012c-1.717,2.677-5.363,3.405-8.191,4.3a41.928,41.928,0,0,1-1.4,4.993c7.922-7.744,13.341,5.773-2.194,4.936-.971,1.817-2.048,3.583-2.878,5.475,3.647-2.276,6.311-1.674,7.54-.172a3.42,3.42,0,0,1,.331,3.8q-3.349-.138-6.5-.436a.625.625,0,0,0,.039.086c-.129-.04-.252-.08-.376-.115-.011,0-.022-.006-.034-.006-.634-.057-1.262-.126-1.885-.2h-.017c-.662-.08-1.312-.155-1.958-.247-.348-.04-.69-.086-1.032-.137-2.183-.31-4.247-.671-6.177-1.078a4.72,4.72,0,0,1-.337-.338,5.458,5.458,0,0,1-1.459-3.17c-.292-1.891,1.346-4.3,3.321-3.061a14.739,14.739,0,0,1,1.172,1.06,35.518,35.518,0,0,1,3.793,4.924c.23.338.465.671.7,1a25.694,25.694,0,0,1,1.593-3.933c.443-.888.921-1.766,1.4-2.631a26.423,26.423,0,0,1-4.959-2.952,4.462,4.462,0,0,1-1.582-4.942c1.386-4.219,4.112-2.161,6.132.556a20.537,20.537,0,0,1,2.25,3.835c.5-1.043,1-2.247,1.453-3.5a42.471,42.471,0,0,0,1.688-5.8,11.24,11.24,0,0,1-4.741-2.144,11,11,0,0,1-2.872-2.866,4.6,4.6,0,0,1-.6-1.307c-.426-2.1,1.89-2.763,3.478-2.247a5.841,5.841,0,0,1,2.407,1.29,6.944,6.944,0,0,1,.92.992,12,12,0,0,1,1.616,2.9,18.731,18.731,0,0,0,.2-4.282s-.415-.8-.836-1.835a14.553,14.553,0,0,1-.685-2.029,5.649,5.649,0,0,1-.185-1.106c-.415-7.212,5.823-6.633,5.678-.906a12.444,12.444,0,0,1-1.6,5.406c-.073.149-.151.3-.241.458-.05,1.686-.168,3.377-.37,5.056a11.73,11.73,0,0,1,3.641-3.25,5.388,5.388,0,0,1,2.1-.6c1.936-.029,2.53,2.264,1.9,3.795" transform="translate(-107.885 -77.203)" fill="#fff"/>
        <path id="Trazado_1321632" data-name="Trazado 1321632" d="M236.2,131.449l2.693-7.088a3.318,3.318,0,0,1,5.22-1.492,4.085,4.085,0,0,1,.84,1.017,3.444,3.444,0,0,1-1.789,4.868l-6.965,2.7,6.969.2a3.431,3.431,0,0,1,2.961,4.955,4.111,4.111,0,0,1-.495.729,3.3,3.3,0,0,1-5.1-.259l-4.332-5.623,1.728,6.656a3.413,3.413,0,0,1-3.722,4.32l-.1-.019a3.459,3.459,0,0,1-1.921-5.427l4.016-5.53-6.124,3.643a3.314,3.314,0,0,1-4.831-1.658,4.194,4.194,0,0,1-.206-.875,3.376,3.376,0,0,1,4.511-3.525l6.65,2.414-5.6-5.1a3.463,3.463,0,0,1,.047-5.21,4.009,4.009,0,0,1,1.152-.637,3.365,3.365,0,0,1,4.337,3.294Z" transform="translate(-117.077 -62.932)" fill="#3e4bc0"/>
        <path id="Trazado_1321633" data-name="Trazado 1321633" d="M248.032,140.39a2.38,2.38,0,1,1-2.379-2.431,2.4,2.4,0,0,1,2.379,2.431" transform="translate(-126.579 -71.922)" fill="#fff"/>
        <path id="Trazado_1321634" data-name="Trazado 1321634" d="M299.815,148.416l1.541-4.057a1.9,1.9,0,0,1,2.989-.854,2.357,2.357,0,0,1,.481.582,1.972,1.972,0,0,1-1.024,2.787l-3.987,1.543,3.989.113a1.964,1.964,0,0,1,1.695,2.836,2.336,2.336,0,0,1-.283.418,1.886,1.886,0,0,1-2.921-.148l-2.479-3.219.989,3.81a1.954,1.954,0,0,1-2.131,2.473l-.058-.011a1.98,1.98,0,0,1-1.1-3.107l2.3-3.165-3.506,2.086a1.9,1.9,0,0,1-2.765-.949,2.426,2.426,0,0,1-.118-.5,1.933,1.933,0,0,1,2.583-2.017l3.807,1.382-3.2-2.919a1.982,1.982,0,0,1,.027-2.982,2.288,2.288,0,0,1,.66-.365,1.926,1.926,0,0,1,2.483,1.886Z" transform="translate(-152.666 -74.007)" fill="#3e4bc0"/>
        <path id="Trazado_1321635" data-name="Trazado 1321635" d="M306.589,153.536a1.362,1.362,0,1,1-1.362-1.392,1.377,1.377,0,0,1,1.362,1.392" transform="translate(-158.105 -79.154)" fill="#fff"/>
        <path id="Trazado_1321636" data-name="Trazado 1321636" d="M269.545,480.952c-46.65,22.409-144.842,23.631-200.576.736,0,0,16.826-30.276,23.528-35.367,12.921-9.816,49.739-12.829,49.852-12.713,5.881,6.318,12.281,10.336,20.809,10.062,11.029-.351,20.236-11.842,20.481-12.165,17.608,1.217,46.428,5.443,56.392,12.675,7.168,5.2,19.105,23.8,29.513,36.773" transform="translate(-35.886 -221.588)" fill="#f47f7f"/>
        <path id="Trazado_1321637" data-name="Trazado 1321637" d="M263.232,393.512v18.622c-.245.323-9.451,11.813-20.48,12.164-8.529.274-14.928-3.744-20.81-10.062V396.731c15.413,10.283,25,9.845,41.29-3.219" transform="translate(-115.479 -202.217)" fill="#fcd2c8"/>
        <path id="Trazado_1321638" data-name="Trazado 1321638" d="M263.232,393.514v11.232c-19.171,14.826-32.808,8.989-41.289-2.255v-5.757c15.414,10.28,25,9.844,41.289-3.22" transform="translate(-115.48 -202.218)" fill="#e4b7af"/>
        <path id="Trazado_1321639" data-name="Trazado 1321639" d="M263.232,393.512s-2.819,12.125-17.848,14.628c-8.2,1.366-16.84-2.445-23.442-8.368v-3.041c15.413,10.283,25,9.845,41.29-3.219" transform="translate(-115.479 -202.217)" fill="#f4a2a2"/>
      </g>
    </g>
  </g>
</svg>
