<svg xmlns="http://www.w3.org/2000/svg" xmlns:xlink="http://www.w3.org/1999/xlink" width="118" height="118" viewBox="0 0 118 118">
  <defs>
    <filter id="Elipse_12115" x="0" y="0" width="118" height="118" filterUnits="userSpaceOnUse">
      <feOffset dy="3" input="SourceAlpha"/>
      <feGaussianBlur stdDeviation="3" result="blur"/>
      <feFlood flood-opacity="0.161"/>
      <feComposite operator="in" in2="blur"/>
      <feComposite in="SourceGraphic"/>
    </filter>
    <clipPath id="clip-path">
      <rect id="Rectángulo_410273" data-name="Rectángulo 410273" width="64.049" height="64.049" fill="none"/>
    </clipPath>
    <clipPath id="clip-path-3">
      <rect id="Rectángulo_410277" data-name="Rectángulo 410277" width="63.213" height="63.213" fill="none"/>
    </clipPath>
  </defs>
  <g id="Grupo_1186629" data-name="Grupo 1186629" transform="translate(-745.832 -3846)">
    <g id="Grupo_1181949" data-name="Grupo 1181949" transform="translate(-53.949 1303)">
      <g transform="matrix(1, 0, 0, 1, 799.78, 2543)" filter="url(#Elipse_12115)">
        <g id="Elipse_12115-2" data-name="Elipse 12115" transform="translate(9 6)" fill="#eceff0" stroke="#f5f5f5" stroke-width="1.5">
          <circle cx="50" cy="50" r="50" stroke="none"/>
          <circle cx="50" cy="50" r="49.25" fill="none"/>
        </g>
      </g>
    </g>
    <g id="Grupo_1186641" data-name="Grupo 1186641" transform="translate(772.756 3869.976)">
      <g id="Grupo_1186640" data-name="Grupo 1186640" transform="translate(0.075 0.024)" clip-path="url(#clip-path-3)">
        <path id="Trazado_1243701" data-name="Trazado 1243701" d="M41.227,42.071a14.1,14.1,0,0,1,2.187-1.458c.693.153,1.238.586,1.973.687a4.737,4.737,0,0,0,3.519-.811c.357.321,2.185,1.076,2.181,1.519a12.174,12.174,0,0,1-.8,1.3,8.469,8.469,0,0,0-.68,2.4v9.427H42.213V45.645c-.327.005-.659-.008-.986,0Z" transform="translate(-28.535 -28.024)" fill="#fdfdfd"/>
        <path id="Trazado_1243702" data-name="Trazado 1243702" d="M51.233,94.052c1.764-.012,3.535.009,5.3,0v11.706H54.067V96.393H52.219v9.366c-.327.005-.659-.009-.986,0Z" transform="translate(-35.461 -65.095)" fill="#fdfdfd"/>
        <path id="Trazado_1243703" data-name="Trazado 1243703" d="M46.524,94.059v11.706a4.486,4.486,0,0,1-1.357-.06c-.065-.221-.738-1.162-.738-1.234V94.059c.7,0,1.4,0,2.095,0" transform="translate(-30.751 -65.102)" fill="#e2e8ed"/>
        <path id="Trazado_1243704" data-name="Trazado 1243704" d="M35.41,49.2c-.287.007-.577-.006-.863,0V56.6H32.822V49.018c0-1.149,1.747-2.735,2.588-3.389Z" transform="translate(-22.717 -31.582)" fill="#dfe5ea"/>
        <path id="Trazado_1243705" data-name="Trazado 1243705" d="M56.76,21.864a6.381,6.381,0,0,1-.867-4.5,3.44,3.44,0,0,1,.99-2.152,2.028,2.028,0,0,1,1.651,1.122c.772,1.51.741,4.794-1.156,5.476a2.593,2.593,0,0,1-.618.056" transform="translate(-38.646 -10.527)" fill="#fcd8a7"/>
        <path id="Trazado_1243706" data-name="Trazado 1243706" d="M31.223,98.864v6.654a4.583,4.583,0,0,0-3.2-.493l1.232-6.161Z" transform="translate(-19.394 -68.428)" fill="#f8f8f8"/>
        <path id="Trazado_1243707" data-name="Trazado 1243707" d="M51.954,15.038a3.439,3.439,0,0,0-.99,2.152,6.381,6.381,0,0,0,.867,4.5,1.507,1.507,0,0,1-.549.134c-2.3-.04-2.7-2.424-2.536-4.267a2.531,2.531,0,0,1,3.208-2.522" transform="translate(-33.717 -10.356)" fill="#fbb57c"/>
        <path id="Trazado_1243708" data-name="Trazado 1243708" d="M63.766,140.185H60.439V138.09h2.649a5.646,5.646,0,0,1,.678,2.095" transform="translate(-41.832 -95.578)" fill="#f6f6f6"/>
        <rect id="Rectángulo_410274" data-name="Rectángulo 410274" width="1.725" height="1.725" transform="translate(10.104 26.862)" fill="#f3af78"/>
        <path id="Trazado_1243709" data-name="Trazado 1243709" d="M51.656,138.04v1.972a4.535,4.535,0,0,1-1.234-1.786c-.054-.38.98-.105,1.234-.185" transform="translate(-34.897 -95.528)" fill="#d2d8dc"/>
        <path id="Trazado_1243710" data-name="Trazado 1243710" d="M17.258,86.055c.63,1.551.237,3.672-.057,5.3-.31,1.72-.835,4.3-1.328,5.942-.121.4-.583.813-.768,1.327a4.21,4.21,0,0,0,.086,3.234l4.3,7.345,1.579-.734c.114-.158-.245-.75-.341-.936-1.027-1.991-3.037-4.455-3.809-6.419a2.244,2.244,0,0,1,2.993-2.993c1.518.759,3.427,5.672,4.866,7.334,1.542,1.782,4.7,3.351,5.637,5.577.872,2.064.059,5.364-.094,7.613-.09,1.316-.075,2.683-.125,4-2.13.04-4.277.01-6.407,0l-.093-5.637a103.167,103.167,0,0,1-7.229-10.023c-.976-1.612-2.643-4.415-2.874-6.244-.427-3.367,1.841-9.874,3.015-13.186a6.59,6.59,0,0,1,.65-1.507" transform="translate(-9.372 -59.562)" fill="#fdd9a7"/>
        <path id="Trazado_1243711" data-name="Trazado 1243711" d="M7.453,89.776c.212.06.794.168.924,0l2.584-7.152c.667-.374,1.314.423,1.544.989a6.594,6.594,0,0,0-.65,1.507c-1.175,3.312-3.442,9.819-3.015,13.186.232,1.829,1.9,4.633,2.874,6.244a103.119,103.119,0,0,0,7.229,10.023l.093,5.637c-.7,0-1.4.006-2.095,0l-.064-5.789A97.787,97.787,0,0,1,9.545,104.5c-.886-1.426-2.667-4.313-2.83-5.919-.229-2.257.533-4.736,1.111-6.895-.278-.055-.61-.253-.866-.312Z" transform="translate(-4.619 -57.122)" fill="#fcb67d"/>
        <path id="Trazado_1243712" data-name="Trazado 1243712" d="M2.809,110.969c.256.059.588.257.866.312-.578,2.159-1.339,4.638-1.111,6.894.163,1.606,1.944,4.493,2.83,5.919a97.756,97.756,0,0,0,7.332,9.919l.064,5.789c-.614-.006-1.234,0-1.848,0v-4.991c-2.992-3.91-6.353-7.925-8.647-12.3C.636,119.347.347,117.832,1,114.27c.21-1.15.571-2.279.835-3.415a3.073,3.073,0,0,1,.977.114" transform="translate(-0.468 -76.713)" fill="#040303"/>
        <path id="Trazado_1243713" data-name="Trazado 1243713" d="M147.753,21.864a3.537,3.537,0,0,1-.991-2.274c-.116-1.487-.131-3.278.991-4.38,1.961.441,2.236,2.085,2.1,3.887-.108,1.43-.657,2.48-2.1,2.767" transform="translate(-101.544 -10.527)" fill="#fcd8a7"/>
        <path id="Trazado_1243714" data-name="Trazado 1243714" d="M142.707,15.039c-1.122,1.1-1.107,2.893-.991,4.38a3.537,3.537,0,0,0,.991,2.274c-4.5.9-4.266-7.614,0-6.654" transform="translate(-96.498 -10.357)" fill="#fbb57c"/>
        <rect id="Rectángulo_410275" data-name="Rectángulo 410275" width="1.725" height="1.725" transform="translate(51.507 26.862)" fill="#f6d4a3"/>
        <path id="Trazado_1243715" data-name="Trazado 1243715" d="M151.3,138.04c.254.08,1.289-.194,1.234.185a4.535,4.535,0,0,1-1.234,1.786Z" transform="translate(-104.72 -95.528)" fill="#e2e8ed"/>
        <path id="Trazado_1243716" data-name="Trazado 1243716" d="M154.783,110.639c-.32.479-.871.888-.986,1.479-.142-.111-.739-.617-.863-.563l-2.316,2.867-.025,5.7c-2.215.019-4.439.013-6.654,0,.379-3.543-1.033-8.936,1.416-11.831.665-.786,1.649-1.351,2.344-2.092,1.734-1.848,3.725-5.416,5.01-7.682a16.637,16.637,0,0,0,1.458-2.917A2.152,2.152,0,0,1,155.3,98.77l-4.071,6.985,1.573.933,4.223-7.179a12.511,12.511,0,0,0,.471-1.44c.946-1.178.761-3.174.615-4.62a49.73,49.73,0,0,0-2.587-10.536c.3-.3.556-.73,1.051-.373a86.1,86.1,0,0,1,3.6,10.7c.959,4.032,1.06,5.439-.929,9.1a72.935,72.935,0,0,1-5.058,7.519c-.089.189.443.666.6.778" transform="translate(-99.579 -57.037)" fill="#fdd9a7"/>
        <path id="Trazado_1243717" data-name="Trazado 1243717" d="M148.782,124.822a16.657,16.657,0,0,1-1.457,2.917c-1.285,2.266-3.276,5.834-5.01,7.682-.7.741-1.68,1.306-2.344,2.092-2.449,2.9-1.036,8.288-1.416,11.831-.614,0-1.234.006-1.848,0-.035-1.322-.034-2.686-.125-4-.156-2.254-.967-5.541-.088-7.607.807-1.9,3.287-3.385,4.774-4.715,1.859-1.663,2.571-3.749,3.8-5.814.889-1.5,1.7-3.176,3.718-2.382" transform="translate(-94.194 -86.254)" fill="#fcb67d"/>
        <path id="Trazado_1243718" data-name="Trazado 1243718" d="M181.759,99.21a5.492,5.492,0,0,0-.548-2.471c-.142-.31-.4-.456-.529-.827a50.745,50.745,0,0,1-1.619-7.623c-.166-1.425-.379-3.159.724-4.236a49.721,49.721,0,0,1,2.587,10.536c.146,1.446.331,3.442-.615,4.62" transform="translate(-123.844 -58.177)" fill="#fbb67d"/>
        <path id="Trazado_1243719" data-name="Trazado 1243719" d="M168.911,177.642c.145.114.675.383.611.549l-1.967,2.47v4.991c-.614,0-1.234-.005-1.848,0l.025-5.705,2.316-2.867c.123-.054.72.452.863.563" transform="translate(-114.693 -122.561)" fill="#040303"/>
        <path id="Trazado_1243720" data-name="Trazado 1243720" d="M36.849,0c4.878.838,5.548,6.6,3.574,10.348.9.1,2.705,1.951,3.3,2.076.327.07,1.933-1.184,2.361-1.414-1.175-3.156-.457-8.049,3.642-8.3,4.606-.285,5.87,4.786,4.265,8.309,1.855,1.17,4.091,2.647,5.026,4.712a11.023,11.023,0,0,1,.51,1.461v6.839a6.228,6.228,0,0,1,.885-.409c.486-.136,2.016-.419,2.308-.012a95.016,95.016,0,0,1,4.263,12.741l.676,3.575v1.6c-1.273,4.609-4.26,8.46-7.015,12.268-.224.349-.726,0-.994-.193-.159-.112-.69-.589-.6-.778A72.934,72.934,0,0,0,64.1,45.3c1.988-3.665,1.887-5.072.929-9.1a86.1,86.1,0,0,0-3.6-10.7c-.494-.357-.748.078-1.051.373-1.1,1.077-.89,2.81-.724,4.236a50.744,50.744,0,0,0,1.619,7.623c.127.37.387.516.529.826a5.5,5.5,0,0,1,.548,2.471,12.508,12.508,0,0,1-.471,1.439l-4.223,7.179-1.573-.933,4.071-6.985a2.153,2.153,0,0,0-1.131-3.165c-2.014-.794-2.829.884-3.718,2.382-1.227,2.065-1.939,4.151-3.8,5.814-1.487,1.33-3.966,2.817-4.774,4.715-.879,2.066-.067,5.353.088,7.607.091,1.318.089,2.682.124,4-.4,0-1.844.135-1.954-.2-.081-1.141.046-2.3-.012-3.438-.164-3.208-1.351-6.765.561-9.657A20.454,20.454,0,0,1,48.8,46.454H43.873V44.3c0-.462.986-2.417.986-2.834V34.625l-2.6,1.184,0,12.065A24.384,24.384,0,0,0,43.5,50.582v2.4H37.4c-.273,0-1.06-.621-1.357-.611-.217.007-.948.611-1.231.611h-6.1v-2.4c0-.359,1.176-2,1.109-2.587l.007-12.186-2.472-1.184v6.839c0,.423.986,2.411.986,2.834v2.156H23.418c1.475,1.4,3.335,2.791,4,4.811.813,2.475-.053,5.613-.185,8.184-.058,1.14.069,2.3-.012,3.438-.111.339-1.552.195-1.954.2.05-1.32.035-2.687.124-4,.153-2.25.966-5.549.094-7.613-.94-2.226-4.095-3.795-5.637-5.577-1.439-1.662-3.347-6.574-4.865-7.334a2.244,2.244,0,0,0-2.993,2.993c.772,1.964,2.782,4.428,3.809,6.419.1.185.454.778.341.936l-1.579.734L10.26,42.3a4.211,4.211,0,0,1-.086-3.235c.185-.513.647-.922.768-1.327.493-1.644,1.018-4.222,1.328-5.942.294-1.631.687-3.752.057-5.3-.229-.566-.876-1.364-1.544-.989L8.2,32.655c-.131.167-.713.058-.924,0-.162-.046-.549-.415-.859-.376l.02-.271,3.114-8.475c.387-.4,2.646.086,3.146.5V17.189a11.023,11.023,0,0,1,.51-1.461c.935-2.065,3.171-3.543,5.026-4.712-1.351-2.853-.691-7.629,2.959-8.25,4.879-.83,6.395,4.5,4.947,8.244.447.247,1.973,1.5,2.361,1.415.587-.123,2.4-1.977,3.3-2.076a8.5,8.5,0,0,1-.648-6.622A5.377,5.377,0,0,1,35,0Zm-.37,10.6c2.533-.322,3.178-2.428,3.087-4.75-.087-2.217-.8-3.546-3.087-3.875-5.172-.747-5.243,9.293,0,8.625m-13.924.74a2.6,2.6,0,0,0,.618-.056C25.07,10.6,25.1,7.313,24.329,5.8a2.028,2.028,0,0,0-1.651-1.121A2.531,2.531,0,0,0,19.47,7.2c-.162,1.843.238,4.227,2.536,4.267a1.5,1.5,0,0,0,.549-.134m28.095,0c1.443-.288,1.992-1.338,2.1-2.767.136-1.8-.139-3.446-2.1-3.887-4.266-.96-4.5,7.551,0,6.654M29.579,27.108c.089-.011.263.061.249-.074l0-7.319h1.848v8.872h8.749V19.715h1.848v7.393h2.464V17.066c0-1.456-2.8-3.7-3.953-4.427a12.534,12.534,0,0,0-1.592-.882c-.268-.055-1.2.482-1.629.6a5.776,5.776,0,0,1-3.793-.281c-.116-.047-.269-.31-.461-.349-.52-.105-3.223,1.8-3.731,2.258-.965.864-2.216,2.47-2.216,3.822v9.118a4.761,4.761,0,0,0,2.218.185M17.134,14.047c-.84.654-2.588,2.24-2.588,3.389v7.578h1.725V17.619c.287,0,.577.007.864,0,.327-.007.658.006.986,0v9.488h7.393V17.682a8.465,8.465,0,0,1,.68-2.4,12.168,12.168,0,0,0,.8-1.3c0-.442-1.823-1.2-2.181-1.519a4.734,4.734,0,0,1-3.519.812c-.735-.1-1.28-.534-1.973-.686a14.067,14.067,0,0,0-2.187,1.458m29.82-1.233c-.357.145-1.731.756-1.727,1.169,0,.114.927,1.549,1.081,2a8.564,8.564,0,0,1,.4,1.819v9.3c.7,0,1.4,0,2.095,0,1.764.012,3.535-.009,5.3,0V17.62h1.848v7.394h1.725V17.558a7.613,7.613,0,0,0-.427-1.175c-.84-1.692-2.77-2.879-4.35-3.794-.324-.081-.877.371-1.289.506a5.23,5.23,0,0,1-2.444.157c-.666-.112-1.464-.783-1.974-.634-.116.034-.189.176-.237.2M16.271,26.862H14.546v1.725h1.725Zm41.4,0H55.949v1.725h1.725Zm-37.46,13.8c.328-.008.659.006.986,0V31.3h1.848v9.365h2.464V28.957c-1.764.009-3.535-.012-5.3,0-.7,0-1.4,0-2.095,0V39.369c0,.072.673,1.013.738,1.234a4.476,4.476,0,0,0,1.357.06m9.611-11.706H27.361V30.99a3.617,3.617,0,0,0,2.464,2.772Zm15.033,0H42.271v4.805c1.011,0,2.588-1.734,2.588-2.649Zm9.242,0H46.707V40.663h2.464V31.3H51.02v9.365H53.3c.1-.2.8-1.218.8-1.294Zm-37.83,1.478H14.3L13.068,36.6a4.587,4.587,0,0,1,3.2.493Zm17.621,0c-.738,0-1.48,0-2.218,0v17c.737-.009,1.481.012,2.218,0,.409-.007.823,0,1.232,0V34.81a2.266,2.266,0,0,1,1.972,0V47.44h3.327v-17c-2.175.01-4.356-.014-6.531,0m24.029,0H55.949v6.654a4.539,4.539,0,0,1,3.2-.493ZM21.2,42.511c-.254.08-1.289-.195-1.234.185A4.534,4.534,0,0,0,21.2,44.483Zm5.175,2.094a5.644,5.644,0,0,0-.678-2.094H23.048v2.094Zm22.8-2.094H46.522a5.639,5.639,0,0,0-.678,2.094h3.327Zm1.848,0v1.971A4.534,4.534,0,0,0,52.254,42.7c.054-.38-.98-.1-1.234-.185M33.4,49.288c-.69-.007-1.388-.011-2.078.017l-.755,1.772a14.314,14.314,0,0,0,2.217.06c1.61-.039,2.59.3,2.342-1.849-.574,0-1.152.007-1.726,0m8.133,1.848a4.143,4.143,0,0,0-.8-1.848H36.972c-.13.422.158,1.848.678,1.848Z" transform="translate(-4.441 0.001)" fill="#040303"/>
        <path id="Trazado_1243721" data-name="Trazado 1243721" d="M138.09,41.1c.048-.019.121-.162.237-.2.51-.149,1.308.521,1.974.634a5.239,5.239,0,0,0,2.444-.157c.412-.135.965-.587,1.289-.506,1.58.916,3.51,2.1,4.35,3.795a7.562,7.562,0,0,1,.427,1.175V53.3h-1.725V45.9h-1.848v9.488c-1.764-.009-3.535.012-5.3,0l-.016-9.9a8.452,8.452,0,0,0-1.832-4.39" transform="translate(-95.578 -28.283)" fill="#fdfdfd"/>
        <path id="Trazado_1243722" data-name="Trazado 1243722" d="M144.683,94.061v10.412c0,.076-.7,1.093-.8,1.294H141.6V96.4h-1.848v9.365h-2.465V94.061Z" transform="translate(-95.023 -65.104)" fill="#fefefe"/>
        <path id="Trazado_1243723" data-name="Trazado 1243723" d="M134.207,41.627a8.452,8.452,0,0,1,1.832,4.39l.016,9.9c-.7,0-1.4,0-2.095,0v-9.3a8.557,8.557,0,0,0-.4-1.819c-.155-.455-1.08-1.89-1.081-2,0-.412,1.37-1.024,1.727-1.168" transform="translate(-91.695 -28.812)" fill="#e1e7ec"/>
        <path id="Trazado_1243724" data-name="Trazado 1243724" d="M169.281,98.864l1.232,6.161a4.538,4.538,0,0,0-3.2.493V98.864Z" transform="translate(-115.802 -68.428)" fill="#f9f9f9"/>
        <path id="Trazado_1243725" data-name="Trazado 1243725" d="M137.814,138.089v2.095h-3.327a5.649,5.649,0,0,1,.678-2.095Z" transform="translate(-93.084 -95.577)" fill="#f6f6f6"/>
        <path id="Trazado_1243726" data-name="Trazado 1243726" d="M85.833,38.5a5.778,5.778,0,0,0,3.793.281c.429-.117,1.361-.654,1.63-.6a12.654,12.654,0,0,1,1.592.882C94,39.787,96.8,42.037,96.8,43.492V53.534H94.335V46.141H92.487v8.872H83.738V46.141H81.89l0,7.32c.014.134-.159.062-.249.074l0-9.061c.3-2.594,2.3-4.408,4.194-5.972m1.479,5.175-.054-1.733c-.153-.22-1.47-.119-1.8-.062l-.115,1.795Zm1.725,0h1.972V41.828H89.037Z" transform="translate(-56.506 -26.425)" fill="#f87f64"/>
        <path id="Trazado_1243727" data-name="Trazado 1243727" d="M95.662,98.854c2.175-.014,4.356.01,6.531,0v17H98.866v-12.63a2.267,2.267,0,0,0-1.972,0v12.63c-.409,0-.823-.007-1.232,0Z" transform="translate(-66.212 -68.418)" fill="#82b7f6"/>
        <path id="Trazado_1243728" data-name="Trazado 1243728" d="M90.675,98.862v17c-.737.012-1.481-.009-2.218,0v-17c.738,0,1.48,0,2.218,0" transform="translate(-61.225 -68.426)" fill="#3091f0"/>
        <path id="Trazado_1243729" data-name="Trazado 1243729" d="M80.856,38.431c-1.9,1.564-3.89,3.378-4.194,5.972l0,9.061a4.77,4.77,0,0,1-2.218-.185V44.161c0-1.352,1.252-2.958,2.216-3.822.508-.455,3.211-2.362,3.731-2.257.192.039.345.3.461.349" transform="translate(-51.529 -26.356)" fill="#dc5534"/>
        <path id="Trazado_1243730" data-name="Trazado 1243730" d="M100.365,6.4c2.282.33,3,1.659,3.087,3.876.091,2.322-.554,4.428-3.087,4.75a3.8,3.8,0,0,1-1.471-2.164,12.559,12.559,0,0,1,.054-4.49A3.337,3.337,0,0,1,100.365,6.4" transform="translate(-68.326 -4.432)" fill="#fdd9a7"/>
        <path id="Trazado_1243731" data-name="Trazado 1243731" d="M95.287,6.315A3.337,3.337,0,0,0,93.87,8.286a12.558,12.558,0,0,0-.054,4.49,3.8,3.8,0,0,0,1.471,2.164c-5.243.667-5.172-9.373,0-8.626" transform="translate(-63.249 -4.343)" fill="#fbb57c"/>
        <path id="Trazado_1243732" data-name="Trazado 1243732" d="M125.468,94.061v2.157c0,.916-1.577,2.651-2.588,2.649V94.061Z" transform="translate(-85.05 -65.104)" fill="#f6d4a3"/>
        <path id="Trazado_1243733" data-name="Trazado 1243733" d="M76.913,94.061v4.806a3.617,3.617,0,0,1-2.464-2.773V94.061Z" transform="translate(-51.529 -65.104)" fill="#fad6a6"/>
        <path id="Trazado_1243734" data-name="Trazado 1243734" d="M110.158,161.951h-3.881c-.52,0-.808-1.427-.678-1.848h3.758a4.143,4.143,0,0,1,.8,1.848" transform="translate(-73.068 -110.814)" fill="#f67e63"/>
        <path id="Trazado_1243735" data-name="Trazado 1243735" d="M87.693,160.092l-.616,1.848a14.315,14.315,0,0,1-2.217-.06l.755-1.772c.69-.028,1.388-.024,2.078-.017" transform="translate(-58.735 -110.803)" fill="#dc5534"/>
        <path id="Trazado_1243736" data-name="Trazado 1243736" d="M92.676,160.1c.574.006,1.152,0,1.726,0,.248,2.153-.732,1.81-2.342,1.849Z" transform="translate(-63.719 -110.812)" fill="#f87f64"/>
        <rect id="Rectángulo_410276" data-name="Rectángulo 410276" width="1.972" height="1.848" transform="translate(32.531 15.403)" fill="#fef4f2"/>
        <path id="Trazado_1243737" data-name="Trazado 1243737" d="M95.633,51.836H93.661l.115-1.795c.332-.058,1.649-.158,1.8.062Z" transform="translate(-64.827 -34.585)" fill="#fef8f7"/>
      </g>
    </g>
  </g>
</svg>
