<svg xmlns="http://www.w3.org/2000/svg" xmlns:xlink="http://www.w3.org/1999/xlink" width="118" height="118" viewBox="0 0 118 118">
  <defs>
    <filter id="Elipse_12115" x="0" y="0" width="118" height="118" filterUnits="userSpaceOnUse">
      <feOffset dy="3" input="SourceAlpha"/>
      <feGaussianBlur stdDeviation="3" result="blur"/>
      <feFlood flood-opacity="0.161"/>
      <feComposite operator="in" in2="blur"/>
      <feComposite in="SourceGraphic"/>
    </filter>
  </defs>
  <g id="Grupo_1186632" data-name="Grupo 1186632" transform="translate(-745.781 -3846)">
    <g id="Grupo_1181949" data-name="Grupo 1181949" transform="translate(-54 1303)">
      <g transform="matrix(1, 0, 0, 1, 799.78, 2543)" filter="url(#Elipse_12115)">
        <g id="Elipse_12115-2" data-name="Elipse 12115" transform="translate(9 6)" fill="#eceff0" stroke="#f5f5f5" stroke-width="1.5">
          <circle cx="50" cy="50" r="50" stroke="none"/>
          <circle cx="50" cy="50" r="49.25" fill="none"/>
        </g>
      </g>
    </g>
    <g id="Grupo_1186643" data-name="Grupo 1186643" transform="translate(768.305 3865.434)">
      <g id="Grupo_1186644" data-name="Grupo 1186644" transform="translate(1.319 0.665)">
        <path id="Trazado_1243739" data-name="Trazado 1243739" d="M15.682,182.656c.426,1.535-1.187,1.415-1.969,2.39-.995,1.24-.236,2.97-2.251,2.4a5.19,5.19,0,0,0-.881-2.4c-.761-.948-2.854-.89-1.958-2.378.075-.124,1.343-.43,1.795-.919.591-.641,1.061-3.9,2.306-2.561.85.914.594,3.335,2.959,3.467m-3.112,1.679c.623-1.234.756-1.355-.423-2.274l-.98,1.236c.195.308,1.036,1.3,1.4,1.038" transform="translate(-7.46 -128.366)" fill="#090908"/>
        <path id="Trazado_1243740" data-name="Trazado 1243740" d="M225.491,179.023c.868-.151,1.162,1.927,1.673,2.575.608.77,2.178,1.018,2.174,1.845,0,.779-1.4.774-2.024,1.421-.773.8-.671,2.652-1.566,2.741-1.355.135-1.024-1.777-1.724-2.582-.564-.649-3.24-1.036-1.715-2.307.449-.374,1.013-.332,1.587-.985.546-.621.975-2.6,1.6-2.708m.4,3.134c-.509-.419-1.02,1-1.14,1.289.325,1.125,1.127,1.318,1.689.222Z" transform="translate(-159.889 -128.471)" fill="#090908"/>
        <path id="Trazado_1243741" data-name="Trazado 1243741" d="M19.475,192.313c-.367.258-1.207-.73-1.4-1.038l.98-1.236c1.179.919,1.046,1.04.423,2.274" transform="translate(-14.365 -136.343)" fill="#dfb31e"/>
        <path id="Trazado_1243742" data-name="Trazado 1243742" d="M233.132,189.816l.548,1.511c-.561,1.1-1.364.9-1.689-.222.12-.288.631-1.708,1.14-1.289" transform="translate(-167.135 -136.129)" fill="#cfa61b"/>
        <path id="Trazado_1243743" data-name="Trazado 1243743" d="M45.854,117.943c.816-1.125,2.344-.265,3.642-.789a3.041,3.041,0,0,0,1.534-2.036,5.234,5.234,0,0,1,4.477,5.756c-.387,2.43-2.9,3.067-2.238,5.755,2.236.513,3.795,2.024,3.032,4.478-.563,1.811-2.578,1.506-3.234,2.05a34.75,34.75,0,0,1-1.546,3.172c-.631.821-1.294,1.186-1.951,1.905,3.789-.02,5.112-5.824,9.012-5.4,3.395-3.267,6.545-6.827,9.99-10.039a58.14,58.14,0,0,1,4.36-3.928c3.2-1.568,6.55,2.323,4.369,5.511-.642.938-3.058,3.4-4.291,3.285.067-.138-.065-.681.147-1.127.378-.792,2.275-1.987,2.841-2.888,1.317-2.1-.216-4.24-2.487-3.354L59.844,133.8c-.279.246-.316.386-.143.721a13.339,13.339,0,0,0,2.837,2.554c.687-.12,5.126-5.556,6.318-6.284.608-.372,1.054-.166,1.3-.27.442.567.213.691-.125,1.152-1.055,1.437-5.9,5.257-6.316,6.286-.193.478.227,1.01.163,1.55-.116.983-5.04,4.976-5.865,6.166l-.147,8.857c-1.5.419-1.353-.523-1.43-.573l.059-8.66,5.668-6.061-4.727-4.727c-.92,0-4.08,4.559-5.851,5.021a93.159,93.159,0,0,1-14.035.011c-1.926-.46-3.976-4.224-5.417-4.889-.314-.145-.538-.222-.846,0-.616.888-4.589,3.867-4.589,4.583,0,.8,5.043,4.915,5.668,6.061l.059,8.66c.21.882-1.17.772-1.388.1l-.189-8.386c-.906-1.436-4.873-4.2-5.422-5.441-.352-.794.122-1.709-.417-2.441-3.582-4.4-9.918-8.716-13.164-13.135-2.576-3.507,1.066-7.654,4.672-5.53L30.27,132.836c.621.4,1.146-.209,2.072.182,2.1.886,3.972,5.509,6.937,5.218-.513-.911-1.54-1.462-2.126-2.3-.5-.712-.917-2.319-1.307-2.7s-1.282-.441-1.814-.759c-2.852-1.7-1.6-5.351,1.491-5.714.055-4.381-.854-9.4,5.061-9.4.514,0,1.085-.215.981.582-.031.023.045.536-.266.724-.874.528-2.462-.457-3.581,1.288-.7,1.085-.4,2.2-.44,3.419H52.286a7.44,7.44,0,0,0,1.416-1.728,3.8,3.8,0,0,0-1.276-4.434c-.613-.313-1.162.743-1.8,1.074a7.921,7.921,0,0,1-4.306.473c-.559-.176-.429-.788-.468-.816M14.34,120a2.242,2.242,0,0,0-1.189,3.922l12.828,12.907c.456.783,3.041-2.047,3.162-2.31.145-.314.223-.538,0-.846L16.418,120.938A3.268,3.268,0,0,0,14.34,120M51.857,124.8H36.993v6.432c0,6.859,9.871,9.5,13.673,3.668a12.532,12.532,0,0,0,1.191-2.811Zm-16.295,3.432c-2.272.133-2.122,3.337,0,3Zm19.083,2.787a1.712,1.712,0,0,0-1.358-2.787v3.142a2.07,2.07,0,0,0,1.358-.355" transform="translate(-9.295 -82.839)" fill="#0a0908"/>
        <path id="Trazado_1243744" data-name="Trazado 1243744" d="M194.488,140.078a13.858,13.858,0,0,1-1.038,1.548c-.164.257-.07.679-.118.731-.079.087-.561-.225-.853-.119-.229.083-.474.538-.849.7-.243.1-.689-.1-1.3.27-1.191.728-5.63,6.164-6.318,6.284a13.338,13.338,0,0,1-2.837-2.554c-.173-.335-.136-.475.143-.721l13.668-13.506c2.271-.886,3.8,1.258,2.487,3.354-.566.9-2.463,2.1-2.841,2.887-.213.447-.081.989-.148,1.127" transform="translate(-130.772 -95.255)" fill="#fade9d"/>
        <path id="Trazado_1243745" data-name="Trazado 1243745" d="M95.7,202.413c-1.087-.71-21.026.544-24.011,0l-.058-8.66c-.626-1.146-5.669-5.257-5.668-6.061,0-.716,3.973-3.695,4.589-4.583.308-.223.531-.145.846,0,1.441.665,3.491,4.429,5.417,4.889a93.151,93.151,0,0,0,14.035-.011c1.772-.462,4.932-5.021,5.851-5.021l4.727,4.727-5.669,6.061Zm-1.43-6c.084-1.107-.22-2.281.217-3.358.559-1.377,4.22-3.716,4.787-4.933.5-1.064-.358-1.435-1.3-.727a34.454,34.454,0,0,0-4.818,5.186,6.985,6.985,0,0,0-.274,3.362Zm-1,1.717c-.74.228-.649,2.37.566,2,.74-.228.649-2.37-.566-2" transform="translate(-48.568 -131.291)" fill="#d22b64"/>
        <path id="Trazado_1243746" data-name="Trazado 1243746" d="M161.339,206.565l-1.388-.47a6.981,6.981,0,0,1,.274-3.361,34.452,34.452,0,0,1,4.818-5.186c.941-.708,1.8-.337,1.3.727-.567,1.217-4.228,3.557-4.787,4.933-.437,1.077-.134,2.251-.217,3.358" transform="translate(-115.634 -141.446)" fill="#fcc4bf"/>
        <path id="Trazado_1243747" data-name="Trazado 1243747" d="M160.333,235.9c1.215-.374,1.306,1.768.566,2-1.215.374-1.306-1.768-.566-2" transform="translate(-115.624 -169.063)" fill="#fcc4bf"/>
        <path id="Trazado_1243748" data-name="Trazado 1243748" d="M17.9,132.175a3.267,3.267,0,0,1,2.078.94L32.7,145.848c.223.308.145.531,0,.846-.121.263-2.706,3.093-3.162,2.31L16.71,136.1a2.242,2.242,0,0,1,1.189-3.922" transform="translate(-12.854 -95.016)" fill="#f5d99a"/>
        <path id="Trazado_1243749" data-name="Trazado 1243749" d="M111.506,123.031c.039.027-.091.639.468.816a7.918,7.918,0,0,0,4.306-.473c.636-.33,1.185-1.387,1.8-1.074a3.8,3.8,0,0,1,1.276,4.434,7.445,7.445,0,0,1-1.416,1.728H102.931c.044-1.224-.256-2.333.44-3.419,1.119-1.745,2.707-.76,3.581-1.288.312-.188.236-.7.266-.724a24.438,24.438,0,0,1,4.288,0" transform="translate(-74.947 -87.927)" fill="#7b7a79"/>
        <path id="Trazado_1243750" data-name="Trazado 1243750" d="M116.864,149v7.289a12.524,12.524,0,0,1-1.191,2.811c-3.8,5.835-13.673,3.191-13.673-3.668V149Zm-11.817,3.19a.694.694,0,0,0-.2,1.247c2.669.928,2.628-2,.2-1.247m4.245-.043c-.661.21-.774,3.934.279,3.712,1.029-.364,1.2-4.179-.279-3.712m3.188.045c-1.072.338-.511,1.57,1.1,1.4,1.947-.2.94-2.047-1.1-1.4m-1.7,5.871c-1.92,1.56-2.739-.853-3.247-1.025-2.187-.74-.882,2.465,1.2,2.806A3.382,3.382,0,0,0,111.86,159c.441-.454,1.2-1.741.283-2s-1.026.785-1.362,1.059" transform="translate(-74.302 -107.035)" fill="#fadd9c"/>
        <path id="Trazado_1243751" data-name="Trazado 1243751" d="M160.362,163.791a2.071,2.071,0,0,1-1.357.355V161a1.712,1.712,0,0,1,1.357,2.787" transform="translate(-115.012 -115.608)" fill="#f1d596"/>
        <path id="Trazado_1243752" data-name="Trazado 1243752" d="M92.878,161l0,3c-2.125.339-2.275-2.865,0-3" transform="translate(-66.611 -115.609)" fill="#f1d596"/>
        <path id="Trazado_1243753" data-name="Trazado 1243753" d="M121.782,177.869c.336-.273.447-1.315,1.362-1.059s.158,1.545-.283,2a3.382,3.382,0,0,1-3.128.842c-2.08-.342-3.385-3.547-1.2-2.806.508.172,1.327,2.585,3.247,1.025" transform="translate(-85.303 -126.841)" fill="#0c0b07"/>
        <path id="Trazado_1243754" data-name="Trazado 1243754" d="M126.247,159.91c1.475-.467,1.308,3.348.279,3.712-1.053.222-.94-3.5-.279-3.712" transform="translate(-91.257 -114.799)" fill="#12100b"/>
        <path id="Trazado_1243755" data-name="Trazado 1243755" d="M137.285,159.827c2.044-.645,3.051,1.2,1.1,1.4-1.615.168-2.176-1.065-1.1-1.4" transform="translate(-99.108 -114.671)" fill="#1c1911"/>
        <path id="Trazado_1243756" data-name="Trazado 1243756" d="M111.394,159.844c2.431-.756,2.473,2.175-.2,1.247a.694.694,0,0,1,.2-1.247" transform="translate(-80.648 -114.69)" fill="#050605"/>
        <path id="Trazado_1243757" data-name="Trazado 1243757" d="M190.815,65.1c.127,1.164-1.422,2-2.318,2.4a11.4,11.4,0,0,1-8.538.311c-.613-.179-1.385-.871-1.907-.921-.822-.079-4.4,1.632-4.96,1.07-.325-1.471,1.22-3.408,1.137-4.7-.05-.774-1.173-2.514-1.348-3.808-2.306-17.038,22.487-17.279,22.246-1.93-.016,1.019-.485,4.717-2.024,4.434.007-.117-.35-.548-.272-.967.551-2.965,1.2-3.843.122-7.029-3.549-10.529-20.586-7.195-18.647,5.212.195,1.246,1.5,3.075,1.573,3.827.083.839-1.032,2.217-.781,3.245a9.4,9.4,0,0,1,3.142-.858c.093-.015.192.013.286,0,3.176,2.1,7.884,2.251,10.862-.286.189-.01.384.017.572,0a5.952,5.952,0,0,0,.858,0" transform="translate(-124.813 -33.714)" fill="#070b09"/>
        <path id="Trazado_1243758" data-name="Trazado 1243758" d="M196.655,65.31a10.439,10.439,0,0,1-2.287,3.144,5.95,5.95,0,0,1-.858,0c.4-.731.424-1.924.727-2.561.251-.527,1.016-.77,1.214-1.645a13.23,13.23,0,0,0-.156-4.583c-.272-.668-1.279-1.135-1.442-1.7-.418-1.458.214-3.269-1.668-4.335-1.56-.883-7.6-.882-9.251-.181-2.387,1.016-1.423,3.088-2.152,4.709-.262.584-1.279.925-1.5,1.926a16.718,16.718,0,0,0,0,4.167c.192.85.908,1.086,1.206,1.652a18.488,18.488,0,0,0,1.306,2.839,9.4,9.4,0,0,0-3.141.858c-.252-1.028.864-2.405.781-3.245-.075-.752-1.378-2.581-1.573-3.827-1.939-12.407,15.1-15.741,18.647-5.212,1.074,3.186.43,4.064-.121,7.029-.078.419.28.85.272.967" transform="translate(-128.366 -37.066)" fill="#13b96a"/>
        <path id="Trazado_1243759" data-name="Trazado 1243759" d="M197.118,73.245c-.188.016-.383-.01-.572,0a14.1,14.1,0,0,1-3.73-.129c-1.286-.4-.977-1.391-1.39-1.987-.727-1.049-1.022.77-1.206,1.074-1.029,1.7-2.3.815-3.846,1.029a2.086,2.086,0,0,0-.69.3c-.093.013-.194-.015-.286,0a18.456,18.456,0,0,1-1.306-2.839c-.3-.566-1.014-.8-1.206-1.653a16.744,16.744,0,0,1,0-4.167c.226-1,1.242-1.342,1.5-1.925.729-1.62-.236-3.693,2.152-4.709,1.649-.7,7.691-.7,9.251.181,1.882,1.066,1.25,2.877,1.668,4.335.163.568,1.17,1.035,1.441,1.7a13.23,13.23,0,0,1,.156,4.583c-.2.874-.963,1.117-1.214,1.645-.3.636-.323,1.829-.727,2.561m-.511-3.373c.1-.19,1.09-.37,1.31-1.118a11.754,11.754,0,0,0,.042-3.067c-.226-1.446-1.468-1.5-1.653-2.063-.5-1.517.575-4.07-2.183-4.391a39.523,39.523,0,0,0-7,.155c-1.829.76-1,3.9-1.478,4.669-.073.119-.878.2-1.237.62-.614.709-.582,3.14-.308,4.009.283.9,1.1.963,1.235,1.194.25.422-.07,1.667.635,2.082h2.865l.569-2.146,3.266-.005.431,2.167a6.538,6.538,0,0,0,2.44.116c1.5-.286.728-1.6,1.068-2.22" transform="translate(-131.973 -41.857)" fill="#12996b"/>
        <path id="Trazado_1243760" data-name="Trazado 1243760" d="M193,106.194a2.1,2.1,0,0,1,.69-.3c1.546-.214,2.818.668,3.846-1.029.184-.3.48-2.123,1.206-1.074.413.6.1,1.588,1.39,1.987a14.1,14.1,0,0,0,3.73.129c-2.978,2.537-7.687,2.388-10.862.286" transform="translate(-139.289 -74.52)" fill="#13b96a"/>
        <path id="Trazado_1243761" data-name="Trazado 1243761" d="M199.489,73.421c-.34.62.43,1.934-1.068,2.22a6.539,6.539,0,0,1-2.44-.115l-.431-2.167-3.266.005-.57,2.146h-2.865c-.7-.415-.385-1.661-.635-2.082-.137-.232-.952-.3-1.235-1.195-.274-.869-.306-3.3.308-4.009.359-.415,1.163-.5,1.237-.62.473-.768-.351-3.909,1.478-4.669a39.494,39.494,0,0,1,7-.155c2.758.321,1.685,2.874,2.183,4.392.186.565,1.428.617,1.654,2.063A11.754,11.754,0,0,1,200.8,72.3c-.22.749-1.205.928-1.31,1.118m-2.061-9.2h-6.717c-.685.858-.683,2.327-.715,3.43h7.718Zm2,4.859H188.281v2.859h11.148Z" transform="translate(-134.856 -45.405)" fill="#030504"/>
        <rect id="Rect치ngulo_410278" data-name="Rect치ngulo 410278" width="11" height="3" transform="translate(53.681 23.596)" fill="#dfb31e"/>
        <path id="Trazado_1243762" data-name="Trazado 1243762" d="M205.432,68l.286,3.43H198c.032-1.1.029-2.572.715-3.43Z" transform="translate(-142.86 -49.189)" fill="#ececec"/>
        <path id="Trazado_1243763" data-name="Trazado 1243763" d="M96.145,8.157c1.948-.035,4.068-.492,6.143-.283,10.647,1.07,13.137,16.458,3,21.005a15.224,15.224,0,0,0-2.566.864c-.815.577-1.156,2-1.862,2.706-.443.009-1.563-2.492-1.94-2.77-.419-.309-2.035-.474-2.777-.8-5.213-2.271-7.616-8.741-5.679-13.97A25.3,25.3,0,0,1,92.587,11.3c.2-.356.045-.975.127-1.146.034-.071.994-1.115,1.06-1.159a14.855,14.855,0,0,1,2.371-.842M93.527,19.349c.626.993-.864,6.406.9,7.246l12.741-.124c1.753-1.126.5-5.437,1.027-6.977.217-.631,1.929-.854,1.678-2.6-.084-.583-1.508-1.841-2.005-2.306a62.853,62.853,0,0,0-5.855-4.72c-1.773-.844-2.707.161-4,1.159-1,.769-5.745,4.6-6.119,5.322-1.169,2.264,1.386,2.609,1.635,3" transform="translate(-65.588 -6.211)" fill="#70bee5"/>
        <path id="Trazado_1243764" data-name="Trazado 1243764" d="M92.161,4.14c-.2-1.148,1.119-1.478,1.926-1.647,13.475-2.827,21.022,15.186,9.767,22.631-1.285.85-3.476,1.37-4.284,2-.952.748-1.433,2.759-2.444,3.577-1.206.368-2.368-3.178-3.168-3.711-.54-.359-1.735-.506-2.471-.885-6.77-3.481-9.525-11.667-5.161-18.229.555-.834,1.2-2,2.4-1.74-.082.171.073.79-.128,1.146a25.3,25.3,0,0,0-2.122,3.608c-1.937,5.23.467,11.7,5.679,13.97.742.323,2.358.488,2.777.8.377.278,1.5,2.779,1.94,2.77.706-.706,1.047-2.129,1.862-2.706a15.23,15.23,0,0,1,2.566-.864c10.135-4.547,7.645-19.935-3-21.005-2.075-.208-4.195.248-6.143.283" transform="translate(-61.604 -2.195)" fill="#090b0c"/>
        <path id="Trazado_1243765" data-name="Trazado 1243765" d="M98,23.669c-.249-.394-2.8-.74-1.635-3,.374-.724,5.119-4.553,6.119-5.322,1.3-1,2.23-2,4-1.159a62.932,62.932,0,0,1,5.855,4.72c.5.465,1.921,1.723,2.005,2.306.252,1.75-1.46,1.973-1.677,2.6-.53,1.539.726,5.851-1.027,6.977l-12.74.124c-1.766-.84-.276-6.253-.9-7.246m1.189-1.759V29.2c0,.095.379.434.286.715h11.291l.429-.429V21.624l1.714.57a1.728,1.728,0,0,0-.271-1.3c-.264-.455-6.828-5.826-7.295-5.842l-7.6,5.836-.265,1.3Z" transform="translate(-70.058 -10.531)" fill="#4ba3c6"/>
        <path id="Trazado_1243766" data-name="Trazado 1243766" d="M102.719,24.872,101,25.156l.265-1.3,7.6-5.836c.467.015,7.031,5.387,7.295,5.842a1.728,1.728,0,0,1,.271,1.3l-1.714-.57v7.861l-.429.429H103c.093-.281-.286-.62-.286-.715ZM113.3,31.446V23.3l-4.677-3.544-4.47,3.83v7.861h2v-5l.429-.429h4.717c-.093.281.286.62.286.715v4.717Zm-3.144-4h-2.573v4h2.573Z" transform="translate(-73.591 -13.493)" fill="#050605"/>
        <path id="Trazado_1243767" data-name="Trazado 1243767" d="M121.147,35.792h-1.715V31.075c0-.094-.379-.434-.286-.715H114.43L114,30.79v5h-2V27.931l4.47-3.83,4.677,3.544ZM116,28.361l1.3-.267.1-.992-.248-.329L116,26.644Z" transform="translate(-81.443 -17.839)" fill="#e6b81f"/>
        <rect id="Rect치ngulo_410279" data-name="Rect치ngulo 410279" width="2" height="4" transform="translate(33.681 13.596)" fill="#cb2961"/>
        <path id="Trazado_1243768" data-name="Trazado 1243768" d="M126,34.714V33l1.156.129.248.329-.1.992Z" transform="translate(-91.445 -24.192)" fill="#0c0b07"/>
        <path id="Trazado_1243769" data-name="Trazado 1243769" d="M27.085,67.4c-.6.6-4.195-1.149-4.961-1.071s-2.831,1.305-4.172,1.514C8.615,69.3,1.741,58.8,6.835,50.723c6.287-9.968,22.038-4.58,20.5,7.926-.171,1.39-1.393,3.187-1.416,4.024-.024.9,1.66,4.227,1.162,4.726m-2-1.715c.251-1.028-.864-2.405-.781-3.245.072-.729,1.3-2.528,1.513-3.887A9.685,9.685,0,0,0,8.643,50.817C2.834,58.175,9.968,68.691,19.208,65.954c2.3-.68,3.155-1.923,5.873-.27" transform="translate(-5.103 -33.153)" fill="#0c0b07"/>
        <path id="Trazado_1243770" data-name="Trazado 1243770" d="M28.68,69.4c-2.718-1.652-3.576-.41-5.873.27C13.568,72.4,6.434,61.889,12.243,54.53a9.685,9.685,0,0,1,17.169,7.736c-.216,1.36-1.441,3.158-1.513,3.887-.083.84,1.032,2.217.781,3.245M15.166,54.309c-.813.182-.96.618-1.313,1.26-.6,1.091-2.022,4.533-1.692,5.623,1.3,1.115,6.076,6.832,7.24,7.059a3.152,3.152,0,0,0,1.362-.056,76.7,76.7,0,0,0,6.618-6.528,2.259,2.259,0,0,0,.443-1.015c.1-1.043-1.988-5.918-3.13-6.276a59.657,59.657,0,0,0-9.53-.067" transform="translate(-8.703 -36.866)" fill="#ebbc1f"/>
        <path id="Trazado_1243771" data-name="Trazado 1243771" d="M20.085,62.82a59.657,59.657,0,0,1,9.53.067c1.142.358,3.231,5.234,3.13,6.276a2.26,2.26,0,0,1-.443,1.015,76.7,76.7,0,0,1-6.619,6.527,3.15,3.15,0,0,1-1.362.056c-1.165-.227-5.944-5.944-7.24-7.059-.331-1.091,1.093-4.533,1.692-5.624.352-.642.5-1.078,1.313-1.26m9.468,1.416a70.649,70.649,0,0,0-8.958-.048c-.532.1-.542.249-.779.65A26.1,26.1,0,0,0,18.2,69.131l6.452,6.461c.356.133.547-.059.813-.238a70.3,70.3,0,0,0,5.8-5.94c.347-1.182-1.4-3.884-1.714-5.177" transform="translate(-13.622 -45.377)" fill="#de9f1d"/>
        <path id="Trazado_1243772" data-name="Trazado 1243772" d="M32.472,67.755c.316,1.293,2.061,4,1.714,5.177a70.255,70.255,0,0,1-5.8,5.94c-.266.179-.458.371-.813.238l-6.452-6.461a26.126,26.126,0,0,1,1.613-4.293c.237-.4.247-.553.779-.65a70.646,70.646,0,0,1,8.958.048m.047,3.954L31.186,68.9l-7.276.123-.825,2.69Zm-5.43,1.428-3.432,0,3.289,3.426Zm4.571,0-3.144,0,0,3.431c.433-.275,3.517-3.093,3.14-3.429" transform="translate(-16.541 -48.896)" fill="#050605"/>
        <path id="Trazado_1243773" data-name="Trazado 1243773" d="M37.433,74.973H28l.825-2.69,7.276-.123Z" transform="translate(-21.455 -52.161)" fill="#6cb8dc"/>
        <path id="Trazado_1243774" data-name="Trazado 1243774" d="M33.432,86.995l-.143,3.43L30,87Z" transform="translate(-22.883 -62.755)" fill="#68b1d4"/>
        <path id="Trazado_1243775" data-name="Trazado 1243775" d="M50.139,87c.377.335-2.707,3.153-3.14,3.428l0-3.431Z" transform="translate(-35.02 -62.755)" fill="#68b1d4"/>
      </g>
    </g>
  </g>
</svg>
