<svg xmlns="http://www.w3.org/2000/svg" xmlns:xlink="http://www.w3.org/1999/xlink" width="118" height="118" viewBox="0 0 118 118">
  <defs>
    <filter id="Elipse_12115" x="0" y="0" width="118" height="118" filterUnits="userSpaceOnUse">
      <feOffset dy="3" input="SourceAlpha"/>
      <feGaussianBlur stdDeviation="3" result="blur"/>
      <feFlood flood-opacity="0.161"/>
      <feComposite operator="in" in2="blur"/>
      <feComposite in="SourceGraphic"/>
    </filter>
    <clipPath id="clip-path">
      <rect id="Rectángulo_410273" data-name="Rectángulo 410273" width="64.049" height="64.049" fill="none"/>
    </clipPath>
  </defs>
  <g id="Grupo_1186648" data-name="Grupo 1186648" transform="translate(-745.832 -3846)">
    <g id="Grupo_1181949" data-name="Grupo 1181949" transform="translate(-53.949 1303)">
      <g transform="matrix(1, 0, 0, 1, 799.78, 2543)" filter="url(#Elipse_12115)">
        <g id="Elipse_12115-2" data-name="Elipse 12115" transform="translate(9 6)" fill="#eceff0" stroke="#f5f5f5" stroke-width="1.5">
          <circle cx="50" cy="50" r="50" stroke="none"/>
          <circle cx="50" cy="50" r="49.25" fill="none"/>
        </g>
      </g>
    </g>
    <g id="Grupo_1186652" data-name="Grupo 1186652" transform="translate(773.883 3873.379)">
      <g id="Grupo_1186653" data-name="Grupo 1186653">
        <path id="Trazado_1243808" data-name="Trazado 1243808" d="M48.559,15.938c.351,1.47,2.737,1.135,4.013,1.418,1.517,1.19,3.345,2.044,4.731,3.416A16.793,16.793,0,0,1,61.668,36.03c-1.145,5.56-5.832,9.169-9.1,13.459a2.145,2.145,0,0,1-.713-.338c-.644-.617-1.245-1.289-1.876-1.921-.068-.3,2.134-1.629,1.829-3.706a3.527,3.527,0,0,0-1.52-2.276c-.213-.17-.731-.222-.776-.283a13.281,13.281,0,0,0,.131-1.642,5.4,5.4,0,0,0-.849-1.768,4.8,4.8,0,0,0-1.381-.862c-.4-.635.584-2.515-1.271-3.808-.561-.391-1.547-.468-1.783-.7-.2-.193-.356-1.135-.653-1.591a3.256,3.256,0,0,0-5.418-.014c-1.468-2.042-4.1-3.016-5.091-.01-1.913-.629-4.008-.947-5.147,1.107-.241.434-.2,1.134-.5,1.39-.5.425-1.553.216-2.364,1.178-.7.829-.552,1.884-.814,2.257-.177.253-.985.271-1.4.492a3.266,3.266,0,0,0-1.331,3.975c-2.811.831-3.187,4.013-.945,5.8l-2.727,2.709L11.067,41.77C1.055,27.958,16.548,10.7,31.1,19.124c2.362,1.367,4.053,4.489,6.781,2.779,2.264-1.419,3.27-2.883,6.133-4.021a22.527,22.527,0,0,0,2.764-.78c.494-.342.293-.82.369-.927.117-.165,1.255-.161,1.416-.236" transform="translate(-6.011 -12.158)" fill="#f1b5ac"/>
        <path id="Trazado_1243809" data-name="Trazado 1243809" d="M196.291,54.048c3.265-4.29,7.951-7.9,9.1-13.459a16.792,16.792,0,0,0-4.366-15.258c-1.386-1.372-3.214-2.226-4.73-3.417A15.252,15.252,0,0,1,208.34,38.346c-.49,7.024-6.632,11.793-10.871,16.779-.758.39-1.025-.934-1.178-1.078" transform="translate(-149.731 -16.716)" fill="#d12d65"/>
        <path id="Trazado_1243810" data-name="Trazado 1243810" d="M.059,26.992C1.467,14.551,16.95,8.152,27.188,15.313c.73.511,2.571,2.537,3.191,2.477.378-.037,2.661-2.182,3.311-2.617,1.5-1,5.091-2.771,6.853-2.618.512.044.405.389.588.733-.076.107.125.585-.369.927A22.519,22.519,0,0,1,38,15c-2.863,1.138-3.87,2.6-6.133,4.021-2.727,1.709-4.419-1.412-6.781-2.779C10.537,7.817-4.956,25.073,5.056,38.885L11.963,46.6l2.727-2.709c-2.242-1.788-1.866-4.97.945-5.8a3.267,3.267,0,0,1,1.331-3.975c.412-.221,1.22-.239,1.4-.492.262-.373.115-1.428.814-2.257.811-.962,1.868-.753,2.364-1.178.3-.256.259-.956.5-1.39,1.139-2.054,3.235-1.735,5.147-1.107.994-3.005,3.623-2.031,5.091.01a3.256,3.256,0,0,1,5.418.014c.3.456.455,1.4.653,1.591.236.229,1.222.306,1.783.7,1.855,1.293.87,3.173,1.271,3.808a4.794,4.794,0,0,1,1.381.862,5.4,5.4,0,0,1,.849,1.768,13.224,13.224,0,0,1-.131,1.642c.045.061.563.114.776.284a3.526,3.526,0,0,1,1.52,2.276c.3,2.077-1.9,3.4-1.829,3.706.631.631,1.232,1.3,1.876,1.92a2.137,2.137,0,0,0,.714.338c.153.144.42,1.468,1.178,1.078C51.978,42.695,58.12,37.926,58.609,30.9A15.252,15.252,0,0,0,46.56,14.47c-1.276-.283-3.662.052-4.013-1.418.069-.032.209-.54.633-.662,5.2-1.49,12.83,4.4,15.222,8.774,5.545,10.134.121,17.17-6.292,24.5-4.077,4.659-8.5,9.429-12.747,13.94-1.823,1.935-4.527,5.224-6.489,6.736a4.4,4.4,0,0,1-5.823-.443c-3.877-3.442-7.3-8.516-11.191-12.073-.374-.386-.152-.917-.223-1.311.317-.218.5-.507.949-.384.412.113,4.73,4.609,5.424,5.346.18.191,1.12,1.886,1.534,1.886l9.579-9.782c3.653-.395,7.209-4.156,9.783-6.747.718-.722,1.479-1.441.834-2.5-1.168-1.919-3.447,1.183-4.263,2.023-.655.211-1.5-.372-1.377-1.029.2-1.029,5.207-3.771,3.256-5.458-1.89-1.634-4.077,3.055-5.349,3.39-.8.21-1.256-.739-.792-1.522.7-1.176,4.59-3.925,4.437-5.389-.107-1.027-1.3-1.279-2.151-.829-1.121.591-3.74,4.193-4.567,4.424a.931.931,0,0,1-.774-.079c-.761-.546-.455-1.022,0-1.659.645-.9,6.649-5.431,3.173-6.027-1.583-.271-3.353,2.96-4.844,3.646-.247,1.932-.557,3.675-2.817,3.917a3.023,3.023,0,0,1-1.334,3.5,13.989,13.989,0,0,1-1.453.556c-.2.227-.182,1.676-1.109,2.552-1.147,1.083-2.71.55-2.922.738a5.067,5.067,0,0,1-.388,1.147c-1.784,2.605-3.541.714-4.824,1.308-.4.187-2.4,2.275-2.258,2.7.347,1.023,2.552,1.881,1.308,3.084-.275-.057-.691.093-1-.048C10.515,47.7,6.571,44.053,3.738,40.2A24.363,24.363,0,0,1,.059,32.191c.134-1.659-.183-3.576,0-5.2m29.065,3.275c.584.332,1.47-.893,1.841-1.3-1.269-2.542-3.241-.8-1.841,1.3M24.54,28.926A1.44,1.44,0,0,0,23.43,30.4c.076,1.167,4.583,5.686,5.153,2.558.217-1.189-2.861-4.216-4.043-4.035M21,32.237c-.866.262-.778,1.579-.415,2.212.127.221,2.992,3.021,3.228,3.145,1.485.779,2.713-.528,1.991-1.753a30.791,30.791,0,0,0-3.92-3.652,1.992,1.992,0,0,0-.885.048m-2.591,3.3a1.4,1.4,0,0,0-1.117,1.723,24.174,24.174,0,0,0,3.7,3.884,1.351,1.351,0,0,0,1.743-2c-.154-.266-2.849-2.924-3.2-3.174s-.626-.513-1.127-.436m-2.943,4.514C13.875,41.57,17.378,45,18.82,43.527c1.349-1.381-2.095-4.685-3.357-3.477M34.994,58.89c.345.327.816,1.386,1.414,1.078L46.1,49.321c0-.577-.869-.946-1.188-1.3-.389-.43-2.022-2.421-2.447-2.346-1.97,1.318-4.025,4.4-6.236,5.115-.773.251-1.692.2-2.352.481a21.735,21.735,0,0,0-3.355,3.484c1.359,1.521,3,2.739,4.475,4.135m-5.665,6.379a2.95,2.95,0,0,0,3.066-.83c.259-.239,2.294-2.473,2.338-2.644.184-.706-.619-.906-.919-1.252-1.41-1.626-3.175-2.874-4.6-4.485l-4.324,4.6a30.576,30.576,0,0,0,4.443,4.61" transform="translate(0 -9.272)" fill="#090707"/>
        <path id="Trazado_1243811" data-name="Trazado 1243811" d="M82.5,93.809c-2.526,2.6-5.091,6.079-9.1,6.366l-8.366,8.756c-.694-.738-5.013-5.233-5.424-5.346-.446-.123-.632.166-.949.384-.139-.763-.038-.994-.944-1.181,1.244-1.2-.962-2.061-1.308-3.084-.145-.429,1.854-2.517,2.258-2.7,1.283-.594,3.041,1.3,4.824-1.308a5.071,5.071,0,0,0,.388-1.147c.212-.188,1.776.345,2.922-.738.927-.876.914-2.325,1.109-2.552a13.881,13.881,0,0,0,1.452-.556,3.023,3.023,0,0,0,1.335-3.5c2.261-.242,2.57-1.985,2.817-3.917,1.491-.687,3.261-3.918,4.844-3.646,3.476.6-2.528,5.126-3.173,6.027-.456.637-.761,1.113,0,1.659a.931.931,0,0,0,.774.079c.826-.232,3.445-3.834,4.567-4.424.856-.451,2.044-.2,2.151.829.153,1.464-3.74,4.213-4.437,5.389-.464.783-.005,1.733.792,1.522,1.272-.336,3.459-5.024,5.349-3.39,1.951,1.688-3.058,4.429-3.256,5.458-.127.658.722,1.241,1.377,1.03" transform="translate(-43.022 -60.73)" fill="#fcf0dc"/>
        <path id="Trazado_1243812" data-name="Trazado 1243812" d="M143.051,155.811l-9.914,10.869c-1.472-1.4-3.116-2.614-4.475-4.135a21.737,21.737,0,0,1,3.355-3.484c.66-.278,1.58-.229,2.352-.481,2.211-.719,4.266-3.8,6.236-5.115.424-.075,2.058,1.916,2.446,2.346" transform="translate(-98.143 -117.061)" fill="#fcbb85"/>
        <path id="Trazado_1243813" data-name="Trazado 1243813" d="M92.8,146.09l8.366-8.756c4.01-.286,6.575-3.763,9.1-6.366.816-.841,3.095-3.942,4.263-2.023.646,1.061-.116,1.78-.834,2.5-2.575,2.591-6.13,6.352-9.783,6.747l-9.579,9.782c-.415,0-1.354-1.695-1.534-1.886" transform="translate(-70.785 -97.889)" fill="#fae1bf"/>
        <path id="Trazado_1243814" data-name="Trazado 1243814" d="M113.843,201.733a34.348,34.348,0,0,0-4.485,4.725,30.563,30.563,0,0,1-4.443-4.61l4.325-4.6c1.428,1.611,3.193,2.859,4.6,4.485" transform="translate(-80.03 -150.461)" fill="#f0b3ab"/>
        <path id="Trazado_1243815" data-name="Trazado 1243815" d="M147.529,174.231l9.914-10.869c.32.354,1.188.723,1.188,1.3l-9.688,10.647c-.6.309-1.07-.751-1.414-1.077" transform="translate(-112.535 -124.613)" fill="#f2a66b"/>
        <path id="Trazado_1243816" data-name="Trazado 1243816" d="M73.915,110.683c.5-.077.762.176,1.127.436.35.25,3.044,2.908,3.2,3.174a1.351,1.351,0,0,1-1.743,2,24.164,24.164,0,0,1-3.7-3.884,1.4,1.4,0,0,1,1.117-1.723" transform="translate(-55.51 -84.418)" fill="#fab983"/>
        <path id="Trazado_1243817" data-name="Trazado 1243817" d="M86.345,96.57a1.987,1.987,0,0,1,.885-.048,30.776,30.776,0,0,1,3.92,3.652c.722,1.224-.506,2.532-1.991,1.752-.236-.124-3.1-2.924-3.228-3.145-.364-.633-.451-1.95.415-2.212" transform="translate(-65.348 -73.606)" fill="#faba84"/>
        <path id="Trazado_1243818" data-name="Trazado 1243818" d="M99.881,82.833c1.182-.181,4.26,2.846,4.043,4.035-.57,3.128-5.077-1.392-5.153-2.558a1.44,1.44,0,0,1,1.11-1.477" transform="translate(-75.34 -63.179)" fill="#f0b27e"/>
        <path id="Trazado_1243819" data-name="Trazado 1243819" d="M63.888,128.92c1.263-1.209,4.707,2.1,3.358,3.477-1.442,1.476-4.945-1.957-3.358-3.477" transform="translate(-48.425 -98.141)" fill="#f1b37f"/>
        <path id="Trazado_1243820" data-name="Trazado 1243820" d="M123.646,220.882a34.332,34.332,0,0,1,4.485-4.725c.3.346,1.1.546.919,1.252-.044.171-2.079,2.405-2.338,2.644a2.95,2.95,0,0,1-3.066.83" transform="translate(-94.317 -164.884)" fill="#ce2c63"/>
        <path id="Trazado_1243821" data-name="Trazado 1243821" d="M121.23,80.277c-1.4-2.1.572-3.841,1.841-1.3-.371.406-1.257,1.631-1.841,1.3" transform="translate(-92.107 -59.281)" fill="#e4a978"/>
      </g>
    </g>
  </g>
</svg>
