<svg xmlns="http://www.w3.org/2000/svg" xmlns:xlink="http://www.w3.org/1999/xlink" width="118" height="118" viewBox="0 0 118 118">
  <defs>
    <filter id="Elipse_12115" x="0" y="0" width="118" height="118" filterUnits="userSpaceOnUse">
      <feOffset dy="3" input="SourceAlpha"/>
      <feGaussianBlur stdDeviation="3" result="blur"/>
      <feFlood flood-opacity="0.161"/>
      <feComposite operator="in" in2="blur"/>
      <feComposite in="SourceGraphic"/>
    </filter>
    <clipPath id="clip-path">
      <rect id="Rectángulo_410286" data-name="Rectángulo 410286" width="73" height="73" transform="translate(0 -0.23)" fill="none"/>
    </clipPath>
  </defs>
  <g id="Grupo_1186650" data-name="Grupo 1186650" transform="translate(-745.781 -3846)">
    <g id="Grupo_1181949" data-name="Grupo 1181949" transform="translate(-54 1303)">
      <g transform="matrix(1, 0, 0, 1, 799.78, 2543)" filter="url(#Elipse_12115)">
        <g id="Elipse_12115-2" data-name="Elipse 12115" transform="translate(9 6)" fill="#eceff0" stroke="#f5f5f5" stroke-width="1.5">
          <circle cx="50" cy="50" r="50" stroke="none"/>
          <circle cx="50" cy="50" r="49.25" fill="none"/>
        </g>
      </g>
    </g>
    <g id="Grupo_1186657" data-name="Grupo 1186657" transform="translate(768.314 3866.364)">
      <g id="Grupo_1186656" data-name="Grupo 1186656" transform="translate(0 -0.335)" clip-path="url(#clip-path)">
        <path id="Trazado_1243849" data-name="Trazado 1243849" d="M158.593,253.221a6.353,6.353,0,0,0,5.312,4.663,7.7,7.7,0,0,0,6.084-1.695,6.919,6.919,0,0,0,6.448,3.11,6.65,6.65,0,0,1,2.832,5.937c-3.846.042-7.7-.029-11.545,0a.881.881,0,0,0-.918.992h-2.124c-.011-.293-.487-.989-.779-.989H151.937V261.49a5.2,5.2,0,0,0-1.063-1.907c-1.3-1.263-2.914-.954-4.579-1.014-1.719-3.765-6.341-4.386-9.794-5.913l5.3-.43c4.022.018,8.035.087,12.043.431,1.58.136,3.17.391,4.745.564" transform="translate(-110.725 -204.339)" fill="#fca85b"/>
        <path id="Trazado_1243850" data-name="Trazado 1243850" d="M40.282,281.048c-9.675.043-19.357-.032-29.032,0v-3.887a9.174,9.174,0,0,1,.632-1.914,4.832,4.832,0,0,1,1.278-1.515,5.393,5.393,0,0,0,5.953.958c1.28-.462,2.759-1.342,3.186-2.689a14.082,14.082,0,0,1,1.835,1.064c2.563,1.208,6.389.817,8.359-1.347,1.731.836,3.792,1.183,5.308,2.406,2.165,1.747,2.657,4.25,2.481,6.923" transform="translate(-9.126 -220.151)" fill="#ca96e6"/>
        <path id="Trazado_1243851" data-name="Trazado 1243851" d="M132.09,245.37c-.843-.373-1.135-.232-.992-1.414l7.43-.712h8.226l7.288.571a9.281,9.281,0,0,0,.141,2.121c-1.576-.174-3.165-.428-4.745-.564-4.007-.344-8.021-.413-12.043-.431Z" transform="translate(-106.315 -197.053)" fill="#fa9538"/>
        <path id="Trazado_1243852" data-name="Trazado 1243852" d="M123.75,265.666c.174-.191.8-1.348.875-1.39l.307-.019c2.686,1.308,7.382,1.926,8.948,4.655a8.582,8.582,0,0,1,.774,1.913v4.17c-1.037,0-2.079,0-3.116,0,.175-2.673-.317-5.175-2.481-6.923-1.516-1.223-3.576-1.57-5.308-2.406" transform="translate(-100.382 -214.098)" fill="#b77dd9"/>
        <path id="Trazado_1243853" data-name="Trazado 1243853" d="M31.32,253.04c1.641-.278,1.876,1.19,1.5,2.486-.429,1.483-2.808,2.4-4.23,2.291-1.351-.108-3.231-1.878-1.838-2.976a39.426,39.426,0,0,1,4.568-1.8" transform="translate(-21.303 -204.972)" fill="#fad8ba"/>
        <path id="Trazado_1243854" data-name="Trazado 1243854" d="M348,284.265a4.724,4.724,0,0,0,1.373-.4c.392-.179,1.255-.925,1.5-.861a3.932,3.932,0,0,1,1.114,1.3,8.17,8.17,0,0,1,.685,1.861V290.2c-.612,0-1.229-.007-1.841,0A6.65,6.65,0,0,0,348,284.265" transform="translate(-282.288 -229.305)" fill="#f49238"/>
        <path id="Trazado_1243855" data-name="Trazado 1243855" d="M242.729,89.36c3.933,2.256,5.242,6.385,4.815,10.742-1.747-1.165-2.474-4.059-3.892-5.515-2.134-2.191-3.749,2.356-4.83,3.666a7.812,7.812,0,0,1-4.8,2.556H228V96.357c0-2.242,2.524-5.18,4.478-6.131,2.383-1.16,7.535-1.033,10.25-.865" transform="translate(-184.947 -72.139)" fill="#fddf76"/>
        <path id="Trazado_1243856" data-name="Trazado 1243856" d="M251.256,147.284a4.692,4.692,0,0,1-1.774-.7c-1.386-.834-5.732-3.943-5.732-5.587v-6.573h5.311c1.011,0,3.714-2.282,4.378-3.122.317-.4,1.55-2.595,1.713-2.673.223-.106.2.106.248.177.839,1.166,1.489,2.655,2.37,3.78-.176,2.426.237,5.174,0,7.561-.363,3.627-4.121,5.018-6.513,7.139m-2.307-7.461c-1.131.259-.621,1.61-.036,2.236a4.611,4.611,0,0,0,6.167.208c.771-.673,1.477-2.257.059-2.468-1.272-.189-1.372,1.412-2.963,1.418-1.767.006-1.873-1.705-3.227-1.395" transform="translate(-197.723 -104.056)" fill="#fcf0dc"/>
        <path id="Trazado_1243857" data-name="Trazado 1243857" d="M283.5,164.408c2.392-2.122,6.15-3.512,6.513-7.139.239-2.387-.175-5.135,0-7.561a10.508,10.508,0,0,0,2.81,2.213c-.142,2.5.612,5.893-.993,8.01a26.867,26.867,0,0,1-5.987,4.343,3.98,3.98,0,0,1-2.344.134" transform="translate(-229.967 -121.18)" fill="#fae1be"/>
        <path id="Trazado_1243858" data-name="Trazado 1243858" d="M306,89.825a8.26,8.26,0,0,1,6.993,4.258,10.876,10.876,0,0,1,.938,2.6v4.594a4.332,4.332,0,0,1-3.116-.707c.427-4.357-.883-8.486-4.815-10.742" transform="translate(-248.218 -72.604)" fill="#fbce5a"/>
        <path id="Trazado_1243859" data-name="Trazado 1243859" d="M270.415,232.712c.12,2.434.2,4.311-1.7,6.078a4.333,4.333,0,0,1-3.112-1.347,8.128,8.128,0,0,1-.854-1.268V231.3a7.219,7.219,0,0,0,5.665,1.413" transform="translate(-214.758 -187.364)" fill="#fcf1dc"/>
        <path id="Trazado_1243860" data-name="Trazado 1243860" d="M324.027,252.468c.933-.046,3.967,1.681,5.079,1.935,1.2.889-.265,2.63-1.344,2.9-1.563.4-4.1-.5-4.709-2.093-.35-.918-.281-2.685.974-2.747" transform="translate(-261.903 -204.535)" fill="#faefda"/>
        <path id="Trazado_1243861" data-name="Trazado 1243861" d="M287.449,232.712a12.982,12.982,0,0,0,3.257-1.413v4.452a6.027,6.027,0,0,1-.854,1.551,4.594,4.594,0,0,1-4.1,1.488c1.895-1.767,1.819-3.644,1.7-6.078" transform="translate(-231.792 -187.364)" fill="#fae0be"/>
        <path id="Trazado_1243862" data-name="Trazado 1243862" d="M275.4,65.448H267.75a3.919,3.919,0,0,1,7.648,0" transform="translate(-217.191 -50.347)" fill="#fbcd59"/>
        <path id="Trazado_1243863" data-name="Trazado 1243863" d="M221.441,161.531v3.675c-3.4.445-3.466-4.158,0-3.675" transform="translate(-177.539 -130.741)" fill="#f3dab9"/>
        <path id="Trazado_1243864" data-name="Trazado 1243864" d="M344.25,165.255V161.58c3.262-.386,3.227,3.991,0,3.675" transform="translate(-279.246 -130.79)" fill="#fae1be"/>
        <path id="Trazado_1243865" data-name="Trazado 1243865" d="M268.391,187.878c1.354-.31,1.46,1.4,3.227,1.395,1.592-.006,1.692-1.607,2.963-1.418,1.418.21.712,1.795-.059,2.468a4.611,4.611,0,0,1-6.167-.208c-.586-.626-1.1-1.977.036-2.236" transform="translate(-217.165 -152.11)" fill="#050504"/>
        <path id="Trazado_1243866" data-name="Trazado 1243866" d="M9.772,59.108c-.765-1.6,1.375-2.166,2.55-2.472,2.507-.653,10.246-.623,12.68.2a10.3,10.3,0,0,1,6.719,8.842c.091,1.205-.246,3.842.031,4.775.078.263.963.964,1.22,1.468a4.018,4.018,0,0,1-.9,4.856c-.117.117-.352.118-.352.137v8.339l9.282-.006,6.721.571V83.278A6.917,6.917,0,0,1,43.9,77.766c-3.413.5-6.083-3.3-4.026-6.211.225-.319.772-.664.919-.92.356-.62.046-4.171.136-5.235a10.577,10.577,0,0,1,5.285-7.871c.394-.215,1.934-.744,2.045-.856.081-.082.468-1.749.688-2.212,2.638-5.57,10.985-3.839,11.557,2.209a10.523,10.523,0,0,1,7.314,8.461c.135,1.342-.266,4.318.044,5.327.093.3.5.369.681.592a4.058,4.058,0,0,1-3.683,6.713c-.052,2.515-1.851,4.267-3.751,5.657l-.072,3.674c.412.066.8-.155,1.2-.147a29.273,29.273,0,0,1,6.312,2.475,3.321,3.321,0,0,1,1.276,2.414c.014.379-.2.865-.157,1.1.009.046.564.409.722.588a9.835,9.835,0,0,1,1.481,2.2l.639,1.977v4.947a2.437,2.437,0,0,1-2.189,1.56c-4.191.374-8.93-.294-13.18,0-.681-.091-1.079-.43-1.059-1.134a.881.881,0,0,1,.918-.992c3.847-.027,7.7.045,11.545,0,.612-.007,1.229,0,1.841,0V98.048a8.171,8.171,0,0,0-.685-1.861,3.935,3.935,0,0,0-1.114-1.305c-.248-.064-1.11.682-1.5.861a4.725,4.725,0,0,1-1.373.4,6.919,6.919,0,0,1-6.448-3.11,7.7,7.7,0,0,1-6.084,1.695,6.353,6.353,0,0,1-5.312-4.663,9.282,9.282,0,0,1-.141-2.121l-7.288-.571H32.213l-7.43.712c-.144,1.182.149,1.041.992,1.414,3.453,1.527,8.076,2.148,9.794,5.913,1.665.06,3.274-.249,4.579,1.014a5.2,5.2,0,0,1,1.063,1.907v3.746H53.179c.292,0,.768.7.779.989a1.341,1.341,0,0,1-1.2,1.134l-11.978-.066c-3.777-1.094.743-7.286-4.382-6.58v5.159c0,.36-.927,1.257-1.339,1.35-10.92.316-21.919.039-32.869.14A2.437,2.437,0,0,1,0,102.642V97.553a8.725,8.725,0,0,1,2.95-4.747,3.3,3.3,0,0,1,1.726-3.833l0-11.845c-1.509-1.425-2.187-3.07-1.258-5.069.262-.563,1.2-1.411,1.254-1.717.359-1.884-.208-4.094.329-6.315.349-1.442,1.661-4.977,3.64-4.07-.056.34.253.764.108,1.308-.12.449-1.069,1.586-1.349,2.33a10.9,10.9,0,0,0-.6,2.793V69.85H9.135a29.881,29.881,0,0,0,4.315-1.489A17.038,17.038,0,0,0,19.4,64.545a11.668,11.668,0,0,0,1.137-1.692V58.4H14.375a10.972,10.972,0,0,0-1.736.388c-.666.193-1.714.862-2.3.685-.191-.057-.43-.351-.562-.366m48.435-2.827a3.919,3.919,0,0,0-7.648,0Zm-.425,2.12c-2.715-.168-7.867-.295-10.25.865-1.954.952-4.478,3.89-4.478,6.131V69.85h6.019a7.812,7.812,0,0,0,4.8-2.556c1.081-1.31,2.7-5.857,4.83-3.666,1.418,1.456,2.145,4.35,3.892,5.515a4.332,4.332,0,0,0,3.116.707V65.256a10.882,10.882,0,0,0-.938-2.6A8.26,8.26,0,0,0,57.782,58.4M29.6,69.85V65.822a10.3,10.3,0,0,0-.683-2.57,7.838,7.838,0,0,0-6.257-4.71v4.311c0,.808,2.955,5.035,3.678,5.8,1.14,1.2,1.482,1.361,3.261,1.2m-5.665-.565-2.547-3.957a.725.725,0,0,1-.208.428c-2.909,3.238-7.26,4.993-11.392,6.087.177,2.448-.573,5.476.722,7.661.857,1.447,5.389,4.661,7.053,4.9a3.9,3.9,0,0,0,1.846-.066c1.246-.309,5.489-3.418,6.285-4.469,1.624-2.143.706-5.553.91-8.092Zm36.113.424c-.881-1.125-1.531-2.614-2.37-3.78-.051-.071-.025-.283-.248-.177-.163.078-1.4,2.272-1.713,2.673-.664.84-3.367,3.121-4.378,3.121H46.027v6.573c0,1.644,4.346,4.753,5.732,5.587a4.686,4.686,0,0,0,1.774.7,3.982,3.982,0,0,0,2.344-.134,26.868,26.868,0,0,0,5.987-4.343c1.605-2.117.851-5.511.993-8.01a10.508,10.508,0,0,1-2.81-2.213M7.648,71.97c-3.3-.379-3.3,3.969,0,3.675Zm21.1,3.675c3.369.383,3.4-4.12,0-3.675ZM43.9,71.97c-3.466-.483-3.4,4.119,0,3.675ZM65,75.645c3.227.316,3.262-4.061,0-3.675ZM6.8,77.765V88.083c1.63-.258,3.127-1.642,4.814-.848-.082-1.067.113-2.284.01-3.33-.09-.914-.7-.881-1.285-1.4a6.94,6.94,0,0,1-2.61-4.6Zm22.8,0-.836.015c-.269,2.591-1.9,4.344-3.979,5.71v2.473L29.6,85.4ZM17.844,92.606a4.59,4.59,0,0,0,4.248-1.767,9.417,9.417,0,0,0,.567-.989V85.115c-.5.178-.895.573-1.387.807a8.148,8.148,0,0,1-1.729.607,6.6,6.6,0,0,1-3.92-.4c-.674-.27-1.219-.751-1.886-1.015v4.594a4.736,4.736,0,0,0,.65,1.189,4.29,4.29,0,0,0,3.457,1.709m36.113,0a4.594,4.594,0,0,0,4.1-1.488,6.027,6.027,0,0,0,.854-1.551V85.115a12.976,12.976,0,0,1-3.257,1.413,7.218,7.218,0,0,1-5.665-1.413v4.876a8.118,8.118,0,0,0,.854,1.268,4.331,4.331,0,0,0,3.112,1.347m8.166-3.493c-1.255.061-1.324,1.829-.974,2.747.606,1.59,3.146,2.49,4.709,2.093,1.079-.274,2.543-2.015,1.344-2.9-1.112-.255-4.146-1.981-5.079-1.935m-52.106.135a39.375,39.375,0,0,0-4.568,1.8c-1.393,1.1.487,2.868,1.838,2.976,1.423.113,3.8-.808,4.23-2.291.375-1.3.14-2.763-1.5-2.485m13.35,3.5c-1.971,2.163-5.8,2.555-8.359,1.347a14.084,14.084,0,0,0-1.835-1.064c-.427,1.346-1.906,2.227-3.186,2.689a5.393,5.393,0,0,1-5.953-.958,4.836,4.836,0,0,0-1.278,1.515,9.176,9.176,0,0,0-.632,1.914v3.887c9.675-.032,19.357.043,29.032,0,1.037,0,2.079,0,3.116,0v-4.17a8.582,8.582,0,0,0-.774-1.913c-1.567-2.729-6.262-3.347-8.948-4.655l-.307.019c-.071.042-.7,1.2-.875,1.39" transform="translate(0 -41.18)" fill="#030303"/>
        <path id="Trazado_1243867" data-name="Trazado 1243867" d="M38.974,90.531c.132.015.371.309.562.366.591.176,1.638-.492,2.3-.685a10.972,10.972,0,0,1,1.736-.388h6.161v4.452A11.668,11.668,0,0,1,48.6,95.968a17.038,17.038,0,0,1-5.948,3.816,29.881,29.881,0,0,1-4.315,1.489H36V97.81a10.9,10.9,0,0,1,.6-2.793c.28-.744,1.229-1.88,1.349-2.33.145-.544-.165-.968-.108-1.308a1.981,1.981,0,0,1,1.133-.848" transform="translate(-29.202 -72.603)" fill="#675d67"/>
        <path id="Trazado_1243868" data-name="Trazado 1243868" d="M65.724,130.465c-.128,2.378.17,4.926.006,7.285-.282,4.049-3.1,5.155-5.971,7.327-.194.147-.427.189-.408.512-1.664-.244-6.2-3.458-7.053-4.9-1.295-2.185-.546-5.213-.722-7.661,4.132-1.094,8.484-2.849,11.392-6.087a.724.724,0,0,0,.208-.428Zm-8.963,7.662c-.777.23-.7,1.212-.3,1.8a4.5,4.5,0,0,0,7.074.012c.847-1.131-.15-2.281-1.316-1.736-.718.335-.578,1.32-2.228,1.321-1.748,0-1.838-1.806-3.227-1.4" transform="translate(-41.79 -102.36)" fill="#d68954"/>
        <path id="Trazado_1243869" data-name="Trazado 1243869" d="M126.939,101.881c-1.779.163-2.121.005-3.261-1.2-.723-.763-3.678-4.991-3.678-5.8V90.573a7.838,7.838,0,0,1,6.257,4.71,10.306,10.306,0,0,1,.683,2.57Z" transform="translate(-97.341 -73.211)" fill="#544d55"/>
        <path id="Trazado_1243870" data-name="Trazado 1243870" d="M93,162.586c-.019-.323.214-.365.407-.512,2.866-2.172,5.69-3.278,5.971-7.327.164-2.359-.134-4.907-.006-7.285l2.668,2.5c-.2,2.539.715,5.949-.91,8.092-.8,1.051-5.039,4.161-6.285,4.469a3.9,3.9,0,0,1-1.846.066" transform="translate(-75.434 -119.358)" fill="#c37943"/>
        <path id="Trazado_1243871" data-name="Trazado 1243871" d="M78.556,232.712c-.046,1.707.29,3.127-.649,4.653-.335.544-.839.852-1.05,1.425a4.29,4.29,0,0,1-3.457-1.709,4.732,4.732,0,0,1-.65-1.189V231.3c.667.264,1.213.745,1.886,1.015a6.605,6.605,0,0,0,3.92.4" transform="translate(-59.013 -187.364)" fill="#d68854"/>
        <path id="Trazado_1243872" data-name="Trazado 1243872" d="M36,192.374l.929.133a6.94,6.94,0,0,0,2.61,4.6c.585.522,1.2.489,1.285,1.4.1,1.047-.092,2.263-.01,3.33-1.687-.794-3.184.59-4.814.848Z" transform="translate(-29.202 -155.789)" fill="#655c65"/>
        <path id="Trazado_1243873" data-name="Trazado 1243873" d="M136.065,192.374v7.633l-4.815.565V198.1c2.081-1.366,3.71-3.119,3.979-5.71Z" transform="translate(-106.466 -155.789)" fill="#534c54"/>
        <path id="Trazado_1243874" data-name="Trazado 1243874" d="M96.2,232.712a8.158,8.158,0,0,0,1.729-.607c.492-.234.89-.629,1.387-.807v4.735a9.415,9.415,0,0,1-.567.989A4.59,4.59,0,0,1,94.5,238.79c.212-.573.716-.881,1.05-1.425.939-1.525.6-2.946.649-4.653" transform="translate(-76.656 -187.364)" fill="#c37943"/>
        <path id="Trazado_1243875" data-name="Trazado 1243875" d="M152.25,165.226v-3.675c3.4-.445,3.369,4.058,0,3.675" transform="translate(-123.501 -130.761)" fill="#be7642"/>
        <path id="Trazado_1243876" data-name="Trazado 1243876" d="M29.87,161.583v3.675c-3.3.294-3.3-4.054,0-3.675" transform="translate(-22.222 -130.793)" fill="#c17843"/>
        <path id="Trazado_1243877" data-name="Trazado 1243877" d="M76.718,187.762c1.39-.411,1.479,1.4,3.227,1.4,1.65,0,1.51-.985,2.228-1.321,1.165-.544,2.163.606,1.316,1.736a4.5,4.5,0,0,1-7.074-.012c-.4-.587-.474-1.569.3-1.8" transform="translate(-61.747 -151.995)" fill="#040201"/>
      </g>
    </g>
  </g>
</svg>
