<svg xmlns="http://www.w3.org/2000/svg" xmlns:xlink="http://www.w3.org/1999/xlink" width="118" height="118" viewBox="0 0 118 118">
  <defs>
    <filter id="Elipse_12115" x="0" y="0" width="118" height="118" filterUnits="userSpaceOnUse">
      <feOffset dy="3" input="SourceAlpha"/>
      <feGaussianBlur stdDeviation="3" result="blur"/>
      <feFlood flood-opacity="0.161"/>
      <feComposite operator="in" in2="blur"/>
      <feComposite in="SourceGraphic"/>
    </filter>
    <clipPath id="clip-path">
      <rect id="Rectángulo_410953" data-name="Rectángulo 410953" width="81.902" height="79.591" fill="none"/>
    </clipPath>
    <clipPath id="clip-path-3">
      <rect id="Rectángulo_410935" data-name="Rectángulo 410935" width="2.029" height="3.305" fill="none"/>
    </clipPath>
    <clipPath id="clip-path-4">
      <rect id="Rectángulo_410936" data-name="Rectángulo 410936" width="1.345" height="4.509" fill="none"/>
    </clipPath>
    <clipPath id="clip-path-5">
      <rect id="Rectángulo_410937" data-name="Rectángulo 410937" width="2.864" height="4.709" fill="none"/>
    </clipPath>
    <clipPath id="clip-path-6">
      <rect id="Rectángulo_410938" data-name="Rectángulo 410938" width="0.928" height="0.751" fill="none"/>
    </clipPath>
    <clipPath id="clip-path-7">
      <rect id="Rectángulo_410939" data-name="Rectángulo 410939" width="2.296" height="5.807" fill="none"/>
    </clipPath>
    <clipPath id="clip-path-13">
      <rect id="Rectángulo_410945" data-name="Rectángulo 410945" width="52.884" height="40.066" fill="none"/>
    </clipPath>
    <clipPath id="clip-path-14">
      <rect id="Rectángulo_410946" data-name="Rectángulo 410946" width="21.73" height="38.66" fill="none"/>
    </clipPath>
    <clipPath id="clip-path-15">
      <rect id="Rectángulo_410947" data-name="Rectángulo 410947" width="4.43" height="5.906" fill="none"/>
    </clipPath>
    <clipPath id="clip-path-16">
      <rect id="Rectángulo_410948" data-name="Rectángulo 410948" width="1.959" height="2.957" fill="none"/>
    </clipPath>
    <clipPath id="clip-path-17">
      <rect id="Rectángulo_410949" data-name="Rectángulo 410949" width="18.277" height="32.778" fill="none"/>
    </clipPath>
    <clipPath id="clip-path-18">
      <rect id="Rectángulo_410951" data-name="Rectángulo 410951" width="38.277" height="36.606" fill="none"/>
    </clipPath>
  </defs>
  <g id="Grupo_1186626" data-name="Grupo 1186626" transform="translate(9 6)">
    <g id="Grupo_1181949" data-name="Grupo 1181949">
      <g transform="matrix(1, 0, 0, 1, -9, -6)" filter="url(#Elipse_12115)">
        <g id="Elipse_12115-2" data-name="Elipse 12115" transform="translate(9 6)" fill="#fcf6ea" stroke="#a87f78" stroke-width="1.5">
          <circle cx="50" cy="50" r="50" stroke="none"/>
          <circle cx="50" cy="50" r="49.25" fill="none"/>
        </g>
      </g>
    </g>
    <g id="Grupo_1188369" data-name="Grupo 1188369" transform="translate(9.049 12.205)">
      <g id="Grupo_1188368" data-name="Grupo 1188368" clip-path="url(#clip-path)">
        <g id="Grupo_1188367" data-name="Grupo 1188367">
          <g id="Grupo_1188366" data-name="Grupo 1188366" clip-path="url(#clip-path)">
            <path id="Trazado_1321053" data-name="Trazado 1321053" d="M206.286,63.793c4.86,6.161,2.547,12.344-2.748,17.234.015.037.017.1-.035.1a.232.232,0,0,1-.082-.024l-.01-.006a.1.1,0,0,1-.073-.025.122.122,0,0,1-.035-.053c-1.837-1.687-2.013-4.463-1.408-6.751.615-2.126,1.733-4.082,2.492-6.151a26.4,26.4,0,0,0,1.052-3.4c.108-.438.185-1.555.849-.927" transform="translate(-176.327 -55.637)" fill="#7985bc"/>
            <path id="Trazado_1321054" data-name="Trazado 1321054" d="M58.794,139.556c.127.089.314.287.121.354a.282.282,0,0,1-.213-.1l-.048-.042c-1.67.131-2.829,1.55-4.382,2.034-4.425,1.483-8.806-1.468-11.883-4.419a23.118,23.118,0,0,1-2.335-2.563c-.4-.512-.748-1.031.221-1.069,2.2-.185,4.23-1.365,6.432-1.5a11.869,11.869,0,0,1,6.659,1.99,16.718,16.718,0,0,1,3.865,3.667,18.383,18.383,0,0,0,1.564,1.645" transform="translate(-34.682 -115.68)" fill="#7985bc"/>
            <path id="Trazado_1321055" data-name="Trazado 1321055" d="M95.632,10.088a11.97,11.97,0,0,1,3.423,8.88c.018.708.013,1.418.081,2.125.021.09-.038.216-.146.171a.174.174,0,0,1-.061-.043,10.792,10.792,0,0,1-9.3-5.634c-1.374-2.7-1.085-5.813-.95-8.738.069-.37-.135-1.816.564-1.252.222.2.447.465.673.656a12.573,12.573,0,0,0,2.444,1.465,14.407,14.407,0,0,1,3.276,2.369" transform="translate(-77.46 -4.783)" fill="#7985bc"/>
            <path id="Trazado_1321056" data-name="Trazado 1321056" d="M76.264,35.347c.154,3.4-1.311,6.581-2.356,9.747a16.573,16.573,0,0,0-.748,3c0,.091-.045.349-.067.62-.071-.12-.139-.242-.211-.362-1.078-1.829-2.007-3.742-3.123-5.548a103.764,103.764,0,0,0-9.046-12.524,16.268,16.268,0,0,1-1.578-2.354c-.1-.184-.189-.38-.284-.575a.041.041,0,1,0-.073.034,6.081,6.081,0,0,0,.272.61,14.88,14.88,0,0,0,1.908,2.911,89.738,89.738,0,0,1,5.379,7.344,81.656,81.656,0,0,1,5.016,8.131c.62,1.136,1.272,2.256,1.914,3.381q-.421-.342-.858-.662a18.888,18.888,0,0,0-3.475-2.018,41.508,41.508,0,0,0-9.279-2.688c-2.222-.451-4.548-.558-6.669-1.412-.028-.009-.079-.056-.1-.014a.041.041,0,0,0,.023.05,11.379,11.379,0,0,0,2.839.914c2.093.467,4.2.881,6.292,1.342,4.389,1,8.334,2.34,11.744,5.4.686,1.222,1.347,2.457,1.93,3.734.9,1.914,1.712,3.868,2.459,5.847.273.713.548,1.426.812,2.142a5.7,5.7,0,0,0,.284.714c.055.065.135.15.228.124.124-.1.094-.278.038-.41-.378-1.035-.772-2.057-1.169-3.086a69.88,69.88,0,0,0-4.908-10.4.685.685,0,0,0,0-.215,6.4,6.4,0,0,1,.079-1.059,43.942,43.942,0,0,1,1.794-6.181,17.2,17.2,0,0,0,.992-7.3c-.174-.254-.047.609-.06.767" transform="translate(-46.254 -23.898)" fill="#4c60b0"/>
            <path id="Trazado_1321057" data-name="Trazado 1321057" d="M371.442,96.342c-2.953,7.27.99,12.565,7.438,15.787,0,.04.012.1.062.086a.233.233,0,0,0,.072-.046l.008-.009a.1.1,0,0,0,.063-.045.122.122,0,0,0,.02-.06c1.3-2.132.691-4.848-.527-6.876-1.182-1.87-2.8-3.438-4.106-5.214A26.388,26.388,0,0,1,372.515,97c-.226-.39-.61-1.442-1.074-.654" transform="translate(-324.034 -84.022)" fill="#7985bc"/>
            <path id="Trazado_1321058" data-name="Trazado 1321058" d="M457.276,130.552c-.1.121-.222.363-.018.373.085-.012.135-.091.177-.157l.034-.053c1.641-.339,3.148.7,4.776.734,4.663.192,8.049-3.862,10.183-7.553a23.106,23.106,0,0,0,1.529-3.111c.239-.6.431-1.2-.51-.966-2.168.435-4.443-.133-6.595.354a11.869,11.869,0,0,0-5.842,3.765,16.721,16.721,0,0,0-2.691,4.6,18.375,18.375,0,0,1-1.044,2.016" transform="translate(-399.875 -104.763)" fill="#7985bc"/>
            <path id="Trazado_1321059" data-name="Trazado 1321059" d="M452.5,6.3a11.971,11.971,0,0,0-.815,9.482c.18.685.383,1.366.514,2.063,0,.092.1.2.188.124a.172.172,0,0,0,.047-.058,10.792,10.792,0,0,0,7.367-8c.569-2.975-.577-5.885-1.521-8.657-.169-.336-.376-1.782-.89-1.045-.157.257-.3.571-.464.817a12.579,12.579,0,0,1-1.939,2.087A14.406,14.406,0,0,0,452.5,6.3" transform="translate(-394.562 0.001)" fill="#7985bc"/>
            <path id="Trazado_1321060" data-name="Trazado 1321060" d="M383.44,35.926c.8,3.308,3.092,5.956,4.976,8.706a16.577,16.577,0,0,1,1.554,2.676c.028.086.14.323.236.577.035-.135.067-.271.1-.406.526-2.057.885-4.153,1.455-6.2a103.766,103.766,0,0,1,5.2-14.548,16.263,16.263,0,0,0,.861-2.7c.041-.2.076-.418.113-.631,0-.022.021-.047.047-.044s.035.033.033.056a6.118,6.118,0,0,1-.092.661,14.884,14.884,0,0,1-1.022,3.327,89.749,89.749,0,0,0-3.121,8.552,81.626,81.626,0,0,0-2.554,9.206c-.279,1.264-.594,2.521-.9,3.78q.309-.445.639-.875a18.887,18.887,0,0,1,2.776-2.906,41.512,41.512,0,0,1,8.163-5.166c2.008-1.052,4.213-1.8,6.013-3.213.024-.016.061-.076.1-.043a.041.041,0,0,1-.008.054,11.381,11.381,0,0,1-2.472,1.669c-1.88,1.031-3.787,2.015-5.67,3.04-3.936,2.185-7.353,4.568-9.778,8.453-.318,1.365-.609,2.735-.814,4.123-.334,2.089-.567,4.192-.733,6.3-.064.761-.13,1.522-.184,2.284a5.694,5.694,0,0,1-.074.765c-.034.077-.088.182-.185.182-.146-.057-.167-.241-.151-.383.075-1.1.169-2.191.263-3.29a69.9,69.9,0,0,1,1.819-11.354.686.686,0,0,1-.064-.205,6.39,6.39,0,0,0-.371-1,43.966,43.966,0,0,0-3.444-5.437,17.2,17.2,0,0,1-2.985-6.734c.1-.292.215.572.271.72" transform="translate(-335.164 -20.429)" fill="#4c60b0"/>
            <path id="Trazado_1321061" data-name="Trazado 1321061" d="M67.283,219.974a9.757,9.757,0,0,1-2.036,7.016c-.659.889-1.456,1.667-2.1,2.564a3.564,3.564,0,0,0-.407.676c-.016.029-.027.064-.042.1.148.28.328.648.128.615-3.412-1.679-5.6,1.066-9.411-.517a9.765,9.765,0,0,1-4.444-4.05c-.123-.249-.789-1.02-.336-1.147a11.336,11.336,0,0,0,1.914.1c1.724-.132,3.419-.746,5.162-.463a9.008,9.008,0,0,1,6.4,4.349,50.375,50.375,0,0,1-2.135-5.647,7.967,7.967,0,0,1,1.421-7.065,16.994,16.994,0,0,1,4.765-3.44c1.166-.731.787.233.567.963-.571,2,.376,3.977.559,5.953" transform="translate(-42.403 -186.138)" fill="#b3b27d"/>
            <path id="Trazado_1321062" data-name="Trazado 1321062" d="M79.072,233.5a.043.043,0,0,0-.067.014c-.108.139-.257.259-.377.392-4.252,3.93-3.046,8.4-2.254,13.328a44.3,44.3,0,0,0-2.649-5.093,26.869,26.869,0,0,0-2.7-3.861c-.482-.573-1.021-.766-.284.061a29.516,29.516,0,0,1,3.88,6.32c.414.822.816,1.647,1.2,2.482-.339-.282-.666-.522-.747-.573A10.731,10.731,0,0,0,69.813,245a17.106,17.106,0,0,1-4.217-.354,4.913,4.913,0,0,1-.83-.343.043.043,0,1,0-.048.07,2.9,2.9,0,0,0,.587.335,12.368,12.368,0,0,0,4.33.6,10.264,10.264,0,0,1,5.654,1.92,9.481,9.481,0,0,1,.946.845c.2.459.387.921.566,1.39a31.907,31.907,0,0,1,1.119,3.653c.056.2.071.453.292.536.43.033.175-.55.123-.792-.2-.784-.417-1.566-.671-2.335s-.557-1.546-.871-2.31a.226.226,0,0,0,.011-.03,16.016,16.016,0,0,0-.3-2.522c-.893-4.6-1.307-8.107,2.269-11.722.1-.108.209-.243.309-.359a.068.068,0,0,0,0-.09" transform="translate(-56.587 -204.234)" fill="#9a984a"/>
            <path id="Trazado_1321063" data-name="Trazado 1321063" d="M9.091,203.939a.5.5,0,0,1-.181-.054C6.128,203.43,2.6,202.377.7,200.2c-1.1-1.114-1-3.207.978-2.821a8.387,8.387,0,0,1,3.488,2.316c1.269,1.224,2.462,2.525,3.683,3.8a.881.881,0,0,1,.242.446" transform="translate(0 -172.609)" fill="#eb6670"/>
            <path id="Trazado_1321064" data-name="Trazado 1321064" d="M42.871,171.07c.28.257.034.329-.195.167-2.145-1.428-5.074-3.893-6.11-6.27-1.03-2.585.725-4.1,2.582-1.645,1.666,2.348,2.513,5.163,3.723,7.747" transform="translate(-31.718 -141.772)" fill="#eb6670"/>
            <path id="Trazado_1321065" data-name="Trazado 1321065" d="M86.161,144.057a6.6,6.6,0,0,1,.705,3.557,31.172,31.172,0,0,1-.64,5.5c0,.131-.106.33-.258.235-1.445-2.094-3.187-7.073-2.2-9.519.507-1.343,1.858-.763,2.393.23" transform="translate(-73.02 -125.12)" fill="#eb6670"/>
            <path id="Trazado_1321066" data-name="Trazado 1321066" d="M17.3,154.5c1.1,3.261-.007,7.53-.849,10.784-.254.822-.431,1.673-.764,2.469-.368.906-1.475.93-2.314.92a25.535,25.535,0,0,1-9.441-2.165C2.488,165.785.4,164.5.379,162.7a1.317,1.317,0,0,1,.7-1.14c1.359-.571,3.445.511,4.792,1.148A7.523,7.523,0,0,1,3.395,159.2c-.492-1.5.736-3.165,2.32-2.318a8.48,8.48,0,0,1,2.293,2c.578.653,1.119,1.338,1.64,2.038A14.781,14.781,0,0,1,8.384,155.7c-.079-1.537.94-3.71,2.575-2.106,1.169,1.417,1.482,3.33,1.965,5.056.033.143.068.286.1.428a17.6,17.6,0,0,1,.074-1.954,7.112,7.112,0,0,1,1.1-3.755c1.135-1.411,2.644-.229,3.091,1.129" transform="translate(-0.332 -133.597)" fill="#efa444"/>
            <path id="Trazado_1321067" data-name="Trazado 1321067" d="M454.707,160.03a9.757,9.757,0,0,0,2.036,7.016c.659.889,1.456,1.667,2.1,2.564a3.561,3.561,0,0,1,.407.676c.016.029.027.064.042.1-.148.28-.328.648-.128.615,3.412-1.679,5.6,1.066,9.411-.517a9.764,9.764,0,0,0,4.444-4.05c.123-.249.789-1.02.336-1.146a11.349,11.349,0,0,1-1.914.1c-1.724-.132-3.419-.746-5.162-.463a9.008,9.008,0,0,0-6.4,4.349,50.387,50.387,0,0,0,2.135-5.647,7.967,7.967,0,0,0-1.421-7.065,16.991,16.991,0,0,0-4.765-3.44c-1.166-.731-.787.233-.567.963.571,2-.376,3.977-.559,5.953" transform="translate(-397.685 -133.703)" fill="#b3b27d"/>
            <path id="Trazado_1321068" data-name="Trazado 1321068" d="M488.5,184.366a.049.049,0,0,0-.067-.006,4.9,4.9,0,0,1-.83.343,17.1,17.1,0,0,1-4.217.354,10.729,10.729,0,0,0-5.261,1.567c-.081.052-.408.291-.747.573.381-.836.782-1.66,1.2-2.482a29.518,29.518,0,0,1,3.88-6.32c.737-.827.2-.633-.284-.061a26.881,26.881,0,0,0-2.7,3.861,44.3,44.3,0,0,0-2.649,5.093c.792-4.926,2-9.4-2.254-13.328-.12-.133-.269-.254-.377-.392a.043.043,0,0,0-.067-.014.068.068,0,0,0,0,.09c.1.116.2.252.309.359,3.575,3.615,3.161,7.123,2.269,11.722a16.031,16.031,0,0,0-.3,2.522.208.208,0,0,0,.011.03c-.313.764-.605,1.534-.871,2.31s-.466,1.551-.671,2.335c-.052.243-.306.825.123.792.221-.083.236-.34.292-.536a31.909,31.909,0,0,1,1.119-3.653c.179-.47.37-.932.566-1.391a9.464,9.464,0,0,1,.946-.845,10.263,10.263,0,0,1,5.654-1.92,12.368,12.368,0,0,0,4.33-.6,2.887,2.887,0,0,0,.587-.335.049.049,0,0,0,.02-.064" transform="translate(-414.706 -151.801)" fill="#9a984a"/>
            <path id="Trazado_1321069" data-name="Trazado 1321069" d="M581.169,144a.5.5,0,0,0,.181-.054c2.782-.455,6.307-1.507,8.21-3.685,1.1-1.114,1-3.207-.978-2.821a8.385,8.385,0,0,0-3.488,2.316c-1.269,1.224-2.462,2.525-3.683,3.8a.881.881,0,0,0-.242.445" transform="translate(-508.358 -120.177)" fill="#eb6670"/>
            <path id="Trazado_1321070" data-name="Trazado 1321070" d="M563.838,111.127c-.279.257-.034.329.195.167,2.145-1.428,5.074-3.893,6.11-6.27,1.03-2.585-.725-4.1-2.582-1.645-1.666,2.348-2.513,5.163-3.723,7.747" transform="translate(-493.089 -89.339)" fill="#eb6670"/>
            <path id="Trazado_1321071" data-name="Trazado 1321071" d="M543.914,84.114a6.6,6.6,0,0,0-.705,3.557,31.17,31.17,0,0,0,.64,5.5c0,.131.106.33.258.235,1.445-2.094,3.187-7.073,2.2-9.519-.507-1.343-1.858-.763-2.393.23" transform="translate(-475.153 -72.687)" fill="#eb6670"/>
            <path id="Trazado_1321072" data-name="Trazado 1321072" d="M515.1,94.554c-1.1,3.261.007,7.53.849,10.784.254.822.431,1.673.764,2.469.368.906,1.475.93,2.314.92a25.533,25.533,0,0,0,9.441-2.165c1.442-.721,3.535-2.006,3.551-3.806a1.317,1.317,0,0,0-.7-1.14c-1.359-.571-3.445.511-4.792,1.148A7.522,7.522,0,0,0,529,99.257c.492-1.5-.736-3.165-2.32-2.318a8.476,8.476,0,0,0-2.293,2c-.578.653-1.119,1.338-1.64,2.038a14.78,14.78,0,0,0,1.264-5.226c.079-1.537-.94-3.71-2.575-2.106-1.169,1.417-1.482,3.33-1.965,5.056-.033.143-.068.286-.1.428a17.574,17.574,0,0,0-.074-1.954,7.112,7.112,0,0,0-1.1-3.755c-1.135-1.411-2.644-.229-3.091,1.129" transform="translate(-450.162 -81.163)" fill="#efa444"/>
            <path id="Trazado_1321073" data-name="Trazado 1321073" d="M188.157,63.155c-.721.671-1.5-.29-1.76-.948a6.073,6.073,0,0,1-.4-1.571c0-.051-.013-.1-.021-.154a9.339,9.339,0,0,1-.852,1.346c-.472.617-1.658,1.572-2.134.468a3.048,3.048,0,0,1,1.353-2.529,7.615,7.615,0,0,1-1.068.354c-.753.178-2.063.38-2.352-.57-.039-1.052,1.754-1.4,3-1.353a2.632,2.632,0,0,0-.31-.131,3.923,3.923,0,0,1-1.851-1.541c-.315-.869.591-1.133,1.272-.938a4.233,4.233,0,0,1,1.726.959c-.025-.057-.049-.114-.073-.171a6.466,6.466,0,0,1-.392-1.256,2.225,2.225,0,0,1-.052-1.035c.109-.6.853-.666,1.274-.34a2.678,2.678,0,0,1,.916,1.722,5.805,5.805,0,0,1,.082.652,4.436,4.436,0,0,1,.913-1.509c1.158-1.124,2.412-.464,1.558,1.076a7.6,7.6,0,0,1-1.106,1.553,3.965,3.965,0,0,1,1.946-.413c.8-.019,2.034.554,1.158,1.415a2.351,2.351,0,0,1-1.088.423,8.039,8.039,0,0,1-1.341.13,4.53,4.53,0,0,1,.827.339,2.268,2.268,0,0,1,1.236,1.113c.259.666-.353,1.069-.965.919a4.78,4.78,0,0,1-1.786-.91c-.089-.067-.183-.132-.276-.2a5.013,5.013,0,0,1,.306.544,2.849,2.849,0,0,1,.259,2.553" transform="translate(-158.252 -46.843)" fill="#f5cdcb"/>
            <path id="Trazado_1321074" data-name="Trazado 1321074" d="M217.2,88.443a.82.82,0,0,1-.4.183.8.8,0,0,1-.9-.582.819.819,0,0,1,.045-.549.1.1,0,0,1,.006-.015.9.9,0,0,1,.059-.1l0,0,0-.005.022-.03.01-.013,0,0,0-.006a.816.816,0,0,1,.193-.17l.036-.021.045-.024a.734.734,0,0,1,.149-.054.626.626,0,0,1,.081-.017l.049-.005.054,0h.043a.85.85,0,0,1,.118.012.8.8,0,0,1,.413.211.807.807,0,0,1-.035,1.2" transform="translate(-188.823 -76.12)" fill="#efa444"/>
            <path id="Trazado_1321075" data-name="Trazado 1321075" d="M176.872,145.443c.08.983.125,1.97.128,2.957a6.012,6.012,0,0,1-.4,2.433.676.676,0,0,1-.156.22,14.779,14.779,0,0,1,.392,7.17,8.866,8.866,0,0,1-.782,2.389,6.96,6.96,0,0,1,.769,4.668,3.772,3.772,0,0,1-.447,1.364,2.667,2.667,0,0,1,.332.5c.658,1.264.18,2.7.035,4.036-.236,1.417.017,2.948-.623,4.269a3.6,3.6,0,0,1-3.637,1.624,3.126,3.126,0,0,1-1.417-.446,3.836,3.836,0,0,1-1.71.136,5.725,5.725,0,0,1-4.535-4.211c-.016-.111-.04-.231-.049-.349a9.044,9.044,0,0,1-3.838-2.23,10.544,10.544,0,0,1-3.609-7.517,8.024,8.024,0,0,1,.256-2.246,6.061,6.061,0,0,1-.763-7.333.509.509,0,0,1,.033-.049,7.219,7.219,0,0,1,1.132-7.761,7.447,7.447,0,0,1,.865-.806,6.033,6.033,0,0,1-.006-1.389,6.185,6.185,0,0,1,2.336-4.153,3.962,3.962,0,0,1,2.713-.951h.006c.073-.314.2-.635.244-.791.814-2.239,3.849-3.6,5.949-2.309a.159.159,0,0,1,.023.016,3.281,3.281,0,0,1,3.429-1.528c2.562.627,3.057,3.707,3.02,5.962-.038.638-.04,2.731-.44,3.366a6.083,6.083,0,0,1,.75,2.96" transform="translate(-136.396 -116.395)" fill="#ec8895"/>
            <g id="Grupo_1188317" data-name="Grupo 1188317" transform="translate(23.313 22.773)" style="mix-blend-mode: soft-light;isolation: isolate">
              <g id="Grupo_1188316" data-name="Grupo 1188316">
                <g id="Grupo_1188315" data-name="Grupo 1188315" clip-path="url(#clip-path-3)">
                  <path id="Trazado_1321076" data-name="Trazado 1321076" d="M186.208,185.076c-.26-.146-.055-.506-.031-.732a3.77,3.77,0,0,1,1.856-2.559c.069-.055.106.068.037.093a5.387,5.387,0,0,0-1.509,2.38c-.109.24-.011.8-.353.818" transform="translate(-186.078 -181.771)" fill="#fff"/>
                </g>
              </g>
            </g>
            <g id="Grupo_1188320" data-name="Grupo 1188320" transform="translate(28.467 19.985)" style="mix-blend-mode: soft-light;isolation: isolate">
              <g id="Grupo_1188319" data-name="Grupo 1188319">
                <g id="Grupo_1188318" data-name="Grupo 1188318" clip-path="url(#clip-path-4)">
                  <path id="Trazado_1321077" data-name="Trazado 1321077" d="M228.306,164.015a.429.429,0,0,1-.243-.178,3.366,3.366,0,0,1-.808-1.655,3.045,3.045,0,0,1,.784-2.666c.119-.006.005.188-.016.243a3.434,3.434,0,0,0,0,3.166c.148.332.556.555.541.943.011.145-.146.178-.261.147" transform="translate(-227.223 -159.517)" fill="#fff"/>
                </g>
              </g>
            </g>
            <g id="Grupo_1188323" data-name="Grupo 1188323" transform="translate(20.862 33.672)" style="mix-blend-mode: soft-light;isolation: isolate">
              <g id="Grupo_1188322" data-name="Grupo 1188322">
                <g id="Grupo_1188321" data-name="Grupo 1188321" clip-path="url(#clip-path-5)">
                  <path id="Trazado_1321078" data-name="Trazado 1321078" d="M169.157,273.475c-.307-.047-.519-.324-.751-.509a5.441,5.441,0,0,1-1.872-4.135c.073-.175.153.063.181.139a6.857,6.857,0,0,0,1.7,3.347c.251.291.594.486.842.774.11.188.248.411-.1.384" transform="translate(-166.515 -268.768)" fill="#fff"/>
                </g>
              </g>
            </g>
            <g id="Grupo_1188326" data-name="Grupo 1188326" transform="translate(24.542 38.863)" style="mix-blend-mode: soft-light;isolation: isolate">
              <g id="Grupo_1188325" data-name="Grupo 1188325">
                <g id="Grupo_1188324" data-name="Grupo 1188324" clip-path="url(#clip-path-6)">
                  <path id="Trazado_1321079" data-name="Trazado 1321079" d="M196.473,310.908c-.2-.123-.76-.411-.523-.7.21-.073.473.167.682.225.319.134.212.661-.159.472" transform="translate(-195.892 -310.198)" fill="#fff"/>
                </g>
              </g>
            </g>
            <g id="Grupo_1188329" data-name="Grupo 1188329" transform="translate(21.837 45.225)" style="mix-blend-mode: soft-light;isolation: isolate">
              <g id="Grupo_1188328" data-name="Grupo 1188328">
                <g id="Grupo_1188327" data-name="Grupo 1188327" clip-path="url(#clip-path-7)">
                  <path id="Trazado_1321080" data-name="Trazado 1321080" d="M176.382,366.766c-1.3-.963-2.5-4.134-1.94-5.7.15-.236.228.107.224.237a7.488,7.488,0,0,0,.923,3.722,7.047,7.047,0,0,0,.8,1.171.806.806,0,0,1,.2.58.325.325,0,0,1-.212-.007" transform="translate(-174.302 -360.981)" fill="#fff"/>
                </g>
              </g>
            </g>
            <path id="Trazado_1321081" data-name="Trazado 1321081" d="M237.012,426.412c.285-.111.415.116.192.324a3.542,3.542,0,0,1-2.623.927.431.431,0,0,1-.137.157,5.643,5.643,0,0,1-.538.395,5.9,5.9,0,0,1-3.334.771,9.2,9.2,0,0,1-3.1-.714,5.791,5.791,0,0,1-.62-.316.047.047,0,0,1-.018-.054c.038-.053.116-.024.191.014.332.114.663.247,1,.331a7.147,7.147,0,0,0,4.114-.023,3.136,3.136,0,0,1-1.625-1.253,6.259,6.259,0,0,1-.593-1.27c0-.129.169-.145.239-.06a4.447,4.447,0,0,0,1.213,1.5,2.331,2.331,0,0,0,2.414.246,1.967,1.967,0,0,1,.254-.129,2.65,2.65,0,0,1-.912-1.46c-.11-.327.221-.32.319-.061.737,1.245,2.386,1.228,3.56.673" transform="translate(-198.415 -372.235)" fill="#eb6670"/>
            <path id="Trazado_1321082" data-name="Trazado 1321082" d="M299.657,395.385a.236.236,0,0,1-.012.124,3.218,3.218,0,0,1-2.928,2.458c-.083-.011-.065-.117,0-.144.04-.02.086-.024.127-.042a4.645,4.645,0,0,0,2.685-2.37c.017-.052.1-.086.129-.026" transform="translate(-259.495 -345.823)" fill="#eb6670"/>
            <path id="Trazado_1321083" data-name="Trazado 1321083" d="M286.447,352.493c.041-.063.1-.286.189-.17a3.307,3.307,0,0,1-.828,1.589,1.127,1.127,0,0,0-.058.352,4.381,4.381,0,0,1-.159,1.5,2.374,2.374,0,0,1-.862,1.071c-.077-.02-.023-.11.008-.148a2.909,2.909,0,0,0,.658-1.817,2.117,2.117,0,0,0-.065-.522,2.932,2.932,0,0,1-1.73.611,5.517,5.517,0,0,1-1.082-.146c-.054-.017-.137-.045-.124-.115a.1.1,0,0,1,.079-.074c.221-.033.449,0,.673-.027a3.88,3.88,0,0,0,1.962-.678,3.838,3.838,0,0,0,1.338-1.421" transform="translate(-247.014 -308.154)" fill="#eb6670"/>
            <path id="Trazado_1321084" data-name="Trazado 1321084" d="M210.42,376.008c.009.144-.168.1-.244.044a4.348,4.348,0,0,0-1.83-.9,5.18,5.18,0,0,0-2.564.3,7.16,7.16,0,0,0-2.085.94,2.244,2.244,0,0,0-.373,3.191,3.754,3.754,0,0,0,.606.6c.1.156-.095.172-.2.1-1.759-.9-2.239-3.319-.4-4.416a3.817,3.817,0,0,1-4-2.968c-.044-.122.076-.192.168-.1a.3.3,0,0,1,.047.157,1.894,1.894,0,0,0,.149.31,3.944,3.944,0,0,0,4.5,1.9c1.941-.549,3.9-1.333,5.619.228a5.305,5.305,0,0,1,.6.621" transform="translate(-174.354 -326.05)" fill="#eb6670"/>
            <path id="Trazado_1321085" data-name="Trazado 1321085" d="M198.7,345.31c.183-.061.2.06.123.2l0,0a.825.825,0,0,1-.132.2,2.965,2.965,0,0,1-1.85,1.01,1.8,1.8,0,0,1,.195,2.1c-.041.076-.04.253-.159.231-.136-.071-.046-.253-.063-.374a2.109,2.109,0,0,0-.438-1.537c-.716-.629-1.644-1.049-2.058-1.962-.066-.162-.232-.364-.2-.54,0-.012,0-.025-.006-.037a.048.048,0,0,1,.033-.06c.1-.016.138.107.183.171a2.693,2.693,0,0,0,2.552,1.382,3.535,3.535,0,0,0,1.822-.786" transform="translate(-169.789 -301.376)" fill="#eb6670"/>
            <path id="Trazado_1321086" data-name="Trazado 1321086" d="M178.906,298.55a.077.077,0,0,1,.049.07c0,.032-.03.049-.054.064a4.847,4.847,0,0,1-1.675.179,6.093,6.093,0,0,1-4.44-2.127c-3.324-.656-6.847-1.884-8.276-5.241-.062-.126-.055-.2-.017-.222a.055.055,0,0,1,.08-.048.314.314,0,0,1,.123.143.407.407,0,0,1,.052.091c0,.008.008.016.012.023h0c1.189,2.184,3.176,3.2,5.477,3.858.674.205,1.363.38,2.016.646-.045-.075-.088-.151-.129-.229a5.178,5.178,0,0,1-.2-4.034c.01-.073.081-.153.157-.1.086.066.048.171.019.254a5.354,5.354,0,0,0,1.164,4.44,6.341,6.341,0,0,0,5.177,2.233c.155.007.314-.018.468,0" transform="translate(-143.859 -254.733)" fill="#eb6670"/>
            <path id="Trazado_1321087" data-name="Trazado 1321087" d="M264.553,286.28c.43.206.177.416-.181.316a2.336,2.336,0,0,1-1.74-2.657,2.79,2.79,0,0,1-1.425.247,1.444,1.444,0,0,1-.583-.078c-.127-.162.1-.293.244-.285a3.314,3.314,0,0,0,2.049-.838,2.959,2.959,0,0,0,.594-3.624c-.071-.062.037-.179.1-.1a3.184,3.184,0,0,1-.359,4.267,1.991,1.991,0,0,0-.078.284,2.319,2.319,0,0,0,1.379,2.467" transform="translate(-227.938 -244.25)" fill="#eb6670"/>
            <path id="Trazado_1321088" data-name="Trazado 1321088" d="M304.686,243.291c.091-.033.15.1.092.16a.7.7,0,0,1-.45.053c-1.867-.668-1.238-3.19-1.65-4.7-.038-.072.008-.213.1-.135a1.349,1.349,0,0,1,.089.162c.629,1.462.252,3.536,1.817,4.459" transform="translate(-264.746 -208.748)" fill="#eb6670"/>
            <path id="Trazado_1321089" data-name="Trazado 1321089" d="M183.021,214.629c.029.129-.133.146-.225.141a5.951,5.951,0,0,0-3.312.8c-.086-.014-.057-.119,0-.151.085-.059.131-.157.21-.224a3.1,3.1,0,0,1,2.942-.723c.13.032.307.033.383.159" transform="translate(-156.951 -187.503)" fill="#eb6670"/>
            <path id="Trazado_1321090" data-name="Trazado 1321090" d="M203.32,244.639a.154.154,0,0,1,.027.226c-.087.063-.181-.075-.257-.113-1.523-1.143-2.92-.31-3.391,1.371a10.078,10.078,0,0,0-.274,1.279c-.039.149-.015.689-.273.445-.344-1.9-.1-4.149-1.593-5.636a3.74,3.74,0,0,0-1.5-1.035,1.236,1.236,0,0,0-.817.1,1.209,1.209,0,0,0-.317.226c-.182-.046.06-.231.131-.282,2.326-1.4,4.56,1.685,4.347,3.863a2.36,2.36,0,0,1,2.636-1.426,3.253,3.253,0,0,1,1.278.978" transform="translate(-170.448 -210.694)" fill="#eb6670"/>
            <path id="Trazado_1321091" data-name="Trazado 1321091" d="M224.93,179.962c.021.383.023.772.026,1.155-.025.123-.191.074-.207-.032a4.057,4.057,0,0,0-2.12-3.293c-1.629-.919-3.651-1.146-5.007-2.527a3.439,3.439,0,0,1-.928-3.142,2.462,2.462,0,0,1,.311-.844c.023-.036.044-.082.095-.074.085.026.063.136.062.207a4.451,4.451,0,0,0,.924,3.1c1.7,2.17,4.577,1.572,6.178,3.808a3.814,3.814,0,0,1,.666,1.646" transform="translate(-189.482 -149.755)" fill="#eb6670"/>
            <path id="Trazado_1321092" data-name="Trazado 1321092" d="M257.932,176.733c.095.1.007.188-.106.1-3.021-2.5-6.276.036-8.2-3.649-.048-.107-.243-.477.016-.365.168.156.292.361.456.52,1.187,1.349,2.661,1.39,4.145,1.609a3.076,3.076,0,0,1-1.4-2.582c.029-.1.151-.046.18.027a5.706,5.706,0,0,0,1.54,2.3c.059.065.427.286.612.436a5.051,5.051,0,0,1,1.507.614,8.17,8.17,0,0,1,1.252,1" transform="translate(-218.246 -150.723)" fill="#eb6670"/>
            <path id="Trazado_1321093" data-name="Trazado 1321093" d="M264.624,146.843c.073-.128.306-.323.347-.068a4.563,4.563,0,0,0-.292,2.418c.016.06-.041.128-.1.094a2.205,2.205,0,0,1,.048-2.444" transform="translate(-231.126 -128.277)" fill="#eb6670"/>
            <path id="Trazado_1321094" data-name="Trazado 1321094" d="M268.034,469.245c.062.069-.029.134-.1.089a1.965,1.965,0,0,1-1.488-1.694c.033-.072.13-.043.168.009a5.618,5.618,0,0,0,1.112,1.4,2.134,2.134,0,0,0,.3.2" transform="translate(-233.067 -409.015)" fill="#eb6670"/>
            <path id="Trazado_1321095" data-name="Trazado 1321095" d="M331.378,145.443c-.08.983-.125,1.97-.128,2.957a6.012,6.012,0,0,0,.4,2.433.677.677,0,0,0,.156.22,14.778,14.778,0,0,0-.392,7.17,8.866,8.866,0,0,0,.782,2.389,6.96,6.96,0,0,0-.769,4.668,3.77,3.77,0,0,0,.447,1.364,2.666,2.666,0,0,0-.332.5c-.658,1.264-.18,2.7-.035,4.036.236,1.417-.017,2.948.623,4.269a3.6,3.6,0,0,0,3.637,1.624,3.126,3.126,0,0,0,1.417-.446,3.836,3.836,0,0,0,1.71.136,5.725,5.725,0,0,0,4.535-4.211c.016-.111.04-.231.049-.349a9.044,9.044,0,0,0,3.838-2.23,10.544,10.544,0,0,0,3.609-7.517,8.026,8.026,0,0,0-.256-2.246,6.061,6.061,0,0,0,.763-7.333.509.509,0,0,0-.033-.049,7.219,7.219,0,0,0-1.132-7.761,7.447,7.447,0,0,0-.865-.806,6.036,6.036,0,0,0,.006-1.389,6.185,6.185,0,0,0-2.336-4.153,3.962,3.962,0,0,0-2.713-.951h-.006c-.073-.314-.2-.635-.244-.791-.814-2.239-3.849-3.6-5.949-2.309a.156.156,0,0,0-.023.016,3.281,3.281,0,0,0-3.429-1.528c-2.562.627-3.057,3.707-3.02,5.962.038.638.04,2.731.44,3.366a6.083,6.083,0,0,0-.75,2.96" transform="translate(-289.672 -116.395)" fill="#ec8895"/>
            <g id="Grupo_1188332" data-name="Grupo 1188332" transform="translate(56.84 22.773)" style="mix-blend-mode: soft-light;isolation: isolate">
              <g id="Grupo_1188331" data-name="Grupo 1188331">
                <g id="Grupo_1188330" data-name="Grupo 1188330" clip-path="url(#clip-path-3)">
                  <path id="Trazado_1321096" data-name="Trazado 1321096" d="M455.588,185.076c.26-.146.055-.506.031-.732a3.77,3.77,0,0,0-1.856-2.559c-.069-.055-.106.068-.037.093a5.386,5.386,0,0,1,1.509,2.38c.109.24.011.8.353.818" transform="translate(-453.689 -181.771)" fill="#fff"/>
                </g>
              </g>
            </g>
            <g id="Grupo_1188335" data-name="Grupo 1188335" transform="translate(52.37 19.985)" style="mix-blend-mode: soft-light;isolation: isolate">
              <g id="Grupo_1188334" data-name="Grupo 1188334">
                <g id="Grupo_1188333" data-name="Grupo 1188333" clip-path="url(#clip-path-4)">
                  <path id="Trazado_1321097" data-name="Trazado 1321097" d="M418.269,164.015a.429.429,0,0,0,.243-.178,3.367,3.367,0,0,0,.808-1.655,3.045,3.045,0,0,0-.784-2.666c-.119-.006-.005.188.016.243a3.434,3.434,0,0,1,0,3.166c-.148.332-.556.555-.541.943-.011.145.146.178.261.147" transform="translate(-418.007 -159.517)" fill="#fff"/>
                </g>
              </g>
            </g>
            <g id="Grupo_1188338" data-name="Grupo 1188338" transform="translate(58.457 33.672)" style="mix-blend-mode: soft-light;isolation: isolate">
              <g id="Grupo_1188337" data-name="Grupo 1188337">
                <g id="Grupo_1188336" data-name="Grupo 1188336" clip-path="url(#clip-path-5)">
                  <path id="Trazado_1321098" data-name="Trazado 1321098" d="M466.815,273.475c.307-.047.519-.324.751-.509a5.441,5.441,0,0,0,1.872-4.135c-.073-.175-.153.063-.181.139a6.858,6.858,0,0,1-1.7,3.347c-.251.291-.594.486-.842.774-.11.188-.248.411.1.384" transform="translate(-466.594 -268.768)" fill="#fff"/>
                </g>
              </g>
            </g>
            <g id="Grupo_1188341" data-name="Grupo 1188341" transform="translate(56.712 38.863)" style="mix-blend-mode: soft-light;isolation: isolate">
              <g id="Grupo_1188340" data-name="Grupo 1188340">
                <g id="Grupo_1188339" data-name="Grupo 1188339" clip-path="url(#clip-path-6)">
                  <path id="Trazado_1321099" data-name="Trazado 1321099" d="M453.013,310.908c.2-.123.76-.411.523-.7-.21-.073-.473.167-.682.225-.319.134-.212.661.159.472" transform="translate(-452.666 -310.198)" fill="#fff"/>
                </g>
              </g>
            </g>
            <g id="Grupo_1188344" data-name="Grupo 1188344" transform="translate(58.049 45.225)" style="mix-blend-mode: soft-light;isolation: isolate">
              <g id="Grupo_1188343" data-name="Grupo 1188343">
                <g id="Grupo_1188342" data-name="Grupo 1188342" clip-path="url(#clip-path-7)">
                  <path id="Trazado_1321100" data-name="Trazado 1321100" d="M463.554,366.766c1.3-.963,2.5-4.134,1.94-5.7-.15-.236-.229.107-.224.237a7.488,7.488,0,0,1-.923,3.722,7.048,7.048,0,0,1-.8,1.171.806.806,0,0,0-.2.58.325.325,0,0,0,.212-.007" transform="translate(-463.339 -360.981)" fill="#fff"/>
                </g>
              </g>
            </g>
            <path id="Trazado_1321101" data-name="Trazado 1321101" d="M345.756,426.412c-.285-.111-.415.116-.192.324a3.542,3.542,0,0,0,2.623.927.431.431,0,0,0,.137.157,5.643,5.643,0,0,0,.538.395,5.9,5.9,0,0,0,3.334.771,9.2,9.2,0,0,0,3.1-.714,5.789,5.789,0,0,0,.619-.316.047.047,0,0,0,.018-.054c-.038-.053-.116-.024-.191.014-.332.114-.663.247-1,.331a7.147,7.147,0,0,1-4.114-.023,3.136,3.136,0,0,0,1.625-1.253,6.252,6.252,0,0,0,.593-1.27c0-.129-.169-.145-.239-.06a4.449,4.449,0,0,1-1.213,1.5,2.331,2.331,0,0,1-2.414.246,1.966,1.966,0,0,0-.254-.129,2.651,2.651,0,0,0,.912-1.46c.11-.327-.221-.32-.32-.061-.737,1.245-2.386,1.228-3.56.673" transform="translate(-302.171 -372.235)" fill="#eb6670"/>
            <path id="Trazado_1321102" data-name="Trazado 1321102" d="M335.355,395.385a.236.236,0,0,0,.012.124,3.218,3.218,0,0,0,2.928,2.458c.083-.011.065-.117,0-.144-.04-.02-.086-.024-.127-.042a4.645,4.645,0,0,1-2.685-2.37c-.017-.052-.1-.086-.129-.026" transform="translate(-293.336 -345.823)" fill="#eb6670"/>
            <path id="Trazado_1321103" data-name="Trazado 1321103" d="M339.9,352.493c-.041-.063-.1-.286-.189-.17a3.306,3.306,0,0,0,.828,1.589,1.13,1.13,0,0,1,.058.352,4.382,4.382,0,0,0,.159,1.5,2.373,2.373,0,0,0,.861,1.071c.077-.02.023-.11-.008-.148a2.909,2.909,0,0,1-.658-1.817,2.115,2.115,0,0,1,.065-.522,2.932,2.932,0,0,0,1.73.611,5.517,5.517,0,0,0,1.082-.146c.054-.017.137-.045.124-.115a.1.1,0,0,0-.079-.074c-.221-.033-.449,0-.673-.027a3.879,3.879,0,0,1-1.962-.678,3.839,3.839,0,0,1-1.338-1.421" transform="translate(-297.147 -308.154)" fill="#eb6670"/>
            <path id="Trazado_1321104" data-name="Trazado 1321104" d="M368.087,376.008c-.009.144.168.1.244.044a4.349,4.349,0,0,1,1.83-.9,5.18,5.18,0,0,1,2.564.3,7.161,7.161,0,0,1,2.085.94,2.244,2.244,0,0,1,.373,3.191,3.755,3.755,0,0,1-.606.6c-.1.156.095.172.2.1,1.759-.9,2.239-3.319.4-4.416a3.817,3.817,0,0,0,4-2.968c.044-.122-.076-.192-.168-.1a.3.3,0,0,0-.047.157,1.9,1.9,0,0,1-.149.31,3.944,3.944,0,0,1-4.5,1.9c-1.941-.549-3.9-1.333-5.62.228a5.3,5.3,0,0,0-.6.621" transform="translate(-321.971 -326.05)" fill="#eb6670"/>
            <path id="Trazado_1321105" data-name="Trazado 1321105" d="M424.042,345.31c-.183-.061-.2.06-.123.2l0,0a.825.825,0,0,0,.132.2,2.965,2.965,0,0,0,1.85,1.01,1.8,1.8,0,0,0-.195,2.1c.041.076.04.253.159.231.136-.071.046-.253.063-.374a2.109,2.109,0,0,1,.438-1.537c.716-.629,1.644-1.049,2.058-1.962.066-.162.232-.364.2-.54,0-.012,0-.025.006-.037a.049.049,0,0,0-.033-.06c-.1-.016-.138.107-.183.171a2.693,2.693,0,0,1-2.552,1.382,3.535,3.535,0,0,1-1.821-.786" transform="translate(-370.77 -301.376)" fill="#eb6670"/>
            <path id="Trazado_1321106" data-name="Trazado 1321106" d="M375.885,298.55a.077.077,0,0,0-.049.07c0,.032.03.049.054.064a4.847,4.847,0,0,0,1.675.179,6.093,6.093,0,0,0,4.44-2.127c3.324-.656,6.847-1.884,8.276-5.241.062-.126.055-.2.017-.222a.055.055,0,0,0-.08-.048.315.315,0,0,0-.123.143.407.407,0,0,0-.052.091c0,.008-.007.016-.012.023h0c-1.189,2.184-3.176,3.2-5.477,3.858-.674.205-1.363.38-2.016.646.045-.075.088-.151.129-.229a5.178,5.178,0,0,0,.2-4.034c-.01-.073-.081-.153-.157-.1-.086.066-.048.171-.019.254a5.354,5.354,0,0,1-1.164,4.44,6.341,6.341,0,0,1-5.177,2.233c-.155.007-.314-.018-.468,0" transform="translate(-328.75 -254.733)" fill="#eb6670"/>
            <path id="Trazado_1321107" data-name="Trazado 1321107" d="M362.131,286.28c-.43.206-.177.416.181.316a2.336,2.336,0,0,0,1.74-2.657,2.791,2.791,0,0,0,1.425.247,1.444,1.444,0,0,0,.583-.078c.127-.162-.1-.293-.244-.285a3.314,3.314,0,0,1-2.049-.838,2.959,2.959,0,0,1-.594-3.624c.071-.062-.037-.179-.1-.1a3.184,3.184,0,0,0,.359,4.267,1.991,1.991,0,0,1,.078.284,2.319,2.319,0,0,1-1.379,2.467" transform="translate(-316.564 -244.25)" fill="#eb6670"/>
            <path id="Trazado_1321108" data-name="Trazado 1321108" d="M336.368,243.291c-.091-.033-.15.1-.092.16a.7.7,0,0,0,.449.053c1.867-.668,1.238-3.19,1.65-4.7.038-.072-.008-.213-.1-.135a1.341,1.341,0,0,0-.089.162c-.629,1.462-.252,3.536-1.817,4.459" transform="translate(-294.126 -208.748)" fill="#eb6670"/>
            <path id="Trazado_1321109" data-name="Trazado 1321109" d="M447.855,214.629c-.029.129.133.146.225.141a5.951,5.951,0,0,1,3.311.8c.086-.014.057-.119,0-.151-.085-.059-.131-.157-.21-.224a3.1,3.1,0,0,0-2.942-.723c-.13.032-.307.033-.383.159" transform="translate(-391.743 -187.503)" fill="#eb6670"/>
            <path id="Trazado_1321110" data-name="Trazado 1321110" d="M393.119,244.639a.154.154,0,0,0-.027.226c.087.063.181-.075.257-.113,1.523-1.143,2.92-.31,3.391,1.371a10.057,10.057,0,0,1,.274,1.279c.039.149.015.689.273.445.344-1.9.1-4.149,1.593-5.636a3.74,3.74,0,0,1,1.5-1.035,1.236,1.236,0,0,1,.817.1,1.209,1.209,0,0,1,.317.226c.182-.046-.06-.231-.131-.282-2.326-1.4-4.56,1.685-4.347,3.863a2.36,2.36,0,0,0-2.636-1.426,3.253,3.253,0,0,0-1.278.978" transform="translate(-343.809 -210.694)" fill="#eb6670"/>
            <path id="Trazado_1321111" data-name="Trazado 1321111" d="M372.838,179.962c-.021.383-.023.772-.026,1.155.025.123.191.074.207-.032a4.057,4.057,0,0,1,2.12-3.293c1.629-.919,3.651-1.146,5.007-2.527a3.439,3.439,0,0,0,.928-3.142,2.462,2.462,0,0,0-.311-.844c-.023-.036-.044-.082-.095-.074-.085.026-.063.136-.062.207a4.451,4.451,0,0,1-.924,3.1c-1.7,2.17-4.577,1.572-6.178,3.808a3.814,3.814,0,0,0-.666,1.646" transform="translate(-326.105 -149.755)" fill="#eb6670"/>
            <path id="Trazado_1321112" data-name="Trazado 1321112" d="M338.921,176.733c-.095.1-.008.188.106.1,3.021-2.5,6.276.036,8.2-3.649.048-.107.243-.477-.016-.365-.168.156-.292.361-.456.52-1.187,1.349-2.661,1.39-4.145,1.609a3.076,3.076,0,0,0,1.4-2.582c-.029-.1-.151-.046-.18.027a5.706,5.706,0,0,1-1.54,2.3c-.059.065-.427.286-.612.436a5.051,5.051,0,0,0-1.507.614,8.169,8.169,0,0,0-1.252,1" transform="translate(-296.425 -150.723)" fill="#eb6670"/>
            <path id="Trazado_1321113" data-name="Trazado 1321113" d="M386.174,146.843c-.073-.128-.306-.323-.347-.068a4.563,4.563,0,0,1,.292,2.418c-.016.06.041.128.1.094a2.205,2.205,0,0,0-.048-2.444" transform="translate(-337.489 -128.277)" fill="#eb6670"/>
            <path id="Trazado_1321114" data-name="Trazado 1321114" d="M376.723,469.245c-.062.069.029.134.1.089a1.965,1.965,0,0,0,1.488-1.694c-.033-.072-.13-.043-.168.009a5.619,5.619,0,0,1-1.112,1.4,2.136,2.136,0,0,1-.3.2" transform="translate(-329.508 -409.015)" fill="#eb6670"/>
            <g id="Grupo_1188347" data-name="Grupo 1188347" transform="translate(14.649 39.524)" opacity="0.993">
              <g id="Grupo_1188346" data-name="Grupo 1188346">
                <g id="Grupo_1188345" data-name="Grupo 1188345" clip-path="url(#clip-path-13)">
                  <path id="Trazado_1321115" data-name="Trazado 1321115" d="M169.8,328.44a26.555,26.555,0,0,1-.561,6.121c-.01.049-.022.1-.032.147,0,.007,0,.013,0,.02a.942.942,0,0,1-.023.1c-.012.055-.024.109-.037.163-.049.216-.1.431-.156.647a25.329,25.329,0,0,1-.752,2.446,26.664,26.664,0,0,1-2.765,5.527,26.27,26.27,0,0,1-3.9,4.665,26.42,26.42,0,0,1-10.45,6.1,26.161,26.161,0,0,1-5.871,1.095q-.935.067-1.87.067a26.846,26.846,0,0,1-4.229-.338,26.439,26.439,0,0,1-11.292-4.688,26.185,26.185,0,0,1-4.349-3.955,26.481,26.481,0,0,1-4.762-7.813,27.179,27.179,0,0,1-.942-2.879,26.365,26.365,0,0,1-.844-5.4.17.17,0,0,1,0-.03c-.016-.316-.027-.632-.032-.948a26.1,26.1,0,0,1,.579-5.907c.079-.372.166-.743.262-1.111l.046-.175c0-.011.007-.024.01-.035a.009.009,0,0,1,0,0h0s0,0,0,0h0a0,0,0,0,1,0,0h0c.009-.028.017-.058.025-.087a.322.322,0,0,0,.011-.036c.011-.041.023-.082.033-.123,0,0,0-.008,0-.012s0-.01,0-.014l.009-.031c.016-.056.033-.112.049-.167.008-.025.014-.05.022-.075l.017-.059c.331-.259.675-.5,1.028-.732a22.123,22.123,0,0,1,3.518-1.83,37.472,37.472,0,0,1,5.232-1.724,55.878,55.878,0,0,1,5.806-1.146c1.992-.292,4-.487,6.006-.606q2.744-.163,5.5-.131,2.973.031,5.938.285c2.006.172,4.006.418,5.991.756,1.881.321,3.749.718,5.591,1.215a43.238,43.238,0,0,1,4.783,1.576c.216.086.429.175.643.265.006.015.011.03.018.046.013.035.027.07.041.105l.011.026c.012.031.026.062.04.092s.017.048.027.072c0,0,0,0,0,0a26.363,26.363,0,0,1,1.638,8.516" transform="translate(-116.927 -315.478)" fill="#7985bc"/>
                </g>
              </g>
            </g>
            <g id="Grupo_1188350" data-name="Grupo 1188350" transform="translate(14.649 40.491)" opacity="0.993">
              <g id="Grupo_1188349" data-name="Grupo 1188349">
                <g id="Grupo_1188348" data-name="Grupo 1188348" clip-path="url(#clip-path-14)">
                  <path id="Trazado_1321116" data-name="Trazado 1321116" d="M138.653,360.607a5.987,5.987,0,0,1-.1,1.245l-.045-.009-.312-.061q-.906-.18-1.8-.425l-.007,0c-.118-.032-.236-.065-.354-.1l-.048-.013-.229-.068-.2-.061c-.035-.01-.07-.021-.1-.033q-.3-.094-.606-.2c-.1-.033-.194-.066-.291-.1-.061-.021-.122-.042-.183-.065s-.142-.051-.213-.077c-.15-.056-.3-.113-.451-.172-.126-.048-.251-.1-.375-.149s-.266-.11-.4-.166c-.094-.04-.187-.08-.28-.122q-.683-.3-1.349-.644a26.669,26.669,0,0,1-3.453-2.118,26.165,26.165,0,0,1-4.349-3.956,26.47,26.47,0,0,1-4.762-7.812,27.168,27.168,0,0,1-.942-2.88,26.358,26.358,0,0,1-.844-5.4.164.164,0,0,1,0-.03c-.016-.316-.027-.632-.032-.949a26.092,26.092,0,0,1,.579-5.906q.119-.559.262-1.112l.045-.174c0-.011.007-.025.011-.036s0,0,0,0v0a.011.011,0,0,0,0,0,.005.005,0,0,1,0,0h0c.009-.028.017-.057.025-.087l.008-.023,0-.013c.011-.04.023-.081.033-.123,0,0,0-.008,0-.011s0-.009,0-.015l.009-.03c.016-.057.033-.112.049-.168.008-.025.014-.049.022-.074v0c0-.02.01-.039.016-.057q.339-.265.693-.509l.1-.062c.357-.233.716-.46,1.081-.678a23.635,23.635,0,0,1,2.674-1.313,37.583,37.583,0,0,1,5.232-1.723c1.313-.338,2.64-.617,3.975-.852l.018,0,.019,0,.137-.024.075-.013.042-.007.113-.02c-.016.113-.036.227-.058.339-.009.058-.019.114-.029.171-.032.174-.071.346-.113.517a10.358,10.358,0,0,1-.343,1.121,7.15,7.15,0,0,1-.513,1.109,3.035,3.035,0,0,1-.653.819,3.637,3.637,0,0,1-1.231.647c-.485.157-.99.25-1.475.409-.144.05-.283.109-.422.173-.115.059-.226.12-.335.188-.062.042-.12.086-.177.133s-.093.089-.137.137c-.029.038-.058.075-.085.115s-.041.068-.06.1-.037.08-.053.123c-.02.06-.037.12-.052.182a2.9,2.9,0,0,0-.04.3c0,.1,0,.2,0,.3v0a.008.008,0,0,1,0,0v0c.018.188.047.375.066.565a4.03,4.03,0,0,1,.009.595,3.07,3.07,0,0,1-.1.608,2.653,2.653,0,0,1-.224.572,4.478,4.478,0,0,1-1.812,1.659c-.339.2-.688.381-1.035.566s-.67.357-.989.565a5.23,5.23,0,0,0-.461.355l-.007.006a5.091,5.091,0,0,0-.409.411c-.13.15-.251.306-.365.469a5.388,5.388,0,0,0-.316.546c-.1.205-.184.415-.263.629a8.3,8.3,0,0,0-.268.985c-.039.2-.074.4-.094.605,0,.058,0,.115,0,.173s.011.118.021.177.028.121.047.182a1.6,1.6,0,0,0,.078.186h0a1.64,1.64,0,0,0,.091.153c.026.039.054.076.083.112s.047.048.073.071a2.109,2.109,0,0,1,.32.311,1.187,1.187,0,0,1,.216.473,7.211,7.211,0,0,1,.029,1.223.071.071,0,0,0,0-.015.176.176,0,0,1,0,.023,3.313,3.313,0,0,0,.054.386,3.929,3.929,0,0,0,.113.4,4.363,4.363,0,0,0,.188.434q.1.183.21.358a4.246,4.246,0,0,0,.272.349l.009.011-.009-.011c.086.093.175.181.269.266,0,0,0,0,0,0a4.567,4.567,0,0,0,.364.282c.1.065.2.125.31.18h0l.007,0c.087.04.175.076.265.11a3.912,3.912,0,0,0,.426.114h.008c.087.014.173.026.261.035h0c.1.006.2.006.3,0h.007a4.974,4.974,0,0,0,.529-.075,6.7,6.7,0,0,0,.7-.195l.009,0,.014,0c.739-.271,1.44-.634,2.151-.966a11.216,11.216,0,0,1,2.3-.853,3.728,3.728,0,0,1,1.1-.076,2.5,2.5,0,0,1,.59.113,1.521,1.521,0,0,1,.244.1,2.98,2.98,0,0,1,.273.167,2.864,2.864,0,0,1,.816.913,5.413,5.413,0,0,1,.493,1.087,5.105,5.105,0,0,1,.234,1.267c.028.4.015.8.034,1.2,0,0,0-.009,0-.012a.175.175,0,0,1,0,.023c.011.134.027.267.051.4.019.078.04.157.063.235s.058.147.091.22a3.017,3.017,0,0,0,.154.263c.041.056.082.11.127.162a3.431,3.431,0,0,0,.272.276,6.086,6.086,0,0,0,.522.4l0,0c.34.229.694.439,1.016.691a4.264,4.264,0,0,1,.807.833,4.169,4.169,0,0,1,.788,2.216,4.126,4.126,0,0,1-.109,1.086c-.079.373-.182.739-.26,1.113a4.861,4.861,0,0,0-.069.5,2.471,2.471,0,0,0,0,.252c.008.083.018.164.033.246a2.533,2.533,0,0,0,.071.252,3.6,3.6,0,0,0,.153.35c.175.335.385.648.583.968.1.166.2.335.292.508a4.509,4.509,0,0,1,.244.565,3.164,3.164,0,0,1,.149.589,5.676,5.676,0,0,1,.055.595" transform="translate(-116.927 -323.192)" fill="#b3b27d"/>
                </g>
              </g>
            </g>
            <g id="Grupo_1188353" data-name="Grupo 1188353" transform="translate(48.369 46.144)" opacity="0.993">
              <g id="Grupo_1188352" data-name="Grupo 1188352">
                <g id="Grupo_1188351" data-name="Grupo 1188351" clip-path="url(#clip-path-15)">
                  <path id="Trazado_1321117" data-name="Trazado 1321117" d="M390.488,370.806a4.066,4.066,0,0,1,.008.721q-.014.162-.042.323a2.131,2.131,0,0,1-.1.346.935.935,0,0,1-.149.289.785.785,0,0,1-.27.208.93.93,0,0,1-.293.085,1.331,1.331,0,0,1-.3,0c-.1-.01-.211-.026-.318-.034a1.95,1.95,0,0,0-.212,0h.025a1.794,1.794,0,0,0-.2.027c-.114.024-.23.049-.342.083-.022.022-.043.043-.063.066q-.048.06-.094.122l-.007.009c-.129.2-.223.413-.338.618a1.164,1.164,0,0,1-.42.467.72.72,0,0,1-.353.087.849.849,0,0,1-.347-.074,1.05,1.05,0,0,1-.328-.227.985.985,0,0,1-.2-.318,1.29,1.29,0,0,1-.052-.69,2.452,2.452,0,0,1,.241-.694,11.2,11.2,0,0,1,.757-1.18,6.226,6.226,0,0,0,.342-.575l.011-.023a.084.084,0,0,0,.007-.013,0,0,0,0,1,0,0c.213-.432.342-.9.561-1.331a1.657,1.657,0,0,1,.467-.6.994.994,0,0,1,.347-.163.878.878,0,0,1,.4,0,.894.894,0,0,1,.341.165,1.267,1.267,0,0,1,.262.261,2.423,2.423,0,0,1,.341.639,5.458,5.458,0,0,1,.193.677,5.517,5.517,0,0,1,.117.724" transform="translate(-386.079 -368.316)" fill="#b3b27d"/>
                </g>
              </g>
            </g>
            <g id="Grupo_1188356" data-name="Grupo 1188356" transform="translate(47.843 46.235)" opacity="0.993">
              <g id="Grupo_1188355" data-name="Grupo 1188355">
                <g id="Grupo_1188354" data-name="Grupo 1188354" clip-path="url(#clip-path-16)">
                  <path id="Trazado_1321118" data-name="Trazado 1321118" d="M382.259,371.621h0s0,0,0,0m.009.013a.006.006,0,0,1,0,0h0l-.007,0,.007,0,0,0m0,0h0s0,0,0,0Zm1.537-1.942a1.473,1.473,0,0,1,0,.56,1.633,1.633,0,0,1-.114.384,1.156,1.156,0,0,1-.185.284,3.983,3.983,0,0,1-.478.441l-.081.071-.007.006,0,0-.089.125c-.052.076-.1.151-.163.221a.136.136,0,0,1-.011.013l0,0a.58.58,0,0,1-.4.2.348.348,0,0,1-.212-.071c-.256-.189-.2-.554-.115-.819a5.009,5.009,0,0,1,.3-.72c.1-.2.193-.393.288-.59.049-.1.1-.2.148-.3a1.293,1.293,0,0,1,.183-.285.509.509,0,0,1,.367-.17.462.462,0,0,1,.3.129.959.959,0,0,1,.272.52" transform="translate(-381.874 -369.041)" fill="#b3b27d"/>
                </g>
              </g>
            </g>
            <g id="Grupo_1188359" data-name="Grupo 1188359" transform="translate(49.255 41.454)" opacity="0.993">
              <g id="Grupo_1188358" data-name="Grupo 1188358">
                <g id="Grupo_1188357" data-name="Grupo 1188357" clip-path="url(#clip-path-17)">
                  <path id="Trazado_1321119" data-name="Trazado 1321119" d="M411.342,340.67c.047.706.078,1.415.082,2.123a26.841,26.841,0,0,1-.568,5.241c-.01.049-.022.1-.032.147,0,.006,0,.013,0,.019a.927.927,0,0,1-.023.106c-.012.055-.024.108-.037.163q-.074.323-.156.647a25.382,25.382,0,0,1-.752,2.447q-.231.634-.493,1.256l-.037.086q-.162.383-.338.761c-.043.1-.089.191-.134.287s-.083.175-.126.262l-.085.171c-.029.061-.06.12-.091.18q-.316.627-.669,1.235-.075.131-.152.261l-.156.26q-.078.129-.159.258c-.059.1-.119.19-.18.285h0c-.047.076-.1.151-.146.226a26.3,26.3,0,0,1-3.9,4.665q-.938.886-1.958,1.683c-.089.07-.18.139-.27.208l-.019.014q-.244-.377-.495-.75c-.765-1.124-1.6-2.2-2.423-3.281-.419-.546-.835-1.095-1.219-1.668a9.865,9.865,0,0,1-1.01-1.857,6.041,6.041,0,0,1-.42-1.942,5.979,5.979,0,0,1,.036-1.016,4.49,4.49,0,0,1,.09-.5c.018-.076.045-.149.07-.221.03-.089.06-.178.094-.265.154-.414.326-.823.473-1.239a7.187,7.187,0,0,0,.238-.836c.023-.124.042-.249.053-.374,0-.1,0-.194,0-.291s-.019-.164-.033-.247-.036-.155-.06-.23c-.02-.057-.042-.112-.067-.165s-.056-.1-.087-.15-.061-.082-.094-.123a4.608,4.608,0,0,0-.365-.356l-.01-.009c-.246-.213-.506-.407-.768-.6a9.23,9.23,0,0,1-.76-.609,3.662,3.662,0,0,1-.642-.77,2.772,2.772,0,0,1-.209-.425,2.4,2.4,0,0,1-.133-.45,3.39,3.39,0,0,1-.043-.353v0c0-.007,0-.012,0-.018a3.986,3.986,0,0,1,.449-1.887,5.247,5.247,0,0,1,1.3-1.694,6.013,6.013,0,0,1,.849-.6,6.272,6.272,0,0,1,.91-.446,6.971,6.971,0,0,1,1.849-.433c.469-.049.941-.079,1.412-.114a11.515,11.515,0,0,0,1.374-.153,4.484,4.484,0,0,0,.519-.138,3.346,3.346,0,0,0,.379-.16l.006,0c.071-.038.14-.078.207-.122l.006,0,.006,0c.046-.035.091-.072.135-.109.022-.021.043-.043.064-.065s.041-.052.06-.079a.755.755,0,0,0,.038-.066c.007-.017.014-.033.021-.05s.015-.052.022-.078a1.053,1.053,0,0,0,.017-.134c0-.023,0-.046,0-.069a1.191,1.191,0,0,0-.019-.138c-.009-.034-.019-.068-.03-.1s-.023-.057-.035-.084-.032-.057-.049-.084a1.449,1.449,0,0,0-.114-.149,1.245,1.245,0,0,0-.093-.095c-.027-.022-.054-.043-.081-.063l-.045-.026c-.02-.009-.039-.019-.06-.027a.165.165,0,0,1-.029-.009h0l-.054-.009a.261.261,0,0,0-.039,0h0l-.019,0-.062.016-.035.015-.063.037-.08.061c-.043.04-.083.083-.124.127-.159.184-.3.382-.461.565l-.006.007a3.3,3.3,0,0,1-.282.292.932.932,0,0,1-.4.225.8.8,0,0,1-.277.009.759.759,0,0,1-.307-.127,1.346,1.346,0,0,1-.308-.291,3.822,3.822,0,0,1-.422-.741,2.1,2.1,0,0,1-.23-.881,1.1,1.1,0,0,1,.32-.756,1.057,1.057,0,0,1,.34-.221,2.028,2.028,0,0,1,.393-.117c.235-.043.476-.059.714-.081a7.567,7.567,0,0,0,.756-.119h.014a4.441,4.441,0,0,0,.494-.132c.087-.032.174-.068.26-.108a2.279,2.279,0,0,0,.209-.119c.083-.056.163-.117.241-.182.057-.051.112-.1.165-.161.037-.043.072-.089.1-.134a1.729,1.729,0,0,0,.092-.15c.022-.045.041-.092.059-.139.054-.17.084-.346.13-.518a1.87,1.87,0,0,1,.239-.558,1.453,1.453,0,0,1,.468-.42c.147-.09.305-.158.451-.251a.529.529,0,0,0,.051-.04l.019-.019c.006-.009.012-.016.019-.025l.006-.01,0-.007a0,0,0,0,1,0,0h0v0c0-.006,0-.01,0-.015h0v0a.037.037,0,0,1,0,.01v-.021a.014.014,0,0,0,0-.006c0-.006,0-.01,0-.015l0-.006a.056.056,0,0,0-.009-.014l-.012-.016-.016-.017-.027-.021c-.035-.023-.072-.044-.109-.063a1.748,1.748,0,0,0-.178-.075c-.181-.061-.367-.1-.547-.168a1.383,1.383,0,0,1-.5-.269.891.891,0,0,1-.266-.444,1.463,1.463,0,0,1-.026-.425.134.134,0,0,1,0-.021v0c0-.054.009-.107.011-.161,0,0,0,0,0,0a.007.007,0,0,0,0,0s0-.009,0-.012v-.012a.18.18,0,0,1,.028-.1l.118.029.018,0,.2.049h0c.318.079.634.162.95.247q.966.26,1.922.561h0l.109.035q.875.278,1.739.594.272.1.543.2c.094.036.188.072.282.11l.188.074c.216.087.429.176.643.265.008.022.016.042.025.064l0,.013,0,0s0,.007,0,.01.007.017.01.026.009.024.013.035a.131.131,0,0,0,.007.015l.006.011c0,.009.007.017.009.025l.014.032,0,.008.013.028c.009.025.017.047.026.072h0l0,0c.015.04.029.079.043.12s.028.08.044.12a26.146,26.146,0,0,1,1.4,6.058c.029.317.053.633.075.951,0,.008,0,.016,0,.024" transform="translate(-393.147 -330.882)" fill="#b3b27d"/>
                </g>
              </g>
            </g>
            <g id="Grupo_1188365" data-name="Grupo 1188365" transform="translate(14.649 42.984)" opacity="0.3" style="mix-blend-mode: multiply;isolation: isolate">
              <g id="Grupo_1188364" data-name="Grupo 1188364">
                <g id="Grupo_1188363" data-name="Grupo 1188363" clip-path="url(#clip-path-18)">
                  <g id="Grupo_1188362" data-name="Grupo 1188362" opacity="0.993">
                    <g id="Grupo_1188361" data-name="Grupo 1188361">
                      <g id="Grupo_1188360" data-name="Grupo 1188360" clip-path="url(#clip-path-18)">
                        <path id="Trazado_1321120" data-name="Trazado 1321120" d="M154.95,376.933c.085-.01.17-.019.254-.03q-.61.305-1.235.578c-.116.051-.232.1-.349.149l-.057.025-.045.019h0c-.782.326-1.581.615-2.391.865a25.785,25.785,0,0,1-2.735.683h0l-.033.007q-.363.07-.727.129l-.05.008-.274.043c-.05.009-.1.015-.151.023l-.348.047-.254.032h0q-.645.079-1.295.125-.935.067-1.87.067a26.857,26.857,0,0,1-4.23-.338,26.451,26.451,0,0,1-20.4-16.457,27.154,27.154,0,0,1-.942-2.879,26.375,26.375,0,0,1-.844-5.4.16.16,0,0,1,0-.03q-.024-.474-.032-.948a26.1,26.1,0,0,1,.579-5.907q.116-.546.256-1.087l.006-.024c.01-.037.02-.074.029-.112,0-.021.01-.043.016-.063s.007-.024.01-.035,0-.009,0-.013h0c.008-.028.017-.058.025-.087s.011-.042.018-.063l.026-.1s0-.008,0-.012,0-.009,0-.014l.009-.031c.014-.05.029-.1.044-.149s.027-.1.042-.145c0,0,0,0,0-.006a19.56,19.56,0,0,1,4.262-2.441l.142-.061.142-.06.095-.039c.092-.039.183-.076.275-.113-.087.38-.171.759-.229,1.146a21.316,21.316,0,0,0-.123,3.278c.032.4.076.8.125,1.192.048.35.1.7.157,1.048s.126.69.195,1.033c.133.664.29,1.32.458,1.975h0a.014.014,0,0,0,0,.006c.1.376.2.753.311,1.126.121.41.249.819.379,1.226.246.763.519,1.515.808,2.263.234.593.477,1.183.747,1.761.144.308.289.615.442.917.142.282.289.561.437.838l-.011-.019.016.029,0,0,0,.006c.293.532.595,1.059.911,1.577.17.278.346.552.525.824.163.248.332.489.5.73.37.514.744,1.023,1.139,1.519s.815.995,1.242,1.475c.417.458.841.909,1.278,1.345s.884.852,1.34,1.263l-.021-.017.035.03q.73.64,1.491,1.242c.5.4,1.028.772,1.555,1.139.519.348,1.045.681,1.579,1s1.068.608,1.61.895l.039.021-.02-.012c.253.13.508.258.764.379.278.132.559.259.84.384.543.242,1.1.458,1.652.668.535.193,1.074.38,1.621.543q.874.257,1.758.47.957.214,1.925.372c.612.1,1.227.172,1.844.229.6.049,1.2.076,1.8.087s1.2-.016,1.8-.053c.37-.027.739-.061,1.107-.1" transform="translate(-116.927 -343.093)" fill="#45133e"/>
                      </g>
                    </g>
                  </g>
                </g>
              </g>
            </g>
            <path id="Trazado_1321121" data-name="Trazado 1321121" d="M479.139,314.324c.367,1.245-1.225,1.6-2.155,1.516a8.01,8.01,0,0,1-2.091-.449c-.063-.025-.128-.045-.194-.067a12.3,12.3,0,0,1,1.085,1.8c.449.92.876,2.882-.706,2.793-1.221-.378-1.862-1.8-2.184-3.086a10.048,10.048,0,0,1-.212,1.469c-.233.993-.768,2.657-2.058,2.437-1.263-.575-.621-2.9.176-4.34a3.492,3.492,0,0,0-.338.289,5.17,5.17,0,0,1-2.908,1.274c-1.211-.141-.988-1.364-.356-2.053a5.579,5.579,0,0,1,2.148-1.47l-.244-.015a8.53,8.53,0,0,1-1.712-.278,2.933,2.933,0,0,1-1.252-.549c-.644-.483-.282-1.4.35-1.7a3.531,3.531,0,0,1,2.57-.066,7.648,7.648,0,0,1,.818.288,5.847,5.847,0,0,1-1.241-1.966c-.642-2.028.874-3.117,2.187-1.2a10.013,10.013,0,0,1,1.179,2.22,5.227,5.227,0,0,1,.661-2.538c.45-.957,1.853-2.072,2.351-.532a3.1,3.1,0,0,1-.143,1.533,10.6,10.6,0,0,1-.638,1.658,5.976,5.976,0,0,1,.888-.775,2.992,2.992,0,0,1,2.042-.8c.938.087,1.053,1.046.515,1.679a6.3,6.3,0,0,1-2.125,1.569c-.132.065-.264.137-.4.208a6.652,6.652,0,0,1,.822-.039c1.023-.031,2.6.257,3.163,1.2" transform="translate(-407.442 -268.828)" fill="#f5cdcb"/>
            <path id="Trazado_1321122" data-name="Trazado 1321122" d="M512.9,353.157a1.08,1.08,0,0,1-.019.576,1.064,1.064,0,0,1-1.014.742,1.063,1.063,0,0,1-.825-.4.125.125,0,0,1-.015-.016,1.2,1.2,0,0,1-.085-.13l0,0,0-.007c-.008-.014-.016-.029-.023-.044a.207.207,0,0,0-.009-.02s0,0,0,0a.034.034,0,0,0,0-.008,1.074,1.074,0,0,1-.087-.328c0-.018,0-.036,0-.054s0-.044,0-.067a.964.964,0,0,1,.024-.207.815.815,0,0,1,.028-.106c.007-.021.015-.04.023-.061s.018-.044.029-.066l.01-.023a.2.2,0,0,1,.016-.028,1.117,1.117,0,0,1,.084-.131,1.056,1.056,0,0,1,.492-.362,1.064,1.064,0,0,1,1.389.745" transform="translate(-446.806 -308.206)" fill="#efa444"/>
          </g>
        </g>
      </g>
    </g>
  </g>
</svg>
