<svg xmlns="http://www.w3.org/2000/svg" xmlns:xlink="http://www.w3.org/1999/xlink" width="118" height="118" viewBox="0 0 118 118">
  <defs>
    <filter id="Elipse_12115" x="0" y="0" width="118" height="118" filterUnits="userSpaceOnUse">
      <feOffset dy="3" input="SourceAlpha"/>
      <feGaussianBlur stdDeviation="3" result="blur"/>
      <feFlood flood-opacity="0.161"/>
      <feComposite operator="in" in2="blur"/>
      <feComposite in="SourceGraphic"/>
    </filter>
    <clipPath id="clip-path">
      <rect id="Rectángulo_411054" data-name="Rectángulo 411054" width="64" height="64" transform="translate(0 -0.329)" fill="none"/>
    </clipPath>
  </defs>
  <g id="Grupo_1188555" data-name="Grupo 1188555" transform="translate(-799.781 -1970)">
    <g id="Grupo_1181939" data-name="Grupo 1181939" transform="translate(808.781 1976)">
      <g transform="matrix(1, 0, 0, 1, -9, -6)" filter="url(#Elipse_12115)">
        <g id="Elipse_12115-2" data-name="Elipse 12115" transform="translate(9 6)" fill="#f3b6ad" stroke="#a87f78" stroke-width="2">
          <circle cx="50" cy="50" r="50" stroke="none"/>
          <circle cx="50" cy="50" r="49" fill="none"/>
        </g>
      </g>
    </g>
    <g id="Grupo_1188563" data-name="Grupo 1188563" transform="translate(826.947 1994.793)">
      <g id="Grupo_1188562" data-name="Grupo 1188562" transform="translate(0 -0.245)" clip-path="url(#clip-path)">
        <path id="Trazado_1321716" data-name="Trazado 1321716" d="M20.617,59.873a1,1,0,0,1,1.133-.884c2.366.017,4.734-.03,7.1.027A6.8,6.8,0,0,1,34.51,69.251a2.364,2.364,0,0,0-.294,1.085c-.034,1.337-.023,2.675,0,4.012a1.141,1.141,0,0,0,.2.669,4.049,4.049,0,0,1-2.839,6.73c-.367,1.21-.643,2.408-1.1,3.535a9.353,9.353,0,0,1-2.912,3.762A2.751,2.751,0,0,0,27.3,91a.75.75,0,0,0,.383.145c2.949.7,5.9,1.4,8.85,2.08A5.442,5.442,0,0,1,41,98.388c.281,2.944.635,5.882.951,8.823.108,1,.238,2,.283,3.006a2.088,2.088,0,0,1-2.192,2.271q-18.921,0-37.842.008A2.523,2.523,0,0,1,0,111.007v-1.853c.12-.752.26-1.5.354-2.257.145-1.16.258-2.323.384-3.485.082-.752.3-.965,1.082-1.067.761.384.862.638.747,1.6-.244,2.039-.463,4.081-.7,6.12-.052.44.124.585.552.578,1.193-.018,2.387-.006,3.581-.006H8.044c0-2.125,0-4.18,0-6.235,0-.688.4-1.148.944-1.148s.909.437.911,1.152c0,1.873,0,3.745,0,5.618v.577H32.348v-.643c0-1.873-.02-3.746.02-5.617a1.318,1.318,0,0,1,.441-.925c.622-.453,1.384.066,1.391.925.015,1.893,0,3.786.006,5.68,0,.2.016.394.025.6h3.315c.678.007,1.356.017,2.035.019.83,0,.866-.067.769-.875-.208-1.732-.389-3.467-.579-5.2-.229-2.081-.481-4.159-.675-6.243a3.633,3.633,0,0,0-3.647-3.385l-5.392-1.317a8.943,8.943,0,0,1-17.874.008c-2.272.543-4.546,1.043-6.793,1.642a2.822,2.822,0,0,0-1.953,1.909,8.453,8.453,0,0,0-.338,1.8c-.09.869-.264,1.105-1.112,1.283a1.125,1.125,0,0,1-.773-1.346,6.659,6.659,0,0,1,1.175-3.692,6.175,6.175,0,0,1,3.833-2.131c2.8-.613,5.584-1.307,8.38-1.941.349-.079.437-.226.415-.537a3.3,3.3,0,0,1,0-.617,1.127,1.127,0,0,0-.477-1.1,10.187,10.187,0,0,1-3.7-7.132A4.049,4.049,0,0,1,7,78.91a3.691,3.691,0,0,1,.634-3.6,1.621,1.621,0,0,0,.409-1.222,4.077,4.077,0,0,1,0-.8,1.076,1.076,0,0,0-.53-1.169A1.8,1.8,0,0,1,6.8,70.5a11.707,11.707,0,0,1,9.147-11.235c.361-.074.725-.139,1.089-.2.838-.14,1.151.039,1.469.828-.213.828-.346.915-1.335,1.075A9.52,9.52,0,0,0,9.1,67.89a20.962,20.962,0,0,0-.509,2.854h.862q8.547,0,17.095,0c.452,0,.9-.017,1.356-.026a13.731,13.731,0,0,0,1.774-.107,4.944,4.944,0,0,0-1.774-9.72q-3.038-.014-6.076-.029c-.793,0-1.046-.212-1.214-.988M22.474,89.28a5.433,5.433,0,0,0,.6-.082,8.348,8.348,0,0,0,6.459-8.108c.031-2.258.014-4.517,0-6.775,0-.563-.086-1.126-.133-1.693H27.173q-7.09,0-14.18-.005c-.035,0-.071.036-.169.09-.038.553-.109,1.143-.113,1.734-.014,2.2-.034,4.4,0,6.6a8.149,8.149,0,0,0,4.476,7.4,7.583,7.583,0,0,0,5.286.838m-8.373,3.9a6.98,6.98,0,0,0,.005.918,7.059,7.059,0,0,0,8.281,6.168,7.141,7.141,0,0,0,5.782-6.49c.012-.407-.053-.6-.516-.707-2.092-.475-2.087-.5-2.346-2.416-1.385.219-2.764.528-4.158.631a9.081,9.081,0,0,1-4.3-.9c.438,2.329-1.219,2.521-2.752,2.794M31.465,79.831a2.139,2.139,0,0,0,2.114-2.2,2.083,2.083,0,0,0-2.114-2.008ZM10.814,75.587a2.1,2.1,0,0,0-1.968,1.321,2.046,2.046,0,0,0,.432,2.278,1.818,1.818,0,0,0,1.536.636Zm21.491-4c-1.388.68-1.122.256-.845,2.094l.845.075Zm-21.476,2.1.132-1.056H9.946v1.1l.883-.045" transform="translate(0 -48.942)" fill="#090a0a"/>
        <path id="Trazado_1321717" data-name="Trazado 1321717" d="M240.986,0a2.9,2.9,0,0,1,2.127,2.066,3.356,3.356,0,0,1,.092.788q.009,4.41,0,8.82a2.78,2.78,0,0,1-2.86,2.887c-2.056.013-4.112.007-6.167,0-.7,0-.972-.247-1.121-.957a.976.976,0,0,1,.9-.925c2.113,0,4.227.02,6.34.009a.937.937,0,0,0,1.05-1.022q.015-4.4,0-8.805a.92.92,0,0,0-1-1c-.656-.014-1.312.009-1.969.016q-9.969-.01-19.938-.017a.933.933,0,0,0-1.016,1.057q-.019,4.352,0,8.7a.972.972,0,0,0,1.076,1.074c.555.019,1.112-.009,1.666.016a1.427,1.427,0,0,1,1.442,1.394c.045.8.022,1.6.027,2.406,0,.33,0,.659,0,.989a1.468,1.468,0,0,0,.562-.412q1.787-1.835,3.575-3.67a2.223,2.223,0,0,1,1.7-.722c.761.012,1.523,0,2.284,0s.955.178,1.146.922c-.175.712-.439.929-1.144.944a7.036,7.036,0,0,0-2.493.118c-.718.31-1.213,1.136-1.8,1.737-.952.969-1.908,1.933-2.85,2.91a1.584,1.584,0,0,1-1.877.521,1.639,1.639,0,0,1-.985-1.694c.011-1.171,0-2.342,0-3.593-.463,0-.908.006-1.352,0a2.814,2.814,0,0,1-2.851-2.856c-.014-2.757.04-5.515-.02-8.271A3.139,3.139,0,0,1,217.767,0Z" transform="translate(-179.974 0.312)" fill="#090909"/>
        <path id="Trazado_1321718" data-name="Trazado 1321718" d="M46.754,285.859H43.439c-.009-.2-.025-.4-.025-.6,0-1.893.009-3.786-.006-5.68-.007-.859-.769-1.379-1.391-.926a1.319,1.319,0,0,0-.441.925c-.041,1.872-.02,3.745-.02,5.617v.643H19.111v-.577c0-1.873,0-3.745,0-5.618,0-.715-.356-1.152-.911-1.152s-.941.46-.944,1.148c-.007,2.055,0,4.11,0,6.235H15.205c-1.193,0-2.387-.012-3.58.006-.429.006-.6-.138-.552-.578.239-2.039.458-4.081.7-6.12.115-.961.014-1.214-.747-1.6q.082-1.043.165-2.085c.848-.178,1.022-.414,1.112-1.283a8.453,8.453,0,0,1,.338-1.8,2.822,2.822,0,0,1,1.953-1.909c2.247-.6,4.521-1.1,6.793-1.642a8.942,8.942,0,0,0,17.874-.008l5.393,1.317a8.8,8.8,0,0,1,.6,1.66c.257,1.668.438,3.348.627,5.026.148,1.315.269,2.634.4,3.952.161,1.682.315,3.364.472,5.047" transform="translate(-9.208 -224.184)" fill="#5ac5ea"/>
        <path id="Trazado_1321719" data-name="Trazado 1321719" d="M240.442,23.021c-.191-.744-.4-.915-1.146-.922s-1.523.008-2.284,0a2.222,2.222,0,0,0-1.7.722q-1.783,1.84-3.575,3.67a1.468,1.468,0,0,1-.562.412c0-.329,0-.659,0-.988-.005-.8.018-1.606-.028-2.406A1.427,1.427,0,0,0,229.7,22.11c-.555-.025-1.111,0-1.666-.016a.972.972,0,0,1-1.076-1.074q-.019-4.352,0-8.7a.933.933,0,0,1,1.016-1.057q9.969,0,19.938.017a6.722,6.722,0,0,1,.131.906c.016,1.193.007,2.387.007,3.581,0,1.832-.009,3.663,0,5.495,0,.539-.176.819-.757.747a4.656,4.656,0,0,0-.679,0q-1.564.038-3.128.081a.976.976,0,0,0-.9.925l-2.149.016m-6.011-6.342a.99.99,0,0,0-.944-.948.933.933,0,0,0-.908.958.868.868,0,0,0,.888.893.937.937,0,0,0,.964-.9m5.434.008a.989.989,0,0,0-.936-.956.933.933,0,0,0-.915.889.873.873,0,0,0,.879.963.936.936,0,0,0,.972-.9m5.435-.018a.991.991,0,0,0-.954-.938.933.933,0,0,0-.9.968.869.869,0,0,0,.9.884.937.937,0,0,0,.955-.914" transform="translate(-189.505 -9.088)" fill="#ffd760"/>
        <path id="Trazado_1321720" data-name="Trazado 1321720" d="M64.1,64.358c.168.776.421.983,1.214.988q3.038.016,6.076.029a1.032,1.032,0,0,0,.186.3,5.789,5.789,0,0,1,1.016,8.18c-.373.471-.8.9-1.2,1.349-.452.009-.9.026-1.356.026q-8.547,0-17.095,0h-.862a20.954,20.954,0,0,1,.509-2.854,9.521,9.521,0,0,1,8.068-6.926c.988-.159,1.122-.247,1.335-1.074l2.113-.017" transform="translate(-43.485 -53.427)" fill="#958997"/>
        <path id="Trazado_1321721" data-name="Trazado 1321721" d="M86.708,158.257a7.584,7.584,0,0,1-5.286-.838,8.149,8.149,0,0,1-4.476-7.4c-.036-2.2-.015-4.4,0-6.6,0-.591.075-1.181.113-1.734.1-.054.134-.09.169-.09q7.09,0,14.18.005a14.111,14.111,0,0,1,.233,1.748c.028,2.219.04,4.44,0,6.659a9.477,9.477,0,0,1-1.527,5.047,10.705,10.705,0,0,1-3.406,3.2M85.265,155.1c.8-.175,1.566-.305,2.308-.516a.936.936,0,1,0-.561-1.767,4.914,4.914,0,0,1-3.361-.01.913.913,0,0,0-1.219.5.9.9,0,0,0,.594,1.224c.735.233,1.5.383,2.239.567M81.924,146.7h0c0-.225.015-.452,0-.676a.86.86,0,0,0-.816-.851.794.794,0,0,0-.96.662,6.247,6.247,0,0,0,0,1.7.8.8,0,0,0,.949.682.858.858,0,0,0,.828-.841c.017-.224,0-.45,0-.676m6.867-.016c0,.205-.011.411,0,.615a.919.919,0,0,0,.876.927.883.883,0,0,0,.949-.79A5.445,5.445,0,0,0,90.6,145.9a.837.837,0,0,0-.978-.735.86.86,0,0,0-.833.9c-.008.2,0,.41,0,.615" transform="translate(-64.234 -117.919)" fill="#fdc592"/>
        <path id="Trazado_1321722" data-name="Trazado 1321722" d="M85.4,252.06c1.533-.273,3.19-.464,2.752-2.794a9.084,9.084,0,0,0,4.3.9c1.394-.1,2.773-.412,4.159-.631.259,1.921.254,1.941,2.346,2.416.463.105.528.3.516.707a7.141,7.141,0,0,1-5.782,6.49,7.059,7.059,0,0,1-8.281-6.168,6.95,6.95,0,0,1-.005-.918" transform="translate(-71.294 -207.826)" fill="#f29557"/>
        <path id="Trazado_1321723" data-name="Trazado 1321723" d="M216.935,292.523c-.157-1.682-.311-3.365-.472-5.047-.126-1.318-.247-2.636-.4-3.952-.189-1.678-.37-3.358-.627-5.026a8.8,8.8,0,0,0-.6-1.66,3.632,3.632,0,0,1,3.647,3.385c.194,2.084.447,4.163.675,6.243.19,1.734.371,3.469.579,5.2.1.807.061.878-.769.875-.678,0-1.356-.013-2.035-.019" transform="translate(-179.39 -230.848)" fill="#14b0e9"/>
        <path id="Trazado_1321724" data-name="Trazado 1321724" d="M136.211,158.283a10.706,10.706,0,0,0,3.406-3.2,9.478,9.478,0,0,0,1.528-5.047c.038-2.219.026-4.44,0-6.659a14.123,14.123,0,0,0-.233-1.748h2.229c.047.567.129,1.129.133,1.693.016,2.258.033,4.517,0,6.775a8.348,8.348,0,0,1-6.459,8.108,5.432,5.432,0,0,1-.6.082" transform="translate(-113.737 -117.945)" fill="#fbab71"/>
        <path id="Trazado_1321725" data-name="Trazado 1321725" d="M169.132,80.249c.4-.448.829-.877,1.2-1.349a5.789,5.789,0,0,0-1.016-8.18,1.033,1.033,0,0,1-.187-.3,4.944,4.944,0,0,1,1.774,9.72,13.706,13.706,0,0,1-1.775.107" transform="translate(-141.226 -58.475)" fill="#7c6e7e"/>
        <path id="Trazado_1321726" data-name="Trazado 1321726" d="M190.7,164q0-2.109,0-4.211a2.084,2.084,0,0,1,2.114,2.008A2.138,2.138,0,0,1,190.7,164" transform="translate(-159.238 -133.107)" fill="#e48d52"/>
        <path id="Trazado_1321727" data-name="Trazado 1321727" d="M54.705,159.6v4.235a1.818,1.818,0,0,1-1.536-.636,2.046,2.046,0,0,1-.432-2.278,2.1,2.1,0,0,1,1.968-1.321" transform="translate(-43.892 -132.953)" fill="#e78e53"/>
        <path id="Trazado_1321728" data-name="Trazado 1321728" d="M190.388,135.375v2.169l-.845-.075c-.277-1.839-.543-1.414.845-2.094" transform="translate(-158.083 -112.726)" fill="#615661"/>
        <path id="Trazado_1321729" data-name="Trazado 1321729" d="M61.164,142.761l-.883.045v-1.1H61.3l-.132,1.056" transform="translate(-50.335 -118.012)" fill="#5f5460"/>
        <path id="Trazado_1321730" data-name="Trazado 1321730" d="M327.206,22.059q1.564-.041,3.128-.081a4.631,4.631,0,0,1,.679,0c.581.072.761-.208.757-.747-.013-1.831,0-3.663,0-5.495,0-1.194.009-2.387-.006-3.581a6.755,6.755,0,0,0-.131-.906c.656-.007,1.313-.031,1.969-.016a.92.92,0,0,1,1,1q.016,4.4,0,8.805a.937.937,0,0,1-1.05,1.023c-2.113.011-4.227,0-6.34-.009" transform="translate(-273.218 -9.067)" fill="#ffb330"/>
        <path id="Trazado_1321731" data-name="Trazado 1321731" d="M262.908,39.314a.937.937,0,0,1-.964.9.869.869,0,0,1-.888-.894.934.934,0,0,1,.908-.958.99.99,0,0,1,.944.948" transform="translate(-217.982 -31.724)" fill="#111009"/>
        <path id="Trazado_1321732" data-name="Trazado 1321732" d="M295.847,39.321a.936.936,0,0,1-.972.9.873.873,0,0,1-.879-.963.933.933,0,0,1,.915-.889.989.989,0,0,1,.936.956" transform="translate(-245.486 -31.723)" fill="#111009"/>
        <path id="Trazado_1321733" data-name="Trazado 1321733" d="M328.781,39.3a.937.937,0,0,1-.955.914.869.869,0,0,1-.9-.884.933.933,0,0,1,.9-.968.991.991,0,0,1,.954.938" transform="translate(-272.986 -31.724)" fill="#111009"/>
        <path id="Trazado_1321734" data-name="Trazado 1321734" d="M112.766,211.519c-.744-.184-1.5-.334-2.239-.567a.9.9,0,0,1-.594-1.224.912.912,0,0,1,1.218-.5,4.915,4.915,0,0,0,3.361.01.936.936,0,1,1,.561,1.767c-.742.211-1.508.341-2.309.516" transform="translate(-91.736 -174.334)" fill="#100e0b"/>
        <path id="Trazado_1321735" data-name="Trazado 1321735" d="M97.922,164.759c0,.225.014.452,0,.676a.858.858,0,0,1-.828.841.8.8,0,0,1-.949-.682,6.242,6.242,0,0,1,0-1.7.794.794,0,0,1,.96-.662.86.86,0,0,1,.816.851c.018.224,0,.45,0,.676h0" transform="translate(-80.232 -135.981)" fill="#110e0c"/>
        <path id="Trazado_1321736" data-name="Trazado 1321736" d="M148.814,164.747c0-.205-.006-.411,0-.615a.86.86,0,0,1,.833-.9.837.837,0,0,1,.978.735,5.445,5.445,0,0,1,.013,1.529.883.883,0,0,1-.949.79.919.919,0,0,1-.876-.927c-.013-.2,0-.41,0-.615" transform="translate(-124.256 -135.984)" fill="#0f0d0b"/>
      </g>
    </g>
  </g>
</svg>
