<svg xmlns="http://www.w3.org/2000/svg" xmlns:xlink="http://www.w3.org/1999/xlink" width="337" height="362" viewBox="0 0 337 362">
  <defs>
    <clipPath id="clip-path">
      <rect id="Rectángulo_410739" data-name="Rectángulo 410739" width="337" height="362" transform="translate(927.394 10527.615)" fill="#fff" stroke="#707070" stroke-width="1"/>
    </clipPath>
    <clipPath id="clip-path-2">
      <rect id="Rectángulo_410738" data-name="Rectángulo 410738" width="609" height="407" transform="translate(-0.222 0.217)" fill="none"/>
    </clipPath>
  </defs>
  <g id="Enmascarar_grupo_1099171" data-name="Enmascarar grupo 1099171" transform="translate(-927.394 -10527.615)" clip-path="url(#clip-path)">
    <g id="Grupo_1187773" data-name="Grupo 1187773" transform="translate(660.616 10520.398)">
      <g id="Grupo_1187772" data-name="Grupo 1187772" transform="translate(0 0)" clip-path="url(#clip-path-2)">
        <path id="Trazado_1296319" data-name="Trazado 1296319" d="M657.07,357.284c-.44-4.255,2.373-19.969,5.577-20.55s11.392,5.57,10.393,7.813-8.559,10.495-15.97,12.737" transform="translate(-122.471 -62.854)" fill="#d3e3f3"/>
        <path id="Trazado_1296320" data-name="Trazado 1296320" d="M649.438,347.29c-2.944-3.1-10.3-17.271-8.115-19.686s12.425-2.534,13-.148-.381,13.537-4.886,19.834" transform="translate(-119.453 -60.799)" fill="#d3e3f3"/>
        <path id="Trazado_1296321" data-name="Trazado 1296321" d="M648.708,339a57.594,57.594,0,0,1-5.4,38" transform="translate(-119.901 -63.286)" fill="none" stroke="#afc6de" stroke-linecap="round" stroke-linejoin="round" stroke-width="0.75"/>
        <path id="Trazado_1296322" data-name="Trazado 1296322" d="M650.091,362.521c5.556-2.31,12.274-10.962,14.31-16.153" transform="translate(-121.171 -64.667)" fill="none" stroke="#afc6de" stroke-linecap="round" stroke-linejoin="round" stroke-width="0.75"/>
        <path id="Trazado_1296323" data-name="Trazado 1296323" d="M709.871,338.8c-1.865-4.739-3.663-23.663-.175-25.353s14.57,3.4,14.141,6.289-6.182,14.124-13.966,19.064" transform="translate(-131.97 -58.434)" fill="#d3e3f3"/>
        <path id="Trazado_1296324" data-name="Trazado 1296324" d="M697.2,336.826c-3.305-2.962-12.105-17-10.049-19.679s12.639-3.666,13.435-1.247.744,14.034-3.386,20.926" transform="translate(-128.059 -58.699)" fill="#d3e3f3"/>
        <path id="Trazado_1296325" data-name="Trazado 1296325" d="M705.87,372.718c2.056-4.659,14.239-19.251,17.895-17.961s8.495,12.484,6.137,14.214-15.045,5.8-24.032,3.748" transform="translate(-131.625 -66.224)" fill="#d3e3f3"/>
        <path id="Trazado_1296326" data-name="Trazado 1296326" d="M704.905,328.5a106.371,106.371,0,0,1-39.6,67.576" transform="translate(-124.022 -61.319)" fill="none" stroke="#afc6de" stroke-linecap="round" stroke-linejoin="round" stroke-width="0.75"/>
        <path id="Trazado_1296327" data-name="Trazado 1296327" d="M704.592,351.313c-4.224-6.677-7.786-17.364-7.481-24.286" transform="translate(-129.98 -61.042)" fill="none" stroke="#afc6de" stroke-linecap="round" stroke-linejoin="round" stroke-width="0.75"/>
        <path id="Trazado_1296328" data-name="Trazado 1296328" d="M694.383,378.1c6.9-1.676,14.529-3.449,22.1-8.015" transform="translate(-129.472 -69.112)" fill="none" stroke="#afc6de" stroke-linecap="round" stroke-linejoin="round" stroke-width="0.75"/>
        <path id="Trazado_1296329" data-name="Trazado 1296329" d="M382.316,414.491c.1-4.759-4.451-21.934-8.057-22.287S362.585,399.9,363.9,402.3s9.994,10.382,18.419,12.194" transform="translate(-67.508 -73.255)" fill="#d3e3f3"/>
        <path id="Trazado_1296330" data-name="Trazado 1296330" d="M392.912,408.875c1.94-3.668,5.109-18.824,2.439-20.509s-12.269.878-12.184,3.258,3.892,12.546,9.745,17.251" transform="translate(-71.146 -72.437)" fill="#d3e3f3"/>
        <path id="Trazado_1296331" data-name="Trazado 1296331" d="M395.43,443.989c-3.312-3.42-18.72-12.268-21.508-9.954s-3.4,13.7-.778,14.45,15.07.216,22.286-4.5" transform="translate(-68.954 -81.026)" fill="#d3e3f3"/>
        <path id="Trazado_1296332" data-name="Trazado 1296332" d="M378.127,406.6a99.428,99.428,0,0,0,56.606,46.426" transform="translate(-70.202 -75.956)" fill="none" stroke="#afc6de" stroke-linecap="round" stroke-linejoin="round" stroke-width="0.75"/>
        <path id="Trazado_1296333" data-name="Trazado 1296333" d="M393.793,423.544c1.541-7.222,1.2-17.747-1.305-23.716" transform="translate(-72.893 -74.686)" fill="none" stroke="#afc6de" stroke-linecap="round" stroke-linejoin="round" stroke-width="0.75"/>
        <path id="Trazado_1296334" data-name="Trazado 1296334" d="M406.954,445.342c-6.595.766-13.856,1.68-21.971.128" transform="translate(-71.486 -83.216)" fill="none" stroke="#afc6de" stroke-linecap="round" stroke-linejoin="round" stroke-width="0.75"/>
        <path id="Trazado_1296335" data-name="Trazado 1296335" d="M451.122,365.661c-2.956-3.445-10-18.854-7.559-21.3s13.306-2.028,13.79.532-1.121,14.329-6.231,20.765" transform="translate(-82.37 -63.987)" fill="#d3e3f3"/>
        <path id="Trazado_1296336" data-name="Trazado 1296336" d="M439.467,376.778c-4.448.906-21.339-.435-22.284-3.757s4.7-12.611,7.174-11.789,11.973,7.951,15.111,15.546" transform="translate(-77.501 -67.443)" fill="#d3e3f3"/>
        <path id="Trazado_1296337" data-name="Trazado 1296337" d="M451.862,354.976c-1.489,14.2,6.163,31.322,18.874,37.936" transform="translate(-83.986 -66.28)" fill="none" stroke="#afc6de" stroke-linecap="round" stroke-linejoin="round" stroke-width="0.75"/>
        <path id="Trazado_1296338" data-name="Trazado 1296338" d="M452.548,381.43c-6.813,0-18.7-5.692-23.624-10.482" transform="translate(-79.722 -69.274)" fill="none" stroke="#afc6de" stroke-linecap="round" stroke-linejoin="round" stroke-width="0.75"/>
        <path id="Trazado_1296339" data-name="Trazado 1296339" d="M393.19,481.075c-3.757,2.521-19.832,7.689-21.964,4.985s-.448-13.407,2.143-13.586,14.05,2.789,19.821,8.6" transform="translate(-68.726 -88.3)" fill="#d3e3f3"/>
        <path id="Trazado_1296340" data-name="Trazado 1296340" d="M403.921,490.9c-4.912-10.47-20.035-10.6-26.239-9.565" transform="translate(-70.118 -89.884)" fill="none" stroke="#afc6de" stroke-linecap="round" stroke-linejoin="round" stroke-width="0.75"/>
        <path id="Trazado_1296341" data-name="Trazado 1296341" d="M590.179,341.462c-24.182,41.174-83.55,35.932-87.532,8.678,1.349-5.03,4.25-30.342-10.06-43.994l11.994-38.208,29.594-17.219,24.9,4.542c-2.462,9.385,10.055,52.142,31.106,86.2" transform="translate(-91.653 -46.741)" fill="#d5693c"/>
        <path id="Trazado_1296342" data-name="Trazado 1296342" d="M530.555,283.866c-3.947,6.25-18.031,20.6-33.538,29.428a24.782,24.782,0,0,0-4.434-5.356c16-10.188,35.153-27.085,36.773-29.234,2.419-3.229,3.549-14.867,3.87-18.416,2.3,8.439,1.014,17.746-2.67,23.579" transform="translate(-91.652 -48.534)" fill="#b14314"/>
        <path id="Trazado_1296343" data-name="Trazado 1296343" d="M485.076,371.07c-18.566,1.86-51.417,18.126-57.416,27.873s-28.825,75.267-28.825,75.267H684.187s-19.408-71.1-32.436-80.765c-12.746-9.452-54.872-27.486-79.139-31.06-24.183,41.181-83.557,35.933-87.536,8.685" transform="translate(-74.083 -67.669)" fill="#00bcad"/>
        <path id="Trazado_1296344" data-name="Trazado 1296344" d="M648.5,392.924c-5.737,10.133-11.937,20.2-20.16,28.432-14.107,14.123-34.015,21.761-53.866,21.761a73.1,73.1,0,0,1-28.189-5.526c-2.86-1.195-5.721-2.592-8.483-3.949-6.631-3.25-13.481-6.614-20.851-7.305-6.273-.593-12.6.78-18.722,2.113a106.568,106.568,0,0,1-11.4,2.056,52.939,52.939,0,0,1-38.947-12,51.869,51.869,0,0,1-12.27-15.366c.171-.219.366-.439.569-.658a51.061,51.061,0,0,0,12.229,15.4,52.039,52.039,0,0,0,38.338,11.815,105.975,105.975,0,0,0,11.311-2.031c6.176-1.349,12.563-2.738,18.966-2.137,7.516.715,14.448,4.1,21.135,7.386,2.755,1.349,5.6,2.747,8.443,3.933,27.067,11.295,60.44,4.689,81.161-16.065,8.15-8.15,14.31-18.161,20.014-28.229.244.122.488.252.723.374" transform="translate(-80.974 -73.322)" fill="#19d1c2"/>
        <path id="Trazado_1296345" data-name="Trazado 1296345" d="M690.51,456.291a84.99,84.99,0,0,1-10.149,8.695,86.47,86.47,0,0,1-53.005,16.43c-11.807-.333-23.508-3.12-34.819-5.818-9.572-2.291-19.461-4.648-29.383-5.509a101.96,101.96,0,0,0-71.386,21.558h-1.3a102.766,102.766,0,0,1,72.759-22.37c9.979.869,19.9,3.234,29.5,5.526,11.271,2.69,22.931,5.477,34.657,5.8a85.5,85.5,0,0,0,52.5-16.276,83.687,83.687,0,0,0,10.336-8.9c.1.293.2.577.293.861" transform="translate(-91.256 -85.107)" fill="#19d1c2"/>
        <path id="Trazado_1296346" data-name="Trazado 1296346" d="M458.943,488.78h-.878c3.323-7.98,3.942-16.374,1.407-23.622-3.69-10.523-14.262-19.12-27.6-22.452a65.986,65.986,0,0,0-11.709-1.771c.1-.268.2-.536.3-.8a67.109,67.109,0,0,1,11.6,1.788c13.6,3.4,24.4,12.2,28.173,22.972,2.575,7.346,2,15.829-1.292,23.89" transform="translate(-78.079 -82.239)" fill="#19d1c2"/>
        <path id="Trazado_1296347" data-name="Trazado 1296347" d="M524.4,394.845c.341.065.691.13,1.032.187-7.069,6.176-15.049,12.741-24.5,12.741h-.219c-10.117-.114-19.851-8.743-22.647-20.087a34.247,34.247,0,0,1-.959-7.037c.268-.106.528-.211.788-.309a34.161,34.161,0,0,0,.959,7.151c2.308,9.345,10.75,19.348,21.867,19.47,9.093.081,16.536-5.883,23.679-12.116" transform="translate(-88.752 -71.034)" fill="#19d1c2"/>
        <path id="Trazado_1296348" data-name="Trazado 1296348" d="M654.774,380.535c-.252.926-.536,1.836-.845,2.73-4.055,11.831-12.221,21.217-22.419,25.743a33.661,33.661,0,0,1-13.651,2.885,30.247,30.247,0,0,1-19.543-6.8,59.3,59.3,0,0,1-8.378-9.507,75.5,75.5,0,0,0-6.029-7.264c.244-.13.488-.26.731-.4a76.549,76.549,0,0,1,5.94,7.167,58.963,58.963,0,0,0,8.256,9.377c8.41,7.126,21.412,8.654,32.341,3.8,9.995-4.437,18.007-13.643,21.981-25.263.317-.918.6-1.845.861-2.8.252.106.5.211.756.325" transform="translate(-108.768 -71.01)" fill="#19d1c2"/>
        <path id="Trazado_1296349" data-name="Trazado 1296349" d="M665.412,461.609a202.13,202.13,0,0,0,2.543,30.383" transform="translate(-124.043 -86.265)" fill="none" stroke="#008c81" stroke-linecap="round" stroke-linejoin="round" stroke-width="1"/>
        <path id="Trazado_1296350" data-name="Trazado 1296350" d="M451.518,458.217c3.179,10.387-4.637,26.391-5.711,33.14" transform="translate(-82.886 -85.629)" fill="none" stroke="#008c81" stroke-linecap="round" stroke-linejoin="round" stroke-width="1"/>
        <path id="Trazado_1296351" data-name="Trazado 1296351" d="M434.942,164.3c-2.463,7.009-13.829,16.1-14.208,27.468s8.714,28.037-3.6,30.689c7.767-.947,10.23-5.079,10.8-9.738s-6.919-18.677,9.328-31.369L452.5,155.774l-8.521-10.23Z" transform="translate(-77.512 -27.03)" fill="#09254d"/>
        <path id="Trazado_1296352" data-name="Trazado 1296352" d="M567.6,185.326c-.8,9.207-18.729,38.761-20.511,49.261l-25.838,3.237c-.325,3.545-1.456,15.175-3.879,18.413s-44.423,39.729-55.891,36.826-11.141-17.445-12.6-20.511-6.141-3.4-6.141-3.4l-8.191-16.439,4.483-10.213c-3.717.652-14.868-1.284-8.4-11.142s14.533-13.891,12.761-26c-.6-4.11-5.816-9.207-6.142-12.761s-.162-28.6,11.3-40.064a88.9,88.9,0,0,1,16.353-12.119h87.725c13.508,15.644,15.559,38.244,14.965,44.912" transform="translate(-79.672 -26.069)" fill="#d5693c"/>
        <path id="Trazado_1296353" data-name="Trazado 1296353" d="M456.723,284.758c-.919,2.547-10.26,11.474-11.8,12.3-1.892-.177-6.517-2.271-4.913-8.141Z" transform="translate(-81.737 -53.121)" fill="#b14314"/>
        <path id="Trazado_1296354" data-name="Trazado 1296354" d="M455.717,283.4c-3.4,2.634-15.324,4.507-16.711,4.16s-6.795-6.657-3.814-10.054c6.865-.347,12.343,5.825,20.525,5.894" transform="translate(-80.731 -51.758)" fill="#b14314"/>
        <path id="Trazado_1296355" data-name="Trazado 1296355" d="M441.9,263.652c1.121-1.121,1.992-1.744,2.616-1.494s2.864,3.238,5.169,1.494.124-8.033-3.55-9.279" transform="translate(-82.154 -47.426)" fill="none" stroke="#b14314" stroke-linecap="round" stroke-linejoin="round" stroke-width="1.5"/>
        <path id="Trazado_1296356" data-name="Trazado 1296356" d="M480.362,216.587c-3.37-7.058-14.943-10.237-20.6-9.6-2.161,5.023-.763,14.879,1.4,17.232,3.816-.063,14.879-3.5,19.2-7.63" transform="translate(-85.298 -38.53)" fill="#c65a2c"/>
        <path id="Trazado_1296357" data-name="Trazado 1296357" d="M479.67,218.82c-.913,1.919-15.582,10.1-20.608,10.917a22.313,22.313,0,0,0,2.751-2.038c-.951.136-5.67-.2-6.825-1.732,4.958.034,19.28-3.225,24.682-7.147" transform="translate(-84.606 -40.763)" fill="#2c2f37"/>
        <path id="Trazado_1296358" data-name="Trazado 1296358" d="M450.368,190.779c-1.715,1.554-.478,11.47,2.23,10.833s11.523-7.7,16.78-7.116,11.213,3.787,12.585,2.336c2.6-2.751-7.594-10.672-15.027-10.3-4.629.232-14.868,2.708-16.567,4.248" transform="translate(-83.593 -34.709)" fill="#09254d"/>
        <path id="Trazado_1296359" data-name="Trazado 1296359" d="M503.216,249.118c.6,3.844-3.817,7.73-9.875,8.681s-11.457-1.394-12.06-5.237,3.818-7.729,9.875-8.681,11.456,1.394,12.06,5.237" transform="translate(-89.524 -45.42)" fill="#e0784d"/>
        <path id="Trazado_1296360" data-name="Trazado 1296360" d="M605.78,270a79.892,79.892,0,0,1-7.645,7.281,53.445,53.445,0,0,1-23.05-23.692,53.455,53.455,0,0,0,18.221,27.428c-17.925,12.8-38.877,16.794-55.1,16.813a37.86,37.86,0,0,0,2.251-23.012,39.821,39.821,0,0,1-12.167,22.494,56.334,56.334,0,0,1-10.835-2.136c26.278-13.45,11.41-39.211,10.845-47.163s3.6-13.077,3.794-24.248-4.924-14.859-4.924-14.859c-3.986,11.659-11.745,21.488-17.245,24.1,13.451-13.105-4.733-41.827,0-49.4-2.462,2.461-11.745,6.246-21.546.9s.9-26.854-5.921-31.212-24.248,14.015-29.363,14.581-9.159-5.768-5.366-12.493l-9.034,7.951c1.14-4.924-3.976-16.86,0-22.925H575.086l3.823,3.64c13.556,16.152,12.205,54.338,11.333,67.7-.948,14.5,8.143,25.272,16.861,27.351L603.884,250.1c-21.029-2.654-21.221-35.044-19.132-45.841-18.193,42.623,9.091,61.189,21.028,65.749" transform="translate(-81.264 -26.069)" fill="#09254d"/>
        <path id="Trazado_1296361" data-name="Trazado 1296361" d="M573.921,305.868c.229-5.378-.8-10.737-1.941-16.007s-2.409-10.547-2.669-15.927A43.168,43.168,0,0,1,576.16,248.6a68.879,68.879,0,0,0,.311,43.881c1.659,4.809,3.869,9.418,5.378,14.277a34.465,34.465,0,0,1,1.65,9.259,101.5,101.5,0,0,1-12.837,1.8,25.968,25.968,0,0,0,3.26-11.948" transform="translate(-106.023 -46.344)" fill="#1a3b6b"/>
        <path id="Trazado_1296362" data-name="Trazado 1296362" d="M612.581,298.3a90.075,90.075,0,0,1-14.477,6.228,44.5,44.5,0,0,0-3.389-12.787c-2.46-6.089-5.529-12-6.849-18.427-1.61-7.789-.55-15.867,1.149-23.625s4.039-15.407,5.04-23.286.79-16.007-2.829-23.076a56.143,56.143,0,0,1,6.649,33.644c-.9,7.639-3.37,15-4.55,22.6S592.4,275.4,596.5,281.9c3.059,4.829,7.909,8.188,12.1,12.077a33.439,33.439,0,0,1,3.979,4.329" transform="translate(-109.36 -37.86)" fill="#1a3b6b"/>
        <path id="Trazado_1296363" data-name="Trazado 1296363" d="M586.023,153.054c-8.425,8.31-25.5,23.774-53.78,10.733,11.887,11.657,43.855,20.081,53.78-10.733" transform="translate(-99.085 -28.438)" fill="#1a3b6b"/>
        <path id="Trazado_1296364" data-name="Trazado 1296364" d="M535.93,238.186c-.5-5.591-.97-12.876,1.194-17.51s10.911-18.911,20.129-17.37,8.3,20.189,7.713,24.4a25.109,25.109,0,0,1-16.508,20.341,8.92,8.92,0,0,1-11-4.445c-.525-1.411-1.53-5.415-1.53-5.415" transform="translate(-99.697 -37.834)" fill="#d5693c"/>
        <path id="Trazado_1296365" data-name="Trazado 1296365" d="M558.726,212.472c-6.254-.742-21.64,15.836-11.341,32.963" transform="translate(-101.275 -39.569)" fill="none" stroke="#b14314" stroke-linecap="round" stroke-linejoin="round" stroke-width="1.5"/>
        <path id="Trazado_1296366" data-name="Trazado 1296366" d="M544.041,234.609c2.835-4.313,8.227-6.191,11.738-4.878" transform="translate(-101.296 -42.731)" fill="none" stroke="#b14314" stroke-linecap="round" stroke-linejoin="round" stroke-width="1.5"/>
        <line id="Línea_750" data-name="Línea 750" y2="18.697" transform="translate(450.051 207.033)" fill="#eaf3fc"/>
        <path id="Trazado_1296367" data-name="Trazado 1296367" d="M554.451,254.053a1.844,1.844,0,1,1-1.845-1.845,1.845,1.845,0,0,1,1.845,1.845" transform="translate(-102.556 -47.02)" fill="#eaf3fc"/>
        <path id="Trazado_1296368" data-name="Trazado 1296368" d="M555.854,276.642a3.667,3.667,0,1,1-3.667-3.666,3.667,3.667,0,0,1,3.667,3.666" transform="translate(-102.136 -50.912)" fill="#eaf3fc"/>
        <path id="Trazado_1296369" data-name="Trazado 1296369" d="M556.791,285.386a4.886,4.886,0,1,1-4.886-4.886,4.885,4.885,0,0,1,4.886,4.886" transform="translate(-101.854 -52.323)" fill="#eaf3fc"/>
        <path id="Trazado_1296370" data-name="Trazado 1296370" d="M439.049,139.671c9.867,5.168,117.15,6.655,136.393,0-24.83-5.243-125.343-3.25-136.393,0" transform="translate(-81.619 -25.324)" fill="#1a3b6b"/>
        <path id="Trazado_1296371" data-name="Trazado 1296371" d="M462.19,132.491c-9.223-.5-16.918-1.162-21.94-1.975A58.294,58.294,0,0,1,428.9,119.237c-8.548-11.262-12.863-25.068-13.261-39.207a69.1,69.1,0,0,1,17.869,8.825c.471.317.934.65,1.4.983a68.759,68.759,0,0,1,13.725,13.14c.187.228.366.455.544.691s.349.455.512.683a69.6,69.6,0,0,1,12.506,28.14" transform="translate(-77.231 -14.752)" fill="#ac74e8"/>
        <path id="Trazado_1296372" data-name="Trazado 1296372" d="M424.107,90.333l32.666,43.636c-.366-.024-.723-.049-1.073-.081L423.449,90.821a.406.406,0,0,1,.089-.569.413.413,0,0,1,.569.081" transform="translate(-78.681 -16.653)" fill="#864ac4"/>
        <path id="Trazado_1296373" data-name="Trazado 1296373" d="M433.714,102.1a.446.446,0,0,1-.08-.007.407.407,0,0,1-.319-.478A16.142,16.142,0,0,0,431.7,90.987a.406.406,0,0,1,.714-.387,16.96,16.96,0,0,1,1.694,11.171.406.406,0,0,1-.4.327" transform="translate(-80.233 -16.693)" fill="#864ac4"/>
        <path id="Trazado_1296374" data-name="Trazado 1296374" d="M435.98,115.167a21.579,21.579,0,0,1-10.134-2.525.406.406,0,1,1,.383-.717,20.748,20.748,0,0,0,12.836,2.2.406.406,0,0,1,.122.8,21.215,21.215,0,0,1-3.207.243" transform="translate(-79.104 -20.72)" fill="#864ac4"/>
        <path id="Trazado_1296375" data-name="Trazado 1296375" d="M451.515,124.17a.377.377,0,0,1-.094-.011.405.405,0,0,1-.3-.489,35.768,35.768,0,0,0-.045-16.709.406.406,0,1,1,.789-.193,36.576,36.576,0,0,1,.045,17.091.405.405,0,0,1-.395.312" transform="translate(-83.871 -19.705)" fill="#864ac4"/>
        <path id="Trazado_1296376" data-name="Trazado 1296376" d="M453.384,138.935a26.329,26.329,0,0,1-11.66-2.721.406.406,0,0,1,.362-.727,25.5,25.5,0,0,0,14.362,2.446.406.406,0,1,1,.1.806,25.557,25.557,0,0,1-3.166.2" transform="translate(-82.078 -25.137)" fill="#864ac4"/>
        <path id="Trazado_1296377" data-name="Trazado 1296377" d="M467.289,142.656a24.231,24.231,0,0,0-.805-6.533.408.408,0,0,1,.788-.211,25.539,25.539,0,0,1,.83,6.793l-.813-.049" transform="translate(-86.758 -25.169)" fill="#864ac4"/>
        <path id="Trazado_1296378" data-name="Trazado 1296378" d="M546.913,125.366c-6.184.146-12.619.228-19.088.244C527.363,95.772,544.1,59.782,571.6,37.68c4.372,35.453-2.771,68.8-24.686,87.686" transform="translate(-98.255 -6.815)" fill="#00bcad"/>
        <path id="Trazado_1296379" data-name="Trazado 1296379" d="M568.749,52.138a495.35,495.35,0,0,1-30.391,76.017c-.3.008-.6.008-.91.016a496.247,496.247,0,0,0,30.529-76.277.4.4,0,1,1,.772.244" transform="translate(-100.06 -9.425)" fill="#008c81"/>
        <path id="Trazado_1296380" data-name="Trazado 1296380" d="M563.03,83.335a.405.405,0,0,1-.383-.269,36.347,36.347,0,0,1-1.881-16.26.406.406,0,0,1,.808.092,35.523,35.523,0,0,0,1.693,15.479,26.686,26.686,0,0,0,11.821-10.308.406.406,0,0,1,.7.416A27.589,27.589,0,0,1,563.194,83.3a.4.4,0,0,1-.164.034" transform="translate(-104.388 -12.206)" fill="#008c81"/>
        <path id="Trazado_1296381" data-name="Trazado 1296381" d="M550.258,112.293a.406.406,0,0,1-.363-.224,49.1,49.1,0,0,1-5.119-19.562.405.405,0,0,1,.387-.425.4.4,0,0,1,.424.387,48.334,48.334,0,0,0,4.893,18.951,43.838,43.838,0,0,0,16.844-8.06.406.406,0,1,1,.5.638,44.645,44.645,0,0,1-17.48,8.286.409.409,0,0,1-.089.01" transform="translate(-101.434 -17.01)" fill="#008c81"/>
        <path id="Trazado_1296382" data-name="Trazado 1296382" d="M539.976,136.4a.405.405,0,0,1-.358-.215,36.738,36.738,0,0,1-4.356-17.688.394.394,0,0,1,.41-.4.406.406,0,0,1,.4.41A35.934,35.934,0,0,0,540.2,135.55a31.98,31.98,0,0,0,12.834-5.136.406.406,0,1,1,.459.67,32.8,32.8,0,0,1-13.454,5.313.394.394,0,0,1-.062,0" transform="translate(-99.65 -21.886)" fill="#008c81"/>
        <path id="Trazado_1296383" data-name="Trazado 1296383" d="M500.822,125.679c-4.827-.065-9.58-.171-14.163-.3a92.042,92.042,0,0,1-10.645-12.749c-.39-.561-.764-1.121-1.13-1.674a82.474,82.474,0,0,1-4.477-7.655c-.317-.585-.618-1.178-.9-1.771-10.954-22.338-10.239-45.35-9.475-63.049,16.195,10.239,27.8,25.548,34.34,43.555,5.225,14.4,6.663,28.7,6.452,43.644" transform="translate(-85.48 -6.965)" fill="#00bcad"/>
        <path id="Trazado_1296384" data-name="Trazado 1296384" d="M498.371,128.827c-.292-.008-.593-.008-.886-.016L468.11,56.182a.407.407,0,0,1,.756-.3Z" transform="translate(-87.06 -10.178)" fill="#008c81"/>
        <path id="Trazado_1296385" data-name="Trazado 1296385" d="M476.2,72.927a.405.405,0,0,1-.393-.509l2.886-11.05a.406.406,0,1,1,.786.206l-2.887,11.05a.405.405,0,0,1-.392.3" transform="translate(-88.505 -11.198)" fill="#008c81"/>
        <path id="Trazado_1296386" data-name="Trazado 1296386" d="M480.812,94.283a.386.386,0,0,1-.112-.016l-14.444-4.133a.406.406,0,1,1,.224-.781l14.445,4.134a.406.406,0,0,1-.112.8" transform="translate(-86.663 -16.496)" fill="#008c81"/>
        <path id="Trazado_1296387" data-name="Trazado 1296387" d="M494.023,115.339a.4.4,0,0,1-.389-.522l5.088-17.181a.406.406,0,0,1,.779.232l-5.088,17.181a.406.406,0,0,1-.389.291" transform="translate(-91.846 -17.997)" fill="#008c81"/>
        <path id="Trazado_1296388" data-name="Trazado 1296388" d="M499.644,139.237a.4.4,0,0,1-.171-.038l-12.958-6.029a.406.406,0,1,1,.343-.736l12.957,6.029a.406.406,0,0,1-.171.774" transform="translate(-90.471 -24.566)" fill="#008c81"/>
        <path id="Trazado_1296389" data-name="Trazado 1296389" d="M527.122,41.669c-2.536-7.877,6.975-32.46,14.954-29.8s-9.516,22.526-14.954,29.8" transform="translate(-98.047 -1.94)" fill="#4582ef"/>
        <path id="Trazado_1296390" data-name="Trazado 1296390" d="M521.523,67.34c9.506-2.888,23.773-19.636,20.871-23.111s-17.4,9.718-20.871,23.111" transform="translate(-97.076 -7.937)" fill="#4582ef"/>
        <path id="Trazado_1296391" data-name="Trazado 1296391" d="M518.723,91.153c8.88-2.658,23.63-17,21.454-21.6s-19.695,11.283-21.454,21.6" transform="translate(-96.551 -12.636)" fill="#4582ef"/>
        <path id="Trazado_1296392" data-name="Trazado 1296392" d="M518.524,115.175c7.672-.883,23.066-16.036,20.407-21.034s-17.761,13.051-20.407,21.034" transform="translate(-96.514 -17.235)" fill="#4582ef"/>
        <path id="Trazado_1296393" data-name="Trazado 1296393" d="M520.7,136.85c8.318-3.146,21.537-16.848,19.522-21.926s-15.349,8.952-19.522,21.926" transform="translate(-96.922 -21.092)" fill="#4582ef"/>
        <path id="Trazado_1296394" data-name="Trazado 1296394" d="M519.462,65.938c-4.76-4.42-12.658-27.794-6.936-29.647s7.423,20.929,6.936,29.647" transform="translate(-95.015 -6.534)" fill="#4582ef"/>
        <path id="Trazado_1296395" data-name="Trazado 1296395" d="M515.369,90.667c-8.368-3.3-18.04-19.021-13.285-23.856s12.706,18.052,13.285,23.856" transform="translate(-93.197 -12.15)" fill="#4582ef"/>
        <path id="Trazado_1296396" data-name="Trazado 1296396" d="M514.187,115.7c-6.272-.158-22.07-13.538-18.2-18.616s16.654,10.714,18.2,18.616" transform="translate(-92.177 -17.764)" fill="#4582ef"/>
        <path id="Trazado_1296397" data-name="Trazado 1296397" d="M515.854,138.683c-8.445-.728-21.26-8.546-21.019-13.543s17.132,3.229,21.019,13.543" transform="translate(-92.074 -22.924)" fill="#4582ef"/>
        <path id="Trazado_1296398" data-name="Trazado 1296398" d="M531.891,27.68a175.149,175.149,0,0,0-10.824,95.942h-.829a176.069,176.069,0,0,1,10.9-96.259.413.413,0,0,1,.528-.219.406.406,0,0,1,.219.536" transform="translate(-96.381 -4.835)" fill="#225dc7"/>
        <path id="Trazado_1296399" data-name="Trazado 1296399" d="M518.364,140.476a.406.406,0,0,1-.222-.066l-9.736-6.371a.406.406,0,0,1,.444-.68l9.446,6.181,7.6-8.37a.406.406,0,0,1,.6.546l-7.836,8.627a.4.4,0,0,1-.3.133" transform="translate(-94.583 -24.311)" fill="#225dc7"/>
        <path id="Trazado_1296400" data-name="Trazado 1296400" d="M516.166,118.123h-.006a.409.409,0,0,1-.291-.128l-9.818-10.475a.406.406,0,0,1,.593-.556l9.53,10.167,10.059-10.175a.406.406,0,0,1,.578.571L516.454,118a.4.4,0,0,1-.289.12" transform="translate(-94.156 -19.775)" fill="#225dc7"/>
        <path id="Trazado_1296401" data-name="Trazado 1296401" d="M516.755,93.809l-.043,0a.406.406,0,0,1-.3-.18L508.29,81.366a.407.407,0,0,1,.678-.449l7.855,11.852L527.943,81.9a.407.407,0,1,1,.569.581L517.04,93.693a.41.41,0,0,1-.284.115" transform="translate(-94.583 -14.884)" fill="#225dc7"/>
        <path id="Trazado_1296402" data-name="Trazado 1296402" d="M520.592,70.16a.39.39,0,0,1-.092-.011.407.407,0,0,1-.3-.285l-3.631-12.8a.407.407,0,0,1,.782-.222l3.43,12.1,10.2-11.292a.406.406,0,0,1,.6.544L520.893,70.026a.407.407,0,0,1-.3.134" transform="translate(-96.145 -10.35)" fill="#225dc7"/>
        <path id="Trazado_1296403" data-name="Trazado 1296403" d="M432.128,66.659a15.362,15.362,0,0,1-4.512-12.142c.4-4.615,2.883-8.79,5.708-12.461a19.732,19.732,0,0,1,1.894,19.367,30.911,30.911,0,0,1-3.09,5.235" transform="translate(-79.466 -7.635)" fill="#4582ef"/>
        <path id="Trazado_1296404" data-name="Trazado 1296404" d="M436.812,83.918a10.264,10.264,0,0,1,1.007-7.957c1-1.7,2.47-3.063,3.6-4.678s1.917-3.676,1.29-5.543a10.209,10.209,0,0,1,2.319,7.857,9.566,9.566,0,0,1-4.305,6.645,18.2,18.2,0,0,0-2.387,1.511c-.71.622-1.723,1.244-1.521,2.166" transform="translate(-81.127 -12.074)" fill="#4582ef"/>
        <path id="Trazado_1296405" data-name="Trazado 1296405" d="M443.557,95.357a7.7,7.7,0,0,1,.275-6.844c1.072-1.922,2.907-3.271,4.446-4.842s2.875-3.668,2.506-5.837a11.119,11.119,0,0,1-3.814,14.588c-.714.466-1.483.852-2.148,1.385s-1.135.707-1.264,1.55" transform="translate(-82.338 -14.34)" fill="#4582ef"/>
        <path id="Trazado_1296406" data-name="Trazado 1296406" d="M457.191,105.2a6.548,6.548,0,0,1-1.576-5.59,11.133,11.133,0,0,1,1.952-4.068,25.19,25.19,0,0,0,2.417-3.839,5.967,5.967,0,0,0,.384-4.415,12.034,12.034,0,0,1,1.294,12.48c-1.027,2.058-2.89,3.761-4.473,5.431" transform="translate(-84.702 -16.112)" fill="#4582ef"/>
        <path id="Trazado_1296407" data-name="Trazado 1296407" d="M468.976,110.643a10.121,10.121,0,0,1,1.266-9.27c.881-1.217,2.027-2.223,2.914-3.436a5.148,5.148,0,0,0,1.128-4.21,14.79,14.79,0,0,1,1.213,10.781,6.388,6.388,0,0,1-2,3.457,12.564,12.564,0,0,1-2.28,1.218c-.774.384-1.87.683-2.245,1.46" transform="translate(-87.116 -17.319)" fill="#4582ef"/>
        <path id="Trazado_1296408" data-name="Trazado 1296408" d="M477.782,119.683c-.8-1.838-.132-4.021,1.03-5.656a46.325,46.325,0,0,1,4.128-4.361,7.937,7.937,0,0,0,2.5-5.3A13.943,13.943,0,0,1,486.5,111a9.152,9.152,0,0,1-2.926,5.842,14.916,14.916,0,0,1-5.794,2.843" transform="translate(-88.813 -19.312)" fill="#4582ef"/>
        <path id="Trazado_1296409" data-name="Trazado 1296409" d="M479.862,134.229c.153-1.751,1.521-3.159,2.994-4.118a38.076,38.076,0,0,0,4.462-2.8,8.064,8.064,0,0,0,2.711-5.365,22.969,22.969,0,0,1,.446,5.608,6.705,6.705,0,0,1-6.094,6.738,23.944,23.944,0,0,1-4.519-.067" transform="translate(-89.268 -22.608)" fill="#4582ef"/>
        <path id="Trazado_1296410" data-name="Trazado 1296410" d="M432.466,86a11.646,11.646,0,0,0-9.947-7.175c-1.467-.081-2.937.121-4.406.093a6.685,6.685,0,0,1-4.142-1.251,11.491,11.491,0,0,0,11.943,8.061c1.244-.115,2.467-.439,3.716-.462s2.032-.223,2.836.734" transform="translate(-76.919 -14.308)" fill="#4582ef"/>
        <path id="Trazado_1296411" data-name="Trazado 1296411" d="M439.119,98.612a11.758,11.758,0,0,0-9.091-2.687c-1.431.193-2.816.649-4.244.852a6.046,6.046,0,0,1-4.182-.669,10.889,10.889,0,0,0,7.881,5.873,11.7,11.7,0,0,0,9.636-3.369" transform="translate(-78.349 -17.712)" fill="#4582ef"/>
        <path id="Trazado_1296412" data-name="Trazado 1296412" d="M452.879,109.468a8.83,8.83,0,0,0-5.748-1.4,26.681,26.681,0,0,0-5.88,1.306,25.361,25.361,0,0,1-5.886,1.268,12.717,12.717,0,0,0,8.943,2.863,12.929,12.929,0,0,0,8.571-4.032" transform="translate(-80.929 -20.001)" fill="#4582ef"/>
        <path id="Trazado_1296413" data-name="Trazado 1296413" d="M464.352,114.575a13,13,0,0,0-9.713.826c-2.371,1.217-4.516,3.219-7.178,3.314a11.2,11.2,0,0,0,9.277,1.891,11.759,11.759,0,0,0,7.614-6.031" transform="translate(-83.196 -21.118)" fill="#4582ef"/>
        <path id="Trazado_1296414" data-name="Trazado 1296414" d="M473.65,123.313a10.714,10.714,0,0,0-9.579-1.09c-2.291.868-4.3,2.537-6.722,2.891a11.693,11.693,0,0,0,8.353,2.177,12.37,12.37,0,0,0,7.948-3.978" transform="translate(-85.049 -22.535)" fill="#4582ef"/>
        <path id="Trazado_1296415" data-name="Trazado 1296415" d="M475.876,135.979a9.782,9.782,0,0,0-4.984-3.38,19.464,19.464,0,0,0-7.182-.228l-5.047.466a11.87,11.87,0,0,0,7.767,4.966,12.887,12.887,0,0,0,9.447-1.824" transform="translate(-85.295 -24.52)" fill="#4582ef"/>
        <path id="Trazado_1296416" data-name="Trazado 1296416" d="M470.559,128.031c-.276-.016-.544-.033-.813-.041.715-5.834.683-10.458-.106-13.985a14.14,14.14,0,0,0-1.715-4.42,15.314,15.314,0,0,0-2.763-3.234,28.086,28.086,0,0,0-6.98-4.339c-1.105-.512-2.251-1.008-3.356-1.479-.707-.3-1.422-.609-2.137-.918a39.527,39.527,0,0,1-6.029-3.177,30.01,30.01,0,0,1-10.149-12.319,40.193,40.193,0,0,1-2.373-6.363c-2.023-7.216-2.324-14.8-2.462-22.582a.408.408,0,0,1,.4-.414.376.376,0,0,1,.414.4c.138,7.728.431,15.26,2.438,22.379A38.808,38.808,0,0,0,437.91,85.1a28.434,28.434,0,0,0,9.207,10.661,33.33,33.33,0,0,0,4.518,2.478c1.162.544,2.348,1.048,3.51,1.544,1.113.479,2.267.967,3.38,1.487a31.841,31.841,0,0,1,5.737,3.307,16.853,16.853,0,0,1,4.355,4.575,16.543,16.543,0,0,1,2.153,6.525,48.776,48.776,0,0,1-.211,12.351" transform="translate(-80.238 -10.016)" fill="#225dc7"/>
        <path id="Trazado_1296417" data-name="Trazado 1296417" d="M434.93,86.143a.4.4,0,0,1-.13-.021l-6.465-2.181a.407.407,0,1,1,.26-.77l6.145,2.073,2.61-4.693a.406.406,0,1,1,.709.395l-2.775,4.989a.4.4,0,0,1-.354.209" transform="translate(-79.559 -14.81)" fill="#225dc7"/>
        <path id="Trazado_1296418" data-name="Trazado 1296418" d="M442.31,98.586h-5.672a.406.406,0,0,1,0-.813h5.382l1.574-4.6a.406.406,0,1,1,.768.263l-1.667,4.875a.406.406,0,0,1-.384.275" transform="translate(-81.091 -17.164)" fill="#225dc7"/>
        <path id="Trazado_1296419" data-name="Trazado 1296419" d="M452.372,109.939a.406.406,0,0,1-.129-.791l3.922-1.307.713-4.464a.4.4,0,0,1,.466-.337.406.406,0,0,1,.337.465l-.752,4.708a.407.407,0,0,1-.273.322l-4.156,1.385a.393.393,0,0,1-.128.021" transform="translate(-84.04 -19.063)" fill="#225dc7"/>
        <path id="Trazado_1296420" data-name="Trazado 1296420" d="M461.541,115.488a.406.406,0,0,1-.1-.8l5.76-1.444,1.8-4.614a.406.406,0,1,1,.757.3l-1.88,4.809a.408.408,0,0,1-.28.246l-5.964,1.5a.418.418,0,0,1-.1.012" transform="translate(-85.758 -20.063)" fill="#225dc7"/>
        <path id="Trazado_1296421" data-name="Trazado 1296421" d="M471.68,123.48a.406.406,0,0,1-.046-.81l4.557-.515,2.482-4.2a.407.407,0,0,1,.7.414l-2.586,4.372a.411.411,0,0,1-.3.2l-4.757.538-.047,0" transform="translate(-87.659 -21.823)" fill="#225dc7"/>
        <path id="Trazado_1296422" data-name="Trazado 1296422" d="M478.748,136.8a.37.37,0,0,1-.073-.007l-4.423-.805a.406.406,0,1,1,.145-.8l4.29.78,4.8-2.427a.406.406,0,0,1,.366.726l-4.927,2.488a.4.4,0,0,1-.183.044" transform="translate(-88.154 -24.773)" fill="#225dc7"/>
        <path id="Trazado_1296423" data-name="Trazado 1296423" d="M596.865,133.212c-1.845.293-3.909.561-6.168.8,1.69-35.754,50.486-48.7,53.639-35.185,4.047,17.422-40.963,11.23-47.471,34.381" transform="translate(-110.04 -17.294)" fill="#00bcad"/>
        <path id="Trazado_1296424" data-name="Trazado 1296424" d="M631.591,104.206c-7.313,2.145-16.682,5.4-24.3,11.522-6.736,5.42-11.1,12.457-12.311,19.689-.276.041-.552.073-.837.106,1.186-7.516,5.68-14.83,12.636-20.428,7.728-6.216,17.194-9.5,24.581-11.669a.407.407,0,0,1,.5.276.4.4,0,0,1-.276.5" transform="translate(-110.687 -19.133)" fill="#008c81"/>
        <path id="Trazado_1296425" data-name="Trazado 1296425" d="M587.274,129.892c-1.723.171-3.551.333-5.461.479C573.6,83.729,599.7,64.731,609.864,72.418c13.359,10.092-24.337,27.5-22.59,57.474" transform="translate(-108.08 -13.014)" fill="#00bcad"/>
        <path id="Trazado_1296426" data-name="Trazado 1296426" d="M599.151,88.149a63.643,63.643,0,0,0-13.1,45.074l-.8.073a64.39,64.39,0,0,1,13.27-45.651.4.4,0,0,1,.634.5" transform="translate(-108.963 -16.151)" fill="#008c81"/>
        <path id="Trazado_1296427" data-name="Trazado 1296427" d="M561.532,152.871a9.3,9.3,0,0,1,5.978-11.83,10.425,10.425,0,0,1-.93,7.161,9.49,9.49,0,0,1-5.048,4.67" transform="translate(-104.484 -26.186)" fill="#ac74e8"/>
        <path id="Trazado_1296428" data-name="Trazado 1296428" d="M566.839,159.285a9.754,9.754,0,0,1,9.744-10.371,10.266,10.266,0,0,1-2.859,7.325,9.443,9.443,0,0,1-6.885,3.046" transform="translate(-105.565 -27.662)" fill="#ac74e8"/>
        <path id="Trazado_1296429" data-name="Trazado 1296429" d="M569.232,168.534a10.392,10.392,0,0,0,11.5-8.728,9.306,9.306,0,0,0-8.368,3.156,19.574,19.574,0,0,0-3.133,5.572" transform="translate(-106.017 -29.683)" fill="#ac74e8"/>
        <path id="Trazado_1296430" data-name="Trazado 1296430" d="M569.838,180.281a13.458,13.458,0,0,0,12.2-9.346,11.072,11.072,0,0,0-7.862,2.127,11.81,11.81,0,0,0-4.334,7.219" transform="translate(-106.131 -31.777)" fill="#ac74e8"/>
        <path id="Trazado_1296431" data-name="Trazado 1296431" d="M581.054,196.18a8.953,8.953,0,0,1-3.1-5.943,12.058,12.058,0,0,1,1.31-6.654,18.572,18.572,0,0,1,4.231-5.37,12.706,12.706,0,0,1,2.733,9.385,13.33,13.33,0,0,1-5.171,8.583" transform="translate(-107.64 -33.153)" fill="#ac74e8"/>
        <path id="Trazado_1296432" data-name="Trazado 1296432" d="M584.981,170.892a11.218,11.218,0,0,0,4.086,7.1,8.944,8.944,0,0,0,7.919,1.552,11.447,11.447,0,0,0-4.294-6.6,11.752,11.752,0,0,0-7.711-2.051" transform="translate(-108.969 -31.773)" fill="#ac74e8"/>
        <path id="Trazado_1296433" data-name="Trazado 1296433" d="M583.4,159.332a8.064,8.064,0,0,1,7.4-1.371,9.434,9.434,0,0,1,5.657,5.093,10.467,10.467,0,0,1-7.217.7,10.672,10.672,0,0,1-5.839-4.425" transform="translate(-108.673 -29.29)" fill="#ac74e8"/>
        <path id="Trazado_1296434" data-name="Trazado 1296434" d="M578.862,148.044a8.82,8.82,0,0,1,6.172-2.9,7.654,7.654,0,0,1,6.146,2.8,6.365,6.365,0,0,1-2.09,1.633,8.049,8.049,0,0,1-5.216.473,19.85,19.85,0,0,1-5.011-2.013" transform="translate(-107.822 -26.955)" fill="#ac74e8"/>
        <path id="Trazado_1296435" data-name="Trazado 1296435" d="M569.118,139.43a8.706,8.706,0,0,1,10.18-6.007,6.724,6.724,0,0,1-2.739,4.036,9.909,9.909,0,0,1-7.441,1.971" transform="translate(-105.996 -24.722)" fill="#ac74e8"/>
        <path id="Trazado_1296436" data-name="Trazado 1296436" d="M577.022,185.427a.408.408,0,0,1-.4.309.4.4,0,0,1-.1-.008.408.408,0,0,1-.3-.488,72.432,72.432,0,0,0,1.82-22.866,36.225,36.225,0,0,0-2.422-11.287,19.444,19.444,0,0,0-5.233-7.395,15.367,15.367,0,0,0-1.877-1.357,12.328,12.328,0,0,0-10.864-1.162,10.155,10.155,0,0,0-4.169,3.226c-.341.016-.683.024-1.024.033a11.063,11.063,0,0,1,4.884-4.014,13.175,13.175,0,0,1,11.6,1.219,16.6,16.6,0,0,1,2.6,1.983,21.014,21.014,0,0,1,4.835,7.151,37.133,37.133,0,0,1,2.478,11.539,73.286,73.286,0,0,1-1.836,23.118" transform="translate(-102.873 -25.913)" fill="#864ac4"/>
        <path id="Trazado_1296437" data-name="Trazado 1296437" d="M566.625,144.943a.414.414,0,0,1-.181-.042.407.407,0,0,1-.182-.545l1.988-3.991a.409.409,0,0,1,.2-.193l3.47-1.48a.406.406,0,1,1,.319.748l-3.332,1.421-1.922,3.857a.405.405,0,0,1-.363.225" transform="translate(-105.453 -25.74)" fill="#864ac4"/>
        <path id="Trazado_1296438" data-name="Trazado 1296438" d="M574.563,152.116a.406.406,0,0,1-.265-.714l3.489-3a.405.405,0,0,1,.228-.1l4.7-.42a.406.406,0,0,1,.073.809l-4.567.409-3.389,2.918a.406.406,0,0,1-.265.1" transform="translate(-106.94 -27.468)" fill="#864ac4"/>
        <path id="Trazado_1296439" data-name="Trazado 1296439" d="M577.312,163.321a.406.406,0,0,1-.228-.742l4.823-3.289a.41.41,0,0,1,.324-.059l3.958.956a.406.406,0,1,1-.191.789l-3.783-.913-4.676,3.186a.4.4,0,0,1-.228.071" transform="translate(-107.455 -29.593)" fill="#864ac4"/>
        <path id="Trazado_1296440" data-name="Trazado 1296440" d="M578.959,173.8a.406.406,0,0,1-.218-.749l4.536-2.879a.409.409,0,0,1,.463.02l3.8,2.879a.406.406,0,0,1-.491.647l-3.575-2.708-4.3,2.727a.41.41,0,0,1-.218.063" transform="translate(-107.764 -31.633)" fill="#864ac4"/>
        <path id="Trazado_1296441" data-name="Trazado 1296441" d="M541.243,146.58c-2.476-.163-11.021,3.493-9.55,6.236s8.966-2.3,9.55-6.236" transform="translate(-98.95 -27.223)" fill="#ac74e8"/>
        <path id="Trazado_1296442" data-name="Trazado 1296442" d="M543.59,157.589c-2.742-.49-11.327,3.762-9.658,6.545s8.9-2.239,9.658-6.545" transform="translate(-99.362 -29.28)" fill="#ac74e8"/>
        <path id="Trazado_1296443" data-name="Trazado 1296443" d="M544.157,167.973c-2.877-.461-11.264,4.785-10.151,7.13s8.974-1.423,10.151-7.13" transform="translate(-99.397 -31.228)" fill="#ac74e8"/>
        <path id="Trazado_1296444" data-name="Trazado 1296444" d="M544.854,179.675c-3.3,2.993-6.2,9.034-3.02,10.942s5.235-6.188,3.02-10.942" transform="translate(-100.625 -33.427)" fill="#ac74e8"/>
        <path id="Trazado_1296445" data-name="Trazado 1296445" d="M546.522,167.962c3.959-.7,10.278,3.553,8.45,6.454s-7.639-2.814-8.45-6.454" transform="translate(-101.761 -31.217)" fill="#ac74e8"/>
        <path id="Trazado_1296446" data-name="Trazado 1296446" d="M545.867,157.459c2.663-1.961,11.327,1.219,9.976,4.518s-8.863-1.763-9.976-4.518" transform="translate(-101.638 -29.15)" fill="#ac74e8"/>
        <path id="Trazado_1296447" data-name="Trazado 1296447" d="M543.485,146.493c3.8-1.355,11.078,1.149,9.567,3.852s-7.394-.761-9.567-3.852" transform="translate(-101.192 -27.137)" fill="#ac74e8"/>
        <path id="Trazado_1296448" data-name="Trazado 1296448" d="M541.943,179.292a.407.407,0,0,1-.4.325.277.277,0,0,1-.081-.008.409.409,0,0,1-.309-.488,75.471,75.471,0,0,0,.544-28.8,17.469,17.469,0,0,0-1.715-5.6,8.963,8.963,0,0,0-.78-1.2c-1.365-1.739-3.909-3.055-6.159-2.21a5.759,5.759,0,0,0-3.039,3.177c-.049.114-.089.219-.138.333h-.861c.081-.228.162-.439.26-.658a6.479,6.479,0,0,1,3.494-3.616c2.608-.983,5.542.5,7.078,2.478a10.637,10.637,0,0,1,1.056,1.682,20.158,20.158,0,0,1,1.609,5.477,76.264,76.264,0,0,1-.561,29.107" transform="translate(-98.479 -26.035)" fill="#864ac4"/>
        <path id="Trazado_1296449" data-name="Trazado 1296449" d="M539.415,149.354a.407.407,0,0,1-.246-.73l3.232-2.461a.405.405,0,0,1,.393-.055l3.181,1.23a.406.406,0,1,1-.293.757l-2.969-1.147-3.05,2.322a.4.4,0,0,1-.246.083" transform="translate(-100.353 -27.131)" fill="#864ac4"/>
        <path id="Trazado_1296450" data-name="Trazado 1296450" d="M542.023,160.507a.406.406,0,0,1-.263-.714l3.047-2.6a.4.4,0,0,1,.4-.074l4.214,1.485a.406.406,0,0,1-.27.766l-3.993-1.407-2.87,2.444a.4.4,0,0,1-.263.1" transform="translate(-100.842 -29.195)" fill="#864ac4"/>
        <path id="Trazado_1296451" data-name="Trazado 1296451" d="M542.708,171.118a.4.4,0,0,1-.3-.129.406.406,0,0,1,.019-.574l3.023-2.825a.4.4,0,0,1,.542-.011l3.045,2.612a.406.406,0,1,1-.528.617l-2.769-2.376-2.756,2.576a.4.4,0,0,1-.278.11" transform="translate(-100.97 -31.141)" fill="#864ac4"/>
        <path id="Trazado_1296452" data-name="Trazado 1296452" d="M442.786,137.924l-.911-.1a34.756,34.756,0,0,0-46.472-18.86.417.417,0,0,1-.544-.2.4.4,0,0,1,.212-.536,35.569,35.569,0,0,1,47.715,19.7" transform="translate(-73.331 -21.339)" fill="#008c81"/>
        <path id="Trazado_1296453" data-name="Trazado 1296453" d="M404.537,112.06c1.642-.132,7.684-.429,8.293,2.925s-4.32,5.951-6.757,6.3-4.107-6.889-1.536-9.221" transform="translate(-74.909 -20.741)" fill="#008c81"/>
        <path id="Trazado_1296454" data-name="Trazado 1296454" d="M441.833,125.289s1.012-10.308-3.241-10.309,3.241,10.309,3.241,10.309" transform="translate(-81.289 -21.302)" fill="#008c81"/>
        <path id="Trazado_1296455" data-name="Trazado 1296455" d="M438.641,127.175S423.2,138.766,420.5,129.843s18.146-2.668,18.146-2.668" transform="translate(-78.097 -23.188)" fill="#008c81"/>
        <path id="Trazado_1296456" data-name="Trazado 1296456" d="M397.209,119.283a30.059,30.059,0,0,1-19.754,12.78" transform="translate(-70.076 -22.108)" fill="none" stroke="#008c81" stroke-linecap="round" stroke-linejoin="round" stroke-width="1"/>
        <path id="Trazado_1296457" data-name="Trazado 1296457" d="M375.06,132.835a3.107,3.107,0,1,1-.934,4.293,3.107,3.107,0,0,1,.934-4.293" transform="translate(-69.359 -24.556)" fill="#00bcad"/>
        <path id="Trazado_1296458" data-name="Trazado 1296458" d="M374.624,135.7c.348-.223,1,.172,1.458.883s.545,1.47.2,1.693-1-.172-1.458-.883-.545-1.47-.2-1.693" transform="translate(-69.505 -25.173)" fill="#008c81"/>
        <path id="Trazado_1296459" data-name="Trazado 1296459" d="M397.284,114.979a30.908,30.908,0,0,0-21.127,9.947" transform="translate(-69.832 -21.302)" fill="none" stroke="#008c81" stroke-linecap="round" stroke-linejoin="round" stroke-width="1"/>
        <path id="Trazado_1296460" data-name="Trazado 1296460" d="M373.554,123.816a3.107,3.107,0,1,1-.934,4.293,3.107,3.107,0,0,1,.934-4.293" transform="translate(-69.077 -22.866)" fill="#00bcad"/>
        <path id="Trazado_1296461" data-name="Trazado 1296461" d="M373.118,126.68c.348-.223,1,.172,1.458.883s.545,1.471.2,1.694-1-.172-1.458-.883-.545-1.47-.2-1.694" transform="translate(-69.223 -23.483)" fill="#008c81"/>
        <path id="Trazado_1296462" data-name="Trazado 1296462" d="M402.067,113.891c.85,7.583-.91,17.23-16.824,23.074-1.62-7.112-.882-16.515,6.454-20.281-8.354,0-13.424-3.448-15.748-8.518,12.6-4.363,21.124-1.831,26.118,5.725" transform="translate(-69.793 -19.625)" fill="#00bcad"/>
        <path id="Trazado_1296463" data-name="Trazado 1296463" d="M394.735,118.843a30.987,30.987,0,0,1,10.743-2.519" transform="translate(-73.314 -21.554)" fill="none" stroke="#008c81" stroke-linecap="round" stroke-linejoin="round" stroke-width="1"/>
      </g>
    </g>
  </g>
</svg>
