<svg xmlns="http://www.w3.org/2000/svg" xmlns:xlink="http://www.w3.org/1999/xlink" width="295" height="321" viewBox="0 0 295 321">
  <defs>
    <clipPath id="clip-path">
      <rect id="Rectángulo_410745" data-name="Rectángulo 410745" width="295" height="321" fill="none"/>
    </clipPath>
  </defs>
  <g id="Grupo_1187775" data-name="Grupo 1187775" transform="translate(0 0.003)">
    <g id="Grupo_1187774" data-name="Grupo 1187774" transform="translate(0 -0.003)" clip-path="url(#clip-path)">
      <path id="Trazado_1296464" data-name="Trazado 1296464" d="M196.31,460.966c7.279,10.4,41.631,56.54,44.571,65.063S229.4,546.385,218.252,535.1c-11.57-11.708-44.828-50.01-46.764-55.317s18.855-22.968,24.822-18.819" transform="translate(-118.494 -319.501)" fill="#d5693c"/>
      <path id="Trazado_1296465" data-name="Trazado 1296465" d="M348.571,646.274c21.775,0,68.613-13.836,73.38-17.755s.59-16.814-9.241-13.481c-25.5,8.646-59.48-7.744-72.028,10.227-6.381,9.138,7.889,21.009,7.889,21.009" transform="translate(-234.442 -426.492)" fill="#d5693c"/>
      <path id="Trazado_1296466" data-name="Trazado 1296466" d="M350.113,629.213c-3.477.882-9.46,4.8-8.928,10.593" transform="translate(-235.903 -436.708)" fill="none" stroke="#b14314" stroke-linecap="round" stroke-linejoin="round" stroke-width="3"/>
      <path id="Trazado_1296467" data-name="Trazado 1296467" d="M184.19,500.1c-5.364-9.108-26.6-28.966-26.6-38.885A18.976,18.976,0,0,1,167.627,444c5.785-2.988,17.819-2.839,23.964,4.51,5.355,6.4,19.847,28.433,19.847,28.433Z" transform="translate(-108.975 -306.891)" fill="#00bcad"/>
      <path id="Trazado_1296468" data-name="Trazado 1296468" d="M716.843,863.272l17.022-9.705,22.814,43.226-13.961,5.533Z" transform="translate(-495.69 -592.422)" fill="#d5693c"/>
      <path id="Trazado_1296469" data-name="Trazado 1296469" d="M760.331,982.548h60.42c0-6.2-3-8.869-8.691-10.51s-20.8-6.258-23.589-10.773c1.751-4.1,1.138-9.054-3.828-7.3a9.772,9.772,0,0,0-6.311,6.989c-.311,1.026-2.483,4.309-6.1,4.309-7.139,0-7.224-8.019-8.929-7.818-3.357.4-2.969,15.5-2.969,25.1" transform="translate(-525.752 -661.854)" fill="#4582ef"/>
      <line id="Línea_751" data-name="Línea 751" x1="59.996" transform="translate(234.565 317.065)" fill="none" stroke="#225dc7" stroke-linecap="round" stroke-linejoin="round" stroke-width="2"/>
      <path id="Trazado_1296470" data-name="Trazado 1296470" d="M761.073,1000.907c6.052,0,12.012,3.085,12.012,10.843" transform="translate(-526.274 -694.685)" fill="none" stroke="#d1c6be" stroke-linecap="round" stroke-linejoin="round" stroke-width="3"/>
      <path id="Trazado_1296471" data-name="Trazado 1296471" d="M842.5,982.077a15.173,15.173,0,0,0-5.584,4.943" transform="translate(-578.719 -681.616)" fill="none" stroke="#225dc7" stroke-linecap="round" stroke-linejoin="round" stroke-width="2"/>
      <path id="Trazado_1296472" data-name="Trazado 1296472" d="M856.948,991.153a13.516,13.516,0,0,0-5.03,4.765" transform="translate(-589.092 -687.915)" fill="none" stroke="#225dc7" stroke-linecap="round" stroke-linejoin="round" stroke-width="2"/>
      <path id="Trazado_1296473" data-name="Trazado 1296473" d="M873.146,997.943a29.569,29.569,0,0,0-4.159,4.588" transform="translate(-600.896 -692.628)" fill="none" stroke="#225dc7" stroke-linecap="round" stroke-linejoin="round" stroke-width="2"/>
      <path id="Trazado_1296474" data-name="Trazado 1296474" d="M332.351,697.49l-26.859,16.025-52.583-61.85c-17.983,25.28-62.875,87.2-108.23,87.2-29.473,0-36.314-41.387-37.681-54.028l.068-.009A129.675,129.675,0,0,0,128.416,682s.006,0,.012,0c5.951-5.225,29.944-21.63,54.687-38.078,29.2-19.412,59.447-38.886,62.282-40.106,5.235-2.258,12.748-1.808,20.942,3.16s66.012,90.52,66.012,90.52" transform="translate(-73.989 -418.173)" fill="#051a38"/>
      <path id="Trazado_1296475" data-name="Trazado 1296475" d="M606.88,605.409c1.622-.868,2.5,1.239,2.2,2.74s-3.938,8.1-4.911,8.848-2.563-.216-1.844-2.067,2.707-6.841,2.707-6.841-4.045,5.417-5.156,6.105-2.413-.246-2.161-1.088,3.323-6.267,3.323-6.267-3.735,4.472-4.571,4.9-1.987-.921-1.057-2.5,4.292-8.2,4.292-8.2-4.851,5.222-5.974,6.005-2.467-.592-1.79-2.109,5.037-9.076,6.467-9.967,3.906,1.2,3.355,2.881c1.515-.784,3.871,1.878,3.182,3.49,1.551-.683,3.041,1.874,1.938,4.065" transform="translate(-409.193 -412.796)" fill="#d5693c"/>
      <path id="Trazado_1296476" data-name="Trazado 1296476" d="M625.748,616.281c-1.5,2.24-3.9,5.5-3.9,5.5" transform="translate(-429.999 -427.733)" fill="none" stroke="#b14314" stroke-linecap="round" stroke-linejoin="round" stroke-width="3"/>
      <line id="Línea_752" data-name="Línea 752" x1="1.966" y2="2.978" transform="translate(195.722 192.613)" fill="none" stroke="#b14314" stroke-linecap="round" stroke-linejoin="round" stroke-width="3"/>
      <line id="Línea_753" data-name="Línea 753" x1="2.347" y2="3.499" transform="translate(190.221 185.058)" fill="none" stroke="#b14314" stroke-linecap="round" stroke-linejoin="round" stroke-width="3"/>
      <path id="Trazado_1296477" data-name="Trazado 1296477" d="M53.018,391.807c12.17-3.249,23.055,8.2,26.951,12.015s5.826,31.525,4.005,38.748-7.688,23.676-7.486,30.9,8.2,41.132,8.2,41.132C53.22,532.056,11.743,539.28,1.222,538.076-2.42,511.992.829,433.541,28.334,404.648c7.759-8.151,19.424-11.436,24.684-12.841" transform="translate(0 -271.538)" fill="#00bcad"/>
      <path id="Trazado_1296478" data-name="Trazado 1296478" d="M254.132,460.408c1.976,9.354,2.606,24.861,1.267,30.172-1.821,7.223-7.689,23.676-7.486,30.9" transform="translate(-171.425 -319.548)" fill="none" stroke="#008c81" stroke-linecap="round" stroke-linejoin="round" stroke-width="2"/>
      <path id="Trazado_1296479" data-name="Trazado 1296479" d="M143.306,491.859c-11.277,23.5-20.927,66.855-12.811,104.715" transform="translate(-88.154 -341.377)" fill="none" stroke="#008c81" stroke-linecap="round" stroke-linejoin="round" stroke-width="2"/>
      <path id="Trazado_1296480" data-name="Trazado 1296480" d="M87.466,786.524c-12.05,7.642-61.233,22.094-79.729,22.094" transform="translate(-5.35 -545.891)" fill="none" stroke="#008c81" stroke-linecap="round" stroke-linejoin="round" stroke-width="2"/>
      <path id="Trazado_1296481" data-name="Trazado 1296481" d="M624.952,863.272l17.022-9.705,22.814,43.226-13.961,5.533Z" transform="translate(-432.148 -592.422)" fill="#d5693c"/>
      <path id="Trazado_1296482" data-name="Trazado 1296482" d="M668.44,982.548h60.42c0-6.2-3-8.869-8.691-10.51s-20.8-6.258-23.589-10.773c1.751-4.1,1.138-9.054-3.828-7.3a9.772,9.772,0,0,0-6.311,6.989c-.311,1.026-2.483,4.309-6.1,4.309-7.139,0-7.224-8.019-8.929-7.818-3.357.4-2.969,15.5-2.969,25.1" transform="translate(-462.21 -661.854)" fill="#4582ef"/>
      <path id="Trazado_1296483" data-name="Trazado 1296483" d="M791.966,999.928c0-6.2-3-8.869-8.691-10.51s-20.8-6.258-23.589-10.773" transform="translate(-525.315 -679.234)" fill="none" stroke="#225dc7" stroke-linecap="round" stroke-linejoin="round" stroke-width="2"/>
      <line id="Línea_754" data-name="Línea 754" x1="59.996" transform="translate(206.216 317.065)" fill="none" stroke="#225dc7" stroke-linecap="round" stroke-linejoin="round" stroke-width="2"/>
      <path id="Trazado_1296484" data-name="Trazado 1296484" d="M669.182,1000.907c6.052,0,12.011,3.085,12.011,10.843" transform="translate(-462.732 -694.685)" fill="none" stroke="#225dc7" stroke-linecap="round" stroke-linejoin="round" stroke-width="2"/>
      <path id="Trazado_1296485" data-name="Trazado 1296485" d="M750.5,982.38a14.617,14.617,0,0,0-5.479,4.85" transform="translate(-515.177 -681.826)" fill="none" stroke="#225dc7" stroke-linecap="round" stroke-linejoin="round" stroke-width="2"/>
      <path id="Trazado_1296486" data-name="Trazado 1296486" d="M764.976,991.4a13.091,13.091,0,0,0-4.949,4.688" transform="translate(-525.551 -688.089)" fill="none" stroke="#225dc7" stroke-linecap="round" stroke-linejoin="round" stroke-width="2"/>
      <path id="Trazado_1296487" data-name="Trazado 1296487" d="M781.174,998.231a28.473,28.473,0,0,0-4.079,4.5" transform="translate(-537.353 -692.828)" fill="none" stroke="#225dc7" stroke-linecap="round" stroke-linejoin="round" stroke-width="2"/>
      <path id="Trazado_1296488" data-name="Trazado 1296488" d="M240.46,697.49,213.6,713.516l-52.583-61.85c-17.983,25.28-62.875,87.2-108.23,87.2-29.473,0-36.314-41.387-37.681-54.028l.068-.009A129.675,129.675,0,0,0,36.525,682s.006,0,.012,0c5.951-5.225,29.944-21.63,54.687-38.078,29.2-19.412,59.447-38.886,62.282-40.106,5.235-2.258,12.748-1.808,20.942,3.16s66.012,90.52,66.012,90.52" transform="translate(-10.447 -418.173)" fill="#09254d"/>
      <path id="Trazado_1296489" data-name="Trazado 1296489" d="M256.449,796.477,205.907,736.14l1.449-8.939-5.956,7.5-5.794-5.747,1.771,8.62c-15.613,16.76-81.661,77.736-101.084,72.628s-23.107-22.143-23.107-22.143" transform="translate(-50.607 -504.718)" fill="none" stroke="#244980" stroke-linecap="round" stroke-linejoin="round" stroke-width="2"/>
      <path id="Trazado_1296490" data-name="Trazado 1296490" d="M70.391,862.325a14.656,14.656,0,0,1-6.308,21.232" transform="translate(-44.313 -598.501)" fill="none" stroke="#244980" stroke-linecap="round" stroke-linejoin="round" stroke-width="2"/>
      <path id="Trazado_1296491" data-name="Trazado 1296491" d="M169.424,467.206c4.99,11.652,18.722,66.563,19.849,75.5s-17.05,18.516-24.018,4.31-23.194-60.816-24-66.4,23.178-18.676,28.168-13.408" transform="translate(-97.663 -323.416)" fill="#d5693c"/>
      <path id="Trazado_1296492" data-name="Trazado 1296492" d="M249.376,667.837c10.275-2.209,61.943-19.449,67.416-22.322s3.544-18.427-6.278-15.066c-23.5,8.042-58.107,6.127-64.546,15.225s3.407,22.162,3.407,22.162" transform="translate(-168.575 -437.239)" fill="#d5693c"/>
      <path id="Trazado_1296493" data-name="Trazado 1296493" d="M257.565,663.573c-4.837.871-11.95,3.684-12.619,9.46" transform="translate(-169.378 -460.556)" fill="none" stroke="#b14314" stroke-linecap="round" stroke-linejoin="round" stroke-width="3"/>
      <path id="Trazado_1296494" data-name="Trazado 1296494" d="M310.012,609.582c-13.1,2.241-26.679,3.247-36.009,5.54-1.5-6.365-3.345-13.847-5.285-21.358" transform="translate(-185.815 -412.105)" fill="none" stroke="#b14314" stroke-linecap="round" stroke-linejoin="round" stroke-width="3"/>
      <path id="Trazado_1296495" data-name="Trazado 1296495" d="M464.734,612.625c5.392-1.357,20.094-8.693,22.682-12.088s-.389-5.71-1.516-5.071c1.368-3.272-1.448-5.906-3.058-4.868.885-2.873-2.817-5.587-4.346-4.469.241-1.756-2.414-4.39-4.265-3.272s-12.636,8.816-15.775,14.7,4.833,15.429,6.278,15.066" transform="translate(-316.515 -404.348)" fill="#d5693c"/>
      <path id="Trazado_1296496" data-name="Trazado 1296496" d="M460.083,588.431c0-3.929,2.334-13.108,4.99-15.422s6.6-4.469,7.645-3.192-3.476,4.709-3.347,5.906,3.106,8.349.37,12.236-9.658.473-9.658.473" transform="translate(-318.143 -395.219)" fill="#d5693c"/>
      <path id="Trazado_1296497" data-name="Trazado 1296497" d="M479.12,596.63a79.122,79.122,0,0,0-6.32,5.559" transform="translate(-326.936 -414.094)" fill="none" stroke="#b14314" stroke-linecap="round" stroke-linejoin="round" stroke-width="3"/>
      <path id="Trazado_1296498" data-name="Trazado 1296498" d="M142.738,499.169c-3.38-10-12.072-34.286-11.428-42.256s7.082-13.078,13.36-14.833,19.155.319,22.535,9.258,9.257,35.756,9.257,35.756Z" transform="translate(-90.776 -306.43)" fill="#00bcad"/>
      <path id="Trazado_1296499" data-name="Trazado 1296499" d="M247.735,473.636c3.38,8.939,9.257,35.755,9.257,35.755l-2.784,1" transform="translate(-171.306 -328.729)" fill="none" stroke="#008c81" stroke-linecap="round" stroke-linejoin="round" stroke-width="2"/>
      <path id="Trazado_1296500" data-name="Trazado 1296500" d="M145.679,533.063l-2.939,1.053c-3.38-10-12.072-34.287-11.428-42.256" transform="translate(-90.777 -341.377)" fill="none" stroke="#008c81" stroke-linecap="round" stroke-linejoin="round" stroke-width="2"/>
      <line id="Línea_755" data-name="Línea 755" x1="34.548" y2="11.831" transform="translate(50.135 175.554)" fill="none" stroke="#008c81" stroke-linecap="round" stroke-linejoin="round" stroke-width="2"/>
      <path id="Trazado_1296501" data-name="Trazado 1296501" d="M234.95,218.51c4.338-1.556,12.318-7.261,8.743-12.636,4.872-6.619,4.739-18-4.338-14.694,5.139-11.583-28.165-23.827-44.15-5.494-6.708-1.919-10.646,2.044-9.845,10.454s4.138,29.524,6.207,30.98,43.383-8.61,43.383-8.61" transform="translate(-128.103 -122.37)" fill="#09254d"/>
      <path id="Trazado_1296502" data-name="Trazado 1296502" d="M187.9,312.588l-12.365,24.377c16.077,20.676,28.934,24.535,25.814,12.272l2.838-12.285Z" transform="translate(-121.381 -216.953)" fill="#d5693c"/>
      <path id="Trazado_1296503" data-name="Trazado 1296503" d="M232.208,375.5c-9.65-3.526-12.908-16.033-13.015-20.894l11.174,5.521,4.009,5.988Z" transform="translate(-151.57 -246.114)" fill="#b14314"/>
      <path id="Trazado_1296504" data-name="Trazado 1296504" d="M207.057,228.908c-5.056-8.1-7.324-25.228,7.748-34.237s36.126,6.883,36.4,18.844c.274,12.048-9.05,36.707-15.852,43.572-7.553,7.624-23.936,1.563-27.189-15.324Z" transform="translate(-140.537 -133.273)" fill="#d5693c"/>
      <path id="Trazado_1296505" data-name="Trazado 1296505" d="M204.591,224.853c3.4,2.467,6.674,1.15,7.542-.773s1.669-12.712,7.342-15.425c4.272,10.921,14.489,10.656,13.518,2.449,5.237,9.928,13.98,11.517,12.378-.463,1.4,5.295,3.938,5.229,3.938,5.229v-8.737L241.9,196.94l-11.613-6.354L219.474,189l-9.878,4.3-7.542,8.737-2.4,10.524s.613,9.1.607,8.85a54.153,54.153,0,0,1,4.332,3.443" transform="translate(-138.057 -131.174)" fill="#09254d"/>
      <path id="Trazado_1296506" data-name="Trazado 1296506" d="M201.522,279.073c1.549-8.712-7.013-10.994-9.9-7.534s-3.789,14.264,5.1,15.489c2.173.3,4.317-5.188,4.809-7.955" transform="translate(-131.108 -187.39)" fill="#d5693c"/>
      <path id="Trazado_1296507" data-name="Trazado 1296507" d="M205.842,290.1c2.231-3.4,2.606-10.756-3.422-10.641" transform="translate(-139.971 -193.955)" fill="none" stroke="#b14314" stroke-linecap="round" stroke-linejoin="round" stroke-width="3"/>
      <path id="Trazado_1296508" data-name="Trazado 1296508" d="M206.52,299.39a3.773,3.773,0,0,0-4.9-1.9" transform="translate(-139.418 -206.264)" fill="none" stroke="#b14314" stroke-linecap="round" stroke-linejoin="round" stroke-width="3"/>
      <path id="Trazado_1296509" data-name="Trazado 1296509" d="M289.06,308.8c-1.93,1.043-3.045,4.2-3.239,4.78s1.448,5.491.687,6.54-4.286,1.2-5.774-1.065" transform="translate(-194.125 -214.326)" fill="none" stroke="#b14314" stroke-linecap="round" stroke-linejoin="round" stroke-width="3"/>
      <path id="Trazado_1296510" data-name="Trazado 1296510" d="M263.561,309.218a2.271,2.271,0,0,1-2.692,1.682,2.245,2.245,0,0,1-1.159-2.939,2.272,2.272,0,0,1,2.692-1.682,2.245,2.245,0,0,1,1.159,2.939" transform="translate(-179.484 -212.516)" fill="#09254d"/>
      <path id="Trazado_1296511" data-name="Trazado 1296511" d="M261.6,309.49a3.711,3.711,0,0,0-2.557-3.395c-1.367-.446-3.66.034-4.339,1.144" transform="translate(-176.125 -212.332)" fill="none" stroke="#2c2f37" stroke-linecap="round" stroke-linejoin="round" stroke-width="2.287"/>
      <path id="Trazado_1296512" data-name="Trazado 1296512" d="M257.467,282.151c-.4.788,3.091-.289,5.182.36s3.876,2.221,4.38,1.429-1.339-3.953-4.267-4.465a5.335,5.335,0,0,0-5.294,2.676" transform="translate(-178.014 -193.921)" fill="#09254d"/>
      <path id="Trazado_1296513" data-name="Trazado 1296513" d="M317.424,326.957a2.245,2.245,0,0,0,1.159,2.939,2.272,2.272,0,0,0,2.692-1.681,2.245,2.245,0,0,0-1.159-2.939,2.271,2.271,0,0,0-2.692,1.681" transform="translate(-219.394 -225.7)" fill="#09254d"/>
      <path id="Trazado_1296514" data-name="Trazado 1296514" d="M313.225,326.31a3.756,3.756,0,0,1,4.09-1.225c1.367.446,2.924,2.184,2.805,3.476" transform="translate(-216.592 -225.509)" fill="none" stroke="#2c2f37" stroke-linecap="round" stroke-linejoin="round" stroke-width="2.287"/>
      <path id="Trazado_1296515" data-name="Trazado 1296515" d="M326.614,304.437c-.151.869-2.314-2.053-4.384-2.762s-4.448-.5-4.38-1.429,3.445-2.392,6.107-1.079a5.265,5.265,0,0,1,2.657,5.271" transform="translate(-219.789 -207.274)" fill="#09254d"/>
      <path id="Trazado_1296516" data-name="Trazado 1296516" d="M270.779,371.049c-.689-4.165-8.732-4.848-11.217-2.595" transform="translate(-179.484 -254.847)" fill="none" stroke="#b14314" stroke-linecap="round" stroke-linejoin="round" stroke-width="3"/>
      <path id="Trazado_1296517" data-name="Trazado 1296517" d="M517.46,16.088c17.115-29.211,58.429-14.605,54.888,11.652,28.41-5.427,35.17,34.678,9.175,40.225,11.75,25.157-23.5,42.46-38.631,23.4C530.5,116.2,492.35,104.892,496.857,82.811c-16.579,7.423-35.17-16.92-18.35-30.967C459.755,34.285,492.35-6.179,517.46,16.088" transform="translate(-326.303 0.003)" fill="#d3e3f3"/>
      <path id="Trazado_1296518" data-name="Trazado 1296518" d="M451.654,266.155a4.513,4.513,0,1,1-4.513-4.476,4.494,4.494,0,0,1,4.513,4.476" transform="translate(-306.073 -181.619)" fill="#d3e3f3"/>
      <path id="Trazado_1296519" data-name="Trazado 1296519" d="M411.507,293.817a2.9,2.9,0,1,1-2.9-2.88,2.893,2.893,0,0,1,2.9,2.88" transform="translate(-280.536 -201.925)" fill="#d3e3f3"/>
      <path id="Trazado_1296520" data-name="Trazado 1296520" d="M569.257,107.259a9.539,9.539,0,0,1-6.082-6.625,11.447,11.447,0,0,1,1.573-8.949,13.357,13.357,0,0,1,15.483-5.052,13.169,13.169,0,0,1,8.087,14.034,16.655,16.655,0,0,1-6.451,9.989,24.314,24.314,0,0,1-29.164-.08,23.819,23.819,0,0,1-6.486-28.2c2.363-4.88,6.925-9.081,12.37-9.471,4.194-.3,8.24,1.659,11.625,4.133,3.369,2.462,6.438,5.685,7.434,9.716,1.45,5.866-2.086,12.214-7.364,15.229s-11.853,3.113-17.736,1.549c-6.015-1.6-11.764-5.052-14.884-10.4-4.284-7.339-2.721-17.1,2.37-23.913s13.128-10.976,21.4-13.13c7.175-1.868,14.946-2.351,21.91.185s12.929,8.506,14,15.786-3.8,15.349-11.109,16.634c-5.866,1.031-12.026-2.475-14.781-7.714s-2.334-11.79.357-17.061c2.665-5.22,7.655-9.4,13.471-10.391,6.8-1.156,13.889,2.218,18.193,7.565s6.077,12.372,6.081,19.214c0,5.928-1.325,12.035-4.89,16.794s-9.642,7.907-15.542,6.954a13.513,13.513,0,0,1-11.106-11.843,12.749,12.749,0,0,1,9.461-12.985c4.447-1.035,9.181.532,12.915,3.141a21.884,21.884,0,0,1,9.5,16.392c.329,6.516-3.079,13.234-8.859,16.349s-13.7,2.1-18.08-2.768-4.314-13.227.521-17.651c1.8-1.647,4.454-2.731,6.709-1.784a5.669,5.669,0,0,1,3.139,4.361,12.392,12.392,0,0,1-.6,5.512c-2.337,7.881-8,14.938-15.641,18.1s-17.185,1.953-23.193-3.7-7.572-15.7-2.848-22.45c1.57-2.242,4.1-4.188,6.83-3.818s4.646,2.93,5.555,5.513a16.369,16.369,0,0,1-3.82,16.659,16.706,16.706,0,0,1-16.779,3.873,16.5,16.5,0,0,1-10.844-13.275c-.973-7.894,4.029-15.367,9.995-20.682,3.43-3.056,7.354-5.727,11.818-6.869s9.546-.565,13.129,2.314,5.171,8.276,2.97,12.294c-2.046,3.733-6.959,5.453-11.084,4.3a12.55,12.55,0,0,1-8.381-8.9A17.448,17.448,0,0,1,552.121,73.8a20.25,20.25,0,0,1,14.436-10.7c6.158-.965,12.872,1.6,16.386,6.706s3.341,12.568-.771,17.215" transform="translate(-367.776 -36.998)" fill="none" stroke="#244980" stroke-linecap="round" stroke-linejoin="round" stroke-width="2"/>
    </g>
  </g>
</svg>
