<svg id="Grupo_1188472" data-name="Grupo 1188472" xmlns="http://www.w3.org/2000/svg" xmlns:xlink="http://www.w3.org/1999/xlink" width="295.73" height="382.441" viewBox="0 0 295.73 382.441">
  <defs>
    <clipPath id="clip-path">
      <rect id="Rectángulo_411006" data-name="Rectángulo 411006" width="295.73" height="382.442" fill="none"/>
    </clipPath>
    <clipPath id="clip-path-3">
      <rect id="Rectángulo_411000" data-name="Rectángulo 411000" width="9.969" height="14.55" fill="none"/>
    </clipPath>
    <clipPath id="clip-path-4">
      <rect id="Rectángulo_411001" data-name="Rectángulo 411001" width="15.133" height="15.135" fill="none"/>
    </clipPath>
    <clipPath id="clip-path-5">
      <rect id="Rectángulo_411002" data-name="Rectángulo 411002" width="124.022" height="145.697" fill="none"/>
    </clipPath>
    <clipPath id="clip-path-6">
      <rect id="Rectángulo_411003" data-name="Rectángulo 411003" width="51.275" height="59.623" fill="none"/>
    </clipPath>
    <clipPath id="clip-path-7">
      <rect id="Rectángulo_411004" data-name="Rectángulo 411004" width="9.79" height="13.857" fill="none"/>
    </clipPath>
  </defs>
  <g id="Grupo_1188471" data-name="Grupo 1188471" clip-path="url(#clip-path)">
    <g id="Grupo_1188470" data-name="Grupo 1188470">
      <g id="Grupo_1188469" data-name="Grupo 1188469" clip-path="url(#clip-path)">
        <path id="Trazado_1321199" data-name="Trazado 1321199" d="M229.312,284.6c.488.659,3.423,2.606,2.126,3.162-.2.282-.618.162-.918.153a43.364,43.364,0,0,0-7.726-.383c-8.523,1.024-17.116,3.344-24.3,8.126-5.9,3.644-11.675,10.22-18.992,10.179a9.367,9.367,0,0,1-9.02-11.926c2.826-8.57,10.534-15.2,18.948-18.06,13.5-4.258,29.58-1.147,39.879,8.749" transform="translate(-93.545 -150.665)" fill="#b3b27d"/>
        <path id="Trazado_1321200" data-name="Trazado 1321200" d="M181.452,303.692a10.342,10.342,0,0,1,2.756-3.194,37.139,37.139,0,0,1,12.617-7.1,51.236,51.236,0,0,1,41.238,2.453c1.476.836,10.926,5.487,9.408,7.137-1.826.566-3.1-1.5-4.585-2.223-1.626-1.082-3.185-1.959-4.885-2.87-15.22-8.21-34.709-8.3-49.684.506a30.5,30.5,0,0,0-6.52,5.423c-.094.131-.443.077-.344-.126" transform="translate(-99.769 -159.565)" fill="#9a984a"/>
        <path id="Trazado_1321201" data-name="Trazado 1321201" d="M305.484,230.223c.232.8,4.335,10.2,2.256,8.782a.677.677,0,0,1-.2-.374c-.035-.147-.071-.291-.109-.435a71.322,71.322,0,0,0-14.155-9.017c-8.787-3.932-18.619-5.946-26.227-12.146-3.608-2.926-6.826-7.144-7.1-11.9a11.187,11.187,0,0,1,9.84-11.525c9.2-.85,16.781,6.114,22.522,12.487,6.111,6.943,9.522,15.755,13.178,24.13" transform="translate(-142.931 -106.423)" fill="#b3b27d"/>
        <path id="Trazado_1321202" data-name="Trazado 1321202" d="M318.293,252a2.816,2.816,0,0,1-1.447-1.447c-.589-1.042-1.277-2.188-1.853-3.1-1.624-2.544-3.367-5.014-5.187-7.42-9.779-12.456-20.867-26.257-35.531-32.937a16.348,16.348,0,0,0-1.675-.625c-1.046-1.039,1.691-.228,2.023-.065,15.813,6.907,27.419,20.679,37.615,34.13.753,1.111,8.955,12.005,6.055,11.461" transform="translate(-149.77 -113.251)" fill="#9a984a"/>
        <path id="Trazado_1321203" data-name="Trazado 1321203" d="M378.15,148.981c22.169,14.925,15.8,35.856.347,53.1-1.07,1.273-2.159,2.535-3.194,3.841-.573.712-1.118,1.741-2.159,1.718-2.961-.574-6.135-7.226-7.84-9.747-6.688-11.084-8.4-25.474-3.153-37.464a47.274,47.274,0,0,1,9.117-13.817c2.332-1.047,4.944,1.256,6.882,2.364" transform="translate(-197.449 -80.477)" fill="#b3b27d"/>
        <path id="Trazado_1321204" data-name="Trazado 1321204" d="M379.774,208.713a84.327,84.327,0,0,1-.42-15.04c.643-.508,1.277-1.028,1.9-1.564,4.974-4.694,9.705-10.689,10.39-17.707,0-.212-.292-.309-.365-.091-1.563,7.033-6.1,12.9-11.508,17.5a3.038,3.038,0,0,1-.327.293c.3-5.257.826-10.52,1.123-15.754.018-.014.038-.025.055-.04a17.926,17.926,0,0,0,1.453-2.238,36.175,36.175,0,0,0,4.3-12.017c.16-.293-.139-.791-.379-.391a35.338,35.338,0,0,1-4.65,11.784,5.159,5.159,0,0,1-.68,1c0-.069.007-.139.01-.208.2-5.53.669-11.119-.126-16.619-.06-.345-.471-3.029-.974-1.812a46.657,46.657,0,0,1,.492,5.534,114.867,114.867,0,0,1-.588,13.3c-1.939-3.467-2.9-7.407-4.019-11.18-.249-.156-.305.223-.25.391a28.117,28.117,0,0,0,3.867,11.767,5.234,5.234,0,0,0,.265.455c-.532,5.425-1.211,10.858-1.579,16.277-.493-.717-1.009-1.41-1.131-1.63a41.476,41.476,0,0,1-5.549-13.743c-.009-.307-.332-.5-.347-.094.7,5.663,3.14,12.386,6.946,16.749-.417,7.185-.215,14.341,1.7,21.411,1.04,2.788,1.435,6.357,4.046,8.156h0a10.055,10.055,0,0,0-1.077-4.882,46.016,46.016,0,0,1-2.577-9.6" transform="translate(-203.861 -85.505)" fill="#9a984a"/>
        <path id="Trazado_1321205" data-name="Trazado 1321205" d="M144.57,255.762c3.726,1.894,7.867,2.991,11.525,4.873a35.249,35.249,0,0,1-18.728-8.738c-.036-.038-.088-.091-.156-.153a2.017,2.017,0,0,1-.247.135,1.708,1.708,0,0,1-.709.153,1.794,1.794,0,0,1-.585-.1.412.412,0,0,1-.086-.027,1.592,1.592,0,0,1-.379-.212h0a.611.611,0,0,1-.05-.041.278.278,0,0,1-.047-.038l0,0c-.015-.015-.03-.027-.044-.041s0,0,0,0a1.849,1.849,0,0,1-.376-.488.835.835,0,0,1-.038-.094,1.837,1.837,0,0,1-.156-.632,1.735,1.735,0,0,1,.265-1.02,1.826,1.826,0,0,1,.944-.738,1.774,1.774,0,0,1,.374-.082h.041a1.855,1.855,0,0,1,1.144.306,1.784,1.784,0,0,1,.664.879,1.739,1.739,0,0,1-.226,1.57,31.732,31.732,0,0,0,6.879,4.494" transform="translate(-73.95 -136.653)" fill="#efa444"/>
        <path id="Trazado_1321206" data-name="Trazado 1321206" d="M144.658,293.892a22.053,22.053,0,0,1-3.256.153,65.259,65.259,0,0,0-15.734-.468,2.437,2.437,0,0,1-.012.359c0,.012,0,.021-.006.032v.009c0,.015-.006.032-.009.047a1.451,1.451,0,0,1-.077.3,1.281,1.281,0,0,1-.077.18,1.6,1.6,0,0,1-.335.453,1.535,1.535,0,0,1-.15.124,1.384,1.384,0,0,1-.647.267,1.4,1.4,0,0,1-.221.018,1.381,1.381,0,0,1-.153-.009h-.009a1.644,1.644,0,0,1-.394-.1,1.8,1.8,0,0,1-.5-.288,1.72,1.72,0,0,1-.244-.238,1.915,1.915,0,0,1-.267-.4.066.066,0,0,0-.012-.018.506.506,0,0,1-.047-.109,1.882,1.882,0,0,1,.238-1.956,1.529,1.529,0,0,1,1-.512,1.628,1.628,0,0,1,1.024.271,1.973,1.973,0,0,1,.756.947,2.547,2.547,0,0,0,.309-.053,72.863,72.863,0,0,1,15.443-.141,16.152,16.152,0,0,1,3.379,1.129" transform="translate(-67.277 -160.422)" fill="#efa444"/>
        <path id="Trazado_1321207" data-name="Trazado 1321207" d="M245.7,325.158c-1.44-.623-2.256-2.177-3.421-3.189-2.156-2.222-4.429-4.314-6.79-6.317A89.469,89.469,0,0,0,208.375,299.4c-1.6-.562-1.028-1.187.421-.894,12.07,3.025,22.274,10.99,31.432,19.1a77.449,77.449,0,0,1,6.2,6.364c.388.663.293,1.576-.724,1.18" transform="translate(-114.053 -164.107)" fill="#4c60b0"/>
        <path id="Trazado_1321208" data-name="Trazado 1321208" d="M162.975,257.671c.911,3.229.962,6.514-2.991,7.314a11.873,11.873,0,0,1-2.206.677,23.75,23.75,0,0,0-2.264,2.776c-2.4,3.9-4.156,8.308-7.632,11.444-1.7,1.464-3.858,3.1-6.234,2.658-2.185-.341-2.932-2.779-2.571-4.709a17.98,17.98,0,0,1,3.55-7.408c-4.447,3.085-9.74,5.446-14.7,3.294-2.344-1.376-2.082-4.632-.494-6.505a14.778,14.778,0,0,1,6.014-4.179,40.619,40.619,0,0,1,7.705-2.347c-4.714-.459-9.585-1.447-13.378-4.305-4.829-3.829-3.806-9.929,3.011-9.694a31.86,31.86,0,0,1,10.587,2.414c1.144.377,2.268.815,3.367,1.3a29.305,29.305,0,0,1-7.652-7.826c-2.047-3.385-2.688-8.787,2.864-8.158,4.17.726,8.135,4.373,11.176,8.49-.979-3.559-.818-8.7,3.267-9.029,2.759.065,4.614,2.8,5.549,5.093,1.691,4.308,2.1,8.99,2.341,13.576.032,1.111.071,2.22.188,3.326a1.947,1.947,0,0,1-.035.582,2.9,2.9,0,0,1,.541,1.212" transform="translate(-68.613 -128.61)" fill="#ec8895"/>
        <path id="Trazado_1321209" data-name="Trazado 1321209" d="M177.169,268.427c.66,2.337.7,4.715-2.165,5.294a8.545,8.545,0,0,1-1.6.489,17.243,17.243,0,0,0-1.639,2.01c-1.739,2.825-3.008,6.013-5.524,8.283-1.23,1.06-2.792,2.246-4.513,1.924-1.582-.247-2.122-2.012-1.86-3.408a13.014,13.014,0,0,1,2.569-5.362c-3.218,2.233-7.05,3.943-10.643,2.384-1.7-1-1.507-3.353-.358-4.709a10.687,10.687,0,0,1,4.353-3.025,29.341,29.341,0,0,1,5.577-1.7c-3.412-.332-6.937-1.047-9.683-3.117-3.5-2.772-2.755-7.186,2.18-7.016a23.05,23.05,0,0,1,7.663,1.748c.828.272,1.641.59,2.437.943a21.2,21.2,0,0,1-5.539-5.665c-1.481-2.45-1.945-6.36,2.074-5.9,3.018.526,5.888,3.166,8.089,6.146-.709-2.576-.592-6.3,2.365-6.535,2,.047,3.34,2.029,4.017,3.687a31.154,31.154,0,0,1,1.695,9.826c.023.8.051,1.607.136,2.408a1.413,1.413,0,0,1-.026.422,2.106,2.106,0,0,1,.392.877" transform="translate(-82.22 -138.137)" fill="#f1b1c4"/>
        <path id="Trazado_1321210" data-name="Trazado 1321210" d="M197.934,273.79c4.135.324,4.993,8.223,4.682,11.464-.212,2.423-2.438,3.741-4.494,4.538-1.982.8-4.117,1.7-6.293,1.35-2.744-.565-2.418-3.382-.356-4.653A9.139,9.139,0,0,1,195,284.913c-2.873-.815-6.955-3.712-3.126-5.508a7.284,7.284,0,0,1,4.744.65,7.607,7.607,0,0,0-.45-1.068c-.806-1.788-.847-5.138,1.768-5.2" transform="translate(-104.396 -150.555)" fill="#7985bc"/>
        <path id="Trazado_1321211" data-name="Trazado 1321211" d="M197.666,304.615c-1.2-.24-.5-1.114.35-1.015a28.222,28.222,0,0,0,5.729-1.414c.462.032.243.47-.018.635a13.31,13.31,0,0,1-6.061,1.794" transform="translate(-108.342 -166.169)" fill="#4c60b0"/>
        <path id="Trazado_1321212" data-name="Trazado 1321212" d="M204.8,294.942c-1.493-.687-2.986-1.72-4.482-2.347-.839-.19-1.965-1.3-.391-1.294a16.2,16.2,0,0,1,3.338,1.57,6.276,6.276,0,0,1,2.291,1.862c.119.478-.5.347-.756.209" transform="translate(-109.505 -160.184)" fill="#4c60b0"/>
        <path id="Trazado_1321213" data-name="Trazado 1321213" d="M210.387,287.867s-.013-.017-.007-.007c-.635-1.3-.94-2.846-1.678-4.119-.244-.536-1.263-1.493-.349-1.878,1.382-.648,3.808,6.8,2.034,6" transform="translate(-114.366 -154.971)" fill="#4c60b0"/>
        <path id="Trazado_1321214" data-name="Trazado 1321214" d="M267.275,102.8c1.585,4.99,2.1,10.332,3.685,15.237a44.154,44.154,0,0,0-7-24.924c-.04-.051-.095-.127-.158-.224a2.479,2.479,0,0,0,.217-.278,2.142,2.142,0,0,0,.333-.845,2.252,2.252,0,0,0,0-.744.527.527,0,0,0-.015-.111,1.987,1.987,0,0,0-.185-.512v0c-.014-.025-.025-.049-.041-.07a.365.365,0,0,0-.038-.066l0,0c-.015-.021-.027-.042-.042-.063,0,0,0,0,0,0a2.323,2.323,0,0,0-.527-.564,1.231,1.231,0,0,0-.109-.066,2.3,2.3,0,0,0-.75-.321,2.166,2.166,0,0,0-1.315.12,2.285,2.285,0,0,0-1.1,1.017,2.237,2.237,0,0,0-.178.445l-.006.04,0,.011a2.323,2.323,0,0,0,.146,1.476,2.234,2.234,0,0,0,.952,1,2.181,2.181,0,0,0,1.987.039,39.748,39.748,0,0,1,4.159,9.415" transform="translate(-142.956 -49.043)" fill="#efa444"/>
        <path id="Trazado_1321215" data-name="Trazado 1321215" d="M311.709,110.621a27.651,27.651,0,0,0,.85-3.993,81.753,81.753,0,0,1,2.616-19.545,3.022,3.022,0,0,0,.446.059c.015,0,.026,0,.041,0l.011,0h.06a1.886,1.886,0,0,0,.387-.034,1.7,1.7,0,0,0,.237-.058,2.016,2.016,0,0,0,.628-.322,1.99,1.99,0,0,0,.183-.161,1.738,1.738,0,0,0,.462-.745,1.714,1.714,0,0,0,.087-.46l0-.011a2.056,2.056,0,0,0-.04-.507,2.258,2.258,0,0,0-.255-.673,2.138,2.138,0,0,0-.245-.35,2.4,2.4,0,0,0-.44-.412.072.072,0,0,1-.019-.018.638.638,0,0,0-.125-.081,2.357,2.357,0,0,0-2.466-.1,1.913,1.913,0,0,0-.835,1.128,2.039,2.039,0,0,0,.127,1.32,2.475,2.475,0,0,0,1.017,1.127,3.167,3.167,0,0,1-.128.371A91.319,91.319,0,0,0,311,106.214a20.222,20.222,0,0,0,.71,4.406" transform="translate(-171.011 -45.588)" fill="#efa444"/>
        <path id="Trazado_1321216" data-name="Trazado 1321216" d="M332.767,241.572c-.478-1.906-2.234-3.23-3.248-4.876-2.309-3.117-4.434-6.351-6.43-9.676A112.08,112.08,0,0,1,308.507,190.2c-.369-2.1-1.258-1.511-1.191.338,1.29,15.534,9.065,29.765,17.237,42.733a96.939,96.939,0,0,0,6.609,8.951c.74.615,1.889.681,1.605-.655" transform="translate(-168.988 -103.86)" fill="#4c60b0"/>
        <path id="Trazado_1321217" data-name="Trazado 1321217" d="M258.963,129.716c3.807,1.782,7.857,2.511,9.649-2.213a14.89,14.89,0,0,0,1.284-2.589,29.82,29.82,0,0,1,3.892-2.236c5.312-2.178,11.113-3.451,15.694-7.111,2.156-1.8,4.619-4.14,4.552-7.168.022-2.77-2.841-4.189-5.3-4.133a22.52,22.52,0,0,0-9.878,2.885c4.716-4.871,8.71-10.935,7.056-17.509-1.226-3.177-5.3-3.514-7.941-1.931-2.748,1.479-4.721,4.011-6.387,6.586a50.857,50.857,0,0,0-4.465,9.049c.39-5.921.157-12.142-2.607-17.412-3.753-6.747-11.5-6.719-12.594,1.755-.708,4.517-.013,9.126.836,13.578.233,1.491.547,2.968.927,4.427-2.159-4.043-4.6-8.062-8.121-11.048-3.769-3.217-10.317-5.106-10.666,1.885.052,5.3,3.755,10.943,8.228,15.538-4.2-1.933-10.592-2.777-11.824,2.207-.48,3.423,2.528,6.273,5.17,7.894,4.983,2.965,10.687,4.424,16.306,5.649,1.368.266,2.73.538,4.073.908a2.425,2.425,0,0,0,.727.074,3.639,3.639,0,0,0,1.388.915" transform="translate(-127.161 -44.587)" fill="#ec8895"/>
        <path id="Trazado_1321218" data-name="Trazado 1321218" d="M271.424,148.293c2.755,1.29,5.687,1.818,6.984-1.6a10.745,10.745,0,0,0,.929-1.874,21.559,21.559,0,0,1,2.817-1.619c3.845-1.576,8.044-2.5,11.36-5.147,1.56-1.306,3.343-3,3.295-5.188.016-2.005-2.056-3.032-3.835-2.992a16.3,16.3,0,0,0-7.15,2.088c3.414-3.526,6.3-7.915,5.107-12.673-.887-2.3-3.839-2.544-5.748-1.4a13.4,13.4,0,0,0-4.623,4.767,36.813,36.813,0,0,0-3.232,6.55c.282-4.285.113-8.788-1.887-12.6-2.716-4.883-8.324-4.864-9.116,1.27a28.879,28.879,0,0,0,.605,9.828c.169,1.078.4,2.148.671,3.2a26.559,26.559,0,0,0-5.878-8c-2.728-2.329-7.467-3.7-7.72,1.364.037,3.838,2.718,7.921,5.955,11.246-3.04-1.4-7.666-2.01-8.558,1.6-.347,2.478,1.83,4.54,3.742,5.714,3.606,2.146,7.735,3.2,11.8,4.089.99.192,1.976.389,2.949.657a1.77,1.77,0,0,0,.526.054,2.639,2.639,0,0,0,1,.662" transform="translate(-138.222 -62.189)" fill="#f1b1c4"/>
        <path id="Trazado_1321219" data-name="Trazado 1321219" d="M277.176,174.538c-.439,5.177,9.151,7.842,13.221,8.115,3.039.23,5.119-2.255,6.522-4.634,1.388-2.288,2.933-4.745,2.946-7.506-.141-3.507-3.69-3.675-5.679-1.384a11.437,11.437,0,0,0-2.664,4.039c-.424-3.717-3.176-9.351-6.175-4.983a9.123,9.123,0,0,0-.159,6,9.554,9.554,0,0,1-1.228-.773c-2.047-1.359-6.179-2.09-6.783,1.13" transform="translate(-152.409 -91.61)" fill="#7985bc"/>
        <path id="Trazado_1321220" data-name="Trazado 1321220" d="M315.688,178.434c-.054-1.53-1.275-.849-1.326.226-.562,2.459-1.886,4.566-2.911,6.795-.054.578.532.4.789.107a16.675,16.675,0,0,0,3.448-7.128" transform="translate(-171.262 -97.629)" fill="#4c60b0"/>
        <path id="Trazado_1321221" data-name="Trazado 1321221" d="M303.756,184.892c-.546-1.985-1.52-4.041-1.992-6.017-.064-1.075-1.2-2.692-1.52-.746a20.3,20.3,0,0,0,1.264,4.445,7.867,7.867,0,0,0,1.836,3.21c.567.244.53-.549.412-.892" transform="translate(-165.102 -97.451)" fill="#4c60b0"/>
        <path id="Trazado_1321222" data-name="Trazado 1321222" d="M293.926,190.4s-.018-.019-.008-.01c-1.474-1.047-3.328-1.739-4.751-2.911-.614-.41-1.589-1.864-2.251-.813-1.082,1.577,7.632,6.088,7.01,3.734" transform="translate(-157.722 -102.439)" fill="#4c60b0"/>
        <path id="Trazado_1321223" data-name="Trazado 1321223" d="M465.834,182.76c.886,1.4.985,3.687,2.641,4.438h0c.58-1.327-.172-2.67-.7-3.883a38.8,38.8,0,0,0-2.694-5.056c-.552-.668-1.178-2.132-2.168-2.056-.35.126-.326.559-.229.844.967,1.94,2.269,3.715,3.144,5.711" transform="translate(-254.395 -96.892)" fill="#4c60b0"/>
        <path id="Trazado_1321224" data-name="Trazado 1321224" d="M479.715,153.558a22.236,22.236,0,0,1-6.826,4.341c-1.26.606-6.213,2-9,3.544a44.35,44.35,0,0,0,4.885-11.129q1.2-2.607,2.515-5.161a69.148,69.148,0,0,0,3.952-8.267c.432-1.35,1.2-2.84.874-4.264l.018.05c-.293-1.062-.925.515-1.041.924a47.719,47.719,0,0,1-2.3,5.652c-.308.867-1.616,3.185-2.829,5.538a39.5,39.5,0,0,0-2.328-20.657c-.169-.344-.736-1.911-1.229-1.612a.361.361,0,0,0-.084.384c.332,1.236.995,2.4,1.326,3.651a38.416,38.416,0,0,1,1.413,6.77,16.512,16.512,0,0,0-7.393-1.745c-.627-.055-1.274.478-.453.841,2.719.647,5.474,1.045,7.981,2.381a42.52,42.52,0,0,1-8.3,28.086c-4,6.146-9.7,11.323-12.319,18.325,0,0,0,.012.007.012a46.351,46.351,0,0,0,6.086-7.212c2.449-3.244,5.124-6.459,7.476-9.943.048-.067.093-.135.141-.2a1.281,1.281,0,0,0,1.083-.334c4.185-2.277,8.985-3.26,13.078-5.752,1.235-.794,4.625-3.069,4.467-4.62-.317-.515-.9.152-1.2.4" transform="translate(-246.668 -67.35)" fill="#4c60b0"/>
        <path id="Trazado_1321225" data-name="Trazado 1321225" d="M525.145,178.953a6.439,6.439,0,0,1-1.265,4.091c-.106.141-.217.276-.332.409a1.921,1.921,0,0,1-.15.159,2.371,2.371,0,0,1-.32.317,6.4,6.4,0,0,1-.856.656,6.786,6.786,0,0,1-2.085.853,5.814,5.814,0,0,1-1.3.141,6.883,6.883,0,0,1-.924-.065,6.407,6.407,0,0,1-3.8-2.012,6.3,6.3,0,0,1-1.641-3.982c0-.018,0-.035,0-.053v-.009a4.743,4.743,0,0,1,.021-.791,6.309,6.309,0,0,1,1.115-3.053c.068-.1.135-.191.209-.285a.377.377,0,0,1,.032-.035,6.2,6.2,0,0,1,1.506-1.371,6.342,6.342,0,0,1,9.788,5.029" transform="translate(-281.8 -95.077)" fill="#efa444"/>
        <path id="Trazado_1321226" data-name="Trazado 1321226" d="M497.156,158.578a6.725,6.725,0,0,1-3.208,7.788,6.615,6.615,0,0,1-3.244.832,6.934,6.934,0,0,1-1.259-.115,6.689,6.689,0,0,1-3.944-2.335,6.829,6.829,0,0,1-1.532-4.249c0-.03,0-.056,0-.082a.452.452,0,0,1-.006-.068c.006-.153.014-.306.029-.456a.406.406,0,0,1,0-.047,7.212,7.212,0,0,1,.129-.832,6.938,6.938,0,0,1,.773-1.95c.118-.2.247-.4.383-.585a5.607,5.607,0,0,1,.374-.468c.02-.023.044-.044.064-.065.145-.156.294-.309.45-.453a6.734,6.734,0,0,1,8.47-.474,6.935,6.935,0,0,1,1.506,1.5c.056.074.106.147.156.224a.313.313,0,0,1,.032.053h0a7.065,7.065,0,0,1,.817,1.782" transform="translate(-266.129 -84.542)" fill="#efa444"/>
        <path id="Trazado_1321227" data-name="Trazado 1321227" d="M511.131,125.664a6.809,6.809,0,0,1,.3,2.173,6.618,6.618,0,0,1-5.552,6.323,7.853,7.853,0,0,1-1.118.082H504.7a6.451,6.451,0,0,1-1.144-.121,6.541,6.541,0,0,1-2.159-.832,6.627,6.627,0,0,1-3.182-5.39,7.234,7.234,0,0,1,.038-.974.729.729,0,0,1,0-.112,6.671,6.671,0,0,1,.876-2.547,6.542,6.542,0,0,1,.788-1.07.451.451,0,0,0,.05-.056.083.083,0,0,0,.018-.015,6.751,6.751,0,0,1,1.144-.982.78.78,0,0,1,.071-.038,6.537,6.537,0,0,1,1-.541,6.613,6.613,0,0,1,7.841,2.023,6.5,6.5,0,0,1,1.082,2.076" transform="translate(-273.965 -66.551)" fill="#efa444"/>
        <path id="Trazado_1321228" data-name="Trazado 1321228" d="M483.52,106.3a6.194,6.194,0,0,1-1.438,3.958,6.313,6.313,0,0,1-3.494,2.106,5.972,5.972,0,0,1-1.273.135,6.211,6.211,0,0,1-3.238-.905,6.29,6.29,0,0,1-2.659-3.323,5.983,5.983,0,0,1-.262-1.127.586.586,0,0,1-.015-.071c-.021-.17-.035-.338-.038-.432a6.365,6.365,0,0,1,.294-2.28,0,0,0,0,1,0,0c.006-.024.015-.048.023-.074s.009-.029.015-.047c.05-.144.106-.286.165-.424s.117-.256.182-.382a6.391,6.391,0,0,1,.653-1c.065-.081.13-.164.194-.244a.51.51,0,0,1,.079-.077A6.21,6.21,0,0,1,483.52,106.3" transform="translate(-259.051 -55.027)" fill="#efa444"/>
        <path id="Trazado_1321229" data-name="Trazado 1321229" d="M467.75,131.116a6.165,6.165,0,0,1-2.2,7.208,6.52,6.52,0,0,1-1.879.9,5.753,5.753,0,0,1-1.676.232c-.206,0-.415-.009-.621-.026a6.156,6.156,0,0,1-5.346-4.559A.333.333,0,0,1,456,134.8a5.745,5.745,0,0,1-.156-.92,5.291,5.291,0,0,1-.021-.865c0-.117.012-.232.023-.35a5.864,5.864,0,0,1,.138-.818c.038-.153.08-.3.13-.453,0-.009.006-.014.009-.023l.018-.053c.059-.171.126-.341.2-.509.047-.106.1-.215.15-.32a.419.419,0,0,1,.041-.071,6.638,6.638,0,0,1,.818-1.194,6.132,6.132,0,0,1,3.682-2.02,6.064,6.064,0,0,1,1.9,0,6.569,6.569,0,0,1,1.882.614,6.1,6.1,0,0,1,2.935,3.3" transform="translate(-250.648 -69.906)" fill="#efa444"/>
        <path id="Trazado_1321230" data-name="Trazado 1321230" d="M454.977,162.818a6.566,6.566,0,0,1-4.041,6.567,6.51,6.51,0,0,1-2.161.491c-.115.009-.229.012-.344.012a6.921,6.921,0,0,1-1.865-.271,6.567,6.567,0,0,1-4.15-3.644c-.006-.012-.009-.023-.015-.036a.056.056,0,0,1-.009-.023,6.391,6.391,0,0,1-.459-1.576,7.46,7.46,0,0,1-.068-.756.488.488,0,0,1-.012-.094,6.761,6.761,0,0,1,.038-.844c.009-.091.018-.183.029-.274a6.394,6.394,0,0,1,1-2.659.15.15,0,0,0,.018-.023c.009-.012.018-.027.027-.038a6.831,6.831,0,0,1,2.359-2.129,6.61,6.61,0,0,1,4.156-.688,6.508,6.508,0,0,1,3.808,2.07c.094.1.18.206.265.311a6.728,6.728,0,0,1,1.421,3.6" transform="translate(-242.971 -86.198)" fill="#efa444"/>
        <path id="Trazado_1321231" data-name="Trazado 1321231" d="M480.172,189.529a6.463,6.463,0,0,1,1.141,4.155,6.372,6.372,0,0,1-1.594,3.771,6.442,6.442,0,0,1-3.85,2.091,6.437,6.437,0,0,1-4.273-.853,6.535,6.535,0,0,1-2.706-3.293.488.488,0,0,1-.023-.053c-.023-.068-.044-.132-.065-.2a6.469,6.469,0,0,1-.079-3.618,1.054,1.054,0,0,1,.038-.1,6.854,6.854,0,0,1,.382-1.015,6.411,6.411,0,0,1,7.361-3.42,6.522,6.522,0,0,1,3.667,2.538" transform="translate(-257.626 -102.715)" fill="#efa444"/>
        <path id="Trazado_1321232" data-name="Trazado 1321232" d="M448.255,170.081a1.13,1.13,0,1,1,1.079,1.179,1.148,1.148,0,0,1-1.079-1.179" transform="translate(-246.491 -92.933)" fill="#ec7380"/>
        <path id="Trazado_1321233" data-name="Trazado 1321233" d="M462.839,138.3a1.13,1.13,0,1,1,1.079,1.179,1.148,1.148,0,0,1-1.079-1.179" transform="translate(-254.511 -75.456)" fill="#ec7380"/>
        <path id="Trazado_1321234" data-name="Trazado 1321234" d="M483.222,201.78a1.13,1.13,0,1,1,1.079,1.179,1.148,1.148,0,0,1-1.079-1.179" transform="translate(-265.719 -110.364)" fill="#ec7380"/>
        <path id="Trazado_1321235" data-name="Trazado 1321235" d="M497.527,168.928a1.13,1.13,0,1,1,1.079,1.179,1.148,1.148,0,0,1-1.079-1.179" transform="translate(-273.585 -92.299)" fill="#ec7380"/>
        <path id="Trazado_1321236" data-name="Trazado 1321236" d="M504.951,130.71a1.13,1.13,0,1,1,1.079,1.179,1.148,1.148,0,0,1-1.079-1.179" transform="translate(-277.668 -71.283)" fill="#ec7380"/>
        <path id="Trazado_1321237" data-name="Trazado 1321237" d="M487.952,111.051a1.13,1.13,0,1,1,1.079,1.179,1.148,1.148,0,0,1-1.079-1.179" transform="translate(-268.32 -60.473)" fill="#ec7380"/>
        <path id="Trazado_1321238" data-name="Trazado 1321238" d="M527.023,180.94a1.13,1.13,0,1,1,1.079,1.179,1.148,1.148,0,0,1-1.079-1.179" transform="translate(-289.805 -98.904)" fill="#ec7380"/>
        <path id="Trazado_1321239" data-name="Trazado 1321239" d="M180.3,185.459c1.055.681-.357,1.776-.82,2.4a20.362,20.362,0,0,1-17.543,6.7c-1.324-.113-2.636-.311-3.943-.534a3.053,3.053,0,0,1-1.987-.788c-1.056-1.546.353-3.424,1.3-4.664,5.481-6.586,15.818-6.882,22.987-3.116" transform="translate(-85.58 -100.645)" fill="#efa444"/>
        <path id="Trazado_1321240" data-name="Trazado 1321240" d="M176.445,188.722c1.036-.254,15-.939,10.977,1.678-1.457.012-3.1-.472-4.545-.531a37.131,37.131,0,0,0-8.257.39c-4.722.776-9.571,1.511-13.8,3.825-.346.121-.641.622-1.011.474-.276-.288.37-.485.535-.638a40.979,40.979,0,0,1,16.106-5.2" transform="translate(-87.838 -103.627)" fill="#ce832f"/>
        <path id="Trazado_1321241" data-name="Trazado 1321241" d="M327.743,9.025c2.188.226,1.747,2.691.248,3.589,1.781.06,3.282,2.166,1.374,3.3a3.866,3.866,0,0,1-2.541.288c.964,1.122,1.786,2.592.4,3.65-1.241.752-2.575.032-3.425-1.051a3.834,3.834,0,0,1-.655,2.2,1.63,1.63,0,0,1-2.9-.567A5.7,5.7,0,0,1,320,17.815c-1.105,1.168-3.586,1.76-3.926-.37a3.117,3.117,0,0,1,1.2-2.508,4.7,4.7,0,0,1-1.954-.546c-2.276-1.624-.063-3.3,1.98-3.038-2.628-2.012-1.446-5.156,1.719-3.058.088.075.231.188.4.328-.258-1.256-.117-2.626.956-3.049,1.208-.294,1.9,1.071,2.163,2.042.431-1.106,1.61-2.625,2.933-1.958,1.2,1,.882,2.609.235,3.96a4.764,4.764,0,0,1,2.039-.594" transform="translate(-172.862 -3.022)" fill="#ec7380"/>
        <path id="Trazado_1321242" data-name="Trazado 1321242" d="M329.688,17.922a2.237,2.237,0,0,1,1.192.489,2.281,2.281,0,0,1,.689.977,2.227,2.227,0,0,1-.22,1.944c-.016.025-.034.049-.05.074a2.243,2.243,0,0,1-1.312.89l-.04.01a2.322,2.322,0,0,1-.277.041.014.014,0,0,0-.009,0A2.246,2.246,0,0,1,328.269,22c-.029-.018-.056-.036-.084-.056a.462.462,0,0,1-.059-.048,2.187,2.187,0,0,1-.677-.85,2.221,2.221,0,0,1,2.24-3.124" transform="translate(-179.955 -9.849)" fill="#efa444"/>
        <path id="Trazado_1321243" data-name="Trazado 1321243" d="M406.911,200.227c2.4,4.295-1.48,11.631-6.618,11.107a11.218,11.218,0,0,1-6.716-3.845,12.008,12.008,0,0,1-.347,6.55,6.913,6.913,0,0,1-9.432,3.994c-5.244-1.671-5.555-7.8-3.732-12.219-3.152,2.514-7.743,3.92-11.281,1.5-2.344-1.664-3.119-4.879-2.521-7.595.846-3.371,4.274-5.092,7.457-5.931-5.551-1.777-10-7.1-4.836-12.414,3.41-3.07,7.952-1.813,11.117.98-2.68-10.8,11.614-16.857,13.929-4.4a17.738,17.738,0,0,1-.34,5.577c3.715-3.339,9.716-4.15,12.981.357,3.427,4.8-.695,9.988-5.57,11.724a10.682,10.682,0,0,1,5.91,4.606" transform="translate(-201.299 -94.041)" fill="#c64246"/>
        <path id="Trazado_1321244" data-name="Trazado 1321244" d="M408.742,245.172c-.9-.18-.454-1.258-.457-1.878.256-3.074.4-6.159.627-9.236a.68.68,0,0,1,1.359.025c-.2,2.737-.347,5.476-.549,8.214-.223.835.279,2.909-.981,2.874" transform="translate(-224.454 -128.349)" fill="#eb6670"/>
        <path id="Trazado_1321245" data-name="Trazado 1321245" d="M429.61,234.322c-2.212-1.623-4.321-3.382-6.405-5.166a1.225,1.225,0,0,1-.517-.7.68.68,0,0,1,1.269-.4l0-.013h0c-.016-.023-.03-.046-.042-.063l-.057-.068c2.12,1.89,4.319,3.659,6.6,5.35a.68.68,0,0,1-.843,1.066" transform="translate(-232.428 -125.21)" fill="#eb6670"/>
        <path id="Trazado_1321246" data-name="Trazado 1321246" d="M423.088,212.471a.689.689,0,0,1,.11-1.144c1.2-.788,2.435-1.527,3.647-2.3q2.162-1.36,4.312-2.723a.683.683,0,0,1,.928.255.694.694,0,0,1-.255.928c-2.605,1.659-5.276,3.319-7.881,4.96a.68.68,0,0,1-.861.022" transform="translate(-232.512 -113.396)" fill="#eb6670"/>
        <path id="Trazado_1321247" data-name="Trazado 1321247" d="M410.391,201.52c-.067-3.479-.328-6.871-.577-10.325a.679.679,0,1,1,1.349-.159c.12,1.738.251,3.477.365,5.212s.181,3.467.218,5.191a.681.681,0,0,1-1.355.081" transform="translate(-225.352 -104.719)" fill="#eb6670"/>
        <path id="Trazado_1321248" data-name="Trazado 1321248" d="M393.858,211.5c-3.223-1.756-6.237-3.842-9.266-5.906-.476-.3-1.3-.657-.9-1.349a.687.687,0,0,1,.935-.234c3.285,2.144,6.465,4.464,9.931,6.32a.681.681,0,0,1-.7,1.168" transform="translate(-210.93 -112.132)" fill="#eb6670"/>
        <path id="Trazado_1321249" data-name="Trazado 1321249" d="M384.185,231.087a.706.706,0,0,1,.5-.649,102.761,102.761,0,0,0,10.134-5.989.681.681,0,0,1,.821,1.087c-1.547,1.02-3.1,2.036-4.691,2.982-1.788,1.065-3.615,2.06-5.453,3.034-.472.379-1.3.257-1.31-.464" transform="translate(-211.26 -123.35)" fill="#eb6670"/>
        <path id="Trazado_1321250" data-name="Trazado 1321250" d="M412.052,211.536a6.926,6.926,0,0,1,.967,5.01,6.833,6.833,0,0,1-6.763,5.534c-.11,0-.223,0-.333-.007a6.88,6.88,0,0,1-4.521-2.064,6.778,6.778,0,0,1-1.441-2.227,7.206,7.206,0,0,1-.336-1.087,6.481,6.481,0,0,1-.152-1.25,6.778,6.778,0,0,1,.092-1.338.182.182,0,0,0,.007-.039,7.478,7.478,0,0,1,.216-.885,6.838,6.838,0,0,1,12.265-1.646" transform="translate(-219.664 -114.601)" fill="#efa444"/>
        <path id="Trazado_1321251" data-name="Trazado 1321251" d="M256.315,230.092c2.054,3.025-.341,8.71-4.18,8.656a8.336,8.336,0,0,1-5.224-2.411,8.935,8.935,0,0,1,.168,4.874,5.139,5.139,0,0,1-6.726,3.57c-3.992-.9-4.621-5.419-3.557-8.807-2.171,2.066-5.481,3.406-8.257,1.847a5.515,5.515,0,0,1-2.36-5.461c.408-2.551,2.834-4.048,5.137-4.876-4.227-.956-7.864-4.611-4.388-8.879,2.326-2.495,5.772-1.859,8.3,0-2.686-7.821,7.506-13.239,10.03-4.161a13.215,13.215,0,0,1,.111,4.152c2.534-2.714,6.926-3.7,9.636-.578,2.85,3.333.135,7.443-3.364,9.044a7.939,7.939,0,0,1,4.676,3.028" transform="translate(-124.021 -115.318)" fill="#c64246"/>
        <path id="Trazado_1321252" data-name="Trazado 1321252" d="M259.635,264.856c-.675-.076-.418-.9-.461-1.361-.01-2.293-.1-4.588-.135-6.881a.506.506,0,0,1,1.009-.07c.029,2.04.1,4.079.127,6.119-.111.633.4,2.136-.54,2.193" transform="translate(-142.443 -140.819)" fill="#eb6670"/>
        <path id="Trazado_1321253" data-name="Trazado 1321253" d="M273.72,255.521c-1.744-1.058-3.42-2.224-5.079-3.41-.178-.132-.377-.257-.429-.488a.506.506,0,0,1,.913-.38l0-.009h0c-.013-.016-.025-.033-.036-.045l-.046-.046c1.693,1.262,3.437,2.43,5.233,3.533a.505.505,0,0,1-.555.844" transform="translate(-147.48 -138.033)" fill="#eb6670"/>
        <path id="Trazado_1321254" data-name="Trazado 1321254" d="M267.873,239.133a.512.512,0,0,1,.007-.854c.838-.661,1.7-1.289,2.552-1.939q1.512-1.147,3.017-2.3a.508.508,0,0,1,.7.129.516.516,0,0,1-.129.7c-1.822,1.4-3.692,2.8-5.514,4.185a.506.506,0,0,1-.636.072" transform="translate(-147.177 -128.648)" fill="#eb6670"/>
        <path id="Trazado_1321255" data-name="Trazado 1321255" d="M257.36,232.479c-.275-2.572-.689-5.067-1.1-7.609a.5.5,0,1,1,.988-.206c.2,1.28.412,2.559.609,3.836s.359,2.556.5,3.83a.506.506,0,0,1-1,.148" transform="translate(-140.912 -123.32)" fill="#eb6670"/>
        <path id="Trazado_1321256" data-name="Trazado 1321256" d="M245.762,240.943c-2.5-1.092-4.869-2.44-7.246-3.772-.372-.194-1-.4-.757-.94a.511.511,0,0,1,.677-.234c2.572,1.374,5.078,2.886,7.766,4.036a.506.506,0,0,1-.441.91" transform="translate(-130.711 -129.745)" fill="#eb6670"/>
        <path id="Trazado_1321257" data-name="Trazado 1321257" d="M240.353,255.254a.525.525,0,0,1,.327-.514,76.338,76.338,0,0,0,7.116-5.094.507.507,0,0,1,.679.752c-1.08.856-2.162,1.709-3.281,2.513-1.255.9-2.543,1.76-3.841,2.6-.325.311-.949.275-1-.258" transform="translate(-132.167 -137.209)" fill="#eb6670"/>
        <path id="Trazado_1321258" data-name="Trazado 1321258" d="M259.706,239.276a5.148,5.148,0,0,1,1.041,3.648,5.08,5.08,0,0,1-4.649,4.538c-.081.007-.165.014-.247.016a5.113,5.113,0,0,1-3.483-1.235,5.04,5.04,0,0,1-1.212-1.556,5.259,5.259,0,0,1-.32-.783,4.769,4.769,0,0,1-.194-.916,5.058,5.058,0,0,1-.019-1,.117.117,0,0,0,0-.029,5.561,5.561,0,0,1,.1-.669,5.083,5.083,0,0,1,8.977-2.016" transform="translate(-137.807 -130.496)" fill="#efa444"/>
        <path id="Trazado_1321259" data-name="Trazado 1321259" d="M193.7,564.076a.559.559,0,0,0,0-.106l-.011.011a.79.79,0,0,1,.014.1m150.211-2a.685.685,0,0,1,.357.861c-.368.648-.786,1.278-1.129,1.94-9.393,18.631-12.559,42.258-12.711,62.968.049,3.551.269,7.106.648,10.64.142,1.338.294,2.684.471,4.022a.638.638,0,0,1,.209.287c.641,1.8-7.354,1.866-8.6,2.071-7.014.418-14.042.659-21.067.619-19.814-.2-39.529-2.73-59.342-2.971-9.635-.181-19.286-.371-28.885-1.175a.688.688,0,0,1-.471-.336.611.611,0,0,1-.478-.5,398.454,398.454,0,0,0-14.3-58.673c-1.908-5.785-3.527-11.759-6.108-17.275a.854.854,0,0,1-.17-.563c-.5-1.707,8.42-6.023,9.655-6.88a303.858,303.858,0,0,1,27.664-13.872.633.633,0,0,1,.811.131s0,0,0,0a.636.636,0,0,1,.149.142,26.775,26.775,0,0,0,2.309,3.076c13.589,14.818,35.86,18.086,54.35,11.674a62.58,62.58,0,0,0,14.088-7.128,34.044,34.044,0,0,0,8.537-7.577.013.013,0,0,0,0-.007.647.647,0,0,1,.942-.361.013.013,0,0,0,.011,0c1.306.439,29.444,14.8,33.049,18.879" transform="translate(-105.754 -298.647)" fill="#83327a"/>
        <path id="Trazado_1321260" data-name="Trazado 1321260" d="M433.1,816.641l-.043,0,.043,0" transform="translate(-238.136 -449.064)" fill="#c64246"/>
        <path id="Trazado_1321261" data-name="Trazado 1321261" d="M278.456,765.1l.042.041-.042-.041" transform="translate(-153.121 -420.72)" fill="#c64246"/>
        <path id="Trazado_1321262" data-name="Trazado 1321262" d="M467.947,232.454c13.982,10.774,17.512,30.485,14.375,47.063a42.974,42.974,0,0,1-3.126,10.268c-.343.595-.478,1.845-1.292,1.781a.645.645,0,0,1-.609.128c-10.59-4.26-14.375-16.224-16.712-26.435-2.617-10.895-5.378-22.873-.258-33.471.251-.577.52-1.087.779-1.6a.731.731,0,0,1,.262-.542s0,0,0,0a.7.7,0,0,1,.68-.311.627.627,0,0,1,.365.188c1.809.322,4.922,2.411,5.534,2.932" transform="translate(-251.547 -126.105)" fill="#45133e"/>
        <path id="Trazado_1321263" data-name="Trazado 1321263" d="M358.306,481.873c.531,11.929-10.948,19.045-20.288,23.9-14.6,7.181-31.1,10.19-47.315,9.854-21.942-.761-66.558-9.238-76.111-31.367-2.932-7.984,2.815-15.547,4.674-23.124,1.8-5.708,3.356-11.479,4.759-17.3a230.358,230.358,0,0,0,5.881-34.795,94.083,94.083,0,0,0,.549-13.724.689.689,0,0,1,.563-.747.346.346,0,0,1,.439.113c2.457-1.331,9.917-2.733,10.934-3.059a249.032,249.032,0,0,1,27.536-4.606c13.129-1.438,26.361-2.432,39.571-1.912a223.058,223.058,0,0,1,31.93,3.916c.563.135,1.5.039,1.735.574,0,0,0,0,0,0a.61.61,0,0,1,.209.468,166.81,166.81,0,0,0,.531,17.505,250.77,250.77,0,0,0,4.408,29.515c1.371,6.756,2.811,13.49,4.649,20.136,2.071,8.129,5.12,16.181,5.343,24.65" transform="translate(-117.552 -211.689)" fill="#45133e"/>
        <path id="Trazado_1321264" data-name="Trazado 1321264" d="M356.074,499.272a.687.687,0,0,1,.113,1.186.725.725,0,0,1-.092.252c-9.418,15.292-28.538,20.674-45.608,19.64-13.982-.733-29.147-6.759-36.448-19.307-.191-.446-.623-.942-.237-1.4a.831.831,0,0,1,.23-.173c.421-.722,2.341-.935,2.956-1.3,2.255-.786,4.507-1.572,6.731-2.45,13.388-4.394,13.922-14.389,11.794-26.6a29.076,29.076,0,0,0-1.016-3.693c-.284-.832-.627-1.65-.946-2.464a.766.766,0,0,1-.021-.453.623.623,0,0,1-.053-.361.681.681,0,0,1,.765-.581c12.265,2.6,24.75,4.313,37.174,6.1q2.124.287,4.256.549a.665.665,0,0,1,.556.482c.432.506-.18,1.459-.251,2.071-4.982,20.019,4.3,21.811,20.1,28.506" transform="translate(-150.476 -253.806)" fill="#ef9a97"/>
        <path id="Trazado_1321265" data-name="Trazado 1321265" d="M355.434,486.23c-9.658-1.467-19.293-5.457-26.147-12.578a34.536,34.536,0,0,1-9.676-12.027c13.641,2.835,27.513,4.772,41.335,6.626a.664.664,0,0,1,.556.481c.433.506-.18,1.459-.251,2.071-1.807,7.26-1.737,12.123-.161,15.692a32.413,32.413,0,0,1-5.656-.265" transform="translate(-175.752 -253.843)" fill="#c66f79"/>
        <path id="Trazado_1321266" data-name="Trazado 1321266" d="M494.212,354.591c8.958,12.106-2.05,30.79-16.737,30.007-.22.322-.453.453-.7.336-.924-.368-.11-1.54-.039-2.149a80.449,80.449,0,0,0,2.068-12.545c.662-6.6,1.388-13.292.779-19.874a.638.638,0,0,1,.6-.687,4.906,4.906,0,0,1,1.926-.68,13.109,13.109,0,0,1,12.106,5.591" transform="translate(-261.935 -191.857)" fill="#c66f79"/>
        <path id="Trazado_1321267" data-name="Trazado 1321267" d="M353.262,239.909c15.328,7.609,15.8,36,16.05,51.092-.315,14.775-1.2,30.386-8.877,43.413-8.232,14.528-25.443,22.037-41.748,21.266-14.506-1.066-28.641-8.151-37.645-19.658-6.1-7.9-9.655-17.435-12.066-27.041a76.27,76.27,0,0,1,1.14-42.5.667.667,0,0,1,.6-.482c3.187-3.41,15.427-9.726,17.371-10.6,18.738-8.8,39.019-14.276,59.494-17.1.241-.022.489-.078.719-.1,1.19-.372,4.2,1.438,4.961,1.7" transform="translate(-146.541 -130.962)" fill="#ef9a97"/>
        <path id="Trazado_1321268" data-name="Trazado 1321268" d="M343.705,229.479c1.526,1.009-2.51,8.682-3.25,9.787-10.827,17.764-31.686,25.794-51.847,25.557a84.7,84.7,0,0,1-13.274-1.4c4.815,10.445,1.979,23.344-5.017,32.178a23.778,23.778,0,0,1-5.931,5.523c-.411.177-.928.655-1.437.942a.588.588,0,0,1-.216.188,9.971,9.971,0,0,1-7.227.931c-6.019-1.59-9.649-7.308-11.217-13.012-.8-1.834-3.066-15.576-2.078-19.106a.654.654,0,0,1,.092-.6c.9-1.115,1.863-2.17,2.85-3.2a121.276,121.276,0,0,1,10.65-9.893,138.8,138.8,0,0,1,78.519-28.247,80.021,80.021,0,0,1,8.841.145.69.69,0,0,1,.538.209Z" transform="translate(-133.055 -125.963)" fill="#45133e"/>
        <path id="Trazado_1321269" data-name="Trazado 1321269" d="M254.376,365.16c4.313,5.177,3.665,19.339,2.486,25.773-.071.411-.524.591-.857.747a21.137,21.137,0,0,1-9.443,1.657c-13.14-.067-25.245-15.4-18.305-27.716,5.786-10.562,19.307-9.224,26.12-.461" transform="translate(-124.404 -196.938)" fill="#ef9a97"/>
        <path id="Trazado_1321270" data-name="Trazado 1321270" d="M258.674,395.243c-2.837-3.606-1.895-8.938.925-12.275a1.261,1.261,0,0,0,.187-.91c-.914-5.4-6.956-8.406-12.036-7.687a20.629,20.629,0,0,0-2.415.4.68.68,0,0,1-.786-.549.69.69,0,0,1,.549-.789c6.481-1.873,15.035,1.35,16.054,8.639a2.962,2.962,0,0,1-.86,2.234,10.146,10.146,0,0,0-1.572,3.073,7.878,7.878,0,0,0,.858,6.832.687.687,0,1,1-.9,1.036" transform="translate(-134.47 -205.058)" fill="#c66f79"/>
        <path id="Trazado_1321271" data-name="Trazado 1321271" d="M415.674,371.862c-.2-.645.457-.893.941-1.047a13.835,13.835,0,0,0,4.179-2.671c1.6-1.507,3.336-3.869,2.314-6.118-1.2-1.914-3.488-2.7-4.891-4.447-3.566-4.067-3.261-10.063-2.071-15.012.349-.8.517-3.113,1.753-2.648a.693.693,0,0,1,.244.991,14.437,14.437,0,0,0-.57,1.6c-1.215,4.758-1.665,10.62,1.922,14.453,1.508,1.629,3.762,2.463,4.84,4.472,1.795,4.258-2.47,8.115-5.849,10.024-.78.265-2.283,1.507-2.811.4" transform="translate(-228.388 -186.884)" fill="#c66f79"/>
        <path id="Trazado_1321272" data-name="Trazado 1321272" d="M351.29,362.888c.195-.436.885-.506.552.11-2.691,5.325-8.884,9.153-14.913,8.031a13.254,13.254,0,0,1-7.3-4.128,5.05,5.05,0,0,1-3.144.619c-.613-.06-1.976-.622-.839-.878,1.013-.187,2.248-.319,2.857-1.228a9.923,9.923,0,0,1-.782-1.459,6.684,6.684,0,0,1-2.05.308c-1.476-.056-3.9-1.622-.765-1.327a4.933,4.933,0,0,0,2.376-.514c.23-1.027,2.039-1.459,2.383-.284,4.093,10.01,15.915,8.3,21.623.751" transform="translate(-177.824 -198.748)" fill="#45133e"/>
        <path id="Trazado_1321273" data-name="Trazado 1321273" d="M457.489,358.663c2.719-.29.62,1.271-.662,1.328-.042,0-.092.007-.148.007a5.474,5.474,0,0,1-1.629-.312,10.531,10.531,0,0,1-.68,1.459c.527.91,1.6,1.041,2.482,1.229.981.255-.2.818-.729.878a3.343,3.343,0,0,1-.563.046,4.065,4.065,0,0,1-2.167-.666,11.242,11.242,0,0,1-6.334,4.128,8.957,8.957,0,0,1-1.855.195c-4.61,0-9.036-3.534-11.093-8.225-.29-.616.308-.546.481-.11,4.953,7.545,15.218,9.259,18.766-.754.3-1.176,1.873-.744,2.075.287a3.8,3.8,0,0,0,2.057.51" transform="translate(-238.67 -196.4)" fill="#45133e"/>
        <path id="Trazado_1321274" data-name="Trazado 1321274" d="M353.742,319.595a3.878,3.878,0,0,1-.56,2.255,9.777,9.777,0,0,1-1.476,2.008,18.66,18.66,0,0,1-1.689,1.611,25.558,25.558,0,0,1-3.849,2.684,24.317,24.317,0,0,1-4.242,1.944,14.7,14.7,0,0,1-2.231.595,9.143,9.143,0,0,1-1.643.167q-.191,0-.382-.011a3.7,3.7,0,0,1-1.94-.609,2.135,2.135,0,0,1-.846-1.519,3.533,3.533,0,0,1,.357-1.774,8.427,8.427,0,0,1,1.236-1.908,19.132,19.132,0,0,1,3.728-3.367,27.028,27.028,0,0,1,3.3-2.015,23.839,23.839,0,0,1,2.436-1.1c.145-.057.287-.11.432-.163a.414.414,0,0,1,.064-.018c.425-.152.857-.29,1.292-.41a11.647,11.647,0,0,1,2.117-.407,5.066,5.066,0,0,1,2.556.294,2.451,2.451,0,0,1,.953.754,2.1,2.1,0,0,1,.382.992" transform="translate(-184.142 -174.599)" fill="#45133e"/>
        <path id="Trazado_1321275" data-name="Trazado 1321275" d="M459.443,322.257a3.487,3.487,0,0,1,.464,2.1,2.156,2.156,0,0,1-1.236,1.607,4.481,4.481,0,0,1-1.958.386c-.156,0-.308,0-.457-.014a14.92,14.92,0,0,1-4.734-1.211,23.11,23.11,0,0,1-3.3-1.667,19.577,19.577,0,0,1-3.75-2.889,10.98,10.98,0,0,1-1.313-1.555,4.834,4.834,0,0,1-.853-1.972,2.269,2.269,0,0,1,.464-1.795,2.761,2.761,0,0,1,1.65-.871,7.372,7.372,0,0,1,2.316-.008,13.8,13.8,0,0,1,2.39.56,20.852,20.852,0,0,1,2.3.892c.34.149.672.311,1,.482a4.03,4.03,0,0,1,.4.216c.106.046.209.11.311.163.205.113.407.23.609.351.322.188.637.386.949.591.159.1.319.209.474.319.081.061.167.117.248.181.141.082.273.2.4.287a16.986,16.986,0,0,1,2.089,1.82,9.114,9.114,0,0,1,1.533,2.032" transform="translate(-243.205 -172.818)" fill="#45133e"/>
        <path id="Trazado_1321276" data-name="Trazado 1321276" d="M397.812,416.251a.686.686,0,0,1,.163.945c-1.622,2.815-4.621,5.028-8,4.373-3.959-.722-6.008-5.314-5-8.99a.681.681,0,0,1,1.331.29c-1.593,6.256,5.378,10.275,9.521,5,.613-.531.96-2.17,1.986-1.618" transform="translate(-211.553 -226.59)" fill="#45133e"/>
        <g id="Grupo_1188456" data-name="Grupo 1188456" transform="translate(208.701 174.856)" opacity="0.5">
          <g id="Grupo_1188455" data-name="Grupo 1188455">
            <g id="Grupo_1188454" data-name="Grupo 1188454" clip-path="url(#clip-path-3)">
              <path id="Trazado_1321277" data-name="Trazado 1321277" d="M473.6,394.174a10.582,10.582,0,0,1-.772,4.975,6.957,6.957,0,0,1-2.489,3.2,3.922,3.922,0,0,1-2.064.673h-.032a3.654,3.654,0,0,1-2.192-.736,6.416,6.416,0,0,1-2.234-4.122,10.553,10.553,0,0,1,.195-4.4.46.46,0,0,0,.018-.067.262.262,0,0,0,.014-.057c.01-.036.021-.074.032-.113,0-.007,0-.014.007-.021.011-.042.025-.088.036-.131a.182.182,0,0,0,.01-.028c.011-.032.022-.067.032-.1s.014-.046.022-.067.007-.022.01-.032a.9.9,0,0,1,.028-.092c.067-.209.142-.414.226-.616a.12.12,0,0,1,.014-.032,8.574,8.574,0,0,1,.871-1.618,6.506,6.506,0,0,1,.758-.917l.054-.053a4.79,4.79,0,0,1,2.167-1.249,3.5,3.5,0,0,1,1.919.092,4.141,4.141,0,0,1,1.813,1.292,7.547,7.547,0,0,1,1.558,4.221" transform="translate(-463.669 -388.476)" fill="#ec7380"/>
            </g>
          </g>
        </g>
        <g id="Grupo_1188459" data-name="Grupo 1188459" transform="translate(142.477 174.282)" opacity="0.5">
          <g id="Grupo_1188458" data-name="Grupo 1188458">
            <g id="Grupo_1188457" data-name="Grupo 1188457" clip-path="url(#clip-path-4)">
              <path id="Trazado_1321278" data-name="Trazado 1321278" d="M331.67,394.6a7.628,7.628,0,0,1-1.77,5.028,7.51,7.51,0,0,1-4.2,2.535,7.947,7.947,0,0,1-1.611.17,7.2,7.2,0,0,1-1.069-.078,7.859,7.859,0,0,1-2.627-.892,7.406,7.406,0,0,1-2.3-2l-.039-.049a7.492,7.492,0,0,1-.715-1.165c-.074-.149-.145-.3-.212-.46a7.785,7.785,0,0,1-.552-3.658l.011-.075c.007-.049.01-.1.018-.149a7.567,7.567,0,0,1,9.093-6.437,7.568,7.568,0,0,1,5.98,7.234" transform="translate(-316.54 -387.2)" fill="#ec7380"/>
            </g>
          </g>
        </g>
        <path id="Trazado_1321279" data-name="Trazado 1321279" d="M522.4,645.664c2.953,23.652,3.215,58.379-29.338,56.754-9.971-.5-18.083-7.439-23.118-15.632-11.872-19.2-11.033-45.743-7.312-67.306a74.179,74.179,0,0,1,7.744-21.535c3.622-5.923,9.836-17.406,18.086-15.317.485-.425,1-.1,1.494.276a.66.66,0,0,1,.435.326,1.915,1.915,0,0,0,.39.223,52.128,52.128,0,0,1,10.643,9.988C513.8,608.051,519.4,627.064,522.4,645.664" transform="translate(-253.046 -320.245)" fill="#ef9a97"/>
        <path id="Trazado_1321280" data-name="Trazado 1321280" d="M173.459,619.751a97.359,97.359,0,0,1,3.2,37.347c-1.041,9.121-2.184,18.553-6.422,26.814-5.772,10.254-20.819,20.026-32.805,19.2-9.33-.358-16.276-8.6-18.093-17.289-2.312-11.323.755-22.873,3.53-33.842a231.621,231.621,0,0,1,14.549-40.141c4.44-8.965,8.5-18.383,15.058-26.045,4.6-7.492,11.957,9.3,13.713,12.75a117.675,117.675,0,0,1,7.273,21.2" transform="translate(-65.174 -321.078)" fill="#ef9a97"/>
        <path id="Trazado_1321281" data-name="Trazado 1321281" d="M353.772,574.67c1.257,29.94-18.075,56.92-41.727,73.565-13.869,9.939-29.239,18.327-45.944,22.25a.584.584,0,0,1-.46-.124c-16.655-3.937-31.987-12.308-45.82-22.218-23.649-16.645-42.984-43.625-41.727-73.565.319-8.806,2.05-17.774,6.4-25.518a52.918,52.918,0,0,1,18.617-18.886c15.356-8.714,35.248-6.26,49.7,3.2a40.1,40.1,0,0,1,12,11.486q.595.871,1.155,1.767c.351-.567.719-1.126,1.094-1.675a40.15,40.15,0,0,1,12-11.486c14.453-9.457,34.345-11.911,49.7-3.2a52.955,52.955,0,0,1,18.617,18.886c4.348,7.747,6.079,16.712,6.4,25.518" transform="translate(-97.9 -288.581)" fill="#eb6670"/>
        <g id="Grupo_1188462" data-name="Grupo 1188462" transform="translate(80.135 236.214)" opacity="0.3" style="mix-blend-mode: multiply;isolation: isolate">
          <g id="Grupo_1188461" data-name="Grupo 1188461">
            <g id="Grupo_1188460" data-name="Grupo 1188460" clip-path="url(#clip-path-5)">
              <path id="Trazado_1321282" data-name="Trazado 1321282" d="M300.92,655.12c.379-.064.758-.131,1.137-.2q-1.768,1.105-3.573,2.156v0c-.1.057-.188.11-.283.163s-.184.11-.28.163c-.464.269-.931.538-1.4.8A115.612,115.612,0,0,1,266.1,670.483a.836.836,0,0,1-.1.007.606.606,0,0,1-.368-.131c-16.655-3.938-31.987-12.308-45.82-22.218-23.649-16.645-42.984-43.625-41.727-73.565.319-8.806,2.05-17.774,6.4-25.518a52.925,52.925,0,0,1,18.617-18.886,42.2,42.2,0,0,1,18.43-5.3c.01,0,.025,0,.039,0l.648-.032a.261.261,0,0,0,.053,0c.425-.018.853-.031,1.278-.039a.338.338,0,0,0,.06,0c1.03-.014,2.064.007,3.1.057-.616.269-1.228.549-1.841.835-.372.177-.744.358-1.112.549a1.023,1.023,0,0,1-.658.51,1.194,1.194,0,0,1-.372.025c-.436.23-.871.468-1.3.719-1.232.719-2.429,1.491-3.6,2.294.014-.01.028-.025.042-.035q-1.28.9-2.5,1.869c-.793.634-1.551,1.321-2.295,2.011.011-.014.025-.025.036-.039-.124.12-.248.237-.375.357-.786.758-1.558,1.533-2.294,2.341-.684.75-1.339,1.529-1.98,2.323a0,0,0,0,0,0,0c-.018.018-.032.039-.046.057a51.845,51.845,0,0,0-3.516,5.1c-.007.014-.018.032-.028.05q-.43.786-.843,1.586c-.556,1.062-1.055,2.156-1.544,3.25-.5,1.182-.977,2.369-1.43,3.572-.442,1.179-.829,2.376-1.2,3.58a.539.539,0,0,0-.025.081.8.8,0,0,0-.025.081c-.361,1.222-.715,2.454-1,3.7-.3,1.285-.566,2.574-.8,3.874l.011-.042c-.2,1.2-.375,2.4-.517,3.6-.135,1.19-.23,2.383-.3,3.579-.071,1.431-.11,2.858-.113,4.292s.057,2.864.131,4.291c.1,1.565.23,3.119.415,4.677s.432,3.119.7,4.67a92.565,92.565,0,0,0,2.2,9.046c.418,1.321.853,2.631,1.321,3.934.457,1.278.984,2.531,1.519,3.778a.741.741,0,0,0-.039-.074c.7,1.565,1.438,3.1,2.224,4.624s1.665,3.027,2.557,4.5c.991,1.59,2.015,3.151,3.094,4.681,1.1,1.554,2.263,3.066,3.449,4.556.01.011.018.022.032.036a105.744,105.744,0,0,0,8.558,9.256l-.071-.06c.039.036.074.071.113.1,1.628,1.529,3.3,3.006,5.035,4.412s3.516,2.73,5.339,4c1.792,1.211,3.612,2.376,5.488,3.452q2.905,1.662,5.917,3.116c2.294,1.073,4.624,2.05,6.993,2.949,2.312.878,4.673,1.625,7.05,2.316,2.627.729,5.272,1.335,7.956,1.841,2.755.521,5.545.875,8.342,1.133a100.773,100.773,0,0,0,16.635.018c.265-.025.527-.05.789-.071,2.708-.262,5.41-.591,8.1-1.041" transform="translate(-178.035 -524.793)" fill="#c64246"/>
            </g>
          </g>
        </g>
        <g id="Grupo_1188465" data-name="Grupo 1188465" transform="translate(197.907 242.19)" style="mix-blend-mode: soft-light;isolation: isolate">
          <g id="Grupo_1188464" data-name="Grupo 1188464">
            <g id="Grupo_1188463" data-name="Grupo 1188463" clip-path="url(#clip-path-6)">
              <path id="Trazado_1321283" data-name="Trazado 1321283" d="M490.271,574.47c1.721,6.777.7,22.838-8.5,23.223-7.651-1.363-8.222-10.909-11.231-16.638a25.386,25.386,0,0,0-8.282-9.524c-5.923-4.879-13.557-7.418-18.752-13.185-5.6-5.842-5.307-15.25,2.624-18.794,8.714-3.806,18.7.315,25.833,5.644,9.376,7.138,16.326,17.573,18.305,29.275" transform="translate(-439.688 -538.07)" fill="#fff"/>
            </g>
          </g>
        </g>
        <g id="Grupo_1188468" data-name="Grupo 1188468" transform="translate(233.615 304.513)" style="mix-blend-mode: soft-light;isolation: isolate">
          <g id="Grupo_1188467" data-name="Grupo 1188467">
            <g id="Grupo_1188466" data-name="Grupo 1188466" clip-path="url(#clip-path-7)">
              <path id="Trazado_1321284" data-name="Trazado 1321284" d="M528.75,681.111a9.2,9.2,0,0,1-.078,2.61,10.61,10.61,0,0,1-.715,2.454,9.177,9.177,0,0,1-1.055,1.862,1.152,1.152,0,0,1-.255.326c-.018.018-.032.036-.05.057-.081.1-.166.188-.251.28a6.094,6.094,0,0,1-1.317,1.09,4.419,4.419,0,0,1-1.243.51,3.306,3.306,0,0,1-.765.089,3.552,3.552,0,0,1-.956-.135,4.221,4.221,0,0,1-2.624-2.819,8.57,8.57,0,0,1-.3-4.167,9.8,9.8,0,0,1,2.107-4.784c1.126-1.345,2.963-2.425,4.741-1.742s2.542,2.627,2.758,4.369" transform="translate(-519.019 -676.531)" fill="#fff"/>
            </g>
          </g>
        </g>
        <path id="Trazado_1321285" data-name="Trazado 1321285" d="M268.062,611.524c1.438,3.941-7.227,6.869-11.557,8.5.014,0,.025,0,.039,0,3.5-.106,7.244-.75,10.64.3,4.638,3.123-3.583,6.225-6.111,6.968-2.252.729-4.539,1.342-6.837,1.912,4.369.3,8.717,1.526,6,4.631-2.606,1.8-5.959,1.958-8.954,2.74-5.156,1.236-10.555,1.976-15.685,3.2-4.518,1.005-6.165,5.718-8.473,9.167a183.818,183.818,0,0,1-43.894,48.787c-7.064,5.215-14.843,11.263-24.027,11.206-20.976-1.7-12.917-28.283-5.556-40.035a85.777,85.777,0,0,1,19.428-22.045c.184-.156.368-.308.556-.457.067-.06.138-.117.209-.17q2.5-2.045,5.106-3.927c.436-.319.868-.63,1.307-.938q2.624-1.864,5.322-3.6c.361-.234.722-.468,1.087-.7s.73-.467,1.094-.69q1.094-.691,2.2-1.356c.357-.219.715-.435,1.076-.651a.126.126,0,0,1,.032-.014c3.544-2.124,7.145-4.157,10.732-6.214,5.584-3.084,11.188-6.663,13.975-12.612,1.671-3.172,3.094-6.462,4.55-9.737,1.179-2.2,1.721-5.148,4.033-6.437,4.571-1.445,5.488,4.351,5.414,8.746a88.37,88.37,0,0,1,17.144-7.043c2.634-.584,15.462-4.567,15.051.23-.846,4.167-8.674,7.676-12.1,9.981a.383.383,0,0,0-.049.032,62.127,62.127,0,0,1,15.845-1.257,3.149,3.149,0,0,1,2.408,1.487" transform="translate(-80.16 -329.354)" fill="#ef9a97"/>
        <path id="Trazado_1321286" data-name="Trazado 1321286" d="M151.954,710.7a.456.456,0,0,1-.294-.57,65.586,65.586,0,0,1,9.932-17.739c11.781-15.454,28.586-25.876,45.406-35.06,1.1-.619,2.236-1.167,3.289-1.827a.46.46,0,0,1,.641.039c.774.8-2.878,2.058-3.424,2.546-19.718,10.691-39.678,23.538-50.969,43.547a60.176,60.176,0,0,0-4.012,8.77.46.46,0,0,1-.57.294" transform="translate(-83.383 -360.395)" fill="#45133e"/>
        <path id="Trazado_1321287" data-name="Trazado 1321287" d="M410.582,717.909a17.616,17.616,0,0,1-6.526,21.131c-4.15,2.879-9.429,3.01-14.3,2.734-14.212-.892-26.75-8.313-39.029-14.868-15.965-8.2-30.889-18.167-46.27-27.352-4.061-2.266-8.246-4.227-12.463-6.168-3.3-1.728-7.312-2.967-9.592-6.051-1.452-3.711,2.733-3.679,6.126-3.126a37.575,37.575,0,0,1-9.741-6.89c-1.328-1.317-2.047-4.139.276-4.8,1.689-.425,3.388.3,5,.747q3.224,1.015,6.352,2.3c-3.583-2.843-7.134-5.764-9.67-9.539-2.51-6.667,7.082-2.453,9.819-1.271,2.8,1.236,5.555,2.564,8.236,4.037q-1.912-1.976-3.817-3.966c-2.319-2.627-5.485-5.038-6.366-8.569-.389-4.125,4.136-2.411,6.331-1.391a65.921,65.921,0,0,1,22.352,16c1.544-5.219,8.933-12.4,10.753-3.65,1.349,5.173.875,11.348,5.057,15.2,12.428,9.135,28.715,8.863,43.136,12.6,9.44,2.021,18.759,5.881,26.088,12.226.022.018.043.036.06.053a32.976,32.976,0,0,1,4.384,4.426,7.714,7.714,0,0,1,1.08,1.413,25.979,25.979,0,0,1,2.726,4.762" transform="translate(-152.625 -359.43)" fill="#ef9a97"/>
        <path id="Trazado_1321288" data-name="Trazado 1321288" d="M450.014,719.174A66.932,66.932,0,0,0,422.835,706.7c-11.543-2.969-23.822-3.589-34.847-8.423-6.277-2.461-11.033-6.925-11.773-13.9-.747-3.043.106-9.459-4.44-9.125-3.1.808-4.939,4.1-5.871,6.933-.077.375-.4.858-.828.591a.462.462,0,0,1-.131-.63A13.685,13.685,0,0,1,369,675.677c2.113-2.1,5.841-1.739,6.855,1.271,1.719,6.326.7,13.16,6.911,17.4,7.526,5.185,16.654,6.723,25.426,8.469,10.354,1.942,20.976,3.64,30.51,8.331a60.744,60.744,0,0,1,11.911,7.34.454.454,0,0,1-.6.687" transform="translate(-200.64 -370.818)" fill="#45133e"/>
        <path id="Trazado_1321289" data-name="Trazado 1321289" d="M322.81,678a104.579,104.579,0,0,1-15.7-13.568,28.011,28.011,0,0,1-5.29-7.117c-.7-1.432-1.035-3.584.931-4.087,5.463-.964,15.14,6.182,19.545,9.426a65.1,65.1,0,0,1,7.927,7.429c.248.232.508.608.184.9-.74.427-1.2-.878-1.72-1.243a65.079,65.079,0,0,0-7.747-6.986c-4.746-3.463-9.757-6.859-15.416-8.558-5.9-1.438-2.532,3.916-.673,6.267,4.776,5.862,10.563,10.773,16.461,15.42.473.5,3.043,1.674,1.5,2.121" transform="translate(-165.668 -359.154)" fill="#45133e"/>
        <path id="Trazado_1321290" data-name="Trazado 1321290" d="M307.356,695.169c-6.035-3.455-12.226-6.818-17.409-11.511-6.535-5.3-11.735-14.862,1.763-9.659a80.15,80.15,0,0,1,9.96,4.39.452.452,0,1,1-.386.818,80.077,80.077,0,0,0-7.639-3.5c-17.968-7.562-6.181,5.526.781,10.45a147.754,147.754,0,0,0,13.291,8.186.454.454,0,1,1-.36.828" transform="translate(-155.763 -369.8)" fill="#45133e"/>
        <path id="Trazado_1321291" data-name="Trazado 1321291" d="M299.776,712.66c-6.8-3.022-13.938-5.852-19.7-10.661-2.18-1.759-5.375-6.3-.861-7.248,2.979-.132,5.842,1.11,8.593,2.107.52.34,1.887.319,1.777,1.129a.459.459,0,0,1-.57.294c-1.565-.584-3.108-1.214-4.7-1.717-1.944-.624-7.605-2.36-6.243,1.569,1.8,3.276,5.238,5.322,8.339,7.131,3.893,2.187,7.957,4.043,12.028,5.87.587.391,1.954.455,2.078,1.182a.477.477,0,0,1-.747.344" transform="translate(-152.282 -382.032)" fill="#45133e"/>
        <path id="Trazado_1321292" data-name="Trazado 1321292" d="M379.114,775.293c-13.3-5.448-25.879-12.62-38.13-20.108-9.08-5.15-18.071-10.447-26.888-16.039a125.518,125.518,0,0,0-14.5-7.722c-3.571-1.985-11.188-4.073-12.328-8.229a2.672,2.672,0,0,1,2.627-3.166c.632-.09,4.664-.279,4.061.953a.507.507,0,0,1-.677.127c-1.561-.265-3.5-.6-4.791.474-2.172,3.393,6.16,6.369,8.4,7.585a161.592,161.592,0,0,1,14.63,7.364c10.343,6.423,20.761,12.694,31.342,18.716,6.606,4.1,13.274,8.011,20.221,11.462,5.4,2.623,10.671,5.7,16.316,7.722a.453.453,0,0,1-.28.861" transform="translate(-157.924 -395.901)" fill="#45133e"/>
        <path id="Trazado_1321293" data-name="Trazado 1321293" d="M158.227,126.708c.053,4.258-3.317,8.981-7.984,7.914-10.211-2.421-6.285-20.484-5.42-28.057.444-2.385,6.631,4.449,7.223,5.294,3.367,4.194,6.255,9.331,6.182,14.849" transform="translate(-78.832 -58.323)" fill="#ec7380"/>
        <path id="Trazado_1321294" data-name="Trazado 1321294" d="M155.926,123.112c.673,2.506.1,7.423-3.559,6.173-4.82-2.841-4.479-10.861-4.964-15.808-.123-1.768-.2-3.541-.383-5.3a.572.572,0,0,1,.427-.676.6.6,0,0,1,.706.621.591.591,0,0,1,.488.23c.776.994,1.506,2.032,2.194,3.091a36.322,36.322,0,0,1,5.091,11.67" transform="translate(-80.839 -59.106)" fill="#f1b1c4"/>
        <path id="Trazado_1321295" data-name="Trazado 1321295" d="M106.826,99.312c.032,1.465.015,2.926-.062,4.388-.377,7.773-3.179,19.355-12.9,19.01-7.637-.762-14.052-6.108-19.184-11.446-3.209-3.205-6.664-8.3-2.682-12.316,4.041-4.026,9.97-5.32,15.49-5.608,6.338-.176,14.8-.271,18.851,5.379a.56.56,0,0,1,.488.594" transform="translate(-38.606 -51.296)" fill="#ab76f2"/>
        <path id="Trazado_1321296" data-name="Trazado 1321296" d="M95.1,106.956a3.225,3.225,0,0,1-.376,2.091,6.729,6.729,0,0,1-3,2.7,11.116,11.116,0,0,1-2.553.915.08.08,0,0,1-.029.006c-.065.015-.13.029-.194.041a.522.522,0,0,1-.074.014l-.035.009c-.191.038-.385.071-.579.1a11.414,11.414,0,0,1-1.518.12H86.66a7.99,7.99,0,0,1-3.582-.75,3.994,3.994,0,0,1-1.721-1.544,2.986,2.986,0,0,1-.3-2.176,5.567,5.567,0,0,1,2.676-3.2,10.2,10.2,0,0,1,2.064-.956,11.054,11.054,0,0,1,2.089-.5,9.479,9.479,0,0,1,4.24.271c.018.006.032.009.047.015l.032.009a5.19,5.19,0,0,1,1.785.974,3.57,3.57,0,0,1,.664.747,3.08,3.08,0,0,1,.444,1.12" transform="translate(-44.527 -57.025)" fill="#f1b1c4"/>
        <path id="Trazado_1321297" data-name="Trazado 1321297" d="M110.492,125.595a3.086,3.086,0,0,1,.015,1.065,6.609,6.609,0,0,1-2.012,3.57c-.079.08-.158.156-.241.23,0,0,0,0-.006,0a8.3,8.3,0,0,1-3.259,1.877h-.006c-.021.006-.038.012-.056.015a5.434,5.434,0,0,1-1.229.191c-.044,0-.088,0-.132,0a2.961,2.961,0,0,1-1.971-.673,2.457,2.457,0,0,1-.564-.756,2.713,2.713,0,0,1-.244-1.147,4.342,4.342,0,0,1,.456-1.894A8.124,8.124,0,0,1,103.878,125a8.256,8.256,0,0,1,1.926-1.05,5.306,5.306,0,0,1,2.07-.383,3.7,3.7,0,0,1,1.044.191,2.518,2.518,0,0,1,1.035.7,2.4,2.4,0,0,1,.538,1.135" transform="translate(-55.421 -67.947)" fill="#f1b1c4"/>
        <path id="Trazado_1321298" data-name="Trazado 1321298" d="M128.77,135.684a4.208,4.208,0,0,1-.109,1.888,5.8,5.8,0,0,1-2.061,3.179c-.009.009-.021.014-.032.023a3,3,0,0,1-1.064.488,1.755,1.755,0,0,1-1.532-.365,2.652,2.652,0,0,1-.73-2.161,5.419,5.419,0,0,1,.582-2.132,5.818,5.818,0,0,1,1.168-1.641,2.979,2.979,0,0,1,1.941-.956,1.687,1.687,0,0,1,1.347.594,2.417,2.417,0,0,1,.491,1.082" transform="translate(-67.767 -73.689)" fill="#f1b1c4"/>
        <path id="Trazado_1321299" data-name="Trazado 1321299" d="M173.835,111.512c4.258.053,8.981-3.317,7.914-7.984-2.421-10.211-20.484-6.285-28.057-5.42-2.385.444,4.449,6.632,5.294,7.223,4.194,3.367,9.331,6.255,14.849,6.182" transform="translate(-84.238 -53.144)" fill="#ec7380"/>
        <path id="Trazado_1321300" data-name="Trazado 1321300" d="M170.238,109.21c2.506.673,7.423.1,6.173-3.558-2.841-4.821-10.861-4.479-15.807-4.965-1.768-.123-3.541-.2-5.3-.382a.572.572,0,0,0-.676.426.6.6,0,0,0,.621.706.59.59,0,0,0,.23.488c.994.776,2.032,1.506,3.091,2.194a36.322,36.322,0,0,0,11.67,5.091" transform="translate(-85.02 -55.151)" fill="#f1b1c4"/>
        <path id="Trazado_1321301" data-name="Trazado 1321301" d="M146.438,60.11c1.465.032,2.926.015,4.388-.062,7.773-.377,19.355-3.179,19.01-12.9-.762-7.638-6.108-14.052-11.446-19.184-3.206-3.209-8.3-6.664-12.317-2.682-4.026,4.041-5.32,9.969-5.608,15.49-.176,6.338-.271,14.8,5.379,18.851a.56.56,0,0,0,.594.488" transform="translate(-77.21 -12.917)" fill="#ab76f2"/>
        <path id="Trazado_1321302" data-name="Trazado 1321302" d="M154.082,48.385a3.223,3.223,0,0,0,2.091-.376,6.728,6.728,0,0,0,2.7-3,11.116,11.116,0,0,0,.915-2.553.081.081,0,0,0,.006-.029c.015-.065.029-.13.041-.194a.524.524,0,0,0,.014-.074l.009-.035c.038-.191.071-.385.1-.579a11.414,11.414,0,0,0,.12-1.518v-.079a7.99,7.99,0,0,0-.75-3.582,3.994,3.994,0,0,0-1.544-1.721,2.986,2.986,0,0,0-2.176-.3,5.567,5.567,0,0,0-3.2,2.676,10.2,10.2,0,0,0-.956,2.064,11.057,11.057,0,0,0-.5,2.088,9.48,9.48,0,0,0,.271,4.241c.006.018.009.032.015.047s.006.023.009.032a5.191,5.191,0,0,0,.974,1.785,3.571,3.571,0,0,0,.747.664,3.08,3.08,0,0,0,1.12.444" transform="translate(-82.939 -18.838)" fill="#f1b1c4"/>
        <path id="Trazado_1321303" data-name="Trazado 1321303" d="M172.721,63.776a3.086,3.086,0,0,0,1.065.015,6.609,6.609,0,0,0,3.57-2.012c.08-.079.156-.158.23-.241,0,0,0,0,0-.006a8.3,8.3,0,0,0,1.876-3.259v-.006c.006-.021.012-.038.015-.056a5.409,5.409,0,0,0,.191-1.229c0-.044,0-.088,0-.132A2.961,2.961,0,0,0,179,54.88a2.458,2.458,0,0,0-.756-.564,2.712,2.712,0,0,0-1.147-.244,4.339,4.339,0,0,0-1.894.456,8.122,8.122,0,0,0-3.076,2.635,8.272,8.272,0,0,0-1.05,1.926,5.307,5.307,0,0,0-.383,2.07,3.7,3.7,0,0,0,.191,1.044,2.518,2.518,0,0,0,.7,1.035,2.409,2.409,0,0,0,1.135.538" transform="translate(-93.861 -29.732)" fill="#f1b1c4"/>
        <path id="Trazado_1321304" data-name="Trazado 1321304" d="M182.81,82.054a4.208,4.208,0,0,0,1.888-.109,5.8,5.8,0,0,0,3.179-2.062c.009-.009.014-.021.023-.032a3,3,0,0,0,.488-1.065,1.755,1.755,0,0,0-.365-1.532,2.652,2.652,0,0,0-2.161-.73,5.419,5.419,0,0,0-2.132.582,5.819,5.819,0,0,0-1.641,1.168,2.979,2.979,0,0,0-.956,1.941,1.688,1.688,0,0,0,.594,1.347,2.426,2.426,0,0,0,1.083.491" transform="translate(-99.604 -42.078)" fill="#f1b1c4"/>
        <path id="Trazado_1321305" data-name="Trazado 1321305" d="M137.729,90.582c.579,1.162,1.344,3.206-.224,3.952a2.081,2.081,0,0,1-.879.168c-.047,0-.1,0-.144,0a5.156,5.156,0,0,1-.97-.141,11.043,11.043,0,0,1-1.962-.718,26.8,26.8,0,0,1-3.732-2.147c-1.221-.812-2.394-1.688-3.532-2.6-.132-.106-.265-.215-.385-.311a62.416,62.416,0,0,1-6.435-6.035,42.638,42.638,0,0,1-2.873-3.429c-.262-.35-.518-.706-.765-1.07l-.02-.03c-.315-.465-.612-.941-.882-1.432a8.017,8.017,0,0,1-.918-2.247c0-.018-.006-.032-.009-.05a.209.209,0,0,1-.006-.044c-.014-.079-.026-.156-.035-.235s-.015-.132-.015-.2c-2.323-2.282-5.252-4.773-7.39-3.535-1.314,1.044-.064,3.618,1.565,3.091a.992.992,0,0,0,.659-.844.608.608,0,0,1,.3-.756c.809-.291.971.788.741,1.338-2.232,4.2-7.364-1.48-3.664-3.92,2.776-1.4,5.57,1.194,7.57,2.885.185.167.368.335.55.509a1.225,1.225,0,0,1,.37-.347,12.565,12.565,0,0,1-3.844-6.117c-.6-2.259,1.053-4.723,3.514-3.656a3.235,3.235,0,0,1,2.161,3.165,1.485,1.485,0,0,1-2.708.738.564.564,0,0,1,.959-.594.378.378,0,0,0,.229.144c.224.027.377-.23.4-.433a2.17,2.17,0,0,0-2.782-2c-1.406,1.038-.556,3.144.071,4.4a17.053,17.053,0,0,0,3.32,4.053,6.1,6.1,0,0,1,1.544.329,14.218,14.218,0,0,1,1.926.823,29.577,29.577,0,0,1,3.42,2.053c1.2.814,2.356,1.688,3.479,2.6a62.335,62.335,0,0,1,6.361,5.917c.971,1.038,1.9,2.111,2.77,3.238a21.711,21.711,0,0,1,2.268,3.485" transform="translate(-57.655 -34.314)" fill="#45133e"/>
        <path id="Trazado_1321306" data-name="Trazado 1321306" d="M433.45,35.445c2.047,4.676-1.612,10.952-5.188,13.966.088.506-.474.821-.758,1.165-.782.876-2.165,1.694-3.18.685-2.676-4.191-2.088-13.94,1.659-17.452,2.283-2.391,6.185-1.214,7.467,1.635" transform="translate(-232.423 -17.885)" fill="#eb6670"/>
        <path id="Trazado_1321307" data-name="Trazado 1321307" d="M423.726,52.241a1.92,1.92,0,0,1,.665,2.42c-1.2,3.023-6.491,5.008-9.867,5.12a2.346,2.346,0,0,1-.2.885C413.006,64.4,401.49,75.207,397.37,73.69c-4.467-2.629,8-10.443,10-12.2a.562.562,0,0,1,.329-.629,12.765,12.765,0,0,0,1.226-.791,12.466,12.466,0,0,1,3.573-2.094,2.018,2.018,0,0,1,.523-.036,9.066,9.066,0,0,0,1.735-1.567c1.109-1.388,2.658-4.144.853-5.523-.63-.326-1.871.388-1.594,1.106.383.086.876.2.815.7-.176.891-1.467.426-1.8-.126-.791-1.382.824-2.918,2.2-2.9,2.708.176,2.688,3.72,1.626,5.541a10.874,10.874,0,0,1-2.694,3.379,1.036,1.036,0,0,1,.1.15,14.859,14.859,0,0,0,8.088-3.038c.888-.579,1.882-3.1-.065-2.394-.185.109-.438.285-.37.532a.589.589,0,0,1-.359.8.61.61,0,0,1-.747-.577c-.323-1.5,1.727-2.5,2.918-1.788" transform="translate(-217.982 -27.294)" fill="#45133e"/>
        <path id="Trazado_1321308" data-name="Trazado 1321308" d="M386.652,28.99c8.317,1.9,14.9,11.155,11.117,19.448-3.038,5.75-11.911,12.973-18.6,13-10.6-2.2-5.111-14.052,7.144-9.77-3.2-2.991-6.45-6.211-8.029-10.39-2.644-6.252.623-14.254,8.367-12.287" transform="translate(-205.407 -15.774)" fill="#ec7380"/>
        <path id="Trazado_1321309" data-name="Trazado 1321309" d="M406.28,56.687c.065.191.129.385.188.579a11.623,11.623,0,0,1-.188,1.294c-.041.209-.091.42-.144.629-.029.121-.065.244-.1.365s-.062.212-.094.317a.448.448,0,0,1-.021.059v0a12.353,12.353,0,0,1-.5,1.274,26.569,26.569,0,0,1-6.279,7.346h0c-.229.194-.465.385-.7.573-.109.088-.221.174-.332.259-.047.038-.094.074-.144.112-.538.412-1.088.809-1.65,1.182q-.918.242-1.85.42a14.3,14.3,0,0,1-2.65.268,10.388,10.388,0,0,1-1.655-.129,3.94,3.94,0,0,1-2.044-.9,2.076,2.076,0,0,1-.615-1.029,2.035,2.035,0,0,1,.1-1.168,3.367,3.367,0,0,1,1.524-1.582,7.214,7.214,0,0,1,1.938-.712,12.592,12.592,0,0,1,4.238-.217c.444.05.885.117,1.323.2-.053-.056-.106-.112-.156-.171-.5-.564-.976-1.153-1.441-1.747a41.516,41.516,0,0,1-2.735-3.852,20.72,20.72,0,0,1-1.118-2.035,10.206,10.206,0,0,1-.765-2.179,4.273,4.273,0,0,1,.088-2.338,2.272,2.272,0,0,1,2.182-1.6,3.246,3.246,0,0,1,.994.153,4.858,4.858,0,0,1,1.053.477,7.432,7.432,0,0,1,1,.7,13.874,13.874,0,0,1,1.6,1.541q.75.838,1.447,1.717c.188.235.376.471.561.709.009-.312.03-.621.068-.929a8.187,8.187,0,0,1,.5-2.117,2.971,2.971,0,0,1,1.611-1.8,2.515,2.515,0,0,1,2.364.5,6.049,6.049,0,0,1,1.447,1.721,11.587,11.587,0,0,1,.959,2.111" transform="translate(-213.056 -28.543)" fill="#efa444"/>
        <path id="Trazado_1321310" data-name="Trazado 1321310" d="M45.969,174.576c1.2,2.562,1.085,5.532.7,8.276a5.121,5.121,0,0,1-.135.579v.009a.572.572,0,0,1-.565.564q-3.246.036-6.487.065-4.561.049-9.12.094t-9.14.094q-4.707.045-9.411.094l-9.094.095c-.4,0-.8.006-1.2.012H1.487a.57.57,0,0,1-.556-.5v-.006c-3.191-6.537,2.4-13.4,8-11.055-2.332-6.9-.036-15.09,6.27-19.049,11.387-6.735,22.351-.623,23.189,12.517a22.646,22.646,0,0,1,.012,4.353c2.868-1.114,6.367.982,7.567,3.862" transform="translate(0 -83.079)" fill="#f5cdcb"/>
        <path id="Trazado_1321311" data-name="Trazado 1321311" d="M230.374,12.448c.038.6.165,2.556-.365,3.235v0a.573.573,0,0,1-.564.568l-6.6.053-8.728.071q-4.377.031-8.747.068c-.311,0-.623.006-.932.006a.023.023,0,0,1-.012,0h-.041a.5.5,0,0,1-.151-.023.51.51,0,0,1-.45-.274c-2.547-6.179,2.174-10.687,6.308-6.884-.477-3.453.838-7.235,4.138-8.732a6.253,6.253,0,0,1,8.2,3.2,11.778,11.778,0,0,1,.967,5.4,4.324,4.324,0,0,1,6.974,3.3" transform="translate(-111.664 0)" fill="#f5cdcb"/>
        <path id="Trazado_1321312" data-name="Trazado 1321312" d="M597.64,240c7.561-1.279,9.343,8.023,6.282,13.246a5.568,5.568,0,0,1-.732,1.068.573.573,0,0,1-.562.553l-7.6-.009q-4.649,0-9.293-.009-4.531,0-9.061-.006l-9.132-.009c-.629,0-1.256,0-1.885,0a.567.567,0,0,1-.523-.35c-.012-.012-.023-.024-.035-.038a.011.011,0,0,1,0-.006s-.006,0-.006,0l0,0-.009-.012c-4.77-5.661-.318-11.5,4.8-8.788a19.811,19.811,0,0,1,1.6-14.949c3.8-7.949,15.108-9.726,19-.912a28,28,0,0,1,1.788,13.5A9.791,9.791,0,0,1,597.64,240" transform="translate(-309.615 -123.124)" fill="#f5cdcb"/>
      </g>
    </g>
  </g>
</svg>
