<svg id="Grupo_1188482" data-name="Grupo 1188482" xmlns="http://www.w3.org/2000/svg" xmlns:xlink="http://www.w3.org/1999/xlink" width="315.924" height="356.321" viewBox="0 0 315.924 356.321">
  <defs>
    <clipPath id="clip-path">
      <rect id="Rectángulo_411010" data-name="Rectángulo 411010" width="315.924" height="356.321" fill="none"/>
    </clipPath>
    <clipPath id="clip-path-3">
      <rect id="Rectángulo_411007" data-name="Rectángulo 411007" width="17.959" height="17.951" fill="none"/>
    </clipPath>
    <clipPath id="clip-path-4">
      <rect id="Rectángulo_411008" data-name="Rectángulo 411008" width="11.316" height="17.119" fill="none"/>
    </clipPath>
  </defs>
  <g id="Grupo_1188481" data-name="Grupo 1188481" clip-path="url(#clip-path)">
    <g id="Grupo_1188480" data-name="Grupo 1188480">
      <g id="Grupo_1188479" data-name="Grupo 1188479" clip-path="url(#clip-path)">
        <path id="Trazado_1321313" data-name="Trazado 1321313" d="M268.062,263.225c7.8,13.877,11.3,30.037,11.1,45.9-.582,13.205-3.667,27.168-12.334,37.5a25.56,25.56,0,0,1-4.249,3.838.821.821,0,0,1-.85.1c-.611.037-1.229,0-1.836-.02a225.659,225.659,0,0,1-50.99-9.38c-14.243-4.228-28.222-9.457-42.832-12.339-10.267-2.3-20.766-2.991-31.209-3.74a1.047,1.047,0,0,1-.545-.155.72.72,0,0,1-.643-.053c-19.5-10.625-37.451-26.118-45.823-47.161-7.5-19.216-11-39.954-11.928-60.5a86.551,86.551,0,0,1,1.139-17.471c.029-.553.232-1.245.92-1.176,1.363.277.321,2.214.333,3.125-.358,2.381-.594,4.766-.729,7.154a.545.545,0,0,1,.029-.069c2.32-4.839,8.343-4.314,12.827-4.973a58.9,58.9,0,0,0,18.479-5.722c19.147-9.29,32.45-26.391,46.889-41.407,7.17-7.366,13.848-15.859,23.257-20.461,12.892-6,26.94,1.612,36.2,10.744a113.57,113.57,0,0,1,11.407,12.176c-.078-.2-.159-.4-.244-.6a1,1,0,0,0,.081.106.78.78,0,0,1,1.1-1.1,10.049,10.049,0,0,1,1.123,2.543c2.665,8.086,3.081,16.689,3.663,25.125a142.716,142.716,0,0,0,3.687,26.187,62.646,62.646,0,0,0,11.757,24.319c6.779,9.14,14.658,17.519,20.217,27.518" transform="translate(-35.527 -62.762)" fill="#45133e"/>
        <path id="Trazado_1321314" data-name="Trazado 1321314" d="M254.872,412.021c1.693,9.616,1.607,20.376-4.082,28.714-5.7,8.562-16.64,12.684-26.676,11.545-20.872-2.8-40.744-21.56-52.35-38.286-2.36-3.451-4.6-7-6.666-10.63a.716.716,0,0,1-.037-.676.725.725,0,0,1-.366-.318.78.78,0,0,1,.277-1.066,45.527,45.527,0,0,0,4.793-2.723c7.077-4.887,11.749-12.99,13.654-21.247a40.47,40.47,0,0,0-1.416-20.5,12.665,12.665,0,0,0-.529-1.367.782.782,0,0,1,1.44-.606c.232.594.452,1.188.655,1.79a8.059,8.059,0,0,1,1.859-2.567c8.4-7.728,25.243-4.159,35.291-1.388,9.433,2.478,7.085,14.218,7.626,21.657.4,13.446,9.759,21.381,21.113,26.594,3.455,2.556,4.558,7.069,5.413,11.069" transform="translate(-77.047 -163.566)" fill="#ef9a97"/>
        <path id="Trazado_1321315" data-name="Trazado 1321315" d="M249.273,387.709a47.479,47.479,0,0,1-6.747-.557q-.59-.087-1.178-.189c-.034,0-.067-.01-.1-.017q-.335-.059-.669-.123a1.627,1.627,0,0,1-.2-.038c-1.483-.288-2.955-.639-4.417-1.032-1.074-.289-2.132-.635-3.182-1-1.09-.382-2.165-.789-3.231-1.225s-2.1-.9-3.125-1.416c-.987-.5-1.965-1.006-2.92-1.564l-.081-.047-.055-.032.035.02-.035-.021-.077-.043c-.162-.1-.323-.19-.487-.286l.015.009-.037-.021-.13-.076.061.035c-.96-.569-1.894-1.186-2.808-1.826-.944-.659-1.839-1.388-2.722-2.128q-.455-.384-.888-.794c-.727-.544-1.43-1.122-2.116-1.713a27.4,27.4,0,0,1-2.45-2.4c-.171-.191-.338-.4-.5-.6-.074-.1-.148-.195-.221-.294a8.606,8.606,0,0,1-1.2-.98,2.737,2.737,0,0,1-.635-.891c0,.012.012.028.016.04-.008-.02-.016-.037-.024-.057-.1-.24.159-.366.358-.326.1.021.2.046.3.076a1.478,1.478,0,0,1,.032-.418,1.117,1.117,0,0,1,.574-.691,1.92,1.92,0,0,1,1.185-.159l.022,0a1.547,1.547,0,0,1,.393-.866,2.064,2.064,0,0,1,2.189-.281,4.9,4.9,0,0,1,1.05.578c.541.36,1.052.769,1.566,1.165l-.036-.026q1.64,1.253,3.3,2.479.859.317,1.723.622c1.048.374,2.111.707,3.174,1.032q2.621.774,5.27,1.427c1.746.435,3.508.785,5.278,1.111l-.187-.036c1.441.236,2.881.447,4.33.635s2.893.281,4.342.379c-.036,0-.073,0-.111,0l.536.024c.665-.016,1.329-.051,1.994-.087.747-.055,1.49-.115,2.233-.2l.422-.052c.025,2.512-.056,4.987.1,7.112a28.07,28.07,0,0,0,.315,3.458l-.282.009q-.421.013-.843.017.566.015,1.132.019.183,1.166.462,2.272h-.711" transform="translate(-97.902 -171.141)" fill="#c66f79"/>
        <path id="Trazado_1321316" data-name="Trazado 1321316" d="M254.327,557.6c.1.509-.037,1.164-.594,1.266a.829.829,0,0,1-.4.114c-4.122.049-8.249.126-12.371.191q-7.014.11-14.024.216l-28.995.452q-14.492.226-28.979.448-14.169.219-28.336.444-14.772.231-29.553.456l-30.611.476q-14.809.231-29.622.459-14.272.22-28.539.444l-20.535.318L1,562.9a.015.015,0,0,1-.012,0,.788.788,0,0,1-.757-.655A.7.7,0,0,1,0,561.738c.468-29.182,10.776-58.194,29.6-80.588a98.359,98.359,0,0,1,34.636-27.53c7.793-4.155,16.156-7.105,24.165-10.76.435-.244.911-.66,1.387-.358,0,0,0,0,.009,0a2.041,2.041,0,0,1,.866,1.074,109.067,109.067,0,0,0,25.361,29.6c9.812,7.691,23,13.6,35.645,12.827,15.179-2.132,21.129-15.777,20.131-29.744a49.626,49.626,0,0,0-2.608-13.868.793.793,0,0,1,.444-1.014.832.832,0,0,1,.264-.048.777.777,0,0,1,.66.118c1.652,1.041,3.345,2.019,5.038,2.987,5.986,3.373,12.135,6.442,17.967,10.08,19.5,12.66,37.362,29.345,47.174,50.735a143.712,143.712,0,0,1,12.2,40.833c.566,3.825,1.131,7.659,1.392,11.516" transform="translate(0 -206.582)" fill="#ab76f2"/>
        <path id="Trazado_1321317" data-name="Trazado 1321317" d="M115.05,628.63c1.144-4.074,2.389-8.119,3.776-12.115,1.449-4.183,3-8.33,4.692-12.42q1.251-3.028,2.657-5.986c.439-.928.9-1.852,1.371-2.763s.936-1.823,1.478-2.69a.781.781,0,1,1,1.331.818c-.4.642-.755,1.319-1.108,1.99.006-.012.012-.025.017-.037a124.191,124.191,0,0,0-5.388,11.928c-.647,1.624-1.27,3.256-1.88,4.9l.037-.1c-1.473,4.021-2.865,8.074-4.1,12.172q-1.247,4.127-2.346,8.3l-1.619.025q.522-2.015,1.083-4.019" transform="translate(-53.349 -277.257)" fill="#45133e"/>
        <path id="Trazado_1321318" data-name="Trazado 1321318" d="M388.991,621.554q-.061-2.851-.309-5.689c0,.013,0,.025,0,.038-.194-2-.444-4-.75-5.988-.313-2.018-.732-4.017-1.185-6.007.009.032.012.065.021.1a91.123,91.123,0,0,0-3.164-10.6,53.064,53.064,0,0,0-2.7-6.162l0,.005a11.334,11.334,0,0,0-.711-1.206.781.781,0,0,1,1.323-.83c.2.269.354.57.521.855.24.423.468.858.684,1.294.472.94.9,1.9,1.314,2.877.843,2.006,1.579,4.054,2.242,6.125a92.374,92.374,0,0,1,3.162,13.067c.362,2.23.635,4.481.834,6.731s.285,4.525.3,6.792c.008,1.284-.016,2.568-.066,3.85l-1.566.024c.061-1.76.093-3.522.05-5.282" transform="translate(-177.916 -273.779)" fill="#45133e"/>
        <path id="Trazado_1321319" data-name="Trazado 1321319" d="M358.914,218.163c10.011,7.26,9.982,22.586,3.048,32.051a22.706,22.706,0,0,1-1.481,1.815,13.9,13.9,0,0,1-7.317,4.326c-.378.053-.9.236-1.383.293a.782.782,0,0,1-.358.175.791.791,0,0,1-.92-.614c-1.62-11.732-3.2-23.668-5.807-35.169l0,0a.683.683,0,0,1-.118-.187,1.682,1.682,0,0,1-.021-.428s0-.008,0-.016c.13-1.3,1.831-2.3,2.8-3a10.186,10.186,0,0,1,10.373-.037,9.816,9.816,0,0,1,1.185.789" transform="translate(-161.287 -101.1)" fill="#c66f79"/>
        <path id="Trazado_1321320" data-name="Trazado 1321320" d="M236.018,131.242c17.828,20.372,27.074,58.031,26.329,84.792-.48,9.673-3.109,19.493-8.9,27.371-12.029,16.034-33.187,23.087-52.72,21.048-17.153-1.978-33.806-11.362-42.315-26.692-6.93-12-14.3-27.266-9.527-41.24,2.893-8.485,9.555-14.813,16.184-20.522,8.1-6.987,16.425-13.771,23.518-21.821,4.216-4.741,8.086-9.73,11.866-14.813,4.4-5.482,8.245-12.4,15.163-14.923,6.446-2.206,16.681,1.262,20.4,6.8" transform="translate(-68.985 -57.938)" fill="#ef9a97"/>
        <path id="Trazado_1321321" data-name="Trazado 1321321" d="M229.42,141.179a.791.791,0,0,1-.708,1.217c-17.438-.387-36.174-11.281-45.623-26.02-6.12,17.678-20.441,31.2-35.051,42.229a194.811,194.811,0,0,1-21.422,14.011c-.891.493-1.795.969-2.71,1.416,7.329,8.241,8.253,21.242,2.726,30.708-.6,1.2-4.8,7.382-6.182,6.137a.782.782,0,0,1-.635.2c-15.745-2.731-33.093-9.229-43.381-21.991a.742.742,0,0,1-.387-.566.673.673,0,0,1,0-.456v0c.126-6.112.57-12.213,1.164-18.293.683-5.058.382-10.438,2.189-15.252.619-1.428,2.137-1.831,3.569-1.787,1.4-.1,2.8-.228,4.192-.35,4.293-.207,8.753-1.208,13-.3,1.75.688.582,2.356-.187,3.354a8.192,8.192,0,0,0-.972,2.1c-1.164,3.532.468,7.468,3.174,9.815,3.312,2.576,7.935,2.711,11.748,1.274,4.8-1.725,8.253-7.219,6.011-12.139a14.86,14.86,0,0,0-1.949-3.512c-1.107-1.44-4.371-4.529-.663-4.924,5.587-.37,11.2-.545,16.786-.964-2.2-35.254,1.071-11.444,13.116-21.279,7.288-7-.472-21.5-10.316-16.775-1.693.9-2.788,2.474-4.134,3.764-2.466,1.518-1.892-6.169-2.238-7.654-.277-4.074-.5-8.155-.842-12.229.061-.72-.431-2.01-.081-2.67.456-1.144,4.785-1.038,5.652-1.249a117,117,0,0,1,19.871-.155c25.4,2.3,53.176,11.659,67.061,34.5,3.081,5.5,6.153,11.248,7.24,17.524a.752.752,0,0,1-.02.321" transform="translate(-35.582 -41.419)" fill="#45133e"/>
        <path id="Trazado_1321322" data-name="Trazado 1321322" d="M148.7,313.1c.04,1.054,1.192,4.228-.354,4.367h0a23.13,23.13,0,0,1-17.442,7.288c-14.984.057-30.485-18.72-20.331-32.349,7.728-10.255,25.5-7.667,31.705,2.963,3.247,5.417,5.066,11.6,6.426,17.731" transform="translate(-50.235 -133.843)" fill="#ef9a97"/>
        <path id="Trazado_1321323" data-name="Trazado 1321323" d="M266.621,323.817a8.765,8.765,0,0,1-5.022-3.187,12.419,12.419,0,0,1-2.133-9.6c.07-.43.162-.854.267-1.272a6.931,6.931,0,0,0,.783.377,12.09,12.09,0,0,0,1.278.415c.452.122.9.228,1.363.313a26.891,26.891,0,0,0,4.883.411c.216,0,.431,0,.647-.008a34.608,34.608,0,0,0,6.238-.664,23.239,23.239,0,0,0,5.066-1.558c.162-.073.321-.147.48-.225a14.944,14.944,0,0,1-.981,6.52,13.827,13.827,0,0,1-7.528,7.985,9.642,9.642,0,0,1-3.537.684,8.711,8.711,0,0,1-1.807-.187" transform="translate(-121.372 -144.561)" fill="#45133e"/>
        <path id="Trazado_1321324" data-name="Trazado 1321324" d="M225.934,258.9c.039-.323-.544-.282-.606.014-3.59,10.928-15.969,17.151-23.684,6.074a1.539,1.539,0,0,0-2.808-.1,1.1,1.1,0,0,0,.086,1.1c-.071.088-.141.178-.215.263a6.449,6.449,0,0,1-2.4,1.363c-.453.186-1.082.054-1.511.354-.307.275.071.591.374.582a7.329,7.329,0,0,0,4.691-1.307q.417.508.872.982c-.027.061-.052.121-.074.182a5.263,5.263,0,0,1-1.319,1.581c-.257.269-2.346,1.2-1.264,1.46.7.2,2.7-1.008,3.752-2.187a13.878,13.878,0,0,0,9.19,3.56c7.49-.075,13.462-6.545,14.947-13.555.025-.135-.041-.237-.037-.362" transform="translate(-91.135 -121.089)" fill="#45133e"/>
        <path id="Trazado_1321325" data-name="Trazado 1321325" d="M325.417,230.587c-.479-.081-.908.3-1.351.332a5.624,5.624,0,0,1-2.524-.177c-.1-.043-.2-.091-.294-.139a1.211,1.211,0,0,0-.457-1,1.314,1.314,0,0,0-2.146,1.285c-.732,13.013-13.385,12.821-21.42,4.753-.19-.233-.666-.021-.481.246.063.107.061.226.145.333,4.515,5.524,12.278,8.661,18.169,5.537a11.623,11.623,0,0,0,5.47-7.045c1.389.589,3.538.8,3.99.327.72-.693-1.357-.617-1.686-.744a5.175,5.175,0,0,1-1.788-.826c-.051-.049-.1-.1-.16-.141.086-.4.157-.811.212-1.224a6.008,6.008,0,0,0,4.307-.847c.241-.121.386-.561.014-.671" transform="translate(-138.89 -107.331)" fill="#45133e"/>
        <path id="Trazado_1321326" data-name="Trazado 1321326" d="M216.767,221.123a5.047,5.047,0,0,1-.086,1.4,9.339,9.339,0,0,1-.456,1.6,15.973,15.973,0,0,1-1.261,2.584,29.15,29.15,0,0,1-3.809,5.026,30.4,30.4,0,0,1-4.5,3.992,18.564,18.564,0,0,1-2.564,1.571,9.2,9.2,0,0,1-2.673.936,5.731,5.731,0,0,1-.794.061,2.777,2.777,0,0,1-2.047-.745,3.145,3.145,0,0,1-.761-2.45,8.222,8.222,0,0,1,.627-2.523,17.51,17.51,0,0,1,1.18-2.376.215.215,0,0,1,.021-.032c.085-.143.166-.285.256-.423.016-.028.037-.061.057-.094a.083.083,0,0,0,.012-.02,28.141,28.141,0,0,1,2.556-3.439.352.352,0,0,1,.037-.041c.309-.358.627-.708.952-1.054.146-.155.293-.31.444-.464a.114.114,0,0,1,.04-.037.352.352,0,0,1,.037-.041q.226-.232.464-.464.495-.482,1.005-.944c.651-.586,1.327-1.136,2.027-1.661a19.574,19.574,0,0,1,2.332-1.53,12.3,12.3,0,0,1,2.6-1.12,4.063,4.063,0,0,1,3,.114,2.485,2.485,0,0,1,.973.985,2.972,2.972,0,0,1,.333,1.192" transform="translate(-92.594 -102.331)" fill="#45133e"/>
        <path id="Trazado_1321327" data-name="Trazado 1321327" d="M312.8,198.627c1.319.936,3,2.478,2.47,4.289a2.878,2.878,0,0,1-1.6,1.677,8.17,8.17,0,0,1-2.723.688,15.023,15.023,0,0,1-1.55.078c-.4,0-.81-.012-1.208-.037a26.409,26.409,0,0,1-2.878-.342,28.919,28.919,0,0,1-4.208-1.05,22.434,22.434,0,0,1-5.038-2.291,9.88,9.88,0,0,1-2.214-1.815,3.433,3.433,0,0,1-.981-2.368c.1-1.771,2.08-2.515,3.561-2.772a18.011,18.011,0,0,1,5.351.008,29.711,29.711,0,0,1,5.758,1.359,20.453,20.453,0,0,1,5.262,2.576" transform="translate(-137.096 -91.042)" fill="#45133e"/>
        <g id="Grupo_1188475" data-name="Grupo 1188475" transform="translate(104.476 157.465)" opacity="0.5">
          <g id="Grupo_1188474" data-name="Grupo 1188474">
            <g id="Grupo_1188473" data-name="Grupo 1188473" clip-path="url(#clip-path-3)">
              <path id="Trazado_1321328" data-name="Trazado 1321328" d="M213.668,301.507A8.983,8.983,0,0,1,205.48,314h-.032a9.187,9.187,0,0,1-2.963-.488,9.381,9.381,0,0,1-2.747-1.526,8.988,8.988,0,0,1-3.032-4.758c-.012-.036-.024-.077-.036-.114a8.647,8.647,0,0,1-.236-1.681,9.005,9.005,0,0,1,.077-1.623c0-.013,0-.024,0-.041.016-.114.032-.228.053-.338a8.93,8.93,0,0,1,.35-1.343l.061-.175c.008-.016.012-.032.02-.049a9.114,9.114,0,0,1,1.949-3.084,8.928,8.928,0,0,1,5.111-2.637,8.985,8.985,0,0,1,9.608,5.364" transform="translate(-196.425 -296.049)" fill="#eb6670"/>
            </g>
          </g>
        </g>
        <g id="Grupo_1188478" data-name="Grupo 1188478" transform="translate(178.791 136.878)" opacity="0.5">
          <g id="Grupo_1188477" data-name="Grupo 1188477">
            <g id="Grupo_1188476" data-name="Grupo 1188476" clip-path="url(#clip-path-4)">
              <path id="Trazado_1321329" data-name="Trazado 1321329" d="M347.44,266.635a10.338,10.338,0,0,1-.883,5.075,5.573,5.573,0,0,1-1.274,1.733,4.037,4.037,0,0,1-2.181,1,3.221,3.221,0,0,1-.391.024,4.335,4.335,0,0,1-2.042-.562,7.152,7.152,0,0,1-2.222-2.026,11.78,11.78,0,0,1-1.856-4.021c-.04-.163-.085-.326-.122-.493a.123.123,0,0,0-.009-.032c0-.02-.008-.045-.012-.069a13.354,13.354,0,0,1-.293-3.37c0-.016,0-.032.008-.053a11.5,11.5,0,0,1,.232-1.819,7.516,7.516,0,0,1,1.192-2.829,4.578,4.578,0,0,1,2.022-1.615,3.837,3.837,0,0,1,2.812.077,7.711,7.711,0,0,1,3.736,3.943,13.428,13.428,0,0,1,1.282,5.038" transform="translate(-336.145 -257.345)" fill="#eb6670"/>
            </g>
          </g>
        </g>
        <path id="Trazado_1321330" data-name="Trazado 1321330" d="M292.141,250.512c2.731,4.733-1.27,10.731-5.205,13.507a.835.835,0,0,1-1.3-.13.851.851,0,0,1,.455-1.18,13.5,13.5,0,0,0,4.293-4.977c.928-2.043,1.994-5.225-.1-6.882-1.148-.745-2.531-.855-3.8-1.322a12.449,12.449,0,0,1-6.528-5.767,24.229,24.229,0,0,1-3.076-12.066c.135-.932-.39-2.865.989-2.89a.788.788,0,0,1,.668.879,22.449,22.449,0,0,0-.032,3.727c.448,5.384,2.45,11.517,7.455,14.2,2.034,1.054,4.733.9,6.177,2.9" transform="translate(-129.613 -107.107)" fill="#c66f79"/>
        <path id="Trazado_1321331" data-name="Trazado 1321331" d="M148.373,322.435c.781.631-.212,1.872-.989,1.213a12.762,12.762,0,0,1-3.822-14.74,1.571,1.571,0,0,0,.081-.835c-1.579-3.776-7.394-5.84-11.215-5.2a17.825,17.825,0,0,0-4.517,1.44.781.781,0,0,1-.724-1.383,13.887,13.887,0,0,1,13.991.387c1.648,1.033,3.41,2.328,3.964,4.285a3.539,3.539,0,0,1-.4,2.515,11.51,11.51,0,0,0-.562,3.988,11.327,11.327,0,0,0,4.2,8.334" transform="translate(-59.344 -141.008)" fill="#c66f79"/>
        <path id="Trazado_1321332" data-name="Trazado 1321332" d="M95.387,9.918a11.652,11.652,0,0,1,.39,5.8,11.922,11.922,0,0,1-2.621,5.469,11.63,11.63,0,0,1-4.851,3.362,11.422,11.422,0,0,1-3.666.7c1.738,3.784,6.934,6.641,9.791,9.229C100.193,39.185,88,44.789,84.054,49.709a11.351,11.351,0,0,1,2.372.24A11.678,11.678,0,0,1,95.57,63.533,11.932,11.932,0,0,1,92.95,69,11.639,11.639,0,0,1,88.1,72.364a11.52,11.52,0,0,1-4,.708,12.214,12.214,0,0,1-1.449-.09,11.672,11.672,0,0,1-9.412-7.276,11.482,11.482,0,0,1-.729-2.84.324.324,0,0,1-.016-.089c-.012-.1-.02-.2-.028-.3-1.661,1.257-2.8,3.362-4.306,4.753-1.208,1.322-2.458,2.612-3.715,3.89-1.522,1.721-3.463,3.658-5.962,2.718-5.152-2.723-8-8.412-10.63-13.381-8-15.35-6.779-34.371,1.559-49.326C50.977,8.567,56.023,0,58.929,0c2.141.2,3.321,2.356,4.627,3.809a41.853,41.853,0,0,0,6.231,6.442,11.4,11.4,0,0,0,2.938,1.771c.032-.269.078-.533.13-.8,0,0,0-.008,0-.016.008-.036.016-.073.024-.11a.224.224,0,0,0,.008-.049.518.518,0,0,0,.016-.073.7.7,0,0,0,.02-.085s0-.009,0-.016,0,0,0-.008a11.359,11.359,0,0,1,.59-1.811A.549.549,0,0,0,73.55,9,11.951,11.951,0,0,1,75.7,5.665,11.677,11.677,0,0,1,95.387,9.918" transform="translate(-19.873)" fill="#45133e"/>
        <path id="Trazado_1321333" data-name="Trazado 1321333" d="M492.538,57.258A56.721,56.721,0,0,1,494.1,71.212q-.024,1.715-.15,3.418c-.008.118-.012.236-.024.358V75c0,.02,0,.037-.008.053a5.171,5.171,0,0,1-.049.574c-.02.269-.048.537-.077.806q-.1.916-.22,1.819c-.155,1.123-.338,2.242-.566,3.349a57.432,57.432,0,0,1-1.766,6.694,60.451,60.451,0,0,1-2.531,6.344,56.773,56.773,0,0,1-17.686,21.523,56.725,56.725,0,0,1-25.511,10.471,58.068,58.068,0,0,1-8.192.586,55.322,55.322,0,0,1-6.031-.326,56.557,56.557,0,0,1-20.669-6.377q-3.755,2.045-7.5,4.11c-2.685,1.245-5.5,3.406-8.591,2.95-2.56-.578-1.888-3.577-1.314-5.433.842-3.015,1.835-5.994,2.893-8.945.321-.92.655-1.839.985-2.759-.3-.3-.594-.6-.887-.907a56.579,56.579,0,0,1-11.146-17.076c-.439-1.038-.838-2.092-1.217-3.154-.085-.248-.166-.5-.252-.745-.02-.061-.045-.122-.061-.179a2.877,2.877,0,0,1-.1-.3c-.049-.146-.1-.293-.143-.439q-.269-.848-.513-1.7-.446-1.557-.79-3.138a59.3,59.3,0,0,1-1.09-6.861,56.558,56.558,0,0,1,.354-13.8,55.82,55.82,0,0,1,3.577-13.055,58.092,58.092,0,0,1,2.535-5.388c.016-.032.029-.065.049-.1a56.73,56.73,0,0,1,16.307-18.785,60.2,60.2,0,0,1,5.77-3.735,57.671,57.671,0,0,1,6.174-3.007,56.693,56.693,0,0,1,13.547-3.724,55.279,55.279,0,0,1,7-.578,59.715,59.715,0,0,1,7.134.305,52.723,52.723,0,0,1,6.894,1.164,58.545,58.545,0,0,1,6.833,2.051,57.5,57.5,0,0,1,12.461,6.466c.167.114.333.232.452.313a56.063,56.063,0,0,1,5.445,4.35,53.258,53.258,0,0,1,4.9,5.014c.016.016.028.033.036.041s.009.008.009.012a57.968,57.968,0,0,1,4.126,5.412,58.643,58.643,0,0,1,3.426,5.844,56.081,56.081,0,0,1,4.619,12.522" transform="translate(-178.177 -6.438)" fill="#f5cdcb"/>
        <path id="Trazado_1321334" data-name="Trazado 1321334" d="M487.8,82.062a29.394,29.394,0,0,1,2.088,12.7,30.424,30.424,0,0,1-1.074,6.341,29.531,29.531,0,0,1-2.381,5.856,29.35,29.35,0,0,1-25.821,15.423,28.917,28.917,0,0,1-6.234-.675,29.3,29.3,0,0,1-11.4-5.225,29.323,29.323,0,0,1-11.639-21.784,28.389,28.389,0,0,1,.322-6.275c.04-.244.081-.488.126-.732.024-.147.049-.3.086-.448a4.814,4.814,0,0,1,.106-.484c.012-.057.024-.114.036-.167a.621.621,0,0,1,.016-.089c.077-.346.167-.692.256-1.038.017-.061.037-.127.053-.191.216-.8.472-1.591.761-2.364a28.787,28.787,0,0,1,2.9-5.791,29.515,29.515,0,0,1,3.793-4.708,30.193,30.193,0,0,1,5.181-4.155,29.021,29.021,0,0,1,5.775-2.808,28.434,28.434,0,0,1,6.324-1.5,29.213,29.213,0,0,1,12.86,1.306,29.293,29.293,0,0,1,10.7,6.377A29.133,29.133,0,0,1,487.8,82.062" transform="translate(-201.893 -29.834)" fill="#efa444"/>
        <path id="Trazado_1321335" data-name="Trazado 1321335" d="M486.531,107.414q-1.032.822-2.116,1.58c-1.008.683-2.028,1.341-3.073,1.959-1.029.612-2.088,1.167-3.162,1.692a38.055,38.055,0,0,1-5.3,2.035c-.747.205-1.5.389-2.255.533-.779.153-1.561.26-2.35.348l.072-.006-.086.007-.081.009.061-.007c-.856.073-1.716.125-2.576.117q-1.242-.018-2.476-.113a33.462,33.462,0,0,1-5.591-1.039l.042.013-.046-.014-.113-.031c.032.007.065.016.1.026a30.625,30.625,0,0,1-4.209-1.616,30.941,30.941,0,0,1-3.6-2.095,30.475,30.475,0,0,1-2.905-2.359l.032.032-.046-.045-.08-.073.048.043a30.09,30.09,0,0,1-2.354-2.57,31.325,31.325,0,0,1-1.912-2.722q-.4-.681-.763-1.375c-.11-.215-.215-.435-.321-.651-.04-.086-.08-.172-.123-.256-.058-.15-.127-.3-.195-.444-.338-.813-.645-1.633-.918-2.469-.293-.986-.538-1.976-.74-2.987-.206-1.19-.349-2.387-.44-3.592-.059-1.1-.064-2.2-.017-3.3q.1-1.585.361-3.154c.2-1.06.455-2.1.757-3.133a31.4,31.4,0,0,1,1.193-3.219,31.882,31.882,0,0,1,1.532-2.9,34.5,34.5,0,0,1,2.066-2.934,36.69,36.69,0,0,1,3.067-3.3,33.111,33.111,0,0,1,3.072-2.5,32.038,32.038,0,0,1,3.045-1.815,27.79,27.79,0,0,0-3.366.988,29.608,29.608,0,0,0-5.006,2.349s0-.006-.006-.009c-.224.133-.446.27-.666.41-.031.02-.064.037-.1.057l-.228.147-.017.02a30.12,30.12,0,0,0-4.936,3.99,29.519,29.519,0,0,0-3.793,4.709,28.764,28.764,0,0,0-2.9,5.791c-.289.773-.545,1.563-.761,2.364-.016.065-.036.13-.053.191-.089.346-.179.692-.256,1.038a.639.639,0,0,0-.017.089c-.012.053-.024.11-.036.167a4.8,4.8,0,0,0-.106.484c-.037.147-.061.3-.086.448-.045.244-.086.488-.126.732a28.389,28.389,0,0,0-.322,6.275,29.319,29.319,0,0,0,23.038,27.009,29.158,29.158,0,0,0,12.29.041,29.3,29.3,0,0,0,11.586-5.266c.354-.268.7-.55,1.039-.833l.018-.008c.035-.028.067-.059.1-.088.169-.141.332-.288.5-.433.223-.2.446-.393.664-.595.167-.155.33-.313.494-.472q.316-.307.622-.622c.157-.162.313-.324.466-.489.207-.224.41-.452.61-.682.1-.113.2-.221.3-.336l-.012,0a28.03,28.03,0,0,0,3.38-4.969c.031-.059.063-.118.094-.178" transform="translate(-201.894 -30.47)" fill="#cf842f"/>
        <path id="Trazado_1321336" data-name="Trazado 1321336" d="M500.789,159.98l-.034,0,.02,0,.014,0" transform="translate(-234.41 -74.889)" fill="#cf842f"/>
        <path id="Trazado_1321337" data-name="Trazado 1321337" d="M460.784,125.8a5.479,5.479,0,0,1-4.285-4.09,5.75,5.75,0,0,1-.07-2.267.521.521,0,0,1,1.022.207c-.012.078-.024.155-.024.163a4.565,4.565,0,0,0-.04.582,5.72,5.72,0,0,0,.036.6,4.582,4.582,0,0,0,.106.533c.052.189.114.375.179.545a5.464,5.464,0,0,0,.275.563c.1.164.2.322.318.477h0l0,0,.013.016c.109.136.223.268.318.368a5.119,5.119,0,0,0,.415.379,4.878,4.878,0,0,0,.485.338,4.4,4.4,0,0,0,.52.27,5.482,5.482,0,0,0,.57.206h0l.008,0a.161.161,0,0,0,.039.01,5.034,5.034,0,0,0,.591.118,5.161,5.161,0,0,0,.572.037,5.087,5.087,0,0,0,.564-.033h0l.013,0,.04-.006c.172-.025.341-.061.51-.1a4.746,4.746,0,0,0,.573-.191,4.5,4.5,0,0,0,.48-.232,4.6,4.6,0,0,0,.533-.35l0,0c.129-.1.254-.208.373-.32l.015-.014.018-.019a4.885,4.885,0,0,0,.366-.4l.032-.041.005-.007a4.719,4.719,0,0,0,.333-.5h0a5.247,5.247,0,0,0,.246-.488v0a4.641,4.641,0,0,0,.191-.533c.054-.2.1-.405.126-.582a5.541,5.541,0,0,0,.045-.648,4.91,4.91,0,0,0-.036-.553c-.008-.053-.016-.1-.024-.155a.533.533,0,0,1,.407-.614.521.521,0,0,1,.614.407,5.468,5.468,0,0,1-1.262,4.517c-.086.1-.175.2-.269.29a.608.608,0,0,1-.055.055,5.64,5.64,0,0,1-1.788,1.16,5.309,5.309,0,0,1-2.02.388,5.8,5.8,0,0,1-1.065-.1" transform="translate(-213.623 -55.719)" fill="#45133e"/>
        <path id="Trazado_1321338" data-name="Trazado 1321338" d="M501.251,124.957a5.481,5.481,0,0,1-4.285-4.09,5.749,5.749,0,0,1-.069-2.267.521.521,0,0,1,1.022.207c-.012.078-.024.155-.024.163a4.383,4.383,0,0,0-.04.582,5.7,5.7,0,0,0,.036.6,4.584,4.584,0,0,0,.106.533c.052.189.114.375.179.545a5.5,5.5,0,0,0,.275.563c.1.164.2.322.318.477h0l0,0,.013.016c.109.136.223.268.318.368a5.124,5.124,0,0,0,.415.379,4.956,4.956,0,0,0,.484.338,4.453,4.453,0,0,0,.52.27,5.484,5.484,0,0,0,.57.206h0l.008,0a.161.161,0,0,0,.039.01,5.015,5.015,0,0,0,.591.118,5.164,5.164,0,0,0,.572.037,5.092,5.092,0,0,0,.564-.033h0l.013,0,.04-.006c.172-.026.341-.061.51-.1a4.667,4.667,0,0,0,.573-.191A4.467,4.467,0,0,0,505,123.1l0,0c.129-.1.254-.208.372-.32l.015-.014.018-.019a4.878,4.878,0,0,0,.366-.4l.032-.041.005-.007a4.873,4.873,0,0,0,.333-.5h0a5.193,5.193,0,0,0,.246-.488v0a4.667,4.667,0,0,0,.191-.533c.054-.2.1-.405.126-.582a5.527,5.527,0,0,0,.045-.648,4.911,4.911,0,0,0-.036-.553c-.009-.053-.016-.1-.024-.155a.532.532,0,0,1,.407-.614.52.52,0,0,1,.614.407,5.468,5.468,0,0,1-1.262,4.517c-.086.1-.176.2-.269.29a.535.535,0,0,1-.055.055,5.633,5.633,0,0,1-1.788,1.161,5.311,5.311,0,0,1-2.02.388,5.8,5.8,0,0,1-1.065-.1" transform="translate(-232.566 -55.324)" fill="#45133e"/>
        <path id="Trazado_1321339" data-name="Trazado 1321339" d="M484.168,131.355a2.647,2.647,0,0,1-1.579-2.462.57.57,0,0,1,.6-.675.511.511,0,0,1,.444.554,1.606,1.606,0,0,0,.985,1.64,1.661,1.661,0,0,0,2.028-1.2c.221-.472-.035-1.263.666-1.3a.521.521,0,0,1,.521.521c.042,1.864-1.783,3.7-3.666,2.926" transform="translate(-225.904 -59.875)" fill="#45133e"/>
        <path id="Trazado_1321340" data-name="Trazado 1321340" d="M398.8,4.861c8.233,3.76,10.381,14.434,7.939,22.472-3.231,11.281-16.99,23.591-27.225,28.836v0a.451.451,0,0,1-.314.053.456.456,0,0,1-.317-.053c-10.235-5.25-23.994-17.56-27.225-28.84-2.441-8.037-.293-18.711,7.939-22.472,6.906-3.667,15.037.175,19.111,6.255.171.244.334.5.492.748.155-.252.318-.5.489-.748,4.073-6.08,12.2-9.918,19.11-6.255" transform="translate(-164.172 -1.605)" fill="#ec7380"/>
      </g>
    </g>
  </g>
</svg>
