<svg id="Grupo_1188533" data-name="Grupo 1188533" xmlns="http://www.w3.org/2000/svg" xmlns:xlink="http://www.w3.org/1999/xlink" width="418.888" height="270.315" viewBox="0 0 418.888 270.315">
  <defs>
    <clipPath id="clip-path">
      <rect id="Rectángulo_411029" data-name="Rectángulo 411029" width="418.888" height="270.315" fill="none"/>
    </clipPath>
    <clipPath id="clip-path-3">
      <rect id="Rectángulo_411018" data-name="Rectángulo 411018" width="4.138" height="6.471" fill="none"/>
    </clipPath>
    <clipPath id="clip-path-4">
      <rect id="Rectángulo_411019" data-name="Rectángulo 411019" width="2.742" height="8.826" fill="none"/>
    </clipPath>
    <clipPath id="clip-path-5">
      <rect id="Rectángulo_411020" data-name="Rectángulo 411020" width="5.839" height="9.218" fill="none"/>
    </clipPath>
    <clipPath id="clip-path-6">
      <rect id="Rectángulo_411021" data-name="Rectángulo 411021" width="1.892" height="1.471" fill="none"/>
    </clipPath>
    <clipPath id="clip-path-7">
      <rect id="Rectángulo_411022" data-name="Rectángulo 411022" width="4.68" height="11.366" fill="none"/>
    </clipPath>
    <clipPath id="clip-path-11">
      <rect id="Rectángulo_411026" data-name="Rectángulo 411026" width="1.893" height="1.471" fill="none"/>
    </clipPath>
    <clipPath id="clip-path-12">
      <rect id="Rectángulo_411027" data-name="Rectángulo 411027" width="4.681" height="11.366" fill="none"/>
    </clipPath>
  </defs>
  <g id="Grupo_1188532" data-name="Grupo 1188532" clip-path="url(#clip-path)">
    <g id="Grupo_1188531" data-name="Grupo 1188531">
      <g id="Grupo_1188530" data-name="Grupo 1188530" clip-path="url(#clip-path)">
        <path id="Trazado_1321459" data-name="Trazado 1321459" d="M395.8,53.459c6.224,45.75-30.779,85.885-64.255,113.912-18.017,15.4-38.349,28.05-59.495,39.124a.049.049,0,0,0,.023.008c-.391.188-.787.38-1.178.572-.219.109-.436.219-.659.327-.313-.165-.632-.327-.95-.488-.25-.136-.5-.271-.75-.4,0,0-.009,0-.018-.009s.009,0,.014-.008c-21.319-11.14-41.828-23.864-59.981-39.377C175.08,139.087,138.081,98.951,144.3,53.207c3.8-21.323,16.863-40.477,38.431-48.373,24.5-10.363,53.594-3.064,73.966,12.392a114.09,114.09,0,0,1,13.48,11.96,114.581,114.581,0,0,1,13.23-11.707C303.78,2.027,332.873-5.271,357.374,5.087c21.568,7.9,34.635,27.05,38.431,48.372" transform="translate(-60.609 0)" fill="#eb6670"/>
        <path id="Trazado_1321460" data-name="Trazado 1321460" d="M164.188,58.194c11.071,4.85,25.96,13.924,17.345,19.188-3.419,1.742-7.515,1.323-11.262,1.244-5.915-.305-11.993-1.117-17.827-1.619-18.168-2.078-35.562,1.109-40.277,20.533a46.339,46.339,0,0,0,1.387,23.217,49.973,49.973,0,0,0,17,22.27c5.774,3.711,12.257,5.884,18.413,8.87,6.229,3.234,18.5,9.6,19.077,16.971.069,2.959-2.855,5.247-5.787,5.421-3.6.179-7.375-.681-10.925-.41-7.6.458-15.008,2.942-22.682,2.4a47.263,47.263,0,0,1-17.895-4.295c-.291.519-.8,1.043-1,1.479-12.116,20.328-18.181,43.5-21.837,66.483a296.181,296.181,0,0,0-3.25,37.945c-.227,1.03.6,2.911-.787,3.213a.494.494,0,0,1-.087.018.5.5,0,0,1-.081,0c-2.91.048-5.819.087-8.729.135q-6.916.1-13.831.205l-13.048.2q-6.759.1-13.517.205l-13.966.209q-6.445.1-12.894.192l-4.16.065c-.846.013-1.691.039-2.541.039H.83A.863.863,0,0,1,0,281.606a.848.848,0,0,1,.114-.476c1.559-16.8,6.551-33.139,11.7-49.2,9.461-29.512,23.259-57.526,38.436-84.68,8.979-15.373,15.544-25.369,15.74-43.663,2.264-44.7,14.867-63.694,60.5-76.243,7.134-1.489,7.083,3.828,4.06,8.4a31.77,31.77,0,0,1-2.437,3.182,67.168,67.168,0,0,1,15.026.947,210.089,210.089,0,0,1,20.836,4.452c2.21.585,4.419,1.187,6.592,1.894,1.9.7,4.183,1.222,5.356,2.964,2.9,5.871-6.611,7.975-10.889,8.848-.282.057-.564.109-.846.161" transform="translate(0 -12.059)" fill="#ef9a97"/>
        <path id="Trazado_1321461" data-name="Trazado 1321461" d="M166.146,62.836c-1.261-1.408,7.04-7.552,8.5-8.333,10.235-6.465,22.981-8.2,34.962-6.552.529.1,1.421,0,1.369.737-.3.967-1.692.208-2.432.245-14.43-1.8-30.4,1.679-40.384,12.315-.648.472-1.041,2.031-2.017,1.587" transform="translate(-70.065 -21.085)" fill="#45133e"/>
        <path id="Trazado_1321462" data-name="Trazado 1321462" d="M192.01,83.364c-1.111-1.568,9.142-7.322,10.8-7.909,15.015-6.756,34.114-1.616,48.256,5.129.319.166.7.232.773.624a.574.574,0,0,1-.491.638c-1.33-.314-2.531-1.24-3.821-1.735-12.79-5.183-27.81-9.309-41.389-4.765a38.519,38.519,0,0,0-12.016,6.836c-.67.369-1.257,1.737-2.114,1.182" transform="translate(-81 -32.174)" fill="#45133e"/>
        <path id="Trazado_1321463" data-name="Trazado 1321463" d="M197.292,284.893A43.891,43.891,0,0,1,167.909,271.3c-.492-.533.37-1.283.873-.737a43.4,43.4,0,0,0,15.785,10.524,48.155,48.155,0,0,0,18.74,2.8.584.584,0,0,1,.628.511c.264,1.245-5.64.405-6.643.493" transform="translate(-70.802 -120.345)" fill="#45133e"/>
        <path id="Trazado_1321464" data-name="Trazado 1321464" d="M426.144,58.194c-11.071,4.85-25.96,13.924-17.345,19.188,3.419,1.742,7.515,1.323,11.262,1.244,5.915-.305,11.993-1.117,17.827-1.619,18.168-2.078,35.562,1.109,40.277,20.533a46.339,46.339,0,0,1-1.387,23.217,49.973,49.973,0,0,1-17,22.27c-5.774,3.711-12.257,5.884-18.413,8.87-6.229,3.234-18.5,9.6-19.077,16.971-.069,2.959,2.855,5.247,5.787,5.421,3.6.179,7.375-.681,10.925-.41,7.6.458,15.008,2.942,22.682,2.4a47.263,47.263,0,0,0,17.895-4.295c.291.519.8,1.043,1,1.479,12.116,20.328,18.181,43.5,21.837,66.483a296.174,296.174,0,0,1,3.25,37.945c.227,1.03-.6,2.911.787,3.213a.494.494,0,0,0,.087.018.5.5,0,0,0,.082,0c2.91.048,5.819.087,8.729.135q6.916.1,13.831.205l13.048.2q6.759.1,13.517.205l13.966.209q6.445.1,12.894.192l4.16.065c.846.013,1.691.039,2.541.039h.2a.863.863,0,0,0,.828-.768.847.847,0,0,0-.114-.476c-1.559-16.8-6.551-33.139-11.7-49.2-9.461-29.512-23.26-57.526-38.436-84.68-8.979-15.373-15.544-25.369-15.74-43.663-2.264-44.7-14.867-63.694-60.5-76.243-7.134-1.489-7.083,3.828-4.06,8.4a31.854,31.854,0,0,0,2.437,3.182,67.168,67.168,0,0,0-15.026.947,210.087,210.087,0,0,0-20.836,4.452c-2.21.585-4.419,1.187-6.592,1.894-1.9.7-4.183,1.222-5.356,2.964-2.9,5.871,6.611,7.975,10.889,8.848.282.057.563.109.846.161" transform="translate(-171.444 -12.059)" fill="#ef9a97"/>
        <path id="Trazado_1321465" data-name="Trazado 1321465" d="M525.787,62.836c1.261-1.408-7.04-7.552-8.5-8.333-10.234-6.465-22.981-8.2-34.962-6.552-.529.1-1.421,0-1.369.737.3.967,1.693.208,2.433.245,14.43-1.8,30.4,1.679,40.384,12.315.648.472,1.041,2.031,2.016,1.587" transform="translate(-202.98 -21.085)" fill="#45133e"/>
        <path id="Trazado_1321466" data-name="Trazado 1321466" d="M489,83.364c1.111-1.568-9.142-7.322-10.8-7.909-15.015-6.756-34.114-1.616-48.256,5.129-.319.166-.7.232-.773.624a.574.574,0,0,0,.491.638c1.33-.314,2.531-1.24,3.821-1.735,12.79-5.183,27.81-9.309,41.389-4.765a38.518,38.518,0,0,1,12.016,6.836c.67.369,1.257,1.737,2.114,1.182" transform="translate(-181.124 -32.174)" fill="#45133e"/>
        <path id="Trazado_1321467" data-name="Trazado 1321467" d="M501.055,284.893A43.891,43.891,0,0,0,530.439,271.3c.492-.533-.37-1.283-.873-.737a43.4,43.4,0,0,1-15.785,10.524,48.156,48.156,0,0,1-18.74,2.8.583.583,0,0,0-.628.511c-.264,1.245,5.64.405,6.642.493" transform="translate(-208.658 -120.345)" fill="#45133e"/>
        <path id="Trazado_1321468" data-name="Trazado 1321468" d="M329.038,147.168q.246,2.887.261,5.788a11.344,11.344,0,0,1-.815,4.763,1.329,1.329,0,0,1-.317.431c1.715,4.446,1.487,9.426.8,14.036a16.851,16.851,0,0,1-1.594,4.677c1.873,2.593,1.9,6.083,1.568,9.138a7.17,7.17,0,0,1-.912,2.67,5.176,5.176,0,0,1,.677.973c1.343,2.475.368,5.295.072,7.9-.481,2.774.034,5.771-1.27,8.356-1.433,2.485-4.586,3.529-7.416,3.178a6.561,6.561,0,0,1-2.889-.873,8.13,8.13,0,0,1-3.487.267c-4.328-.73-8.306-4.065-9.246-8.243-.032-.218-.081-.452-.1-.683-2.986-.616-5.544-2.474-7.825-4.366a20.333,20.333,0,0,1-7.359-14.715,15.1,15.1,0,0,1,.521-4.4c-3.919-3.585-4.382-9.982-1.555-14.354a.962.962,0,0,1,.067-.1,13.693,13.693,0,0,1,2.308-15.193,14.965,14.965,0,0,1,1.765-1.578,11.334,11.334,0,0,1-.012-2.718A12,12,0,0,1,297.041,134a8.291,8.291,0,0,1,5.532-1.862.031.031,0,0,1,.012,0c.149-.615.4-1.243.5-1.548,1.66-4.384,7.848-7.042,12.129-4.521a.284.284,0,0,1,.047.031c1.587-2.142,4.2-3.7,6.991-2.99,5.224,1.227,6.232,7.256,6.157,11.67-.078,1.25-.081,5.346-.9,6.59,1.2,1.635,1.344,3.848,1.53,5.794" transform="translate(-120.848 -54.721)" fill="#f1b1c4"/>
        <g id="Grupo_1188502" data-name="Grupo 1188502" transform="translate(173.195 80.163)" style="mix-blend-mode: soft-light;isolation: isolate">
          <g id="Grupo_1188501" data-name="Grupo 1188501">
            <g id="Grupo_1188500" data-name="Grupo 1188500" clip-path="url(#clip-path-3)">
              <path id="Trazado_1321469" data-name="Trazado 1321469" d="M299.931,150.936c-.529-.286-.112-.99-.063-1.433a7.408,7.408,0,0,1,3.784-5.01c.141-.108.217.133.076.183a10.5,10.5,0,0,0-3.077,4.659c-.221.469-.023,1.558-.721,1.6" transform="translate(-299.666 -144.466)" fill="#fff"/>
            </g>
          </g>
        </g>
        <g id="Grupo_1188505" data-name="Grupo 1188505" transform="translate(183.706 74.706)" style="mix-blend-mode: soft-light;isolation: isolate">
          <g id="Grupo_1188504" data-name="Grupo 1188504">
            <g id="Grupo_1188503" data-name="Grupo 1188503" clip-path="url(#clip-path-4)">
              <path id="Trazado_1321470" data-name="Trazado 1321470" d="M320.06,143.436a.875.875,0,0,1-.5-.349,6.5,6.5,0,0,1-1.648-3.239c-.231-1.756.108-4.046,1.6-5.218.242-.011.01.368-.034.475a6.486,6.486,0,0,0,.006,6.2c.3.651,1.134,1.086,1.1,1.846.024.285-.3.348-.532.289" transform="translate(-317.851 -134.631)" fill="#fff"/>
            </g>
          </g>
        </g>
        <g id="Grupo_1188508" data-name="Grupo 1188508" transform="translate(168.198 101.498)" style="mix-blend-mode: soft-light;isolation: isolate">
          <g id="Grupo_1188507" data-name="Grupo 1188507">
            <g id="Grupo_1188506" data-name="Grupo 1188506" clip-path="url(#clip-path-5)">
              <path id="Trazado_1321471" data-name="Trazado 1321471" d="M296.407,192.13c-.626-.092-1.058-.634-1.532-1-2.159-1.98-4.16-5.144-3.816-8.094.149-.343.312.124.368.272a13.24,13.24,0,0,0,3.466,6.552c.512.57,1.211.952,1.718,1.515.224.368.505.805-.2.751" transform="translate(-291.02 -182.916)" fill="#fff"/>
            </g>
          </g>
        </g>
        <g id="Grupo_1188511" data-name="Grupo 1188511" transform="translate(175.703 111.659)" style="mix-blend-mode: soft-light;isolation: isolate">
          <g id="Grupo_1188510" data-name="Grupo 1188510">
            <g id="Grupo_1188509" data-name="Grupo 1188509" clip-path="url(#clip-path-6)">
              <path id="Trazado_1321472" data-name="Trazado 1321472" d="M305.188,202.619c-.416-.241-1.549-.8-1.067-1.365.429-.143.965.326,1.391.441.65.262.432,1.294-.324.924" transform="translate(-304.004 -201.227)" fill="#fff"/>
            </g>
          </g>
        </g>
        <g id="Grupo_1188514" data-name="Grupo 1188514" transform="translate(170.188 124.114)" style="mix-blend-mode: soft-light;isolation: isolate">
          <g id="Grupo_1188513" data-name="Grupo 1188513">
            <g id="Grupo_1188512" data-name="Grupo 1188512" clip-path="url(#clip-path-7)">
              <path id="Trazado_1321473" data-name="Trazado 1321473" d="M298.7,235c-2.652-1.886-5.094-8.094-3.956-11.165.305-.462.466.209.457.465a14.2,14.2,0,0,0,1.883,7.285,13.745,13.745,0,0,0,1.639,2.292,1.539,1.539,0,0,1,.409,1.136A.687.687,0,0,1,298.7,235" transform="translate(-294.462 -223.672)" fill="#fff"/>
            </g>
          </g>
        </g>
        <path id="Trazado_1321474" data-name="Trazado 1321474" d="M338.433,253.9c.581-.218.846.226.392.634a7.4,7.4,0,0,1-5.348,1.814.848.848,0,0,1-.279.307,11.517,11.517,0,0,1-1.1.773,12.442,12.442,0,0,1-6.8,1.508,19.409,19.409,0,0,1-6.318-1.4,11.884,11.884,0,0,1-1.263-.618.09.09,0,0,1-.037-.106c.076-.1.236-.047.39.028.676.222,1.352.483,2.041.648a15.155,15.155,0,0,0,8.389-.044,6.367,6.367,0,0,1-3.314-2.453,12.029,12.029,0,0,1-1.21-2.487c-.008-.251.345-.284.488-.118a8.782,8.782,0,0,0,2.474,2.94,4.915,4.915,0,0,0,4.922.481,4.1,4.1,0,0,1,.518-.251,5.168,5.168,0,0,1-1.859-2.858c-.224-.64.451-.626.652-.119,1.5,2.437,4.865,2.4,7.257,1.317" transform="translate(-134.073 -112.261)" fill="#ec8895"/>
        <path id="Trazado_1321475" data-name="Trazado 1321475" d="M354.649,238.926a.447.447,0,0,1-.024.243,6.5,6.5,0,0,1-5.97,4.812c-.169-.021-.132-.228,0-.281.081-.039.175-.047.259-.082a9.359,9.359,0,0,0,5.474-4.64c.034-.1.205-.168.264-.052" transform="translate(-147.098 -106.32)" fill="#ec8895"/>
        <path id="Trazado_1321476" data-name="Trazado 1321476" d="M350.5,220.228c.084-.124.212-.559.386-.332a6.383,6.383,0,0,1-1.688,3.111,2.129,2.129,0,0,0-.118.689,8.248,8.248,0,0,1-.325,2.927,4.687,4.687,0,0,1-1.756,2.1c-.158-.038-.046-.215.017-.29a5.558,5.558,0,0,0,1.341-3.557,3.979,3.979,0,0,0-.133-1.023,6.139,6.139,0,0,1-3.527,1.195,11.7,11.7,0,0,1-2.206-.285c-.11-.034-.279-.088-.253-.225a.2.2,0,0,1,.161-.144c.451-.065.915,0,1.371-.053a8.124,8.124,0,0,0,4-1.328,7.647,7.647,0,0,0,2.729-2.781" transform="translate(-144.436 -97.849)" fill="#ec8895"/>
        <path id="Trazado_1321477" data-name="Trazado 1321477" d="M328.141,235.253c.018.282-.343.2-.5.085a9.017,9.017,0,0,0-3.731-1.762,10.977,10.977,0,0,0-5.227.58A14.928,14.928,0,0,0,314.434,236c-1.938,1.416-2.489,4.5-.76,6.247a7.52,7.52,0,0,0,1.236,1.167c.212.306-.194.336-.4.194-3.586-1.758-4.564-6.5-.814-8.644-3.715.29-7.468-2.247-8.156-5.81-.089-.24.154-.375.343-.191a.574.574,0,0,1,.1.307,3.632,3.632,0,0,0,.3.608c1.6,3.255,5.711,4.507,9.18,3.717,3.958-1.076,7.949-2.609,11.457.446a10.577,10.577,0,0,1,1.22,1.216" transform="translate(-128.942 -101.874)" fill="#ec8895"/>
        <path id="Trazado_1321478" data-name="Trazado 1321478" d="M312.578,217.91c.373-.119.411.117.251.393l0,0a1.61,1.61,0,0,1-.27.391,6.124,6.124,0,0,1-3.772,1.978,3.412,3.412,0,0,1,.4,4.111c-.084.148-.081.5-.323.452-.279-.139-.094-.5-.129-.731a4.011,4.011,0,0,0-.894-3.009c-1.458-1.23-3.351-2.053-4.195-3.841-.135-.316-.472-.712-.408-1.058,0-.024-.009-.049-.012-.072a.1.1,0,0,1,.068-.118c.194-.031.281.21.372.334a5.548,5.548,0,0,0,5.2,2.705,7.369,7.369,0,0,0,3.715-1.538" transform="translate(-127.969 -96.324)" fill="#ec8895"/>
        <path id="Trazado_1321479" data-name="Trazado 1321479" d="M319.56,207.191a.152.152,0,0,1,.1.137c0,.063-.061.1-.11.125a10.258,10.258,0,0,1-3.415.35,12.63,12.63,0,0,1-9.053-4.164c-6.778-1.283-13.961-3.688-16.875-10.26-.125-.246-.112-.386-.035-.434a.112.112,0,0,1,.163-.094.62.62,0,0,1,.251.28.775.775,0,0,1,.106.178c.008.014.016.031.025.046h0c2.423,4.275,6.476,6.264,11.166,7.553,1.375.4,2.779.745,4.109,1.264q-.138-.221-.262-.447a9.764,9.764,0,0,1-.409-7.9c.02-.143.165-.3.32-.2.175.128.1.335.038.5-.807,3.036.446,6.279,2.373,8.691,2.474,3.051,6.616,4.474,10.554,4.372.316.013.641-.036.954,0" transform="translate(-122.439 -85.835)" fill="#ec8895"/>
        <path id="Trazado_1321480" data-name="Trazado 1321480" d="M340.686,201.335c.877.4.36.814-.369.618a4.577,4.577,0,0,1-3.549-5.2,5.9,5.9,0,0,1-2.906.483,3.061,3.061,0,0,1-1.189-.153c-.259-.318.195-.573.5-.558a6.913,6.913,0,0,0,4.177-1.641c1.824-1.754,2.842-4.971,1.211-7.095-.144-.122.075-.35.207-.19a6.056,6.056,0,0,1-.731,8.353,3.736,3.736,0,0,0-.16.557c-.515,2.057,1,3.913,2.811,4.828" transform="translate(-140.368 -83.477)" fill="#ec8895"/>
        <path id="Trazado_1321481" data-name="Trazado 1321481" d="M355.315,178.7c.186-.065.305.188.187.314a1.479,1.479,0,0,1-.916.1c-3.806-1.307-2.525-6.245-3.365-9.2-.076-.141.017-.417.209-.264a2.593,2.593,0,0,1,.181.318c1.283,2.862.513,6.922,3.7,8.73" transform="translate(-148.217 -75.492)" fill="#ec8895"/>
        <path id="Trazado_1321482" data-name="Trazado 1321482" d="M304.049,159.4c.058.253-.271.286-.458.275a12.535,12.535,0,0,0-6.752,1.564c-.174-.027-.117-.232,0-.3.173-.116.267-.307.428-.438a6.509,6.509,0,0,1,6-1.416c.265.062.625.065.782.311" transform="translate(-125.231 -70.714)" fill="#ec8895"/>
        <path id="Trazado_1321483" data-name="Trazado 1321483" d="M320.8,177.963a.293.293,0,0,1,.055.443c-.177.124-.369-.147-.524-.22-3.105-2.238-5.953-.608-6.914,2.684a19.029,19.029,0,0,0-.559,2.5c-.08.291-.031,1.348-.557.871-.7-3.72-.213-8.122-3.248-11.032A7.642,7.642,0,0,0,306,171.185a2.61,2.61,0,0,0-1.666.2,2.462,2.462,0,0,0-.647.441c-.371-.089.123-.452.266-.552,4.742-2.744,9.3,3.3,8.864,7.563.913-1.863,3.179-3.448,5.376-2.792a6.607,6.607,0,0,1,2.605,1.914" transform="translate(-128.109 -75.93)" fill="#ec8895"/>
        <path id="Trazado_1321484" data-name="Trazado 1321484" d="M330.107,156.939c.043.751.047,1.512.054,2.261-.051.24-.39.145-.422-.062-.026-2.733-1.966-5.1-4.322-6.447-3.322-1.8-7.445-2.243-10.21-4.946a6.557,6.557,0,0,1-1.892-6.15,4.688,4.688,0,0,1,.635-1.651c.046-.071.09-.161.193-.146.173.052.129.266.125.4a8.474,8.474,0,0,0,1.884,6.062c3.464,4.247,9.331,3.077,12.6,7.454a7.3,7.3,0,0,1,1.358,3.221" transform="translate(-132.168 -62.224)" fill="#ec8895"/>
        <path id="Trazado_1321485" data-name="Trazado 1321485" d="M344.879,148.942c.193.2.016.368-.216.193-6.159-4.89-12.8.07-16.729-7.144-.1-.209-.5-.933.032-.714.342.306.595.706.929,1.018,2.42,2.64,5.426,2.721,8.45,3.15a5.964,5.964,0,0,1-2.848-5.053c.06-.2.308-.09.368.053a11.154,11.154,0,0,0,3.139,4.493c.119.127.87.559,1.247.853a10.542,10.542,0,0,1,3.074,1.2,16.542,16.542,0,0,1,2.553,1.948" transform="translate(-138.302 -62.442)" fill="#ec8895"/>
        <path id="Trazado_1321486" data-name="Trazado 1321486" d="M335.01,129.321c.149-.25.624-.633.707-.133a8.6,8.6,0,0,0-.6,4.733.152.152,0,0,1-.209.184,4.174,4.174,0,0,1,.1-4.784" transform="translate(-141.048 -57.394)" fill="#ec8895"/>
        <path id="Trazado_1321487" data-name="Trazado 1321487" d="M338.418,274.02c.127.135-.06.262-.2.174a3.9,3.9,0,0,1-3.034-3.315c.068-.142.265-.084.344.018a11.073,11.073,0,0,0,2.267,2.731,4.361,4.361,0,0,0,.621.393" transform="translate(-141.462 -120.533)" fill="#ec8895"/>
        <path id="Trazado_1321488" data-name="Trazado 1321488" d="M364.23,147.168q-.246,2.887-.261,5.788a11.345,11.345,0,0,0,.816,4.763,1.329,1.329,0,0,0,.317.431c-1.715,4.446-1.487,9.426-.8,14.036a16.85,16.85,0,0,0,1.594,4.677c-1.873,2.593-1.9,6.083-1.568,9.138a7.17,7.17,0,0,0,.912,2.67,5.173,5.173,0,0,0-.677.973c-1.343,2.475-.368,5.295-.072,7.9.481,2.774-.034,5.771,1.27,8.356,1.433,2.485,4.586,3.529,7.416,3.178a6.561,6.561,0,0,0,2.889-.873,8.13,8.13,0,0,0,3.487.267c4.328-.73,8.306-4.065,9.246-8.243.032-.218.081-.452.1-.683,2.986-.616,5.544-2.474,7.825-4.366a20.333,20.333,0,0,0,7.359-14.715,15.1,15.1,0,0,0-.521-4.4c3.919-3.585,4.382-9.982,1.555-14.354a.956.956,0,0,0-.067-.1,13.693,13.693,0,0,0-2.308-15.193,14.965,14.965,0,0,0-1.765-1.578,11.336,11.336,0,0,0,.012-2.718A12,12,0,0,0,396.227,134a8.291,8.291,0,0,0-5.532-1.862.031.031,0,0,0-.012,0c-.149-.615-.4-1.243-.5-1.548-1.66-4.384-7.848-7.042-12.129-4.521a.285.285,0,0,0-.047.031c-1.586-2.142-4.2-3.7-6.991-2.99-5.224,1.227-6.232,7.256-6.157,11.67.078,1.25.081,5.346.9,6.59-1.2,1.635-1.344,3.848-1.53,5.794" transform="translate(-153.533 -54.721)" fill="#f1b1c4"/>
        <g id="Grupo_1188517" data-name="Grupo 1188517" transform="translate(241.555 80.163)" style="mix-blend-mode: soft-light;isolation: isolate">
          <g id="Grupo_1188516" data-name="Grupo 1188516">
            <g id="Grupo_1188515" data-name="Grupo 1188515" clip-path="url(#clip-path-3)">
              <path id="Trazado_1321489" data-name="Trazado 1321489" d="M421.815,150.936c.529-.286.112-.99.063-1.433a7.408,7.408,0,0,0-3.784-5.01c-.141-.108-.217.133-.076.183a10.5,10.5,0,0,1,3.077,4.659c.221.469.023,1.558.721,1.6" transform="translate(-417.943 -144.466)" fill="#fff"/>
            </g>
          </g>
        </g>
        <g id="Grupo_1188520" data-name="Grupo 1188520" transform="translate(232.44 74.706)" style="mix-blend-mode: soft-light;isolation: isolate">
          <g id="Grupo_1188519" data-name="Grupo 1188519">
            <g id="Grupo_1188518" data-name="Grupo 1188518" clip-path="url(#clip-path-4)">
              <path id="Trazado_1321490" data-name="Trazado 1321490" d="M402.706,143.436a.875.875,0,0,0,.5-.349,6.5,6.5,0,0,0,1.648-3.239c.231-1.756-.108-4.046-1.6-5.218-.242-.011-.01.368.034.475a6.486,6.486,0,0,1-.006,6.2c-.3.651-1.134,1.086-1.1,1.846-.024.285.3.348.532.289" transform="translate(-402.172 -134.631)" fill="#fff"/>
            </g>
          </g>
        </g>
        <g id="Grupo_1188523" data-name="Grupo 1188523" transform="translate(244.851 101.498)" style="mix-blend-mode: soft-light;isolation: isolate">
          <g id="Grupo_1188522" data-name="Grupo 1188522">
            <g id="Grupo_1188521" data-name="Grupo 1188521" clip-path="url(#clip-path-5)">
              <path id="Trazado_1321491" data-name="Trazado 1321491" d="M424.1,192.13c.626-.092,1.058-.634,1.532-1,2.159-1.98,4.16-5.144,3.816-8.094-.149-.343-.312.124-.368.272a13.239,13.239,0,0,1-3.466,6.552c-.512.57-1.211.952-1.718,1.515-.224.368-.505.805.2.751" transform="translate(-423.646 -182.916)" fill="#fff"/>
            </g>
          </g>
        </g>
        <g id="Grupo_1188526" data-name="Grupo 1188526" transform="translate(241.293 111.659)" style="mix-blend-mode: soft-light;isolation: isolate">
          <g id="Grupo_1188525" data-name="Grupo 1188525">
            <g id="Grupo_1188524" data-name="Grupo 1188524" clip-path="url(#clip-path-11)">
              <path id="Trazado_1321492" data-name="Trazado 1321492" d="M418.2,202.619c.416-.241,1.55-.8,1.066-1.365-.429-.143-.965.326-1.391.441-.65.262-.431,1.294.324.924" transform="translate(-417.49 -201.227)" fill="#fff"/>
            </g>
          </g>
        </g>
        <g id="Grupo_1188529" data-name="Grupo 1188529" transform="translate(244.02 124.114)" style="mix-blend-mode: soft-light;isolation: isolate">
          <g id="Grupo_1188528" data-name="Grupo 1188528">
            <g id="Grupo_1188527" data-name="Grupo 1188527" clip-path="url(#clip-path-12)">
              <path id="Trazado_1321493" data-name="Trazado 1321493" d="M422.646,235c2.652-1.886,5.094-8.094,3.956-11.165-.305-.462-.466.209-.457.465a14.2,14.2,0,0,1-1.883,7.285,13.782,13.782,0,0,1-1.639,2.292,1.539,1.539,0,0,0-.409,1.136.687.687,0,0,0,.432-.013" transform="translate(-422.208 -223.672)" fill="#fff"/>
            </g>
          </g>
        </g>
        <path id="Trazado_1321494" data-name="Trazado 1321494" d="M370.727,253.9c-.581-.218-.847.226-.393.634a7.4,7.4,0,0,0,5.348,1.814.848.848,0,0,0,.279.307,11.529,11.529,0,0,0,1.1.773,12.44,12.44,0,0,0,6.8,1.508,19.406,19.406,0,0,0,6.318-1.4,11.776,11.776,0,0,0,1.263-.618.09.09,0,0,0,.037-.106c-.077-.1-.235-.047-.389.028-.676.222-1.352.483-2.042.648a15.155,15.155,0,0,1-8.389-.044,6.367,6.367,0,0,0,3.314-2.453,12.029,12.029,0,0,0,1.21-2.487c.008-.251-.345-.284-.488-.118a8.769,8.769,0,0,1-2.474,2.94,4.915,4.915,0,0,1-4.922.481,4.062,4.062,0,0,0-.518-.251,5.169,5.169,0,0,0,1.86-2.858c.224-.64-.451-.626-.653-.119-1.5,2.437-4.865,2.4-7.257,1.317" transform="translate(-156.198 -112.261)" fill="#ec8895"/>
        <path id="Trazado_1321495" data-name="Trazado 1321495" d="M365.651,238.926a.448.448,0,0,0,.024.243,6.5,6.5,0,0,0,5.97,4.812c.169-.021.132-.228,0-.281-.082-.039-.175-.047-.259-.082a9.359,9.359,0,0,1-5.474-4.64c-.034-.1-.205-.168-.264-.052" transform="translate(-154.314 -106.32)" fill="#ec8895"/>
        <path id="Trazado_1321496" data-name="Trazado 1321496" d="M367.952,220.228c-.084-.124-.212-.559-.386-.332a6.383,6.383,0,0,0,1.688,3.111,2.129,2.129,0,0,1,.118.689,8.261,8.261,0,0,0,.325,2.927,4.687,4.687,0,0,0,1.756,2.1c.158-.038.046-.215-.017-.29a5.558,5.558,0,0,1-1.341-3.557,3.978,3.978,0,0,1,.133-1.023,6.138,6.138,0,0,0,3.527,1.195,11.7,11.7,0,0,0,2.206-.285c.11-.034.279-.088.253-.225a.2.2,0,0,0-.161-.144c-.451-.065-.915,0-1.371-.053a8.124,8.124,0,0,1-4-1.328,7.647,7.647,0,0,1-2.729-2.781" transform="translate(-155.127 -97.849)" fill="#ec8895"/>
        <path id="Trazado_1321497" data-name="Trazado 1321497" d="M380.109,235.253c-.018.282.343.2.5.085a9.017,9.017,0,0,1,3.731-1.762,10.977,10.977,0,0,1,5.227.58A14.928,14.928,0,0,1,393.816,236c1.938,1.416,2.489,4.5.76,6.247a7.521,7.521,0,0,1-1.236,1.167c-.212.306.194.336.4.194,3.586-1.758,4.564-6.5.814-8.644,3.715.29,7.468-2.247,8.156-5.81.089-.24-.154-.375-.343-.191a.575.575,0,0,0-.1.307,3.634,3.634,0,0,1-.3.608c-1.6,3.255-5.711,4.507-9.18,3.717-3.958-1.076-7.949-2.609-11.458.446a10.626,10.626,0,0,0-1.22,1.216" transform="translate(-160.421 -101.874)" fill="#ec8895"/>
        <path id="Trazado_1321498" data-name="Trazado 1321498" d="M405.106,217.91c-.374-.119-.411.117-.251.393l0,0a1.626,1.626,0,0,0,.27.391,6.125,6.125,0,0,0,3.772,1.978,3.413,3.413,0,0,0-.4,4.111c.084.148.081.5.324.452.277-.139.093-.5.128-.731a4.016,4.016,0,0,1,.894-3.009c1.459-1.23,3.353-2.053,4.2-3.841.135-.316.472-.712.407-1.058.005-.024.01-.049.013-.072a.1.1,0,0,0-.068-.118c-.195-.031-.282.21-.372.334a5.548,5.548,0,0,1-5.2,2.705,7.367,7.367,0,0,1-3.714-1.538" transform="translate(-170.827 -96.324)" fill="#ec8895"/>
        <path id="Trazado_1321499" data-name="Trazado 1321499" d="M383.633,207.191a.152.152,0,0,0-.1.137c0,.063.061.1.11.125a10.258,10.258,0,0,0,3.415.35,12.63,12.63,0,0,0,9.053-4.164c6.778-1.283,13.961-3.688,16.875-10.26.125-.246.112-.386.035-.434a.112.112,0,0,0-.163-.094.621.621,0,0,0-.251.28.775.775,0,0,0-.106.178c-.008.014-.016.031-.025.046h0c-2.423,4.275-6.476,6.264-11.166,7.553-1.375.4-2.779.745-4.109,1.264q.138-.221.262-.447a9.767,9.767,0,0,0,.41-7.9c-.02-.143-.166-.3-.321-.2-.175.128-.1.335-.038.5.807,3.036-.446,6.279-2.373,8.691-2.474,3.051-6.616,4.474-10.554,4.372-.316.013-.641-.036-.954,0" transform="translate(-161.866 -85.835)" fill="#ec8895"/>
        <path id="Trazado_1321500" data-name="Trazado 1321500" d="M377.838,201.335c-.877.4-.36.814.369.618a4.577,4.577,0,0,0,3.549-5.2,5.9,5.9,0,0,0,2.906.483,3.061,3.061,0,0,0,1.189-.153c.259-.318-.195-.573-.5-.558a6.913,6.913,0,0,1-4.177-1.641c-1.824-1.754-2.842-4.971-1.211-7.095.144-.122-.075-.35-.207-.19a6.056,6.056,0,0,0,.731,8.353,3.747,3.747,0,0,1,.16.557c.515,2.057-1,3.913-2.811,4.828" transform="translate(-159.268 -83.477)" fill="#ec8895"/>
        <path id="Trazado_1321501" data-name="Trazado 1321501" d="M366.273,178.7c-.186-.065-.305.188-.187.314a1.479,1.479,0,0,0,.916.1c3.806-1.307,2.525-6.245,3.365-9.2.076-.141-.017-.417-.209-.264a2.585,2.585,0,0,0-.181.318c-1.283,2.862-.513,6.922-3.7,8.73" transform="translate(-154.483 -75.492)" fill="#ec8895"/>
        <path id="Trazado_1321502" data-name="Trazado 1321502" d="M415.369,159.4c-.058.253.272.286.458.275a12.535,12.535,0,0,1,6.752,1.564c.175-.027.117-.232,0-.3-.173-.116-.267-.307-.428-.438a6.509,6.509,0,0,0-6-1.416c-.265.062-.625.065-.782.311" transform="translate(-175.299 -70.714)" fill="#ec8895"/>
        <path id="Trazado_1321503" data-name="Trazado 1321503" d="M391.279,177.963a.293.293,0,0,0-.055.443c.177.124.369-.147.524-.22,3.105-2.238,5.953-.608,6.914,2.684a19.024,19.024,0,0,1,.559,2.5c.08.291.031,1.348.557.871.7-3.72.213-8.122,3.248-11.032a7.644,7.644,0,0,1,3.052-2.026,2.611,2.611,0,0,1,1.666.2,2.462,2.462,0,0,1,.647.441c.371-.089-.123-.452-.266-.552-4.742-2.744-9.3,3.3-8.864,7.563-.913-1.863-3.179-3.448-5.376-2.792a6.608,6.608,0,0,0-2.605,1.914" transform="translate(-165.077 -75.93)" fill="#ec8895"/>
        <path id="Trazado_1321504" data-name="Trazado 1321504" d="M382.251,156.939c-.043.751-.047,1.512-.054,2.261.051.24.39.145.422-.062.026-2.733,1.966-5.1,4.322-6.447,3.322-1.8,7.445-2.243,10.21-4.946a6.557,6.557,0,0,0,1.892-6.15,4.687,4.687,0,0,0-.635-1.651c-.046-.071-.09-.161-.193-.146-.173.052-.129.266-.125.4a8.474,8.474,0,0,1-1.884,6.062c-3.464,4.247-9.331,3.077-12.6,7.454a7.3,7.3,0,0,0-1.358,3.221" transform="translate(-161.302 -62.224)" fill="#ec8895"/>
        <path id="Trazado_1321505" data-name="Trazado 1321505" d="M367.283,148.942c-.193.2-.016.368.216.193,6.159-4.89,12.8.07,16.729-7.144.1-.209.5-.933-.032-.714-.342.306-.595.706-.929,1.018-2.42,2.64-5.426,2.721-8.45,3.15a5.964,5.964,0,0,0,2.848-5.053c-.06-.2-.308-.09-.368.053a11.159,11.159,0,0,1-3.139,4.493c-.12.127-.871.559-1.248.853a10.542,10.542,0,0,0-3.074,1.2,16.548,16.548,0,0,0-2.553,1.948" transform="translate(-154.973 -62.442)" fill="#ec8895"/>
        <path id="Trazado_1321506" data-name="Trazado 1321506" d="M388.656,129.321c-.149-.25-.624-.633-.707-.133a8.6,8.6,0,0,1,.6,4.733.152.152,0,0,0,.209.184,4.174,4.174,0,0,0-.1-4.784" transform="translate(-163.73 -57.394)" fill="#ec8895"/>
        <path id="Trazado_1321507" data-name="Trazado 1321507" d="M383.959,274.02c-.127.135.06.262.2.174a3.9,3.9,0,0,0,3.034-3.315c-.068-.142-.265-.084-.343.018a11.089,11.089,0,0,1-2.267,2.731,4.361,4.361,0,0,1-.621.393" transform="translate(-162.028 -120.533)" fill="#ec8895"/>
        <path id="Trazado_1321508" data-name="Trazado 1321508" d="M364.778,170.144a22.077,22.077,0,0,1,3.978,12.685,22.31,22.31,0,0,1-.932,6.211,21.948,21.948,0,0,1-2.441,5.378,22.614,22.614,0,0,1-3.969,4.753,24.263,24.263,0,0,1-16.263,6.246q-.58,0-1.159-.026a25.114,25.114,0,0,1-6.474-1.183,24.022,24.022,0,0,1-5.928-2.89,23.348,23.348,0,0,1-5.133-4.7,21.388,21.388,0,0,1-2.087-3.077,21.988,21.988,0,0,1-2.709-8.342l-.014-.065c-.064-.585-.1-1.17-.118-1.759-.023-.69-.009-1.384.032-2.078.045-.668.123-1.336.227-2h0v-.022a21.705,21.705,0,0,1,1.287-4.657,22.934,22.934,0,0,1,8.229-10.262,24.16,24.16,0,0,1,6.065-3.034,25.182,25.182,0,0,1,3.337-.86c.591-.109,1.187-.193,1.782-.258.114-.013.232-.035.35-.039l.209-.013c.145-.013.3-.026.441-.035.291-.022.586-.035.877-.044a24.555,24.555,0,0,1,10.016,1.8,23.437,23.437,0,0,1,10.393,8.272" transform="translate(-135.692 -71.246)" fill="#7985bc"/>
        <path id="Trazado_1321509" data-name="Trazado 1321509" d="M361.536,182.784q-2.855,0-5.706-.007l-1.228,0q.006-3.388.013-6.775a4.991,4.991,0,0,0-9.973.1q0,2.741-.008,5.478,0,.589,0,1.179c-2.352,0-4.7,0-7.056-.013a4.928,4.928,0,0,0-4.935,4.79v.051a4.949,4.949,0,0,0,5.039,4.734c.916,0,1.829,0,2.745,0l4.189.007c0,2.258,0,4.516-.013,6.774a4.934,4.934,0,0,0,4.99,4.738h.053A4.938,4.938,0,0,0,354.574,199c0-.88,0-1.756,0-2.636q0-2.01.008-4.021l7.055.012a4.792,4.792,0,1,0-.1-9.575" transform="translate(-140.387 -76.23)" fill="#fff"/>
      </g>
    </g>
  </g>
</svg>
